<?xml version="1.0" encoding="utf-8"?>
<svg xmlns="http://www.w3.org/2000/svg" xmlns:xlink="http://www.w3.org/1999/xlink" width="960" height="480" viewBox="0 0 3840 1920">
<defs>
  <clipPath id="clip290">
    <rect x="0" y="0" width="3840" height="1920"/>
  </clipPath>
</defs>
<path clip-path="url(#clip290)" d="
M0 1920 L3840 1920 L3840 0 L0 0  Z
  " fill="#ffffff" fill-rule="evenodd" fill-opacity="1"/>
<defs>
  <clipPath id="clip291">
    <rect x="768" y="0" width="2689" height="1920"/>
  </clipPath>
</defs>
<path clip-path="url(#clip290)" d="
M341.368 1821.37 L3792.76 1821.37 L3792.76 108.352 L341.368 108.352  Z
  " fill="#ffffff" fill-rule="evenodd" fill-opacity="1"/>
<defs>
  <clipPath id="clip292">
    <rect x="341" y="108" width="3452" height="1714"/>
  </clipPath>
</defs>
<polyline clip-path="url(#clip290)" style="stroke:#000000; stroke-linecap:round; stroke-linejoin:round; stroke-width:4; stroke-opacity:1; fill:none" points="
  341.368,1821.37 3792.76,1821.37 
  "/>
<path clip-path="url(#clip290)" d="M1764.69 1888.47 L1774.27 1888.47 L1786.4 1920.81 L1798.59 1888.47 L1808.17 1888.47 L1808.17 1935.99 L1801.9 1935.99 L1801.9 1894.26 L1789.64 1926.86 L1783.18 1926.86 L1770.93 1894.26 L1770.93 1935.99 L1764.69 1935.99 L1764.69 1888.47 Z" fill="#000000" fill-rule="evenodd" fill-opacity="1" /><path clip-path="url(#clip290)" d="M1851.17 1916.7 L1851.17 1919.57 L1824.24 1919.57 Q1824.62 1925.62 1827.87 1928.8 Q1831.15 1931.95 1836.97 1931.95 Q1840.35 1931.95 1843.5 1931.12 Q1846.68 1930.29 1849.8 1928.64 L1849.8 1934.18 Q1846.65 1935.51 1843.34 1936.21 Q1840.03 1936.91 1836.62 1936.91 Q1828.09 1936.91 1823.1 1931.95 Q1818.13 1926.98 1818.13 1918.52 Q1818.13 1909.77 1822.84 1904.64 Q1827.58 1899.48 1835.6 1899.48 Q1842.8 1899.48 1846.97 1904.13 Q1851.17 1908.75 1851.17 1916.7 M1845.31 1914.99 Q1845.25 1910.18 1842.61 1907.31 Q1840 1904.45 1835.67 1904.45 Q1830.77 1904.45 1827.81 1907.22 Q1824.88 1909.99 1824.43 1915.02 L1845.31 1914.99 Z" fill="#000000" fill-rule="evenodd" fill-opacity="1" /><path clip-path="url(#clip290)" d="M1888.54 1907.19 Q1890.73 1903.24 1893.79 1901.36 Q1896.84 1899.48 1900.98 1899.48 Q1906.55 1899.48 1909.57 1903.4 Q1912.6 1907.28 1912.6 1914.48 L1912.6 1935.99 L1906.71 1935.99 L1906.71 1914.67 Q1906.71 1909.54 1904.9 1907.06 Q1903.08 1904.58 1899.36 1904.58 Q1894.81 1904.58 1892.16 1907.6 Q1889.52 1910.62 1889.52 1915.84 L1889.52 1935.99 L1883.63 1935.99 L1883.63 1914.67 Q1883.63 1909.51 1881.82 1907.06 Q1880.01 1904.58 1876.22 1904.58 Q1871.73 1904.58 1869.09 1907.63 Q1866.45 1910.66 1866.45 1915.84 L1866.45 1935.99 L1860.56 1935.99 L1860.56 1900.34 L1866.45 1900.34 L1866.45 1905.88 Q1868.45 1902.6 1871.25 1901.04 Q1874.05 1899.48 1877.9 1899.48 Q1881.79 1899.48 1884.49 1901.46 Q1887.23 1903.43 1888.54 1907.19 Z" fill="#000000" fill-rule="evenodd" fill-opacity="1" /><path clip-path="url(#clip290)" d="M1949.87 1918.2 Q1949.87 1911.74 1947.2 1908.08 Q1944.55 1904.39 1939.91 1904.39 Q1935.26 1904.39 1932.59 1908.08 Q1929.94 1911.74 1929.94 1918.2 Q1929.94 1924.66 1932.59 1928.35 Q1935.26 1932.01 1939.91 1932.01 Q1944.55 1932.01 1947.2 1928.35 Q1949.87 1924.66 1949.87 1918.2 M1929.94 1905.75 Q1931.79 1902.57 1934.59 1901.04 Q1937.42 1899.48 1941.34 1899.48 Q1947.83 1899.48 1951.87 1904.64 Q1955.95 1909.8 1955.95 1918.2 Q1955.95 1926.6 1951.87 1931.76 Q1947.83 1936.91 1941.34 1936.91 Q1937.42 1936.91 1934.59 1935.39 Q1931.79 1933.83 1929.94 1930.64 L1929.94 1935.99 L1924.06 1935.99 L1924.06 1886.47 L1929.94 1886.47 L1929.94 1905.75 Z" fill="#000000" fill-rule="evenodd" fill-opacity="1" /><path clip-path="url(#clip290)" d="M1986.31 1905.82 Q1985.33 1905.25 1984.15 1904.99 Q1983 1904.7 1981.6 1904.7 Q1976.64 1904.7 1973.96 1907.95 Q1971.32 1911.17 1971.32 1917.21 L1971.32 1935.99 L1965.43 1935.99 L1965.43 1900.34 L1971.32 1900.34 L1971.32 1905.88 Q1973.17 1902.64 1976.13 1901.08 Q1979.09 1899.48 1983.32 1899.48 Q1983.93 1899.48 1984.66 1899.58 Q1985.39 1899.64 1986.28 1899.8 L1986.31 1905.82 Z" fill="#000000" fill-rule="evenodd" fill-opacity="1" /><path clip-path="url(#clip290)" d="M2008.66 1918.07 Q2001.56 1918.07 1998.82 1919.7 Q1996.08 1921.32 1996.08 1925.23 Q1996.08 1928.35 1998.12 1930.2 Q2000.19 1932.01 2003.72 1932.01 Q2008.59 1932.01 2011.52 1928.58 Q2014.48 1925.11 2014.48 1919.38 L2014.48 1918.07 L2008.66 1918.07 M2020.34 1915.65 L2020.34 1935.99 L2014.48 1935.99 L2014.48 1930.58 Q2012.48 1933.83 2009.48 1935.39 Q2006.49 1936.91 2002.16 1936.91 Q1996.69 1936.91 1993.44 1933.86 Q1990.23 1930.77 1990.23 1925.62 Q1990.23 1919.6 1994.24 1916.54 Q1998.28 1913.49 2006.27 1913.49 L2014.48 1913.49 L2014.48 1912.92 Q2014.48 1908.87 2011.81 1906.68 Q2009.17 1904.45 2004.36 1904.45 Q2001.3 1904.45 1998.41 1905.18 Q1995.51 1905.91 1992.84 1907.38 L1992.84 1901.97 Q1996.05 1900.73 1999.08 1900.12 Q2002.1 1899.48 2004.96 1899.48 Q2012.7 1899.48 2016.52 1903.49 Q2020.34 1907.51 2020.34 1915.65 Z" fill="#000000" fill-rule="evenodd" fill-opacity="1" /><path clip-path="url(#clip290)" d="M2062.03 1914.48 L2062.03 1935.99 L2056.18 1935.99 L2056.18 1914.67 Q2056.18 1909.61 2054.2 1907.09 Q2052.23 1904.58 2048.28 1904.58 Q2043.54 1904.58 2040.8 1907.6 Q2038.07 1910.62 2038.07 1915.84 L2038.07 1935.99 L2032.18 1935.99 L2032.18 1900.34 L2038.07 1900.34 L2038.07 1905.88 Q2040.17 1902.67 2043 1901.08 Q2045.86 1899.48 2049.59 1899.48 Q2055.73 1899.48 2058.88 1903.3 Q2062.03 1907.09 2062.03 1914.48 Z" fill="#000000" fill-rule="evenodd" fill-opacity="1" /><path clip-path="url(#clip290)" d="M2104.21 1916.7 L2104.21 1919.57 L2077.28 1919.57 Q2077.66 1925.62 2080.91 1928.8 Q2084.19 1931.95 2090.01 1931.95 Q2093.38 1931.95 2096.54 1931.12 Q2099.72 1930.29 2102.84 1928.64 L2102.84 1934.18 Q2099.69 1935.51 2096.38 1936.21 Q2093.07 1936.91 2089.66 1936.91 Q2081.13 1936.91 2076.13 1931.95 Q2071.17 1926.98 2071.17 1918.52 Q2071.17 1909.77 2075.88 1904.64 Q2080.62 1899.48 2088.64 1899.48 Q2095.83 1899.48 2100 1904.13 Q2104.21 1908.75 2104.21 1916.7 M2098.35 1914.99 Q2098.29 1910.18 2095.64 1907.31 Q2093.03 1904.45 2088.71 1904.45 Q2083.8 1904.45 2080.84 1907.22 Q2077.92 1909.99 2077.47 1915.02 L2098.35 1914.99 Z" fill="#000000" fill-rule="evenodd" fill-opacity="1" /><path clip-path="url(#clip290)" d="M2147.05 1935.99 L2128.9 1888.47 L2135.62 1888.47 L2150.68 1928.48 L2165.76 1888.47 L2172.45 1888.47 L2154.34 1935.99 L2147.05 1935.99 Z" fill="#000000" fill-rule="evenodd" fill-opacity="1" /><path clip-path="url(#clip290)" d="M2187.88 1904.45 Q2183.17 1904.45 2180.44 1908.14 Q2177.7 1911.8 2177.7 1918.2 Q2177.7 1924.6 2180.4 1928.29 Q2183.14 1931.95 2187.88 1931.95 Q2192.56 1931.95 2195.3 1928.26 Q2198.04 1924.57 2198.04 1918.2 Q2198.04 1911.87 2195.3 1908.17 Q2192.56 1904.45 2187.88 1904.45 M2187.88 1899.48 Q2195.52 1899.48 2199.88 1904.45 Q2204.24 1909.42 2204.24 1918.2 Q2204.24 1926.95 2199.88 1931.95 Q2195.52 1936.91 2187.88 1936.91 Q2180.21 1936.91 2175.85 1931.95 Q2171.52 1926.95 2171.52 1918.2 Q2171.52 1909.42 2175.85 1904.45 Q2180.21 1899.48 2187.88 1899.48 Z" fill="#000000" fill-rule="evenodd" fill-opacity="1" /><path clip-path="url(#clip290)" d="M2213.95 1886.47 L2219.81 1886.47 L2219.81 1935.99 L2213.95 1935.99 L2213.95 1886.47 Z" fill="#000000" fill-rule="evenodd" fill-opacity="1" /><path clip-path="url(#clip290)" d="M2237.85 1890.22 L2237.85 1900.34 L2249.92 1900.34 L2249.92 1904.9 L2237.85 1904.9 L2237.85 1924.25 Q2237.85 1928.61 2239.03 1929.85 Q2240.24 1931.09 2243.9 1931.09 L2249.92 1931.09 L2249.92 1935.99 L2243.9 1935.99 Q2237.12 1935.99 2234.54 1933.48 Q2231.97 1930.93 2231.97 1924.25 L2231.97 1904.9 L2227.67 1904.9 L2227.67 1900.34 L2231.97 1900.34 L2231.97 1890.22 L2237.85 1890.22 Z" fill="#000000" fill-rule="evenodd" fill-opacity="1" /><path clip-path="url(#clip290)" d="M2273.82 1918.07 Q2266.72 1918.07 2263.98 1919.7 Q2261.25 1921.32 2261.25 1925.23 Q2261.25 1928.35 2263.28 1930.2 Q2265.35 1932.01 2268.89 1932.01 Q2273.76 1932.01 2276.68 1928.58 Q2279.64 1925.11 2279.64 1919.38 L2279.64 1918.07 L2273.82 1918.07 M2285.5 1915.65 L2285.5 1935.99 L2279.64 1935.99 L2279.64 1930.58 Q2277.64 1933.83 2274.65 1935.39 Q2271.66 1936.91 2267.33 1936.91 Q2261.85 1936.91 2258.61 1933.86 Q2255.39 1930.77 2255.39 1925.62 Q2255.39 1919.6 2259.4 1916.54 Q2263.44 1913.49 2271.43 1913.49 L2279.64 1913.49 L2279.64 1912.92 Q2279.64 1908.87 2276.97 1906.68 Q2274.33 1904.45 2269.52 1904.45 Q2266.47 1904.45 2263.57 1905.18 Q2260.67 1905.91 2258 1907.38 L2258 1901.97 Q2261.22 1900.73 2264.24 1900.12 Q2267.26 1899.48 2270.13 1899.48 Q2277.86 1899.48 2281.68 1903.49 Q2285.5 1907.51 2285.5 1915.65 Z" fill="#000000" fill-rule="evenodd" fill-opacity="1" /><path clip-path="url(#clip290)" d="M2321.02 1917.75 Q2321.02 1911.39 2318.38 1907.89 Q2315.77 1904.39 2311.03 1904.39 Q2306.32 1904.39 2303.68 1907.89 Q2301.07 1911.39 2301.07 1917.75 Q2301.07 1924.09 2303.68 1927.59 Q2306.32 1931.09 2311.03 1931.09 Q2315.77 1931.09 2318.38 1927.59 Q2321.02 1924.09 2321.02 1917.75 M2326.88 1931.57 Q2326.88 1940.67 2322.84 1945.09 Q2318.79 1949.55 2310.45 1949.55 Q2307.37 1949.55 2304.63 1949.07 Q2301.89 1948.63 2299.31 1947.67 L2299.31 1941.98 Q2301.89 1943.38 2304.41 1944.04 Q2306.92 1944.71 2309.53 1944.71 Q2315.29 1944.71 2318.16 1941.69 Q2321.02 1938.7 2321.02 1932.62 L2321.02 1929.72 Q2319.21 1932.87 2316.37 1934.43 Q2313.54 1935.99 2309.6 1935.99 Q2303.04 1935.99 2299.03 1930.99 Q2295.02 1926 2295.02 1917.75 Q2295.02 1909.48 2299.03 1904.48 Q2303.04 1899.48 2309.6 1899.48 Q2313.54 1899.48 2316.37 1901.04 Q2319.21 1902.6 2321.02 1905.75 L2321.02 1900.34 L2326.88 1900.34 L2326.88 1931.57 Z" fill="#000000" fill-rule="evenodd" fill-opacity="1" /><path clip-path="url(#clip290)" d="M2369.43 1916.7 L2369.43 1919.57 L2342.51 1919.57 Q2342.89 1925.62 2346.13 1928.8 Q2349.41 1931.95 2355.24 1931.95 Q2358.61 1931.95 2361.76 1931.12 Q2364.95 1930.29 2368.06 1928.64 L2368.06 1934.18 Q2364.91 1935.51 2361.6 1936.21 Q2358.29 1936.91 2354.89 1936.91 Q2346.36 1936.91 2341.36 1931.95 Q2336.39 1926.98 2336.39 1918.52 Q2336.39 1909.77 2341.11 1904.64 Q2345.85 1899.48 2353.87 1899.48 Q2361.06 1899.48 2365.23 1904.13 Q2369.43 1908.75 2369.43 1916.7 M2363.58 1914.99 Q2363.51 1910.18 2360.87 1907.31 Q2358.26 1904.45 2353.93 1904.45 Q2349.03 1904.45 2346.07 1907.22 Q2343.14 1909.99 2342.7 1915.02 L2363.58 1914.99 Z" fill="#000000" fill-rule="evenodd" fill-opacity="1" /><polyline clip-path="url(#clip292)" style="stroke:#000000; stroke-linecap:round; stroke-linejoin:round; stroke-width:2; stroke-opacity:0.1; fill:none" points="
  341.368,1821.37 3792.76,1821.37 
  "/>
<polyline clip-path="url(#clip292)" style="stroke:#000000; stroke-linecap:round; stroke-linejoin:round; stroke-width:2; stroke-opacity:0.1; fill:none" points="
  341.368,108.352 3792.76,108.352 
  "/>
<polyline clip-path="url(#clip290)" style="stroke:#000000; stroke-linecap:round; stroke-linejoin:round; stroke-width:4; stroke-opacity:1; fill:none" points="
  341.368,1821.37 341.368,108.352 
  "/>
<polyline clip-path="url(#clip290)" style="stroke:#000000; stroke-linecap:round; stroke-linejoin:round; stroke-width:4; stroke-opacity:1; fill:none" points="
  341.368,1821.37 360.265,1821.37 
  "/>
<polyline clip-path="url(#clip290)" style="stroke:#000000; stroke-linecap:round; stroke-linejoin:round; stroke-width:4; stroke-opacity:1; fill:none" points="
  341.368,108.352 360.265,108.352 
  "/>
<path clip-path="url(#clip290)" d="M66.0374 92.2064 L66.0374 96.7665 Q63.3754 95.4934 61.0143 94.8684 Q58.6532 94.2434 56.4541 94.2434 Q52.6347 94.2434 50.5513 95.7249 Q48.4912 97.2064 48.4912 99.9378 Q48.4912 102.229 49.8569 103.41 Q51.2458 104.567 55.0884 105.285 L57.9124 105.864 Q63.1439 106.859 65.6207 109.382 Q68.1207 111.882 68.1207 116.095 Q68.1207 121.118 64.7411 123.711 Q61.3846 126.303 54.88 126.303 Q52.4263 126.303 49.6486 125.748 Q46.894 125.192 43.931 124.104 L43.931 119.29 Q46.7782 120.887 49.5097 121.697 Q52.2412 122.507 54.88 122.507 Q58.8846 122.507 61.0606 120.933 Q63.2365 119.359 63.2365 116.442 Q63.2365 113.896 61.6624 112.461 Q60.1115 111.026 56.5467 110.308 L53.6995 109.753 Q48.468 108.711 46.1301 106.489 Q43.7921 104.266 43.7921 100.308 Q43.7921 95.7249 47.0097 93.086 Q50.2504 90.4471 55.9217 90.4471 Q58.3522 90.4471 60.8754 90.8869 Q63.3985 91.3268 66.0374 92.2064 Z" fill="#000000" fill-rule="evenodd" fill-opacity="1" /><path clip-path="url(#clip290)" d="M87.0095 112.6 Q81.8475 112.6 79.8567 113.78 Q77.866 114.961 77.866 117.808 Q77.866 120.077 79.3475 121.419 Q80.8521 122.739 83.4215 122.739 Q86.9632 122.739 89.0928 120.239 Q91.2456 117.716 91.2456 113.549 L91.2456 112.6 L87.0095 112.6 M95.5048 110.841 L95.5048 125.632 L91.2456 125.632 L91.2456 121.697 Q89.7872 124.058 87.6113 125.192 Q85.4354 126.303 82.2873 126.303 Q78.3058 126.303 75.9447 124.081 Q73.6068 121.836 73.6068 118.086 Q73.6068 113.711 76.5234 111.489 Q79.4632 109.266 85.2734 109.266 L91.2456 109.266 L91.2456 108.85 Q91.2456 105.91 89.3011 104.313 Q87.3799 102.692 83.8845 102.692 Q81.6623 102.692 79.5558 103.225 Q77.4494 103.757 75.5049 104.822 L75.5049 100.887 Q77.8429 99.9841 80.0419 99.5443 Q82.241 99.0813 84.3243 99.0813 Q89.9493 99.0813 92.727 101.998 Q95.5048 104.915 95.5048 110.841 Z" fill="#000000" fill-rule="evenodd" fill-opacity="1" /><path clip-path="url(#clip290)" d="M108.491 92.3453 L108.491 99.7063 L117.264 99.7063 L117.264 103.017 L108.491 103.017 L108.491 117.091 Q108.491 120.262 109.347 121.165 Q110.227 122.067 112.889 122.067 L117.264 122.067 L117.264 125.632 L112.889 125.632 Q107.958 125.632 106.083 123.803 Q104.208 121.952 104.208 117.091 L104.208 103.017 L101.083 103.017 L101.083 99.7063 L104.208 99.7063 L104.208 92.3453 L108.491 92.3453 Z" fill="#000000" fill-rule="evenodd" fill-opacity="1" /><path clip-path="url(#clip290)" d="M122.426 115.401 L122.426 99.7063 L126.685 99.7063 L126.685 115.239 Q126.685 118.919 128.12 120.771 Q129.556 122.6 132.426 122.6 Q135.875 122.6 137.866 120.401 Q139.88 118.202 139.88 114.405 L139.88 99.7063 L144.139 99.7063 L144.139 125.632 L139.88 125.632 L139.88 121.651 Q138.329 124.012 136.268 125.169 Q134.231 126.303 131.523 126.303 Q127.056 126.303 124.741 123.526 Q122.426 120.748 122.426 115.401 M133.143 99.0813 L133.143 99.0813 Z" fill="#000000" fill-rule="evenodd" fill-opacity="1" /><path clip-path="url(#clip290)" d="M167.935 103.688 Q167.217 103.271 166.361 103.086 Q165.528 102.878 164.509 102.878 Q160.898 102.878 158.954 105.239 Q157.032 107.577 157.032 111.975 L157.032 125.632 L152.75 125.632 L152.75 99.7063 L157.032 99.7063 L157.032 103.734 Q158.375 101.373 160.528 100.239 Q162.68 99.0813 165.759 99.0813 Q166.199 99.0813 166.731 99.1508 Q167.264 99.1971 167.912 99.3128 L167.935 103.688 Z" fill="#000000" fill-rule="evenodd" fill-opacity="1" /><path clip-path="url(#clip290)" d="M184.185 112.6 Q179.023 112.6 177.032 113.78 Q175.041 114.961 175.041 117.808 Q175.041 120.077 176.523 121.419 Q178.028 122.739 180.597 122.739 Q184.139 122.739 186.268 120.239 Q188.421 117.716 188.421 113.549 L188.421 112.6 L184.185 112.6 M192.68 110.841 L192.68 125.632 L188.421 125.632 L188.421 121.697 Q186.963 124.058 184.787 125.192 Q182.611 126.303 179.463 126.303 Q175.481 126.303 173.12 124.081 Q170.782 121.836 170.782 118.086 Q170.782 113.711 173.699 111.489 Q176.639 109.266 182.449 109.266 L188.421 109.266 L188.421 108.85 Q188.421 105.91 186.477 104.313 Q184.555 102.692 181.06 102.692 Q178.838 102.692 176.731 103.225 Q174.625 103.757 172.68 104.822 L172.68 100.887 Q175.018 99.9841 177.217 99.5443 Q179.416 99.0813 181.5 99.0813 Q187.125 99.0813 189.902 101.998 Q192.68 104.915 192.68 110.841 Z" fill="#000000" fill-rule="evenodd" fill-opacity="1" /><path clip-path="url(#clip290)" d="M205.666 92.3453 L205.666 99.7063 L214.439 99.7063 L214.439 103.017 L205.666 103.017 L205.666 117.091 Q205.666 120.262 206.523 121.165 Q207.402 122.067 210.064 122.067 L214.439 122.067 L214.439 125.632 L210.064 125.632 Q205.134 125.632 203.259 123.803 Q201.384 121.952 201.384 117.091 L201.384 103.017 L198.259 103.017 L198.259 99.7063 L201.384 99.7063 L201.384 92.3453 L205.666 92.3453 Z" fill="#000000" fill-rule="evenodd" fill-opacity="1" /><path clip-path="url(#clip290)" d="M220.041 99.7063 L224.3 99.7063 L224.3 125.632 L220.041 125.632 L220.041 99.7063 M220.041 89.6138 L224.3 89.6138 L224.3 95.0073 L220.041 95.0073 L220.041 89.6138 Z" fill="#000000" fill-rule="evenodd" fill-opacity="1" /><path clip-path="url(#clip290)" d="M243.259 102.692 Q239.833 102.692 237.842 105.378 Q235.851 108.04 235.851 112.692 Q235.851 117.345 237.819 120.03 Q239.81 122.692 243.259 122.692 Q246.661 122.692 248.652 120.007 Q250.643 117.322 250.643 112.692 Q250.643 108.086 248.652 105.401 Q246.661 102.692 243.259 102.692 M243.259 99.0813 Q248.814 99.0813 251.985 102.692 Q255.157 106.304 255.157 112.692 Q255.157 119.058 251.985 122.692 Q248.814 126.303 243.259 126.303 Q237.68 126.303 234.509 122.692 Q231.361 119.058 231.361 112.692 Q231.361 106.304 234.509 102.692 Q237.68 99.0813 243.259 99.0813 Z" fill="#000000" fill-rule="evenodd" fill-opacity="1" /><path clip-path="url(#clip290)" d="M283.768 109.984 L283.768 125.632 L279.508 125.632 L279.508 110.123 Q279.508 106.442 278.073 104.614 Q276.638 102.785 273.768 102.785 Q270.319 102.785 268.328 104.984 Q266.337 107.183 266.337 110.979 L266.337 125.632 L262.055 125.632 L262.055 99.7063 L266.337 99.7063 L266.337 103.734 Q267.865 101.396 269.925 100.239 Q272.008 99.0813 274.717 99.0813 Q279.184 99.0813 281.476 101.859 Q283.768 104.614 283.768 109.984 Z" fill="#000000" fill-rule="evenodd" fill-opacity="1" /><path clip-path="url(#clip290)" d="M1447.03 12.096 L1455.21 12.096 L1455.21 36.8875 L1484.95 36.8875 L1484.95 12.096 L1493.13 12.096 L1493.13 72.576 L1484.95 72.576 L1484.95 43.7741 L1455.21 43.7741 L1455.21 72.576 L1447.03 72.576 L1447.03 12.096 Z" fill="#000000" fill-rule="evenodd" fill-opacity="1" /><path clip-path="url(#clip290)" d="M1547.9 48.0275 L1547.9 51.6733 L1513.63 51.6733 Q1514.11 59.3701 1518.25 63.421 Q1522.42 67.4314 1529.83 67.4314 Q1534.12 67.4314 1538.14 66.3781 Q1542.19 65.3249 1546.16 63.2184 L1546.16 70.267 Q1542.15 71.9684 1537.93 72.8596 Q1533.72 73.7508 1529.39 73.7508 Q1518.53 73.7508 1512.17 67.4314 Q1505.85 61.1119 1505.85 50.3365 Q1505.85 39.1965 1511.84 32.6746 Q1517.88 26.1121 1528.09 26.1121 Q1537.24 26.1121 1542.55 32.0264 Q1547.9 37.9003 1547.9 48.0275 M1540.44 45.84 Q1540.36 39.7232 1537 36.0774 Q1533.68 32.4315 1528.17 32.4315 Q1521.93 32.4315 1518.16 35.9558 Q1514.44 39.4801 1513.87 45.8805 L1540.44 45.84 Z" fill="#000000" fill-rule="evenodd" fill-opacity="1" /><path clip-path="url(#clip290)" d="M1580.75 49.7694 Q1571.72 49.7694 1568.23 51.8354 Q1564.75 53.9013 1564.75 58.8839 Q1564.75 62.8538 1567.34 65.2034 Q1569.98 67.5124 1574.47 67.5124 Q1580.67 67.5124 1584.4 63.1374 Q1588.16 58.7219 1588.16 51.4303 L1588.16 49.7694 L1580.75 49.7694 M1595.62 46.6907 L1595.62 72.576 L1588.16 72.576 L1588.16 65.6895 Q1585.61 69.8214 1581.8 71.8063 Q1578 73.7508 1572.49 73.7508 Q1565.52 73.7508 1561.39 69.8619 Q1557.3 65.9325 1557.3 59.3701 Q1557.3 51.7138 1562.4 47.825 Q1567.54 43.9361 1577.71 43.9361 L1588.16 43.9361 L1588.16 43.2069 Q1588.16 38.0623 1584.76 35.2672 Q1581.4 32.4315 1575.28 32.4315 Q1571.39 32.4315 1567.71 33.3632 Q1564.02 34.295 1560.62 36.1584 L1560.62 29.2718 Q1564.71 27.692 1568.56 26.9223 Q1572.41 26.1121 1576.05 26.1121 Q1585.9 26.1121 1590.76 31.2163 Q1595.62 36.3204 1595.62 46.6907 Z" fill="#000000" fill-rule="evenodd" fill-opacity="1" /><path clip-path="url(#clip290)" d="M1605.62 27.2059 L1613.52 27.2059 L1627.7 65.2844 L1641.88 27.2059 L1649.78 27.2059 L1632.76 72.576 L1622.64 72.576 L1605.62 27.2059 Z" fill="#000000" fill-rule="evenodd" fill-opacity="1" /><path clip-path="url(#clip290)" d="M1660.07 27.2059 L1667.52 27.2059 L1667.52 72.576 L1660.07 72.576 L1660.07 27.2059 M1660.07 9.54393 L1667.52 9.54393 L1667.52 18.9825 L1660.07 18.9825 L1660.07 9.54393 Z" fill="#000000" fill-rule="evenodd" fill-opacity="1" /><path clip-path="url(#clip290)" d="M1712.04 28.5427 L1712.04 35.5912 Q1708.88 33.9709 1705.48 33.1607 Q1702.08 32.3505 1698.43 32.3505 Q1692.88 32.3505 1690.08 34.0519 Q1687.33 35.7533 1687.33 39.156 Q1687.33 41.7486 1689.31 43.2475 Q1691.3 44.7058 1697.3 46.0426 L1699.85 46.6097 Q1707.79 48.3111 1711.11 51.4303 Q1714.47 54.509 1714.47 60.0587 Q1714.47 66.3781 1709.45 70.0644 Q1704.47 73.7508 1695.72 73.7508 Q1692.07 73.7508 1688.1 73.0216 Q1684.17 72.3329 1679.8 70.9151 L1679.8 63.2184 Q1683.93 65.3654 1687.94 66.4591 Q1691.95 67.5124 1695.88 67.5124 Q1701.14 67.5124 1703.98 65.73 Q1706.81 63.9071 1706.81 60.6258 Q1706.81 57.5877 1704.75 55.9673 Q1702.72 54.3469 1695.8 52.8481 L1693.2 52.2405 Q1686.28 50.7821 1683.2 47.7845 Q1680.12 44.7463 1680.12 39.4801 Q1680.12 33.0797 1684.66 29.5959 Q1689.19 26.1121 1697.54 26.1121 Q1701.67 26.1121 1705.32 26.7198 Q1708.96 27.3274 1712.04 28.5427 Z" fill="#000000" fill-rule="evenodd" fill-opacity="1" /><path clip-path="url(#clip290)" d="M1726.34 27.2059 L1733.79 27.2059 L1733.79 72.576 L1726.34 72.576 L1726.34 27.2059 M1726.34 9.54393 L1733.79 9.54393 L1733.79 18.9825 L1726.34 18.9825 L1726.34 9.54393 Z" fill="#000000" fill-rule="evenodd" fill-opacity="1" /><path clip-path="url(#clip290)" d="M1779.25 34.0924 L1779.25 9.54393 L1786.7 9.54393 L1786.7 72.576 L1779.25 72.576 L1779.25 65.7705 Q1776.9 69.8214 1773.29 71.8063 Q1769.73 73.7508 1764.7 73.7508 Q1756.48 73.7508 1751.29 67.1883 Q1746.15 60.6258 1746.15 49.9314 Q1746.15 39.2371 1751.29 32.6746 Q1756.48 26.1121 1764.7 26.1121 Q1769.73 26.1121 1773.29 28.0971 Q1776.9 30.0415 1779.25 34.0924 M1753.85 49.9314 Q1753.85 58.1548 1757.21 62.8538 Q1760.61 67.5124 1766.53 67.5124 Q1772.44 67.5124 1775.84 62.8538 Q1779.25 58.1548 1779.25 49.9314 Q1779.25 41.7081 1775.84 37.0496 Q1772.44 32.3505 1766.53 32.3505 Q1760.61 32.3505 1757.21 37.0496 Q1753.85 41.7081 1753.85 49.9314 Z" fill="#000000" fill-rule="evenodd" fill-opacity="1" /><path clip-path="url(#clip290)" d="M1840.86 48.0275 L1840.86 51.6733 L1806.59 51.6733 Q1807.07 59.3701 1811.21 63.421 Q1815.38 67.4314 1822.79 67.4314 Q1827.09 67.4314 1831.1 66.3781 Q1835.15 65.3249 1839.12 63.2184 L1839.12 70.267 Q1835.11 71.9684 1830.89 72.8596 Q1826.68 73.7508 1822.35 73.7508 Q1811.49 73.7508 1805.13 67.4314 Q1798.81 61.1119 1798.81 50.3365 Q1798.81 39.1965 1804.81 32.6746 Q1810.84 26.1121 1821.05 26.1121 Q1830.21 26.1121 1835.51 32.0264 Q1840.86 37.9003 1840.86 48.0275 M1833.41 45.84 Q1833.32 39.7232 1829.96 36.0774 Q1826.64 32.4315 1821.13 32.4315 Q1814.89 32.4315 1811.13 35.9558 Q1807.4 39.4801 1806.83 45.8805 L1833.41 45.84 Z" fill="#000000" fill-rule="evenodd" fill-opacity="1" /><path clip-path="url(#clip290)" d="M1897.37 9.62495 Q1891.94 18.942 1889.31 28.0566 Q1886.68 37.1711 1886.68 46.5287 Q1886.68 55.8863 1889.31 65.0818 Q1891.98 74.2369 1897.37 83.5134 L1890.89 83.5134 Q1884.81 73.9938 1881.77 64.7983 Q1878.78 55.6027 1878.78 46.5287 Q1878.78 37.4952 1881.77 28.3401 Q1884.77 19.1851 1890.89 9.62495 L1897.37 9.62495 Z" fill="#000000" fill-rule="evenodd" fill-opacity="1" /><path clip-path="url(#clip290)" d="M1936.7 17.6457 Q1927.79 17.6457 1922.53 24.2892 Q1917.3 30.9327 1917.3 42.3968 Q1917.3 53.8203 1922.53 60.4638 Q1927.79 67.1073 1936.7 67.1073 Q1945.62 67.1073 1950.8 60.4638 Q1956.03 53.8203 1956.03 42.3968 Q1956.03 30.9327 1950.8 24.2892 Q1945.62 17.6457 1936.7 17.6457 M1936.7 11.0023 Q1949.42 11.0023 1957.04 19.5497 Q1964.65 28.0566 1964.65 42.3968 Q1964.65 56.6965 1957.04 65.2439 Q1949.42 73.7508 1936.7 73.7508 Q1923.94 73.7508 1916.29 65.2439 Q1908.67 56.737 1908.67 42.3968 Q1908.67 28.0566 1916.29 19.5497 Q1923.94 11.0023 1936.7 11.0023 Z" fill="#000000" fill-rule="evenodd" fill-opacity="1" /><path clip-path="url(#clip290)" d="M1977.46 12.096 L1988.47 12.096 L2015.29 62.6918 L2015.29 12.096 L2023.23 12.096 L2023.23 72.576 L2012.21 72.576 L1985.4 21.9802 L1985.4 72.576 L1977.46 72.576 L1977.46 12.096 Z" fill="#000000" fill-rule="evenodd" fill-opacity="1" /><path clip-path="url(#clip290)" d="M2052.44 12.096 L2059.32 12.096 L2038.26 80.2727 L2031.37 80.2727 L2052.44 12.096 Z" fill="#000000" fill-rule="evenodd" fill-opacity="1" /><path clip-path="url(#clip290)" d="M2092.02 17.6457 Q2083.1 17.6457 2077.84 24.2892 Q2072.61 30.9327 2072.61 42.3968 Q2072.61 53.8203 2077.84 60.4638 Q2083.1 67.1073 2092.02 67.1073 Q2100.93 67.1073 2106.11 60.4638 Q2111.34 53.8203 2111.34 42.3968 Q2111.34 30.9327 2106.11 24.2892 Q2100.93 17.6457 2092.02 17.6457 M2092.02 11.0023 Q2104.74 11.0023 2112.35 19.5497 Q2119.97 28.0566 2119.97 42.3968 Q2119.97 56.6965 2112.35 65.2439 Q2104.74 73.7508 2092.02 73.7508 Q2079.26 73.7508 2071.6 65.2439 Q2063.98 56.737 2063.98 42.3968 Q2063.98 28.0566 2071.6 19.5497 Q2079.26 11.0023 2092.02 11.0023 Z" fill="#000000" fill-rule="evenodd" fill-opacity="1" /><path clip-path="url(#clip290)" d="M2132.77 12.096 L2167.52 12.096 L2167.52 18.9825 L2140.95 18.9825 L2140.95 36.8065 L2164.93 36.8065 L2164.93 43.6931 L2140.95 43.6931 L2140.95 72.576 L2132.77 72.576 L2132.77 12.096 Z" fill="#000000" fill-rule="evenodd" fill-opacity="1" /><path clip-path="url(#clip290)" d="M2180.49 12.096 L2215.24 12.096 L2215.24 18.9825 L2188.67 18.9825 L2188.67 36.8065 L2212.65 36.8065 L2212.65 43.6931 L2188.67 43.6931 L2188.67 72.576 L2180.49 72.576 L2180.49 12.096 Z" fill="#000000" fill-rule="evenodd" fill-opacity="1" /><path clip-path="url(#clip290)" d="M2226.71 9.62495 L2233.19 9.62495 Q2239.27 19.1851 2242.26 28.3401 Q2245.3 37.4952 2245.3 46.5287 Q2245.3 55.6027 2242.26 64.7983 Q2239.27 73.9938 2233.19 83.5134 L2226.71 83.5134 Q2232.1 74.2369 2234.73 65.0818 Q2237.4 55.8863 2237.4 46.5287 Q2237.4 37.1711 2234.73 28.0566 Q2232.1 18.942 2226.71 9.62495 Z" fill="#000000" fill-rule="evenodd" fill-opacity="1" /><path clip-path="url(#clip290)" d="M2307.16 20.1573 L2296.06 50.2555 L2318.3 50.2555 L2307.16 20.1573 M2302.54 12.096 L2311.82 12.096 L2334.87 72.576 L2326.36 72.576 L2320.85 57.061 L2293.59 57.061 L2288.08 72.576 L2279.45 72.576 L2302.54 12.096 Z" fill="#000000" fill-rule="evenodd" fill-opacity="1" /><path clip-path="url(#clip290)" d="M2374.57 28.9478 L2374.57 35.9153 Q2371.41 34.1734 2368.21 33.3227 Q2365.05 32.4315 2361.81 32.4315 Q2354.55 32.4315 2350.54 37.0496 Q2346.53 41.6271 2346.53 49.9314 Q2346.53 58.2358 2350.54 62.8538 Q2354.55 67.4314 2361.81 67.4314 Q2365.05 67.4314 2368.21 66.5807 Q2371.41 65.6895 2374.57 63.9476 L2374.57 70.8341 Q2371.45 72.2924 2368.08 73.0216 Q2364.76 73.7508 2361 73.7508 Q2350.75 73.7508 2344.71 67.3098 Q2338.67 60.8689 2338.67 49.9314 Q2338.67 38.832 2344.75 32.472 Q2350.87 26.1121 2361.48 26.1121 Q2364.92 26.1121 2368.21 26.8413 Q2371.49 27.5299 2374.57 28.9478 Z" fill="#000000" fill-rule="evenodd" fill-opacity="1" /><path clip-path="url(#clip290)" d="M2394.9 14.324 L2394.9 27.2059 L2410.25 27.2059 L2410.25 32.9987 L2394.9 32.9987 L2394.9 57.6282 Q2394.9 63.1779 2396.4 64.7578 Q2397.94 66.3376 2402.6 66.3376 L2410.25 66.3376 L2410.25 72.576 L2402.6 72.576 Q2393.97 72.576 2390.69 69.3758 Q2387.41 66.1351 2387.41 57.6282 L2387.41 32.9987 L2381.94 32.9987 L2381.94 27.2059 L2387.41 27.2059 L2387.41 14.324 L2394.9 14.324 Z" fill="#000000" fill-rule="evenodd" fill-opacity="1" /><path clip-path="url(#clip290)" d="M2420.06 27.2059 L2427.51 27.2059 L2427.51 72.576 L2420.06 72.576 L2420.06 27.2059 M2420.06 9.54393 L2427.51 9.54393 L2427.51 18.9825 L2420.06 18.9825 L2420.06 9.54393 Z" fill="#000000" fill-rule="evenodd" fill-opacity="1" /><path clip-path="url(#clip290)" d="M2437.76 27.2059 L2445.66 27.2059 L2459.84 65.2844 L2474.02 27.2059 L2481.91 27.2059 L2464.9 72.576 L2454.77 72.576 L2437.76 27.2059 Z" fill="#000000" fill-rule="evenodd" fill-opacity="1" /><path clip-path="url(#clip290)" d="M2512.82 49.7694 Q2503.79 49.7694 2500.31 51.8354 Q2496.82 53.9013 2496.82 58.8839 Q2496.82 62.8538 2499.41 65.2034 Q2502.05 67.5124 2506.54 67.5124 Q2512.74 67.5124 2516.47 63.1374 Q2520.24 58.7219 2520.24 51.4303 L2520.24 49.7694 L2512.82 49.7694 M2527.69 46.6907 L2527.69 72.576 L2520.24 72.576 L2520.24 65.6895 Q2517.68 69.8214 2513.88 71.8063 Q2510.07 73.7508 2504.56 73.7508 Q2497.59 73.7508 2493.46 69.8619 Q2489.37 65.9325 2489.37 59.3701 Q2489.37 51.7138 2494.47 47.825 Q2499.62 43.9361 2509.79 43.9361 L2520.24 43.9361 L2520.24 43.2069 Q2520.24 38.0623 2516.83 35.2672 Q2513.47 32.4315 2507.35 32.4315 Q2503.47 32.4315 2499.78 33.3632 Q2496.09 34.295 2492.69 36.1584 L2492.69 29.2718 Q2496.78 27.692 2500.63 26.9223 Q2504.48 26.1121 2508.12 26.1121 Q2517.97 26.1121 2522.83 31.2163 Q2527.69 36.3204 2527.69 46.6907 Z" fill="#000000" fill-rule="evenodd" fill-opacity="1" /><path clip-path="url(#clip290)" d="M2550.42 14.324 L2550.42 27.2059 L2565.77 27.2059 L2565.77 32.9987 L2550.42 32.9987 L2550.42 57.6282 Q2550.42 63.1779 2551.91 64.7578 Q2553.45 66.3376 2558.11 66.3376 L2565.77 66.3376 L2565.77 72.576 L2558.11 72.576 Q2549.48 72.576 2546.2 69.3758 Q2542.92 66.1351 2542.92 57.6282 L2542.92 32.9987 L2537.45 32.9987 L2537.45 27.2059 L2542.92 27.2059 L2542.92 14.324 L2550.42 14.324 Z" fill="#000000" fill-rule="evenodd" fill-opacity="1" /><path clip-path="url(#clip290)" d="M2575.57 27.2059 L2583.03 27.2059 L2583.03 72.576 L2575.57 72.576 L2575.57 27.2059 M2575.57 9.54393 L2583.03 9.54393 L2583.03 18.9825 L2575.57 18.9825 L2575.57 9.54393 Z" fill="#000000" fill-rule="evenodd" fill-opacity="1" /><path clip-path="url(#clip290)" d="M2616.2 32.4315 Q2610.21 32.4315 2606.72 37.1306 Q2603.24 41.7891 2603.24 49.9314 Q2603.24 58.0738 2606.68 62.7728 Q2610.17 67.4314 2616.2 67.4314 Q2622.16 67.4314 2625.64 62.7323 Q2629.12 58.0333 2629.12 49.9314 Q2629.12 41.8701 2625.64 37.1711 Q2622.16 32.4315 2616.2 32.4315 M2616.2 26.1121 Q2625.92 26.1121 2631.47 32.4315 Q2637.02 38.7509 2637.02 49.9314 Q2637.02 61.0714 2631.47 67.4314 Q2625.92 73.7508 2616.2 73.7508 Q2606.44 73.7508 2600.89 67.4314 Q2595.38 61.0714 2595.38 49.9314 Q2595.38 38.7509 2600.89 32.4315 Q2606.44 26.1121 2616.2 26.1121 Z" fill="#000000" fill-rule="evenodd" fill-opacity="1" /><path clip-path="url(#clip290)" d="M2687.09 45.1919 L2687.09 72.576 L2679.64 72.576 L2679.64 45.4349 Q2679.64 38.994 2677.13 35.7938 Q2674.62 32.5936 2669.59 32.5936 Q2663.56 32.5936 2660.07 36.4419 Q2656.59 40.2903 2656.59 46.9338 L2656.59 72.576 L2649.1 72.576 L2649.1 27.2059 L2656.59 27.2059 L2656.59 34.2544 Q2659.26 30.163 2662.87 28.1376 Q2666.51 26.1121 2671.25 26.1121 Q2679.07 26.1121 2683.08 30.9732 Q2687.09 35.7938 2687.09 45.1919 Z" fill="#000000" fill-rule="evenodd" fill-opacity="1" /><polyline clip-path="url(#clip292)" style="stroke:#009af9; stroke-linecap:round; stroke-linejoin:round; stroke-width:4; stroke-opacity:1; fill:none" points="
  439.048,1821.37 440.677,1821.37 442.305,1821.37 443.933,1821.37 445.561,1821.37 447.189,1821.37 448.817,1821.37 450.445,1821.37 452.073,1821.37 453.701,1821.37 
  455.329,1821.37 456.957,1821.37 458.585,1821.37 460.213,1821.37 461.841,1821.37 463.469,1821.37 465.097,1821.37 466.725,1821.37 468.353,1821.37 469.981,1821.37 
  471.609,1821.37 473.237,1821.37 474.865,1821.37 476.493,1821.37 478.121,1821.37 479.749,1821.37 481.377,1821.37 483.005,1821.37 484.633,1821.37 486.261,1821.37 
  487.889,1821.37 489.517,1821.37 491.145,1821.37 492.773,1821.37 494.401,1821.37 496.029,1821.37 497.657,1821.37 499.285,1821.37 500.913,1821.37 502.541,1821.37 
  504.169,1821.37 505.797,1821.37 507.425,1821.37 509.053,1821.37 510.681,1821.37 512.309,1821.37 513.937,1821.37 515.565,1821.37 517.193,1821.37 518.821,1821.37 
  520.449,1821.37 522.077,1821.37 523.705,1821.37 525.333,1821.37 526.961,1821.37 528.589,1821.37 530.217,1821.37 531.845,1821.37 533.473,1821.37 535.101,1821.37 
  536.729,1821.37 538.357,1821.37 539.985,1821.37 541.613,1821.37 543.241,1821.37 544.869,1821.37 546.497,1821.37 548.125,1821.37 549.753,1821.37 551.381,1821.37 
  553.009,1821.37 554.637,1821.37 556.265,1821.37 557.893,1821.37 559.521,1821.37 561.149,1821.37 562.778,1821.37 564.406,1821.37 566.034,1821.37 567.662,1821.37 
  569.29,1821.37 570.918,1821.37 572.546,1821.37 574.174,1821.37 575.802,1821.37 577.43,1821.37 579.058,1821.37 580.686,1821.37 582.314,1821.37 583.942,1821.37 
  585.57,1821.37 587.198,1821.37 588.826,1821.37 590.454,1821.37 592.082,1821.37 593.71,1821.37 595.338,1821.37 596.966,1821.37 598.594,1821.37 600.222,1821.37 
  601.85,1821.37 603.478,1821.37 605.106,1821.37 606.734,1821.37 608.362,1821.37 609.99,1821.37 611.618,1821.37 613.246,1821.37 614.874,1821.37 616.502,1821.37 
  618.13,1821.37 619.758,1821.37 621.386,1821.37 623.014,1821.37 624.642,1821.37 626.27,1821.37 627.898,1821.37 629.526,1821.37 631.154,1821.37 632.782,1821.37 
  634.41,1821.37 636.038,1821.37 637.666,1821.37 639.294,1821.37 640.922,1821.37 642.55,1821.37 644.178,1821.37 645.806,1821.37 647.434,1821.37 649.062,1821.37 
  650.69,1821.37 652.318,1821.37 653.946,1821.37 655.574,1821.37 657.202,1821.37 658.83,1821.37 660.458,1821.37 662.086,1821.37 663.714,1821.37 665.342,1821.37 
  666.97,1821.37 668.598,1821.37 670.226,1821.37 671.854,1821.37 673.482,1821.37 675.11,1821.37 676.738,1821.37 678.366,1821.37 679.994,1821.37 681.622,1821.37 
  683.25,1821.37 684.879,1821.37 686.507,1821.37 688.135,1821.37 689.763,1821.37 691.391,1821.37 693.019,1821.37 694.647,1821.37 696.275,1821.37 697.903,1821.37 
  699.531,1821.37 701.159,1821.37 702.787,1821.37 704.415,1821.37 706.043,1821.37 707.671,1821.37 709.299,1821.37 710.927,1821.37 712.555,1821.37 714.183,1821.37 
  715.811,1821.37 717.439,1821.37 719.067,1821.37 720.695,1821.37 722.323,1821.37 723.951,1821.37 725.579,1821.37 727.207,1821.37 728.835,1821.37 730.463,1821.37 
  732.091,1821.37 733.719,1821.37 735.347,1821.37 736.975,1821.37 738.603,1821.37 740.231,1821.37 741.859,1821.37 743.487,1821.37 745.115,1821.37 746.743,1821.37 
  748.371,1821.37 749.999,1821.37 751.627,1821.37 753.255,1821.37 754.883,1821.37 756.511,1821.37 758.139,1821.37 759.767,1821.37 761.395,1821.37 763.023,1821.37 
  764.651,1821.37 766.279,1821.37 767.907,1821.37 769.535,1821.37 771.163,1821.37 772.791,1821.37 774.419,1821.37 776.047,1821.37 777.675,1821.37 779.303,1821.37 
  780.931,1821.37 782.559,1821.37 784.187,1821.37 785.815,1821.37 787.443,1821.37 789.071,1821.37 790.699,1821.37 792.327,1821.37 793.955,1821.37 795.583,1821.37 
  797.211,1821.37 798.839,1821.37 800.467,1821.37 802.095,1821.37 803.723,1821.37 805.351,1821.37 806.979,1821.37 808.608,1821.37 810.236,1821.37 811.864,1821.37 
  813.492,1821.37 815.12,1821.37 816.748,1821.37 818.376,1821.37 820.004,1821.37 821.632,1821.37 823.26,1821.37 824.888,1821.37 826.516,1821.37 828.144,1821.37 
  829.772,1821.37 831.4,1821.37 833.028,1821.37 834.656,1821.37 836.284,1821.37 837.912,1821.37 839.54,1821.37 841.168,1821.37 842.796,1821.37 844.424,1821.37 
  846.052,1821.37 847.68,1821.37 849.308,1821.37 850.936,1821.37 852.564,1821.37 854.192,1821.37 855.82,1821.37 857.448,1821.37 859.076,1821.37 860.704,1821.37 
  862.332,1821.37 863.96,1821.37 865.588,1821.37 867.216,1821.37 868.844,1821.37 870.472,1821.37 872.1,1821.37 873.728,1821.37 875.356,1821.37 876.984,1821.37 
  878.612,1821.37 880.24,1821.37 881.868,1821.37 883.496,1821.37 885.124,1821.37 886.752,1821.37 888.38,1821.37 890.008,1821.37 891.636,1821.37 893.264,1821.37 
  894.892,1821.37 896.52,1821.37 898.148,1821.37 899.776,1821.37 901.404,1821.37 903.032,1821.37 904.66,1821.37 906.288,1821.37 907.916,1821.37 909.544,1821.37 
  911.172,1821.37 912.8,1821.37 914.428,1821.37 916.056,1821.37 917.684,1821.37 919.312,1821.37 920.94,1821.37 922.568,1821.37 924.196,1821.37 925.824,1821.37 
  927.452,1821.37 929.08,1821.37 930.709,1821.37 932.337,1821.37 933.965,1821.37 935.593,1821.37 937.221,1821.37 938.849,1821.37 940.477,1821.37 942.105,1821.37 
  943.733,1821.37 945.361,1821.37 946.989,1821.37 948.617,1821.37 950.245,1821.37 951.873,1821.37 953.501,1821.37 955.129,1821.37 956.757,1821.37 958.385,1821.37 
  960.013,1821.37 961.641,1821.37 963.269,1821.37 964.897,1821.37 966.525,1821.37 968.153,1821.37 969.781,1821.37 971.409,1821.37 973.037,1821.37 974.665,1821.37 
  976.293,1821.37 977.921,1821.37 979.549,1821.37 981.177,1821.37 982.805,1821.37 984.433,1821.37 986.061,1821.37 987.689,1821.37 989.317,1821.37 990.945,1821.37 
  992.573,1821.37 994.201,1821.37 995.829,1821.37 997.457,1821.37 999.085,1821.37 1000.71,1821.37 1002.34,1821.37 1003.97,1821.37 1005.6,1821.37 1007.23,1821.37 
  1008.85,1821.37 1010.48,1821.37 1012.11,1821.37 1013.74,1821.37 1015.37,1821.37 1016.99,1821.37 1018.62,1821.37 1020.25,1821.37 1021.88,1821.37 1023.51,1821.37 
  1025.13,1821.37 1026.76,1821.37 1028.39,1821.37 1030.02,1821.37 1031.65,1821.37 1033.27,1821.37 1034.9,1821.37 1036.53,1821.37 1038.16,1821.37 1039.79,1821.37 
  1041.41,1821.37 1043.04,1821.37 1044.67,1821.37 1046.3,1821.37 1047.93,1821.37 1049.55,1821.37 1051.18,1821.37 1052.81,1821.37 1054.44,1821.37 1056.07,1821.37 
  1057.69,1821.37 1059.32,1821.37 1060.95,1821.37 1062.58,1821.37 1064.21,1821.37 1065.83,1821.37 1067.46,1821.37 1069.09,1821.37 1070.72,1821.37 1072.35,1821.37 
  1073.97,1821.37 1075.6,1821.37 1077.23,1821.37 1078.86,1821.37 1080.49,1821.37 1082.11,1821.37 1083.74,1821.37 1085.37,1821.37 1087,1821.37 1088.63,1821.37 
  1090.25,1821.37 1091.88,1821.37 1093.51,1821.37 1095.14,1821.37 1096.77,1821.37 1098.39,1821.37 1100.02,1821.37 1101.65,1821.37 1103.28,1821.37 1104.91,1821.37 
  1106.53,1821.37 1108.16,1821.37 1109.79,1821.37 1111.42,1821.37 1113.05,1821.37 1114.67,1821.37 1116.3,1821.37 1117.93,1821.37 1119.56,1821.37 1121.19,1821.37 
  1122.81,1821.37 1124.44,1821.37 1126.07,1821.37 1127.7,1821.37 1129.33,1821.37 1130.95,1821.37 1132.58,1821.37 1134.21,1821.37 1135.84,1821.37 1137.47,1821.37 
  1139.09,1821.37 1140.72,1821.37 1142.35,1821.37 1143.98,1821.37 1145.61,1821.37 1147.23,1821.37 1148.86,1821.37 1150.49,1821.37 1152.12,1821.37 1153.75,1821.37 
  1155.37,1821.37 1157,1821.37 1158.63,1821.37 1160.26,1821.37 1161.89,1821.37 1163.51,1821.37 1165.14,1821.37 1166.77,1821.37 1168.4,1821.37 1170.03,1821.37 
  1171.65,1821.37 1173.28,1821.37 1174.91,1821.37 1176.54,1821.37 1178.17,1821.37 1179.79,1821.37 1181.42,1821.37 1183.05,1821.37 1184.68,1821.37 1186.31,1821.37 
  1187.93,1821.37 1189.56,1821.37 1191.19,1821.37 1192.82,1821.37 1194.45,1821.37 1196.07,1821.37 1197.7,1821.37 1199.33,1821.37 1200.96,1821.37 1202.59,1821.37 
  1204.21,1821.37 1205.84,1821.37 1207.47,1821.37 1209.1,1821.37 1210.73,1821.37 1212.35,1821.37 1213.98,1821.37 1215.61,1821.37 1217.24,1821.37 1218.87,1821.37 
  1220.49,1821.37 1222.12,1821.37 1223.75,1821.37 1225.38,1821.37 1227.01,1821.37 1228.63,1821.37 1230.26,1821.37 1231.89,1821.37 1233.52,1821.37 1235.15,1821.37 
  1236.78,1821.37 1238.4,1821.37 1240.03,1821.37 1241.66,1821.37 1243.29,1821.37 1244.92,1821.37 1246.54,1821.37 1248.17,1821.37 1249.8,1821.37 1251.43,1821.37 
  1253.06,1821.37 1254.68,1821.37 1256.31,1821.37 1257.94,1821.37 1259.57,1821.37 1261.2,1821.37 1262.82,1821.37 1264.45,1821.37 1266.08,1821.37 1267.71,1821.37 
  1269.34,1821.37 1270.96,1821.37 1272.59,1821.37 1274.22,1821.37 1275.85,1821.37 1277.48,1821.37 1279.1,1821.37 1280.73,1821.37 1282.36,1821.37 1283.99,1821.37 
  1285.62,1821.37 1287.24,1821.37 1288.87,1821.37 1290.5,1821.37 1292.13,1821.37 1293.76,1821.37 1295.38,1821.37 1297.01,1821.37 1298.64,1821.37 1300.27,1821.37 
  1301.9,1821.37 1303.52,1821.37 1305.15,1821.37 1306.78,1821.37 1308.41,1821.37 1310.04,1821.37 1311.66,1821.37 1313.29,1821.37 1314.92,1821.37 1316.55,1821.37 
  1318.18,1821.37 1319.8,1821.37 1321.43,1821.37 1323.06,1821.37 1324.69,1821.37 1326.32,1821.37 1327.94,1821.37 1329.57,1821.37 1331.2,1821.37 1332.83,1821.37 
  1334.46,1821.37 1336.08,1821.37 1337.71,1821.37 1339.34,1821.37 1340.97,1821.37 1342.6,1821.37 1344.22,1821.37 1345.85,1821.37 1347.48,1821.37 1349.11,1821.37 
  1350.74,1821.37 1352.36,1821.37 1353.99,1821.37 1355.62,1821.37 1357.25,1821.37 1358.88,1821.37 1360.5,1821.37 1362.13,1821.37 1363.76,1821.37 1365.39,1821.37 
  1367.02,1821.37 1368.64,1821.37 1370.27,1821.37 1371.9,1821.37 1373.53,1821.37 1375.16,1821.37 1376.78,1821.37 1378.41,1821.37 1380.04,1821.37 1381.67,1821.37 
  1383.3,1821.37 1384.92,1821.37 1386.55,1821.37 1388.18,1821.37 1389.81,1821.37 1391.44,1821.37 1393.06,1821.37 1394.69,1821.37 1396.32,1821.37 1397.95,1821.37 
  1399.58,1821.37 1401.2,1821.37 1402.83,1821.37 1404.46,1821.37 1406.09,1821.37 1407.72,1821.37 1409.34,1821.37 1410.97,1821.37 1412.6,1821.37 1414.23,1821.37 
  1415.86,1821.37 1417.48,1821.37 1419.11,1821.37 1420.74,1821.37 1422.37,1821.37 1424,1821.37 1425.62,1821.37 1427.25,1821.37 1428.88,1821.37 1430.51,1821.37 
  1432.14,1821.37 1433.76,1821.37 1435.39,1821.37 1437.02,1821.37 1438.65,1821.37 1440.28,1821.37 1441.9,1821.37 1443.53,1821.37 1445.16,1821.37 1446.79,1821.37 
  1448.42,1821.37 1450.04,1821.37 1451.67,1821.37 1453.3,1821.37 1454.93,1821.37 1456.56,1821.37 1458.18,1821.37 1459.81,1821.37 1461.44,1821.37 1463.07,1821.37 
  1464.7,1821.37 1466.32,1821.37 1467.95,1821.37 1469.58,1821.37 1471.21,1821.37 1472.84,1821.37 1474.46,1821.37 1476.09,1821.37 1477.72,1821.37 1479.35,1821.37 
  1480.98,1821.37 1482.61,1821.37 1484.23,1821.37 1485.86,1821.37 1487.49,1821.37 1489.12,1821.37 1490.75,1821.37 1492.37,1821.37 1494,1821.37 1495.63,1821.37 
  1497.26,1821.37 1498.89,1821.37 1500.51,1821.37 1502.14,1821.37 1503.77,1821.37 1505.4,1821.37 1507.03,1821.37 1508.65,1821.37 1510.28,1821.37 1511.91,1821.37 
  1513.54,1821.37 1515.17,1821.37 1516.79,1821.37 1518.42,1821.37 1520.05,1821.37 1521.68,1821.37 1523.31,1821.37 1524.93,1821.37 1526.56,1821.37 1528.19,1821.37 
  1529.82,1821.37 1531.45,1821.37 1533.07,1821.37 1534.7,1821.37 1536.33,1821.37 1537.96,1821.37 1539.59,1821.37 1541.21,1821.37 1542.84,1821.37 1544.47,1821.37 
  1546.1,1821.37 1547.73,1821.37 1549.35,1821.37 1550.98,1821.37 1552.61,1821.37 1554.24,1821.37 1555.87,1821.37 1557.49,1821.37 1559.12,1821.37 1560.75,1821.37 
  1562.38,1821.37 1564.01,1821.37 1565.63,1821.37 1567.26,1821.37 1568.89,1821.37 1570.52,1821.37 1572.15,1821.37 1573.77,1821.37 1575.4,1821.37 1577.03,1821.37 
  1578.66,1821.37 1580.29,1821.37 1581.91,1821.37 1583.54,1821.37 1585.17,1821.37 1586.8,1821.37 1588.43,1821.37 1590.05,1821.37 1591.68,1821.37 1593.31,1821.37 
  1594.94,1821.37 1596.57,1821.37 1598.19,1821.37 1599.82,1821.37 1601.45,1821.37 1603.08,1821.37 1604.71,1821.37 1606.33,1821.37 1607.96,1821.37 1609.59,1821.37 
  1611.22,1821.37 1612.85,1821.37 1614.47,1821.37 1616.1,1821.37 1617.73,1821.37 1619.36,1821.37 1620.99,1821.37 1622.61,1821.37 1624.24,1821.37 1625.87,1821.37 
  1627.5,1821.37 1629.13,1821.37 1630.75,1821.37 1632.38,1821.37 1634.01,1821.37 1635.64,1821.37 1637.27,1821.37 1638.89,1821.37 1640.52,1821.37 1642.15,1821.37 
  1643.78,1821.37 1645.41,1821.37 1647.03,1821.37 1648.66,1821.37 1650.29,1821.37 1651.92,1821.37 1653.55,1821.37 1655.17,1821.37 1656.8,1821.37 1658.43,1821.37 
  1660.06,1821.37 1661.69,1821.37 1663.31,1821.37 1664.94,1821.37 1666.57,1821.37 1668.2,1821.37 1669.83,1821.37 1671.45,1821.37 1673.08,1821.37 1674.71,1821.37 
  1676.34,1821.37 1677.97,1821.37 1679.59,1821.37 1681.22,1821.37 1682.85,1821.37 1684.48,1821.37 1686.11,1821.37 1687.73,1821.37 1689.36,1821.37 1690.99,1821.37 
  1692.62,1821.37 1694.25,1821.37 1695.87,1821.37 1697.5,1821.37 1699.13,1821.37 1700.76,1821.37 1702.39,1821.37 1704.01,1821.37 1705.64,1821.37 1707.27,1821.37 
  1708.9,1821.37 1710.53,1821.37 1712.15,1821.37 1713.78,1821.37 1715.41,1821.37 1717.04,1821.37 1718.67,1821.37 1720.29,1821.37 1721.92,1821.37 1723.55,1821.37 
  1725.18,1821.37 1726.81,1821.37 1728.44,1821.37 1730.06,1821.37 1731.69,1821.37 1733.32,1821.37 1734.95,1821.37 1736.58,1821.37 1738.2,1821.37 1739.83,1821.37 
  1741.46,1821.37 1743.09,1821.37 1744.72,1821.37 1746.34,1821.37 1747.97,1821.37 1749.6,1821.37 1751.23,1821.37 1752.86,1821.37 1754.48,1821.37 1756.11,1821.37 
  1757.74,1821.37 1759.37,1821.37 1761,1821.37 1762.62,1821.37 1764.25,1821.37 1765.88,1821.37 1767.51,1821.37 1769.14,1821.37 1770.76,1821.37 1772.39,1821.37 
  1774.02,1821.37 1775.65,1821.37 1777.28,1821.37 1778.9,1821.37 1780.53,1821.37 1782.16,1821.37 1783.79,1821.37 1785.42,1821.37 1787.04,1821.37 1788.67,1821.37 
  1790.3,1821.37 1791.93,1821.37 1793.56,1821.37 1795.18,1821.37 1796.81,1821.37 1798.44,1821.37 1800.07,1821.37 1801.7,1821.37 1803.32,1821.37 1804.95,1821.37 
  1806.58,1821.37 1808.21,1821.37 1809.84,1821.37 1811.46,1821.37 1813.09,1821.37 1814.72,1821.37 1816.35,1821.37 1817.98,1821.37 1819.6,1821.37 1821.23,1821.37 
  1822.86,1821.37 1824.49,1821.37 1826.12,1821.37 1827.74,1821.37 1829.37,1821.37 1831,1821.37 1832.63,1821.37 1834.26,1821.37 1835.88,1821.37 1837.51,1821.37 
  1839.14,1821.37 1840.77,1821.37 1842.4,1821.37 1844.02,1821.37 1845.65,1821.37 1847.28,1821.37 1848.91,1821.37 1850.54,1821.37 1852.16,1821.37 1853.79,1821.37 
  1855.42,1821.37 1857.05,1821.37 1858.68,1821.37 1860.3,1821.37 1861.93,1821.37 1863.56,1821.37 1865.19,1821.37 1866.82,1821.37 1868.44,1821.37 1870.07,1821.37 
  1871.7,1821.37 1873.33,1821.37 1874.96,1821.37 1876.58,1821.37 1878.21,1821.37 1879.84,1821.37 1881.47,1821.37 1883.1,1821.37 1884.72,1821.37 1886.35,1821.37 
  1887.98,1821.37 1889.61,1821.37 1891.24,1821.37 1892.86,1821.37 1894.49,1821.37 1896.12,1821.37 1897.75,1821.37 1899.38,1821.37 1901,1821.37 1902.63,1821.37 
  1904.26,1821.37 1905.89,1821.37 1907.52,1821.37 1909.14,1821.37 1910.77,1821.37 1912.4,1821.37 1914.03,1821.37 1915.66,1821.37 1917.28,1821.37 1918.91,1821.37 
  1920.54,1821.37 1922.17,1821.37 1923.8,1821.37 1925.42,1821.37 1927.05,1821.37 1928.68,1821.37 1930.31,1821.37 1931.94,1821.37 1933.56,1821.37 1935.19,1821.37 
  1936.82,1821.37 1938.45,1821.37 1940.08,1821.37 1941.7,1821.37 1943.33,1821.37 1944.96,1821.37 1946.59,1821.37 1948.22,1821.37 1949.84,1821.37 1951.47,1821.37 
  1953.1,1821.37 1954.73,1821.37 1956.36,1821.37 1957.98,1821.37 1959.61,1821.37 1961.24,1821.37 1962.87,1821.37 1964.5,1821.37 1966.12,1821.37 1967.75,1821.37 
  1969.38,1821.37 1971.01,1821.37 1972.64,1821.37 1974.27,1821.37 1975.89,1821.37 1977.52,1821.37 1979.15,1821.37 1980.78,1821.37 1982.41,1821.37 1984.03,1821.37 
  1985.66,1821.37 1987.29,1821.37 1988.92,1821.37 1990.55,1821.37 1992.17,1821.37 1993.8,1821.37 1995.43,1821.37 1997.06,1821.37 1998.69,1821.37 2000.31,1821.37 
  2001.94,1821.37 2003.57,1821.37 2005.2,1821.37 2006.83,1821.37 2008.45,1821.37 2010.08,1821.37 2011.71,1821.37 2013.34,1821.37 2014.97,1821.37 2016.59,1821.37 
  2018.22,1821.37 2019.85,1821.37 2021.48,1821.37 2023.11,1821.37 2024.73,1821.37 2026.36,1821.37 2027.99,1821.37 2029.62,1821.37 2031.25,1821.37 2032.87,1821.37 
  2034.5,1821.37 2036.13,1821.37 2037.76,1821.37 2039.39,1821.37 2041.01,1821.37 2042.64,1821.37 2044.27,1821.37 2045.9,1821.37 2047.53,1821.37 2049.15,1821.37 
  2050.78,1821.37 2052.41,1821.37 2054.04,1821.37 2055.67,1821.37 2057.29,1821.37 2058.92,1821.37 2060.55,1821.37 2062.18,1821.37 2063.81,1821.37 2065.43,1821.37 
  2067.06,1821.37 2068.69,108.352 2070.32,108.352 2071.95,108.352 2073.57,108.352 2075.2,108.352 2076.83,108.352 2078.46,108.352 2080.09,108.352 2081.71,108.352 
  2083.34,108.352 2084.97,108.352 2086.6,108.352 2088.23,108.352 2089.85,108.352 2091.48,108.352 2093.11,108.352 2094.74,108.352 2096.37,108.352 2097.99,108.352 
  2099.62,108.352 2101.25,108.352 2102.88,108.352 2104.51,108.352 2106.13,108.352 2107.76,108.352 2109.39,108.352 2111.02,108.352 2112.65,108.352 2114.27,108.352 
  2115.9,108.352 2117.53,108.352 2119.16,108.352 2120.79,108.352 2122.41,108.352 2124.04,108.352 2125.67,108.352 2127.3,108.352 2128.93,108.352 2130.55,108.352 
  2132.18,108.352 2133.81,108.352 2135.44,108.352 2137.07,108.352 2138.69,108.352 2140.32,108.352 2141.95,108.352 2143.58,108.352 2145.21,108.352 2146.83,108.352 
  2148.46,108.352 2150.09,108.352 2151.72,108.352 2153.35,108.352 2154.97,108.352 2156.6,108.352 2158.23,108.352 2159.86,108.352 2161.49,108.352 2163.11,108.352 
  2164.74,108.352 2166.37,108.352 2168,108.352 2169.63,108.352 2171.25,108.352 2172.88,108.352 2174.51,108.352 2176.14,108.352 2177.77,108.352 2179.39,108.352 
  2181.02,108.352 2182.65,108.352 2184.28,108.352 2185.91,108.352 2187.53,108.352 2189.16,108.352 2190.79,108.352 2192.42,108.352 2194.05,108.352 2195.67,108.352 
  2197.3,108.352 2198.93,108.352 2200.56,108.352 2202.19,108.352 2203.81,108.352 2205.44,108.352 2207.07,108.352 2208.7,108.352 2210.33,108.352 2211.95,108.352 
  2213.58,108.352 2215.21,108.352 2216.84,108.352 2218.47,108.352 2220.1,108.352 2221.72,108.352 2223.35,108.352 2224.98,108.352 2226.61,108.352 2228.24,108.352 
  2229.86,108.352 2231.49,108.352 2233.12,108.352 2234.75,108.352 2236.38,108.352 2238,108.352 2239.63,108.352 2241.26,108.352 2242.89,108.352 2244.52,108.352 
  2246.14,108.352 2247.77,108.352 2249.4,108.352 2251.03,108.352 2252.66,108.352 2254.28,108.352 2255.91,108.352 2257.54,108.352 2259.17,108.352 2260.8,108.352 
  2262.42,108.352 2264.05,108.352 2265.68,108.352 2267.31,108.352 2268.94,108.352 2270.56,108.352 2272.19,108.352 2273.82,108.352 2275.45,108.352 2277.08,108.352 
  2278.7,108.352 2280.33,108.352 2281.96,108.352 2283.59,108.352 2285.22,108.352 2286.84,108.352 2288.47,108.352 2290.1,108.352 2291.73,108.352 2293.36,108.352 
  2294.98,108.352 2296.61,108.352 2298.24,108.352 2299.87,108.352 2301.5,108.352 2303.12,108.352 2304.75,108.352 2306.38,108.352 2308.01,108.352 2309.64,108.352 
  2311.26,108.352 2312.89,108.352 2314.52,108.352 2316.15,108.352 2317.78,108.352 2319.4,108.352 2321.03,108.352 2322.66,108.352 2324.29,108.352 2325.92,108.352 
  2327.54,108.352 2329.17,108.352 2330.8,108.352 2332.43,108.352 2334.06,108.352 2335.68,108.352 2337.31,108.352 2338.94,108.352 2340.57,108.352 2342.2,108.352 
  2343.82,108.352 2345.45,108.352 2347.08,108.352 2348.71,108.352 2350.34,108.352 2351.96,108.352 2353.59,108.352 2355.22,108.352 2356.85,108.352 2358.48,108.352 
  2360.1,108.352 2361.73,108.352 2363.36,108.352 2364.99,108.352 2366.62,108.352 2368.24,108.352 2369.87,108.352 2371.5,108.352 2373.13,108.352 2374.76,108.352 
  2376.38,108.352 2378.01,108.352 2379.64,108.352 2381.27,108.352 2382.9,108.352 2384.52,108.352 2386.15,108.352 2387.78,108.352 2389.41,108.352 2391.04,108.352 
  2392.66,108.352 2394.29,108.352 2395.92,108.352 2397.55,108.352 2399.18,108.352 2400.8,108.352 2402.43,108.352 2404.06,108.352 2405.69,108.352 2407.32,108.352 
  2408.94,108.352 2410.57,108.352 2412.2,108.352 2413.83,108.352 2415.46,108.352 2417.08,108.352 2418.71,108.352 2420.34,108.352 2421.97,108.352 2423.6,108.352 
  2425.22,108.352 2426.85,108.352 2428.48,108.352 2430.11,108.352 2431.74,108.352 2433.36,108.352 2434.99,108.352 2436.62,108.352 2438.25,108.352 2439.88,108.352 
  2441.5,108.352 2443.13,108.352 2444.76,108.352 2446.39,108.352 2448.02,108.352 2449.64,108.352 2451.27,108.352 2452.9,108.352 2454.53,108.352 2456.16,108.352 
  2457.78,108.352 2459.41,108.352 2461.04,108.352 2462.67,108.352 2464.3,108.352 2465.93,108.352 2467.55,108.352 2469.18,108.352 2470.81,108.352 2472.44,108.352 
  2474.07,108.352 2475.69,108.352 2477.32,108.352 2478.95,108.352 2480.58,108.352 2482.21,108.352 2483.83,108.352 2485.46,108.352 2487.09,108.352 2488.72,108.352 
  2490.35,108.352 2491.97,108.352 2493.6,108.352 2495.23,108.352 2496.86,108.352 2498.49,108.352 2500.11,108.352 2501.74,108.352 2503.37,108.352 2505,108.352 
  2506.63,108.352 2508.25,108.352 2509.88,108.352 2511.51,108.352 2513.14,108.352 2514.77,108.352 2516.39,108.352 2518.02,108.352 2519.65,108.352 2521.28,108.352 
  2522.91,108.352 2524.53,108.352 2526.16,108.352 2527.79,108.352 2529.42,108.352 2531.05,108.352 2532.67,108.352 2534.3,108.352 2535.93,108.352 2537.56,108.352 
  2539.19,108.352 2540.81,108.352 2542.44,108.352 2544.07,108.352 2545.7,108.352 2547.33,108.352 2548.95,108.352 2550.58,108.352 2552.21,108.352 2553.84,108.352 
  2555.47,108.352 2557.09,108.352 2558.72,108.352 2560.35,108.352 2561.98,108.352 2563.61,108.352 2565.23,108.352 2566.86,108.352 2568.49,108.352 2570.12,108.352 
  2571.75,108.352 2573.37,108.352 2575,108.352 2576.63,108.352 2578.26,108.352 2579.89,108.352 2581.51,108.352 2583.14,108.352 2584.77,108.352 2586.4,108.352 
  2588.03,108.352 2589.65,108.352 2591.28,108.352 2592.91,108.352 2594.54,108.352 2596.17,108.352 2597.79,108.352 2599.42,108.352 2601.05,108.352 2602.68,108.352 
  2604.31,108.352 2605.93,108.352 2607.56,108.352 2609.19,108.352 2610.82,108.352 2612.45,108.352 2614.07,108.352 2615.7,108.352 2617.33,108.352 2618.96,108.352 
  2620.59,108.352 2622.21,108.352 2623.84,108.352 2625.47,108.352 2627.1,108.352 2628.73,108.352 2630.35,108.352 2631.98,108.352 2633.61,108.352 2635.24,108.352 
  2636.87,108.352 2638.49,108.352 2640.12,108.352 2641.75,108.352 2643.38,108.352 2645.01,108.352 2646.63,108.352 2648.26,108.352 2649.89,108.352 2651.52,108.352 
  2653.15,108.352 2654.77,108.352 2656.4,108.352 2658.03,108.352 2659.66,108.352 2661.29,108.352 2662.91,108.352 2664.54,108.352 2666.17,108.352 2667.8,108.352 
  2669.43,108.352 2671.05,108.352 2672.68,108.352 2674.31,108.352 2675.94,108.352 2677.57,108.352 2679.19,108.352 2680.82,108.352 2682.45,108.352 2684.08,108.352 
  2685.71,108.352 2687.33,108.352 2688.96,108.352 2690.59,108.352 2692.22,108.352 2693.85,108.352 2695.47,108.352 2697.1,108.352 2698.73,108.352 2700.36,108.352 
  2701.99,108.352 2703.62,108.352 2705.24,108.352 2706.87,108.352 2708.5,108.352 2710.13,108.352 2711.76,108.352 2713.38,108.352 2715.01,108.352 2716.64,108.352 
  2718.27,108.352 2719.9,108.352 2721.52,108.352 2723.15,108.352 2724.78,108.352 2726.41,108.352 2728.04,108.352 2729.66,108.352 2731.29,108.352 2732.92,108.352 
  2734.55,108.352 2736.18,108.352 2737.8,108.352 2739.43,108.352 2741.06,108.352 2742.69,108.352 2744.32,108.352 2745.94,108.352 2747.57,108.352 2749.2,108.352 
  2750.83,108.352 2752.46,108.352 2754.08,108.352 2755.71,108.352 2757.34,108.352 2758.97,108.352 2760.6,108.352 2762.22,108.352 2763.85,108.352 2765.48,108.352 
  2767.11,108.352 2768.74,108.352 2770.36,108.352 2771.99,108.352 2773.62,108.352 2775.25,108.352 2776.88,108.352 2778.5,108.352 2780.13,108.352 2781.76,108.352 
  2783.39,108.352 2785.02,108.352 2786.64,108.352 2788.27,108.352 2789.9,108.352 2791.53,108.352 2793.16,108.352 2794.78,108.352 2796.41,108.352 2798.04,108.352 
  2799.67,108.352 2801.3,108.352 2802.92,108.352 2804.55,108.352 2806.18,108.352 2807.81,108.352 2809.44,108.352 2811.06,108.352 2812.69,108.352 2814.32,108.352 
  2815.95,108.352 2817.58,108.352 2819.2,108.352 2820.83,108.352 2822.46,108.352 2824.09,108.352 2825.72,108.352 2827.34,108.352 2828.97,108.352 2830.6,108.352 
  2832.23,108.352 2833.86,108.352 2835.48,108.352 2837.11,108.352 2838.74,108.352 2840.37,108.352 2842,108.352 2843.62,108.352 2845.25,108.352 2846.88,108.352 
  2848.51,108.352 2850.14,108.352 2851.76,108.352 2853.39,108.352 2855.02,108.352 2856.65,108.352 2858.28,108.352 2859.9,108.352 2861.53,108.352 2863.16,108.352 
  2864.79,108.352 2866.42,108.352 2868.04,108.352 2869.67,108.352 2871.3,108.352 2872.93,108.352 2874.56,108.352 2876.18,108.352 2877.81,108.352 2879.44,108.352 
  2881.07,108.352 2882.7,108.352 2884.32,108.352 2885.95,108.352 2887.58,108.352 2889.21,108.352 2890.84,108.352 2892.46,108.352 2894.09,108.352 2895.72,108.352 
  2897.35,108.352 2898.98,108.352 2900.6,108.352 2902.23,108.352 2903.86,108.352 2905.49,108.352 2907.12,108.352 2908.74,108.352 2910.37,108.352 2912,108.352 
  2913.63,108.352 2915.26,108.352 2916.88,108.352 2918.51,108.352 2920.14,108.352 2921.77,108.352 2923.4,108.352 2925.02,108.352 2926.65,108.352 2928.28,108.352 
  2929.91,108.352 2931.54,108.352 2933.16,108.352 2934.79,108.352 2936.42,108.352 2938.05,108.352 2939.68,108.352 2941.3,108.352 2942.93,108.352 2944.56,108.352 
  2946.19,108.352 2947.82,108.352 2949.45,108.352 2951.07,108.352 2952.7,108.352 2954.33,108.352 2955.96,108.352 2957.59,108.352 2959.21,108.352 2960.84,108.352 
  2962.47,108.352 2964.1,108.352 2965.73,108.352 2967.35,108.352 2968.98,108.352 2970.61,108.352 2972.24,108.352 2973.87,108.352 2975.49,108.352 2977.12,108.352 
  2978.75,108.352 2980.38,108.352 2982.01,108.352 2983.63,108.352 2985.26,108.352 2986.89,108.352 2988.52,108.352 2990.15,108.352 2991.77,108.352 2993.4,108.352 
  2995.03,108.352 2996.66,108.352 2998.29,108.352 2999.91,108.352 3001.54,108.352 3003.17,108.352 3004.8,108.352 3006.43,108.352 3008.05,108.352 3009.68,108.352 
  3011.31,108.352 3012.94,108.352 3014.57,108.352 3016.19,108.352 3017.82,108.352 3019.45,108.352 3021.08,108.352 3022.71,108.352 3024.33,108.352 3025.96,108.352 
  3027.59,108.352 3029.22,108.352 3030.85,108.352 3032.47,108.352 3034.1,108.352 3035.73,108.352 3037.36,108.352 3038.99,108.352 3040.61,108.352 3042.24,108.352 
  3043.87,108.352 3045.5,108.352 3047.13,108.352 3048.75,108.352 3050.38,108.352 3052.01,108.352 3053.64,108.352 3055.27,108.352 3056.89,108.352 3058.52,108.352 
  3060.15,108.352 3061.78,108.352 3063.41,108.352 3065.03,108.352 3066.66,108.352 3068.29,108.352 3069.92,108.352 3071.55,108.352 3073.17,108.352 3074.8,108.352 
  3076.43,108.352 3078.06,108.352 3079.69,108.352 3081.31,108.352 3082.94,108.352 3084.57,108.352 3086.2,108.352 3087.83,108.352 3089.45,108.352 3091.08,108.352 
  3092.71,108.352 3094.34,108.352 3095.97,108.352 3097.59,108.352 3099.22,108.352 3100.85,108.352 3102.48,108.352 3104.11,108.352 3105.73,108.352 3107.36,108.352 
  3108.99,108.352 3110.62,108.352 3112.25,108.352 3113.87,108.352 3115.5,108.352 3117.13,108.352 3118.76,108.352 3120.39,108.352 3122.01,108.352 3123.64,108.352 
  3125.27,108.352 3126.9,108.352 3128.53,108.352 3130.15,108.352 3131.78,108.352 3133.41,108.352 3135.04,108.352 3136.67,108.352 3138.29,108.352 3139.92,108.352 
  3141.55,108.352 3143.18,108.352 3144.81,108.352 3146.43,108.352 3148.06,108.352 3149.69,108.352 3151.32,108.352 3152.95,108.352 3154.57,108.352 3156.2,108.352 
  3157.83,108.352 3159.46,108.352 3161.09,108.352 3162.71,108.352 3164.34,108.352 3165.97,108.352 3167.6,108.352 3169.23,108.352 3170.85,108.352 3172.48,108.352 
  3174.11,108.352 3175.74,108.352 3177.37,108.352 3178.99,108.352 3180.62,108.352 3182.25,108.352 3183.88,108.352 3185.51,108.352 3187.13,108.352 3188.76,108.352 
  3190.39,108.352 3192.02,108.352 3193.65,108.352 3195.28,108.352 3196.9,108.352 3198.53,108.352 3200.16,108.352 3201.79,108.352 3203.42,108.352 3205.04,108.352 
  3206.67,108.352 3208.3,108.352 3209.93,108.352 3211.56,108.352 3213.18,108.352 3214.81,108.352 3216.44,108.352 3218.07,108.352 3219.7,108.352 3221.32,108.352 
  3222.95,108.352 3224.58,108.352 3226.21,108.352 3227.84,108.352 3229.46,108.352 3231.09,108.352 3232.72,108.352 3234.35,108.352 3235.98,108.352 3237.6,108.352 
  3239.23,108.352 3240.86,108.352 3242.49,108.352 3244.12,108.352 3245.74,108.352 3247.37,108.352 3249,108.352 3250.63,108.352 3252.26,108.352 3253.88,108.352 
  3255.51,108.352 3257.14,108.352 3258.77,108.352 3260.4,108.352 3262.02,108.352 3263.65,108.352 3265.28,108.352 3266.91,108.352 3268.54,108.352 3270.16,108.352 
  3271.79,108.352 3273.42,108.352 3275.05,108.352 3276.68,108.352 3278.3,108.352 3279.93,108.352 3281.56,108.352 3283.19,108.352 3284.82,108.352 3286.44,108.352 
  3288.07,108.352 3289.7,108.352 3291.33,108.352 3292.96,108.352 3294.58,108.352 3296.21,108.352 3297.84,108.352 3299.47,108.352 3301.1,108.352 3302.72,108.352 
  3304.35,108.352 3305.98,108.352 3307.61,108.352 3309.24,108.352 3310.86,108.352 3312.49,108.352 3314.12,108.352 3315.75,108.352 3317.38,108.352 3319,108.352 
  3320.63,108.352 3322.26,108.352 3323.89,108.352 3325.52,108.352 3327.14,108.352 3328.77,108.352 3330.4,108.352 3332.03,108.352 3333.66,108.352 3335.28,108.352 
  3336.91,108.352 3338.54,108.352 3340.17,108.352 3341.8,108.352 3343.42,108.352 3345.05,108.352 3346.68,108.352 3348.31,108.352 3349.94,108.352 3351.56,108.352 
  3353.19,108.352 3354.82,108.352 3356.45,108.352 3358.08,108.352 3359.7,108.352 3361.33,108.352 3362.96,108.352 3364.59,108.352 3366.22,108.352 3367.84,108.352 
  3369.47,108.352 3371.1,108.352 3372.73,108.352 3374.36,108.352 3375.98,108.352 3377.61,108.352 3379.24,108.352 3380.87,108.352 3382.5,108.352 3384.12,108.352 
  3385.75,108.352 3387.38,108.352 3389.01,108.352 3390.64,108.352 3392.26,108.352 3393.89,108.352 3395.52,108.352 3397.15,108.352 3398.78,108.352 3400.4,108.352 
  3402.03,108.352 3403.66,108.352 3405.29,108.352 3406.92,108.352 3408.54,108.352 3410.17,108.352 3411.8,108.352 3413.43,108.352 3415.06,108.352 3416.68,108.352 
  3418.31,108.352 3419.94,108.352 3421.57,108.352 3423.2,108.352 3424.82,108.352 3426.45,108.352 3428.08,108.352 3429.71,108.352 3431.34,108.352 3432.96,108.352 
  3434.59,108.352 3436.22,108.352 3437.85,108.352 3439.48,108.352 3441.11,108.352 3442.73,108.352 3444.36,108.352 3445.99,108.352 3447.62,108.352 3449.25,108.352 
  3450.87,108.352 3452.5,108.352 3454.13,108.352 3455.76,108.352 3457.39,108.352 3459.01,108.352 3460.64,108.352 3462.27,108.352 3463.9,108.352 3465.53,108.352 
  3467.15,108.352 3468.78,108.352 3470.41,108.352 3472.04,108.352 3473.67,108.352 3475.29,108.352 3476.92,108.352 3478.55,108.352 3480.18,108.352 3481.81,108.352 
  3483.43,108.352 3485.06,108.352 3486.69,108.352 3488.32,108.352 3489.95,108.352 3491.57,108.352 3493.2,108.352 3494.83,108.352 3496.46,108.352 3498.09,108.352 
  3499.71,108.352 3501.34,108.352 3502.97,108.352 3504.6,108.352 3506.23,108.352 3507.85,108.352 3509.48,108.352 3511.11,108.352 3512.74,108.352 3514.37,108.352 
  3515.99,108.352 3517.62,108.352 3519.25,108.352 3520.88,108.352 3522.51,108.352 3524.13,108.352 3525.76,108.352 3527.39,108.352 3529.02,108.352 3530.65,108.352 
  3532.27,108.352 3533.9,108.352 3535.53,108.352 3537.16,108.352 3538.79,108.352 3540.41,108.352 3542.04,108.352 3543.67,108.352 3545.3,108.352 3546.93,108.352 
  3548.55,108.352 3550.18,108.352 3551.81,108.352 3553.44,108.352 3555.07,108.352 3556.69,108.352 3558.32,108.352 3559.95,108.352 3561.58,108.352 3563.21,108.352 
  3564.83,108.352 3566.46,108.352 3568.09,108.352 3569.72,108.352 3571.35,108.352 3572.97,108.352 3574.6,108.352 3576.23,108.352 3577.86,108.352 3579.49,108.352 
  3581.11,108.352 3582.74,108.352 3584.37,108.352 3586,108.352 3587.63,108.352 3589.25,108.352 3590.88,108.352 3592.51,108.352 3594.14,108.352 3595.77,108.352 
  3597.39,108.352 3599.02,108.352 3600.65,108.352 3602.28,108.352 3603.91,108.352 3605.53,108.352 3607.16,108.352 3608.79,108.352 3610.42,108.352 3612.05,108.352 
  3613.67,108.352 3615.3,108.352 3616.93,108.352 3618.56,108.352 3620.19,108.352 3621.81,108.352 3623.44,108.352 3625.07,108.352 3626.7,108.352 3628.33,108.352 
  3629.95,108.352 3631.58,108.352 3633.21,108.352 3634.84,108.352 3636.47,108.352 3638.09,108.352 3639.72,108.352 3641.35,108.352 3642.98,108.352 3644.61,108.352 
  3646.23,108.352 3647.86,108.352 3649.49,108.352 3651.12,108.352 3652.75,108.352 3654.37,108.352 3656,108.352 3657.63,108.352 3659.26,108.352 3660.89,108.352 
  3662.51,108.352 3664.14,108.352 3665.77,108.352 3667.4,108.352 3669.03,108.352 3670.65,108.352 3672.28,108.352 3673.91,108.352 3675.54,108.352 3677.17,108.352 
  3678.79,108.352 3680.42,108.352 3682.05,108.352 3683.68,108.352 3685.31,108.352 3686.94,108.352 3688.56,108.352 3690.19,108.352 3691.82,108.352 3693.45,108.352 
  3695.08,108.352 
  "/>
</svg>
