<?xml version="1.0" encoding="utf-8"?>
<svg xmlns="http://www.w3.org/2000/svg" xmlns:xlink="http://www.w3.org/1999/xlink" width="960" height="480" viewBox="0 0 3840 1920">
<defs>
  <clipPath id="clip330">
    <rect x="0" y="0" width="3840" height="1920"/>
  </clipPath>
</defs>
<path clip-path="url(#clip330)" d="
M0 1920 L3840 1920 L3840 0 L0 0  Z
  " fill="#ffffff" fill-rule="evenodd" fill-opacity="1"/>
<defs>
  <clipPath id="clip331">
    <rect x="768" y="0" width="2689" height="1920"/>
  </clipPath>
</defs>
<path clip-path="url(#clip330)" d="
M47.2441 1872.76 L3792.76 1872.76 L3792.76 108.352 L47.2441 108.352  Z
  " fill="#ffffff" fill-rule="evenodd" fill-opacity="1"/>
<defs>
  <clipPath id="clip332">
    <rect x="47" y="108" width="3747" height="1765"/>
  </clipPath>
</defs>
<polyline clip-path="url(#clip330)" style="stroke:#000000; stroke-linecap:round; stroke-linejoin:round; stroke-width:4; stroke-opacity:1; fill:none" points="
  47.2441,1872.76 3792.76,1872.76 
  "/>
<polyline clip-path="url(#clip330)" style="stroke:#000000; stroke-linecap:round; stroke-linejoin:round; stroke-width:4; stroke-opacity:1; fill:none" points="
  47.2441,1872.76 47.2441,108.352 
  "/>
<path clip-path="url(#clip330)" d="M1837.95 12.096 L1846.74 12.096 L1861.77 34.5785 L1876.88 12.096 L1885.67 12.096 L1866.22 41.141 L1886.96 72.576 L1878.17 72.576 L1861.16 46.8528 L1844.03 72.576 L1835.19 72.576 L1856.79 40.2903 L1837.95 12.096 Z" fill="#000000" fill-rule="evenodd" fill-opacity="1" /><path clip-path="url(#clip330)" d="M1916.94 17.6457 Q1908.03 17.6457 1902.76 24.2892 Q1897.54 30.9327 1897.54 42.3968 Q1897.54 53.8203 1902.76 60.4638 Q1908.03 67.1073 1916.94 67.1073 Q1925.85 67.1073 1931.04 60.4638 Q1936.26 53.8203 1936.26 42.3968 Q1936.26 30.9327 1931.04 24.2892 Q1925.85 17.6457 1916.94 17.6457 M1916.94 11.0023 Q1929.66 11.0023 1937.28 19.5497 Q1944.89 28.0566 1944.89 42.3968 Q1944.89 56.6965 1937.28 65.2439 Q1929.66 73.7508 1916.94 73.7508 Q1904.18 73.7508 1896.53 65.2439 Q1888.91 56.737 1888.91 42.3968 Q1888.91 28.0566 1896.53 19.5497 Q1904.18 11.0023 1916.94 11.0023 Z" fill="#000000" fill-rule="evenodd" fill-opacity="1" /><path clip-path="url(#clip330)" d="M1986.37 44.2197 Q1989.01 45.1109 1991.48 48.0275 Q1993.99 50.9442 1996.5 56.0483 L2004.81 72.576 L1996.02 72.576 L1988.28 57.061 Q1985.28 50.9847 1982.44 48.9997 Q1979.65 47.0148 1974.79 47.0148 L1965.88 47.0148 L1965.88 72.576 L1957.69 72.576 L1957.69 12.096 L1976.17 12.096 Q1986.54 12.096 1991.64 16.4305 Q1996.74 20.7649 1996.74 29.5149 Q1996.74 35.2267 1994.07 38.994 Q1991.44 42.7613 1986.37 44.2197 M1965.88 18.8205 L1965.88 40.2903 L1976.17 40.2903 Q1982.08 40.2903 1985.08 37.5762 Q1988.12 34.8216 1988.12 29.5149 Q1988.12 24.2082 1985.08 21.5346 Q1982.08 18.8205 1976.17 18.8205 L1965.88 18.8205 Z" fill="#000000" fill-rule="evenodd" fill-opacity="1" /><circle clip-path="url(#clip332)" cx="582.317" cy="1620.7" r="108" fill="#0000ff" fill-rule="evenodd" fill-opacity="1" stroke="#000000" stroke-opacity="1" stroke-width="3.84"/>
<circle clip-path="url(#clip332)" cx="582.317" cy="360.41" r="108" fill="#ffa500" fill-rule="evenodd" fill-opacity="1" stroke="#000000" stroke-opacity="1" stroke-width="3.84"/>
<circle clip-path="url(#clip332)" cx="3257.68" cy="1620.7" r="108" fill="#ffa500" fill-rule="evenodd" fill-opacity="1" stroke="#000000" stroke-opacity="1" stroke-width="3.84"/>
<circle clip-path="url(#clip332)" cx="3257.68" cy="360.41" r="108" fill="#0000ff" fill-rule="evenodd" fill-opacity="1" stroke="#000000" stroke-opacity="1" stroke-width="3.84"/>
</svg>
