<?xml version="1.0" encoding="utf-8"?>
<svg xmlns="http://www.w3.org/2000/svg" xmlns:xlink="http://www.w3.org/1999/xlink" width="960" height="480" viewBox="0 0 3840 1920">
<defs>
  <clipPath id="clip470">
    <rect x="0" y="0" width="3840" height="1920"/>
  </clipPath>
</defs>
<path clip-path="url(#clip470)" d="
M0 1920 L3840 1920 L3840 0 L0 0  Z
  " fill="#ffffff" fill-rule="evenodd" fill-opacity="1"/>
<defs>
  <clipPath id="clip471">
    <rect x="768" y="0" width="2689" height="1920"/>
  </clipPath>
</defs>
<path clip-path="url(#clip470)" d="
M200.674 1811.89 L3792.76 1811.89 L3792.76 108.352 L200.674 108.352  Z
  " fill="#ffffff" fill-rule="evenodd" fill-opacity="1"/>
<defs>
  <clipPath id="clip472">
    <rect x="200" y="108" width="3593" height="1705"/>
  </clipPath>
</defs>
<polyline clip-path="url(#clip472)" style="stroke:#000000; stroke-linecap:round; stroke-linejoin:round; stroke-width:2; stroke-opacity:0.1; fill:none" points="
  302.337,1811.89 302.337,108.352 
  "/>
<polyline clip-path="url(#clip472)" style="stroke:#000000; stroke-linecap:round; stroke-linejoin:round; stroke-width:2; stroke-opacity:0.1; fill:none" points="
  1149.53,1811.89 1149.53,108.352 
  "/>
<polyline clip-path="url(#clip472)" style="stroke:#000000; stroke-linecap:round; stroke-linejoin:round; stroke-width:2; stroke-opacity:0.1; fill:none" points="
  1996.71,1811.89 1996.71,108.352 
  "/>
<polyline clip-path="url(#clip472)" style="stroke:#000000; stroke-linecap:round; stroke-linejoin:round; stroke-width:2; stroke-opacity:0.1; fill:none" points="
  2843.9,1811.89 2843.9,108.352 
  "/>
<polyline clip-path="url(#clip472)" style="stroke:#000000; stroke-linecap:round; stroke-linejoin:round; stroke-width:2; stroke-opacity:0.1; fill:none" points="
  3691.09,1811.89 3691.09,108.352 
  "/>
<polyline clip-path="url(#clip470)" style="stroke:#000000; stroke-linecap:round; stroke-linejoin:round; stroke-width:4; stroke-opacity:1; fill:none" points="
  200.674,1811.89 3792.76,1811.89 
  "/>
<polyline clip-path="url(#clip470)" style="stroke:#000000; stroke-linecap:round; stroke-linejoin:round; stroke-width:4; stroke-opacity:1; fill:none" points="
  302.337,1811.89 302.337,1792.99 
  "/>
<polyline clip-path="url(#clip470)" style="stroke:#000000; stroke-linecap:round; stroke-linejoin:round; stroke-width:4; stroke-opacity:1; fill:none" points="
  1149.53,1811.89 1149.53,1792.99 
  "/>
<polyline clip-path="url(#clip470)" style="stroke:#000000; stroke-linecap:round; stroke-linejoin:round; stroke-width:4; stroke-opacity:1; fill:none" points="
  1996.71,1811.89 1996.71,1792.99 
  "/>
<polyline clip-path="url(#clip470)" style="stroke:#000000; stroke-linecap:round; stroke-linejoin:round; stroke-width:4; stroke-opacity:1; fill:none" points="
  2843.9,1811.89 2843.9,1792.99 
  "/>
<polyline clip-path="url(#clip470)" style="stroke:#000000; stroke-linecap:round; stroke-linejoin:round; stroke-width:4; stroke-opacity:1; fill:none" points="
  3691.09,1811.89 3691.09,1792.99 
  "/>
<path clip-path="url(#clip470)" d="M264.64 1854.33 Q261.029 1854.33 259.2 1857.89 Q257.395 1861.43 257.395 1868.56 Q257.395 1875.67 259.2 1879.23 Q261.029 1882.78 264.64 1882.78 Q268.274 1882.78 270.08 1879.23 Q271.909 1875.67 271.909 1868.56 Q271.909 1861.43 270.08 1857.89 Q268.274 1854.33 264.64 1854.33 M264.64 1850.62 Q270.45 1850.62 273.506 1855.23 Q276.585 1859.81 276.585 1868.56 Q276.585 1877.29 273.506 1881.9 Q270.45 1886.48 264.64 1886.48 Q258.83 1886.48 255.751 1881.9 Q252.696 1877.29 252.696 1868.56 Q252.696 1859.81 255.751 1855.23 Q258.83 1850.62 264.64 1850.62 Z" fill="#000000" fill-rule="evenodd" fill-opacity="1" /><path clip-path="url(#clip470)" d="M284.802 1879.93 L289.686 1879.93 L289.686 1885.81 L284.802 1885.81 L284.802 1879.93 Z" fill="#000000" fill-rule="evenodd" fill-opacity="1" /><path clip-path="url(#clip470)" d="M309.871 1854.33 Q306.26 1854.33 304.432 1857.89 Q302.626 1861.43 302.626 1868.56 Q302.626 1875.67 304.432 1879.23 Q306.26 1882.78 309.871 1882.78 Q313.506 1882.78 315.311 1879.23 Q317.14 1875.67 317.14 1868.56 Q317.14 1861.43 315.311 1857.89 Q313.506 1854.33 309.871 1854.33 M309.871 1850.62 Q315.682 1850.62 318.737 1855.23 Q321.816 1859.81 321.816 1868.56 Q321.816 1877.29 318.737 1881.9 Q315.682 1886.48 309.871 1886.48 Q304.061 1886.48 300.983 1881.9 Q297.927 1877.29 297.927 1868.56 Q297.927 1859.81 300.983 1855.23 Q304.061 1850.62 309.871 1850.62 Z" fill="#000000" fill-rule="evenodd" fill-opacity="1" /><path clip-path="url(#clip470)" d="M340.033 1854.33 Q336.422 1854.33 334.593 1857.89 Q332.788 1861.43 332.788 1868.56 Q332.788 1875.67 334.593 1879.23 Q336.422 1882.78 340.033 1882.78 Q343.667 1882.78 345.473 1879.23 Q347.302 1875.67 347.302 1868.56 Q347.302 1861.43 345.473 1857.89 Q343.667 1854.33 340.033 1854.33 M340.033 1850.62 Q345.843 1850.62 348.899 1855.23 Q351.978 1859.81 351.978 1868.56 Q351.978 1877.29 348.899 1881.9 Q345.843 1886.48 340.033 1886.48 Q334.223 1886.48 331.144 1881.9 Q328.089 1877.29 328.089 1868.56 Q328.089 1859.81 331.144 1855.23 Q334.223 1850.62 340.033 1850.62 Z" fill="#000000" fill-rule="evenodd" fill-opacity="1" /><path clip-path="url(#clip470)" d="M1112.33 1854.33 Q1108.72 1854.33 1106.89 1857.89 Q1105.08 1861.43 1105.08 1868.56 Q1105.08 1875.67 1106.89 1879.23 Q1108.72 1882.78 1112.33 1882.78 Q1115.96 1882.78 1117.77 1879.23 Q1119.6 1875.67 1119.6 1868.56 Q1119.6 1861.43 1117.77 1857.89 Q1115.96 1854.33 1112.33 1854.33 M1112.33 1850.62 Q1118.14 1850.62 1121.19 1855.23 Q1124.27 1859.81 1124.27 1868.56 Q1124.27 1877.29 1121.19 1881.9 Q1118.14 1886.48 1112.33 1886.48 Q1106.52 1886.48 1103.44 1881.9 Q1100.38 1877.29 1100.38 1868.56 Q1100.38 1859.81 1103.44 1855.23 Q1106.52 1850.62 1112.33 1850.62 Z" fill="#000000" fill-rule="evenodd" fill-opacity="1" /><path clip-path="url(#clip470)" d="M1132.49 1879.93 L1137.37 1879.93 L1137.37 1885.81 L1132.49 1885.81 L1132.49 1879.93 Z" fill="#000000" fill-rule="evenodd" fill-opacity="1" /><path clip-path="url(#clip470)" d="M1151.59 1881.87 L1167.91 1881.87 L1167.91 1885.81 L1145.96 1885.81 L1145.96 1881.87 Q1148.62 1879.12 1153.21 1874.49 Q1157.81 1869.84 1158.99 1868.49 Q1161.24 1865.97 1162.12 1864.23 Q1163.02 1862.47 1163.02 1860.78 Q1163.02 1858.03 1161.08 1856.29 Q1159.16 1854.56 1156.05 1854.56 Q1153.85 1854.56 1151.4 1855.32 Q1148.97 1856.09 1146.19 1857.64 L1146.19 1852.91 Q1149.02 1851.78 1151.47 1851.2 Q1153.92 1850.62 1155.96 1850.62 Q1161.33 1850.62 1164.53 1853.31 Q1167.72 1855.99 1167.72 1860.48 Q1167.72 1862.61 1166.91 1864.53 Q1166.12 1866.43 1164.02 1869.03 Q1163.44 1869.7 1160.34 1872.91 Q1157.23 1876.11 1151.59 1881.87 Z" fill="#000000" fill-rule="evenodd" fill-opacity="1" /><path clip-path="url(#clip470)" d="M1177.77 1851.25 L1196.12 1851.25 L1196.12 1855.18 L1182.05 1855.18 L1182.05 1863.66 Q1183.07 1863.31 1184.09 1863.15 Q1185.1 1862.96 1186.12 1862.96 Q1191.91 1862.96 1195.29 1866.13 Q1198.67 1869.3 1198.67 1874.72 Q1198.67 1880.3 1195.2 1883.4 Q1191.72 1886.48 1185.41 1886.48 Q1183.23 1886.48 1180.96 1886.11 Q1178.72 1885.74 1176.31 1885 L1176.31 1880.3 Q1178.39 1881.43 1180.61 1881.99 Q1182.84 1882.54 1185.31 1882.54 Q1189.32 1882.54 1191.66 1880.44 Q1193.99 1878.33 1193.99 1874.72 Q1193.99 1871.11 1191.66 1869 Q1189.32 1866.9 1185.31 1866.9 Q1183.44 1866.9 1181.56 1867.31 Q1179.71 1867.73 1177.77 1868.61 L1177.77 1851.25 Z" fill="#000000" fill-rule="evenodd" fill-opacity="1" /><path clip-path="url(#clip470)" d="M1959.02 1854.33 Q1955.41 1854.33 1953.58 1857.89 Q1951.77 1861.43 1951.77 1868.56 Q1951.77 1875.67 1953.58 1879.23 Q1955.41 1882.78 1959.02 1882.78 Q1962.65 1882.78 1964.46 1879.23 Q1966.29 1875.67 1966.29 1868.56 Q1966.29 1861.43 1964.46 1857.89 Q1962.65 1854.33 1959.02 1854.33 M1959.02 1850.62 Q1964.83 1850.62 1967.88 1855.23 Q1970.96 1859.81 1970.96 1868.56 Q1970.96 1877.29 1967.88 1881.9 Q1964.83 1886.48 1959.02 1886.48 Q1953.21 1886.48 1950.13 1881.9 Q1947.07 1877.29 1947.07 1868.56 Q1947.07 1859.81 1950.13 1855.23 Q1953.21 1850.62 1959.02 1850.62 Z" fill="#000000" fill-rule="evenodd" fill-opacity="1" /><path clip-path="url(#clip470)" d="M1979.18 1879.93 L1984.06 1879.93 L1984.06 1885.81 L1979.18 1885.81 L1979.18 1879.93 Z" fill="#000000" fill-rule="evenodd" fill-opacity="1" /><path clip-path="url(#clip470)" d="M1994.3 1851.25 L2012.65 1851.25 L2012.65 1855.18 L1998.58 1855.18 L1998.58 1863.66 Q1999.6 1863.31 2000.62 1863.15 Q2001.63 1862.96 2002.65 1862.96 Q2008.44 1862.96 2011.82 1866.13 Q2015.2 1869.3 2015.2 1874.72 Q2015.2 1880.3 2011.73 1883.4 Q2008.25 1886.48 2001.93 1886.48 Q1999.76 1886.48 1997.49 1886.11 Q1995.25 1885.74 1992.84 1885 L1992.84 1880.3 Q1994.92 1881.43 1997.14 1881.99 Q1999.37 1882.54 2001.84 1882.54 Q2005.85 1882.54 2008.18 1880.44 Q2010.52 1878.33 2010.52 1874.72 Q2010.52 1871.11 2008.18 1869 Q2005.85 1866.9 2001.84 1866.9 Q1999.97 1866.9 1998.09 1867.31 Q1996.24 1867.73 1994.3 1868.61 L1994.3 1851.25 Z" fill="#000000" fill-rule="evenodd" fill-opacity="1" /><path clip-path="url(#clip470)" d="M2034.41 1854.33 Q2030.8 1854.33 2028.97 1857.89 Q2027.17 1861.43 2027.17 1868.56 Q2027.17 1875.67 2028.97 1879.23 Q2030.8 1882.78 2034.41 1882.78 Q2038.05 1882.78 2039.85 1879.23 Q2041.68 1875.67 2041.68 1868.56 Q2041.68 1861.43 2039.85 1857.89 Q2038.05 1854.33 2034.41 1854.33 M2034.41 1850.62 Q2040.22 1850.62 2043.28 1855.23 Q2046.36 1859.81 2046.36 1868.56 Q2046.36 1877.29 2043.28 1881.9 Q2040.22 1886.48 2034.41 1886.48 Q2028.6 1886.48 2025.52 1881.9 Q2022.47 1877.29 2022.47 1868.56 Q2022.47 1859.81 2025.52 1855.23 Q2028.6 1850.62 2034.41 1850.62 Z" fill="#000000" fill-rule="evenodd" fill-opacity="1" /><path clip-path="url(#clip470)" d="M2806.71 1854.33 Q2803.09 1854.33 2801.27 1857.89 Q2799.46 1861.43 2799.46 1868.56 Q2799.46 1875.67 2801.27 1879.23 Q2803.09 1882.78 2806.71 1882.78 Q2810.34 1882.78 2812.14 1879.23 Q2813.97 1875.67 2813.97 1868.56 Q2813.97 1861.43 2812.14 1857.89 Q2810.34 1854.33 2806.71 1854.33 M2806.71 1850.62 Q2812.52 1850.62 2815.57 1855.23 Q2818.65 1859.81 2818.65 1868.56 Q2818.65 1877.29 2815.57 1881.9 Q2812.52 1886.48 2806.71 1886.48 Q2800.9 1886.48 2797.82 1881.9 Q2794.76 1877.29 2794.76 1868.56 Q2794.76 1859.81 2797.82 1855.23 Q2800.9 1850.62 2806.71 1850.62 Z" fill="#000000" fill-rule="evenodd" fill-opacity="1" /><path clip-path="url(#clip470)" d="M2826.87 1879.93 L2831.75 1879.93 L2831.75 1885.81 L2826.87 1885.81 L2826.87 1879.93 Z" fill="#000000" fill-rule="evenodd" fill-opacity="1" /><path clip-path="url(#clip470)" d="M2840.76 1851.25 L2862.98 1851.25 L2862.98 1853.24 L2850.43 1885.81 L2845.55 1885.81 L2857.35 1855.18 L2840.76 1855.18 L2840.76 1851.25 Z" fill="#000000" fill-rule="evenodd" fill-opacity="1" /><path clip-path="url(#clip470)" d="M2872.14 1851.25 L2890.5 1851.25 L2890.5 1855.18 L2876.43 1855.18 L2876.43 1863.66 Q2877.45 1863.31 2878.46 1863.15 Q2879.48 1862.96 2880.5 1862.96 Q2886.29 1862.96 2889.67 1866.13 Q2893.05 1869.3 2893.05 1874.72 Q2893.05 1880.3 2889.58 1883.4 Q2886.1 1886.48 2879.78 1886.48 Q2877.61 1886.48 2875.34 1886.11 Q2873.09 1885.74 2870.69 1885 L2870.69 1880.3 Q2872.77 1881.43 2874.99 1881.99 Q2877.21 1882.54 2879.69 1882.54 Q2883.7 1882.54 2886.03 1880.44 Q2888.37 1878.33 2888.37 1874.72 Q2888.37 1871.11 2886.03 1869 Q2883.7 1866.9 2879.69 1866.9 Q2877.82 1866.9 2875.94 1867.31 Q2874.09 1867.73 2872.14 1868.61 L2872.14 1851.25 Z" fill="#000000" fill-rule="evenodd" fill-opacity="1" /><path clip-path="url(#clip470)" d="M3643.17 1881.87 L3650.8 1881.87 L3650.8 1855.51 L3642.49 1857.17 L3642.49 1852.91 L3650.76 1851.25 L3655.43 1851.25 L3655.43 1881.87 L3663.07 1881.87 L3663.07 1885.81 L3643.17 1885.81 L3643.17 1881.87 Z" fill="#000000" fill-rule="evenodd" fill-opacity="1" /><path clip-path="url(#clip470)" d="M3672.52 1879.93 L3677.4 1879.93 L3677.4 1885.81 L3672.52 1885.81 L3672.52 1879.93 Z" fill="#000000" fill-rule="evenodd" fill-opacity="1" /><path clip-path="url(#clip470)" d="M3697.59 1854.33 Q3693.98 1854.33 3692.15 1857.89 Q3690.34 1861.43 3690.34 1868.56 Q3690.34 1875.67 3692.15 1879.23 Q3693.98 1882.78 3697.59 1882.78 Q3701.22 1882.78 3703.03 1879.23 Q3704.85 1875.67 3704.85 1868.56 Q3704.85 1861.43 3703.03 1857.89 Q3701.22 1854.33 3697.59 1854.33 M3697.59 1850.62 Q3703.4 1850.62 3706.45 1855.23 Q3709.53 1859.81 3709.53 1868.56 Q3709.53 1877.29 3706.45 1881.9 Q3703.4 1886.48 3697.59 1886.48 Q3691.78 1886.48 3688.7 1881.9 Q3685.64 1877.29 3685.64 1868.56 Q3685.64 1859.81 3688.7 1855.23 Q3691.78 1850.62 3697.59 1850.62 Z" fill="#000000" fill-rule="evenodd" fill-opacity="1" /><path clip-path="url(#clip470)" d="M3727.75 1854.33 Q3724.14 1854.33 3722.31 1857.89 Q3720.5 1861.43 3720.5 1868.56 Q3720.5 1875.67 3722.31 1879.23 Q3724.14 1882.78 3727.75 1882.78 Q3731.38 1882.78 3733.19 1879.23 Q3735.02 1875.67 3735.02 1868.56 Q3735.02 1861.43 3733.19 1857.89 Q3731.38 1854.33 3727.75 1854.33 M3727.75 1850.62 Q3733.56 1850.62 3736.61 1855.23 Q3739.69 1859.81 3739.69 1868.56 Q3739.69 1877.29 3736.61 1881.9 Q3733.56 1886.48 3727.75 1886.48 Q3721.94 1886.48 3718.86 1881.9 Q3715.8 1877.29 3715.8 1868.56 Q3715.8 1859.81 3718.86 1855.23 Q3721.94 1850.62 3727.75 1850.62 Z" fill="#000000" fill-rule="evenodd" fill-opacity="1" /><polyline clip-path="url(#clip472)" style="stroke:#000000; stroke-linecap:round; stroke-linejoin:round; stroke-width:2; stroke-opacity:0.1; fill:none" points="
  200.674,1763.67 3792.76,1763.67 
  "/>
<polyline clip-path="url(#clip472)" style="stroke:#000000; stroke-linecap:round; stroke-linejoin:round; stroke-width:2; stroke-opacity:0.1; fill:none" points="
  200.674,1361.9 3792.76,1361.9 
  "/>
<polyline clip-path="url(#clip472)" style="stroke:#000000; stroke-linecap:round; stroke-linejoin:round; stroke-width:2; stroke-opacity:0.1; fill:none" points="
  200.674,960.12 3792.76,960.12 
  "/>
<polyline clip-path="url(#clip472)" style="stroke:#000000; stroke-linecap:round; stroke-linejoin:round; stroke-width:2; stroke-opacity:0.1; fill:none" points="
  200.674,558.343 3792.76,558.343 
  "/>
<polyline clip-path="url(#clip472)" style="stroke:#000000; stroke-linecap:round; stroke-linejoin:round; stroke-width:2; stroke-opacity:0.1; fill:none" points="
  200.674,156.565 3792.76,156.565 
  "/>
<polyline clip-path="url(#clip470)" style="stroke:#000000; stroke-linecap:round; stroke-linejoin:round; stroke-width:4; stroke-opacity:1; fill:none" points="
  200.674,1811.89 200.674,108.352 
  "/>
<polyline clip-path="url(#clip470)" style="stroke:#000000; stroke-linecap:round; stroke-linejoin:round; stroke-width:4; stroke-opacity:1; fill:none" points="
  200.674,1763.67 219.572,1763.67 
  "/>
<polyline clip-path="url(#clip470)" style="stroke:#000000; stroke-linecap:round; stroke-linejoin:round; stroke-width:4; stroke-opacity:1; fill:none" points="
  200.674,1361.9 219.572,1361.9 
  "/>
<polyline clip-path="url(#clip470)" style="stroke:#000000; stroke-linecap:round; stroke-linejoin:round; stroke-width:4; stroke-opacity:1; fill:none" points="
  200.674,960.12 219.572,960.12 
  "/>
<polyline clip-path="url(#clip470)" style="stroke:#000000; stroke-linecap:round; stroke-linejoin:round; stroke-width:4; stroke-opacity:1; fill:none" points="
  200.674,558.343 219.572,558.343 
  "/>
<polyline clip-path="url(#clip470)" style="stroke:#000000; stroke-linecap:round; stroke-linejoin:round; stroke-width:4; stroke-opacity:1; fill:none" points="
  200.674,156.565 219.572,156.565 
  "/>
<path clip-path="url(#clip470)" d="M55.7365 1749.47 Q52.1254 1749.47 50.2967 1753.04 Q48.4912 1756.58 48.4912 1763.71 Q48.4912 1770.82 50.2967 1774.38 Q52.1254 1777.92 55.7365 1777.92 Q59.3707 1777.92 61.1763 1774.38 Q63.005 1770.82 63.005 1763.71 Q63.005 1756.58 61.1763 1753.04 Q59.3707 1749.47 55.7365 1749.47 M55.7365 1745.77 Q61.5467 1745.77 64.6022 1750.38 Q67.6809 1754.96 67.6809 1763.71 Q67.6809 1772.44 64.6022 1777.04 Q61.5467 1781.63 55.7365 1781.63 Q49.9264 1781.63 46.8477 1777.04 Q43.7921 1772.44 43.7921 1763.71 Q43.7921 1754.96 46.8477 1750.38 Q49.9264 1745.77 55.7365 1745.77 Z" fill="#000000" fill-rule="evenodd" fill-opacity="1" /><path clip-path="url(#clip470)" d="M75.8984 1775.08 L80.7827 1775.08 L80.7827 1780.95 L75.8984 1780.95 L75.8984 1775.08 Z" fill="#000000" fill-rule="evenodd" fill-opacity="1" /><path clip-path="url(#clip470)" d="M100.968 1749.47 Q97.3567 1749.47 95.528 1753.04 Q93.7224 1756.58 93.7224 1763.71 Q93.7224 1770.82 95.528 1774.38 Q97.3567 1777.92 100.968 1777.92 Q104.602 1777.92 106.408 1774.38 Q108.236 1770.82 108.236 1763.71 Q108.236 1756.58 106.408 1753.04 Q104.602 1749.47 100.968 1749.47 M100.968 1745.77 Q106.778 1745.77 109.833 1750.38 Q112.912 1754.96 112.912 1763.71 Q112.912 1772.44 109.833 1777.04 Q106.778 1781.63 100.968 1781.63 Q95.1576 1781.63 92.0789 1777.04 Q89.0234 1772.44 89.0234 1763.71 Q89.0234 1754.96 92.0789 1750.38 Q95.1576 1745.77 100.968 1745.77 Z" fill="#000000" fill-rule="evenodd" fill-opacity="1" /><path clip-path="url(#clip470)" d="M131.13 1749.47 Q127.519 1749.47 125.69 1753.04 Q123.884 1756.58 123.884 1763.71 Q123.884 1770.82 125.69 1774.38 Q127.519 1777.92 131.13 1777.92 Q134.764 1777.92 136.569 1774.38 Q138.398 1770.82 138.398 1763.71 Q138.398 1756.58 136.569 1753.04 Q134.764 1749.47 131.13 1749.47 M131.13 1745.77 Q136.94 1745.77 139.995 1750.38 Q143.074 1754.96 143.074 1763.71 Q143.074 1772.44 139.995 1777.04 Q136.94 1781.63 131.13 1781.63 Q125.319 1781.63 122.241 1777.04 Q119.185 1772.44 119.185 1763.71 Q119.185 1754.96 122.241 1750.38 Q125.319 1745.77 131.13 1745.77 Z" fill="#000000" fill-rule="evenodd" fill-opacity="1" /><path clip-path="url(#clip470)" d="M56.7319 1347.7 Q53.1208 1347.7 51.2921 1351.26 Q49.4865 1354.8 49.4865 1361.93 Q49.4865 1369.04 51.2921 1372.6 Q53.1208 1376.14 56.7319 1376.14 Q60.3661 1376.14 62.1717 1372.6 Q64.0004 1369.04 64.0004 1361.93 Q64.0004 1354.8 62.1717 1351.26 Q60.3661 1347.7 56.7319 1347.7 M56.7319 1343.99 Q62.542 1343.99 65.5976 1348.6 Q68.6763 1353.18 68.6763 1361.93 Q68.6763 1370.66 65.5976 1375.27 Q62.542 1379.85 56.7319 1379.85 Q50.9217 1379.85 47.843 1375.27 Q44.7875 1370.66 44.7875 1361.93 Q44.7875 1353.18 47.843 1348.6 Q50.9217 1343.99 56.7319 1343.99 Z" fill="#000000" fill-rule="evenodd" fill-opacity="1" /><path clip-path="url(#clip470)" d="M76.8938 1373.3 L81.778 1373.3 L81.778 1379.18 L76.8938 1379.18 L76.8938 1373.3 Z" fill="#000000" fill-rule="evenodd" fill-opacity="1" /><path clip-path="url(#clip470)" d="M95.9909 1375.24 L112.31 1375.24 L112.31 1379.18 L90.366 1379.18 L90.366 1375.24 Q93.028 1372.49 97.6113 1367.86 Q102.218 1363.21 103.398 1361.86 Q105.644 1359.34 106.523 1357.6 Q107.426 1355.84 107.426 1354.15 Q107.426 1351.4 105.482 1349.66 Q103.56 1347.93 100.458 1347.93 Q98.2594 1347.93 95.8057 1348.69 Q93.3752 1349.46 90.5974 1351.01 L90.5974 1346.28 Q93.4215 1345.15 95.8752 1344.57 Q98.3289 1343.99 100.366 1343.99 Q105.736 1343.99 108.931 1346.68 Q112.125 1349.36 112.125 1353.85 Q112.125 1355.98 111.315 1357.9 Q110.528 1359.8 108.421 1362.39 Q107.843 1363.07 104.741 1366.28 Q101.639 1369.48 95.9909 1375.24 Z" fill="#000000" fill-rule="evenodd" fill-opacity="1" /><path clip-path="url(#clip470)" d="M122.171 1344.62 L140.528 1344.62 L140.528 1348.55 L126.454 1348.55 L126.454 1357.02 Q127.472 1356.68 128.491 1356.52 Q129.509 1356.33 130.528 1356.33 Q136.315 1356.33 139.694 1359.5 Q143.074 1362.67 143.074 1368.09 Q143.074 1373.67 139.602 1376.77 Q136.13 1379.85 129.81 1379.85 Q127.634 1379.85 125.366 1379.48 Q123.12 1379.11 120.713 1378.37 L120.713 1373.67 Q122.796 1374.8 125.019 1375.36 Q127.241 1375.91 129.718 1375.91 Q133.722 1375.91 136.06 1373.81 Q138.398 1371.7 138.398 1368.09 Q138.398 1364.48 136.06 1362.37 Q133.722 1360.27 129.718 1360.27 Q127.843 1360.27 125.968 1360.68 Q124.116 1361.1 122.171 1361.98 L122.171 1344.62 Z" fill="#000000" fill-rule="evenodd" fill-opacity="1" /><path clip-path="url(#clip470)" d="M55.7365 945.919 Q52.1254 945.919 50.2967 949.483 Q48.4912 953.025 48.4912 960.155 Q48.4912 967.261 50.2967 970.826 Q52.1254 974.368 55.7365 974.368 Q59.3707 974.368 61.1763 970.826 Q63.005 967.261 63.005 960.155 Q63.005 953.025 61.1763 949.483 Q59.3707 945.919 55.7365 945.919 M55.7365 942.215 Q61.5467 942.215 64.6022 946.821 Q67.6809 951.405 67.6809 960.155 Q67.6809 968.882 64.6022 973.488 Q61.5467 978.071 55.7365 978.071 Q49.9264 978.071 46.8477 973.488 Q43.7921 968.882 43.7921 960.155 Q43.7921 951.405 46.8477 946.821 Q49.9264 942.215 55.7365 942.215 Z" fill="#000000" fill-rule="evenodd" fill-opacity="1" /><path clip-path="url(#clip470)" d="M75.8984 971.52 L80.7827 971.52 L80.7827 977.4 L75.8984 977.4 L75.8984 971.52 Z" fill="#000000" fill-rule="evenodd" fill-opacity="1" /><path clip-path="url(#clip470)" d="M91.0141 942.84 L109.37 942.84 L109.37 946.775 L95.2965 946.775 L95.2965 955.247 Q96.315 954.9 97.3335 954.738 Q98.352 954.553 99.3705 954.553 Q105.158 954.553 108.537 957.724 Q111.917 960.895 111.917 966.312 Q111.917 971.891 108.445 974.993 Q104.972 978.071 98.6529 978.071 Q96.477 978.071 94.2085 977.701 Q91.9632 977.331 89.5558 976.59 L89.5558 971.891 Q91.6391 973.025 93.8613 973.581 Q96.0835 974.136 98.5604 974.136 Q102.565 974.136 104.903 972.03 Q107.241 969.923 107.241 966.312 Q107.241 962.701 104.903 960.595 Q102.565 958.488 98.5604 958.488 Q96.6854 958.488 94.8104 958.905 Q92.9585 959.321 91.0141 960.201 L91.0141 942.84 Z" fill="#000000" fill-rule="evenodd" fill-opacity="1" /><path clip-path="url(#clip470)" d="M131.13 945.919 Q127.519 945.919 125.69 949.483 Q123.884 953.025 123.884 960.155 Q123.884 967.261 125.69 970.826 Q127.519 974.368 131.13 974.368 Q134.764 974.368 136.569 970.826 Q138.398 967.261 138.398 960.155 Q138.398 953.025 136.569 949.483 Q134.764 945.919 131.13 945.919 M131.13 942.215 Q136.94 942.215 139.995 946.821 Q143.074 951.405 143.074 960.155 Q143.074 968.882 139.995 973.488 Q136.94 978.071 131.13 978.071 Q125.319 978.071 122.241 973.488 Q119.185 968.882 119.185 960.155 Q119.185 951.405 122.241 946.821 Q125.319 942.215 131.13 942.215 Z" fill="#000000" fill-rule="evenodd" fill-opacity="1" /><path clip-path="url(#clip470)" d="M56.7319 544.141 Q53.1208 544.141 51.2921 547.706 Q49.4865 551.248 49.4865 558.377 Q49.4865 565.484 51.2921 569.049 Q53.1208 572.59 56.7319 572.59 Q60.3661 572.59 62.1717 569.049 Q64.0004 565.484 64.0004 558.377 Q64.0004 551.248 62.1717 547.706 Q60.3661 544.141 56.7319 544.141 M56.7319 540.438 Q62.542 540.438 65.5976 545.044 Q68.6763 549.627 68.6763 558.377 Q68.6763 567.104 65.5976 571.711 Q62.542 576.294 56.7319 576.294 Q50.9217 576.294 47.843 571.711 Q44.7875 567.104 44.7875 558.377 Q44.7875 549.627 47.843 545.044 Q50.9217 540.438 56.7319 540.438 Z" fill="#000000" fill-rule="evenodd" fill-opacity="1" /><path clip-path="url(#clip470)" d="M76.8938 569.743 L81.778 569.743 L81.778 575.623 L76.8938 575.623 L76.8938 569.743 Z" fill="#000000" fill-rule="evenodd" fill-opacity="1" /><path clip-path="url(#clip470)" d="M90.7826 541.063 L113.005 541.063 L113.005 543.053 L100.458 575.623 L95.5743 575.623 L107.38 544.998 L90.7826 544.998 L90.7826 541.063 Z" fill="#000000" fill-rule="evenodd" fill-opacity="1" /><path clip-path="url(#clip470)" d="M122.171 541.063 L140.528 541.063 L140.528 544.998 L126.454 544.998 L126.454 553.47 Q127.472 553.123 128.491 552.961 Q129.509 552.776 130.528 552.776 Q136.315 552.776 139.694 555.947 Q143.074 559.118 143.074 564.535 Q143.074 570.113 139.602 573.215 Q136.13 576.294 129.81 576.294 Q127.634 576.294 125.366 575.924 Q123.12 575.553 120.713 574.813 L120.713 570.113 Q122.796 571.248 125.019 571.803 Q127.241 572.359 129.718 572.359 Q133.722 572.359 136.06 570.252 Q138.398 568.146 138.398 564.535 Q138.398 560.924 136.06 558.817 Q133.722 556.711 129.718 556.711 Q127.843 556.711 125.968 557.127 Q124.116 557.544 122.171 558.424 L122.171 541.063 Z" fill="#000000" fill-rule="evenodd" fill-opacity="1" /><path clip-path="url(#clip470)" d="M46.5467 169.91 L54.1856 169.91 L54.1856 143.545 L45.8754 145.211 L45.8754 140.952 L54.1393 139.285 L58.8152 139.285 L58.8152 169.91 L66.454 169.91 L66.454 173.845 L46.5467 173.845 L46.5467 169.91 Z" fill="#000000" fill-rule="evenodd" fill-opacity="1" /><path clip-path="url(#clip470)" d="M75.8984 167.966 L80.7827 167.966 L80.7827 173.845 L75.8984 173.845 L75.8984 167.966 Z" fill="#000000" fill-rule="evenodd" fill-opacity="1" /><path clip-path="url(#clip470)" d="M100.968 142.364 Q97.3567 142.364 95.528 145.929 Q93.7224 149.471 93.7224 156.6 Q93.7224 163.707 95.528 167.271 Q97.3567 170.813 100.968 170.813 Q104.602 170.813 106.408 167.271 Q108.236 163.707 108.236 156.6 Q108.236 149.471 106.408 145.929 Q104.602 142.364 100.968 142.364 M100.968 138.66 Q106.778 138.66 109.833 143.267 Q112.912 147.85 112.912 156.6 Q112.912 165.327 109.833 169.933 Q106.778 174.517 100.968 174.517 Q95.1576 174.517 92.0789 169.933 Q89.0234 165.327 89.0234 156.6 Q89.0234 147.85 92.0789 143.267 Q95.1576 138.66 100.968 138.66 Z" fill="#000000" fill-rule="evenodd" fill-opacity="1" /><path clip-path="url(#clip470)" d="M131.13 142.364 Q127.519 142.364 125.69 145.929 Q123.884 149.471 123.884 156.6 Q123.884 163.707 125.69 167.271 Q127.519 170.813 131.13 170.813 Q134.764 170.813 136.569 167.271 Q138.398 163.707 138.398 156.6 Q138.398 149.471 136.569 145.929 Q134.764 142.364 131.13 142.364 M131.13 138.66 Q136.94 138.66 139.995 143.267 Q143.074 147.85 143.074 156.6 Q143.074 165.327 139.995 169.933 Q136.94 174.517 131.13 174.517 Q125.319 174.517 122.241 169.933 Q119.185 165.327 119.185 156.6 Q119.185 147.85 122.241 143.267 Q125.319 138.66 131.13 138.66 Z" fill="#000000" fill-rule="evenodd" fill-opacity="1" /><path clip-path="url(#clip470)" d="M1914.66 12.096 L1923.45 12.096 L1938.48 34.5785 L1953.59 12.096 L1962.38 12.096 L1942.94 41.141 L1963.68 72.576 L1954.89 72.576 L1937.88 46.8528 L1920.74 72.576 L1911.91 72.576 L1933.5 40.2903 L1914.66 12.096 Z" fill="#000000" fill-rule="evenodd" fill-opacity="1" /><path clip-path="url(#clip470)" d="M1993.66 17.6457 Q1984.74 17.6457 1979.48 24.2892 Q1974.25 30.9327 1974.25 42.3968 Q1974.25 53.8203 1979.48 60.4638 Q1984.74 67.1073 1993.66 67.1073 Q2002.57 67.1073 2007.75 60.4638 Q2012.98 53.8203 2012.98 42.3968 Q2012.98 30.9327 2007.75 24.2892 Q2002.57 17.6457 1993.66 17.6457 M1993.66 11.0023 Q2006.38 11.0023 2013.99 19.5497 Q2021.61 28.0566 2021.61 42.3968 Q2021.61 56.6965 2013.99 65.2439 Q2006.38 73.7508 1993.66 73.7508 Q1980.9 73.7508 1973.24 65.2439 Q1965.62 56.737 1965.62 42.3968 Q1965.62 28.0566 1973.24 19.5497 Q1980.9 11.0023 1993.66 11.0023 Z" fill="#000000" fill-rule="evenodd" fill-opacity="1" /><path clip-path="url(#clip470)" d="M2063.09 44.2197 Q2065.72 45.1109 2068.19 48.0275 Q2070.7 50.9442 2073.22 56.0483 L2081.52 72.576 L2072.73 72.576 L2064.99 57.061 Q2062 50.9847 2059.16 48.9997 Q2056.36 47.0148 2051.5 47.0148 L2042.59 47.0148 L2042.59 72.576 L2034.41 72.576 L2034.41 12.096 L2052.88 12.096 Q2063.25 12.096 2068.36 16.4305 Q2073.46 20.7649 2073.46 29.5149 Q2073.46 35.2267 2070.79 38.994 Q2068.15 42.7613 2063.09 44.2197 M2042.59 18.8205 L2042.59 40.2903 L2052.88 40.2903 Q2058.8 40.2903 2061.79 37.5762 Q2064.83 34.8216 2064.83 29.5149 Q2064.83 24.2082 2061.79 21.5346 Q2058.8 18.8205 2052.88 18.8205 L2042.59 18.8205 Z" fill="#000000" fill-rule="evenodd" fill-opacity="1" /><circle clip-path="url(#clip472)" cx="302.337" cy="1763.67" r="14.4" fill="#ffa500" fill-rule="evenodd" fill-opacity="1" stroke="#000000" stroke-opacity="1" stroke-width="3.84"/>
<circle clip-path="url(#clip472)" cx="302.337" cy="156.565" r="14.4" fill="#0000ff" fill-rule="evenodd" fill-opacity="1" stroke="#000000" stroke-opacity="1" stroke-width="3.84"/>
<circle clip-path="url(#clip472)" cx="3691.09" cy="1763.67" r="14.4" fill="#ffa500" fill-rule="evenodd" fill-opacity="1" stroke="#000000" stroke-opacity="1" stroke-width="3.84"/>
<circle clip-path="url(#clip472)" cx="3691.09" cy="156.565" r="14.4" fill="#0000ff" fill-rule="evenodd" fill-opacity="1" stroke="#000000" stroke-opacity="1" stroke-width="3.84"/>
<path clip-path="url(#clip470)" d="
M3175.59 268.817 L3673.02 268.817 L3673.02 165.137 L3175.59 165.137  Z
  " fill="#ffffff" fill-rule="evenodd" fill-opacity="1"/>
<polyline clip-path="url(#clip470)" style="stroke:#000000; stroke-linecap:round; stroke-linejoin:round; stroke-width:4; stroke-opacity:1; fill:none" points="
  3175.59,268.817 3673.02,268.817 3673.02,165.137 3175.59,165.137 3175.59,268.817 
  "/>
<circle clip-path="url(#clip470)" cx="3335.24" cy="216.977" r="23.04" fill="#ffa500" fill-rule="evenodd" fill-opacity="1" stroke="#000000" stroke-opacity="1" stroke-width="6.144"/>
<path clip-path="url(#clip470)" d="M3494.89 199.697 L3524.12 199.697 L3524.12 203.632 L3511.85 203.632 L3511.85 234.257 L3507.15 234.257 L3507.15 203.632 L3494.89 203.632 L3494.89 199.697 Z" fill="#000000" fill-rule="evenodd" fill-opacity="1" /><path clip-path="url(#clip470)" d="M3536.51 212.312 Q3535.79 211.896 3534.93 211.71 Q3534.1 211.502 3533.08 211.502 Q3529.47 211.502 3527.52 213.863 Q3525.6 216.201 3525.6 220.599 L3525.6 234.257 L3521.32 234.257 L3521.32 208.331 L3525.6 208.331 L3525.6 212.359 Q3526.95 209.998 3529.1 208.863 Q3531.25 207.706 3534.33 207.706 Q3534.77 207.706 3535.3 207.775 Q3535.83 207.822 3536.48 207.937 L3536.51 212.312 Z" fill="#000000" fill-rule="evenodd" fill-opacity="1" /><path clip-path="url(#clip470)" d="M3540.53 224.025 L3540.53 208.331 L3544.79 208.331 L3544.79 223.863 Q3544.79 227.544 3546.23 229.396 Q3547.66 231.224 3550.53 231.224 Q3553.98 231.224 3555.97 229.025 Q3557.99 226.826 3557.99 223.03 L3557.99 208.331 L3562.25 208.331 L3562.25 234.257 L3557.99 234.257 L3557.99 230.275 Q3556.44 232.636 3554.38 233.794 Q3552.34 234.928 3549.63 234.928 Q3545.16 234.928 3542.85 232.15 Q3540.53 229.372 3540.53 224.025 M3551.25 207.706 L3551.25 207.706 Z" fill="#000000" fill-rule="evenodd" fill-opacity="1" /><path clip-path="url(#clip470)" d="M3593.2 220.229 L3593.2 222.312 L3573.61 222.312 Q3573.89 226.71 3576.25 229.025 Q3578.64 231.317 3582.87 231.317 Q3585.33 231.317 3587.62 230.715 Q3589.93 230.113 3592.2 228.909 L3592.2 232.937 Q3589.91 233.909 3587.5 234.419 Q3585.09 234.928 3582.62 234.928 Q3576.41 234.928 3572.78 231.317 Q3569.17 227.706 3569.17 221.548 Q3569.17 215.183 3572.59 211.456 Q3576.04 207.706 3581.88 207.706 Q3587.11 207.706 3590.14 211.085 Q3593.2 214.442 3593.2 220.229 M3588.94 218.979 Q3588.89 215.484 3586.97 213.4 Q3585.07 211.317 3581.92 211.317 Q3578.36 211.317 3576.21 213.331 Q3574.08 215.345 3573.75 219.002 L3588.94 218.979 Z" fill="#000000" fill-rule="evenodd" fill-opacity="1" /></svg>
