<?xml version="1.0" encoding="utf-8"?>
<svg xmlns="http://www.w3.org/2000/svg" xmlns:xlink="http://www.w3.org/1999/xlink" width="960" height="480" viewBox="0 0 3840 1920">
<defs>
  <clipPath id="clip210">
    <rect x="0" y="0" width="3840" height="1920"/>
  </clipPath>
</defs>
<path clip-path="url(#clip210)" d="
M0 1920 L3840 1920 L3840 0 L0 0  Z
  " fill="#ffffff" fill-rule="evenodd" fill-opacity="1"/>
<defs>
  <clipPath id="clip211">
    <rect x="768" y="0" width="2689" height="1920"/>
  </clipPath>
</defs>
<path clip-path="url(#clip210)" d="
M341.368 1821.37 L3792.76 1821.37 L3792.76 108.352 L341.368 108.352  Z
  " fill="#ffffff" fill-rule="evenodd" fill-opacity="1"/>
<defs>
  <clipPath id="clip212">
    <rect x="341" y="108" width="3452" height="1714"/>
  </clipPath>
</defs>
<polyline clip-path="url(#clip210)" style="stroke:#000000; stroke-linecap:round; stroke-linejoin:round; stroke-width:4; stroke-opacity:1; fill:none" points="
  341.368,1821.37 3792.76,1821.37 
  "/>
<path clip-path="url(#clip210)" d="M1764.69 1888.47 L1774.27 1888.47 L1786.4 1920.81 L1798.59 1888.47 L1808.17 1888.47 L1808.17 1935.99 L1801.9 1935.99 L1801.9 1894.26 L1789.64 1926.86 L1783.18 1926.86 L1770.93 1894.26 L1770.93 1935.99 L1764.69 1935.99 L1764.69 1888.47 Z" fill="#000000" fill-rule="evenodd" fill-opacity="1" /><path clip-path="url(#clip210)" d="M1851.17 1916.7 L1851.17 1919.57 L1824.24 1919.57 Q1824.62 1925.62 1827.87 1928.8 Q1831.15 1931.95 1836.97 1931.95 Q1840.35 1931.95 1843.5 1931.12 Q1846.68 1930.29 1849.8 1928.64 L1849.8 1934.18 Q1846.65 1935.51 1843.34 1936.21 Q1840.03 1936.91 1836.62 1936.91 Q1828.09 1936.91 1823.1 1931.95 Q1818.13 1926.98 1818.13 1918.52 Q1818.13 1909.77 1822.84 1904.64 Q1827.58 1899.48 1835.6 1899.48 Q1842.8 1899.48 1846.97 1904.13 Q1851.17 1908.75 1851.17 1916.7 M1845.31 1914.99 Q1845.25 1910.18 1842.61 1907.31 Q1840 1904.45 1835.67 1904.45 Q1830.77 1904.45 1827.81 1907.22 Q1824.88 1909.99 1824.43 1915.02 L1845.31 1914.99 Z" fill="#000000" fill-rule="evenodd" fill-opacity="1" /><path clip-path="url(#clip210)" d="M1888.54 1907.19 Q1890.73 1903.24 1893.79 1901.36 Q1896.84 1899.48 1900.98 1899.48 Q1906.55 1899.48 1909.57 1903.4 Q1912.6 1907.28 1912.6 1914.48 L1912.6 1935.99 L1906.71 1935.99 L1906.71 1914.67 Q1906.71 1909.54 1904.9 1907.06 Q1903.08 1904.58 1899.36 1904.58 Q1894.81 1904.58 1892.16 1907.6 Q1889.52 1910.62 1889.52 1915.84 L1889.52 1935.99 L1883.63 1935.99 L1883.63 1914.67 Q1883.63 1909.51 1881.82 1907.06 Q1880.01 1904.58 1876.22 1904.58 Q1871.73 1904.58 1869.09 1907.63 Q1866.45 1910.66 1866.45 1915.84 L1866.45 1935.99 L1860.56 1935.99 L1860.56 1900.34 L1866.45 1900.34 L1866.45 1905.88 Q1868.45 1902.6 1871.25 1901.04 Q1874.05 1899.48 1877.9 1899.48 Q1881.79 1899.48 1884.49 1901.46 Q1887.23 1903.43 1888.54 1907.19 Z" fill="#000000" fill-rule="evenodd" fill-opacity="1" /><path clip-path="url(#clip210)" d="M1949.87 1918.2 Q1949.87 1911.74 1947.2 1908.08 Q1944.55 1904.39 1939.91 1904.39 Q1935.26 1904.39 1932.59 1908.08 Q1929.94 1911.74 1929.94 1918.2 Q1929.94 1924.66 1932.59 1928.35 Q1935.26 1932.01 1939.91 1932.01 Q1944.55 1932.01 1947.2 1928.35 Q1949.87 1924.66 1949.87 1918.2 M1929.94 1905.75 Q1931.79 1902.57 1934.59 1901.04 Q1937.42 1899.48 1941.34 1899.48 Q1947.83 1899.48 1951.87 1904.64 Q1955.95 1909.8 1955.95 1918.2 Q1955.95 1926.6 1951.87 1931.76 Q1947.83 1936.91 1941.34 1936.91 Q1937.42 1936.91 1934.59 1935.39 Q1931.79 1933.83 1929.94 1930.64 L1929.94 1935.99 L1924.06 1935.99 L1924.06 1886.47 L1929.94 1886.47 L1929.94 1905.75 Z" fill="#000000" fill-rule="evenodd" fill-opacity="1" /><path clip-path="url(#clip210)" d="M1986.31 1905.82 Q1985.33 1905.25 1984.15 1904.99 Q1983 1904.7 1981.6 1904.7 Q1976.64 1904.7 1973.96 1907.95 Q1971.32 1911.17 1971.32 1917.21 L1971.32 1935.99 L1965.43 1935.99 L1965.43 1900.34 L1971.32 1900.34 L1971.32 1905.88 Q1973.17 1902.64 1976.13 1901.08 Q1979.09 1899.48 1983.32 1899.48 Q1983.93 1899.48 1984.66 1899.58 Q1985.39 1899.64 1986.28 1899.8 L1986.31 1905.82 Z" fill="#000000" fill-rule="evenodd" fill-opacity="1" /><path clip-path="url(#clip210)" d="M2008.66 1918.07 Q2001.56 1918.07 1998.82 1919.7 Q1996.08 1921.32 1996.08 1925.23 Q1996.08 1928.35 1998.12 1930.2 Q2000.19 1932.01 2003.72 1932.01 Q2008.59 1932.01 2011.52 1928.58 Q2014.48 1925.11 2014.48 1919.38 L2014.48 1918.07 L2008.66 1918.07 M2020.34 1915.65 L2020.34 1935.99 L2014.48 1935.99 L2014.48 1930.58 Q2012.48 1933.83 2009.48 1935.39 Q2006.49 1936.91 2002.16 1936.91 Q1996.69 1936.91 1993.44 1933.86 Q1990.23 1930.77 1990.23 1925.62 Q1990.23 1919.6 1994.24 1916.54 Q1998.28 1913.49 2006.27 1913.49 L2014.48 1913.49 L2014.48 1912.92 Q2014.48 1908.87 2011.81 1906.68 Q2009.17 1904.45 2004.36 1904.45 Q2001.3 1904.45 1998.41 1905.18 Q1995.51 1905.91 1992.84 1907.38 L1992.84 1901.97 Q1996.05 1900.73 1999.08 1900.12 Q2002.1 1899.48 2004.96 1899.48 Q2012.7 1899.48 2016.52 1903.49 Q2020.34 1907.51 2020.34 1915.65 Z" fill="#000000" fill-rule="evenodd" fill-opacity="1" /><path clip-path="url(#clip210)" d="M2062.03 1914.48 L2062.03 1935.99 L2056.18 1935.99 L2056.18 1914.67 Q2056.18 1909.61 2054.2 1907.09 Q2052.23 1904.58 2048.28 1904.58 Q2043.54 1904.58 2040.8 1907.6 Q2038.07 1910.62 2038.07 1915.84 L2038.07 1935.99 L2032.18 1935.99 L2032.18 1900.34 L2038.07 1900.34 L2038.07 1905.88 Q2040.17 1902.67 2043 1901.08 Q2045.86 1899.48 2049.59 1899.48 Q2055.73 1899.48 2058.88 1903.3 Q2062.03 1907.09 2062.03 1914.48 Z" fill="#000000" fill-rule="evenodd" fill-opacity="1" /><path clip-path="url(#clip210)" d="M2104.21 1916.7 L2104.21 1919.57 L2077.28 1919.57 Q2077.66 1925.62 2080.91 1928.8 Q2084.19 1931.95 2090.01 1931.95 Q2093.38 1931.95 2096.54 1931.12 Q2099.72 1930.29 2102.84 1928.64 L2102.84 1934.18 Q2099.69 1935.51 2096.38 1936.21 Q2093.07 1936.91 2089.66 1936.91 Q2081.13 1936.91 2076.13 1931.95 Q2071.17 1926.98 2071.17 1918.52 Q2071.17 1909.77 2075.88 1904.64 Q2080.62 1899.48 2088.64 1899.48 Q2095.83 1899.48 2100 1904.13 Q2104.21 1908.75 2104.21 1916.7 M2098.35 1914.99 Q2098.29 1910.18 2095.64 1907.31 Q2093.03 1904.45 2088.71 1904.45 Q2083.8 1904.45 2080.84 1907.22 Q2077.92 1909.99 2077.47 1915.02 L2098.35 1914.99 Z" fill="#000000" fill-rule="evenodd" fill-opacity="1" /><path clip-path="url(#clip210)" d="M2147.05 1935.99 L2128.9 1888.47 L2135.62 1888.47 L2150.68 1928.48 L2165.76 1888.47 L2172.45 1888.47 L2154.34 1935.99 L2147.05 1935.99 Z" fill="#000000" fill-rule="evenodd" fill-opacity="1" /><path clip-path="url(#clip210)" d="M2187.88 1904.45 Q2183.17 1904.45 2180.44 1908.14 Q2177.7 1911.8 2177.7 1918.2 Q2177.7 1924.6 2180.4 1928.29 Q2183.14 1931.95 2187.88 1931.95 Q2192.56 1931.95 2195.3 1928.26 Q2198.04 1924.57 2198.04 1918.2 Q2198.04 1911.87 2195.3 1908.17 Q2192.56 1904.45 2187.88 1904.45 M2187.88 1899.48 Q2195.52 1899.48 2199.88 1904.45 Q2204.24 1909.42 2204.24 1918.2 Q2204.24 1926.95 2199.88 1931.95 Q2195.52 1936.91 2187.88 1936.91 Q2180.21 1936.91 2175.85 1931.95 Q2171.52 1926.95 2171.52 1918.2 Q2171.52 1909.42 2175.85 1904.45 Q2180.21 1899.48 2187.88 1899.48 Z" fill="#000000" fill-rule="evenodd" fill-opacity="1" /><path clip-path="url(#clip210)" d="M2213.95 1886.47 L2219.81 1886.47 L2219.81 1935.99 L2213.95 1935.99 L2213.95 1886.47 Z" fill="#000000" fill-rule="evenodd" fill-opacity="1" /><path clip-path="url(#clip210)" d="M2237.85 1890.22 L2237.85 1900.34 L2249.92 1900.34 L2249.92 1904.9 L2237.85 1904.9 L2237.85 1924.25 Q2237.85 1928.61 2239.03 1929.85 Q2240.24 1931.09 2243.9 1931.09 L2249.92 1931.09 L2249.92 1935.99 L2243.9 1935.99 Q2237.12 1935.99 2234.54 1933.48 Q2231.97 1930.93 2231.97 1924.25 L2231.97 1904.9 L2227.67 1904.9 L2227.67 1900.34 L2231.97 1900.34 L2231.97 1890.22 L2237.85 1890.22 Z" fill="#000000" fill-rule="evenodd" fill-opacity="1" /><path clip-path="url(#clip210)" d="M2273.82 1918.07 Q2266.72 1918.07 2263.98 1919.7 Q2261.25 1921.32 2261.25 1925.23 Q2261.25 1928.35 2263.28 1930.2 Q2265.35 1932.01 2268.89 1932.01 Q2273.76 1932.01 2276.68 1928.58 Q2279.64 1925.11 2279.64 1919.38 L2279.64 1918.07 L2273.82 1918.07 M2285.5 1915.65 L2285.5 1935.99 L2279.64 1935.99 L2279.64 1930.58 Q2277.64 1933.83 2274.65 1935.39 Q2271.66 1936.91 2267.33 1936.91 Q2261.85 1936.91 2258.61 1933.86 Q2255.39 1930.77 2255.39 1925.62 Q2255.39 1919.6 2259.4 1916.54 Q2263.44 1913.49 2271.43 1913.49 L2279.64 1913.49 L2279.64 1912.92 Q2279.64 1908.87 2276.97 1906.68 Q2274.33 1904.45 2269.52 1904.45 Q2266.47 1904.45 2263.57 1905.18 Q2260.67 1905.91 2258 1907.38 L2258 1901.97 Q2261.22 1900.73 2264.24 1900.12 Q2267.26 1899.48 2270.13 1899.48 Q2277.86 1899.48 2281.68 1903.49 Q2285.5 1907.51 2285.5 1915.65 Z" fill="#000000" fill-rule="evenodd" fill-opacity="1" /><path clip-path="url(#clip210)" d="M2321.02 1917.75 Q2321.02 1911.39 2318.38 1907.89 Q2315.77 1904.39 2311.03 1904.39 Q2306.32 1904.39 2303.68 1907.89 Q2301.07 1911.39 2301.07 1917.75 Q2301.07 1924.09 2303.68 1927.59 Q2306.32 1931.09 2311.03 1931.09 Q2315.77 1931.09 2318.38 1927.59 Q2321.02 1924.09 2321.02 1917.75 M2326.88 1931.57 Q2326.88 1940.67 2322.84 1945.09 Q2318.79 1949.55 2310.45 1949.55 Q2307.37 1949.55 2304.63 1949.07 Q2301.89 1948.63 2299.31 1947.67 L2299.31 1941.98 Q2301.89 1943.38 2304.41 1944.04 Q2306.92 1944.71 2309.53 1944.71 Q2315.29 1944.71 2318.16 1941.69 Q2321.02 1938.7 2321.02 1932.62 L2321.02 1929.72 Q2319.21 1932.87 2316.37 1934.43 Q2313.54 1935.99 2309.6 1935.99 Q2303.04 1935.99 2299.03 1930.99 Q2295.02 1926 2295.02 1917.75 Q2295.02 1909.48 2299.03 1904.48 Q2303.04 1899.48 2309.6 1899.48 Q2313.54 1899.48 2316.37 1901.04 Q2319.21 1902.6 2321.02 1905.75 L2321.02 1900.34 L2326.88 1900.34 L2326.88 1931.57 Z" fill="#000000" fill-rule="evenodd" fill-opacity="1" /><path clip-path="url(#clip210)" d="M2369.43 1916.7 L2369.43 1919.57 L2342.51 1919.57 Q2342.89 1925.62 2346.13 1928.8 Q2349.41 1931.95 2355.24 1931.95 Q2358.61 1931.95 2361.76 1931.12 Q2364.95 1930.29 2368.06 1928.64 L2368.06 1934.18 Q2364.91 1935.51 2361.6 1936.21 Q2358.29 1936.91 2354.89 1936.91 Q2346.36 1936.91 2341.36 1931.95 Q2336.39 1926.98 2336.39 1918.52 Q2336.39 1909.77 2341.11 1904.64 Q2345.85 1899.48 2353.87 1899.48 Q2361.06 1899.48 2365.23 1904.13 Q2369.43 1908.75 2369.43 1916.7 M2363.58 1914.99 Q2363.51 1910.18 2360.87 1907.31 Q2358.26 1904.45 2353.93 1904.45 Q2349.03 1904.45 2346.07 1907.22 Q2343.14 1909.99 2342.7 1915.02 L2363.58 1914.99 Z" fill="#000000" fill-rule="evenodd" fill-opacity="1" /><polyline clip-path="url(#clip212)" style="stroke:#000000; stroke-linecap:round; stroke-linejoin:round; stroke-width:2; stroke-opacity:0.1; fill:none" points="
  341.368,3534.38 3792.76,3534.38 
  "/>
<polyline clip-path="url(#clip212)" style="stroke:#000000; stroke-linecap:round; stroke-linejoin:round; stroke-width:2; stroke-opacity:0.1; fill:none" points="
  341.368,1821.37 3792.76,1821.37 
  "/>
<polyline clip-path="url(#clip212)" style="stroke:#000000; stroke-linecap:round; stroke-linejoin:round; stroke-width:2; stroke-opacity:0.1; fill:none" points="
  341.368,108.352 3792.76,108.352 
  "/>
<polyline clip-path="url(#clip210)" style="stroke:#000000; stroke-linecap:round; stroke-linejoin:round; stroke-width:4; stroke-opacity:1; fill:none" points="
  341.368,1821.37 341.368,108.352 
  "/>
<polyline clip-path="url(#clip210)" style="stroke:#000000; stroke-linecap:round; stroke-linejoin:round; stroke-width:4; stroke-opacity:1; fill:none" points="
  341.368,3534.38 360.265,3534.38 
  "/>
<polyline clip-path="url(#clip210)" style="stroke:#000000; stroke-linecap:round; stroke-linejoin:round; stroke-width:4; stroke-opacity:1; fill:none" points="
  341.368,1821.37 360.265,1821.37 
  "/>
<polyline clip-path="url(#clip210)" style="stroke:#000000; stroke-linecap:round; stroke-linejoin:round; stroke-width:4; stroke-opacity:1; fill:none" points="
  341.368,108.352 360.265,108.352 
  "/>
<path clip-path="url(#clip210)" d="M66.0374 92.2064 L66.0374 96.7665 Q63.3754 95.4934 61.0143 94.8684 Q58.6532 94.2434 56.4541 94.2434 Q52.6347 94.2434 50.5513 95.7249 Q48.4912 97.2064 48.4912 99.9378 Q48.4912 102.229 49.8569 103.41 Q51.2458 104.567 55.0884 105.285 L57.9124 105.864 Q63.1439 106.859 65.6207 109.382 Q68.1207 111.882 68.1207 116.095 Q68.1207 121.118 64.7411 123.711 Q61.3846 126.303 54.88 126.303 Q52.4263 126.303 49.6486 125.748 Q46.894 125.192 43.931 124.104 L43.931 119.29 Q46.7782 120.887 49.5097 121.697 Q52.2412 122.507 54.88 122.507 Q58.8846 122.507 61.0606 120.933 Q63.2365 119.359 63.2365 116.442 Q63.2365 113.896 61.6624 112.461 Q60.1115 111.026 56.5467 110.308 L53.6995 109.753 Q48.468 108.711 46.1301 106.489 Q43.7921 104.266 43.7921 100.308 Q43.7921 95.7249 47.0097 93.086 Q50.2504 90.4471 55.9217 90.4471 Q58.3522 90.4471 60.8754 90.8869 Q63.3985 91.3268 66.0374 92.2064 Z" fill="#000000" fill-rule="evenodd" fill-opacity="1" /><path clip-path="url(#clip210)" d="M87.0095 112.6 Q81.8475 112.6 79.8567 113.78 Q77.866 114.961 77.866 117.808 Q77.866 120.077 79.3475 121.419 Q80.8521 122.739 83.4215 122.739 Q86.9632 122.739 89.0928 120.239 Q91.2456 117.716 91.2456 113.549 L91.2456 112.6 L87.0095 112.6 M95.5048 110.841 L95.5048 125.632 L91.2456 125.632 L91.2456 121.697 Q89.7872 124.058 87.6113 125.192 Q85.4354 126.303 82.2873 126.303 Q78.3058 126.303 75.9447 124.081 Q73.6068 121.836 73.6068 118.086 Q73.6068 113.711 76.5234 111.489 Q79.4632 109.266 85.2734 109.266 L91.2456 109.266 L91.2456 108.85 Q91.2456 105.91 89.3011 104.313 Q87.3799 102.692 83.8845 102.692 Q81.6623 102.692 79.5558 103.225 Q77.4494 103.757 75.5049 104.822 L75.5049 100.887 Q77.8429 99.9841 80.0419 99.5443 Q82.241 99.0813 84.3243 99.0813 Q89.9493 99.0813 92.727 101.998 Q95.5048 104.915 95.5048 110.841 Z" fill="#000000" fill-rule="evenodd" fill-opacity="1" /><path clip-path="url(#clip210)" d="M108.491 92.3453 L108.491 99.7063 L117.264 99.7063 L117.264 103.017 L108.491 103.017 L108.491 117.091 Q108.491 120.262 109.347 121.165 Q110.227 122.067 112.889 122.067 L117.264 122.067 L117.264 125.632 L112.889 125.632 Q107.958 125.632 106.083 123.803 Q104.208 121.952 104.208 117.091 L104.208 103.017 L101.083 103.017 L101.083 99.7063 L104.208 99.7063 L104.208 92.3453 L108.491 92.3453 Z" fill="#000000" fill-rule="evenodd" fill-opacity="1" /><path clip-path="url(#clip210)" d="M122.426 115.401 L122.426 99.7063 L126.685 99.7063 L126.685 115.239 Q126.685 118.919 128.12 120.771 Q129.556 122.6 132.426 122.6 Q135.875 122.6 137.866 120.401 Q139.88 118.202 139.88 114.405 L139.88 99.7063 L144.139 99.7063 L144.139 125.632 L139.88 125.632 L139.88 121.651 Q138.329 124.012 136.268 125.169 Q134.231 126.303 131.523 126.303 Q127.056 126.303 124.741 123.526 Q122.426 120.748 122.426 115.401 M133.143 99.0813 L133.143 99.0813 Z" fill="#000000" fill-rule="evenodd" fill-opacity="1" /><path clip-path="url(#clip210)" d="M167.935 103.688 Q167.217 103.271 166.361 103.086 Q165.528 102.878 164.509 102.878 Q160.898 102.878 158.954 105.239 Q157.032 107.577 157.032 111.975 L157.032 125.632 L152.75 125.632 L152.75 99.7063 L157.032 99.7063 L157.032 103.734 Q158.375 101.373 160.528 100.239 Q162.68 99.0813 165.759 99.0813 Q166.199 99.0813 166.731 99.1508 Q167.264 99.1971 167.912 99.3128 L167.935 103.688 Z" fill="#000000" fill-rule="evenodd" fill-opacity="1" /><path clip-path="url(#clip210)" d="M184.185 112.6 Q179.023 112.6 177.032 113.78 Q175.041 114.961 175.041 117.808 Q175.041 120.077 176.523 121.419 Q178.028 122.739 180.597 122.739 Q184.139 122.739 186.268 120.239 Q188.421 117.716 188.421 113.549 L188.421 112.6 L184.185 112.6 M192.68 110.841 L192.68 125.632 L188.421 125.632 L188.421 121.697 Q186.963 124.058 184.787 125.192 Q182.611 126.303 179.463 126.303 Q175.481 126.303 173.12 124.081 Q170.782 121.836 170.782 118.086 Q170.782 113.711 173.699 111.489 Q176.639 109.266 182.449 109.266 L188.421 109.266 L188.421 108.85 Q188.421 105.91 186.477 104.313 Q184.555 102.692 181.06 102.692 Q178.838 102.692 176.731 103.225 Q174.625 103.757 172.68 104.822 L172.68 100.887 Q175.018 99.9841 177.217 99.5443 Q179.416 99.0813 181.5 99.0813 Q187.125 99.0813 189.902 101.998 Q192.68 104.915 192.68 110.841 Z" fill="#000000" fill-rule="evenodd" fill-opacity="1" /><path clip-path="url(#clip210)" d="M205.666 92.3453 L205.666 99.7063 L214.439 99.7063 L214.439 103.017 L205.666 103.017 L205.666 117.091 Q205.666 120.262 206.523 121.165 Q207.402 122.067 210.064 122.067 L214.439 122.067 L214.439 125.632 L210.064 125.632 Q205.134 125.632 203.259 123.803 Q201.384 121.952 201.384 117.091 L201.384 103.017 L198.259 103.017 L198.259 99.7063 L201.384 99.7063 L201.384 92.3453 L205.666 92.3453 Z" fill="#000000" fill-rule="evenodd" fill-opacity="1" /><path clip-path="url(#clip210)" d="M220.041 99.7063 L224.3 99.7063 L224.3 125.632 L220.041 125.632 L220.041 99.7063 M220.041 89.6138 L224.3 89.6138 L224.3 95.0073 L220.041 95.0073 L220.041 89.6138 Z" fill="#000000" fill-rule="evenodd" fill-opacity="1" /><path clip-path="url(#clip210)" d="M243.259 102.692 Q239.833 102.692 237.842 105.378 Q235.851 108.04 235.851 112.692 Q235.851 117.345 237.819 120.03 Q239.81 122.692 243.259 122.692 Q246.661 122.692 248.652 120.007 Q250.643 117.322 250.643 112.692 Q250.643 108.086 248.652 105.401 Q246.661 102.692 243.259 102.692 M243.259 99.0813 Q248.814 99.0813 251.985 102.692 Q255.157 106.304 255.157 112.692 Q255.157 119.058 251.985 122.692 Q248.814 126.303 243.259 126.303 Q237.68 126.303 234.509 122.692 Q231.361 119.058 231.361 112.692 Q231.361 106.304 234.509 102.692 Q237.68 99.0813 243.259 99.0813 Z" fill="#000000" fill-rule="evenodd" fill-opacity="1" /><path clip-path="url(#clip210)" d="M283.768 109.984 L283.768 125.632 L279.508 125.632 L279.508 110.123 Q279.508 106.442 278.073 104.614 Q276.638 102.785 273.768 102.785 Q270.319 102.785 268.328 104.984 Q266.337 107.183 266.337 110.979 L266.337 125.632 L262.055 125.632 L262.055 99.7063 L266.337 99.7063 L266.337 103.734 Q267.865 101.396 269.925 100.239 Q272.008 99.0813 274.717 99.0813 Q279.184 99.0813 281.476 101.859 Q283.768 104.614 283.768 109.984 Z" fill="#000000" fill-rule="evenodd" fill-opacity="1" /><path clip-path="url(#clip210)" d="M1753.14 12.096 L1804.3 12.096 L1804.3 18.9825 L1782.83 18.9825 L1782.83 72.576 L1774.61 72.576 L1774.61 18.9825 L1753.14 18.9825 L1753.14 12.096 Z" fill="#000000" fill-rule="evenodd" fill-opacity="1" /><path clip-path="url(#clip210)" d="M1818.76 49.7694 Q1809.73 49.7694 1806.24 51.8354 Q1802.76 53.9013 1802.76 58.8839 Q1802.76 62.8538 1805.35 65.2034 Q1807.99 67.5124 1812.48 67.5124 Q1818.68 67.5124 1822.41 63.1374 Q1826.17 58.7219 1826.17 51.4303 L1826.17 49.7694 L1818.76 49.7694 M1833.63 46.6907 L1833.63 72.576 L1826.17 72.576 L1826.17 65.6895 Q1823.62 69.8214 1819.81 71.8063 Q1816.01 73.7508 1810.5 73.7508 Q1803.53 73.7508 1799.4 69.8619 Q1795.31 65.9325 1795.31 59.3701 Q1795.31 51.7138 1800.41 47.825 Q1805.56 43.9361 1815.72 43.9361 L1826.17 43.9361 L1826.17 43.2069 Q1826.17 38.0623 1822.77 35.2672 Q1819.41 32.4315 1813.29 32.4315 Q1809.4 32.4315 1805.72 33.3632 Q1802.03 34.295 1798.63 36.1584 L1798.63 29.2718 Q1802.72 27.692 1806.57 26.9223 Q1810.42 26.1121 1814.06 26.1121 Q1823.91 26.1121 1828.77 31.2163 Q1833.63 36.3204 1833.63 46.6907 Z" fill="#000000" fill-rule="evenodd" fill-opacity="1" /><path clip-path="url(#clip210)" d="M1886.7 45.1919 L1886.7 72.576 L1879.24 72.576 L1879.24 45.4349 Q1879.24 38.994 1876.73 35.7938 Q1874.22 32.5936 1869.2 32.5936 Q1863.16 32.5936 1859.68 36.4419 Q1856.19 40.2903 1856.19 46.9338 L1856.19 72.576 L1848.7 72.576 L1848.7 27.2059 L1856.19 27.2059 L1856.19 34.2544 Q1858.87 30.163 1862.47 28.1376 Q1866.12 26.1121 1870.86 26.1121 Q1878.67 26.1121 1882.68 30.9732 Q1886.7 35.7938 1886.7 45.1919 Z" fill="#000000" fill-rule="evenodd" fill-opacity="1" /><path clip-path="url(#clip210)" d="M1939.28 45.1919 L1939.28 72.576 L1931.82 72.576 L1931.82 45.4349 Q1931.82 38.994 1929.31 35.7938 Q1926.8 32.5936 1921.78 32.5936 Q1915.74 32.5936 1912.26 36.4419 Q1908.77 40.2903 1908.77 46.9338 L1908.77 72.576 L1901.28 72.576 L1901.28 9.54393 L1908.77 9.54393 L1908.77 34.2544 Q1911.45 30.163 1915.05 28.1376 Q1918.7 26.1121 1923.44 26.1121 Q1931.26 26.1121 1935.27 30.9732 Q1939.28 35.7938 1939.28 45.1919 Z" fill="#000000" fill-rule="evenodd" fill-opacity="1" /><path clip-path="url(#clip210)" d="M2001.05 20.1573 L1989.95 50.2555 L2012.19 50.2555 L2001.05 20.1573 M1996.43 12.096 L2005.71 12.096 L2028.76 72.576 L2020.25 72.576 L2014.74 57.061 L1987.48 57.061 L1981.97 72.576 L1973.34 72.576 L1996.43 12.096 Z" fill="#000000" fill-rule="evenodd" fill-opacity="1" /><path clip-path="url(#clip210)" d="M2068.46 28.9478 L2068.46 35.9153 Q2065.3 34.1734 2062.1 33.3227 Q2058.94 32.4315 2055.7 32.4315 Q2048.45 32.4315 2044.44 37.0496 Q2040.43 41.6271 2040.43 49.9314 Q2040.43 58.2358 2044.44 62.8538 Q2048.45 67.4314 2055.7 67.4314 Q2058.94 67.4314 2062.1 66.5807 Q2065.3 65.6895 2068.46 63.9476 L2068.46 70.8341 Q2065.34 72.2924 2061.98 73.0216 Q2058.66 73.7508 2054.89 73.7508 Q2044.64 73.7508 2038.6 67.3098 Q2032.57 60.8689 2032.57 49.9314 Q2032.57 38.832 2038.64 32.472 Q2044.76 26.1121 2055.37 26.1121 Q2058.82 26.1121 2062.1 26.8413 Q2065.38 27.5299 2068.46 28.9478 Z" fill="#000000" fill-rule="evenodd" fill-opacity="1" /><path clip-path="url(#clip210)" d="M2088.79 14.324 L2088.79 27.2059 L2104.15 27.2059 L2104.15 32.9987 L2088.79 32.9987 L2088.79 57.6282 Q2088.79 63.1779 2090.29 64.7578 Q2091.83 66.3376 2096.49 66.3376 L2104.15 66.3376 L2104.15 72.576 L2096.49 72.576 Q2087.86 72.576 2084.58 69.3758 Q2081.3 66.1351 2081.3 57.6282 L2081.3 32.9987 L2075.83 32.9987 L2075.83 27.2059 L2081.3 27.2059 L2081.3 14.324 L2088.79 14.324 Z" fill="#000000" fill-rule="evenodd" fill-opacity="1" /><path clip-path="url(#clip210)" d="M2113.95 27.2059 L2121.4 27.2059 L2121.4 72.576 L2113.95 72.576 L2113.95 27.2059 M2113.95 9.54393 L2121.4 9.54393 L2121.4 18.9825 L2113.95 18.9825 L2113.95 9.54393 Z" fill="#000000" fill-rule="evenodd" fill-opacity="1" /><path clip-path="url(#clip210)" d="M2131.65 27.2059 L2139.55 27.2059 L2153.73 65.2844 L2167.91 27.2059 L2175.81 27.2059 L2158.79 72.576 L2148.67 72.576 L2131.65 27.2059 Z" fill="#000000" fill-rule="evenodd" fill-opacity="1" /><path clip-path="url(#clip210)" d="M2206.72 49.7694 Q2197.68 49.7694 2194.2 51.8354 Q2190.72 53.9013 2190.72 58.8839 Q2190.72 62.8538 2193.31 65.2034 Q2195.94 67.5124 2200.44 67.5124 Q2206.64 67.5124 2210.36 63.1374 Q2214.13 58.7219 2214.13 51.4303 L2214.13 49.7694 L2206.72 49.7694 M2221.58 46.6907 L2221.58 72.576 L2214.13 72.576 L2214.13 65.6895 Q2211.58 69.8214 2207.77 71.8063 Q2203.96 73.7508 2198.45 73.7508 Q2191.49 73.7508 2187.35 69.8619 Q2183.26 65.9325 2183.26 59.3701 Q2183.26 51.7138 2188.37 47.825 Q2193.51 43.9361 2203.68 43.9361 L2214.13 43.9361 L2214.13 43.2069 Q2214.13 38.0623 2210.73 35.2672 Q2207.36 32.4315 2201.25 32.4315 Q2197.36 32.4315 2193.67 33.3632 Q2189.99 34.295 2186.58 36.1584 L2186.58 29.2718 Q2190.68 27.692 2194.52 26.9223 Q2198.37 26.1121 2202.02 26.1121 Q2211.86 26.1121 2216.72 31.2163 Q2221.58 36.3204 2221.58 46.6907 Z" fill="#000000" fill-rule="evenodd" fill-opacity="1" /><path clip-path="url(#clip210)" d="M2244.31 14.324 L2244.31 27.2059 L2259.66 27.2059 L2259.66 32.9987 L2244.31 32.9987 L2244.31 57.6282 Q2244.31 63.1779 2245.81 64.7578 Q2247.35 66.3376 2252.01 66.3376 L2259.66 66.3376 L2259.66 72.576 L2252.01 72.576 Q2243.38 72.576 2240.1 69.3758 Q2236.81 66.1351 2236.81 57.6282 L2236.81 32.9987 L2231.35 32.9987 L2231.35 27.2059 L2236.81 27.2059 L2236.81 14.324 L2244.31 14.324 Z" fill="#000000" fill-rule="evenodd" fill-opacity="1" /><path clip-path="url(#clip210)" d="M2269.47 27.2059 L2276.92 27.2059 L2276.92 72.576 L2269.47 72.576 L2269.47 27.2059 M2269.47 9.54393 L2276.92 9.54393 L2276.92 18.9825 L2269.47 18.9825 L2269.47 9.54393 Z" fill="#000000" fill-rule="evenodd" fill-opacity="1" /><path clip-path="url(#clip210)" d="M2310.1 32.4315 Q2304.1 32.4315 2300.62 37.1306 Q2297.13 41.7891 2297.13 49.9314 Q2297.13 58.0738 2300.58 62.7728 Q2304.06 67.4314 2310.1 67.4314 Q2316.05 67.4314 2319.53 62.7323 Q2323.02 58.0333 2323.02 49.9314 Q2323.02 41.8701 2319.53 37.1711 Q2316.05 32.4315 2310.1 32.4315 M2310.1 26.1121 Q2319.82 26.1121 2325.37 32.4315 Q2330.92 38.7509 2330.92 49.9314 Q2330.92 61.0714 2325.37 67.4314 Q2319.82 73.7508 2310.1 73.7508 Q2300.33 73.7508 2294.78 67.4314 Q2289.27 61.0714 2289.27 49.9314 Q2289.27 38.7509 2294.78 32.4315 Q2300.33 26.1121 2310.1 26.1121 Z" fill="#000000" fill-rule="evenodd" fill-opacity="1" /><path clip-path="url(#clip210)" d="M2380.99 45.1919 L2380.99 72.576 L2373.53 72.576 L2373.53 45.4349 Q2373.53 38.994 2371.02 35.7938 Q2368.51 32.5936 2363.49 32.5936 Q2357.45 32.5936 2353.97 36.4419 Q2350.48 40.2903 2350.48 46.9338 L2350.48 72.576 L2342.99 72.576 L2342.99 27.2059 L2350.48 27.2059 L2350.48 34.2544 Q2353.16 30.163 2356.76 28.1376 Q2360.41 26.1121 2365.15 26.1121 Q2372.97 26.1121 2376.98 30.9732 Q2380.99 35.7938 2380.99 45.1919 Z" fill="#000000" fill-rule="evenodd" fill-opacity="1" /><polyline clip-path="url(#clip212)" style="stroke:#009af9; stroke-linecap:round; stroke-linejoin:round; stroke-width:4; stroke-opacity:1; fill:none" points="
  439.048,3472.76 447.189,3471.54 455.329,3470.29 463.469,3469.02 471.609,3467.73 479.749,3466.41 487.889,3465.06 496.029,3463.69 504.169,3462.3 512.309,3460.87 
  520.449,3459.42 528.589,3457.94 536.729,3456.43 544.869,3454.89 553.009,3453.32 561.149,3451.72 569.29,3450.09 577.43,3448.43 585.57,3446.74 593.71,3445.02 
  601.85,3443.26 609.99,3441.47 618.13,3439.65 626.27,3437.79 634.41,3435.89 642.55,3433.96 650.69,3431.99 658.83,3429.99 666.97,3427.94 675.11,3425.86 
  683.25,3423.74 691.391,3421.58 699.531,3419.37 707.671,3417.13 715.811,3414.84 723.951,3412.52 732.091,3410.14 740.231,3407.73 748.371,3405.26 756.511,3402.76 
  764.651,3400.2 772.791,3397.6 780.931,3394.95 789.071,3392.25 797.211,3389.5 805.351,3386.7 813.492,3383.84 821.632,3380.94 829.772,3377.98 837.912,3374.97 
  846.052,3371.9 854.192,3368.78 862.332,3365.6 870.472,3362.36 878.612,3359.06 886.752,3355.7 894.892,3352.29 903.032,3348.81 911.172,3345.26 919.312,3341.66 
  927.452,3337.99 935.593,3334.25 943.733,3330.45 951.873,3326.58 960.013,3322.64 968.153,3318.63 976.293,3314.56 984.433,3310.41 992.573,3306.18 1000.71,3301.89 
  1008.85,3297.51 1016.99,3293.07 1025.13,3288.54 1033.27,3283.94 1041.41,3279.25 1049.55,3274.49 1057.69,3269.65 1065.83,3264.72 1073.97,3259.71 1082.11,3254.61 
  1090.25,3249.43 1098.39,3244.16 1106.53,3238.81 1114.67,3233.36 1122.81,3227.82 1130.95,3222.19 1139.09,3216.47 1147.23,3210.66 1155.37,3204.75 1163.51,3198.74 
  1171.65,3192.64 1179.79,3186.43 1187.93,3180.13 1196.07,3173.73 1204.21,3167.22 1212.35,3160.61 1220.49,3153.9 1228.63,3147.09 1236.78,3140.16 1244.92,3133.13 
  1253.06,3125.99 1261.2,3118.74 1269.34,3111.38 1277.48,3103.91 1285.62,3096.33 1293.76,3088.63 1301.9,3080.82 1310.04,3072.89 1318.18,3064.84 1326.32,3056.68 
  1334.46,3048.4 1342.6,3040 1350.74,3031.48 1358.88,3022.83 1367.02,3014.07 1375.16,3005.18 1383.3,2996.17 1391.44,2987.03 1399.58,2977.77 1407.72,2968.39 
  1415.86,2958.87 1424,2949.23 1432.14,2939.46 1440.28,2929.57 1448.42,2919.54 1456.56,2909.39 1464.7,2899.1 1472.84,2888.69 1480.98,2878.14 1489.12,2867.47 
  1497.26,2856.66 1505.4,2845.72 1513.54,2834.65 1521.68,2823.45 1529.82,2812.11 1537.96,2800.65 1546.1,2789.05 1554.24,2777.32 1562.38,2765.46 1570.52,2753.47 
  1578.66,2741.34 1586.8,2729.09 1594.94,2716.7 1603.08,2704.19 1611.22,2691.54 1619.36,2678.77 1627.5,2665.86 1635.64,2652.83 1643.78,2639.68 1651.92,2626.39 
  1660.06,2612.98 1668.2,2599.45 1676.34,2585.79 1684.48,2572.01 1692.62,2558.11 1700.76,2544.09 1708.9,2529.95 1717.04,2515.69 1725.18,2501.32 1733.32,2486.83 
  1741.46,2472.23 1749.6,2457.51 1757.74,2442.69 1765.88,2427.76 1774.02,2412.72 1782.16,2397.58 1790.3,2382.34 1798.44,2367 1806.58,2351.56 1814.72,2336.02 
  1822.86,2320.39 1831,2304.67 1839.14,2288.86 1847.28,2272.96 1855.42,2256.98 1863.56,2240.92 1871.7,2224.78 1879.84,2208.56 1887.98,2192.27 1896.12,2175.9 
  1904.26,2159.47 1912.4,2142.98 1920.54,2126.42 1928.68,2109.81 1936.82,2093.14 1944.96,2076.41 1953.1,2059.64 1961.24,2042.81 1969.38,2025.95 1977.52,2009.04 
  1985.66,1992.1 1993.8,1975.12 2001.94,1958.12 2010.08,1941.08 2018.22,1924.03 2026.36,1906.95 2034.5,1889.85 2042.64,1872.74 2050.78,1855.62 2058.92,1838.5 
  2067.06,1821.37 2075.2,1804.24 2083.34,1787.11 2091.48,1769.99 2099.62,1752.88 2107.76,1735.79 2115.9,1718.71 2124.04,1701.65 2132.18,1684.62 2140.32,1667.61 
  2148.46,1650.64 2156.6,1633.69 2164.74,1616.79 2172.88,1599.92 2181.02,1583.1 2189.16,1566.33 2197.3,1549.6 2205.44,1532.93 2213.58,1516.31 2221.72,1499.76 
  2229.86,1483.26 2238,1466.83 2246.14,1450.47 2254.28,1434.18 2262.42,1417.96 2270.56,1401.82 2278.7,1385.76 2286.84,1369.77 2294.98,1353.88 2303.12,1338.07 
  2311.26,1322.34 2319.4,1306.71 2327.54,1291.18 2335.68,1275.74 2343.82,1260.39 2351.96,1245.15 2360.1,1230.01 2368.24,1214.97 2376.38,1200.04 2384.52,1185.22 
  2392.66,1170.51 2400.8,1155.91 2408.94,1141.42 2417.08,1127.05 2425.22,1112.79 2433.36,1098.65 2441.5,1084.63 2449.64,1070.73 2457.78,1056.95 2465.93,1043.29 
  2474.07,1029.75 2482.21,1016.34 2490.35,1003.06 2498.49,989.902 2506.63,976.872 2514.77,963.969 2522.91,951.195 2531.05,938.549 2539.19,926.034 2547.33,913.648 
  2555.47,901.394 2563.61,889.27 2571.75,877.277 2579.89,865.416 2588.03,853.686 2596.17,842.088 2604.31,830.622 2612.45,819.288 2620.59,808.086 2628.73,797.015 
  2636.87,786.076 2645.01,775.269 2653.15,764.593 2661.29,754.047 2669.43,743.632 2677.57,733.348 2685.71,723.193 2693.85,713.168 2701.99,703.271 2710.13,693.503 
  2718.27,683.862 2726.41,674.349 2734.55,664.963 2742.69,655.702 2750.83,646.566 2758.97,637.555 2767.11,628.668 2775.25,619.903 2783.39,611.26 2791.53,602.739 
  2799.67,594.338 2807.81,586.057 2815.95,577.894 2824.09,569.849 2832.23,561.921 2840.37,554.108 2848.51,546.41 2856.65,538.826 2864.79,531.354 2872.93,523.994 
  2881.07,516.745 2889.21,509.605 2897.35,502.574 2905.49,495.651 2913.63,488.833 2921.77,482.121 2929.91,475.513 2938.05,469.008 2946.19,462.605 2954.33,456.303 
  2962.47,450.1 2970.61,443.996 2978.75,437.99 2986.89,432.079 2995.03,426.264 3003.17,420.542 3011.31,414.914 3019.45,409.377 3027.59,403.93 3035.73,398.573 
  3043.87,393.304 3052.01,388.123 3060.15,383.027 3068.29,378.016 3076.43,373.089 3084.57,368.245 3092.71,363.482 3100.85,358.799 3108.99,354.196 3117.13,349.671 
  3125.27,345.223 3133.41,340.85 3141.55,336.553 3149.69,332.33 3157.83,328.18 3165.97,324.101 3174.11,320.093 3182.25,316.154 3190.39,312.284 3198.53,308.482 
  3206.67,304.747 3214.81,301.076 3222.95,297.471 3231.09,293.929 3239.23,290.45 3247.37,287.032 3255.51,283.675 3263.65,280.378 3271.79,277.139 3279.93,273.958 
  3288.07,270.835 3296.21,267.767 3304.35,264.754 3312.49,261.796 3320.63,258.891 3328.77,256.039 3336.91,253.238 3345.05,250.488 3353.19,247.788 3361.33,245.138 
  3369.47,242.535 3377.61,239.98 3385.75,237.472 3393.89,235.01 3402.03,232.593 3410.17,230.22 3418.31,227.891 3426.45,225.605 3434.59,223.361 3442.73,221.159 
  3450.87,218.997 3459.01,216.876 3467.15,214.794 3475.29,212.75 3483.43,210.745 3491.57,208.777 3499.71,206.845 3507.85,204.95 3515.99,203.09 3524.13,201.265 
  3532.27,199.474 3540.41,197.717 3548.55,195.993 3556.69,194.301 3564.83,192.641 3572.97,191.012 3581.11,189.414 3589.25,187.846 3597.39,186.308 3605.53,184.799 
  3613.67,183.318 3621.81,181.865 3629.95,180.44 3638.09,179.042 3646.23,177.671 3654.37,176.326 3662.51,175.006 3670.65,173.711 3678.79,172.441 3686.94,171.195 
  3695.08,169.973 
  "/>
</svg>
