<?xml version="1.0" encoding="utf-8"?>
<svg xmlns="http://www.w3.org/2000/svg" xmlns:xlink="http://www.w3.org/1999/xlink" width="960" height="480" viewBox="0 0 3840 1920">
<defs>
  <clipPath id="clip250">
    <rect x="0" y="0" width="3840" height="1920"/>
  </clipPath>
</defs>
<path clip-path="url(#clip250)" d="
M0 1920 L3840 1920 L3840 0 L0 0  Z
  " fill="#ffffff" fill-rule="evenodd" fill-opacity="1"/>
<defs>
  <clipPath id="clip251">
    <rect x="768" y="0" width="2689" height="1920"/>
  </clipPath>
</defs>
<path clip-path="url(#clip250)" d="
M341.368 1821.37 L3792.76 1821.37 L3792.76 108.352 L341.368 108.352  Z
  " fill="#ffffff" fill-rule="evenodd" fill-opacity="1"/>
<defs>
  <clipPath id="clip252">
    <rect x="341" y="108" width="3452" height="1714"/>
  </clipPath>
</defs>
<polyline clip-path="url(#clip250)" style="stroke:#000000; stroke-linecap:round; stroke-linejoin:round; stroke-width:4; stroke-opacity:1; fill:none" points="
  341.368,1821.37 3792.76,1821.37 
  "/>
<path clip-path="url(#clip250)" d="M1764.69 1888.47 L1774.27 1888.47 L1786.4 1920.81 L1798.59 1888.47 L1808.17 1888.47 L1808.17 1935.99 L1801.9 1935.99 L1801.9 1894.26 L1789.64 1926.86 L1783.18 1926.86 L1770.93 1894.26 L1770.93 1935.99 L1764.69 1935.99 L1764.69 1888.47 Z" fill="#000000" fill-rule="evenodd" fill-opacity="1" /><path clip-path="url(#clip250)" d="M1851.17 1916.7 L1851.17 1919.57 L1824.24 1919.57 Q1824.62 1925.62 1827.87 1928.8 Q1831.15 1931.95 1836.97 1931.95 Q1840.35 1931.95 1843.5 1931.12 Q1846.68 1930.29 1849.8 1928.64 L1849.8 1934.18 Q1846.65 1935.51 1843.34 1936.21 Q1840.03 1936.91 1836.62 1936.91 Q1828.09 1936.91 1823.1 1931.95 Q1818.13 1926.98 1818.13 1918.52 Q1818.13 1909.77 1822.84 1904.64 Q1827.58 1899.48 1835.6 1899.48 Q1842.8 1899.48 1846.97 1904.13 Q1851.17 1908.75 1851.17 1916.7 M1845.31 1914.99 Q1845.25 1910.18 1842.61 1907.31 Q1840 1904.45 1835.67 1904.45 Q1830.77 1904.45 1827.81 1907.22 Q1824.88 1909.99 1824.43 1915.02 L1845.31 1914.99 Z" fill="#000000" fill-rule="evenodd" fill-opacity="1" /><path clip-path="url(#clip250)" d="M1888.54 1907.19 Q1890.73 1903.24 1893.79 1901.36 Q1896.84 1899.48 1900.98 1899.48 Q1906.55 1899.48 1909.57 1903.4 Q1912.6 1907.28 1912.6 1914.48 L1912.6 1935.99 L1906.71 1935.99 L1906.71 1914.67 Q1906.71 1909.54 1904.9 1907.06 Q1903.08 1904.58 1899.36 1904.58 Q1894.81 1904.58 1892.16 1907.6 Q1889.52 1910.62 1889.52 1915.84 L1889.52 1935.99 L1883.63 1935.99 L1883.63 1914.67 Q1883.63 1909.51 1881.82 1907.06 Q1880.01 1904.58 1876.22 1904.58 Q1871.73 1904.58 1869.09 1907.63 Q1866.45 1910.66 1866.45 1915.84 L1866.45 1935.99 L1860.56 1935.99 L1860.56 1900.34 L1866.45 1900.34 L1866.45 1905.88 Q1868.45 1902.6 1871.25 1901.04 Q1874.05 1899.48 1877.9 1899.48 Q1881.79 1899.48 1884.49 1901.46 Q1887.23 1903.43 1888.54 1907.19 Z" fill="#000000" fill-rule="evenodd" fill-opacity="1" /><path clip-path="url(#clip250)" d="M1949.87 1918.2 Q1949.87 1911.74 1947.2 1908.08 Q1944.55 1904.39 1939.91 1904.39 Q1935.26 1904.39 1932.59 1908.08 Q1929.94 1911.74 1929.94 1918.2 Q1929.94 1924.66 1932.59 1928.35 Q1935.26 1932.01 1939.91 1932.01 Q1944.55 1932.01 1947.2 1928.35 Q1949.87 1924.66 1949.87 1918.2 M1929.94 1905.75 Q1931.79 1902.57 1934.59 1901.04 Q1937.42 1899.48 1941.34 1899.48 Q1947.83 1899.48 1951.87 1904.64 Q1955.95 1909.8 1955.95 1918.2 Q1955.95 1926.6 1951.87 1931.76 Q1947.83 1936.91 1941.34 1936.91 Q1937.42 1936.91 1934.59 1935.39 Q1931.79 1933.83 1929.94 1930.64 L1929.94 1935.99 L1924.06 1935.99 L1924.06 1886.47 L1929.94 1886.47 L1929.94 1905.75 Z" fill="#000000" fill-rule="evenodd" fill-opacity="1" /><path clip-path="url(#clip250)" d="M1986.31 1905.82 Q1985.33 1905.25 1984.15 1904.99 Q1983 1904.7 1981.6 1904.7 Q1976.64 1904.7 1973.96 1907.95 Q1971.32 1911.17 1971.32 1917.21 L1971.32 1935.99 L1965.43 1935.99 L1965.43 1900.34 L1971.32 1900.34 L1971.32 1905.88 Q1973.17 1902.64 1976.13 1901.08 Q1979.09 1899.48 1983.32 1899.48 Q1983.93 1899.48 1984.66 1899.58 Q1985.39 1899.64 1986.28 1899.8 L1986.31 1905.82 Z" fill="#000000" fill-rule="evenodd" fill-opacity="1" /><path clip-path="url(#clip250)" d="M2008.66 1918.07 Q2001.56 1918.07 1998.82 1919.7 Q1996.08 1921.32 1996.08 1925.23 Q1996.08 1928.35 1998.12 1930.2 Q2000.19 1932.01 2003.72 1932.01 Q2008.59 1932.01 2011.52 1928.58 Q2014.48 1925.11 2014.48 1919.38 L2014.48 1918.07 L2008.66 1918.07 M2020.34 1915.65 L2020.34 1935.99 L2014.48 1935.99 L2014.48 1930.58 Q2012.48 1933.83 2009.48 1935.39 Q2006.49 1936.91 2002.16 1936.91 Q1996.69 1936.91 1993.44 1933.86 Q1990.23 1930.77 1990.23 1925.62 Q1990.23 1919.6 1994.24 1916.54 Q1998.28 1913.49 2006.27 1913.49 L2014.48 1913.49 L2014.48 1912.92 Q2014.48 1908.87 2011.81 1906.68 Q2009.17 1904.45 2004.36 1904.45 Q2001.3 1904.45 1998.41 1905.18 Q1995.51 1905.91 1992.84 1907.38 L1992.84 1901.97 Q1996.05 1900.73 1999.08 1900.12 Q2002.1 1899.48 2004.96 1899.48 Q2012.7 1899.48 2016.52 1903.49 Q2020.34 1907.51 2020.34 1915.65 Z" fill="#000000" fill-rule="evenodd" fill-opacity="1" /><path clip-path="url(#clip250)" d="M2062.03 1914.48 L2062.03 1935.99 L2056.18 1935.99 L2056.18 1914.67 Q2056.18 1909.61 2054.2 1907.09 Q2052.23 1904.58 2048.28 1904.58 Q2043.54 1904.58 2040.8 1907.6 Q2038.07 1910.62 2038.07 1915.84 L2038.07 1935.99 L2032.18 1935.99 L2032.18 1900.34 L2038.07 1900.34 L2038.07 1905.88 Q2040.17 1902.67 2043 1901.08 Q2045.86 1899.48 2049.59 1899.48 Q2055.73 1899.48 2058.88 1903.3 Q2062.03 1907.09 2062.03 1914.48 Z" fill="#000000" fill-rule="evenodd" fill-opacity="1" /><path clip-path="url(#clip250)" d="M2104.21 1916.7 L2104.21 1919.57 L2077.28 1919.57 Q2077.66 1925.62 2080.91 1928.8 Q2084.19 1931.95 2090.01 1931.95 Q2093.38 1931.95 2096.54 1931.12 Q2099.72 1930.29 2102.84 1928.64 L2102.84 1934.18 Q2099.69 1935.51 2096.38 1936.21 Q2093.07 1936.91 2089.66 1936.91 Q2081.13 1936.91 2076.13 1931.95 Q2071.17 1926.98 2071.17 1918.52 Q2071.17 1909.77 2075.88 1904.64 Q2080.62 1899.48 2088.64 1899.48 Q2095.83 1899.48 2100 1904.13 Q2104.21 1908.75 2104.21 1916.7 M2098.35 1914.99 Q2098.29 1910.18 2095.64 1907.31 Q2093.03 1904.45 2088.71 1904.45 Q2083.8 1904.45 2080.84 1907.22 Q2077.92 1909.99 2077.47 1915.02 L2098.35 1914.99 Z" fill="#000000" fill-rule="evenodd" fill-opacity="1" /><path clip-path="url(#clip250)" d="M2147.05 1935.99 L2128.9 1888.47 L2135.62 1888.47 L2150.68 1928.48 L2165.76 1888.47 L2172.45 1888.47 L2154.34 1935.99 L2147.05 1935.99 Z" fill="#000000" fill-rule="evenodd" fill-opacity="1" /><path clip-path="url(#clip250)" d="M2187.88 1904.45 Q2183.17 1904.45 2180.44 1908.14 Q2177.7 1911.8 2177.7 1918.2 Q2177.7 1924.6 2180.4 1928.29 Q2183.14 1931.95 2187.88 1931.95 Q2192.56 1931.95 2195.3 1928.26 Q2198.04 1924.57 2198.04 1918.2 Q2198.04 1911.87 2195.3 1908.17 Q2192.56 1904.45 2187.88 1904.45 M2187.88 1899.48 Q2195.52 1899.48 2199.88 1904.45 Q2204.24 1909.42 2204.24 1918.2 Q2204.24 1926.95 2199.88 1931.95 Q2195.52 1936.91 2187.88 1936.91 Q2180.21 1936.91 2175.85 1931.95 Q2171.52 1926.95 2171.52 1918.2 Q2171.52 1909.42 2175.85 1904.45 Q2180.21 1899.48 2187.88 1899.48 Z" fill="#000000" fill-rule="evenodd" fill-opacity="1" /><path clip-path="url(#clip250)" d="M2213.95 1886.47 L2219.81 1886.47 L2219.81 1935.99 L2213.95 1935.99 L2213.95 1886.47 Z" fill="#000000" fill-rule="evenodd" fill-opacity="1" /><path clip-path="url(#clip250)" d="M2237.85 1890.22 L2237.85 1900.34 L2249.92 1900.34 L2249.92 1904.9 L2237.85 1904.9 L2237.85 1924.25 Q2237.85 1928.61 2239.03 1929.85 Q2240.24 1931.09 2243.9 1931.09 L2249.92 1931.09 L2249.92 1935.99 L2243.9 1935.99 Q2237.12 1935.99 2234.54 1933.48 Q2231.97 1930.93 2231.97 1924.25 L2231.97 1904.9 L2227.67 1904.9 L2227.67 1900.34 L2231.97 1900.34 L2231.97 1890.22 L2237.85 1890.22 Z" fill="#000000" fill-rule="evenodd" fill-opacity="1" /><path clip-path="url(#clip250)" d="M2273.82 1918.07 Q2266.72 1918.07 2263.98 1919.7 Q2261.25 1921.32 2261.25 1925.23 Q2261.25 1928.35 2263.28 1930.2 Q2265.35 1932.01 2268.89 1932.01 Q2273.76 1932.01 2276.68 1928.58 Q2279.64 1925.11 2279.64 1919.38 L2279.64 1918.07 L2273.82 1918.07 M2285.5 1915.65 L2285.5 1935.99 L2279.64 1935.99 L2279.64 1930.58 Q2277.64 1933.83 2274.65 1935.39 Q2271.66 1936.91 2267.33 1936.91 Q2261.85 1936.91 2258.61 1933.86 Q2255.39 1930.77 2255.39 1925.62 Q2255.39 1919.6 2259.4 1916.54 Q2263.44 1913.49 2271.43 1913.49 L2279.64 1913.49 L2279.64 1912.92 Q2279.64 1908.87 2276.97 1906.68 Q2274.33 1904.45 2269.52 1904.45 Q2266.47 1904.45 2263.57 1905.18 Q2260.67 1905.91 2258 1907.38 L2258 1901.97 Q2261.22 1900.73 2264.24 1900.12 Q2267.26 1899.48 2270.13 1899.48 Q2277.86 1899.48 2281.68 1903.49 Q2285.5 1907.51 2285.5 1915.65 Z" fill="#000000" fill-rule="evenodd" fill-opacity="1" /><path clip-path="url(#clip250)" d="M2321.02 1917.75 Q2321.02 1911.39 2318.38 1907.89 Q2315.77 1904.39 2311.03 1904.39 Q2306.32 1904.39 2303.68 1907.89 Q2301.07 1911.39 2301.07 1917.75 Q2301.07 1924.09 2303.68 1927.59 Q2306.32 1931.09 2311.03 1931.09 Q2315.77 1931.09 2318.38 1927.59 Q2321.02 1924.09 2321.02 1917.75 M2326.88 1931.57 Q2326.88 1940.67 2322.84 1945.09 Q2318.79 1949.55 2310.45 1949.55 Q2307.37 1949.55 2304.63 1949.07 Q2301.89 1948.63 2299.31 1947.67 L2299.31 1941.98 Q2301.89 1943.38 2304.41 1944.04 Q2306.92 1944.71 2309.53 1944.71 Q2315.29 1944.71 2318.16 1941.69 Q2321.02 1938.7 2321.02 1932.62 L2321.02 1929.72 Q2319.21 1932.87 2316.37 1934.43 Q2313.54 1935.99 2309.6 1935.99 Q2303.04 1935.99 2299.03 1930.99 Q2295.02 1926 2295.02 1917.75 Q2295.02 1909.48 2299.03 1904.48 Q2303.04 1899.48 2309.6 1899.48 Q2313.54 1899.48 2316.37 1901.04 Q2319.21 1902.6 2321.02 1905.75 L2321.02 1900.34 L2326.88 1900.34 L2326.88 1931.57 Z" fill="#000000" fill-rule="evenodd" fill-opacity="1" /><path clip-path="url(#clip250)" d="M2369.43 1916.7 L2369.43 1919.57 L2342.51 1919.57 Q2342.89 1925.62 2346.13 1928.8 Q2349.41 1931.95 2355.24 1931.95 Q2358.61 1931.95 2361.76 1931.12 Q2364.95 1930.29 2368.06 1928.64 L2368.06 1934.18 Q2364.91 1935.51 2361.6 1936.21 Q2358.29 1936.91 2354.89 1936.91 Q2346.36 1936.91 2341.36 1931.95 Q2336.39 1926.98 2336.39 1918.52 Q2336.39 1909.77 2341.11 1904.64 Q2345.85 1899.48 2353.87 1899.48 Q2361.06 1899.48 2365.23 1904.13 Q2369.43 1908.75 2369.43 1916.7 M2363.58 1914.99 Q2363.51 1910.18 2360.87 1907.31 Q2358.26 1904.45 2353.93 1904.45 Q2349.03 1904.45 2346.07 1907.22 Q2343.14 1909.99 2342.7 1915.02 L2363.58 1914.99 Z" fill="#000000" fill-rule="evenodd" fill-opacity="1" /><polyline clip-path="url(#clip252)" style="stroke:#000000; stroke-linecap:round; stroke-linejoin:round; stroke-width:2; stroke-opacity:0.1; fill:none" points="
  341.368,1821.37 3792.76,1821.37 
  "/>
<polyline clip-path="url(#clip252)" style="stroke:#000000; stroke-linecap:round; stroke-linejoin:round; stroke-width:2; stroke-opacity:0.1; fill:none" points="
  341.368,108.352 3792.76,108.352 
  "/>
<polyline clip-path="url(#clip250)" style="stroke:#000000; stroke-linecap:round; stroke-linejoin:round; stroke-width:4; stroke-opacity:1; fill:none" points="
  341.368,1821.37 341.368,108.352 
  "/>
<polyline clip-path="url(#clip250)" style="stroke:#000000; stroke-linecap:round; stroke-linejoin:round; stroke-width:4; stroke-opacity:1; fill:none" points="
  341.368,1821.37 360.265,1821.37 
  "/>
<polyline clip-path="url(#clip250)" style="stroke:#000000; stroke-linecap:round; stroke-linejoin:round; stroke-width:4; stroke-opacity:1; fill:none" points="
  341.368,108.352 360.265,108.352 
  "/>
<path clip-path="url(#clip250)" d="M66.0374 92.2064 L66.0374 96.7665 Q63.3754 95.4934 61.0143 94.8684 Q58.6532 94.2434 56.4541 94.2434 Q52.6347 94.2434 50.5513 95.7249 Q48.4912 97.2064 48.4912 99.9378 Q48.4912 102.229 49.8569 103.41 Q51.2458 104.567 55.0884 105.285 L57.9124 105.864 Q63.1439 106.859 65.6207 109.382 Q68.1207 111.882 68.1207 116.095 Q68.1207 121.118 64.7411 123.711 Q61.3846 126.303 54.88 126.303 Q52.4263 126.303 49.6486 125.748 Q46.894 125.192 43.931 124.104 L43.931 119.29 Q46.7782 120.887 49.5097 121.697 Q52.2412 122.507 54.88 122.507 Q58.8846 122.507 61.0606 120.933 Q63.2365 119.359 63.2365 116.442 Q63.2365 113.896 61.6624 112.461 Q60.1115 111.026 56.5467 110.308 L53.6995 109.753 Q48.468 108.711 46.1301 106.489 Q43.7921 104.266 43.7921 100.308 Q43.7921 95.7249 47.0097 93.086 Q50.2504 90.4471 55.9217 90.4471 Q58.3522 90.4471 60.8754 90.8869 Q63.3985 91.3268 66.0374 92.2064 Z" fill="#000000" fill-rule="evenodd" fill-opacity="1" /><path clip-path="url(#clip250)" d="M87.0095 112.6 Q81.8475 112.6 79.8567 113.78 Q77.866 114.961 77.866 117.808 Q77.866 120.077 79.3475 121.419 Q80.8521 122.739 83.4215 122.739 Q86.9632 122.739 89.0928 120.239 Q91.2456 117.716 91.2456 113.549 L91.2456 112.6 L87.0095 112.6 M95.5048 110.841 L95.5048 125.632 L91.2456 125.632 L91.2456 121.697 Q89.7872 124.058 87.6113 125.192 Q85.4354 126.303 82.2873 126.303 Q78.3058 126.303 75.9447 124.081 Q73.6068 121.836 73.6068 118.086 Q73.6068 113.711 76.5234 111.489 Q79.4632 109.266 85.2734 109.266 L91.2456 109.266 L91.2456 108.85 Q91.2456 105.91 89.3011 104.313 Q87.3799 102.692 83.8845 102.692 Q81.6623 102.692 79.5558 103.225 Q77.4494 103.757 75.5049 104.822 L75.5049 100.887 Q77.8429 99.9841 80.0419 99.5443 Q82.241 99.0813 84.3243 99.0813 Q89.9493 99.0813 92.727 101.998 Q95.5048 104.915 95.5048 110.841 Z" fill="#000000" fill-rule="evenodd" fill-opacity="1" /><path clip-path="url(#clip250)" d="M108.491 92.3453 L108.491 99.7063 L117.264 99.7063 L117.264 103.017 L108.491 103.017 L108.491 117.091 Q108.491 120.262 109.347 121.165 Q110.227 122.067 112.889 122.067 L117.264 122.067 L117.264 125.632 L112.889 125.632 Q107.958 125.632 106.083 123.803 Q104.208 121.952 104.208 117.091 L104.208 103.017 L101.083 103.017 L101.083 99.7063 L104.208 99.7063 L104.208 92.3453 L108.491 92.3453 Z" fill="#000000" fill-rule="evenodd" fill-opacity="1" /><path clip-path="url(#clip250)" d="M122.426 115.401 L122.426 99.7063 L126.685 99.7063 L126.685 115.239 Q126.685 118.919 128.12 120.771 Q129.556 122.6 132.426 122.6 Q135.875 122.6 137.866 120.401 Q139.88 118.202 139.88 114.405 L139.88 99.7063 L144.139 99.7063 L144.139 125.632 L139.88 125.632 L139.88 121.651 Q138.329 124.012 136.268 125.169 Q134.231 126.303 131.523 126.303 Q127.056 126.303 124.741 123.526 Q122.426 120.748 122.426 115.401 M133.143 99.0813 L133.143 99.0813 Z" fill="#000000" fill-rule="evenodd" fill-opacity="1" /><path clip-path="url(#clip250)" d="M167.935 103.688 Q167.217 103.271 166.361 103.086 Q165.528 102.878 164.509 102.878 Q160.898 102.878 158.954 105.239 Q157.032 107.577 157.032 111.975 L157.032 125.632 L152.75 125.632 L152.75 99.7063 L157.032 99.7063 L157.032 103.734 Q158.375 101.373 160.528 100.239 Q162.68 99.0813 165.759 99.0813 Q166.199 99.0813 166.731 99.1508 Q167.264 99.1971 167.912 99.3128 L167.935 103.688 Z" fill="#000000" fill-rule="evenodd" fill-opacity="1" /><path clip-path="url(#clip250)" d="M184.185 112.6 Q179.023 112.6 177.032 113.78 Q175.041 114.961 175.041 117.808 Q175.041 120.077 176.523 121.419 Q178.028 122.739 180.597 122.739 Q184.139 122.739 186.268 120.239 Q188.421 117.716 188.421 113.549 L188.421 112.6 L184.185 112.6 M192.68 110.841 L192.68 125.632 L188.421 125.632 L188.421 121.697 Q186.963 124.058 184.787 125.192 Q182.611 126.303 179.463 126.303 Q175.481 126.303 173.12 124.081 Q170.782 121.836 170.782 118.086 Q170.782 113.711 173.699 111.489 Q176.639 109.266 182.449 109.266 L188.421 109.266 L188.421 108.85 Q188.421 105.91 186.477 104.313 Q184.555 102.692 181.06 102.692 Q178.838 102.692 176.731 103.225 Q174.625 103.757 172.68 104.822 L172.68 100.887 Q175.018 99.9841 177.217 99.5443 Q179.416 99.0813 181.5 99.0813 Q187.125 99.0813 189.902 101.998 Q192.68 104.915 192.68 110.841 Z" fill="#000000" fill-rule="evenodd" fill-opacity="1" /><path clip-path="url(#clip250)" d="M205.666 92.3453 L205.666 99.7063 L214.439 99.7063 L214.439 103.017 L205.666 103.017 L205.666 117.091 Q205.666 120.262 206.523 121.165 Q207.402 122.067 210.064 122.067 L214.439 122.067 L214.439 125.632 L210.064 125.632 Q205.134 125.632 203.259 123.803 Q201.384 121.952 201.384 117.091 L201.384 103.017 L198.259 103.017 L198.259 99.7063 L201.384 99.7063 L201.384 92.3453 L205.666 92.3453 Z" fill="#000000" fill-rule="evenodd" fill-opacity="1" /><path clip-path="url(#clip250)" d="M220.041 99.7063 L224.3 99.7063 L224.3 125.632 L220.041 125.632 L220.041 99.7063 M220.041 89.6138 L224.3 89.6138 L224.3 95.0073 L220.041 95.0073 L220.041 89.6138 Z" fill="#000000" fill-rule="evenodd" fill-opacity="1" /><path clip-path="url(#clip250)" d="M243.259 102.692 Q239.833 102.692 237.842 105.378 Q235.851 108.04 235.851 112.692 Q235.851 117.345 237.819 120.03 Q239.81 122.692 243.259 122.692 Q246.661 122.692 248.652 120.007 Q250.643 117.322 250.643 112.692 Q250.643 108.086 248.652 105.401 Q246.661 102.692 243.259 102.692 M243.259 99.0813 Q248.814 99.0813 251.985 102.692 Q255.157 106.304 255.157 112.692 Q255.157 119.058 251.985 122.692 Q248.814 126.303 243.259 126.303 Q237.68 126.303 234.509 122.692 Q231.361 119.058 231.361 112.692 Q231.361 106.304 234.509 102.692 Q237.68 99.0813 243.259 99.0813 Z" fill="#000000" fill-rule="evenodd" fill-opacity="1" /><path clip-path="url(#clip250)" d="M283.768 109.984 L283.768 125.632 L279.508 125.632 L279.508 110.123 Q279.508 106.442 278.073 104.614 Q276.638 102.785 273.768 102.785 Q270.319 102.785 268.328 104.984 Q266.337 107.183 266.337 110.979 L266.337 125.632 L262.055 125.632 L262.055 99.7063 L266.337 99.7063 L266.337 103.734 Q267.865 101.396 269.925 100.239 Q272.008 99.0813 274.717 99.0813 Q279.184 99.0813 281.476 101.859 Q283.768 104.614 283.768 109.984 Z" fill="#000000" fill-rule="evenodd" fill-opacity="1" /><path clip-path="url(#clip250)" d="M1781.33 44.2197 Q1783.96 45.1109 1786.44 48.0275 Q1788.95 50.9442 1791.46 56.0483 L1799.76 72.576 L1790.97 72.576 L1783.24 57.061 Q1780.24 50.9847 1777.4 48.9997 Q1774.61 47.0148 1769.75 47.0148 L1760.83 47.0148 L1760.83 72.576 L1752.65 72.576 L1752.65 12.096 L1771.12 12.096 Q1781.49 12.096 1786.6 16.4305 Q1791.7 20.7649 1791.7 29.5149 Q1791.7 35.2267 1789.03 38.994 Q1786.39 42.7613 1781.33 44.2197 M1760.83 18.8205 L1760.83 40.2903 L1771.12 40.2903 Q1777.04 40.2903 1780.03 37.5762 Q1783.07 34.8216 1783.07 29.5149 Q1783.07 24.2082 1780.03 21.5346 Q1777.04 18.8205 1771.12 18.8205 L1760.83 18.8205 Z" fill="#000000" fill-rule="evenodd" fill-opacity="1" /><path clip-path="url(#clip250)" d="M1845.05 48.0275 L1845.05 51.6733 L1810.78 51.6733 Q1811.27 59.3701 1815.4 63.421 Q1819.57 67.4314 1826.98 67.4314 Q1831.28 67.4314 1835.29 66.3781 Q1839.34 65.3249 1843.31 63.2184 L1843.31 70.267 Q1839.3 71.9684 1835.09 72.8596 Q1830.87 73.7508 1826.54 73.7508 Q1815.68 73.7508 1809.32 67.4314 Q1803 61.1119 1803 50.3365 Q1803 39.1965 1809 32.6746 Q1815.03 26.1121 1825.24 26.1121 Q1834.4 26.1121 1839.7 32.0264 Q1845.05 37.9003 1845.05 48.0275 M1837.6 45.84 Q1837.52 39.7232 1834.16 36.0774 Q1830.83 32.4315 1825.32 32.4315 Q1819.09 32.4315 1815.32 35.9558 Q1811.59 39.4801 1811.02 45.8805 L1837.6 45.84 Z" fill="#000000" fill-rule="evenodd" fill-opacity="1" /><path clip-path="url(#clip250)" d="M1857.61 12.096 L1865.79 12.096 L1865.79 65.6895 L1895.24 65.6895 L1895.24 72.576 L1857.61 72.576 L1857.61 12.096 Z" fill="#000000" fill-rule="evenodd" fill-opacity="1" /><path clip-path="url(#clip250)" d="M1901.28 54.671 L1901.28 27.2059 L1908.73 27.2059 L1908.73 54.3874 Q1908.73 60.8284 1911.24 64.0691 Q1913.76 67.2693 1918.78 67.2693 Q1924.81 67.2693 1928.3 63.421 Q1931.82 59.5726 1931.82 52.9291 L1931.82 27.2059 L1939.28 27.2059 L1939.28 72.576 L1931.82 72.576 L1931.82 65.6084 Q1929.11 69.7404 1925.5 71.7658 Q1921.94 73.7508 1917.2 73.7508 Q1909.38 73.7508 1905.33 68.8897 Q1901.28 64.0286 1901.28 54.671 M1920.03 26.1121 L1920.03 26.1121 Z" fill="#000000" fill-rule="evenodd" fill-opacity="1" /><path clip-path="url(#clip250)" d="M2001.54 20.1573 L1990.44 50.2555 L2012.68 50.2555 L2001.54 20.1573 M1996.92 12.096 L2006.2 12.096 L2029.25 72.576 L2020.74 72.576 L2015.23 57.061 L1987.97 57.061 L1982.46 72.576 L1973.83 72.576 L1996.92 12.096 Z" fill="#000000" fill-rule="evenodd" fill-opacity="1" /><path clip-path="url(#clip250)" d="M2068.95 28.9478 L2068.95 35.9153 Q2065.79 34.1734 2062.59 33.3227 Q2059.43 32.4315 2056.19 32.4315 Q2048.93 32.4315 2044.92 37.0496 Q2040.91 41.6271 2040.91 49.9314 Q2040.91 58.2358 2044.92 62.8538 Q2048.93 67.4314 2056.19 67.4314 Q2059.43 67.4314 2062.59 66.5807 Q2065.79 65.6895 2068.95 63.9476 L2068.95 70.8341 Q2065.83 72.2924 2062.46 73.0216 Q2059.14 73.7508 2055.37 73.7508 Q2045.13 73.7508 2039.09 67.3098 Q2033.05 60.8689 2033.05 49.9314 Q2033.05 38.832 2039.13 32.472 Q2045.25 26.1121 2055.86 26.1121 Q2059.3 26.1121 2062.59 26.8413 Q2065.87 27.5299 2068.95 28.9478 Z" fill="#000000" fill-rule="evenodd" fill-opacity="1" /><path clip-path="url(#clip250)" d="M2089.28 14.324 L2089.28 27.2059 L2104.63 27.2059 L2104.63 32.9987 L2089.28 32.9987 L2089.28 57.6282 Q2089.28 63.1779 2090.78 64.7578 Q2092.32 66.3376 2096.98 66.3376 L2104.63 66.3376 L2104.63 72.576 L2096.98 72.576 Q2088.35 72.576 2085.07 69.3758 Q2081.79 66.1351 2081.79 57.6282 L2081.79 32.9987 L2076.32 32.9987 L2076.32 27.2059 L2081.79 27.2059 L2081.79 14.324 L2089.28 14.324 Z" fill="#000000" fill-rule="evenodd" fill-opacity="1" /><path clip-path="url(#clip250)" d="M2114.44 27.2059 L2121.89 27.2059 L2121.89 72.576 L2114.44 72.576 L2114.44 27.2059 M2114.44 9.54393 L2121.89 9.54393 L2121.89 18.9825 L2114.44 18.9825 L2114.44 9.54393 Z" fill="#000000" fill-rule="evenodd" fill-opacity="1" /><path clip-path="url(#clip250)" d="M2132.14 27.2059 L2140.04 27.2059 L2154.22 65.2844 L2168.4 27.2059 L2176.29 27.2059 L2159.28 72.576 L2149.15 72.576 L2132.14 27.2059 Z" fill="#000000" fill-rule="evenodd" fill-opacity="1" /><path clip-path="url(#clip250)" d="M2207.2 49.7694 Q2198.17 49.7694 2194.69 51.8354 Q2191.2 53.9013 2191.2 58.8839 Q2191.2 62.8538 2193.79 65.2034 Q2196.43 67.5124 2200.92 67.5124 Q2207.12 67.5124 2210.85 63.1374 Q2214.62 58.7219 2214.62 51.4303 L2214.62 49.7694 L2207.2 49.7694 M2222.07 46.6907 L2222.07 72.576 L2214.62 72.576 L2214.62 65.6895 Q2212.06 69.8214 2208.26 71.8063 Q2204.45 73.7508 2198.94 73.7508 Q2191.97 73.7508 2187.84 69.8619 Q2183.75 65.9325 2183.75 59.3701 Q2183.75 51.7138 2188.85 47.825 Q2194 43.9361 2204.16 43.9361 L2214.62 43.9361 L2214.62 43.2069 Q2214.62 38.0623 2211.21 35.2672 Q2207.85 32.4315 2201.73 32.4315 Q2197.85 32.4315 2194.16 33.3632 Q2190.47 34.295 2187.07 36.1584 L2187.07 29.2718 Q2191.16 27.692 2195.01 26.9223 Q2198.86 26.1121 2202.5 26.1121 Q2212.35 26.1121 2217.21 31.2163 Q2222.07 36.3204 2222.07 46.6907 Z" fill="#000000" fill-rule="evenodd" fill-opacity="1" /><path clip-path="url(#clip250)" d="M2244.8 14.324 L2244.8 27.2059 L2260.15 27.2059 L2260.15 32.9987 L2244.8 32.9987 L2244.8 57.6282 Q2244.8 63.1779 2246.29 64.7578 Q2247.83 66.3376 2252.49 66.3376 L2260.15 66.3376 L2260.15 72.576 L2252.49 72.576 Q2243.86 72.576 2240.58 69.3758 Q2237.3 66.1351 2237.3 57.6282 L2237.3 32.9987 L2231.83 32.9987 L2231.83 27.2059 L2237.3 27.2059 L2237.3 14.324 L2244.8 14.324 Z" fill="#000000" fill-rule="evenodd" fill-opacity="1" /><path clip-path="url(#clip250)" d="M2269.95 27.2059 L2277.41 27.2059 L2277.41 72.576 L2269.95 72.576 L2269.95 27.2059 M2269.95 9.54393 L2277.41 9.54393 L2277.41 18.9825 L2269.95 18.9825 L2269.95 9.54393 Z" fill="#000000" fill-rule="evenodd" fill-opacity="1" /><path clip-path="url(#clip250)" d="M2310.58 32.4315 Q2304.59 32.4315 2301.1 37.1306 Q2297.62 41.7891 2297.62 49.9314 Q2297.62 58.0738 2301.06 62.7728 Q2304.55 67.4314 2310.58 67.4314 Q2316.54 67.4314 2320.02 62.7323 Q2323.5 58.0333 2323.5 49.9314 Q2323.5 41.8701 2320.02 37.1711 Q2316.54 32.4315 2310.58 32.4315 M2310.58 26.1121 Q2320.3 26.1121 2325.85 32.4315 Q2331.4 38.7509 2331.4 49.9314 Q2331.4 61.0714 2325.85 67.4314 Q2320.3 73.7508 2310.58 73.7508 Q2300.82 73.7508 2295.27 67.4314 Q2289.76 61.0714 2289.76 49.9314 Q2289.76 38.7509 2295.27 32.4315 Q2300.82 26.1121 2310.58 26.1121 Z" fill="#000000" fill-rule="evenodd" fill-opacity="1" /><path clip-path="url(#clip250)" d="M2381.47 45.1919 L2381.47 72.576 L2374.02 72.576 L2374.02 45.4349 Q2374.02 38.994 2371.51 35.7938 Q2369 32.5936 2363.97 32.5936 Q2357.94 32.5936 2354.45 36.4419 Q2350.97 40.2903 2350.97 46.9338 L2350.97 72.576 L2343.48 72.576 L2343.48 27.2059 L2350.97 27.2059 L2350.97 34.2544 Q2353.64 30.163 2357.25 28.1376 Q2360.89 26.1121 2365.63 26.1121 Q2373.45 26.1121 2377.46 30.9732 Q2381.47 35.7938 2381.47 45.1919 Z" fill="#000000" fill-rule="evenodd" fill-opacity="1" /><polyline clip-path="url(#clip252)" style="stroke:#009af9; stroke-linecap:round; stroke-linejoin:round; stroke-width:4; stroke-opacity:1; fill:none" points="
  439.048,1821.37 440.677,1821.37 442.305,1821.37 443.933,1821.37 445.561,1821.37 447.189,1821.37 448.817,1821.37 450.445,1821.37 452.073,1821.37 453.701,1821.37 
  455.329,1821.37 456.957,1821.37 458.585,1821.37 460.213,1821.37 461.841,1821.37 463.469,1821.37 465.097,1821.37 466.725,1821.37 468.353,1821.37 469.981,1821.37 
  471.609,1821.37 473.237,1821.37 474.865,1821.37 476.493,1821.37 478.121,1821.37 479.749,1821.37 481.377,1821.37 483.005,1821.37 484.633,1821.37 486.261,1821.37 
  487.889,1821.37 489.517,1821.37 491.145,1821.37 492.773,1821.37 494.401,1821.37 496.029,1821.37 497.657,1821.37 499.285,1821.37 500.913,1821.37 502.541,1821.37 
  504.169,1821.37 505.797,1821.37 507.425,1821.37 509.053,1821.37 510.681,1821.37 512.309,1821.37 513.937,1821.37 515.565,1821.37 517.193,1821.37 518.821,1821.37 
  520.449,1821.37 522.077,1821.37 523.705,1821.37 525.333,1821.37 526.961,1821.37 528.589,1821.37 530.217,1821.37 531.845,1821.37 533.473,1821.37 535.101,1821.37 
  536.729,1821.37 538.357,1821.37 539.985,1821.37 541.613,1821.37 543.241,1821.37 544.869,1821.37 546.497,1821.37 548.125,1821.37 549.753,1821.37 551.381,1821.37 
  553.009,1821.37 554.637,1821.37 556.265,1821.37 557.893,1821.37 559.521,1821.37 561.149,1821.37 562.778,1821.37 564.406,1821.37 566.034,1821.37 567.662,1821.37 
  569.29,1821.37 570.918,1821.37 572.546,1821.37 574.174,1821.37 575.802,1821.37 577.43,1821.37 579.058,1821.37 580.686,1821.37 582.314,1821.37 583.942,1821.37 
  585.57,1821.37 587.198,1821.37 588.826,1821.37 590.454,1821.37 592.082,1821.37 593.71,1821.37 595.338,1821.37 596.966,1821.37 598.594,1821.37 600.222,1821.37 
  601.85,1821.37 603.478,1821.37 605.106,1821.37 606.734,1821.37 608.362,1821.37 609.99,1821.37 611.618,1821.37 613.246,1821.37 614.874,1821.37 616.502,1821.37 
  618.13,1821.37 619.758,1821.37 621.386,1821.37 623.014,1821.37 624.642,1821.37 626.27,1821.37 627.898,1821.37 629.526,1821.37 631.154,1821.37 632.782,1821.37 
  634.41,1821.37 636.038,1821.37 637.666,1821.37 639.294,1821.37 640.922,1821.37 642.55,1821.37 644.178,1821.37 645.806,1821.37 647.434,1821.37 649.062,1821.37 
  650.69,1821.37 652.318,1821.37 653.946,1821.37 655.574,1821.37 657.202,1821.37 658.83,1821.37 660.458,1821.37 662.086,1821.37 663.714,1821.37 665.342,1821.37 
  666.97,1821.37 668.598,1821.37 670.226,1821.37 671.854,1821.37 673.482,1821.37 675.11,1821.37 676.738,1821.37 678.366,1821.37 679.994,1821.37 681.622,1821.37 
  683.25,1821.37 684.879,1821.37 686.507,1821.37 688.135,1821.37 689.763,1821.37 691.391,1821.37 693.019,1821.37 694.647,1821.37 696.275,1821.37 697.903,1821.37 
  699.531,1821.37 701.159,1821.37 702.787,1821.37 704.415,1821.37 706.043,1821.37 707.671,1821.37 709.299,1821.37 710.927,1821.37 712.555,1821.37 714.183,1821.37 
  715.811,1821.37 717.439,1821.37 719.067,1821.37 720.695,1821.37 722.323,1821.37 723.951,1821.37 725.579,1821.37 727.207,1821.37 728.835,1821.37 730.463,1821.37 
  732.091,1821.37 733.719,1821.37 735.347,1821.37 736.975,1821.37 738.603,1821.37 740.231,1821.37 741.859,1821.37 743.487,1821.37 745.115,1821.37 746.743,1821.37 
  748.371,1821.37 749.999,1821.37 751.627,1821.37 753.255,1821.37 754.883,1821.37 756.511,1821.37 758.139,1821.37 759.767,1821.37 761.395,1821.37 763.023,1821.37 
  764.651,1821.37 766.279,1821.37 767.907,1821.37 769.535,1821.37 771.163,1821.37 772.791,1821.37 774.419,1821.37 776.047,1821.37 777.675,1821.37 779.303,1821.37 
  780.931,1821.37 782.559,1821.37 784.187,1821.37 785.815,1821.37 787.443,1821.37 789.071,1821.37 790.699,1821.37 792.327,1821.37 793.955,1821.37 795.583,1821.37 
  797.211,1821.37 798.839,1821.37 800.467,1821.37 802.095,1821.37 803.723,1821.37 805.351,1821.37 806.979,1821.37 808.608,1821.37 810.236,1821.37 811.864,1821.37 
  813.492,1821.37 815.12,1821.37 816.748,1821.37 818.376,1821.37 820.004,1821.37 821.632,1821.37 823.26,1821.37 824.888,1821.37 826.516,1821.37 828.144,1821.37 
  829.772,1821.37 831.4,1821.37 833.028,1821.37 834.656,1821.37 836.284,1821.37 837.912,1821.37 839.54,1821.37 841.168,1821.37 842.796,1821.37 844.424,1821.37 
  846.052,1821.37 847.68,1821.37 849.308,1821.37 850.936,1821.37 852.564,1821.37 854.192,1821.37 855.82,1821.37 857.448,1821.37 859.076,1821.37 860.704,1821.37 
  862.332,1821.37 863.96,1821.37 865.588,1821.37 867.216,1821.37 868.844,1821.37 870.472,1821.37 872.1,1821.37 873.728,1821.37 875.356,1821.37 876.984,1821.37 
  878.612,1821.37 880.24,1821.37 881.868,1821.37 883.496,1821.37 885.124,1821.37 886.752,1821.37 888.38,1821.37 890.008,1821.37 891.636,1821.37 893.264,1821.37 
  894.892,1821.37 896.52,1821.37 898.148,1821.37 899.776,1821.37 901.404,1821.37 903.032,1821.37 904.66,1821.37 906.288,1821.37 907.916,1821.37 909.544,1821.37 
  911.172,1821.37 912.8,1821.37 914.428,1821.37 916.056,1821.37 917.684,1821.37 919.312,1821.37 920.94,1821.37 922.568,1821.37 924.196,1821.37 925.824,1821.37 
  927.452,1821.37 929.08,1821.37 930.709,1821.37 932.337,1821.37 933.965,1821.37 935.593,1821.37 937.221,1821.37 938.849,1821.37 940.477,1821.37 942.105,1821.37 
  943.733,1821.37 945.361,1821.37 946.989,1821.37 948.617,1821.37 950.245,1821.37 951.873,1821.37 953.501,1821.37 955.129,1821.37 956.757,1821.37 958.385,1821.37 
  960.013,1821.37 961.641,1821.37 963.269,1821.37 964.897,1821.37 966.525,1821.37 968.153,1821.37 969.781,1821.37 971.409,1821.37 973.037,1821.37 974.665,1821.37 
  976.293,1821.37 977.921,1821.37 979.549,1821.37 981.177,1821.37 982.805,1821.37 984.433,1821.37 986.061,1821.37 987.689,1821.37 989.317,1821.37 990.945,1821.37 
  992.573,1821.37 994.201,1821.37 995.829,1821.37 997.457,1821.37 999.085,1821.37 1000.71,1821.37 1002.34,1821.37 1003.97,1821.37 1005.6,1821.37 1007.23,1821.37 
  1008.85,1821.37 1010.48,1821.37 1012.11,1821.37 1013.74,1821.37 1015.37,1821.37 1016.99,1821.37 1018.62,1821.37 1020.25,1821.37 1021.88,1821.37 1023.51,1821.37 
  1025.13,1821.37 1026.76,1821.37 1028.39,1821.37 1030.02,1821.37 1031.65,1821.37 1033.27,1821.37 1034.9,1821.37 1036.53,1821.37 1038.16,1821.37 1039.79,1821.37 
  1041.41,1821.37 1043.04,1821.37 1044.67,1821.37 1046.3,1821.37 1047.93,1821.37 1049.55,1821.37 1051.18,1821.37 1052.81,1821.37 1054.44,1821.37 1056.07,1821.37 
  1057.69,1821.37 1059.32,1821.37 1060.95,1821.37 1062.58,1821.37 1064.21,1821.37 1065.83,1821.37 1067.46,1821.37 1069.09,1821.37 1070.72,1821.37 1072.35,1821.37 
  1073.97,1821.37 1075.6,1821.37 1077.23,1821.37 1078.86,1821.37 1080.49,1821.37 1082.11,1821.37 1083.74,1821.37 1085.37,1821.37 1087,1821.37 1088.63,1821.37 
  1090.25,1821.37 1091.88,1821.37 1093.51,1821.37 1095.14,1821.37 1096.77,1821.37 1098.39,1821.37 1100.02,1821.37 1101.65,1821.37 1103.28,1821.37 1104.91,1821.37 
  1106.53,1821.37 1108.16,1821.37 1109.79,1821.37 1111.42,1821.37 1113.05,1821.37 1114.67,1821.37 1116.3,1821.37 1117.93,1821.37 1119.56,1821.37 1121.19,1821.37 
  1122.81,1821.37 1124.44,1821.37 1126.07,1821.37 1127.7,1821.37 1129.33,1821.37 1130.95,1821.37 1132.58,1821.37 1134.21,1821.37 1135.84,1821.37 1137.47,1821.37 
  1139.09,1821.37 1140.72,1821.37 1142.35,1821.37 1143.98,1821.37 1145.61,1821.37 1147.23,1821.37 1148.86,1821.37 1150.49,1821.37 1152.12,1821.37 1153.75,1821.37 
  1155.37,1821.37 1157,1821.37 1158.63,1821.37 1160.26,1821.37 1161.89,1821.37 1163.51,1821.37 1165.14,1821.37 1166.77,1821.37 1168.4,1821.37 1170.03,1821.37 
  1171.65,1821.37 1173.28,1821.37 1174.91,1821.37 1176.54,1821.37 1178.17,1821.37 1179.79,1821.37 1181.42,1821.37 1183.05,1821.37 1184.68,1821.37 1186.31,1821.37 
  1187.93,1821.37 1189.56,1821.37 1191.19,1821.37 1192.82,1821.37 1194.45,1821.37 1196.07,1821.37 1197.7,1821.37 1199.33,1821.37 1200.96,1821.37 1202.59,1821.37 
  1204.21,1821.37 1205.84,1821.37 1207.47,1821.37 1209.1,1821.37 1210.73,1821.37 1212.35,1821.37 1213.98,1821.37 1215.61,1821.37 1217.24,1821.37 1218.87,1821.37 
  1220.49,1821.37 1222.12,1821.37 1223.75,1821.37 1225.38,1821.37 1227.01,1821.37 1228.63,1821.37 1230.26,1821.37 1231.89,1821.37 1233.52,1821.37 1235.15,1821.37 
  1236.78,1821.37 1238.4,1821.37 1240.03,1821.37 1241.66,1821.37 1243.29,1821.37 1244.92,1821.37 1246.54,1821.37 1248.17,1821.37 1249.8,1821.37 1251.43,1821.37 
  1253.06,1821.37 1254.68,1821.37 1256.31,1821.37 1257.94,1821.37 1259.57,1821.37 1261.2,1821.37 1262.82,1821.37 1264.45,1821.37 1266.08,1821.37 1267.71,1821.37 
  1269.34,1821.37 1270.96,1821.37 1272.59,1821.37 1274.22,1821.37 1275.85,1821.37 1277.48,1821.37 1279.1,1821.37 1280.73,1821.37 1282.36,1821.37 1283.99,1821.37 
  1285.62,1821.37 1287.24,1821.37 1288.87,1821.37 1290.5,1821.37 1292.13,1821.37 1293.76,1821.37 1295.38,1821.37 1297.01,1821.37 1298.64,1821.37 1300.27,1821.37 
  1301.9,1821.37 1303.52,1821.37 1305.15,1821.37 1306.78,1821.37 1308.41,1821.37 1310.04,1821.37 1311.66,1821.37 1313.29,1821.37 1314.92,1821.37 1316.55,1821.37 
  1318.18,1821.37 1319.8,1821.37 1321.43,1821.37 1323.06,1821.37 1324.69,1821.37 1326.32,1821.37 1327.94,1821.37 1329.57,1821.37 1331.2,1821.37 1332.83,1821.37 
  1334.46,1821.37 1336.08,1821.37 1337.71,1821.37 1339.34,1821.37 1340.97,1821.37 1342.6,1821.37 1344.22,1821.37 1345.85,1821.37 1347.48,1821.37 1349.11,1821.37 
  1350.74,1821.37 1352.36,1821.37 1353.99,1821.37 1355.62,1821.37 1357.25,1821.37 1358.88,1821.37 1360.5,1821.37 1362.13,1821.37 1363.76,1821.37 1365.39,1821.37 
  1367.02,1821.37 1368.64,1821.37 1370.27,1821.37 1371.9,1821.37 1373.53,1821.37 1375.16,1821.37 1376.78,1821.37 1378.41,1821.37 1380.04,1821.37 1381.67,1821.37 
  1383.3,1821.37 1384.92,1821.37 1386.55,1821.37 1388.18,1821.37 1389.81,1821.37 1391.44,1821.37 1393.06,1821.37 1394.69,1821.37 1396.32,1821.37 1397.95,1821.37 
  1399.58,1821.37 1401.2,1821.37 1402.83,1821.37 1404.46,1821.37 1406.09,1821.37 1407.72,1821.37 1409.34,1821.37 1410.97,1821.37 1412.6,1821.37 1414.23,1821.37 
  1415.86,1821.37 1417.48,1821.37 1419.11,1821.37 1420.74,1821.37 1422.37,1821.37 1424,1821.37 1425.62,1821.37 1427.25,1821.37 1428.88,1821.37 1430.51,1821.37 
  1432.14,1821.37 1433.76,1821.37 1435.39,1821.37 1437.02,1821.37 1438.65,1821.37 1440.28,1821.37 1441.9,1821.37 1443.53,1821.37 1445.16,1821.37 1446.79,1821.37 
  1448.42,1821.37 1450.04,1821.37 1451.67,1821.37 1453.3,1821.37 1454.93,1821.37 1456.56,1821.37 1458.18,1821.37 1459.81,1821.37 1461.44,1821.37 1463.07,1821.37 
  1464.7,1821.37 1466.32,1821.37 1467.95,1821.37 1469.58,1821.37 1471.21,1821.37 1472.84,1821.37 1474.46,1821.37 1476.09,1821.37 1477.72,1821.37 1479.35,1821.37 
  1480.98,1821.37 1482.61,1821.37 1484.23,1821.37 1485.86,1821.37 1487.49,1821.37 1489.12,1821.37 1490.75,1821.37 1492.37,1821.37 1494,1821.37 1495.63,1821.37 
  1497.26,1821.37 1498.89,1821.37 1500.51,1821.37 1502.14,1821.37 1503.77,1821.37 1505.4,1821.37 1507.03,1821.37 1508.65,1821.37 1510.28,1821.37 1511.91,1821.37 
  1513.54,1821.37 1515.17,1821.37 1516.79,1821.37 1518.42,1821.37 1520.05,1821.37 1521.68,1821.37 1523.31,1821.37 1524.93,1821.37 1526.56,1821.37 1528.19,1821.37 
  1529.82,1821.37 1531.45,1821.37 1533.07,1821.37 1534.7,1821.37 1536.33,1821.37 1537.96,1821.37 1539.59,1821.37 1541.21,1821.37 1542.84,1821.37 1544.47,1821.37 
  1546.1,1821.37 1547.73,1821.37 1549.35,1821.37 1550.98,1821.37 1552.61,1821.37 1554.24,1821.37 1555.87,1821.37 1557.49,1821.37 1559.12,1821.37 1560.75,1821.37 
  1562.38,1821.37 1564.01,1821.37 1565.63,1821.37 1567.26,1821.37 1568.89,1821.37 1570.52,1821.37 1572.15,1821.37 1573.77,1821.37 1575.4,1821.37 1577.03,1821.37 
  1578.66,1821.37 1580.29,1821.37 1581.91,1821.37 1583.54,1821.37 1585.17,1821.37 1586.8,1821.37 1588.43,1821.37 1590.05,1821.37 1591.68,1821.37 1593.31,1821.37 
  1594.94,1821.37 1596.57,1821.37 1598.19,1821.37 1599.82,1821.37 1601.45,1821.37 1603.08,1821.37 1604.71,1821.37 1606.33,1821.37 1607.96,1821.37 1609.59,1821.37 
  1611.22,1821.37 1612.85,1821.37 1614.47,1821.37 1616.1,1821.37 1617.73,1821.37 1619.36,1821.37 1620.99,1821.37 1622.61,1821.37 1624.24,1821.37 1625.87,1821.37 
  1627.5,1821.37 1629.13,1821.37 1630.75,1821.37 1632.38,1821.37 1634.01,1821.37 1635.64,1821.37 1637.27,1821.37 1638.89,1821.37 1640.52,1821.37 1642.15,1821.37 
  1643.78,1821.37 1645.41,1821.37 1647.03,1821.37 1648.66,1821.37 1650.29,1821.37 1651.92,1821.37 1653.55,1821.37 1655.17,1821.37 1656.8,1821.37 1658.43,1821.37 
  1660.06,1821.37 1661.69,1821.37 1663.31,1821.37 1664.94,1821.37 1666.57,1821.37 1668.2,1821.37 1669.83,1821.37 1671.45,1821.37 1673.08,1821.37 1674.71,1821.37 
  1676.34,1821.37 1677.97,1821.37 1679.59,1821.37 1681.22,1821.37 1682.85,1821.37 1684.48,1821.37 1686.11,1821.37 1687.73,1821.37 1689.36,1821.37 1690.99,1821.37 
  1692.62,1821.37 1694.25,1821.37 1695.87,1821.37 1697.5,1821.37 1699.13,1821.37 1700.76,1821.37 1702.39,1821.37 1704.01,1821.37 1705.64,1821.37 1707.27,1821.37 
  1708.9,1821.37 1710.53,1821.37 1712.15,1821.37 1713.78,1821.37 1715.41,1821.37 1717.04,1821.37 1718.67,1821.37 1720.29,1821.37 1721.92,1821.37 1723.55,1821.37 
  1725.18,1821.37 1726.81,1821.37 1728.44,1821.37 1730.06,1821.37 1731.69,1821.37 1733.32,1821.37 1734.95,1821.37 1736.58,1821.37 1738.2,1821.37 1739.83,1821.37 
  1741.46,1821.37 1743.09,1821.37 1744.72,1821.37 1746.34,1821.37 1747.97,1821.37 1749.6,1821.37 1751.23,1821.37 1752.86,1821.37 1754.48,1821.37 1756.11,1821.37 
  1757.74,1821.37 1759.37,1821.37 1761,1821.37 1762.62,1821.37 1764.25,1821.37 1765.88,1821.37 1767.51,1821.37 1769.14,1821.37 1770.76,1821.37 1772.39,1821.37 
  1774.02,1821.37 1775.65,1821.37 1777.28,1821.37 1778.9,1821.37 1780.53,1821.37 1782.16,1821.37 1783.79,1821.37 1785.42,1821.37 1787.04,1821.37 1788.67,1821.37 
  1790.3,1821.37 1791.93,1821.37 1793.56,1821.37 1795.18,1821.37 1796.81,1821.37 1798.44,1821.37 1800.07,1821.37 1801.7,1821.37 1803.32,1821.37 1804.95,1821.37 
  1806.58,1821.37 1808.21,1821.37 1809.84,1821.37 1811.46,1821.37 1813.09,1821.37 1814.72,1821.37 1816.35,1821.37 1817.98,1821.37 1819.6,1821.37 1821.23,1821.37 
  1822.86,1821.37 1824.49,1821.37 1826.12,1821.37 1827.74,1821.37 1829.37,1821.37 1831,1821.37 1832.63,1821.37 1834.26,1821.37 1835.88,1821.37 1837.51,1821.37 
  1839.14,1821.37 1840.77,1821.37 1842.4,1821.37 1844.02,1821.37 1845.65,1821.37 1847.28,1821.37 1848.91,1821.37 1850.54,1821.37 1852.16,1821.37 1853.79,1821.37 
  1855.42,1821.37 1857.05,1821.37 1858.68,1821.37 1860.3,1821.37 1861.93,1821.37 1863.56,1821.37 1865.19,1821.37 1866.82,1821.37 1868.44,1821.37 1870.07,1821.37 
  1871.7,1821.37 1873.33,1821.37 1874.96,1821.37 1876.58,1821.37 1878.21,1821.37 1879.84,1821.37 1881.47,1821.37 1883.1,1821.37 1884.72,1821.37 1886.35,1821.37 
  1887.98,1821.37 1889.61,1821.37 1891.24,1821.37 1892.86,1821.37 1894.49,1821.37 1896.12,1821.37 1897.75,1821.37 1899.38,1821.37 1901,1821.37 1902.63,1821.37 
  1904.26,1821.37 1905.89,1821.37 1907.52,1821.37 1909.14,1821.37 1910.77,1821.37 1912.4,1821.37 1914.03,1821.37 1915.66,1821.37 1917.28,1821.37 1918.91,1821.37 
  1920.54,1821.37 1922.17,1821.37 1923.8,1821.37 1925.42,1821.37 1927.05,1821.37 1928.68,1821.37 1930.31,1821.37 1931.94,1821.37 1933.56,1821.37 1935.19,1821.37 
  1936.82,1821.37 1938.45,1821.37 1940.08,1821.37 1941.7,1821.37 1943.33,1821.37 1944.96,1821.37 1946.59,1821.37 1948.22,1821.37 1949.84,1821.37 1951.47,1821.37 
  1953.1,1821.37 1954.73,1821.37 1956.36,1821.37 1957.98,1821.37 1959.61,1821.37 1961.24,1821.37 1962.87,1821.37 1964.5,1821.37 1966.12,1821.37 1967.75,1821.37 
  1969.38,1821.37 1971.01,1821.37 1972.64,1821.37 1974.27,1821.37 1975.89,1821.37 1977.52,1821.37 1979.15,1821.37 1980.78,1821.37 1982.41,1821.37 1984.03,1821.37 
  1985.66,1821.37 1987.29,1821.37 1988.92,1821.37 1990.55,1821.37 1992.17,1821.37 1993.8,1821.37 1995.43,1821.37 1997.06,1821.37 1998.69,1821.37 2000.31,1821.37 
  2001.94,1821.37 2003.57,1821.37 2005.2,1821.37 2006.83,1821.37 2008.45,1821.37 2010.08,1821.37 2011.71,1821.37 2013.34,1821.37 2014.97,1821.37 2016.59,1821.37 
  2018.22,1821.37 2019.85,1821.37 2021.48,1821.37 2023.11,1821.37 2024.73,1821.37 2026.36,1821.37 2027.99,1821.37 2029.62,1821.37 2031.25,1821.37 2032.87,1821.37 
  2034.5,1821.37 2036.13,1821.37 2037.76,1821.37 2039.39,1821.37 2041.01,1821.37 2042.64,1821.37 2044.27,1821.37 2045.9,1821.37 2047.53,1821.37 2049.15,1821.37 
  2050.78,1821.37 2052.41,1821.37 2054.04,1821.37 2055.67,1821.37 2057.29,1821.37 2058.92,1821.37 2060.55,1821.37 2062.18,1821.37 2063.81,1821.37 2065.43,1821.37 
  2067.06,1821.37 2068.69,1804.24 2070.32,1787.11 2071.95,1769.98 2073.57,1752.85 2075.2,1735.72 2076.83,1718.59 2078.46,1701.46 2080.09,1684.33 2081.71,1667.2 
  2083.34,1650.07 2084.97,1632.94 2086.6,1615.81 2088.23,1598.68 2089.85,1581.55 2091.48,1564.42 2093.11,1547.29 2094.74,1530.16 2096.37,1513.03 2097.99,1495.89 
  2099.62,1478.76 2101.25,1461.63 2102.88,1444.5 2104.51,1427.37 2106.13,1410.24 2107.76,1393.11 2109.39,1375.98 2111.02,1358.85 2112.65,1341.72 2114.27,1324.59 
  2115.9,1307.46 2117.53,1290.33 2119.16,1273.2 2120.79,1256.07 2122.41,1238.94 2124.04,1221.81 2125.67,1204.68 2127.3,1187.55 2128.93,1170.42 2130.55,1153.29 
  2132.18,1136.16 2133.81,1119.03 2135.44,1101.9 2137.07,1084.77 2138.69,1067.64 2140.32,1050.51 2141.95,1033.38 2143.58,1016.25 2145.21,999.12 2146.83,981.99 
  2148.46,964.86 2150.09,947.73 2151.72,930.6 2153.35,913.47 2154.97,896.339 2156.6,879.209 2158.23,862.079 2159.86,844.949 2161.49,827.819 2163.11,810.689 
  2164.74,793.558 2166.37,776.428 2168,759.298 2169.63,742.168 2171.25,725.038 2172.88,707.908 2174.51,690.777 2176.14,673.647 2177.77,656.517 2179.39,639.387 
  2181.02,622.257 2182.65,605.127 2184.28,587.997 2185.91,570.866 2187.53,553.736 2189.16,536.606 2190.79,519.476 2192.42,502.346 2194.05,485.216 2195.67,468.085 
  2197.3,450.955 2198.93,433.825 2200.56,416.695 2202.19,399.565 2203.81,382.435 2205.44,365.304 2207.07,348.174 2208.7,331.044 2210.33,313.914 2211.95,296.784 
  2213.58,279.654 2215.21,262.524 2216.84,245.393 2218.47,228.263 2220.1,211.133 2221.72,194.003 2223.35,176.873 2224.98,159.743 2226.61,142.612 2228.24,125.482 
  2229.86,108.352 2231.49,91.222 2233.12,74.0918 2234.75,56.9617 2236.38,39.8315 2238,22.7013 2239.63,5.57118 2241.26,-11.559 2242.89,-28.6891 2244.52,-45.8193 
  2246.14,-62.9494 2247.77,-80.0796 2249.4,-97.2098 2251.03,-114.34 2252.66,-131.47 2254.28,-148.6 2255.91,-165.73 2257.54,-182.861 2259.17,-199.991 2260.8,-217.121 
  2262.42,-234.251 2264.05,-251.381 2265.68,-268.511 2267.31,-285.641 2268.94,-302.772 2270.56,-319.902 2272.19,-337.032 2273.82,-354.162 2275.45,-371.292 2277.08,-388.422 
  2278.7,-405.553 2280.33,-422.683 2281.96,-439.813 2283.59,-456.943 2285.22,-474.073 2286.84,-491.203 2288.47,-508.334 2290.1,-525.464 2291.73,-542.594 2293.36,-559.724 
  2294.98,-576.854 2296.61,-593.984 2298.24,-611.114 2299.87,-628.245 2301.5,-645.375 2303.12,-662.505 2304.75,-679.635 2306.38,-696.765 2308.01,-713.895 2309.64,-731.026 
  2311.26,-748.156 2312.89,-765.286 2314.52,-782.416 2316.15,-799.546 2317.78,-816.676 2319.4,-833.807 2321.03,-850.937 2322.66,-868.067 2324.29,-885.197 2325.92,-902.327 
  2327.54,-919.457 2329.17,-936.587 2330.8,-953.718 2332.43,-970.848 2334.06,-987.978 2335.68,-1005.11 2337.31,-1022.24 2338.94,-1039.37 2340.57,-1056.5 2342.2,-1073.63 
  2343.82,-1090.76 2345.45,-1107.89 2347.08,-1125.02 2348.71,-1142.15 2350.34,-1159.28 2351.96,-1176.41 2353.59,-1193.54 2355.22,-1210.67 2356.85,-1227.8 2358.48,-1244.93 
  2360.1,-1262.06 2361.73,-1279.19 2363.36,-1296.32 2364.99,-1313.45 2366.62,-1330.58 2368.24,-1347.71 2369.87,-1364.84 2371.5,-1381.97 2373.13,-1399.1 2374.76,-1416.23 
  2376.38,-1433.36 2378.01,-1450.49 2379.64,-1467.62 2381.27,-1484.75 2382.9,-1501.88 2384.52,-1519.01 2386.15,-1536.14 2387.78,-1553.27 2389.41,-1570.4 2391.04,-1587.53 
  2392.66,-1604.66 2394.29,-1621.79 2395.92,-1638.92 2397.55,-1656.05 2399.18,-1673.18 2400.8,-1690.31 2402.43,-1707.44 2404.06,-1724.57 2405.69,-1741.7 2407.32,-1758.84 
  2408.94,-1775.97 2410.57,-1793.1 2412.2,-1810.23 2413.83,-1827.36 2415.46,-1844.49 2417.08,-1861.62 2418.71,-1878.75 2420.34,-1895.88 2421.97,-1913.01 2423.6,-1930.14 
  2425.22,-1947.27 2426.85,-1964.4 2428.48,-1981.53 2430.11,-1998.66 2431.74,-2015.79 2433.36,-2032.92 2434.99,-2050.05 2436.62,-2067.18 2438.25,-2084.31 2439.88,-2101.44 
  2441.5,-2118.57 2443.13,-2135.7 2444.76,-2152.83 2446.39,-2169.96 2448.02,-2187.09 2449.64,-2204.22 2451.27,-2221.35 2452.9,-2238.48 2454.53,-2255.61 2456.16,-2272.74 
  2457.78,-2289.87 2459.41,-2307 2461.04,-2324.13 2462.67,-2341.26 2464.3,-2358.39 2465.93,-2375.52 2467.55,-2392.65 2469.18,-2409.78 2470.81,-2426.91 2472.44,-2444.04 
  2474.07,-2461.17 2475.69,-2478.3 2477.32,-2495.43 2478.95,-2512.56 2480.58,-2529.69 2482.21,-2546.82 2483.83,-2563.95 2485.46,-2581.08 2487.09,-2598.21 2488.72,-2615.34 
  2490.35,-2632.47 2491.97,-2649.6 2493.6,-2666.73 2495.23,-2683.86 2496.86,-2700.99 2498.49,-2718.12 2500.11,-2735.25 2501.74,-2752.38 2503.37,-2769.51 2505,-2786.64 
  2506.63,-2803.77 2508.25,-2820.9 2509.88,-2838.03 2511.51,-2855.17 2513.14,-2872.3 2514.77,-2889.43 2516.39,-2906.56 2518.02,-2923.69 2519.65,-2940.82 2521.28,-2957.95 
  2522.91,-2975.08 2524.53,-2992.21 2526.16,-3009.34 2527.79,-3026.47 2529.42,-3043.6 2531.05,-3060.73 2532.67,-3077.86 2534.3,-3094.99 2535.93,-3112.12 2537.56,-3129.25 
  2539.19,-3146.38 2540.81,-3163.51 2542.44,-3180.64 2544.07,-3197.77 2545.7,-3214.9 2547.33,-3232.03 2548.95,-3249.16 2550.58,-3266.29 2552.21,-3283.42 2553.84,-3300.55 
  2555.47,-3317.68 2557.09,-3334.81 2558.72,-3351.94 2560.35,-3369.07 2561.98,-3386.2 2563.61,-3403.33 2565.23,-3420.46 2566.86,-3437.59 2568.49,-3454.72 2570.12,-3471.85 
  2571.75,-3488.98 2573.37,-3506.11 2575,-3523.24 2576.63,-3540.37 2578.26,-3557.5 2579.89,-3574.63 2581.51,-3591.76 2583.14,-3608.89 2584.77,-3626.02 2586.4,-3643.15 
  2588.03,-3660.28 2589.65,-3677.41 2591.28,-3694.54 2592.91,-3711.67 2594.54,-3728.8 2596.17,-3745.93 2597.79,-3763.06 2599.42,-3780.19 2601.05,-3797.32 2602.68,-3814.45 
  2604.31,-3831.58 2605.93,-3848.71 2607.56,-3865.84 2609.19,-3882.97 2610.82,-3900.1 2612.45,-3917.23 2614.07,-3934.37 2615.7,-3951.5 2617.33,-3968.63 2618.96,-3985.76 
  2620.59,-4002.89 2622.21,-4020.02 2623.84,-4037.15 2625.47,-4054.28 2627.1,-4071.41 2628.73,-4088.54 2630.35,-4105.67 2631.98,-4122.8 2633.61,-4139.93 2635.24,-4157.06 
  2636.87,-4174.19 2638.49,-4191.32 2640.12,-4208.45 2641.75,-4225.58 2643.38,-4242.71 2645.01,-4259.84 2646.63,-4276.97 2648.26,-4294.1 2649.89,-4311.23 2651.52,-4328.36 
  2653.15,-4345.49 2654.77,-4362.62 2656.4,-4379.75 2658.03,-4396.88 2659.66,-4414.01 2661.29,-4431.14 2662.91,-4448.27 2664.54,-4465.4 2666.17,-4482.53 2667.8,-4499.66 
  2669.43,-4516.79 2671.05,-4533.92 2672.68,-4551.05 2674.31,-4568.18 2675.94,-4585.31 2677.57,-4602.44 2679.19,-4619.57 2680.82,-4636.7 2682.45,-4653.83 2684.08,-4670.96 
  2685.71,-4688.09 2687.33,-4705.22 2688.96,-4722.35 2690.59,-4739.48 2692.22,-4756.61 2693.85,-4773.74 2695.47,-4790.87 2697.1,-4808 2698.73,-4825.13 2700.36,-4842.26 
  2701.99,-4859.39 2703.62,-4876.52 2705.24,-4893.65 2706.87,-4910.78 2708.5,-4927.91 2710.13,-4945.04 2711.76,-4962.17 2713.38,-4979.3 2715.01,-4996.43 2716.64,-5013.56 
  2718.27,-5030.7 2719.9,-5047.83 2721.52,-5064.96 2723.15,-5082.09 2724.78,-5099.22 2726.41,-5116.35 2728.04,-5133.48 2729.66,-5150.61 2731.29,-5167.74 2732.92,-5184.87 
  2734.55,-5202 2736.18,-5219.13 2737.8,-5236.26 2739.43,-5253.39 2741.06,-5270.52 2742.69,-5287.65 2744.32,-5304.78 2745.94,-5321.91 2747.57,-5339.04 2749.2,-5356.17 
  2750.83,-5373.3 2752.46,-5390.43 2754.08,-5407.56 2755.71,-5424.69 2757.34,-5441.82 2758.97,-5458.95 2760.6,-5476.08 2762.22,-5493.21 2763.85,-5510.34 2765.48,-5527.47 
  2767.11,-5544.6 2768.74,-5561.73 2770.36,-5578.86 2771.99,-5595.99 2773.62,-5613.12 2775.25,-5630.25 2776.88,-5647.38 2778.5,-5664.51 2780.13,-5681.64 2781.76,-5698.77 
  2783.39,-5715.9 2785.02,-5733.03 2786.64,-5750.16 2788.27,-5767.29 2789.9,-5784.42 2791.53,-5801.55 2793.16,-5818.68 2794.78,-5835.81 2796.41,-5852.94 2798.04,-5870.07 
  2799.67,-5887.2 2801.3,-5904.33 2802.92,-5921.46 2804.55,-5938.59 2806.18,-5955.72 2807.81,-5972.85 2809.44,-5989.98 2811.06,-6007.11 2812.69,-6024.24 2814.32,-6041.37 
  2815.95,-6058.5 2817.58,-6075.63 2819.2,-6092.76 2820.83,-6109.9 2822.46,-6127.03 2824.09,-6144.16 2825.72,-6161.29 2827.34,-6178.42 2828.97,-6195.55 2830.6,-6212.68 
  2832.23,-6229.81 2833.86,-6246.94 2835.48,-6264.07 2837.11,-6281.2 2838.74,-6298.33 2840.37,-6315.46 2842,-6332.59 2843.62,-6349.72 2845.25,-6366.85 2846.88,-6383.98 
  2848.51,-6401.11 2850.14,-6418.24 2851.76,-6435.37 2853.39,-6452.5 2855.02,-6469.63 2856.65,-6486.76 2858.28,-6503.89 2859.9,-6521.02 2861.53,-6538.15 2863.16,-6555.28 
  2864.79,-6572.41 2866.42,-6589.54 2868.04,-6606.67 2869.67,-6623.8 2871.3,-6640.93 2872.93,-6658.06 2874.56,-6675.19 2876.18,-6692.32 2877.81,-6709.45 2879.44,-6726.58 
  2881.07,-6743.71 2882.7,-6760.84 2884.32,-6777.97 2885.95,-6795.1 2887.58,-6812.23 2889.21,-6829.36 2890.84,-6846.49 2892.46,-6863.62 2894.09,-6880.75 2895.72,-6897.88 
  2897.35,-6915.01 2898.98,-6932.14 2900.6,-6949.27 2902.23,-6966.4 2903.86,-6983.53 2905.49,-7000.66 2907.12,-7017.79 2908.74,-7034.92 2910.37,-7052.05 2912,-7069.18 
  2913.63,-7086.31 2915.26,-7103.44 2916.88,-7120.57 2918.51,-7137.7 2920.14,-7154.83 2921.77,-7171.96 2923.4,-7189.09 2925.02,-7206.23 2926.65,-7223.36 2928.28,-7240.49 
  2929.91,-7257.62 2931.54,-7274.75 2933.16,-7291.88 2934.79,-7309.01 2936.42,-7326.14 2938.05,-7343.27 2939.68,-7360.4 2941.3,-7377.53 2942.93,-7394.66 2944.56,-7411.79 
  2946.19,-7428.92 2947.82,-7446.05 2949.45,-7463.18 2951.07,-7480.31 2952.7,-7497.44 2954.33,-7514.57 2955.96,-7531.7 2957.59,-7548.83 2959.21,-7565.96 2960.84,-7583.09 
  2962.47,-7600.22 2964.1,-7617.35 2965.73,-7634.48 2967.35,-7651.61 2968.98,-7668.74 2970.61,-7685.87 2972.24,-7703 2973.87,-7720.13 2975.49,-7737.26 2977.12,-7754.39 
  2978.75,-7771.52 2980.38,-7788.65 2982.01,-7805.78 2983.63,-7822.91 2985.26,-7840.04 2986.89,-7857.17 2988.52,-7874.3 2990.15,-7891.43 2991.77,-7908.56 2993.4,-7925.69 
  2995.03,-7942.82 2996.66,-7959.95 2998.29,-7977.08 2999.91,-7994.21 3001.54,-8011.34 3003.17,-8028.47 3004.8,-8045.6 3006.43,-8062.73 3008.05,-8079.86 3009.68,-8096.99 
  3011.31,-8114.12 3012.94,-8131.25 3014.57,-8148.38 3016.19,-8165.51 3017.82,-8182.64 3019.45,-8199.77 3021.08,-8216.9 3022.71,-8234.03 3024.33,-8251.16 3025.96,-8268.29 
  3027.59,-8285.43 3029.22,-8302.56 3030.85,-8319.69 3032.47,-8336.82 3034.1,-8353.95 3035.73,-8371.08 3037.36,-8388.21 3038.99,-8405.34 3040.61,-8422.47 3042.24,-8439.6 
  3043.87,-8456.73 3045.5,-8473.86 3047.13,-8490.99 3048.75,-8508.12 3050.38,-8525.25 3052.01,-8542.38 3053.64,-8559.51 3055.27,-8576.64 3056.89,-8593.77 3058.52,-8610.9 
  3060.15,-8628.03 3061.78,-8645.16 3063.41,-8662.29 3065.03,-8679.42 3066.66,-8696.55 3068.29,-8713.68 3069.92,-8730.81 3071.55,-8747.94 3073.17,-8765.07 3074.8,-8782.2 
  3076.43,-8799.33 3078.06,-8816.46 3079.69,-8833.59 3081.31,-8850.72 3082.94,-8867.85 3084.57,-8884.98 3086.2,-8902.11 3087.83,-8919.24 3089.45,-8936.37 3091.08,-8953.5 
  3092.71,-8970.63 3094.34,-8987.76 3095.97,-9004.89 3097.59,-9022.02 3099.22,-9039.15 3100.85,-9056.28 3102.48,-9073.41 3104.11,-9090.54 3105.73,-9107.67 3107.36,-9124.8 
  3108.99,-9141.93 3110.62,-9159.06 3112.25,-9176.19 3113.87,-9193.32 3115.5,-9210.45 3117.13,-9227.58 3118.76,-9244.71 3120.39,-9261.84 3122.01,-9278.97 3123.64,-9296.1 
  3125.27,-9313.23 3126.9,-9330.36 3128.53,-9347.49 3130.15,-9364.62 3131.78,-9381.76 3133.41,-9398.89 3135.04,-9416.02 3136.67,-9433.15 3138.29,-9450.28 3139.92,-9467.41 
  3141.55,-9484.54 3143.18,-9501.67 3144.81,-9518.8 3146.43,-9535.93 3148.06,-9553.06 3149.69,-9570.19 3151.32,-9587.32 3152.95,-9604.45 3154.57,-9621.58 3156.2,-9638.71 
  3157.83,-9655.84 3159.46,-9672.97 3161.09,-9690.1 3162.71,-9707.23 3164.34,-9724.36 3165.97,-9741.49 3167.6,-9758.62 3169.23,-9775.75 3170.85,-9792.88 3172.48,-9810.01 
  3174.11,-9827.14 3175.74,-9844.27 3177.37,-9861.4 3178.99,-9878.53 3180.62,-9895.66 3182.25,-9912.79 3183.88,-9929.92 3185.51,-9947.05 3187.13,-9964.18 3188.76,-9981.31 
  3190.39,-9998.44 3192.02,-10015.6 3193.65,-10032.7 3195.28,-10049.8 3196.9,-10067 3198.53,-10084.1 3200.16,-10101.2 3201.79,-10118.4 3203.42,-10135.5 3205.04,-10152.6 
  3206.67,-10169.7 3208.3,-10186.9 3209.93,-10204 3211.56,-10221.1 3213.18,-10238.3 3214.81,-10255.4 3216.44,-10272.5 3218.07,-10289.7 3219.7,-10306.8 3221.32,-10323.9 
  3222.95,-10341 3224.58,-10358.2 3226.21,-10375.3 3227.84,-10392.4 3229.46,-10409.6 3231.09,-10426.7 3232.72,-10443.8 3234.35,-10461 3235.98,-10478.1 3237.6,-10495.2 
  3239.23,-10512.3 3240.86,-10529.5 3242.49,-10546.6 3244.12,-10563.7 3245.74,-10580.9 3247.37,-10598 3249,-10615.1 3250.63,-10632.3 3252.26,-10649.4 3253.88,-10666.5 
  3255.51,-10683.6 3257.14,-10700.8 3258.77,-10717.9 3260.4,-10735 3262.02,-10752.2 3263.65,-10769.3 3265.28,-10786.4 3266.91,-10803.6 3268.54,-10820.7 3270.16,-10837.8 
  3271.79,-10854.9 3273.42,-10872.1 3275.05,-10889.2 3276.68,-10906.3 3278.3,-10923.5 3279.93,-10940.6 3281.56,-10957.7 3283.19,-10974.9 3284.82,-10992 3286.44,-11009.1 
  3288.07,-11026.3 3289.7,-11043.4 3291.33,-11060.5 3292.96,-11077.6 3294.58,-11094.8 3296.21,-11111.9 3297.84,-11129 3299.47,-11146.2 3301.1,-11163.3 3302.72,-11180.4 
  3304.35,-11197.6 3305.98,-11214.7 3307.61,-11231.8 3309.24,-11248.9 3310.86,-11266.1 3312.49,-11283.2 3314.12,-11300.3 3315.75,-11317.5 3317.38,-11334.6 3319,-11351.7 
  3320.63,-11368.9 3322.26,-11386 3323.89,-11403.1 3325.52,-11420.2 3327.14,-11437.4 3328.77,-11454.5 3330.4,-11471.6 3332.03,-11488.8 3333.66,-11505.9 3335.28,-11523 
  3336.91,-11540.2 3338.54,-11557.3 3340.17,-11574.4 3341.8,-11591.5 3343.42,-11608.7 3345.05,-11625.8 3346.68,-11642.9 3348.31,-11660.1 3349.94,-11677.2 3351.56,-11694.3 
  3353.19,-11711.5 3354.82,-11728.6 3356.45,-11745.7 3358.08,-11762.8 3359.7,-11780 3361.33,-11797.1 3362.96,-11814.2 3364.59,-11831.4 3366.22,-11848.5 3367.84,-11865.6 
  3369.47,-11882.8 3371.1,-11899.9 3372.73,-11917 3374.36,-11934.1 3375.98,-11951.3 3377.61,-11968.4 3379.24,-11985.5 3380.87,-12002.7 3382.5,-12019.8 3384.12,-12036.9 
  3385.75,-12054.1 3387.38,-12071.2 3389.01,-12088.3 3390.64,-12105.5 3392.26,-12122.6 3393.89,-12139.7 3395.52,-12156.8 3397.15,-12174 3398.78,-12191.1 3400.4,-12208.2 
  3402.03,-12225.4 3403.66,-12242.5 3405.29,-12259.6 3406.92,-12276.8 3408.54,-12293.9 3410.17,-12311 3411.8,-12328.1 3413.43,-12345.3 3415.06,-12362.4 3416.68,-12379.5 
  3418.31,-12396.7 3419.94,-12413.8 3421.57,-12430.9 3423.2,-12448.1 3424.82,-12465.2 3426.45,-12482.3 3428.08,-12499.4 3429.71,-12516.6 3431.34,-12533.7 3432.96,-12550.8 
  3434.59,-12568 3436.22,-12585.1 3437.85,-12602.2 3439.48,-12619.4 3441.11,-12636.5 3442.73,-12653.6 3444.36,-12670.7 3445.99,-12687.9 3447.62,-12705 3449.25,-12722.1 
  3450.87,-12739.3 3452.5,-12756.4 3454.13,-12773.5 3455.76,-12790.7 3457.39,-12807.8 3459.01,-12824.9 3460.64,-12842 3462.27,-12859.2 3463.9,-12876.3 3465.53,-12893.4 
  3467.15,-12910.6 3468.78,-12927.7 3470.41,-12944.8 3472.04,-12962 3473.67,-12979.1 3475.29,-12996.2 3476.92,-13013.3 3478.55,-13030.5 3480.18,-13047.6 3481.81,-13064.7 
  3483.43,-13081.9 3485.06,-13099 3486.69,-13116.1 3488.32,-13133.3 3489.95,-13150.4 3491.57,-13167.5 3493.2,-13184.7 3494.83,-13201.8 3496.46,-13218.9 3498.09,-13236 
  3499.71,-13253.2 3501.34,-13270.3 3502.97,-13287.4 3504.6,-13304.6 3506.23,-13321.7 3507.85,-13338.8 3509.48,-13356 3511.11,-13373.1 3512.74,-13390.2 3514.37,-13407.3 
  3515.99,-13424.5 3517.62,-13441.6 3519.25,-13458.7 3520.88,-13475.9 3522.51,-13493 3524.13,-13510.1 3525.76,-13527.3 3527.39,-13544.4 3529.02,-13561.5 3530.65,-13578.6 
  3532.27,-13595.8 3533.9,-13612.9 3535.53,-13630 3537.16,-13647.2 3538.79,-13664.3 3540.41,-13681.4 3542.04,-13698.6 3543.67,-13715.7 3545.3,-13732.8 3546.93,-13749.9 
  3548.55,-13767.1 3550.18,-13784.2 3551.81,-13801.3 3553.44,-13818.5 3555.07,-13835.6 3556.69,-13852.7 3558.32,-13869.9 3559.95,-13887 3561.58,-13904.1 3563.21,-13921.2 
  3564.83,-13938.4 3566.46,-13955.5 3568.09,-13972.6 3569.72,-13989.8 3571.35,-14006.9 3572.97,-14024 3574.6,-14041.2 3576.23,-14058.3 3577.86,-14075.4 3579.49,-14092.5 
  3581.11,-14109.7 3582.74,-14126.8 3584.37,-14143.9 3586,-14161.1 3587.63,-14178.2 3589.25,-14195.3 3590.88,-14212.5 3592.51,-14229.6 3594.14,-14246.7 3595.77,-14263.9 
  3597.39,-14281 3599.02,-14298.1 3600.65,-14315.2 3602.28,-14332.4 3603.91,-14349.5 3605.53,-14366.6 3607.16,-14383.8 3608.79,-14400.9 3610.42,-14418 3612.05,-14435.2 
  3613.67,-14452.3 3615.3,-14469.4 3616.93,-14486.5 3618.56,-14503.7 3620.19,-14520.8 3621.81,-14537.9 3623.44,-14555.1 3625.07,-14572.2 3626.7,-14589.3 3628.33,-14606.5 
  3629.95,-14623.6 3631.58,-14640.7 3633.21,-14657.8 3634.84,-14675 3636.47,-14692.1 3638.09,-14709.2 3639.72,-14726.4 3641.35,-14743.5 3642.98,-14760.6 3644.61,-14777.8 
  3646.23,-14794.9 3647.86,-14812 3649.49,-14829.1 3651.12,-14846.3 3652.75,-14863.4 3654.37,-14880.5 3656,-14897.7 3657.63,-14914.8 3659.26,-14931.9 3660.89,-14949.1 
  3662.51,-14966.2 3664.14,-14983.3 3665.77,-15000.4 3667.4,-15017.6 3669.03,-15034.7 3670.65,-15051.8 3672.28,-15069 3673.91,-15086.1 3675.54,-15103.2 3677.17,-15120.4 
  3678.79,-15137.5 3680.42,-15154.6 3682.05,-15171.7 3683.68,-15188.9 3685.31,-15206 3686.94,-15223.1 3688.56,-15240.3 3690.19,-15257.4 3691.82,-15274.5 3693.45,-15291.7 
  3695.08,-15308.8 
  "/>
</svg>
