<?xml version="1.0" encoding="utf-8"?>
<svg xmlns="http://www.w3.org/2000/svg" xmlns:xlink="http://www.w3.org/1999/xlink" width="960" height="480" viewBox="0 0 3840 1920">
<defs>
  <clipPath id="clip220">
    <rect x="0" y="0" width="3840" height="1920"/>
  </clipPath>
</defs>
<path clip-path="url(#clip220)" d="
M0 1920 L3840 1920 L3840 0 L0 0  Z
  " fill="#ffffff" fill-rule="evenodd" fill-opacity="1"/>
<defs>
  <clipPath id="clip221">
    <rect x="768" y="0" width="2689" height="1920"/>
  </clipPath>
</defs>
<path clip-path="url(#clip220)" d="
M200.674 1811.89 L3792.76 1811.89 L3792.76 108.352 L200.674 108.352  Z
  " fill="#ffffff" fill-rule="evenodd" fill-opacity="1"/>
<defs>
  <clipPath id="clip222">
    <rect x="200" y="108" width="3593" height="1705"/>
  </clipPath>
</defs>
<polyline clip-path="url(#clip222)" style="stroke:#000000; stroke-linecap:round; stroke-linejoin:round; stroke-width:2; stroke-opacity:0.1; fill:none" points="
  302.337,1811.89 302.337,108.352 
  "/>
<polyline clip-path="url(#clip222)" style="stroke:#000000; stroke-linecap:round; stroke-linejoin:round; stroke-width:2; stroke-opacity:0.1; fill:none" points="
  1149.53,1811.89 1149.53,108.352 
  "/>
<polyline clip-path="url(#clip222)" style="stroke:#000000; stroke-linecap:round; stroke-linejoin:round; stroke-width:2; stroke-opacity:0.1; fill:none" points="
  1996.71,1811.89 1996.71,108.352 
  "/>
<polyline clip-path="url(#clip222)" style="stroke:#000000; stroke-linecap:round; stroke-linejoin:round; stroke-width:2; stroke-opacity:0.1; fill:none" points="
  2843.9,1811.89 2843.9,108.352 
  "/>
<polyline clip-path="url(#clip222)" style="stroke:#000000; stroke-linecap:round; stroke-linejoin:round; stroke-width:2; stroke-opacity:0.1; fill:none" points="
  3691.09,1811.89 3691.09,108.352 
  "/>
<polyline clip-path="url(#clip220)" style="stroke:#000000; stroke-linecap:round; stroke-linejoin:round; stroke-width:4; stroke-opacity:1; fill:none" points="
  200.674,1811.89 3792.76,1811.89 
  "/>
<polyline clip-path="url(#clip220)" style="stroke:#000000; stroke-linecap:round; stroke-linejoin:round; stroke-width:4; stroke-opacity:1; fill:none" points="
  302.337,1811.89 302.337,1792.99 
  "/>
<polyline clip-path="url(#clip220)" style="stroke:#000000; stroke-linecap:round; stroke-linejoin:round; stroke-width:4; stroke-opacity:1; fill:none" points="
  1149.53,1811.89 1149.53,1792.99 
  "/>
<polyline clip-path="url(#clip220)" style="stroke:#000000; stroke-linecap:round; stroke-linejoin:round; stroke-width:4; stroke-opacity:1; fill:none" points="
  1996.71,1811.89 1996.71,1792.99 
  "/>
<polyline clip-path="url(#clip220)" style="stroke:#000000; stroke-linecap:round; stroke-linejoin:round; stroke-width:4; stroke-opacity:1; fill:none" points="
  2843.9,1811.89 2843.9,1792.99 
  "/>
<polyline clip-path="url(#clip220)" style="stroke:#000000; stroke-linecap:round; stroke-linejoin:round; stroke-width:4; stroke-opacity:1; fill:none" points="
  3691.09,1811.89 3691.09,1792.99 
  "/>
<path clip-path="url(#clip220)" d="M264.64 1854.33 Q261.029 1854.33 259.2 1857.89 Q257.395 1861.43 257.395 1868.56 Q257.395 1875.67 259.2 1879.23 Q261.029 1882.78 264.64 1882.78 Q268.274 1882.78 270.08 1879.23 Q271.909 1875.67 271.909 1868.56 Q271.909 1861.43 270.08 1857.89 Q268.274 1854.33 264.64 1854.33 M264.64 1850.62 Q270.45 1850.62 273.506 1855.23 Q276.585 1859.81 276.585 1868.56 Q276.585 1877.29 273.506 1881.9 Q270.45 1886.48 264.64 1886.48 Q258.83 1886.48 255.751 1881.9 Q252.696 1877.29 252.696 1868.56 Q252.696 1859.81 255.751 1855.23 Q258.83 1850.62 264.64 1850.62 Z" fill="#000000" fill-rule="evenodd" fill-opacity="1" /><path clip-path="url(#clip220)" d="M284.802 1879.93 L289.686 1879.93 L289.686 1885.81 L284.802 1885.81 L284.802 1879.93 Z" fill="#000000" fill-rule="evenodd" fill-opacity="1" /><path clip-path="url(#clip220)" d="M309.871 1854.33 Q306.26 1854.33 304.432 1857.89 Q302.626 1861.43 302.626 1868.56 Q302.626 1875.67 304.432 1879.23 Q306.26 1882.78 309.871 1882.78 Q313.506 1882.78 315.311 1879.23 Q317.14 1875.67 317.14 1868.56 Q317.14 1861.43 315.311 1857.89 Q313.506 1854.33 309.871 1854.33 M309.871 1850.62 Q315.682 1850.62 318.737 1855.23 Q321.816 1859.81 321.816 1868.56 Q321.816 1877.29 318.737 1881.9 Q315.682 1886.48 309.871 1886.48 Q304.061 1886.48 300.983 1881.9 Q297.927 1877.29 297.927 1868.56 Q297.927 1859.81 300.983 1855.23 Q304.061 1850.62 309.871 1850.62 Z" fill="#000000" fill-rule="evenodd" fill-opacity="1" /><path clip-path="url(#clip220)" d="M340.033 1854.33 Q336.422 1854.33 334.593 1857.89 Q332.788 1861.43 332.788 1868.56 Q332.788 1875.67 334.593 1879.23 Q336.422 1882.78 340.033 1882.78 Q343.667 1882.78 345.473 1879.23 Q347.302 1875.67 347.302 1868.56 Q347.302 1861.43 345.473 1857.89 Q343.667 1854.33 340.033 1854.33 M340.033 1850.62 Q345.843 1850.62 348.899 1855.23 Q351.978 1859.81 351.978 1868.56 Q351.978 1877.29 348.899 1881.9 Q345.843 1886.48 340.033 1886.48 Q334.223 1886.48 331.144 1881.9 Q328.089 1877.29 328.089 1868.56 Q328.089 1859.81 331.144 1855.23 Q334.223 1850.62 340.033 1850.62 Z" fill="#000000" fill-rule="evenodd" fill-opacity="1" /><path clip-path="url(#clip220)" d="M1112.33 1854.33 Q1108.72 1854.33 1106.89 1857.89 Q1105.08 1861.43 1105.08 1868.56 Q1105.08 1875.67 1106.89 1879.23 Q1108.72 1882.78 1112.33 1882.78 Q1115.96 1882.78 1117.77 1879.23 Q1119.6 1875.67 1119.6 1868.56 Q1119.6 1861.43 1117.77 1857.89 Q1115.96 1854.33 1112.33 1854.33 M1112.33 1850.62 Q1118.14 1850.62 1121.19 1855.23 Q1124.27 1859.81 1124.27 1868.56 Q1124.27 1877.29 1121.19 1881.9 Q1118.14 1886.48 1112.33 1886.48 Q1106.52 1886.48 1103.44 1881.9 Q1100.38 1877.29 1100.38 1868.56 Q1100.38 1859.81 1103.44 1855.23 Q1106.52 1850.62 1112.33 1850.62 Z" fill="#000000" fill-rule="evenodd" fill-opacity="1" /><path clip-path="url(#clip220)" d="M1132.49 1879.93 L1137.37 1879.93 L1137.37 1885.81 L1132.49 1885.81 L1132.49 1879.93 Z" fill="#000000" fill-rule="evenodd" fill-opacity="1" /><path clip-path="url(#clip220)" d="M1151.59 1881.87 L1167.91 1881.87 L1167.91 1885.81 L1145.96 1885.81 L1145.96 1881.87 Q1148.62 1879.12 1153.21 1874.49 Q1157.81 1869.84 1158.99 1868.49 Q1161.24 1865.97 1162.12 1864.23 Q1163.02 1862.47 1163.02 1860.78 Q1163.02 1858.03 1161.08 1856.29 Q1159.16 1854.56 1156.05 1854.56 Q1153.85 1854.56 1151.4 1855.32 Q1148.97 1856.09 1146.19 1857.64 L1146.19 1852.91 Q1149.02 1851.78 1151.47 1851.2 Q1153.92 1850.62 1155.96 1850.62 Q1161.33 1850.62 1164.53 1853.31 Q1167.72 1855.99 1167.72 1860.48 Q1167.72 1862.61 1166.91 1864.53 Q1166.12 1866.43 1164.02 1869.03 Q1163.44 1869.7 1160.34 1872.91 Q1157.23 1876.11 1151.59 1881.87 Z" fill="#000000" fill-rule="evenodd" fill-opacity="1" /><path clip-path="url(#clip220)" d="M1177.77 1851.25 L1196.12 1851.25 L1196.12 1855.18 L1182.05 1855.18 L1182.05 1863.66 Q1183.07 1863.31 1184.09 1863.15 Q1185.1 1862.96 1186.12 1862.96 Q1191.91 1862.96 1195.29 1866.13 Q1198.67 1869.3 1198.67 1874.72 Q1198.67 1880.3 1195.2 1883.4 Q1191.72 1886.48 1185.41 1886.48 Q1183.23 1886.48 1180.96 1886.11 Q1178.72 1885.74 1176.31 1885 L1176.31 1880.3 Q1178.39 1881.43 1180.61 1881.99 Q1182.84 1882.54 1185.31 1882.54 Q1189.32 1882.54 1191.66 1880.44 Q1193.99 1878.33 1193.99 1874.72 Q1193.99 1871.11 1191.66 1869 Q1189.32 1866.9 1185.31 1866.9 Q1183.44 1866.9 1181.56 1867.31 Q1179.71 1867.73 1177.77 1868.61 L1177.77 1851.25 Z" fill="#000000" fill-rule="evenodd" fill-opacity="1" /><path clip-path="url(#clip220)" d="M1959.02 1854.33 Q1955.41 1854.33 1953.58 1857.89 Q1951.77 1861.43 1951.77 1868.56 Q1951.77 1875.67 1953.58 1879.23 Q1955.41 1882.78 1959.02 1882.78 Q1962.65 1882.78 1964.46 1879.23 Q1966.29 1875.67 1966.29 1868.56 Q1966.29 1861.43 1964.46 1857.89 Q1962.65 1854.33 1959.02 1854.33 M1959.02 1850.62 Q1964.83 1850.62 1967.88 1855.23 Q1970.96 1859.81 1970.96 1868.56 Q1970.96 1877.29 1967.88 1881.9 Q1964.83 1886.48 1959.02 1886.48 Q1953.21 1886.48 1950.13 1881.9 Q1947.07 1877.29 1947.07 1868.56 Q1947.07 1859.81 1950.13 1855.23 Q1953.21 1850.62 1959.02 1850.62 Z" fill="#000000" fill-rule="evenodd" fill-opacity="1" /><path clip-path="url(#clip220)" d="M1979.18 1879.93 L1984.06 1879.93 L1984.06 1885.81 L1979.18 1885.81 L1979.18 1879.93 Z" fill="#000000" fill-rule="evenodd" fill-opacity="1" /><path clip-path="url(#clip220)" d="M1994.3 1851.25 L2012.65 1851.25 L2012.65 1855.18 L1998.58 1855.18 L1998.58 1863.66 Q1999.6 1863.31 2000.62 1863.15 Q2001.63 1862.96 2002.65 1862.96 Q2008.44 1862.96 2011.82 1866.13 Q2015.2 1869.3 2015.2 1874.72 Q2015.2 1880.3 2011.73 1883.4 Q2008.25 1886.48 2001.93 1886.48 Q1999.76 1886.48 1997.49 1886.11 Q1995.25 1885.74 1992.84 1885 L1992.84 1880.3 Q1994.92 1881.43 1997.14 1881.99 Q1999.37 1882.54 2001.84 1882.54 Q2005.85 1882.54 2008.18 1880.44 Q2010.52 1878.33 2010.52 1874.72 Q2010.52 1871.11 2008.18 1869 Q2005.85 1866.9 2001.84 1866.9 Q1999.97 1866.9 1998.09 1867.31 Q1996.24 1867.73 1994.3 1868.61 L1994.3 1851.25 Z" fill="#000000" fill-rule="evenodd" fill-opacity="1" /><path clip-path="url(#clip220)" d="M2034.41 1854.33 Q2030.8 1854.33 2028.97 1857.89 Q2027.17 1861.43 2027.17 1868.56 Q2027.17 1875.67 2028.97 1879.23 Q2030.8 1882.78 2034.41 1882.78 Q2038.05 1882.78 2039.85 1879.23 Q2041.68 1875.67 2041.68 1868.56 Q2041.68 1861.43 2039.85 1857.89 Q2038.05 1854.33 2034.41 1854.33 M2034.41 1850.62 Q2040.22 1850.62 2043.28 1855.23 Q2046.36 1859.81 2046.36 1868.56 Q2046.36 1877.29 2043.28 1881.9 Q2040.22 1886.48 2034.41 1886.48 Q2028.6 1886.48 2025.52 1881.9 Q2022.47 1877.29 2022.47 1868.56 Q2022.47 1859.81 2025.52 1855.23 Q2028.6 1850.62 2034.41 1850.62 Z" fill="#000000" fill-rule="evenodd" fill-opacity="1" /><path clip-path="url(#clip220)" d="M2806.71 1854.33 Q2803.09 1854.33 2801.27 1857.89 Q2799.46 1861.43 2799.46 1868.56 Q2799.46 1875.67 2801.27 1879.23 Q2803.09 1882.78 2806.71 1882.78 Q2810.34 1882.78 2812.14 1879.23 Q2813.97 1875.67 2813.97 1868.56 Q2813.97 1861.43 2812.14 1857.89 Q2810.34 1854.33 2806.71 1854.33 M2806.71 1850.62 Q2812.52 1850.62 2815.57 1855.23 Q2818.65 1859.81 2818.65 1868.56 Q2818.65 1877.29 2815.57 1881.9 Q2812.52 1886.48 2806.71 1886.48 Q2800.9 1886.48 2797.82 1881.9 Q2794.76 1877.29 2794.76 1868.56 Q2794.76 1859.81 2797.82 1855.23 Q2800.9 1850.62 2806.71 1850.62 Z" fill="#000000" fill-rule="evenodd" fill-opacity="1" /><path clip-path="url(#clip220)" d="M2826.87 1879.93 L2831.75 1879.93 L2831.75 1885.81 L2826.87 1885.81 L2826.87 1879.93 Z" fill="#000000" fill-rule="evenodd" fill-opacity="1" /><path clip-path="url(#clip220)" d="M2840.76 1851.25 L2862.98 1851.25 L2862.98 1853.24 L2850.43 1885.81 L2845.55 1885.81 L2857.35 1855.18 L2840.76 1855.18 L2840.76 1851.25 Z" fill="#000000" fill-rule="evenodd" fill-opacity="1" /><path clip-path="url(#clip220)" d="M2872.14 1851.25 L2890.5 1851.25 L2890.5 1855.18 L2876.43 1855.18 L2876.43 1863.66 Q2877.45 1863.31 2878.46 1863.15 Q2879.48 1862.96 2880.5 1862.96 Q2886.29 1862.96 2889.67 1866.13 Q2893.05 1869.3 2893.05 1874.72 Q2893.05 1880.3 2889.58 1883.4 Q2886.1 1886.48 2879.78 1886.48 Q2877.61 1886.48 2875.34 1886.11 Q2873.09 1885.74 2870.69 1885 L2870.69 1880.3 Q2872.77 1881.43 2874.99 1881.99 Q2877.21 1882.54 2879.69 1882.54 Q2883.7 1882.54 2886.03 1880.44 Q2888.37 1878.33 2888.37 1874.72 Q2888.37 1871.11 2886.03 1869 Q2883.7 1866.9 2879.69 1866.9 Q2877.82 1866.9 2875.94 1867.31 Q2874.09 1867.73 2872.14 1868.61 L2872.14 1851.25 Z" fill="#000000" fill-rule="evenodd" fill-opacity="1" /><path clip-path="url(#clip220)" d="M3643.17 1881.87 L3650.8 1881.87 L3650.8 1855.51 L3642.49 1857.17 L3642.49 1852.91 L3650.76 1851.25 L3655.43 1851.25 L3655.43 1881.87 L3663.07 1881.87 L3663.07 1885.81 L3643.17 1885.81 L3643.17 1881.87 Z" fill="#000000" fill-rule="evenodd" fill-opacity="1" /><path clip-path="url(#clip220)" d="M3672.52 1879.93 L3677.4 1879.93 L3677.4 1885.81 L3672.52 1885.81 L3672.52 1879.93 Z" fill="#000000" fill-rule="evenodd" fill-opacity="1" /><path clip-path="url(#clip220)" d="M3697.59 1854.33 Q3693.98 1854.33 3692.15 1857.89 Q3690.34 1861.43 3690.34 1868.56 Q3690.34 1875.67 3692.15 1879.23 Q3693.98 1882.78 3697.59 1882.78 Q3701.22 1882.78 3703.03 1879.23 Q3704.85 1875.67 3704.85 1868.56 Q3704.85 1861.43 3703.03 1857.89 Q3701.22 1854.33 3697.59 1854.33 M3697.59 1850.62 Q3703.4 1850.62 3706.45 1855.23 Q3709.53 1859.81 3709.53 1868.56 Q3709.53 1877.29 3706.45 1881.9 Q3703.4 1886.48 3697.59 1886.48 Q3691.78 1886.48 3688.7 1881.9 Q3685.64 1877.29 3685.64 1868.56 Q3685.64 1859.81 3688.7 1855.23 Q3691.78 1850.62 3697.59 1850.62 Z" fill="#000000" fill-rule="evenodd" fill-opacity="1" /><path clip-path="url(#clip220)" d="M3727.75 1854.33 Q3724.14 1854.33 3722.31 1857.89 Q3720.5 1861.43 3720.5 1868.56 Q3720.5 1875.67 3722.31 1879.23 Q3724.14 1882.78 3727.75 1882.78 Q3731.38 1882.78 3733.19 1879.23 Q3735.02 1875.67 3735.02 1868.56 Q3735.02 1861.43 3733.19 1857.89 Q3731.38 1854.33 3727.75 1854.33 M3727.75 1850.62 Q3733.56 1850.62 3736.61 1855.23 Q3739.69 1859.81 3739.69 1868.56 Q3739.69 1877.29 3736.61 1881.9 Q3733.56 1886.48 3727.75 1886.48 Q3721.94 1886.48 3718.86 1881.9 Q3715.8 1877.29 3715.8 1868.56 Q3715.8 1859.81 3718.86 1855.23 Q3721.94 1850.62 3727.75 1850.62 Z" fill="#000000" fill-rule="evenodd" fill-opacity="1" /><polyline clip-path="url(#clip222)" style="stroke:#000000; stroke-linecap:round; stroke-linejoin:round; stroke-width:2; stroke-opacity:0.1; fill:none" points="
  200.674,1585.11 3792.76,1585.11 
  "/>
<polyline clip-path="url(#clip222)" style="stroke:#000000; stroke-linecap:round; stroke-linejoin:round; stroke-width:2; stroke-opacity:0.1; fill:none" points="
  200.674,1227.97 3792.76,1227.97 
  "/>
<polyline clip-path="url(#clip222)" style="stroke:#000000; stroke-linecap:round; stroke-linejoin:round; stroke-width:2; stroke-opacity:0.1; fill:none" points="
  200.674,870.836 3792.76,870.836 
  "/>
<polyline clip-path="url(#clip222)" style="stroke:#000000; stroke-linecap:round; stroke-linejoin:round; stroke-width:2; stroke-opacity:0.1; fill:none" points="
  200.674,513.701 3792.76,513.701 
  "/>
<polyline clip-path="url(#clip222)" style="stroke:#000000; stroke-linecap:round; stroke-linejoin:round; stroke-width:2; stroke-opacity:0.1; fill:none" points="
  200.674,156.565 3792.76,156.565 
  "/>
<polyline clip-path="url(#clip220)" style="stroke:#000000; stroke-linecap:round; stroke-linejoin:round; stroke-width:4; stroke-opacity:1; fill:none" points="
  200.674,1811.89 200.674,108.352 
  "/>
<polyline clip-path="url(#clip220)" style="stroke:#000000; stroke-linecap:round; stroke-linejoin:round; stroke-width:4; stroke-opacity:1; fill:none" points="
  200.674,1585.11 219.572,1585.11 
  "/>
<polyline clip-path="url(#clip220)" style="stroke:#000000; stroke-linecap:round; stroke-linejoin:round; stroke-width:4; stroke-opacity:1; fill:none" points="
  200.674,1227.97 219.572,1227.97 
  "/>
<polyline clip-path="url(#clip220)" style="stroke:#000000; stroke-linecap:round; stroke-linejoin:round; stroke-width:4; stroke-opacity:1; fill:none" points="
  200.674,870.836 219.572,870.836 
  "/>
<polyline clip-path="url(#clip220)" style="stroke:#000000; stroke-linecap:round; stroke-linejoin:round; stroke-width:4; stroke-opacity:1; fill:none" points="
  200.674,513.701 219.572,513.701 
  "/>
<polyline clip-path="url(#clip220)" style="stroke:#000000; stroke-linecap:round; stroke-linejoin:round; stroke-width:4; stroke-opacity:1; fill:none" points="
  200.674,156.565 219.572,156.565 
  "/>
<path clip-path="url(#clip220)" d="M55.7365 1570.91 Q52.1254 1570.91 50.2967 1574.47 Q48.4912 1578.01 48.4912 1585.14 Q48.4912 1592.25 50.2967 1595.81 Q52.1254 1599.35 55.7365 1599.35 Q59.3707 1599.35 61.1763 1595.81 Q63.005 1592.25 63.005 1585.14 Q63.005 1578.01 61.1763 1574.47 Q59.3707 1570.91 55.7365 1570.91 M55.7365 1567.2 Q61.5467 1567.2 64.6022 1571.81 Q67.6809 1576.39 67.6809 1585.14 Q67.6809 1593.87 64.6022 1598.47 Q61.5467 1603.06 55.7365 1603.06 Q49.9264 1603.06 46.8477 1598.47 Q43.7921 1593.87 43.7921 1585.14 Q43.7921 1576.39 46.8477 1571.81 Q49.9264 1567.2 55.7365 1567.2 Z" fill="#000000" fill-rule="evenodd" fill-opacity="1" /><path clip-path="url(#clip220)" d="M75.8984 1596.51 L80.7827 1596.51 L80.7827 1602.39 L75.8984 1602.39 L75.8984 1596.51 Z" fill="#000000" fill-rule="evenodd" fill-opacity="1" /><path clip-path="url(#clip220)" d="M100.968 1570.91 Q97.3567 1570.91 95.528 1574.47 Q93.7224 1578.01 93.7224 1585.14 Q93.7224 1592.25 95.528 1595.81 Q97.3567 1599.35 100.968 1599.35 Q104.602 1599.35 106.408 1595.81 Q108.236 1592.25 108.236 1585.14 Q108.236 1578.01 106.408 1574.47 Q104.602 1570.91 100.968 1570.91 M100.968 1567.2 Q106.778 1567.2 109.833 1571.81 Q112.912 1576.39 112.912 1585.14 Q112.912 1593.87 109.833 1598.47 Q106.778 1603.06 100.968 1603.06 Q95.1576 1603.06 92.0789 1598.47 Q89.0234 1593.87 89.0234 1585.14 Q89.0234 1576.39 92.0789 1571.81 Q95.1576 1567.2 100.968 1567.2 Z" fill="#000000" fill-rule="evenodd" fill-opacity="1" /><path clip-path="url(#clip220)" d="M131.13 1570.91 Q127.519 1570.91 125.69 1574.47 Q123.884 1578.01 123.884 1585.14 Q123.884 1592.25 125.69 1595.81 Q127.519 1599.35 131.13 1599.35 Q134.764 1599.35 136.569 1595.81 Q138.398 1592.25 138.398 1585.14 Q138.398 1578.01 136.569 1574.47 Q134.764 1570.91 131.13 1570.91 M131.13 1567.2 Q136.94 1567.2 139.995 1571.81 Q143.074 1576.39 143.074 1585.14 Q143.074 1593.87 139.995 1598.47 Q136.94 1603.06 131.13 1603.06 Q125.319 1603.06 122.241 1598.47 Q119.185 1593.87 119.185 1585.14 Q119.185 1576.39 122.241 1571.81 Q125.319 1567.2 131.13 1567.2 Z" fill="#000000" fill-rule="evenodd" fill-opacity="1" /><path clip-path="url(#clip220)" d="M56.7319 1213.77 Q53.1208 1213.77 51.2921 1217.34 Q49.4865 1220.88 49.4865 1228.01 Q49.4865 1235.11 51.2921 1238.68 Q53.1208 1242.22 56.7319 1242.22 Q60.3661 1242.22 62.1717 1238.68 Q64.0004 1235.11 64.0004 1228.01 Q64.0004 1220.88 62.1717 1217.34 Q60.3661 1213.77 56.7319 1213.77 M56.7319 1210.07 Q62.542 1210.07 65.5976 1214.67 Q68.6763 1219.26 68.6763 1228.01 Q68.6763 1236.73 65.5976 1241.34 Q62.542 1245.92 56.7319 1245.92 Q50.9217 1245.92 47.843 1241.34 Q44.7875 1236.73 44.7875 1228.01 Q44.7875 1219.26 47.843 1214.67 Q50.9217 1210.07 56.7319 1210.07 Z" fill="#000000" fill-rule="evenodd" fill-opacity="1" /><path clip-path="url(#clip220)" d="M76.8938 1239.37 L81.778 1239.37 L81.778 1245.25 L76.8938 1245.25 L76.8938 1239.37 Z" fill="#000000" fill-rule="evenodd" fill-opacity="1" /><path clip-path="url(#clip220)" d="M95.9909 1241.32 L112.31 1241.32 L112.31 1245.25 L90.366 1245.25 L90.366 1241.32 Q93.028 1238.56 97.6113 1233.93 Q102.218 1229.28 103.398 1227.94 Q105.644 1225.41 106.523 1223.68 Q107.426 1221.92 107.426 1220.23 Q107.426 1217.47 105.482 1215.74 Q103.56 1214 100.458 1214 Q98.2594 1214 95.8057 1214.77 Q93.3752 1215.53 90.5974 1217.08 L90.5974 1212.36 Q93.4215 1211.22 95.8752 1210.65 Q98.3289 1210.07 100.366 1210.07 Q105.736 1210.07 108.931 1212.75 Q112.125 1215.44 112.125 1219.93 Q112.125 1222.06 111.315 1223.98 Q110.528 1225.88 108.421 1228.47 Q107.843 1229.14 104.741 1232.36 Q101.639 1235.55 95.9909 1241.32 Z" fill="#000000" fill-rule="evenodd" fill-opacity="1" /><path clip-path="url(#clip220)" d="M122.171 1210.69 L140.528 1210.69 L140.528 1214.63 L126.454 1214.63 L126.454 1223.1 Q127.472 1222.75 128.491 1222.59 Q129.509 1222.4 130.528 1222.4 Q136.315 1222.4 139.694 1225.58 Q143.074 1228.75 143.074 1234.16 Q143.074 1239.74 139.602 1242.84 Q136.13 1245.92 129.81 1245.92 Q127.634 1245.92 125.366 1245.55 Q123.12 1245.18 120.713 1244.44 L120.713 1239.74 Q122.796 1240.88 125.019 1241.43 Q127.241 1241.99 129.718 1241.99 Q133.722 1241.99 136.06 1239.88 Q138.398 1237.77 138.398 1234.16 Q138.398 1230.55 136.06 1228.45 Q133.722 1226.34 129.718 1226.34 Q127.843 1226.34 125.968 1226.76 Q124.116 1227.17 122.171 1228.05 L122.171 1210.69 Z" fill="#000000" fill-rule="evenodd" fill-opacity="1" /><path clip-path="url(#clip220)" d="M55.7365 856.635 Q52.1254 856.635 50.2967 860.2 Q48.4912 863.741 48.4912 870.871 Q48.4912 877.977 50.2967 881.542 Q52.1254 885.084 55.7365 885.084 Q59.3707 885.084 61.1763 881.542 Q63.005 877.977 63.005 870.871 Q63.005 863.741 61.1763 860.2 Q59.3707 856.635 55.7365 856.635 M55.7365 852.931 Q61.5467 852.931 64.6022 857.538 Q67.6809 862.121 67.6809 870.871 Q67.6809 879.598 64.6022 884.204 Q61.5467 888.787 55.7365 888.787 Q49.9264 888.787 46.8477 884.204 Q43.7921 879.598 43.7921 870.871 Q43.7921 862.121 46.8477 857.538 Q49.9264 852.931 55.7365 852.931 Z" fill="#000000" fill-rule="evenodd" fill-opacity="1" /><path clip-path="url(#clip220)" d="M75.8984 882.237 L80.7827 882.237 L80.7827 888.116 L75.8984 888.116 L75.8984 882.237 Z" fill="#000000" fill-rule="evenodd" fill-opacity="1" /><path clip-path="url(#clip220)" d="M91.0141 853.556 L109.37 853.556 L109.37 857.491 L95.2965 857.491 L95.2965 865.963 Q96.315 865.616 97.3335 865.454 Q98.352 865.269 99.3705 865.269 Q105.158 865.269 108.537 868.44 Q111.917 871.612 111.917 877.028 Q111.917 882.607 108.445 885.709 Q104.972 888.787 98.6529 888.787 Q96.477 888.787 94.2085 888.417 Q91.9632 888.047 89.5558 887.306 L89.5558 882.607 Q91.6391 883.741 93.8613 884.297 Q96.0835 884.852 98.5604 884.852 Q102.565 884.852 104.903 882.746 Q107.241 880.639 107.241 877.028 Q107.241 873.417 104.903 871.311 Q102.565 869.204 98.5604 869.204 Q96.6854 869.204 94.8104 869.621 Q92.9585 870.038 91.0141 870.917 L91.0141 853.556 Z" fill="#000000" fill-rule="evenodd" fill-opacity="1" /><path clip-path="url(#clip220)" d="M131.13 856.635 Q127.519 856.635 125.69 860.2 Q123.884 863.741 123.884 870.871 Q123.884 877.977 125.69 881.542 Q127.519 885.084 131.13 885.084 Q134.764 885.084 136.569 881.542 Q138.398 877.977 138.398 870.871 Q138.398 863.741 136.569 860.2 Q134.764 856.635 131.13 856.635 M131.13 852.931 Q136.94 852.931 139.995 857.538 Q143.074 862.121 143.074 870.871 Q143.074 879.598 139.995 884.204 Q136.94 888.787 131.13 888.787 Q125.319 888.787 122.241 884.204 Q119.185 879.598 119.185 870.871 Q119.185 862.121 122.241 857.538 Q125.319 852.931 131.13 852.931 Z" fill="#000000" fill-rule="evenodd" fill-opacity="1" /><path clip-path="url(#clip220)" d="M56.7319 499.499 Q53.1208 499.499 51.2921 503.064 Q49.4865 506.606 49.4865 513.736 Q49.4865 520.842 51.2921 524.407 Q53.1208 527.948 56.7319 527.948 Q60.3661 527.948 62.1717 524.407 Q64.0004 520.842 64.0004 513.736 Q64.0004 506.606 62.1717 503.064 Q60.3661 499.499 56.7319 499.499 M56.7319 495.796 Q62.542 495.796 65.5976 500.402 Q68.6763 504.986 68.6763 513.736 Q68.6763 522.462 65.5976 527.069 Q62.542 531.652 56.7319 531.652 Q50.9217 531.652 47.843 527.069 Q44.7875 522.462 44.7875 513.736 Q44.7875 504.986 47.843 500.402 Q50.9217 495.796 56.7319 495.796 Z" fill="#000000" fill-rule="evenodd" fill-opacity="1" /><path clip-path="url(#clip220)" d="M76.8938 525.101 L81.778 525.101 L81.778 530.981 L76.8938 530.981 L76.8938 525.101 Z" fill="#000000" fill-rule="evenodd" fill-opacity="1" /><path clip-path="url(#clip220)" d="M90.7826 496.421 L113.005 496.421 L113.005 498.412 L100.458 530.981 L95.5743 530.981 L107.38 500.356 L90.7826 500.356 L90.7826 496.421 Z" fill="#000000" fill-rule="evenodd" fill-opacity="1" /><path clip-path="url(#clip220)" d="M122.171 496.421 L140.528 496.421 L140.528 500.356 L126.454 500.356 L126.454 508.828 Q127.472 508.481 128.491 508.319 Q129.509 508.134 130.528 508.134 Q136.315 508.134 139.694 511.305 Q143.074 514.476 143.074 519.893 Q143.074 525.472 139.602 528.573 Q136.13 531.652 129.81 531.652 Q127.634 531.652 125.366 531.282 Q123.12 530.911 120.713 530.171 L120.713 525.472 Q122.796 526.606 125.019 527.161 Q127.241 527.717 129.718 527.717 Q133.722 527.717 136.06 525.61 Q138.398 523.504 138.398 519.893 Q138.398 516.282 136.06 514.175 Q133.722 512.069 129.718 512.069 Q127.843 512.069 125.968 512.486 Q124.116 512.902 122.171 513.782 L122.171 496.421 Z" fill="#000000" fill-rule="evenodd" fill-opacity="1" /><path clip-path="url(#clip220)" d="M46.5467 169.91 L54.1856 169.91 L54.1856 143.545 L45.8754 145.211 L45.8754 140.952 L54.1393 139.285 L58.8152 139.285 L58.8152 169.91 L66.454 169.91 L66.454 173.845 L46.5467 173.845 L46.5467 169.91 Z" fill="#000000" fill-rule="evenodd" fill-opacity="1" /><path clip-path="url(#clip220)" d="M75.8984 167.966 L80.7827 167.966 L80.7827 173.845 L75.8984 173.845 L75.8984 167.966 Z" fill="#000000" fill-rule="evenodd" fill-opacity="1" /><path clip-path="url(#clip220)" d="M100.968 142.364 Q97.3567 142.364 95.528 145.929 Q93.7224 149.471 93.7224 156.6 Q93.7224 163.707 95.528 167.271 Q97.3567 170.813 100.968 170.813 Q104.602 170.813 106.408 167.271 Q108.236 163.707 108.236 156.6 Q108.236 149.471 106.408 145.929 Q104.602 142.364 100.968 142.364 M100.968 138.66 Q106.778 138.66 109.833 143.267 Q112.912 147.85 112.912 156.6 Q112.912 165.327 109.833 169.933 Q106.778 174.517 100.968 174.517 Q95.1576 174.517 92.0789 169.933 Q89.0234 165.327 89.0234 156.6 Q89.0234 147.85 92.0789 143.267 Q95.1576 138.66 100.968 138.66 Z" fill="#000000" fill-rule="evenodd" fill-opacity="1" /><path clip-path="url(#clip220)" d="M131.13 142.364 Q127.519 142.364 125.69 145.929 Q123.884 149.471 123.884 156.6 Q123.884 163.707 125.69 167.271 Q127.519 170.813 131.13 170.813 Q134.764 170.813 136.569 167.271 Q138.398 163.707 138.398 156.6 Q138.398 149.471 136.569 145.929 Q134.764 142.364 131.13 142.364 M131.13 138.66 Q136.94 138.66 139.995 143.267 Q143.074 147.85 143.074 156.6 Q143.074 165.327 139.995 169.933 Q136.94 174.517 131.13 174.517 Q125.319 174.517 122.241 169.933 Q119.185 165.327 119.185 156.6 Q119.185 147.85 122.241 143.267 Q125.319 138.66 131.13 138.66 Z" fill="#000000" fill-rule="evenodd" fill-opacity="1" /><path clip-path="url(#clip220)" d="M1633.65 12.096 L1641.84 12.096 L1641.84 72.576 L1633.65 72.576 L1633.65 12.096 Z" fill="#000000" fill-rule="evenodd" fill-opacity="1" /><path clip-path="url(#clip220)" d="M1695.51 45.1919 L1695.51 72.576 L1688.06 72.576 L1688.06 45.4349 Q1688.06 38.994 1685.54 35.7938 Q1683.03 32.5936 1678.01 32.5936 Q1671.97 32.5936 1668.49 36.4419 Q1665.01 40.2903 1665.01 46.9338 L1665.01 72.576 L1657.51 72.576 L1657.51 27.2059 L1665.01 27.2059 L1665.01 34.2544 Q1667.68 30.163 1671.29 28.1376 Q1674.93 26.1121 1679.67 26.1121 Q1687.49 26.1121 1691.5 30.9732 Q1695.51 35.7938 1695.51 45.1919 Z" fill="#000000" fill-rule="evenodd" fill-opacity="1" /><path clip-path="url(#clip220)" d="M1717.75 14.324 L1717.75 27.2059 L1733.1 27.2059 L1733.1 32.9987 L1717.75 32.9987 L1717.75 57.6282 Q1717.75 63.1779 1719.25 64.7578 Q1720.79 66.3376 1725.45 66.3376 L1733.1 66.3376 L1733.1 72.576 L1725.45 72.576 Q1716.82 72.576 1713.54 69.3758 Q1710.26 66.1351 1710.26 57.6282 L1710.26 32.9987 L1704.79 32.9987 L1704.79 27.2059 L1710.26 27.2059 L1710.26 14.324 L1717.75 14.324 Z" fill="#000000" fill-rule="evenodd" fill-opacity="1" /><path clip-path="url(#clip220)" d="M1781.71 48.0275 L1781.71 51.6733 L1747.44 51.6733 Q1747.93 59.3701 1752.06 63.421 Q1756.23 67.4314 1763.65 67.4314 Q1767.94 67.4314 1771.95 66.3781 Q1776 65.3249 1779.97 63.2184 L1779.97 70.267 Q1775.96 71.9684 1771.75 72.8596 Q1767.54 73.7508 1763.2 73.7508 Q1752.34 73.7508 1745.98 67.4314 Q1739.66 61.1119 1739.66 50.3365 Q1739.66 39.1965 1745.66 32.6746 Q1751.7 26.1121 1761.9 26.1121 Q1771.06 26.1121 1776.37 32.0264 Q1781.71 37.9003 1781.71 48.0275 M1774.26 45.84 Q1774.18 39.7232 1770.82 36.0774 Q1767.49 32.4315 1761.99 32.4315 Q1755.75 32.4315 1751.98 35.9558 Q1748.25 39.4801 1747.69 45.8805 L1774.26 45.84 Z" fill="#000000" fill-rule="evenodd" fill-opacity="1" /><path clip-path="url(#clip220)" d="M1823.8 49.3643 Q1823.8 41.2625 1820.44 36.8065 Q1817.12 32.3505 1811.08 32.3505 Q1805.09 32.3505 1801.72 36.8065 Q1798.4 41.2625 1798.4 49.3643 Q1798.4 57.4256 1801.72 61.8816 Q1805.09 66.3376 1811.08 66.3376 Q1817.12 66.3376 1820.44 61.8816 Q1823.8 57.4256 1823.8 49.3643 M1831.26 66.9452 Q1831.26 78.5308 1826.11 84.1616 Q1820.97 89.8329 1810.35 89.8329 Q1806.42 89.8329 1802.94 89.2252 Q1799.46 88.6581 1796.17 87.4428 L1796.17 80.1917 Q1799.46 81.9741 1802.66 82.8248 Q1805.86 83.6755 1809.18 83.6755 Q1816.51 83.6755 1820.16 79.8271 Q1823.8 76.0193 1823.8 68.282 L1823.8 64.5957 Q1821.49 68.6061 1817.89 70.5911 Q1814.28 72.576 1809.26 72.576 Q1800.91 72.576 1795.81 66.2161 Q1790.71 59.8562 1790.71 49.3643 Q1790.71 38.832 1795.81 32.472 Q1800.91 26.1121 1809.26 26.1121 Q1814.28 26.1121 1817.89 28.0971 Q1821.49 30.082 1823.8 34.0924 L1823.8 27.2059 L1831.26 27.2059 L1831.26 66.9452 Z" fill="#000000" fill-rule="evenodd" fill-opacity="1" /><path clip-path="url(#clip220)" d="M1872.9 34.1734 Q1871.64 33.4443 1870.14 33.1202 Q1868.69 32.7556 1866.9 32.7556 Q1860.58 32.7556 1857.18 36.8875 Q1853.82 40.9789 1853.82 48.6757 L1853.82 72.576 L1846.33 72.576 L1846.33 27.2059 L1853.82 27.2059 L1853.82 34.2544 Q1856.17 30.1225 1859.94 28.1376 Q1863.7 26.1121 1869.09 26.1121 Q1869.86 26.1121 1870.79 26.2337 Q1871.72 26.3147 1872.86 26.5172 L1872.9 34.1734 Z" fill="#000000" fill-rule="evenodd" fill-opacity="1" /><path clip-path="url(#clip220)" d="M1901.34 49.7694 Q1892.3 49.7694 1888.82 51.8354 Q1885.34 53.9013 1885.34 58.8839 Q1885.34 62.8538 1887.93 65.2034 Q1890.56 67.5124 1895.06 67.5124 Q1901.26 67.5124 1904.98 63.1374 Q1908.75 58.7219 1908.75 51.4303 L1908.75 49.7694 L1901.34 49.7694 M1916.2 46.6907 L1916.2 72.576 L1908.75 72.576 L1908.75 65.6895 Q1906.2 69.8214 1902.39 71.8063 Q1898.58 73.7508 1893.07 73.7508 Q1886.11 73.7508 1881.97 69.8619 Q1877.88 65.9325 1877.88 59.3701 Q1877.88 51.7138 1882.99 47.825 Q1888.13 43.9361 1898.3 43.9361 L1908.75 43.9361 L1908.75 43.2069 Q1908.75 38.0623 1905.35 35.2672 Q1901.98 32.4315 1895.87 32.4315 Q1891.98 32.4315 1888.29 33.3632 Q1884.61 34.295 1881.2 36.1584 L1881.2 29.2718 Q1885.29 27.692 1889.14 26.9223 Q1892.99 26.1121 1896.64 26.1121 Q1906.48 26.1121 1911.34 31.2163 Q1916.2 36.3204 1916.2 46.6907 Z" fill="#000000" fill-rule="evenodd" fill-opacity="1" /><path clip-path="url(#clip220)" d="M1938.93 14.324 L1938.93 27.2059 L1954.28 27.2059 L1954.28 32.9987 L1938.93 32.9987 L1938.93 57.6282 Q1938.93 63.1779 1940.43 64.7578 Q1941.97 66.3376 1946.63 66.3376 L1954.28 66.3376 L1954.28 72.576 L1946.63 72.576 Q1938 72.576 1934.72 69.3758 Q1931.43 66.1351 1931.43 57.6282 L1931.43 32.9987 L1925.97 32.9987 L1925.97 27.2059 L1931.43 27.2059 L1931.43 14.324 L1938.93 14.324 Z" fill="#000000" fill-rule="evenodd" fill-opacity="1" /><path clip-path="url(#clip220)" d="M2002.89 48.0275 L2002.89 51.6733 L1968.62 51.6733 Q1969.11 59.3701 1973.24 63.421 Q1977.41 67.4314 1984.83 67.4314 Q1989.12 67.4314 1993.13 66.3781 Q1997.18 65.3249 2001.15 63.2184 L2001.15 70.267 Q1997.14 71.9684 1992.93 72.8596 Q1988.71 73.7508 1984.38 73.7508 Q1973.52 73.7508 1967.16 67.4314 Q1960.84 61.1119 1960.84 50.3365 Q1960.84 39.1965 1966.84 32.6746 Q1972.88 26.1121 1983.08 26.1121 Q1992.24 26.1121 1997.55 32.0264 Q2002.89 37.9003 2002.89 48.0275 M1995.44 45.84 Q1995.36 39.7232 1992 36.0774 Q1988.67 32.4315 1983.16 32.4315 Q1976.93 32.4315 1973.16 35.9558 Q1969.43 39.4801 1968.86 45.8805 L1995.44 45.84 Z" fill="#000000" fill-rule="evenodd" fill-opacity="1" /><path clip-path="url(#clip220)" d="M2062.12 49.7694 Q2053.08 49.7694 2049.6 51.8354 Q2046.12 53.9013 2046.12 58.8839 Q2046.12 62.8538 2048.71 65.2034 Q2051.34 67.5124 2055.84 67.5124 Q2062.04 67.5124 2065.76 63.1374 Q2069.53 58.7219 2069.53 51.4303 L2069.53 49.7694 L2062.12 49.7694 M2076.98 46.6907 L2076.98 72.576 L2069.53 72.576 L2069.53 65.6895 Q2066.98 69.8214 2063.17 71.8063 Q2059.36 73.7508 2053.85 73.7508 Q2046.89 73.7508 2042.75 69.8619 Q2038.66 65.9325 2038.66 59.3701 Q2038.66 51.7138 2043.77 47.825 Q2048.91 43.9361 2059.08 43.9361 L2069.53 43.9361 L2069.53 43.2069 Q2069.53 38.0623 2066.13 35.2672 Q2062.76 32.4315 2056.65 32.4315 Q2052.76 32.4315 2049.07 33.3632 Q2045.39 34.295 2041.98 36.1584 L2041.98 29.2718 Q2046.08 27.692 2049.92 26.9223 Q2053.77 26.1121 2057.42 26.1121 Q2067.26 26.1121 2072.12 31.2163 Q2076.98 36.3204 2076.98 46.6907 Z" fill="#000000" fill-rule="evenodd" fill-opacity="1" /><path clip-path="url(#clip220)" d="M2130.05 45.1919 L2130.05 72.576 L2122.6 72.576 L2122.6 45.4349 Q2122.6 38.994 2120.09 35.7938 Q2117.57 32.5936 2112.55 32.5936 Q2106.51 32.5936 2103.03 36.4419 Q2099.55 40.2903 2099.55 46.9338 L2099.55 72.576 L2092.05 72.576 L2092.05 27.2059 L2099.55 27.2059 L2099.55 34.2544 Q2102.22 30.163 2105.83 28.1376 Q2109.47 26.1121 2114.21 26.1121 Q2122.03 26.1121 2126.04 30.9732 Q2130.05 35.7938 2130.05 45.1919 Z" fill="#000000" fill-rule="evenodd" fill-opacity="1" /><path clip-path="url(#clip220)" d="M2174.77 34.0924 L2174.77 9.54393 L2182.23 9.54393 L2182.23 72.576 L2174.77 72.576 L2174.77 65.7705 Q2172.42 69.8214 2168.82 71.8063 Q2165.25 73.7508 2160.23 73.7508 Q2152.01 73.7508 2146.82 67.1883 Q2141.68 60.6258 2141.68 49.9314 Q2141.68 39.2371 2146.82 32.6746 Q2152.01 26.1121 2160.23 26.1121 Q2165.25 26.1121 2168.82 28.0971 Q2172.42 30.0415 2174.77 34.0924 M2149.37 49.9314 Q2149.37 58.1548 2152.74 62.8538 Q2156.14 67.5124 2162.05 67.5124 Q2167.97 67.5124 2171.37 62.8538 Q2174.77 58.1548 2174.77 49.9314 Q2174.77 41.7081 2171.37 37.0496 Q2167.97 32.3505 2162.05 32.3505 Q2156.14 32.3505 2152.74 37.0496 Q2149.37 41.7081 2149.37 49.9314 Z" fill="#000000" fill-rule="evenodd" fill-opacity="1" /><path clip-path="url(#clip220)" d="M2224.27 12.096 L2259.03 12.096 L2259.03 18.9825 L2232.46 18.9825 L2232.46 36.8065 L2256.44 36.8065 L2256.44 43.6931 L2232.46 43.6931 L2232.46 72.576 L2224.27 72.576 L2224.27 12.096 Z" fill="#000000" fill-rule="evenodd" fill-opacity="1" /><path clip-path="url(#clip220)" d="M2265.63 27.2059 L2273.09 27.2059 L2273.09 72.576 L2265.63 72.576 L2265.63 27.2059 M2265.63 9.54393 L2273.09 9.54393 L2273.09 18.9825 L2265.63 18.9825 L2265.63 9.54393 Z" fill="#000000" fill-rule="evenodd" fill-opacity="1" /><path clip-path="url(#clip220)" d="M2314.97 34.1734 Q2313.72 33.4443 2312.22 33.1202 Q2310.76 32.7556 2308.98 32.7556 Q2302.66 32.7556 2299.26 36.8875 Q2295.89 40.9789 2295.89 48.6757 L2295.89 72.576 L2288.4 72.576 L2288.4 27.2059 L2295.89 27.2059 L2295.89 34.2544 Q2298.24 30.1225 2302.01 28.1376 Q2305.78 26.1121 2311.17 26.1121 Q2311.94 26.1121 2312.87 26.2337 Q2313.8 26.3147 2314.93 26.5172 L2314.97 34.1734 Z" fill="#000000" fill-rule="evenodd" fill-opacity="1" /><path clip-path="url(#clip220)" d="M2359.78 48.0275 L2359.78 51.6733 L2325.51 51.6733 Q2325.99 59.3701 2330.12 63.421 Q2334.3 67.4314 2341.71 67.4314 Q2346 67.4314 2350.01 66.3781 Q2354.07 65.3249 2358.04 63.2184 L2358.04 70.267 Q2354.02 71.9684 2349.81 72.8596 Q2345.6 73.7508 2341.26 73.7508 Q2330.41 73.7508 2324.05 67.4314 Q2317.73 61.1119 2317.73 50.3365 Q2317.73 39.1965 2323.72 32.6746 Q2329.76 26.1121 2339.97 26.1121 Q2349.12 26.1121 2354.43 32.0264 Q2359.78 37.9003 2359.78 48.0275 M2352.32 45.84 Q2352.24 39.7232 2348.88 36.0774 Q2345.56 32.4315 2340.05 32.4315 Q2333.81 32.4315 2330.04 35.9558 Q2326.32 39.4801 2325.75 45.8805 L2352.32 45.84 Z" fill="#000000" fill-rule="evenodd" fill-opacity="1" /><polyline clip-path="url(#clip222)" style="stroke:#009af9; stroke-linecap:round; stroke-linejoin:round; stroke-width:4; stroke-opacity:1; fill:none" points="
  302.337,1585.11 336.224,1592.25 370.112,1599.39 403.999,1606.54 437.887,1613.68 471.775,1620.82 505.662,1627.96 539.55,1635.11 573.437,1642.25 607.325,1649.39 
  641.212,1656.53 675.1,1663.68 708.987,1670.82 742.875,1677.96 776.763,1685.1 810.65,1692.25 844.538,1699.39 878.425,1706.53 912.313,1713.68 946.2,1720.82 
  980.088,1727.96 1013.98,1735.1 1047.86,1742.25 1081.75,1749.39 1115.64,1756.53 1149.53,1763.67 1183.41,1756.53 1217.3,1749.39 1251.19,1742.25 1285.08,1735.1 
  1318.96,1727.96 1352.85,1720.82 1386.74,1713.68 1420.63,1706.53 1454.51,1699.39 1488.4,1692.25 1522.29,1685.1 1556.18,1677.96 1590.06,1670.82 1623.95,1663.68 
  1657.84,1656.53 1691.73,1649.39 1725.61,1642.25 1759.5,1635.11 1793.39,1627.96 1827.28,1620.82 1861.16,1613.68 1895.05,1606.54 1928.94,1599.39 1962.83,1592.25 
  1996.71,1585.11 2030.6,1577.96 2064.49,1570.82 2098.38,1563.68 2132.27,1556.54 2166.15,1549.39 2200.04,1542.25 2233.93,1535.11 2267.82,1527.97 2301.7,1520.82 
  2335.59,1513.68 2369.48,1506.54 2403.37,1499.39 2437.25,1492.25 2471.14,1485.11 2505.03,1477.97 2538.92,1470.82 2572.8,1463.68 2606.69,1456.54 2640.58,1449.4 
  2674.47,1442.25 2708.35,1435.11 2742.24,1427.97 2776.13,1420.82 2810.02,1413.68 2843.9,1420.82 2877.79,1427.97 2911.68,1435.11 2945.57,1442.25 2979.45,1449.4 
  3013.34,1456.54 3047.23,1463.68 3081.12,1470.82 3115,1477.97 3148.89,1485.11 3182.78,1492.25 3216.67,1499.39 3250.55,1506.54 3284.44,1513.68 3318.33,1520.82 
  3352.22,1527.97 3386.11,1535.11 3419.99,1542.25 3453.88,1549.39 3487.77,1556.54 3521.66,1563.68 3555.54,1570.82 3589.43,1577.96 3623.32,1585.11 3657.21,1592.25 
  3691.09,1599.39 
  "/>
<polyline clip-path="url(#clip222)" style="stroke:#e26f46; stroke-linecap:round; stroke-linejoin:round; stroke-width:4; stroke-opacity:1; fill:none" points="
  302.337,1585.11 336.224,1585.11 370.112,1585.11 403.999,1585.11 437.887,1585.11 471.775,1585.11 505.662,1585.11 539.55,1585.11 573.437,1585.11 607.325,1585.11 
  641.212,1585.11 675.1,1585.11 708.987,1585.11 742.875,1585.11 776.763,1585.11 810.65,1585.11 844.538,1585.11 878.425,1585.11 912.313,1585.11 946.2,1585.11 
  980.088,1585.11 1013.98,1585.11 1047.86,1585.11 1081.75,1585.11 1115.64,1585.11 1149.53,1585.11 1183.41,156.565 1217.3,156.565 1251.19,156.565 1285.08,156.565 
  1318.96,156.565 1352.85,156.565 1386.74,156.565 1420.63,156.565 1454.51,156.565 1488.4,156.565 1522.29,156.565 1556.18,156.565 1590.06,156.565 1623.95,156.565 
  1657.84,156.565 1691.73,156.565 1725.61,156.565 1759.5,156.565 1793.39,156.565 1827.28,156.565 1861.16,156.565 1895.05,156.565 1928.94,156.565 1962.83,156.565 
  1996.71,156.565 2030.6,156.565 2064.49,156.565 2098.38,156.565 2132.27,156.565 2166.15,156.565 2200.04,156.565 2233.93,156.565 2267.82,156.565 2301.7,156.565 
  2335.59,156.565 2369.48,156.565 2403.37,156.565 2437.25,156.565 2471.14,156.565 2505.03,156.565 2538.92,156.565 2572.8,156.565 2606.69,156.565 2640.58,156.565 
  2674.47,156.565 2708.35,156.565 2742.24,156.565 2776.13,156.565 2810.02,156.565 2843.9,1585.11 2877.79,1585.11 2911.68,1585.11 2945.57,1585.11 2979.45,1585.11 
  3013.34,1585.11 3047.23,1585.11 3081.12,1585.11 3115,1585.11 3148.89,1585.11 3182.78,1585.11 3216.67,1585.11 3250.55,1585.11 3284.44,1585.11 3318.33,1585.11 
  3352.22,1585.11 3386.11,1585.11 3419.99,1585.11 3453.88,1585.11 3487.77,1585.11 3521.66,1585.11 3555.54,1585.11 3589.43,1585.11 3623.32,1585.11 3657.21,1585.11 
  3691.09,1585.11 
  "/>
<path clip-path="url(#clip220)" d="
M2834.09 320.657 L3673.02 320.657 L3673.02 165.137 L2834.09 165.137  Z
  " fill="#ffffff" fill-rule="evenodd" fill-opacity="1"/>
<polyline clip-path="url(#clip220)" style="stroke:#000000; stroke-linecap:round; stroke-linejoin:round; stroke-width:4; stroke-opacity:1; fill:none" points="
  2834.09,320.657 3673.02,320.657 3673.02,165.137 2834.09,165.137 2834.09,320.657 
  "/>
<polyline clip-path="url(#clip220)" style="stroke:#009af9; stroke-linecap:round; stroke-linejoin:round; stroke-width:4; stroke-opacity:1; fill:none" points="
  2874,216.977 3113.47,216.977 
  "/>
<path clip-path="url(#clip220)" d="M3153.38 199.697 L3160.35 199.697 L3169.17 223.215 L3178.04 199.697 L3185 199.697 L3185 234.257 L3180.44 234.257 L3180.44 203.91 L3171.53 227.613 L3166.83 227.613 L3157.92 203.91 L3157.92 234.257 L3153.38 234.257 L3153.38 199.697 Z" fill="#000000" fill-rule="evenodd" fill-opacity="1" /><path clip-path="url(#clip220)" d="M3216.28 220.229 L3216.28 222.312 L3196.69 222.312 Q3196.97 226.71 3199.33 229.025 Q3201.72 231.317 3205.95 231.317 Q3208.41 231.317 3210.7 230.715 Q3213.01 230.113 3215.28 228.909 L3215.28 232.937 Q3212.99 233.909 3210.58 234.419 Q3208.17 234.928 3205.7 234.928 Q3199.49 234.928 3195.86 231.317 Q3192.25 227.706 3192.25 221.548 Q3192.25 215.183 3195.67 211.456 Q3199.12 207.706 3204.96 207.706 Q3210.19 207.706 3213.22 211.085 Q3216.28 214.442 3216.28 220.229 M3212.02 218.979 Q3211.97 215.484 3210.05 213.4 Q3208.15 211.317 3205 211.317 Q3201.44 211.317 3199.29 213.331 Q3197.16 215.345 3196.83 219.002 L3212.02 218.979 Z" fill="#000000" fill-rule="evenodd" fill-opacity="1" /><path clip-path="url(#clip220)" d="M3243.45 213.308 Q3245.05 210.437 3247.27 209.072 Q3249.49 207.706 3252.5 207.706 Q3256.55 207.706 3258.75 210.553 Q3260.95 213.377 3260.95 218.609 L3260.95 234.257 L3256.67 234.257 L3256.67 218.747 Q3256.67 215.021 3255.35 213.215 Q3254.03 211.41 3251.32 211.41 Q3248.01 211.41 3246.09 213.609 Q3244.17 215.808 3244.17 219.604 L3244.17 234.257 L3239.89 234.257 L3239.89 218.747 Q3239.89 214.997 3238.57 213.215 Q3237.25 211.41 3234.49 211.41 Q3231.23 211.41 3229.31 213.632 Q3227.39 215.831 3227.39 219.604 L3227.39 234.257 L3223.11 234.257 L3223.11 208.331 L3227.39 208.331 L3227.39 212.359 Q3228.85 209.974 3230.88 208.84 Q3232.92 207.706 3235.72 207.706 Q3238.54 207.706 3240.51 209.141 Q3242.5 210.576 3243.45 213.308 Z" fill="#000000" fill-rule="evenodd" fill-opacity="1" /><path clip-path="url(#clip220)" d="M3288.06 221.317 Q3288.06 216.618 3286.11 213.956 Q3284.19 211.271 3280.81 211.271 Q3277.43 211.271 3275.49 213.956 Q3273.57 216.618 3273.57 221.317 Q3273.57 226.016 3275.49 228.701 Q3277.43 231.363 3280.81 231.363 Q3284.19 231.363 3286.11 228.701 Q3288.06 226.016 3288.06 221.317 M3273.57 212.266 Q3274.91 209.951 3276.95 208.84 Q3279.01 207.706 3281.85 207.706 Q3286.58 207.706 3289.52 211.456 Q3292.48 215.206 3292.48 221.317 Q3292.48 227.428 3289.52 231.178 Q3286.58 234.928 3281.85 234.928 Q3279.01 234.928 3276.95 233.817 Q3274.91 232.683 3273.57 230.368 L3273.57 234.257 L3269.29 234.257 L3269.29 198.238 L3273.57 198.238 L3273.57 212.266 Z" fill="#000000" fill-rule="evenodd" fill-opacity="1" /><path clip-path="url(#clip220)" d="M3314.56 212.312 Q3313.85 211.896 3312.99 211.71 Q3312.16 211.502 3311.14 211.502 Q3307.53 211.502 3305.58 213.863 Q3303.66 216.201 3303.66 220.599 L3303.66 234.257 L3299.38 234.257 L3299.38 208.331 L3303.66 208.331 L3303.66 212.359 Q3305 209.998 3307.16 208.863 Q3309.31 207.706 3312.39 207.706 Q3312.83 207.706 3313.36 207.775 Q3313.89 207.822 3314.54 207.937 L3314.56 212.312 Z" fill="#000000" fill-rule="evenodd" fill-opacity="1" /><path clip-path="url(#clip220)" d="M3330.81 221.224 Q3325.65 221.224 3323.66 222.405 Q3321.67 223.585 3321.67 226.433 Q3321.67 228.701 3323.15 230.044 Q3324.66 231.363 3327.23 231.363 Q3330.77 231.363 3332.9 228.863 Q3335.05 226.34 3335.05 222.173 L3335.05 221.224 L3330.81 221.224 M3339.31 219.465 L3339.31 234.257 L3335.05 234.257 L3335.05 230.321 Q3333.59 232.683 3331.41 233.817 Q3329.24 234.928 3326.09 234.928 Q3322.11 234.928 3319.75 232.706 Q3317.41 230.46 3317.41 226.71 Q3317.41 222.335 3320.33 220.113 Q3323.27 217.891 3329.08 217.891 L3335.05 217.891 L3335.05 217.474 Q3335.05 214.535 3333.1 212.937 Q3331.18 211.317 3327.69 211.317 Q3325.47 211.317 3323.36 211.849 Q3321.25 212.382 3319.31 213.447 L3319.31 209.511 Q3321.65 208.609 3323.85 208.169 Q3326.04 207.706 3328.13 207.706 Q3333.75 207.706 3336.53 210.623 Q3339.31 213.539 3339.31 219.465 Z" fill="#000000" fill-rule="evenodd" fill-opacity="1" /><path clip-path="url(#clip220)" d="M3369.63 218.609 L3369.63 234.257 L3365.37 234.257 L3365.37 218.747 Q3365.37 215.067 3363.94 213.238 Q3362.5 211.41 3359.63 211.41 Q3356.18 211.41 3354.19 213.609 Q3352.2 215.808 3352.2 219.604 L3352.2 234.257 L3347.92 234.257 L3347.92 208.331 L3352.2 208.331 L3352.2 212.359 Q3353.73 210.021 3355.79 208.863 Q3357.87 207.706 3360.58 207.706 Q3365.05 207.706 3367.34 210.484 Q3369.63 213.238 3369.63 218.609 Z" fill="#000000" fill-rule="evenodd" fill-opacity="1" /><path clip-path="url(#clip220)" d="M3400.3 220.229 L3400.3 222.312 L3380.72 222.312 Q3381 226.71 3383.36 229.025 Q3385.74 231.317 3389.98 231.317 Q3392.43 231.317 3394.72 230.715 Q3397.04 230.113 3399.31 228.909 L3399.31 232.937 Q3397.02 233.909 3394.61 234.419 Q3392.2 234.928 3389.72 234.928 Q3383.52 234.928 3379.89 231.317 Q3376.28 227.706 3376.28 221.548 Q3376.28 215.183 3379.7 211.456 Q3383.15 207.706 3388.98 207.706 Q3394.22 207.706 3397.25 211.085 Q3400.3 214.442 3400.3 220.229 M3396.04 218.979 Q3396 215.484 3394.08 213.4 Q3392.18 211.317 3389.03 211.317 Q3385.47 211.317 3383.31 213.331 Q3381.18 215.345 3380.86 219.002 L3396.04 218.979 Z" fill="#000000" fill-rule="evenodd" fill-opacity="1" /><path clip-path="url(#clip220)" d="M3431.46 234.257 L3418.27 199.697 L3423.15 199.697 L3434.1 228.794 L3445.07 199.697 L3449.93 199.697 L3436.76 234.257 L3431.46 234.257 Z" fill="#000000" fill-rule="evenodd" fill-opacity="1" /><path clip-path="url(#clip220)" d="M3461.16 211.317 Q3457.73 211.317 3455.74 214.002 Q3453.75 216.664 3453.75 221.317 Q3453.75 225.97 3455.72 228.655 Q3457.71 231.317 3461.16 231.317 Q3464.56 231.317 3466.55 228.632 Q3468.54 225.947 3468.54 221.317 Q3468.54 216.71 3466.55 214.025 Q3464.56 211.317 3461.16 211.317 M3461.16 207.706 Q3466.71 207.706 3469.89 211.317 Q3473.06 214.928 3473.06 221.317 Q3473.06 227.683 3469.89 231.317 Q3466.71 234.928 3461.16 234.928 Q3455.58 234.928 3452.41 231.317 Q3449.26 227.683 3449.26 221.317 Q3449.26 214.928 3452.41 211.317 Q3455.58 207.706 3461.16 207.706 Z" fill="#000000" fill-rule="evenodd" fill-opacity="1" /><path clip-path="url(#clip220)" d="M3480.12 198.238 L3484.38 198.238 L3484.38 234.257 L3480.12 234.257 L3480.12 198.238 Z" fill="#000000" fill-rule="evenodd" fill-opacity="1" /><path clip-path="url(#clip220)" d="M3497.5 200.97 L3497.5 208.331 L3506.27 208.331 L3506.27 211.641 L3497.5 211.641 L3497.5 225.715 Q3497.5 228.886 3498.36 229.789 Q3499.24 230.692 3501.9 230.692 L3506.27 230.692 L3506.27 234.257 L3501.9 234.257 Q3496.97 234.257 3495.09 232.428 Q3493.22 230.576 3493.22 225.715 L3493.22 211.641 L3490.09 211.641 L3490.09 208.331 L3493.22 208.331 L3493.22 200.97 L3497.5 200.97 Z" fill="#000000" fill-rule="evenodd" fill-opacity="1" /><path clip-path="url(#clip220)" d="M3523.66 221.224 Q3518.5 221.224 3516.51 222.405 Q3514.52 223.585 3514.52 226.433 Q3514.52 228.701 3516 230.044 Q3517.5 231.363 3520.07 231.363 Q3523.61 231.363 3525.74 228.863 Q3527.9 226.34 3527.9 222.173 L3527.9 221.224 L3523.66 221.224 M3532.15 219.465 L3532.15 234.257 L3527.9 234.257 L3527.9 230.321 Q3526.44 232.683 3524.26 233.817 Q3522.09 234.928 3518.94 234.928 Q3514.96 234.928 3512.59 232.706 Q3510.26 230.46 3510.26 226.71 Q3510.26 222.335 3513.17 220.113 Q3516.11 217.891 3521.92 217.891 L3527.9 217.891 L3527.9 217.474 Q3527.9 214.535 3525.95 212.937 Q3524.03 211.317 3520.53 211.317 Q3518.31 211.317 3516.21 211.849 Q3514.1 212.382 3512.15 213.447 L3512.15 209.511 Q3514.49 208.609 3516.69 208.169 Q3518.89 207.706 3520.97 207.706 Q3526.6 207.706 3529.38 210.623 Q3532.15 213.539 3532.15 219.465 Z" fill="#000000" fill-rule="evenodd" fill-opacity="1" /><path clip-path="url(#clip220)" d="M3557.99 220.993 Q3557.99 216.363 3556.07 213.817 Q3554.17 211.271 3550.72 211.271 Q3547.29 211.271 3545.37 213.817 Q3543.47 216.363 3543.47 220.993 Q3543.47 225.599 3545.37 228.146 Q3547.29 230.692 3550.72 230.692 Q3554.17 230.692 3556.07 228.146 Q3557.99 225.599 3557.99 220.993 M3562.25 231.039 Q3562.25 237.659 3559.31 240.877 Q3556.37 244.118 3550.3 244.118 Q3548.06 244.118 3546.07 243.77 Q3544.08 243.446 3542.2 242.752 L3542.2 238.608 Q3544.08 239.627 3545.9 240.113 Q3547.73 240.599 3549.63 240.599 Q3553.82 240.599 3555.9 238.4 Q3557.99 236.224 3557.99 231.803 L3557.99 229.696 Q3556.67 231.988 3554.61 233.122 Q3552.55 234.257 3549.68 234.257 Q3544.91 234.257 3541.99 230.622 Q3539.08 226.988 3539.08 220.993 Q3539.08 214.974 3541.99 211.34 Q3544.91 207.706 3549.68 207.706 Q3552.55 207.706 3554.61 208.84 Q3556.67 209.974 3557.99 212.266 L3557.99 208.331 L3562.25 208.331 L3562.25 231.039 Z" fill="#000000" fill-rule="evenodd" fill-opacity="1" /><path clip-path="url(#clip220)" d="M3593.2 220.229 L3593.2 222.312 L3573.61 222.312 Q3573.89 226.71 3576.25 229.025 Q3578.64 231.317 3582.87 231.317 Q3585.33 231.317 3587.62 230.715 Q3589.93 230.113 3592.2 228.909 L3592.2 232.937 Q3589.91 233.909 3587.5 234.419 Q3585.09 234.928 3582.62 234.928 Q3576.41 234.928 3572.78 231.317 Q3569.17 227.706 3569.17 221.548 Q3569.17 215.183 3572.59 211.456 Q3576.04 207.706 3581.88 207.706 Q3587.11 207.706 3590.14 211.085 Q3593.2 214.442 3593.2 220.229 M3588.94 218.979 Q3588.89 215.484 3586.97 213.4 Q3585.07 211.317 3581.92 211.317 Q3578.36 211.317 3576.21 213.331 Q3574.08 215.345 3573.75 219.002 L3588.94 218.979 Z" fill="#000000" fill-rule="evenodd" fill-opacity="1" /><polyline clip-path="url(#clip220)" style="stroke:#e26f46; stroke-linecap:round; stroke-linejoin:round; stroke-width:4; stroke-opacity:1; fill:none" points="
  2874,268.817 3113.47,268.817 
  "/>
<path clip-path="url(#clip220)" d="M3181.25 254.199 L3181.25 259.129 Q3178.89 256.93 3176.21 255.842 Q3173.55 254.754 3170.54 254.754 Q3164.61 254.754 3161.46 258.388 Q3158.31 262 3158.31 268.851 Q3158.31 275.68 3161.46 279.314 Q3164.61 282.925 3170.54 282.925 Q3173.55 282.925 3176.21 281.837 Q3178.89 280.749 3181.25 278.55 L3181.25 283.435 Q3178.8 285.101 3176.05 285.935 Q3173.31 286.768 3170.26 286.768 Q3162.41 286.768 3157.9 281.976 Q3153.38 277.162 3153.38 268.851 Q3153.38 260.518 3157.9 255.726 Q3162.41 250.912 3170.26 250.912 Q3173.36 250.912 3176.09 251.745 Q3178.85 252.555 3181.25 254.199 Z" fill="#000000" fill-rule="evenodd" fill-opacity="1" /><path clip-path="url(#clip220)" d="M3187.85 275.865 L3187.85 260.171 L3192.11 260.171 L3192.11 275.703 Q3192.11 279.384 3193.55 281.236 Q3194.98 283.064 3197.85 283.064 Q3201.3 283.064 3203.29 280.865 Q3205.3 278.666 3205.3 274.87 L3205.3 260.171 L3209.56 260.171 L3209.56 286.097 L3205.3 286.097 L3205.3 282.115 Q3203.75 284.476 3201.69 285.634 Q3199.66 286.768 3196.95 286.768 Q3192.48 286.768 3190.17 283.99 Q3187.85 281.212 3187.85 275.865 M3198.57 259.546 L3198.57 259.546 Z" fill="#000000" fill-rule="evenodd" fill-opacity="1" /><path clip-path="url(#clip220)" d="M3233.36 264.152 Q3232.64 263.736 3231.79 263.55 Q3230.95 263.342 3229.93 263.342 Q3226.32 263.342 3224.38 265.703 Q3222.46 268.041 3222.46 272.439 L3222.46 286.097 L3218.17 286.097 L3218.17 260.171 L3222.46 260.171 L3222.46 264.199 Q3223.8 261.838 3225.95 260.703 Q3228.11 259.546 3231.18 259.546 Q3231.62 259.546 3232.16 259.615 Q3232.69 259.662 3233.34 259.777 L3233.36 264.152 Z" fill="#000000" fill-rule="evenodd" fill-opacity="1" /><path clip-path="url(#clip220)" d="M3252.02 264.152 Q3251.3 263.736 3250.44 263.55 Q3249.61 263.342 3248.59 263.342 Q3244.98 263.342 3243.04 265.703 Q3241.11 268.041 3241.11 272.439 L3241.11 286.097 L3236.83 286.097 L3236.83 260.171 L3241.11 260.171 L3241.11 264.199 Q3242.46 261.838 3244.61 260.703 Q3246.76 259.546 3249.84 259.546 Q3250.28 259.546 3250.81 259.615 Q3251.35 259.662 3251.99 259.777 L3252.02 264.152 Z" fill="#000000" fill-rule="evenodd" fill-opacity="1" /><path clip-path="url(#clip220)" d="M3277.62 272.069 L3277.62 274.152 L3258.04 274.152 Q3258.31 278.55 3260.67 280.865 Q3263.06 283.157 3267.29 283.157 Q3269.75 283.157 3272.04 282.555 Q3274.35 281.953 3276.62 280.749 L3276.62 284.777 Q3274.33 285.749 3271.92 286.259 Q3269.52 286.768 3267.04 286.768 Q3260.84 286.768 3257.2 283.157 Q3253.59 279.546 3253.59 273.388 Q3253.59 267.023 3257.02 263.296 Q3260.47 259.546 3266.3 259.546 Q3271.53 259.546 3274.56 262.925 Q3277.62 266.282 3277.62 272.069 M3273.36 270.819 Q3273.31 267.324 3271.39 265.24 Q3269.49 263.157 3266.35 263.157 Q3262.78 263.157 3260.63 265.171 Q3258.5 267.185 3258.17 270.842 L3273.36 270.819 Z" fill="#000000" fill-rule="evenodd" fill-opacity="1" /><path clip-path="url(#clip220)" d="M3306.16 270.449 L3306.16 286.097 L3301.9 286.097 L3301.9 270.587 Q3301.9 266.907 3300.47 265.078 Q3299.03 263.25 3296.16 263.25 Q3292.71 263.25 3290.72 265.449 Q3288.73 267.648 3288.73 271.444 L3288.73 286.097 L3284.45 286.097 L3284.45 260.171 L3288.73 260.171 L3288.73 264.199 Q3290.26 261.861 3292.32 260.703 Q3294.4 259.546 3297.11 259.546 Q3301.58 259.546 3303.87 262.324 Q3306.16 265.078 3306.16 270.449 Z" fill="#000000" fill-rule="evenodd" fill-opacity="1" /><path clip-path="url(#clip220)" d="M3318.87 252.81 L3318.87 260.171 L3327.64 260.171 L3327.64 263.481 L3318.87 263.481 L3318.87 277.555 Q3318.87 280.726 3319.73 281.629 Q3320.6 282.532 3323.27 282.532 L3327.64 282.532 L3327.64 286.097 L3323.27 286.097 Q3318.34 286.097 3316.46 284.268 Q3314.59 282.416 3314.59 277.555 L3314.59 263.481 L3311.46 263.481 L3311.46 260.171 L3314.59 260.171 L3314.59 252.81 L3318.87 252.81 Z" fill="#000000" fill-rule="evenodd" fill-opacity="1" /></svg>
