<?xml version="1.0" encoding="utf-8"?>
<svg xmlns="http://www.w3.org/2000/svg" xmlns:xlink="http://www.w3.org/1999/xlink" width="960" height="480" viewBox="0 0 3840 1920">
<defs>
  <clipPath id="clip170">
    <rect x="0" y="0" width="3840" height="1920"/>
  </clipPath>
</defs>
<path clip-path="url(#clip170)" d="
M0 1920 L3840 1920 L3840 0 L0 0  Z
  " fill="#ffffff" fill-rule="evenodd" fill-opacity="1"/>
<defs>
  <clipPath id="clip171">
    <rect x="768" y="0" width="2689" height="1920"/>
  </clipPath>
</defs>
<path clip-path="url(#clip170)" d="
M341.368 1821.37 L3792.76 1821.37 L3792.76 108.352 L341.368 108.352  Z
  " fill="#ffffff" fill-rule="evenodd" fill-opacity="1"/>
<defs>
  <clipPath id="clip172">
    <rect x="341" y="108" width="3452" height="1714"/>
  </clipPath>
</defs>
<polyline clip-path="url(#clip170)" style="stroke:#000000; stroke-linecap:round; stroke-linejoin:round; stroke-width:4; stroke-opacity:1; fill:none" points="
  341.368,1821.37 3792.76,1821.37 
  "/>
<path clip-path="url(#clip170)" d="M1764.69 1888.47 L1774.27 1888.47 L1786.4 1920.81 L1798.59 1888.47 L1808.17 1888.47 L1808.17 1935.99 L1801.9 1935.99 L1801.9 1894.26 L1789.64 1926.86 L1783.18 1926.86 L1770.93 1894.26 L1770.93 1935.99 L1764.69 1935.99 L1764.69 1888.47 Z" fill="#000000" fill-rule="evenodd" fill-opacity="1" /><path clip-path="url(#clip170)" d="M1851.17 1916.7 L1851.17 1919.57 L1824.24 1919.57 Q1824.62 1925.62 1827.87 1928.8 Q1831.15 1931.95 1836.97 1931.95 Q1840.35 1931.95 1843.5 1931.12 Q1846.68 1930.29 1849.8 1928.64 L1849.8 1934.18 Q1846.65 1935.51 1843.34 1936.21 Q1840.03 1936.91 1836.62 1936.91 Q1828.09 1936.91 1823.1 1931.95 Q1818.13 1926.98 1818.13 1918.52 Q1818.13 1909.77 1822.84 1904.64 Q1827.58 1899.48 1835.6 1899.48 Q1842.8 1899.48 1846.97 1904.13 Q1851.17 1908.75 1851.17 1916.7 M1845.31 1914.99 Q1845.25 1910.18 1842.61 1907.31 Q1840 1904.45 1835.67 1904.45 Q1830.77 1904.45 1827.81 1907.22 Q1824.88 1909.99 1824.43 1915.02 L1845.31 1914.99 Z" fill="#000000" fill-rule="evenodd" fill-opacity="1" /><path clip-path="url(#clip170)" d="M1888.54 1907.19 Q1890.73 1903.24 1893.79 1901.36 Q1896.84 1899.48 1900.98 1899.48 Q1906.55 1899.48 1909.57 1903.4 Q1912.6 1907.28 1912.6 1914.48 L1912.6 1935.99 L1906.71 1935.99 L1906.71 1914.67 Q1906.71 1909.54 1904.9 1907.06 Q1903.08 1904.58 1899.36 1904.58 Q1894.81 1904.58 1892.16 1907.6 Q1889.52 1910.62 1889.52 1915.84 L1889.52 1935.99 L1883.63 1935.99 L1883.63 1914.67 Q1883.63 1909.51 1881.82 1907.06 Q1880.01 1904.58 1876.22 1904.58 Q1871.73 1904.58 1869.09 1907.63 Q1866.45 1910.66 1866.45 1915.84 L1866.45 1935.99 L1860.56 1935.99 L1860.56 1900.34 L1866.45 1900.34 L1866.45 1905.88 Q1868.45 1902.6 1871.25 1901.04 Q1874.05 1899.48 1877.9 1899.48 Q1881.79 1899.48 1884.49 1901.46 Q1887.23 1903.43 1888.54 1907.19 Z" fill="#000000" fill-rule="evenodd" fill-opacity="1" /><path clip-path="url(#clip170)" d="M1949.87 1918.2 Q1949.87 1911.74 1947.2 1908.08 Q1944.55 1904.39 1939.91 1904.39 Q1935.26 1904.39 1932.59 1908.08 Q1929.94 1911.74 1929.94 1918.2 Q1929.94 1924.66 1932.59 1928.35 Q1935.26 1932.01 1939.91 1932.01 Q1944.55 1932.01 1947.2 1928.35 Q1949.87 1924.66 1949.87 1918.2 M1929.94 1905.75 Q1931.79 1902.57 1934.59 1901.04 Q1937.42 1899.48 1941.34 1899.48 Q1947.83 1899.48 1951.87 1904.64 Q1955.95 1909.8 1955.95 1918.2 Q1955.95 1926.6 1951.87 1931.76 Q1947.83 1936.91 1941.34 1936.91 Q1937.42 1936.91 1934.59 1935.39 Q1931.79 1933.83 1929.94 1930.64 L1929.94 1935.99 L1924.06 1935.99 L1924.06 1886.47 L1929.94 1886.47 L1929.94 1905.75 Z" fill="#000000" fill-rule="evenodd" fill-opacity="1" /><path clip-path="url(#clip170)" d="M1986.31 1905.82 Q1985.33 1905.25 1984.15 1904.99 Q1983 1904.7 1981.6 1904.7 Q1976.64 1904.7 1973.96 1907.95 Q1971.32 1911.17 1971.32 1917.21 L1971.32 1935.99 L1965.43 1935.99 L1965.43 1900.34 L1971.32 1900.34 L1971.32 1905.88 Q1973.17 1902.64 1976.13 1901.08 Q1979.09 1899.48 1983.32 1899.48 Q1983.93 1899.48 1984.66 1899.58 Q1985.39 1899.64 1986.28 1899.8 L1986.31 1905.82 Z" fill="#000000" fill-rule="evenodd" fill-opacity="1" /><path clip-path="url(#clip170)" d="M2008.66 1918.07 Q2001.56 1918.07 1998.82 1919.7 Q1996.08 1921.32 1996.08 1925.23 Q1996.08 1928.35 1998.12 1930.2 Q2000.19 1932.01 2003.72 1932.01 Q2008.59 1932.01 2011.52 1928.58 Q2014.48 1925.11 2014.48 1919.38 L2014.48 1918.07 L2008.66 1918.07 M2020.34 1915.65 L2020.34 1935.99 L2014.48 1935.99 L2014.48 1930.58 Q2012.48 1933.83 2009.48 1935.39 Q2006.49 1936.91 2002.16 1936.91 Q1996.69 1936.91 1993.44 1933.86 Q1990.23 1930.77 1990.23 1925.62 Q1990.23 1919.6 1994.24 1916.54 Q1998.28 1913.49 2006.27 1913.49 L2014.48 1913.49 L2014.48 1912.92 Q2014.48 1908.87 2011.81 1906.68 Q2009.17 1904.45 2004.36 1904.45 Q2001.3 1904.45 1998.41 1905.18 Q1995.51 1905.91 1992.84 1907.38 L1992.84 1901.97 Q1996.05 1900.73 1999.08 1900.12 Q2002.1 1899.48 2004.96 1899.48 Q2012.7 1899.48 2016.52 1903.49 Q2020.34 1907.51 2020.34 1915.65 Z" fill="#000000" fill-rule="evenodd" fill-opacity="1" /><path clip-path="url(#clip170)" d="M2062.03 1914.48 L2062.03 1935.99 L2056.18 1935.99 L2056.18 1914.67 Q2056.18 1909.61 2054.2 1907.09 Q2052.23 1904.58 2048.28 1904.58 Q2043.54 1904.58 2040.8 1907.6 Q2038.07 1910.62 2038.07 1915.84 L2038.07 1935.99 L2032.18 1935.99 L2032.18 1900.34 L2038.07 1900.34 L2038.07 1905.88 Q2040.17 1902.67 2043 1901.08 Q2045.86 1899.48 2049.59 1899.48 Q2055.73 1899.48 2058.88 1903.3 Q2062.03 1907.09 2062.03 1914.48 Z" fill="#000000" fill-rule="evenodd" fill-opacity="1" /><path clip-path="url(#clip170)" d="M2104.21 1916.7 L2104.21 1919.57 L2077.28 1919.57 Q2077.66 1925.62 2080.91 1928.8 Q2084.19 1931.95 2090.01 1931.95 Q2093.38 1931.95 2096.54 1931.12 Q2099.72 1930.29 2102.84 1928.64 L2102.84 1934.18 Q2099.69 1935.51 2096.38 1936.21 Q2093.07 1936.91 2089.66 1936.91 Q2081.13 1936.91 2076.13 1931.95 Q2071.17 1926.98 2071.17 1918.52 Q2071.17 1909.77 2075.88 1904.64 Q2080.62 1899.48 2088.64 1899.48 Q2095.83 1899.48 2100 1904.13 Q2104.21 1908.75 2104.21 1916.7 M2098.35 1914.99 Q2098.29 1910.18 2095.64 1907.31 Q2093.03 1904.45 2088.71 1904.45 Q2083.8 1904.45 2080.84 1907.22 Q2077.92 1909.99 2077.47 1915.02 L2098.35 1914.99 Z" fill="#000000" fill-rule="evenodd" fill-opacity="1" /><path clip-path="url(#clip170)" d="M2147.05 1935.99 L2128.9 1888.47 L2135.62 1888.47 L2150.68 1928.48 L2165.76 1888.47 L2172.45 1888.47 L2154.34 1935.99 L2147.05 1935.99 Z" fill="#000000" fill-rule="evenodd" fill-opacity="1" /><path clip-path="url(#clip170)" d="M2187.88 1904.45 Q2183.17 1904.45 2180.44 1908.14 Q2177.7 1911.8 2177.7 1918.2 Q2177.7 1924.6 2180.4 1928.29 Q2183.14 1931.95 2187.88 1931.95 Q2192.56 1931.95 2195.3 1928.26 Q2198.04 1924.57 2198.04 1918.2 Q2198.04 1911.87 2195.3 1908.17 Q2192.56 1904.45 2187.88 1904.45 M2187.88 1899.48 Q2195.52 1899.48 2199.88 1904.45 Q2204.24 1909.42 2204.24 1918.2 Q2204.24 1926.95 2199.88 1931.95 Q2195.52 1936.91 2187.88 1936.91 Q2180.21 1936.91 2175.85 1931.95 Q2171.52 1926.95 2171.52 1918.2 Q2171.52 1909.42 2175.85 1904.45 Q2180.21 1899.48 2187.88 1899.48 Z" fill="#000000" fill-rule="evenodd" fill-opacity="1" /><path clip-path="url(#clip170)" d="M2213.95 1886.47 L2219.81 1886.47 L2219.81 1935.99 L2213.95 1935.99 L2213.95 1886.47 Z" fill="#000000" fill-rule="evenodd" fill-opacity="1" /><path clip-path="url(#clip170)" d="M2237.85 1890.22 L2237.85 1900.34 L2249.92 1900.34 L2249.92 1904.9 L2237.85 1904.9 L2237.85 1924.25 Q2237.85 1928.61 2239.03 1929.85 Q2240.24 1931.09 2243.9 1931.09 L2249.92 1931.09 L2249.92 1935.99 L2243.9 1935.99 Q2237.12 1935.99 2234.54 1933.48 Q2231.97 1930.93 2231.97 1924.25 L2231.97 1904.9 L2227.67 1904.9 L2227.67 1900.34 L2231.97 1900.34 L2231.97 1890.22 L2237.85 1890.22 Z" fill="#000000" fill-rule="evenodd" fill-opacity="1" /><path clip-path="url(#clip170)" d="M2273.82 1918.07 Q2266.72 1918.07 2263.98 1919.7 Q2261.25 1921.32 2261.25 1925.23 Q2261.25 1928.35 2263.28 1930.2 Q2265.35 1932.01 2268.89 1932.01 Q2273.76 1932.01 2276.68 1928.58 Q2279.64 1925.11 2279.64 1919.38 L2279.64 1918.07 L2273.82 1918.07 M2285.5 1915.65 L2285.5 1935.99 L2279.64 1935.99 L2279.64 1930.58 Q2277.64 1933.83 2274.65 1935.39 Q2271.66 1936.91 2267.33 1936.91 Q2261.85 1936.91 2258.61 1933.86 Q2255.39 1930.77 2255.39 1925.62 Q2255.39 1919.6 2259.4 1916.54 Q2263.44 1913.49 2271.43 1913.49 L2279.64 1913.49 L2279.64 1912.92 Q2279.64 1908.87 2276.97 1906.68 Q2274.33 1904.45 2269.52 1904.45 Q2266.47 1904.45 2263.57 1905.18 Q2260.67 1905.91 2258 1907.38 L2258 1901.97 Q2261.22 1900.73 2264.24 1900.12 Q2267.26 1899.48 2270.13 1899.48 Q2277.86 1899.48 2281.68 1903.49 Q2285.5 1907.51 2285.5 1915.65 Z" fill="#000000" fill-rule="evenodd" fill-opacity="1" /><path clip-path="url(#clip170)" d="M2321.02 1917.75 Q2321.02 1911.39 2318.38 1907.89 Q2315.77 1904.39 2311.03 1904.39 Q2306.32 1904.39 2303.68 1907.89 Q2301.07 1911.39 2301.07 1917.75 Q2301.07 1924.09 2303.68 1927.59 Q2306.32 1931.09 2311.03 1931.09 Q2315.77 1931.09 2318.38 1927.59 Q2321.02 1924.09 2321.02 1917.75 M2326.88 1931.57 Q2326.88 1940.67 2322.84 1945.09 Q2318.79 1949.55 2310.45 1949.55 Q2307.37 1949.55 2304.63 1949.07 Q2301.89 1948.63 2299.31 1947.67 L2299.31 1941.98 Q2301.89 1943.38 2304.41 1944.04 Q2306.92 1944.71 2309.53 1944.71 Q2315.29 1944.71 2318.16 1941.69 Q2321.02 1938.7 2321.02 1932.62 L2321.02 1929.72 Q2319.21 1932.87 2316.37 1934.43 Q2313.54 1935.99 2309.6 1935.99 Q2303.04 1935.99 2299.03 1930.99 Q2295.02 1926 2295.02 1917.75 Q2295.02 1909.48 2299.03 1904.48 Q2303.04 1899.48 2309.6 1899.48 Q2313.54 1899.48 2316.37 1901.04 Q2319.21 1902.6 2321.02 1905.75 L2321.02 1900.34 L2326.88 1900.34 L2326.88 1931.57 Z" fill="#000000" fill-rule="evenodd" fill-opacity="1" /><path clip-path="url(#clip170)" d="M2369.43 1916.7 L2369.43 1919.57 L2342.51 1919.57 Q2342.89 1925.62 2346.13 1928.8 Q2349.41 1931.95 2355.24 1931.95 Q2358.61 1931.95 2361.76 1931.12 Q2364.95 1930.29 2368.06 1928.64 L2368.06 1934.18 Q2364.91 1935.51 2361.6 1936.21 Q2358.29 1936.91 2354.89 1936.91 Q2346.36 1936.91 2341.36 1931.95 Q2336.39 1926.98 2336.39 1918.52 Q2336.39 1909.77 2341.11 1904.64 Q2345.85 1899.48 2353.87 1899.48 Q2361.06 1899.48 2365.23 1904.13 Q2369.43 1908.75 2369.43 1916.7 M2363.58 1914.99 Q2363.51 1910.18 2360.87 1907.31 Q2358.26 1904.45 2353.93 1904.45 Q2349.03 1904.45 2346.07 1907.22 Q2343.14 1909.99 2342.7 1915.02 L2363.58 1914.99 Z" fill="#000000" fill-rule="evenodd" fill-opacity="1" /><polyline clip-path="url(#clip172)" style="stroke:#000000; stroke-linecap:round; stroke-linejoin:round; stroke-width:2; stroke-opacity:0.1; fill:none" points="
  341.368,1821.37 3792.76,1821.37 
  "/>
<polyline clip-path="url(#clip172)" style="stroke:#000000; stroke-linecap:round; stroke-linejoin:round; stroke-width:2; stroke-opacity:0.1; fill:none" points="
  341.368,108.352 3792.76,108.352 
  "/>
<polyline clip-path="url(#clip170)" style="stroke:#000000; stroke-linecap:round; stroke-linejoin:round; stroke-width:4; stroke-opacity:1; fill:none" points="
  341.368,1821.37 341.368,108.352 
  "/>
<polyline clip-path="url(#clip170)" style="stroke:#000000; stroke-linecap:round; stroke-linejoin:round; stroke-width:4; stroke-opacity:1; fill:none" points="
  341.368,1821.37 360.265,1821.37 
  "/>
<polyline clip-path="url(#clip170)" style="stroke:#000000; stroke-linecap:round; stroke-linejoin:round; stroke-width:4; stroke-opacity:1; fill:none" points="
  341.368,108.352 360.265,108.352 
  "/>
<path clip-path="url(#clip170)" d="M66.0374 92.2064 L66.0374 96.7665 Q63.3754 95.4934 61.0143 94.8684 Q58.6532 94.2434 56.4541 94.2434 Q52.6347 94.2434 50.5513 95.7249 Q48.4912 97.2064 48.4912 99.9378 Q48.4912 102.229 49.8569 103.41 Q51.2458 104.567 55.0884 105.285 L57.9124 105.864 Q63.1439 106.859 65.6207 109.382 Q68.1207 111.882 68.1207 116.095 Q68.1207 121.118 64.7411 123.711 Q61.3846 126.303 54.88 126.303 Q52.4263 126.303 49.6486 125.748 Q46.894 125.192 43.931 124.104 L43.931 119.29 Q46.7782 120.887 49.5097 121.697 Q52.2412 122.507 54.88 122.507 Q58.8846 122.507 61.0606 120.933 Q63.2365 119.359 63.2365 116.442 Q63.2365 113.896 61.6624 112.461 Q60.1115 111.026 56.5467 110.308 L53.6995 109.753 Q48.468 108.711 46.1301 106.489 Q43.7921 104.266 43.7921 100.308 Q43.7921 95.7249 47.0097 93.086 Q50.2504 90.4471 55.9217 90.4471 Q58.3522 90.4471 60.8754 90.8869 Q63.3985 91.3268 66.0374 92.2064 Z" fill="#000000" fill-rule="evenodd" fill-opacity="1" /><path clip-path="url(#clip170)" d="M87.0095 112.6 Q81.8475 112.6 79.8567 113.78 Q77.866 114.961 77.866 117.808 Q77.866 120.077 79.3475 121.419 Q80.8521 122.739 83.4215 122.739 Q86.9632 122.739 89.0928 120.239 Q91.2456 117.716 91.2456 113.549 L91.2456 112.6 L87.0095 112.6 M95.5048 110.841 L95.5048 125.632 L91.2456 125.632 L91.2456 121.697 Q89.7872 124.058 87.6113 125.192 Q85.4354 126.303 82.2873 126.303 Q78.3058 126.303 75.9447 124.081 Q73.6068 121.836 73.6068 118.086 Q73.6068 113.711 76.5234 111.489 Q79.4632 109.266 85.2734 109.266 L91.2456 109.266 L91.2456 108.85 Q91.2456 105.91 89.3011 104.313 Q87.3799 102.692 83.8845 102.692 Q81.6623 102.692 79.5558 103.225 Q77.4494 103.757 75.5049 104.822 L75.5049 100.887 Q77.8429 99.9841 80.0419 99.5443 Q82.241 99.0813 84.3243 99.0813 Q89.9493 99.0813 92.727 101.998 Q95.5048 104.915 95.5048 110.841 Z" fill="#000000" fill-rule="evenodd" fill-opacity="1" /><path clip-path="url(#clip170)" d="M108.491 92.3453 L108.491 99.7063 L117.264 99.7063 L117.264 103.017 L108.491 103.017 L108.491 117.091 Q108.491 120.262 109.347 121.165 Q110.227 122.067 112.889 122.067 L117.264 122.067 L117.264 125.632 L112.889 125.632 Q107.958 125.632 106.083 123.803 Q104.208 121.952 104.208 117.091 L104.208 103.017 L101.083 103.017 L101.083 99.7063 L104.208 99.7063 L104.208 92.3453 L108.491 92.3453 Z" fill="#000000" fill-rule="evenodd" fill-opacity="1" /><path clip-path="url(#clip170)" d="M122.426 115.401 L122.426 99.7063 L126.685 99.7063 L126.685 115.239 Q126.685 118.919 128.12 120.771 Q129.556 122.6 132.426 122.6 Q135.875 122.6 137.866 120.401 Q139.88 118.202 139.88 114.405 L139.88 99.7063 L144.139 99.7063 L144.139 125.632 L139.88 125.632 L139.88 121.651 Q138.329 124.012 136.268 125.169 Q134.231 126.303 131.523 126.303 Q127.056 126.303 124.741 123.526 Q122.426 120.748 122.426 115.401 M133.143 99.0813 L133.143 99.0813 Z" fill="#000000" fill-rule="evenodd" fill-opacity="1" /><path clip-path="url(#clip170)" d="M167.935 103.688 Q167.217 103.271 166.361 103.086 Q165.528 102.878 164.509 102.878 Q160.898 102.878 158.954 105.239 Q157.032 107.577 157.032 111.975 L157.032 125.632 L152.75 125.632 L152.75 99.7063 L157.032 99.7063 L157.032 103.734 Q158.375 101.373 160.528 100.239 Q162.68 99.0813 165.759 99.0813 Q166.199 99.0813 166.731 99.1508 Q167.264 99.1971 167.912 99.3128 L167.935 103.688 Z" fill="#000000" fill-rule="evenodd" fill-opacity="1" /><path clip-path="url(#clip170)" d="M184.185 112.6 Q179.023 112.6 177.032 113.78 Q175.041 114.961 175.041 117.808 Q175.041 120.077 176.523 121.419 Q178.028 122.739 180.597 122.739 Q184.139 122.739 186.268 120.239 Q188.421 117.716 188.421 113.549 L188.421 112.6 L184.185 112.6 M192.68 110.841 L192.68 125.632 L188.421 125.632 L188.421 121.697 Q186.963 124.058 184.787 125.192 Q182.611 126.303 179.463 126.303 Q175.481 126.303 173.12 124.081 Q170.782 121.836 170.782 118.086 Q170.782 113.711 173.699 111.489 Q176.639 109.266 182.449 109.266 L188.421 109.266 L188.421 108.85 Q188.421 105.91 186.477 104.313 Q184.555 102.692 181.06 102.692 Q178.838 102.692 176.731 103.225 Q174.625 103.757 172.68 104.822 L172.68 100.887 Q175.018 99.9841 177.217 99.5443 Q179.416 99.0813 181.5 99.0813 Q187.125 99.0813 189.902 101.998 Q192.68 104.915 192.68 110.841 Z" fill="#000000" fill-rule="evenodd" fill-opacity="1" /><path clip-path="url(#clip170)" d="M205.666 92.3453 L205.666 99.7063 L214.439 99.7063 L214.439 103.017 L205.666 103.017 L205.666 117.091 Q205.666 120.262 206.523 121.165 Q207.402 122.067 210.064 122.067 L214.439 122.067 L214.439 125.632 L210.064 125.632 Q205.134 125.632 203.259 123.803 Q201.384 121.952 201.384 117.091 L201.384 103.017 L198.259 103.017 L198.259 99.7063 L201.384 99.7063 L201.384 92.3453 L205.666 92.3453 Z" fill="#000000" fill-rule="evenodd" fill-opacity="1" /><path clip-path="url(#clip170)" d="M220.041 99.7063 L224.3 99.7063 L224.3 125.632 L220.041 125.632 L220.041 99.7063 M220.041 89.6138 L224.3 89.6138 L224.3 95.0073 L220.041 95.0073 L220.041 89.6138 Z" fill="#000000" fill-rule="evenodd" fill-opacity="1" /><path clip-path="url(#clip170)" d="M243.259 102.692 Q239.833 102.692 237.842 105.378 Q235.851 108.04 235.851 112.692 Q235.851 117.345 237.819 120.03 Q239.81 122.692 243.259 122.692 Q246.661 122.692 248.652 120.007 Q250.643 117.322 250.643 112.692 Q250.643 108.086 248.652 105.401 Q246.661 102.692 243.259 102.692 M243.259 99.0813 Q248.814 99.0813 251.985 102.692 Q255.157 106.304 255.157 112.692 Q255.157 119.058 251.985 122.692 Q248.814 126.303 243.259 126.303 Q237.68 126.303 234.509 122.692 Q231.361 119.058 231.361 112.692 Q231.361 106.304 234.509 102.692 Q237.68 99.0813 243.259 99.0813 Z" fill="#000000" fill-rule="evenodd" fill-opacity="1" /><path clip-path="url(#clip170)" d="M283.768 109.984 L283.768 125.632 L279.508 125.632 L279.508 110.123 Q279.508 106.442 278.073 104.614 Q276.638 102.785 273.768 102.785 Q270.319 102.785 268.328 104.984 Q266.337 107.183 266.337 110.979 L266.337 125.632 L262.055 125.632 L262.055 99.7063 L266.337 99.7063 L266.337 103.734 Q267.865 101.396 269.925 100.239 Q272.008 99.0813 274.717 99.0813 Q279.184 99.0813 281.476 101.859 Q283.768 104.614 283.768 109.984 Z" fill="#000000" fill-rule="evenodd" fill-opacity="1" /><path clip-path="url(#clip170)" d="M1723.57 14.0809 L1723.57 22.0612 Q1718.91 19.8332 1714.77 18.7395 Q1710.64 17.6457 1706.79 17.6457 Q1700.11 17.6457 1696.46 20.2383 Q1692.86 22.8309 1692.86 27.611 Q1692.86 31.6214 1695.25 33.6873 Q1697.68 35.7128 1704.4 36.9686 L1709.35 37.9813 Q1718.5 39.7232 1722.84 44.1387 Q1727.21 48.5136 1727.21 55.8863 Q1727.21 64.6767 1721.3 69.2137 Q1715.42 73.7508 1704.04 73.7508 Q1699.75 73.7508 1694.88 72.7785 Q1690.06 71.8063 1684.88 69.9024 L1684.88 61.4765 Q1689.86 64.2716 1694.64 65.6895 Q1699.42 67.1073 1704.04 67.1073 Q1711.05 67.1073 1714.86 64.3527 Q1718.66 61.598 1718.66 56.4939 Q1718.66 52.0379 1715.91 49.5264 Q1713.2 47.0148 1706.96 45.759 L1701.97 44.7868 Q1692.82 42.9639 1688.73 39.075 Q1684.64 35.1862 1684.64 28.2591 Q1684.64 20.2383 1690.27 15.6203 Q1695.94 11.0023 1705.86 11.0023 Q1710.12 11.0023 1714.53 11.7719 Q1718.95 12.5416 1723.57 14.0809 Z" fill="#000000" fill-rule="evenodd" fill-opacity="1" /><path clip-path="url(#clip170)" d="M1739.65 27.2059 L1747.1 27.2059 L1747.1 72.576 L1739.65 72.576 L1739.65 27.2059 M1739.65 9.54393 L1747.1 9.54393 L1747.1 18.9825 L1739.65 18.9825 L1739.65 9.54393 Z" fill="#000000" fill-rule="evenodd" fill-opacity="1" /><path clip-path="url(#clip170)" d="M1792.55 49.3643 Q1792.55 41.2625 1789.19 36.8065 Q1785.87 32.3505 1779.83 32.3505 Q1773.84 32.3505 1770.47 36.8065 Q1767.15 41.2625 1767.15 49.3643 Q1767.15 57.4256 1770.47 61.8816 Q1773.84 66.3376 1779.83 66.3376 Q1785.87 66.3376 1789.19 61.8816 Q1792.55 57.4256 1792.55 49.3643 M1800.01 66.9452 Q1800.01 78.5308 1794.86 84.1616 Q1789.72 89.8329 1779.1 89.8329 Q1775.17 89.8329 1771.69 89.2252 Q1768.21 88.6581 1764.93 87.4428 L1764.93 80.1917 Q1768.21 81.9741 1771.41 82.8248 Q1774.61 83.6755 1777.93 83.6755 Q1785.26 83.6755 1788.91 79.8271 Q1792.55 76.0193 1792.55 68.282 L1792.55 64.5957 Q1790.24 68.6061 1786.64 70.5911 Q1783.03 72.576 1778.01 72.576 Q1769.66 72.576 1764.56 66.2161 Q1759.46 59.8562 1759.46 49.3643 Q1759.46 38.832 1764.56 32.472 Q1769.66 26.1121 1778.01 26.1121 Q1783.03 26.1121 1786.64 28.0971 Q1790.24 30.082 1792.55 34.0924 L1792.55 27.2059 L1800.01 27.2059 L1800.01 66.9452 Z" fill="#000000" fill-rule="evenodd" fill-opacity="1" /><path clip-path="url(#clip170)" d="M1850.68 35.9153 Q1853.48 30.8922 1857.37 28.5022 Q1861.26 26.1121 1866.52 26.1121 Q1873.61 26.1121 1877.46 31.0947 Q1881.31 36.0368 1881.31 45.1919 L1881.31 72.576 L1873.81 72.576 L1873.81 45.4349 Q1873.81 38.913 1871.5 35.7533 Q1869.2 32.5936 1864.46 32.5936 Q1858.66 32.5936 1855.3 36.4419 Q1851.94 40.2903 1851.94 46.9338 L1851.94 72.576 L1844.44 72.576 L1844.44 45.4349 Q1844.44 38.8725 1842.14 35.7533 Q1839.83 32.5936 1835.01 32.5936 Q1829.29 32.5936 1825.93 36.4824 Q1822.57 40.3308 1822.57 46.9338 L1822.57 72.576 L1815.08 72.576 L1815.08 27.2059 L1822.57 27.2059 L1822.57 34.2544 Q1825.12 30.082 1828.69 28.0971 Q1832.25 26.1121 1837.15 26.1121 Q1842.09 26.1121 1845.54 28.6237 Q1849.02 31.1352 1850.68 35.9153 Z" fill="#000000" fill-rule="evenodd" fill-opacity="1" /><path clip-path="url(#clip170)" d="M1913.76 32.4315 Q1907.76 32.4315 1904.28 37.1306 Q1900.79 41.7891 1900.79 49.9314 Q1900.79 58.0738 1904.24 62.7728 Q1907.72 67.4314 1913.76 67.4314 Q1919.71 67.4314 1923.19 62.7323 Q1926.68 58.0333 1926.68 49.9314 Q1926.68 41.8701 1923.19 37.1711 Q1919.71 32.4315 1913.76 32.4315 M1913.76 26.1121 Q1923.48 26.1121 1929.03 32.4315 Q1934.58 38.7509 1934.58 49.9314 Q1934.58 61.0714 1929.03 67.4314 Q1923.48 73.7508 1913.76 73.7508 Q1903.99 73.7508 1898.44 67.4314 Q1892.93 61.0714 1892.93 49.9314 Q1892.93 38.7509 1898.44 32.4315 Q1903.99 26.1121 1913.76 26.1121 Z" fill="#000000" fill-rule="evenodd" fill-opacity="1" /><path clip-path="url(#clip170)" d="M1946.93 27.2059 L1954.39 27.2059 L1954.39 72.576 L1946.93 72.576 L1946.93 27.2059 M1946.93 9.54393 L1954.39 9.54393 L1954.39 18.9825 L1946.93 18.9825 L1946.93 9.54393 Z" fill="#000000" fill-rule="evenodd" fill-opacity="1" /><path clip-path="url(#clip170)" d="M1999.84 34.0924 L1999.84 9.54393 L2007.29 9.54393 L2007.29 72.576 L1999.84 72.576 L1999.84 65.7705 Q1997.49 69.8214 1993.88 71.8063 Q1990.32 73.7508 1985.29 73.7508 Q1977.07 73.7508 1971.89 67.1883 Q1966.74 60.6258 1966.74 49.9314 Q1966.74 39.2371 1971.89 32.6746 Q1977.07 26.1121 1985.29 26.1121 Q1990.32 26.1121 1993.88 28.0971 Q1997.49 30.0415 1999.84 34.0924 M1974.44 49.9314 Q1974.44 58.1548 1977.8 62.8538 Q1981.2 67.5124 1987.12 67.5124 Q1993.03 67.5124 1996.43 62.8538 Q1999.84 58.1548 1999.84 49.9314 Q1999.84 41.7081 1996.43 37.0496 Q1993.03 32.3505 1987.12 32.3505 Q1981.2 32.3505 1977.8 37.0496 Q1974.44 41.7081 1974.44 49.9314 Z" fill="#000000" fill-rule="evenodd" fill-opacity="1" /><path clip-path="url(#clip170)" d="M2069.55 20.1573 L2058.45 50.2555 L2080.69 50.2555 L2069.55 20.1573 M2064.94 12.096 L2074.21 12.096 L2097.26 72.576 L2088.75 72.576 L2083.25 57.061 L2055.98 57.061 L2050.47 72.576 L2041.84 72.576 L2064.94 12.096 Z" fill="#000000" fill-rule="evenodd" fill-opacity="1" /><path clip-path="url(#clip170)" d="M2136.96 28.9478 L2136.96 35.9153 Q2133.8 34.1734 2130.6 33.3227 Q2127.44 32.4315 2124.2 32.4315 Q2116.95 32.4315 2112.94 37.0496 Q2108.93 41.6271 2108.93 49.9314 Q2108.93 58.2358 2112.94 62.8538 Q2116.95 67.4314 2124.2 67.4314 Q2127.44 67.4314 2130.6 66.5807 Q2133.8 65.6895 2136.96 63.9476 L2136.96 70.8341 Q2133.84 72.2924 2130.48 73.0216 Q2127.16 73.7508 2123.39 73.7508 Q2113.14 73.7508 2107.1 67.3098 Q2101.07 60.8689 2101.07 49.9314 Q2101.07 38.832 2107.15 32.472 Q2113.26 26.1121 2123.88 26.1121 Q2127.32 26.1121 2130.6 26.8413 Q2133.88 27.5299 2136.96 28.9478 Z" fill="#000000" fill-rule="evenodd" fill-opacity="1" /><path clip-path="url(#clip170)" d="M2157.3 14.324 L2157.3 27.2059 L2172.65 27.2059 L2172.65 32.9987 L2157.3 32.9987 L2157.3 57.6282 Q2157.3 63.1779 2158.79 64.7578 Q2160.33 66.3376 2164.99 66.3376 L2172.65 66.3376 L2172.65 72.576 L2164.99 72.576 Q2156.36 72.576 2153.08 69.3758 Q2149.8 66.1351 2149.8 57.6282 L2149.8 32.9987 L2144.33 32.9987 L2144.33 27.2059 L2149.8 27.2059 L2149.8 14.324 L2157.3 14.324 Z" fill="#000000" fill-rule="evenodd" fill-opacity="1" /><path clip-path="url(#clip170)" d="M2182.45 27.2059 L2189.91 27.2059 L2189.91 72.576 L2182.45 72.576 L2182.45 27.2059 M2182.45 9.54393 L2189.91 9.54393 L2189.91 18.9825 L2182.45 18.9825 L2182.45 9.54393 Z" fill="#000000" fill-rule="evenodd" fill-opacity="1" /><path clip-path="url(#clip170)" d="M2200.15 27.2059 L2208.05 27.2059 L2222.23 65.2844 L2236.41 27.2059 L2244.31 27.2059 L2227.3 72.576 L2217.17 72.576 L2200.15 27.2059 Z" fill="#000000" fill-rule="evenodd" fill-opacity="1" /><path clip-path="url(#clip170)" d="M2275.22 49.7694 Q2266.18 49.7694 2262.7 51.8354 Q2259.22 53.9013 2259.22 58.8839 Q2259.22 62.8538 2261.81 65.2034 Q2264.44 67.5124 2268.94 67.5124 Q2275.14 67.5124 2278.86 63.1374 Q2282.63 58.7219 2282.63 51.4303 L2282.63 49.7694 L2275.22 49.7694 M2290.08 46.6907 L2290.08 72.576 L2282.63 72.576 L2282.63 65.6895 Q2280.08 69.8214 2276.27 71.8063 Q2272.46 73.7508 2266.95 73.7508 Q2259.99 73.7508 2255.85 69.8619 Q2251.76 65.9325 2251.76 59.3701 Q2251.76 51.7138 2256.87 47.825 Q2262.01 43.9361 2272.18 43.9361 L2282.63 43.9361 L2282.63 43.2069 Q2282.63 38.0623 2279.23 35.2672 Q2275.87 32.4315 2269.75 32.4315 Q2265.86 32.4315 2262.17 33.3632 Q2258.49 34.295 2255.08 36.1584 L2255.08 29.2718 Q2259.18 27.692 2263.02 26.9223 Q2266.87 26.1121 2270.52 26.1121 Q2280.36 26.1121 2285.22 31.2163 Q2290.08 36.3204 2290.08 46.6907 Z" fill="#000000" fill-rule="evenodd" fill-opacity="1" /><path clip-path="url(#clip170)" d="M2312.81 14.324 L2312.81 27.2059 L2328.16 27.2059 L2328.16 32.9987 L2312.81 32.9987 L2312.81 57.6282 Q2312.81 63.1779 2314.31 64.7578 Q2315.85 66.3376 2320.51 66.3376 L2328.16 66.3376 L2328.16 72.576 L2320.51 72.576 Q2311.88 72.576 2308.6 69.3758 Q2305.32 66.1351 2305.32 57.6282 L2305.32 32.9987 L2299.85 32.9987 L2299.85 27.2059 L2305.32 27.2059 L2305.32 14.324 L2312.81 14.324 Z" fill="#000000" fill-rule="evenodd" fill-opacity="1" /><path clip-path="url(#clip170)" d="M2337.97 27.2059 L2345.42 27.2059 L2345.42 72.576 L2337.97 72.576 L2337.97 27.2059 M2337.97 9.54393 L2345.42 9.54393 L2345.42 18.9825 L2337.97 18.9825 L2337.97 9.54393 Z" fill="#000000" fill-rule="evenodd" fill-opacity="1" /><path clip-path="url(#clip170)" d="M2378.6 32.4315 Q2372.6 32.4315 2369.12 37.1306 Q2365.63 41.7891 2365.63 49.9314 Q2365.63 58.0738 2369.08 62.7728 Q2372.56 67.4314 2378.6 67.4314 Q2384.55 67.4314 2388.04 62.7323 Q2391.52 58.0333 2391.52 49.9314 Q2391.52 41.8701 2388.04 37.1711 Q2384.55 32.4315 2378.6 32.4315 M2378.6 26.1121 Q2388.32 26.1121 2393.87 32.4315 Q2399.42 38.7509 2399.42 49.9314 Q2399.42 61.0714 2393.87 67.4314 Q2388.32 73.7508 2378.6 73.7508 Q2368.83 73.7508 2363.28 67.4314 Q2357.77 61.0714 2357.77 49.9314 Q2357.77 38.7509 2363.28 32.4315 Q2368.83 26.1121 2378.6 26.1121 Z" fill="#000000" fill-rule="evenodd" fill-opacity="1" /><path clip-path="url(#clip170)" d="M2449.49 45.1919 L2449.49 72.576 L2442.03 72.576 L2442.03 45.4349 Q2442.03 38.994 2439.52 35.7938 Q2437.01 32.5936 2431.99 32.5936 Q2425.95 32.5936 2422.47 36.4419 Q2418.98 40.2903 2418.98 46.9338 L2418.98 72.576 L2411.49 72.576 L2411.49 27.2059 L2418.98 27.2059 L2418.98 34.2544 Q2421.66 30.163 2425.26 28.1376 Q2428.91 26.1121 2433.65 26.1121 Q2441.47 26.1121 2445.48 30.9732 Q2449.49 35.7938 2449.49 45.1919 Z" fill="#000000" fill-rule="evenodd" fill-opacity="1" /><polyline clip-path="url(#clip172)" style="stroke:#009af9; stroke-linecap:round; stroke-linejoin:round; stroke-width:4; stroke-opacity:1; fill:none" points="
  439.048,1821.29 440.677,1821.29 442.305,1821.29 443.933,1821.29 445.561,1821.29 447.189,1821.29 448.817,1821.29 450.445,1821.28 452.073,1821.28 453.701,1821.28 
  455.329,1821.28 456.957,1821.28 458.585,1821.28 460.213,1821.28 461.841,1821.28 463.469,1821.28 465.097,1821.28 466.725,1821.28 468.353,1821.27 469.981,1821.27 
  471.609,1821.27 473.237,1821.27 474.865,1821.27 476.493,1821.27 478.121,1821.27 479.749,1821.27 481.377,1821.27 483.005,1821.27 484.633,1821.26 486.261,1821.26 
  487.889,1821.26 489.517,1821.26 491.145,1821.26 492.773,1821.26 494.401,1821.26 496.029,1821.26 497.657,1821.26 499.285,1821.26 500.913,1821.25 502.541,1821.25 
  504.169,1821.25 505.797,1821.25 507.425,1821.25 509.053,1821.25 510.681,1821.25 512.309,1821.25 513.937,1821.24 515.565,1821.24 517.193,1821.24 518.821,1821.24 
  520.449,1821.24 522.077,1821.24 523.705,1821.24 525.333,1821.24 526.961,1821.23 528.589,1821.23 530.217,1821.23 531.845,1821.23 533.473,1821.23 535.101,1821.23 
  536.729,1821.23 538.357,1821.22 539.985,1821.22 541.613,1821.22 543.241,1821.22 544.869,1821.22 546.497,1821.22 548.125,1821.22 549.753,1821.21 551.381,1821.21 
  553.009,1821.21 554.637,1821.21 556.265,1821.21 557.893,1821.21 559.521,1821.2 561.149,1821.2 562.778,1821.2 564.406,1821.2 566.034,1821.2 567.662,1821.2 
  569.29,1821.19 570.918,1821.19 572.546,1821.19 574.174,1821.19 575.802,1821.19 577.43,1821.19 579.058,1821.18 580.686,1821.18 582.314,1821.18 583.942,1821.18 
  585.57,1821.18 587.198,1821.17 588.826,1821.17 590.454,1821.17 592.082,1821.17 593.71,1821.17 595.338,1821.16 596.966,1821.16 598.594,1821.16 600.222,1821.16 
  601.85,1821.16 603.478,1821.15 605.106,1821.15 606.734,1821.15 608.362,1821.15 609.99,1821.15 611.618,1821.14 613.246,1821.14 614.874,1821.14 616.502,1821.14 
  618.13,1821.13 619.758,1821.13 621.386,1821.13 623.014,1821.13 624.642,1821.12 626.27,1821.12 627.898,1821.12 629.526,1821.12 631.154,1821.11 632.782,1821.11 
  634.41,1821.11 636.038,1821.11 637.666,1821.1 639.294,1821.1 640.922,1821.1 642.55,1821.1 644.178,1821.09 645.806,1821.09 647.434,1821.09 649.062,1821.09 
  650.69,1821.08 652.318,1821.08 653.946,1821.08 655.574,1821.07 657.202,1821.07 658.83,1821.07 660.458,1821.06 662.086,1821.06 663.714,1821.06 665.342,1821.06 
  666.97,1821.05 668.598,1821.05 670.226,1821.05 671.854,1821.04 673.482,1821.04 675.11,1821.04 676.738,1821.03 678.366,1821.03 679.994,1821.03 681.622,1821.02 
  683.25,1821.02 684.879,1821.02 686.507,1821.01 688.135,1821.01 689.763,1821.01 691.391,1821 693.019,1821 694.647,1820.99 696.275,1820.99 697.903,1820.99 
  699.531,1820.98 701.159,1820.98 702.787,1820.97 704.415,1820.97 706.043,1820.97 707.671,1820.96 709.299,1820.96 710.927,1820.95 712.555,1820.95 714.183,1820.95 
  715.811,1820.94 717.439,1820.94 719.067,1820.93 720.695,1820.93 722.323,1820.92 723.951,1820.92 725.579,1820.92 727.207,1820.91 728.835,1820.91 730.463,1820.9 
  732.091,1820.9 733.719,1820.89 735.347,1820.89 736.975,1820.88 738.603,1820.88 740.231,1820.87 741.859,1820.87 743.487,1820.86 745.115,1820.86 746.743,1820.85 
  748.371,1820.85 749.999,1820.84 751.627,1820.84 753.255,1820.83 754.883,1820.83 756.511,1820.82 758.139,1820.82 759.767,1820.81 761.395,1820.8 763.023,1820.8 
  764.651,1820.79 766.279,1820.79 767.907,1820.78 769.535,1820.78 771.163,1820.77 772.791,1820.76 774.419,1820.76 776.047,1820.75 777.675,1820.75 779.303,1820.74 
  780.931,1820.73 782.559,1820.73 784.187,1820.72 785.815,1820.71 787.443,1820.71 789.071,1820.7 790.699,1820.69 792.327,1820.69 793.955,1820.68 795.583,1820.67 
  797.211,1820.67 798.839,1820.66 800.467,1820.65 802.095,1820.64 803.723,1820.64 805.351,1820.63 806.979,1820.62 808.608,1820.62 810.236,1820.61 811.864,1820.6 
  813.492,1820.59 815.12,1820.58 816.748,1820.58 818.376,1820.57 820.004,1820.56 821.632,1820.55 823.26,1820.54 824.888,1820.54 826.516,1820.53 828.144,1820.52 
  829.772,1820.51 831.4,1820.5 833.028,1820.49 834.656,1820.48 836.284,1820.48 837.912,1820.47 839.54,1820.46 841.168,1820.45 842.796,1820.44 844.424,1820.43 
  846.052,1820.42 847.68,1820.41 849.308,1820.4 850.936,1820.39 852.564,1820.38 854.192,1820.37 855.82,1820.36 857.448,1820.35 859.076,1820.34 860.704,1820.33 
  862.332,1820.32 863.96,1820.31 865.588,1820.3 867.216,1820.29 868.844,1820.28 870.472,1820.27 872.1,1820.26 873.728,1820.25 875.356,1820.23 876.984,1820.22 
  878.612,1820.21 880.24,1820.2 881.868,1820.19 883.496,1820.18 885.124,1820.16 886.752,1820.15 888.38,1820.14 890.008,1820.13 891.636,1820.12 893.264,1820.1 
  894.892,1820.09 896.52,1820.08 898.148,1820.06 899.776,1820.05 901.404,1820.04 903.032,1820.02 904.66,1820.01 906.288,1820 907.916,1819.98 909.544,1819.97 
  911.172,1819.96 912.8,1819.94 914.428,1819.93 916.056,1819.91 917.684,1819.9 919.312,1819.88 920.94,1819.87 922.568,1819.85 924.196,1819.84 925.824,1819.82 
  927.452,1819.81 929.08,1819.79 930.709,1819.78 932.337,1819.76 933.965,1819.74 935.593,1819.73 937.221,1819.71 938.849,1819.69 940.477,1819.68 942.105,1819.66 
  943.733,1819.64 945.361,1819.63 946.989,1819.61 948.617,1819.59 950.245,1819.57 951.873,1819.55 953.501,1819.54 955.129,1819.52 956.757,1819.5 958.385,1819.48 
  960.013,1819.46 961.641,1819.44 963.269,1819.42 964.897,1819.4 966.525,1819.38 968.153,1819.36 969.781,1819.34 971.409,1819.32 973.037,1819.3 974.665,1819.28 
  976.293,1819.26 977.921,1819.24 979.549,1819.22 981.177,1819.2 982.805,1819.18 984.433,1819.15 986.061,1819.13 987.689,1819.11 989.317,1819.09 990.945,1819.06 
  992.573,1819.04 994.201,1819.02 995.829,1818.99 997.457,1818.97 999.085,1818.95 1000.71,1818.92 1002.34,1818.9 1003.97,1818.87 1005.6,1818.85 1007.23,1818.82 
  1008.85,1818.8 1010.48,1818.77 1012.11,1818.74 1013.74,1818.72 1015.37,1818.69 1016.99,1818.66 1018.62,1818.64 1020.25,1818.61 1021.88,1818.58 1023.51,1818.55 
  1025.13,1818.53 1026.76,1818.5 1028.39,1818.47 1030.02,1818.44 1031.65,1818.41 1033.27,1818.38 1034.9,1818.35 1036.53,1818.32 1038.16,1818.29 1039.79,1818.26 
  1041.41,1818.23 1043.04,1818.2 1044.67,1818.16 1046.3,1818.13 1047.93,1818.1 1049.55,1818.07 1051.18,1818.03 1052.81,1818 1054.44,1817.97 1056.07,1817.93 
  1057.69,1817.9 1059.32,1817.86 1060.95,1817.83 1062.58,1817.79 1064.21,1817.76 1065.83,1817.72 1067.46,1817.68 1069.09,1817.65 1070.72,1817.61 1072.35,1817.57 
  1073.97,1817.53 1075.6,1817.5 1077.23,1817.46 1078.86,1817.42 1080.49,1817.38 1082.11,1817.34 1083.74,1817.3 1085.37,1817.26 1087,1817.22 1088.63,1817.17 
  1090.25,1817.13 1091.88,1817.09 1093.51,1817.05 1095.14,1817 1096.77,1816.96 1098.39,1816.92 1100.02,1816.87 1101.65,1816.83 1103.28,1816.78 1104.91,1816.73 
  1106.53,1816.69 1108.16,1816.64 1109.79,1816.59 1111.42,1816.55 1113.05,1816.5 1114.67,1816.45 1116.3,1816.4 1117.93,1816.35 1119.56,1816.3 1121.19,1816.25 
  1122.81,1816.2 1124.44,1816.15 1126.07,1816.09 1127.7,1816.04 1129.33,1815.99 1130.95,1815.93 1132.58,1815.88 1134.21,1815.82 1135.84,1815.77 1137.47,1815.71 
  1139.09,1815.66 1140.72,1815.6 1142.35,1815.54 1143.98,1815.48 1145.61,1815.42 1147.23,1815.36 1148.86,1815.3 1150.49,1815.24 1152.12,1815.18 1153.75,1815.12 
  1155.37,1815.06 1157,1814.99 1158.63,1814.93 1160.26,1814.87 1161.89,1814.8 1163.51,1814.73 1165.14,1814.67 1166.77,1814.6 1168.4,1814.53 1170.03,1814.46 
  1171.65,1814.4 1173.28,1814.33 1174.91,1814.26 1176.54,1814.18 1178.17,1814.11 1179.79,1814.04 1181.42,1813.97 1183.05,1813.89 1184.68,1813.82 1186.31,1813.74 
  1187.93,1813.67 1189.56,1813.59 1191.19,1813.51 1192.82,1813.43 1194.45,1813.35 1196.07,1813.27 1197.7,1813.19 1199.33,1813.11 1200.96,1813.03 1202.59,1812.94 
  1204.21,1812.86 1205.84,1812.77 1207.47,1812.69 1209.1,1812.6 1210.73,1812.51 1212.35,1812.43 1213.98,1812.34 1215.61,1812.25 1217.24,1812.15 1218.87,1812.06 
  1220.49,1811.97 1222.12,1811.88 1223.75,1811.78 1225.38,1811.69 1227.01,1811.59 1228.63,1811.49 1230.26,1811.39 1231.89,1811.29 1233.52,1811.19 1235.15,1811.09 
  1236.78,1810.99 1238.4,1810.88 1240.03,1810.78 1241.66,1810.67 1243.29,1810.57 1244.92,1810.46 1246.54,1810.35 1248.17,1810.24 1249.8,1810.13 1251.43,1810.02 
  1253.06,1809.9 1254.68,1809.79 1256.31,1809.67 1257.94,1809.56 1259.57,1809.44 1261.2,1809.32 1262.82,1809.2 1264.45,1809.08 1266.08,1808.95 1267.71,1808.83 
  1269.34,1808.71 1270.96,1808.58 1272.59,1808.45 1274.22,1808.32 1275.85,1808.19 1277.48,1808.06 1279.1,1807.93 1280.73,1807.8 1282.36,1807.66 1283.99,1807.52 
  1285.62,1807.39 1287.24,1807.25 1288.87,1807.11 1290.5,1806.96 1292.13,1806.82 1293.76,1806.67 1295.38,1806.53 1297.01,1806.38 1298.64,1806.23 1300.27,1806.08 
  1301.9,1805.93 1303.52,1805.77 1305.15,1805.62 1306.78,1805.46 1308.41,1805.3 1310.04,1805.14 1311.66,1804.98 1313.29,1804.82 1314.92,1804.65 1316.55,1804.49 
  1318.18,1804.32 1319.8,1804.15 1321.43,1803.98 1323.06,1803.81 1324.69,1803.63 1326.32,1803.46 1327.94,1803.28 1329.57,1803.1 1331.2,1802.92 1332.83,1802.73 
  1334.46,1802.55 1336.08,1802.36 1337.71,1802.17 1339.34,1801.98 1340.97,1801.79 1342.6,1801.59 1344.22,1801.4 1345.85,1801.2 1347.48,1801 1349.11,1800.8 
  1350.74,1800.59 1352.36,1800.39 1353.99,1800.18 1355.62,1799.97 1357.25,1799.75 1358.88,1799.54 1360.5,1799.32 1362.13,1799.1 1363.76,1798.88 1365.39,1798.66 
  1367.02,1798.44 1368.64,1798.21 1370.27,1797.98 1371.9,1797.75 1373.53,1797.51 1375.16,1797.28 1376.78,1797.04 1378.41,1796.8 1380.04,1796.55 1381.67,1796.31 
  1383.3,1796.06 1384.92,1795.81 1386.55,1795.56 1388.18,1795.3 1389.81,1795.04 1391.44,1794.78 1393.06,1794.52 1394.69,1794.25 1396.32,1793.99 1397.95,1793.71 
  1399.58,1793.44 1401.2,1793.17 1402.83,1792.89 1404.46,1792.61 1406.09,1792.32 1407.72,1792.03 1409.34,1791.74 1410.97,1791.45 1412.6,1791.16 1414.23,1790.86 
  1415.86,1790.56 1417.48,1790.25 1419.11,1789.95 1420.74,1789.64 1422.37,1789.32 1424,1789.01 1425.62,1788.69 1427.25,1788.37 1428.88,1788.04 1430.51,1787.71 
  1432.14,1787.38 1433.76,1787.05 1435.39,1786.71 1437.02,1786.37 1438.65,1786.02 1440.28,1785.67 1441.9,1785.32 1443.53,1784.97 1445.16,1784.61 1446.79,1784.25 
  1448.42,1783.88 1450.04,1783.52 1451.67,1783.14 1453.3,1782.77 1454.93,1782.39 1456.56,1782.01 1458.18,1781.62 1459.81,1781.23 1461.44,1780.84 1463.07,1780.44 
  1464.7,1780.04 1466.32,1779.63 1467.95,1779.22 1469.58,1778.81 1471.21,1778.39 1472.84,1777.97 1474.46,1777.55 1476.09,1777.12 1477.72,1776.69 1479.35,1776.25 
  1480.98,1775.81 1482.61,1775.36 1484.23,1774.91 1485.86,1774.46 1487.49,1774 1489.12,1773.54 1490.75,1773.07 1492.37,1772.6 1494,1772.12 1495.63,1771.64 
  1497.26,1771.16 1498.89,1770.67 1500.51,1770.17 1502.14,1769.67 1503.77,1769.17 1505.4,1768.66 1507.03,1768.15 1508.65,1767.63 1510.28,1767.11 1511.91,1766.58 
  1513.54,1766.05 1515.17,1765.51 1516.79,1764.96 1518.42,1764.42 1520.05,1763.86 1521.68,1763.3 1523.31,1762.74 1524.93,1762.17 1526.56,1761.6 1528.19,1761.02 
  1529.82,1760.43 1531.45,1759.84 1533.07,1759.25 1534.7,1758.65 1536.33,1758.04 1537.96,1757.43 1539.59,1756.81 1541.21,1756.18 1542.84,1755.55 1544.47,1754.92 
  1546.1,1754.28 1547.73,1753.63 1549.35,1752.98 1550.98,1752.32 1552.61,1751.65 1554.24,1750.98 1555.87,1750.3 1557.49,1749.62 1559.12,1748.92 1560.75,1748.23 
  1562.38,1747.52 1564.01,1746.81 1565.63,1746.1 1567.26,1745.38 1568.89,1744.65 1570.52,1743.91 1572.15,1743.17 1573.77,1742.42 1575.4,1741.66 1577.03,1740.9 
  1578.66,1740.13 1580.29,1739.35 1581.91,1738.56 1583.54,1737.77 1585.17,1736.97 1586.8,1736.17 1588.43,1735.36 1590.05,1734.53 1591.68,1733.71 1593.31,1732.87 
  1594.94,1732.03 1596.57,1731.18 1598.19,1730.32 1599.82,1729.45 1601.45,1728.58 1603.08,1727.7 1604.71,1726.81 1606.33,1725.91 1607.96,1725.01 1609.59,1724.09 
  1611.22,1723.17 1612.85,1722.24 1614.47,1721.3 1616.1,1720.36 1617.73,1719.4 1619.36,1718.44 1620.99,1717.47 1622.61,1716.49 1624.24,1715.5 1625.87,1714.5 
  1627.5,1713.49 1629.13,1712.48 1630.75,1711.45 1632.38,1710.42 1634.01,1709.38 1635.64,1708.33 1637.27,1707.27 1638.89,1706.2 1640.52,1705.12 1642.15,1704.03 
  1643.78,1702.93 1645.41,1701.83 1647.03,1700.71 1648.66,1699.58 1650.29,1698.45 1651.92,1697.3 1653.55,1696.14 1655.17,1694.98 1656.8,1693.8 1658.43,1692.62 
  1660.06,1691.42 1661.69,1690.22 1663.31,1689 1664.94,1687.77 1666.57,1686.54 1668.2,1685.29 1669.83,1684.03 1671.45,1682.76 1673.08,1681.48 1674.71,1680.19 
  1676.34,1678.89 1677.97,1677.58 1679.59,1676.26 1681.22,1674.92 1682.85,1673.58 1684.48,1672.22 1686.11,1670.86 1687.73,1669.48 1689.36,1668.09 1690.99,1666.69 
  1692.62,1665.27 1694.25,1663.85 1695.87,1662.41 1697.5,1660.96 1699.13,1659.5 1700.76,1658.03 1702.39,1656.55 1704.01,1655.05 1705.64,1653.55 1707.27,1652.03 
  1708.9,1650.49 1710.53,1648.95 1712.15,1647.39 1713.78,1645.82 1715.41,1644.24 1717.04,1642.65 1718.67,1641.04 1720.29,1639.42 1721.92,1637.79 1723.55,1636.14 
  1725.18,1634.48 1726.81,1632.81 1728.44,1631.13 1730.06,1629.43 1731.69,1627.72 1733.32,1625.99 1734.95,1624.26 1736.58,1622.51 1738.2,1620.74 1739.83,1618.96 
  1741.46,1617.17 1743.09,1615.37 1744.72,1613.55 1746.34,1611.71 1747.97,1609.87 1749.6,1608.01 1751.23,1606.13 1752.86,1604.24 1754.48,1602.34 1756.11,1600.42 
  1757.74,1598.49 1759.37,1596.54 1761,1594.58 1762.62,1592.61 1764.25,1590.62 1765.88,1588.62 1767.51,1586.6 1769.14,1584.56 1770.76,1582.52 1772.39,1580.45 
  1774.02,1578.37 1775.65,1576.28 1777.28,1574.17 1778.9,1572.05 1780.53,1569.91 1782.16,1567.76 1783.79,1565.59 1785.42,1563.41 1787.04,1561.21 1788.67,1559 
  1790.3,1556.77 1791.93,1554.52 1793.56,1552.26 1795.18,1549.98 1796.81,1547.69 1798.44,1545.39 1800.07,1543.06 1801.7,1540.72 1803.32,1538.37 1804.95,1536 
  1806.58,1533.61 1808.21,1531.21 1809.84,1528.79 1811.46,1526.36 1813.09,1523.91 1814.72,1521.44 1816.35,1518.96 1817.98,1516.46 1819.6,1513.95 1821.23,1511.42 
  1822.86,1508.87 1824.49,1506.31 1826.12,1503.73 1827.74,1501.13 1829.37,1498.52 1831,1495.89 1832.63,1493.25 1834.26,1490.59 1835.88,1487.91 1837.51,1485.22 
  1839.14,1482.51 1840.77,1479.78 1842.4,1477.04 1844.02,1474.28 1845.65,1471.5 1847.28,1468.71 1848.91,1465.9 1850.54,1463.07 1852.16,1460.23 1853.79,1457.37 
  1855.42,1454.5 1857.05,1451.61 1858.68,1448.7 1860.3,1445.78 1861.93,1442.84 1863.56,1439.88 1865.19,1436.91 1866.82,1433.92 1868.44,1430.91 1870.07,1427.89 
  1871.7,1424.85 1873.33,1421.79 1874.96,1418.72 1876.58,1415.63 1878.21,1412.53 1879.84,1409.41 1881.47,1406.27 1883.1,1403.12 1884.72,1399.95 1886.35,1396.76 
  1887.98,1393.56 1889.61,1390.34 1891.24,1387.11 1892.86,1383.86 1894.49,1380.59 1896.12,1377.31 1897.75,1374.01 1899.38,1370.7 1901,1367.37 1902.63,1364.03 
  1904.26,1360.67 1905.89,1357.29 1907.52,1353.9 1909.14,1350.49 1910.77,1347.07 1912.4,1343.63 1914.03,1340.18 1915.66,1336.71 1917.28,1333.23 1918.91,1329.73 
  1920.54,1326.22 1922.17,1322.69 1923.8,1319.15 1925.42,1315.59 1927.05,1312.02 1928.68,1308.43 1930.31,1304.83 1931.94,1301.22 1933.56,1297.59 1935.19,1293.95 
  1936.82,1290.29 1938.45,1286.62 1940.08,1282.93 1941.7,1279.23 1943.33,1275.52 1944.96,1271.8 1946.59,1268.06 1948.22,1264.3 1949.84,1260.54 1951.47,1256.76 
  1953.1,1252.97 1954.73,1249.16 1956.36,1245.35 1957.98,1241.52 1959.61,1237.68 1961.24,1233.82 1962.87,1229.96 1964.5,1226.08 1966.12,1222.19 1967.75,1218.28 
  1969.38,1214.37 1971.01,1210.45 1972.64,1206.51 1974.27,1202.56 1975.89,1198.61 1977.52,1194.64 1979.15,1190.66 1980.78,1186.67 1982.41,1182.67 1984.03,1178.66 
  1985.66,1174.63 1987.29,1170.6 1988.92,1166.56 1990.55,1162.51 1992.17,1158.46 1993.8,1154.39 1995.43,1150.31 1997.06,1146.22 1998.69,1142.13 2000.31,1138.03 
  2001.94,1133.91 2003.57,1129.79 2005.2,1125.67 2006.83,1121.53 2008.45,1117.39 2010.08,1113.24 2011.71,1109.08 2013.34,1104.92 2014.97,1100.74 2016.59,1096.57 
  2018.22,1092.38 2019.85,1088.19 2021.48,1083.99 2023.11,1079.79 2024.73,1075.58 2026.36,1071.37 2027.99,1067.15 2029.62,1062.93 2031.25,1058.7 2032.87,1054.46 
  2034.5,1050.23 2036.13,1045.98 2037.76,1041.74 2039.39,1037.49 2041.01,1033.23 2042.64,1028.98 2044.27,1024.72 2045.9,1020.45 2047.53,1016.19 2049.15,1011.92 
  2050.78,1007.65 2052.41,1003.38 2054.04,999.102 2055.67,994.826 2057.29,990.548 2058.92,986.268 2060.55,981.988 2062.18,977.707 2063.81,973.425 2065.43,969.143 
  2067.06,964.86 2068.69,960.577 2070.32,956.295 2071.95,952.013 2073.57,947.732 2075.2,943.452 2076.83,939.172 2078.46,934.894 2080.09,930.618 2081.71,926.343 
  2083.34,922.07 2084.97,917.8 2086.6,913.531 2088.23,909.265 2089.85,905.002 2091.48,900.742 2093.11,896.485 2094.74,892.232 2096.37,887.982 2097.99,883.736 
  2099.62,879.494 2101.25,875.256 2102.88,871.022 2104.51,866.794 2106.13,862.57 2107.76,858.351 2109.39,854.137 2111.02,849.929 2112.65,845.726 2114.27,841.529 
  2115.9,837.339 2117.53,833.154 2119.16,828.976 2120.79,824.805 2122.41,820.64 2124.04,816.483 2125.67,812.332 2127.3,808.189 2128.93,804.054 2130.55,799.926 
  2132.18,795.806 2133.81,791.695 2135.44,787.592 2137.07,783.497 2138.69,779.411 2140.32,775.333 2141.95,771.265 2143.58,767.206 2145.21,763.156 2146.83,759.116 
  2148.46,755.085 2150.09,751.065 2151.72,747.054 2153.35,743.053 2154.97,739.063 2156.6,735.084 2158.23,731.115 2159.86,727.156 2161.49,723.209 2163.11,719.273 
  2164.74,715.348 2166.37,711.435 2168,707.533 2169.63,703.643 2171.25,699.765 2172.88,695.899 2174.51,692.044 2176.14,688.203 2177.77,684.373 2179.39,680.556 
  2181.02,676.752 2182.65,672.96 2184.28,669.181 2185.91,665.416 2187.53,661.663 2189.16,657.924 2190.79,654.198 2192.42,650.486 2194.05,646.787 2195.67,643.102 
  2197.3,639.431 2198.93,635.773 2200.56,632.13 2202.19,628.501 2203.81,624.886 2205.44,621.285 2207.07,617.699 2208.7,614.127 2210.33,610.57 2211.95,607.028 
  2213.58,603.5 2215.21,599.987 2216.84,596.489 2218.47,593.007 2220.1,589.539 2221.72,586.086 2223.35,582.649 2224.98,579.227 2226.61,575.82 2228.24,572.429 
  2229.86,569.053 2231.49,565.693 2233.12,562.348 2234.75,559.019 2236.38,555.706 2238,552.409 2239.63,549.127 2241.26,545.862 2242.89,542.612 2244.52,539.378 
  2246.14,536.16 2247.77,532.959 2249.4,529.773 2251.03,526.604 2252.66,523.451 2254.28,520.314 2255.91,517.193 2257.54,514.088 2259.17,511 2260.8,507.928 
  2262.42,504.873 2264.05,501.834 2265.68,498.811 2267.31,495.804 2268.94,492.815 2270.56,489.841 2272.19,486.884 2273.82,483.943 2275.45,481.019 2277.08,478.111 
  2278.7,475.22 2280.33,472.345 2281.96,469.487 2283.59,466.645 2285.22,463.82 2286.84,461.011 2288.47,458.219 2290.1,455.443 2291.73,452.684 2293.36,449.941 
  2294.98,447.214 2296.61,444.504 2298.24,441.81 2299.87,439.133 2301.5,436.472 2303.12,433.828 2304.75,431.2 2306.38,428.588 2308.01,425.992 2309.64,423.413 
  2311.26,420.85 2312.89,418.303 2314.52,415.773 2316.15,413.258 2317.78,410.76 2319.4,408.278 2321.03,405.812 2322.66,403.362 2324.29,400.927 2325.92,398.509 
  2327.54,396.107 2329.17,393.721 2330.8,391.351 2332.43,388.996 2334.06,386.657 2335.68,384.334 2337.31,382.027 2338.94,379.735 2340.57,377.459 2342.2,375.199 
  2343.82,372.954 2345.45,370.724 2347.08,368.51 2348.71,366.311 2350.34,364.128 2351.96,361.959 2353.59,359.806 2355.22,357.668 2356.85,355.546 2358.48,353.438 
  2360.1,351.345 2361.73,349.267 2363.36,347.205 2364.99,345.156 2366.62,343.123 2368.24,341.105 2369.87,339.101 2371.5,337.111 2373.13,335.136 2374.76,333.176 
  2376.38,331.23 2378.01,329.298 2379.64,327.381 2381.27,325.478 2382.9,323.589 2384.52,321.714 2386.15,319.853 2387.78,318.006 2389.41,316.173 2391.04,314.354 
  2392.66,312.549 2394.29,310.757 2395.92,308.979 2397.55,307.214 2399.18,305.463 2400.8,303.726 2402.43,302.001 2404.06,300.29 2405.69,298.593 2407.32,296.908 
  2408.94,295.237 2410.57,293.578 2412.2,291.933 2413.83,290.3 2415.46,288.68 2417.08,287.073 2418.71,285.479 2420.34,283.897 2421.97,282.328 2423.6,280.771 
  2425.22,279.226 2426.85,277.694 2428.48,276.174 2430.11,274.666 2431.74,273.171 2433.36,271.687 2434.99,270.216 2436.62,268.756 2438.25,267.308 2439.88,265.872 
  2441.5,264.447 2443.13,263.034 2444.76,261.633 2446.39,260.243 2448.02,258.864 2449.64,257.497 2451.27,256.141 2452.9,254.796 2454.53,253.463 2456.16,252.14 
  2457.78,250.828 2459.41,249.527 2461.04,248.237 2462.67,246.958 2464.3,245.69 2465.93,244.432 2467.55,243.184 2469.18,241.947 2470.81,240.721 2472.44,239.504 
  2474.07,238.298 2475.69,237.103 2477.32,235.917 2478.95,234.741 2480.58,233.576 2482.21,232.42 2483.83,231.274 2485.46,230.138 2487.09,229.011 2488.72,227.895 
  2490.35,226.787 2491.97,225.69 2493.6,224.601 2495.23,223.522 2496.86,222.453 2498.49,221.392 2500.11,220.341 2501.74,219.299 2503.37,218.266 2505,217.242 
  2506.63,216.226 2508.25,215.22 2509.88,214.222 2511.51,213.234 2513.14,212.253 2514.77,211.282 2516.39,210.318 2518.02,209.364 2519.65,208.417 2521.28,207.479 
  2522.91,206.549 2524.53,205.628 2526.16,204.714 2527.79,203.809 2529.42,202.912 2531.05,202.022 2532.67,201.141 2534.3,200.267 2535.93,199.401 2537.56,198.543 
  2539.19,197.692 2540.81,196.849 2542.44,196.013 2544.07,195.185 2545.7,194.365 2547.33,193.552 2548.95,192.746 2550.58,191.947 2552.21,191.155 2553.84,190.371 
  2555.47,189.593 2557.09,188.823 2558.72,188.06 2560.35,187.303 2561.98,186.553 2563.61,185.81 2565.23,185.074 2566.86,184.345 2568.49,183.622 2570.12,182.905 
  2571.75,182.196 2573.37,181.492 2575,180.795 2576.63,180.105 2578.26,179.42 2579.89,178.742 2581.51,178.07 2583.14,177.405 2584.77,176.745 2586.4,176.091 
  2588.03,175.444 2589.65,174.802 2591.28,174.166 2592.91,173.536 2594.54,172.912 2596.17,172.294 2597.79,171.681 2599.42,171.074 2601.05,170.472 2602.68,169.877 
  2604.31,169.286 2605.93,168.701 2607.56,168.122 2609.19,167.547 2610.82,166.979 2612.45,166.415 2614.07,165.857 2615.7,165.304 2617.33,164.756 2618.96,164.213 
  2620.59,163.675 2622.21,163.142 2623.84,162.614 2625.47,162.091 2627.1,161.573 2628.73,161.06 2630.35,160.551 2631.98,160.047 2633.61,159.548 2635.24,159.054 
  2636.87,158.564 2638.49,158.079 2640.12,157.599 2641.75,157.123 2643.38,156.651 2645.01,156.184 2646.63,155.721 2648.26,155.263 2649.89,154.809 2651.52,154.359 
  2653.15,153.913 2654.77,153.472 2656.4,153.035 2658.03,152.601 2659.66,152.172 2661.29,151.747 2662.91,151.326 2664.54,150.91 2666.17,150.496 2667.8,150.087 
  2669.43,149.682 2671.05,149.281 2672.68,148.883 2674.31,148.489 2675.94,148.099 2677.57,147.713 2679.19,147.33 2680.82,146.951 2682.45,146.575 2684.08,146.203 
  2685.71,145.835 2687.33,145.47 2688.96,145.109 2690.59,144.751 2692.22,144.396 2693.85,144.045 2695.47,143.697 2697.1,143.353 2698.73,143.012 2700.36,142.674 
  2701.99,142.339 2703.62,142.007 2705.24,141.679 2706.87,141.354 2708.5,141.032 2710.13,140.713 2711.76,140.397 2713.38,140.084 2715.01,139.774 2716.64,139.467 
  2718.27,139.163 2719.9,138.862 2721.52,138.563 2723.15,138.268 2724.78,137.976 2726.41,137.686 2728.04,137.399 2729.66,137.115 2731.29,136.833 2732.92,136.555 
  2734.55,136.279 2736.18,136.005 2737.8,135.734 2739.43,135.466 2741.06,135.201 2742.69,134.938 2744.32,134.677 2745.94,134.419 2747.57,134.164 2749.2,133.911 
  2750.83,133.66 2752.46,133.412 2754.08,133.166 2755.71,132.923 2757.34,132.682 2758.97,132.443 2760.6,132.207 2762.22,131.973 2763.85,131.741 2765.48,131.511 
  2767.11,131.284 2768.74,131.059 2770.36,130.836 2771.99,130.615 2773.62,130.397 2775.25,130.18 2776.88,129.966 2778.5,129.753 2780.13,129.543 2781.76,129.335 
  2783.39,129.128 2785.02,128.924 2786.64,128.722 2788.27,128.522 2789.9,128.323 2791.53,128.127 2793.16,127.932 2794.78,127.74 2796.41,127.549 2798.04,127.36 
  2799.67,127.173 2801.3,126.988 2802.92,126.804 2804.55,126.623 2806.18,126.443 2807.81,126.265 2809.44,126.088 2811.06,125.914 2812.69,125.741 2814.32,125.569 
  2815.95,125.4 2817.58,125.232 2819.2,125.065 2820.83,124.901 2822.46,124.738 2824.09,124.576 2825.72,124.416 2827.34,124.258 2828.97,124.101 2830.6,123.946 
  2832.23,123.792 2833.86,123.64 2835.48,123.489 2837.11,123.34 2838.74,123.192 2840.37,123.045 2842,122.901 2843.62,122.757 2845.25,122.615 2846.88,122.474 
  2848.51,122.335 2850.14,122.197 2851.76,122.06 2853.39,121.925 2855.02,121.791 2856.65,121.658 2858.28,121.527 2859.9,121.397 2861.53,121.268 2863.16,121.14 
  2864.79,121.014 2866.42,120.889 2868.04,120.765 2869.67,120.642 2871.3,120.521 2872.93,120.401 2874.56,120.282 2876.18,120.164 2877.81,120.047 2879.44,119.932 
  2881.07,119.817 2882.7,119.704 2884.32,119.592 2885.95,119.48 2887.58,119.37 2889.21,119.261 2890.84,119.154 2892.46,119.047 2894.09,118.941 2895.72,118.836 
  2897.35,118.733 2898.98,118.63 2900.6,118.528 2902.23,118.428 2903.86,118.328 2905.49,118.229 2907.12,118.132 2908.74,118.035 2910.37,117.939 2912,117.844 
  2913.63,117.75 2915.26,117.657 2916.88,117.565 2918.51,117.474 2920.14,117.384 2921.77,117.294 2923.4,117.206 2925.02,117.118 2926.65,117.031 2928.28,116.945 
  2929.91,116.86 2931.54,116.776 2933.16,116.693 2934.79,116.61 2936.42,116.528 2938.05,116.447 2939.68,116.367 2941.3,116.288 2942.93,116.209 2944.56,116.131 
  2946.19,116.054 2947.82,115.978 2949.45,115.902 2951.07,115.828 2952.7,115.754 2954.33,115.68 2955.96,115.608 2957.59,115.536 2959.21,115.465 2960.84,115.394 
  2962.47,115.324 2964.1,115.255 2965.73,115.187 2967.35,115.119 2968.98,115.052 2970.61,114.986 2972.24,114.92 2973.87,114.855 2975.49,114.79 2977.12,114.726 
  2978.75,114.663 2980.38,114.601 2982.01,114.539 2983.63,114.477 2985.26,114.417 2986.89,114.357 2988.52,114.297 2990.15,114.238 2991.77,114.18 2993.4,114.122 
  2995.03,114.065 2996.66,114.008 2998.29,113.952 2999.91,113.896 3001.54,113.841 3003.17,113.787 3004.8,113.733 3006.43,113.68 3008.05,113.627 3009.68,113.575 
  3011.31,113.523 3012.94,113.471 3014.57,113.421 3016.19,113.37 3017.82,113.321 3019.45,113.271 3021.08,113.222 3022.71,113.174 3024.33,113.126 3025.96,113.079 
  3027.59,113.032 3029.22,112.986 3030.85,112.94 3032.47,112.894 3034.1,112.849 3035.73,112.804 3037.36,112.76 3038.99,112.716 3040.61,112.673 3042.24,112.63 
  3043.87,112.588 3045.5,112.546 3047.13,112.504 3048.75,112.463 3050.38,112.422 3052.01,112.382 3053.64,112.342 3055.27,112.302 3056.89,112.263 3058.52,112.224 
  3060.15,112.186 3061.78,112.148 3063.41,112.11 3065.03,112.073 3066.66,112.036 3068.29,111.999 3069.92,111.963 3071.55,111.927 3073.17,111.891 3074.8,111.856 
  3076.43,111.822 3078.06,111.787 3079.69,111.753 3081.31,111.719 3082.94,111.686 3084.57,111.653 3086.2,111.62 3087.83,111.587 3089.45,111.555 3091.08,111.523 
  3092.71,111.492 3094.34,111.461 3095.97,111.43 3097.59,111.399 3099.22,111.369 3100.85,111.339 3102.48,111.309 3104.11,111.28 3105.73,111.251 3107.36,111.222 
  3108.99,111.194 3110.62,111.165 3112.25,111.138 3113.87,111.11 3115.5,111.082 3117.13,111.055 3118.76,111.028 3120.39,111.002 3122.01,110.976 3123.64,110.949 
  3125.27,110.924 3126.9,110.898 3128.53,110.873 3130.15,110.848 3131.78,110.823 3133.41,110.798 3135.04,110.774 3136.67,110.75 3138.29,110.726 3139.92,110.703 
  3141.55,110.679 3143.18,110.656 3144.81,110.633 3146.43,110.611 3148.06,110.588 3149.69,110.566 3151.32,110.544 3152.95,110.522 3154.57,110.501 3156.2,110.479 
  3157.83,110.458 3159.46,110.437 3161.09,110.416 3162.71,110.396 3164.34,110.376 3165.97,110.356 3167.6,110.336 3169.23,110.316 3170.85,110.296 3172.48,110.277 
  3174.11,110.258 3175.74,110.239 3177.37,110.22 3178.99,110.202 3180.62,110.183 3182.25,110.165 3183.88,110.147 3185.51,110.129 3187.13,110.112 3188.76,110.094 
  3190.39,110.077 3192.02,110.06 3193.65,110.043 3195.28,110.026 3196.9,110.009 3198.53,109.993 3200.16,109.976 3201.79,109.96 3203.42,109.944 3205.04,109.928 
  3206.67,109.913 3208.3,109.897 3209.93,109.882 3211.56,109.867 3213.18,109.852 3214.81,109.837 3216.44,109.822 3218.07,109.807 3219.7,109.793 3221.32,109.779 
  3222.95,109.764 3224.58,109.75 3226.21,109.736 3227.84,109.723 3229.46,109.709 3231.09,109.696 3232.72,109.682 3234.35,109.669 3235.98,109.656 3237.6,109.643 
  3239.23,109.63 3240.86,109.617 3242.49,109.605 3244.12,109.592 3245.74,109.58 3247.37,109.568 3249,109.556 3250.63,109.544 3252.26,109.532 3253.88,109.52 
  3255.51,109.509 3257.14,109.497 3258.77,109.486 3260.4,109.474 3262.02,109.463 3263.65,109.452 3265.28,109.441 3266.91,109.43 3268.54,109.42 3270.16,109.409 
  3271.79,109.399 3273.42,109.388 3275.05,109.378 3276.68,109.368 3278.3,109.358 3279.93,109.348 3281.56,109.338 3283.19,109.328 3284.82,109.318 3286.44,109.309 
  3288.07,109.299 3289.7,109.29 3291.33,109.28 3292.96,109.271 3294.58,109.262 3296.21,109.253 3297.84,109.244 3299.47,109.235 3301.1,109.226 3302.72,109.218 
  3304.35,109.209 3305.98,109.2 3307.61,109.192 3309.24,109.184 3310.86,109.175 3312.49,109.167 3314.12,109.159 3315.75,109.151 3317.38,109.143 3319,109.135 
  3320.63,109.127 3322.26,109.12 3323.89,109.112 3325.52,109.105 3327.14,109.097 3328.77,109.09 3330.4,109.082 3332.03,109.075 3333.66,109.068 3335.28,109.061 
  3336.91,109.054 3338.54,109.047 3340.17,109.04 3341.8,109.033 3343.42,109.026 3345.05,109.02 3346.68,109.013 3348.31,109.006 3349.94,109 3351.56,108.993 
  3353.19,108.987 3354.82,108.981 3356.45,108.974 3358.08,108.968 3359.7,108.962 3361.33,108.956 3362.96,108.95 3364.59,108.944 3366.22,108.938 3367.84,108.932 
  3369.47,108.927 3371.1,108.921 3372.73,108.915 3374.36,108.91 3375.98,108.904 3377.61,108.899 3379.24,108.893 3380.87,108.888 3382.5,108.882 3384.12,108.877 
  3385.75,108.872 3387.38,108.867 3389.01,108.862 3390.64,108.857 3392.26,108.852 3393.89,108.847 3395.52,108.842 3397.15,108.837 3398.78,108.832 3400.4,108.827 
  3402.03,108.822 3403.66,108.818 3405.29,108.813 3406.92,108.809 3408.54,108.804 3410.17,108.8 3411.8,108.795 3413.43,108.791 3415.06,108.786 3416.68,108.782 
  3418.31,108.778 3419.94,108.773 3421.57,108.769 3423.2,108.765 3424.82,108.761 3426.45,108.757 3428.08,108.753 3429.71,108.749 3431.34,108.745 3432.96,108.741 
  3434.59,108.737 3436.22,108.733 3437.85,108.73 3439.48,108.726 3441.11,108.722 3442.73,108.718 3444.36,108.715 3445.99,108.711 3447.62,108.708 3449.25,108.704 
  3450.87,108.701 3452.5,108.697 3454.13,108.694 3455.76,108.69 3457.39,108.687 3459.01,108.684 3460.64,108.68 3462.27,108.677 3463.9,108.674 3465.53,108.671 
  3467.15,108.667 3468.78,108.664 3470.41,108.661 3472.04,108.658 3473.67,108.655 3475.29,108.652 3476.92,108.649 3478.55,108.646 3480.18,108.643 3481.81,108.64 
  3483.43,108.637 3485.06,108.635 3486.69,108.632 3488.32,108.629 3489.95,108.626 3491.57,108.624 3493.2,108.621 3494.83,108.618 3496.46,108.616 3498.09,108.613 
  3499.71,108.61 3501.34,108.608 3502.97,108.605 3504.6,108.603 3506.23,108.6 3507.85,108.598 3509.48,108.595 3511.11,108.593 3512.74,108.59 3514.37,108.588 
  3515.99,108.586 3517.62,108.583 3519.25,108.581 3520.88,108.579 3522.51,108.577 3524.13,108.574 3525.76,108.572 3527.39,108.57 3529.02,108.568 3530.65,108.566 
  3532.27,108.564 3533.9,108.561 3535.53,108.559 3537.16,108.557 3538.79,108.555 3540.41,108.553 3542.04,108.551 3543.67,108.549 3545.3,108.547 3546.93,108.545 
  3548.55,108.543 3550.18,108.541 3551.81,108.54 3553.44,108.538 3555.07,108.536 3556.69,108.534 3558.32,108.532 3559.95,108.53 3561.58,108.529 3563.21,108.527 
  3564.83,108.525 3566.46,108.523 3568.09,108.522 3569.72,108.52 3571.35,108.518 3572.97,108.517 3574.6,108.515 3576.23,108.513 3577.86,108.512 3579.49,108.51 
  3581.11,108.509 3582.74,108.507 3584.37,108.506 3586,108.504 3587.63,108.503 3589.25,108.501 3590.88,108.5 3592.51,108.498 3594.14,108.497 3595.77,108.495 
  3597.39,108.494 3599.02,108.492 3600.65,108.491 3602.28,108.49 3603.91,108.488 3605.53,108.487 3607.16,108.486 3608.79,108.484 3610.42,108.483 3612.05,108.482 
  3613.67,108.48 3615.3,108.479 3616.93,108.478 3618.56,108.477 3620.19,108.475 3621.81,108.474 3623.44,108.473 3625.07,108.472 3626.7,108.47 3628.33,108.469 
  3629.95,108.468 3631.58,108.467 3633.21,108.466 3634.84,108.465 3636.47,108.464 3638.09,108.462 3639.72,108.461 3641.35,108.46 3642.98,108.459 3644.61,108.458 
  3646.23,108.457 3647.86,108.456 3649.49,108.455 3651.12,108.454 3652.75,108.453 3654.37,108.452 3656,108.451 3657.63,108.45 3659.26,108.449 3660.89,108.448 
  3662.51,108.447 3664.14,108.446 3665.77,108.445 3667.4,108.444 3669.03,108.443 3670.65,108.442 3672.28,108.442 3673.91,108.441 3675.54,108.44 3677.17,108.439 
  3678.79,108.438 3680.42,108.437 3682.05,108.436 3683.68,108.436 3685.31,108.435 3686.94,108.434 3688.56,108.433 3690.19,108.432 3691.82,108.431 3693.45,108.431 
  3695.08,108.43 
  "/>
</svg>
