<?xml version="1.0" encoding="utf-8"?>
<svg xmlns="http://www.w3.org/2000/svg" xmlns:xlink="http://www.w3.org/1999/xlink" width="960" height="480" viewBox="0 0 3840 1920">
<defs>
  <clipPath id="clip130">
    <rect x="0" y="0" width="3840" height="1920"/>
  </clipPath>
</defs>
<path clip-path="url(#clip130)" d="
M0 1920 L3840 1920 L3840 0 L0 0  Z
  " fill="#ffffff" fill-rule="evenodd" fill-opacity="1"/>
<defs>
  <clipPath id="clip131">
    <rect x="768" y="0" width="2689" height="1920"/>
  </clipPath>
</defs>
<path clip-path="url(#clip130)" d="
M238.498 882.442 L3792.76 882.442 L3792.76 108.352 L238.498 108.352  Z
  " fill="#ffffff" fill-rule="evenodd" fill-opacity="1"/>
<defs>
  <clipPath id="clip132">
    <rect x="238" y="108" width="3555" height="775"/>
  </clipPath>
</defs>
<polyline clip-path="url(#clip132)" style="stroke:#000000; stroke-linecap:round; stroke-linejoin:round; stroke-width:2; stroke-opacity:0.1; fill:none" points="
  339.09,882.442 339.09,108.352 
  "/>
<polyline clip-path="url(#clip132)" style="stroke:#000000; stroke-linecap:round; stroke-linejoin:round; stroke-width:2; stroke-opacity:0.1; fill:none" points="
  1177.36,882.442 1177.36,108.352 
  "/>
<polyline clip-path="url(#clip132)" style="stroke:#000000; stroke-linecap:round; stroke-linejoin:round; stroke-width:2; stroke-opacity:0.1; fill:none" points="
  2015.63,882.442 2015.63,108.352 
  "/>
<polyline clip-path="url(#clip132)" style="stroke:#000000; stroke-linecap:round; stroke-linejoin:round; stroke-width:2; stroke-opacity:0.1; fill:none" points="
  2853.9,882.442 2853.9,108.352 
  "/>
<polyline clip-path="url(#clip132)" style="stroke:#000000; stroke-linecap:round; stroke-linejoin:round; stroke-width:2; stroke-opacity:0.1; fill:none" points="
  3692.16,882.442 3692.16,108.352 
  "/>
<polyline clip-path="url(#clip130)" style="stroke:#000000; stroke-linecap:round; stroke-linejoin:round; stroke-width:4; stroke-opacity:1; fill:none" points="
  238.498,882.442 3792.76,882.442 
  "/>
<polyline clip-path="url(#clip130)" style="stroke:#000000; stroke-linecap:round; stroke-linejoin:round; stroke-width:4; stroke-opacity:1; fill:none" points="
  339.09,882.442 339.09,863.544 
  "/>
<polyline clip-path="url(#clip130)" style="stroke:#000000; stroke-linecap:round; stroke-linejoin:round; stroke-width:4; stroke-opacity:1; fill:none" points="
  1177.36,882.442 1177.36,863.544 
  "/>
<polyline clip-path="url(#clip130)" style="stroke:#000000; stroke-linecap:round; stroke-linejoin:round; stroke-width:4; stroke-opacity:1; fill:none" points="
  2015.63,882.442 2015.63,863.544 
  "/>
<polyline clip-path="url(#clip130)" style="stroke:#000000; stroke-linecap:round; stroke-linejoin:round; stroke-width:4; stroke-opacity:1; fill:none" points="
  2853.9,882.442 2853.9,863.544 
  "/>
<polyline clip-path="url(#clip130)" style="stroke:#000000; stroke-linecap:round; stroke-linejoin:round; stroke-width:4; stroke-opacity:1; fill:none" points="
  3692.16,882.442 3692.16,863.544 
  "/>
<path clip-path="url(#clip130)" d="M301.394 924.881 Q297.782 924.881 295.954 928.445 Q294.148 931.987 294.148 939.117 Q294.148 946.223 295.954 949.788 Q297.782 953.329 301.394 953.329 Q305.028 953.329 306.833 949.788 Q308.662 946.223 308.662 939.117 Q308.662 931.987 306.833 928.445 Q305.028 924.881 301.394 924.881 M301.394 921.177 Q307.204 921.177 310.259 925.783 Q313.338 930.367 313.338 939.117 Q313.338 947.843 310.259 952.45 Q307.204 957.033 301.394 957.033 Q295.583 957.033 292.505 952.45 Q289.449 947.843 289.449 939.117 Q289.449 930.367 292.505 925.783 Q295.583 921.177 301.394 921.177 Z" fill="#000000" fill-rule="evenodd" fill-opacity="1" /><path clip-path="url(#clip130)" d="M321.555 950.482 L326.44 950.482 L326.44 956.362 L321.555 956.362 L321.555 950.482 Z" fill="#000000" fill-rule="evenodd" fill-opacity="1" /><path clip-path="url(#clip130)" d="M346.625 924.881 Q343.014 924.881 341.185 928.445 Q339.379 931.987 339.379 939.117 Q339.379 946.223 341.185 949.788 Q343.014 953.329 346.625 953.329 Q350.259 953.329 352.065 949.788 Q353.893 946.223 353.893 939.117 Q353.893 931.987 352.065 928.445 Q350.259 924.881 346.625 924.881 M346.625 921.177 Q352.435 921.177 355.49 925.783 Q358.569 930.367 358.569 939.117 Q358.569 947.843 355.49 952.45 Q352.435 957.033 346.625 957.033 Q340.815 957.033 337.736 952.45 Q334.68 947.843 334.68 939.117 Q334.68 930.367 337.736 925.783 Q340.815 921.177 346.625 921.177 Z" fill="#000000" fill-rule="evenodd" fill-opacity="1" /><path clip-path="url(#clip130)" d="M376.787 924.881 Q373.176 924.881 371.347 928.445 Q369.541 931.987 369.541 939.117 Q369.541 946.223 371.347 949.788 Q373.176 953.329 376.787 953.329 Q380.421 953.329 382.226 949.788 Q384.055 946.223 384.055 939.117 Q384.055 931.987 382.226 928.445 Q380.421 924.881 376.787 924.881 M376.787 921.177 Q382.597 921.177 385.652 925.783 Q388.731 930.367 388.731 939.117 Q388.731 947.843 385.652 952.45 Q382.597 957.033 376.787 957.033 Q370.976 957.033 367.898 952.45 Q364.842 947.843 364.842 939.117 Q364.842 930.367 367.898 925.783 Q370.976 921.177 376.787 921.177 Z" fill="#000000" fill-rule="evenodd" fill-opacity="1" /><path clip-path="url(#clip130)" d="M1140.16 924.881 Q1136.55 924.881 1134.72 928.445 Q1132.91 931.987 1132.91 939.117 Q1132.91 946.223 1134.72 949.788 Q1136.55 953.329 1140.16 953.329 Q1143.79 953.329 1145.6 949.788 Q1147.43 946.223 1147.43 939.117 Q1147.43 931.987 1145.6 928.445 Q1143.79 924.881 1140.16 924.881 M1140.16 921.177 Q1145.97 921.177 1149.03 925.783 Q1152.1 930.367 1152.1 939.117 Q1152.1 947.843 1149.03 952.45 Q1145.97 957.033 1140.16 957.033 Q1134.35 957.033 1131.27 952.45 Q1128.22 947.843 1128.22 939.117 Q1128.22 930.367 1131.27 925.783 Q1134.35 921.177 1140.16 921.177 Z" fill="#000000" fill-rule="evenodd" fill-opacity="1" /><path clip-path="url(#clip130)" d="M1160.32 950.482 L1165.21 950.482 L1165.21 956.362 L1160.32 956.362 L1160.32 950.482 Z" fill="#000000" fill-rule="evenodd" fill-opacity="1" /><path clip-path="url(#clip130)" d="M1179.42 952.427 L1195.74 952.427 L1195.74 956.362 L1173.79 956.362 L1173.79 952.427 Q1176.46 949.672 1181.04 945.043 Q1185.65 940.39 1186.83 939.047 Q1189.07 936.524 1189.95 934.788 Q1190.85 933.029 1190.85 931.339 Q1190.85 928.584 1188.91 926.848 Q1186.99 925.112 1183.89 925.112 Q1181.69 925.112 1179.23 925.876 Q1176.8 926.64 1174.03 928.191 L1174.03 923.469 Q1176.85 922.334 1179.3 921.756 Q1181.76 921.177 1183.79 921.177 Q1189.16 921.177 1192.36 923.862 Q1195.55 926.547 1195.55 931.038 Q1195.55 933.168 1194.74 935.089 Q1193.96 936.987 1191.85 939.58 Q1191.27 940.251 1188.17 943.468 Q1185.07 946.663 1179.42 952.427 Z" fill="#000000" fill-rule="evenodd" fill-opacity="1" /><path clip-path="url(#clip130)" d="M1205.6 921.802 L1223.96 921.802 L1223.96 925.737 L1209.88 925.737 L1209.88 934.209 Q1210.9 933.862 1211.92 933.7 Q1212.94 933.515 1213.96 933.515 Q1219.74 933.515 1223.12 936.686 Q1226.5 939.857 1226.5 945.274 Q1226.5 950.853 1223.03 953.954 Q1219.56 957.033 1213.24 957.033 Q1211.06 957.033 1208.79 956.663 Q1206.55 956.292 1204.14 955.552 L1204.14 950.853 Q1206.22 951.987 1208.45 952.542 Q1210.67 953.098 1213.15 953.098 Q1217.15 953.098 1219.49 950.992 Q1221.83 948.885 1221.83 945.274 Q1221.83 941.663 1219.49 939.556 Q1217.15 937.45 1213.15 937.45 Q1211.27 937.45 1209.4 937.867 Q1207.54 938.283 1205.6 939.163 L1205.6 921.802 Z" fill="#000000" fill-rule="evenodd" fill-opacity="1" /><path clip-path="url(#clip130)" d="M1977.93 924.881 Q1974.32 924.881 1972.49 928.445 Q1970.69 931.987 1970.69 939.117 Q1970.69 946.223 1972.49 949.788 Q1974.32 953.329 1977.93 953.329 Q1981.56 953.329 1983.37 949.788 Q1985.2 946.223 1985.2 939.117 Q1985.2 931.987 1983.37 928.445 Q1981.56 924.881 1977.93 924.881 M1977.93 921.177 Q1983.74 921.177 1986.8 925.783 Q1989.87 930.367 1989.87 939.117 Q1989.87 947.843 1986.8 952.45 Q1983.74 957.033 1977.93 957.033 Q1972.12 957.033 1969.04 952.45 Q1965.99 947.843 1965.99 939.117 Q1965.99 930.367 1969.04 925.783 Q1972.12 921.177 1977.93 921.177 Z" fill="#000000" fill-rule="evenodd" fill-opacity="1" /><path clip-path="url(#clip130)" d="M1998.09 950.482 L2002.98 950.482 L2002.98 956.362 L1998.09 956.362 L1998.09 950.482 Z" fill="#000000" fill-rule="evenodd" fill-opacity="1" /><path clip-path="url(#clip130)" d="M2013.21 921.802 L2031.56 921.802 L2031.56 925.737 L2017.49 925.737 L2017.49 934.209 Q2018.51 933.862 2019.53 933.7 Q2020.55 933.515 2021.56 933.515 Q2027.35 933.515 2030.73 936.686 Q2034.11 939.857 2034.11 945.274 Q2034.11 950.853 2030.64 953.954 Q2027.17 957.033 2020.85 957.033 Q2018.67 957.033 2016.4 956.663 Q2014.16 956.292 2011.75 955.552 L2011.75 950.853 Q2013.83 951.987 2016.06 952.542 Q2018.28 953.098 2020.75 953.098 Q2024.76 953.098 2027.1 950.992 Q2029.43 948.885 2029.43 945.274 Q2029.43 941.663 2027.1 939.556 Q2024.76 937.45 2020.75 937.45 Q2018.88 937.45 2017 937.867 Q2015.15 938.283 2013.21 939.163 L2013.21 921.802 Z" fill="#000000" fill-rule="evenodd" fill-opacity="1" /><path clip-path="url(#clip130)" d="M2053.32 924.881 Q2049.71 924.881 2047.88 928.445 Q2046.08 931.987 2046.08 939.117 Q2046.08 946.223 2047.88 949.788 Q2049.71 953.329 2053.32 953.329 Q2056.96 953.329 2058.76 949.788 Q2060.59 946.223 2060.59 939.117 Q2060.59 931.987 2058.76 928.445 Q2056.96 924.881 2053.32 924.881 M2053.32 921.177 Q2059.13 921.177 2062.19 925.783 Q2065.27 930.367 2065.27 939.117 Q2065.27 947.843 2062.19 952.45 Q2059.13 957.033 2053.32 957.033 Q2047.51 957.033 2044.43 952.45 Q2041.38 947.843 2041.38 939.117 Q2041.38 930.367 2044.43 925.783 Q2047.51 921.177 2053.32 921.177 Z" fill="#000000" fill-rule="evenodd" fill-opacity="1" /><path clip-path="url(#clip130)" d="M2816.7 924.881 Q2813.09 924.881 2811.26 928.445 Q2809.45 931.987 2809.45 939.117 Q2809.45 946.223 2811.26 949.788 Q2813.09 953.329 2816.7 953.329 Q2820.33 953.329 2822.14 949.788 Q2823.96 946.223 2823.96 939.117 Q2823.96 931.987 2822.14 928.445 Q2820.33 924.881 2816.7 924.881 M2816.7 921.177 Q2822.51 921.177 2825.56 925.783 Q2828.64 930.367 2828.64 939.117 Q2828.64 947.843 2825.56 952.45 Q2822.51 957.033 2816.7 957.033 Q2810.89 957.033 2807.81 952.45 Q2804.75 947.843 2804.75 939.117 Q2804.75 930.367 2807.81 925.783 Q2810.89 921.177 2816.7 921.177 Z" fill="#000000" fill-rule="evenodd" fill-opacity="1" /><path clip-path="url(#clip130)" d="M2836.86 950.482 L2841.74 950.482 L2841.74 956.362 L2836.86 956.362 L2836.86 950.482 Z" fill="#000000" fill-rule="evenodd" fill-opacity="1" /><path clip-path="url(#clip130)" d="M2850.75 921.802 L2872.97 921.802 L2872.97 923.793 L2860.42 956.362 L2855.54 956.362 L2867.34 925.737 L2850.75 925.737 L2850.75 921.802 Z" fill="#000000" fill-rule="evenodd" fill-opacity="1" /><path clip-path="url(#clip130)" d="M2882.14 921.802 L2900.49 921.802 L2900.49 925.737 L2886.42 925.737 L2886.42 934.209 Q2887.44 933.862 2888.46 933.7 Q2889.47 933.515 2890.49 933.515 Q2896.28 933.515 2899.66 936.686 Q2903.04 939.857 2903.04 945.274 Q2903.04 950.853 2899.57 953.954 Q2896.09 957.033 2889.77 957.033 Q2887.6 957.033 2885.33 956.663 Q2883.08 956.292 2880.68 955.552 L2880.68 950.853 Q2882.76 951.987 2884.98 952.542 Q2887.21 953.098 2889.68 953.098 Q2893.69 953.098 2896.02 950.992 Q2898.36 948.885 2898.36 945.274 Q2898.36 941.663 2896.02 939.556 Q2893.69 937.45 2889.68 937.45 Q2887.81 937.45 2885.93 937.867 Q2884.08 938.283 2882.14 939.163 L2882.14 921.802 Z" fill="#000000" fill-rule="evenodd" fill-opacity="1" /><path clip-path="url(#clip130)" d="M3644.24 952.427 L3651.87 952.427 L3651.87 926.061 L3643.56 927.728 L3643.56 923.469 L3651.83 921.802 L3656.5 921.802 L3656.5 952.427 L3664.14 952.427 L3664.14 956.362 L3644.24 956.362 L3644.24 952.427 Z" fill="#000000" fill-rule="evenodd" fill-opacity="1" /><path clip-path="url(#clip130)" d="M3673.59 950.482 L3678.47 950.482 L3678.47 956.362 L3673.59 956.362 L3673.59 950.482 Z" fill="#000000" fill-rule="evenodd" fill-opacity="1" /><path clip-path="url(#clip130)" d="M3698.66 924.881 Q3695.05 924.881 3693.22 928.445 Q3691.41 931.987 3691.41 939.117 Q3691.41 946.223 3693.22 949.788 Q3695.05 953.329 3698.66 953.329 Q3702.29 953.329 3704.1 949.788 Q3705.93 946.223 3705.93 939.117 Q3705.93 931.987 3704.1 928.445 Q3702.29 924.881 3698.66 924.881 M3698.66 921.177 Q3704.47 921.177 3707.52 925.783 Q3710.6 930.367 3710.6 939.117 Q3710.6 947.843 3707.52 952.45 Q3704.47 957.033 3698.66 957.033 Q3692.85 957.033 3689.77 952.45 Q3686.71 947.843 3686.71 939.117 Q3686.71 930.367 3689.77 925.783 Q3692.85 921.177 3698.66 921.177 Z" fill="#000000" fill-rule="evenodd" fill-opacity="1" /><path clip-path="url(#clip130)" d="M3728.82 924.881 Q3725.21 924.881 3723.38 928.445 Q3721.57 931.987 3721.57 939.117 Q3721.57 946.223 3723.38 949.788 Q3725.21 953.329 3728.82 953.329 Q3732.45 953.329 3734.26 949.788 Q3736.09 946.223 3736.09 939.117 Q3736.09 931.987 3734.26 928.445 Q3732.45 924.881 3728.82 924.881 M3728.82 921.177 Q3734.63 921.177 3737.68 925.783 Q3740.76 930.367 3740.76 939.117 Q3740.76 947.843 3737.68 952.45 Q3734.63 957.033 3728.82 957.033 Q3723.01 957.033 3719.93 952.45 Q3716.87 947.843 3716.87 939.117 Q3716.87 930.367 3719.93 925.783 Q3723.01 921.177 3728.82 921.177 Z" fill="#000000" fill-rule="evenodd" fill-opacity="1" /><polyline clip-path="url(#clip132)" style="stroke:#000000; stroke-linecap:round; stroke-linejoin:round; stroke-width:2; stroke-opacity:0.1; fill:none" points="
  238.498,860.534 3792.76,860.534 
  "/>
<polyline clip-path="url(#clip132)" style="stroke:#000000; stroke-linecap:round; stroke-linejoin:round; stroke-width:2; stroke-opacity:0.1; fill:none" points="
  238.498,712.387 3792.76,712.387 
  "/>
<polyline clip-path="url(#clip132)" style="stroke:#000000; stroke-linecap:round; stroke-linejoin:round; stroke-width:2; stroke-opacity:0.1; fill:none" points="
  238.498,564.241 3792.76,564.241 
  "/>
<polyline clip-path="url(#clip132)" style="stroke:#000000; stroke-linecap:round; stroke-linejoin:round; stroke-width:2; stroke-opacity:0.1; fill:none" points="
  238.498,416.094 3792.76,416.094 
  "/>
<polyline clip-path="url(#clip132)" style="stroke:#000000; stroke-linecap:round; stroke-linejoin:round; stroke-width:2; stroke-opacity:0.1; fill:none" points="
  238.498,267.948 3792.76,267.948 
  "/>
<polyline clip-path="url(#clip132)" style="stroke:#000000; stroke-linecap:round; stroke-linejoin:round; stroke-width:2; stroke-opacity:0.1; fill:none" points="
  238.498,119.802 3792.76,119.802 
  "/>
<polyline clip-path="url(#clip130)" style="stroke:#000000; stroke-linecap:round; stroke-linejoin:round; stroke-width:4; stroke-opacity:1; fill:none" points="
  238.498,882.442 238.498,108.352 
  "/>
<polyline clip-path="url(#clip130)" style="stroke:#000000; stroke-linecap:round; stroke-linejoin:round; stroke-width:4; stroke-opacity:1; fill:none" points="
  238.498,860.534 257.396,860.534 
  "/>
<polyline clip-path="url(#clip130)" style="stroke:#000000; stroke-linecap:round; stroke-linejoin:round; stroke-width:4; stroke-opacity:1; fill:none" points="
  238.498,712.387 257.396,712.387 
  "/>
<polyline clip-path="url(#clip130)" style="stroke:#000000; stroke-linecap:round; stroke-linejoin:round; stroke-width:4; stroke-opacity:1; fill:none" points="
  238.498,564.241 257.396,564.241 
  "/>
<polyline clip-path="url(#clip130)" style="stroke:#000000; stroke-linecap:round; stroke-linejoin:round; stroke-width:4; stroke-opacity:1; fill:none" points="
  238.498,416.094 257.396,416.094 
  "/>
<polyline clip-path="url(#clip130)" style="stroke:#000000; stroke-linecap:round; stroke-linejoin:round; stroke-width:4; stroke-opacity:1; fill:none" points="
  238.498,267.948 257.396,267.948 
  "/>
<polyline clip-path="url(#clip130)" style="stroke:#000000; stroke-linecap:round; stroke-linejoin:round; stroke-width:4; stroke-opacity:1; fill:none" points="
  238.498,119.802 257.396,119.802 
  "/>
<path clip-path="url(#clip130)" d="M43.7921 860.985 L73.4679 860.985 L73.4679 864.92 L43.7921 864.92 L43.7921 860.985 Z" fill="#000000" fill-rule="evenodd" fill-opacity="1" /><path clip-path="url(#clip130)" d="M93.5604 846.332 Q89.9493 846.332 88.1206 849.897 Q86.315 853.439 86.315 860.568 Q86.315 867.675 88.1206 871.24 Q89.9493 874.781 93.5604 874.781 Q97.1946 874.781 99.0002 871.24 Q100.829 867.675 100.829 860.568 Q100.829 853.439 99.0002 849.897 Q97.1946 846.332 93.5604 846.332 M93.5604 842.629 Q99.3705 842.629 102.426 847.235 Q105.505 851.818 105.505 860.568 Q105.505 869.295 102.426 873.902 Q99.3705 878.485 93.5604 878.485 Q87.7502 878.485 84.6715 873.902 Q81.616 869.295 81.616 860.568 Q81.616 851.818 84.6715 847.235 Q87.7502 842.629 93.5604 842.629 Z" fill="#000000" fill-rule="evenodd" fill-opacity="1" /><path clip-path="url(#clip130)" d="M113.722 871.934 L118.607 871.934 L118.607 877.814 L113.722 877.814 L113.722 871.934 Z" fill="#000000" fill-rule="evenodd" fill-opacity="1" /><path clip-path="url(#clip130)" d="M132.819 873.879 L149.139 873.879 L149.139 877.814 L127.194 877.814 L127.194 873.879 Q129.856 871.124 134.44 866.494 Q139.046 861.842 140.227 860.499 Q142.472 857.976 143.352 856.24 Q144.255 854.48 144.255 852.791 Q144.255 850.036 142.31 848.3 Q140.389 846.564 137.287 846.564 Q135.088 846.564 132.634 847.328 Q130.204 848.092 127.426 849.643 L127.426 844.92 Q130.25 843.786 132.704 843.207 Q135.157 842.629 137.194 842.629 Q142.565 842.629 145.759 845.314 Q148.954 847.999 148.954 852.49 Q148.954 854.619 148.143 856.541 Q147.356 858.439 145.25 861.031 Q144.671 861.703 141.569 864.92 Q138.468 868.115 132.819 873.879 Z" fill="#000000" fill-rule="evenodd" fill-opacity="1" /><path clip-path="url(#clip130)" d="M168.953 846.332 Q165.342 846.332 163.514 849.897 Q161.708 853.439 161.708 860.568 Q161.708 867.675 163.514 871.24 Q165.342 874.781 168.953 874.781 Q172.588 874.781 174.393 871.24 Q176.222 867.675 176.222 860.568 Q176.222 853.439 174.393 849.897 Q172.588 846.332 168.953 846.332 M168.953 842.629 Q174.764 842.629 177.819 847.235 Q180.898 851.818 180.898 860.568 Q180.898 869.295 177.819 873.902 Q174.764 878.485 168.953 878.485 Q163.143 878.485 160.065 873.902 Q157.009 869.295 157.009 860.568 Q157.009 851.818 160.065 847.235 Q163.143 842.629 168.953 842.629 Z" fill="#000000" fill-rule="evenodd" fill-opacity="1" /><path clip-path="url(#clip130)" d="M44.7875 712.839 L74.4633 712.839 L74.4633 716.774 L44.7875 716.774 L44.7875 712.839 Z" fill="#000000" fill-rule="evenodd" fill-opacity="1" /><path clip-path="url(#clip130)" d="M94.5557 698.186 Q90.9447 698.186 89.116 701.751 Q87.3104 705.292 87.3104 712.422 Q87.3104 719.528 89.116 723.093 Q90.9447 726.635 94.5557 726.635 Q98.19 726.635 99.9955 723.093 Q101.824 719.528 101.824 712.422 Q101.824 705.292 99.9955 701.751 Q98.19 698.186 94.5557 698.186 M94.5557 694.482 Q100.366 694.482 103.421 699.089 Q106.5 703.672 106.5 712.422 Q106.5 721.149 103.421 725.755 Q100.366 730.339 94.5557 730.339 Q88.7456 730.339 85.6669 725.755 Q82.6114 721.149 82.6114 712.422 Q82.6114 703.672 85.6669 699.089 Q88.7456 694.482 94.5557 694.482 Z" fill="#000000" fill-rule="evenodd" fill-opacity="1" /><path clip-path="url(#clip130)" d="M114.718 723.788 L119.602 723.788 L119.602 729.667 L114.718 729.667 L114.718 723.788 Z" fill="#000000" fill-rule="evenodd" fill-opacity="1" /><path clip-path="url(#clip130)" d="M130.597 725.732 L138.236 725.732 L138.236 699.367 L129.926 701.033 L129.926 696.774 L138.19 695.107 L142.866 695.107 L142.866 725.732 L150.505 725.732 L150.505 729.667 L130.597 729.667 L130.597 725.732 Z" fill="#000000" fill-rule="evenodd" fill-opacity="1" /><path clip-path="url(#clip130)" d="M159.995 695.107 L178.352 695.107 L178.352 699.042 L164.278 699.042 L164.278 707.515 Q165.296 707.167 166.315 707.005 Q167.333 706.82 168.352 706.82 Q174.139 706.82 177.518 709.991 Q180.898 713.163 180.898 718.579 Q180.898 724.158 177.426 727.26 Q173.953 730.339 167.634 730.339 Q165.458 730.339 163.19 729.968 Q160.944 729.598 158.537 728.857 L158.537 724.158 Q160.62 725.292 162.842 725.848 Q165.065 726.403 167.541 726.403 Q171.546 726.403 173.884 724.297 Q176.222 722.19 176.222 718.579 Q176.222 714.968 173.884 712.862 Q171.546 710.755 167.541 710.755 Q165.666 710.755 163.791 711.172 Q161.94 711.589 159.995 712.468 L159.995 695.107 Z" fill="#000000" fill-rule="evenodd" fill-opacity="1" /><path clip-path="url(#clip130)" d="M43.7921 564.692 L73.4679 564.692 L73.4679 568.627 L43.7921 568.627 L43.7921 564.692 Z" fill="#000000" fill-rule="evenodd" fill-opacity="1" /><path clip-path="url(#clip130)" d="M93.5604 550.04 Q89.9493 550.04 88.1206 553.604 Q86.315 557.146 86.315 564.276 Q86.315 571.382 88.1206 574.947 Q89.9493 578.488 93.5604 578.488 Q97.1946 578.488 99.0002 574.947 Q100.829 571.382 100.829 564.276 Q100.829 557.146 99.0002 553.604 Q97.1946 550.04 93.5604 550.04 M93.5604 546.336 Q99.3705 546.336 102.426 550.942 Q105.505 555.526 105.505 564.276 Q105.505 573.002 102.426 577.609 Q99.3705 582.192 93.5604 582.192 Q87.7502 582.192 84.6715 577.609 Q81.616 573.002 81.616 564.276 Q81.616 555.526 84.6715 550.942 Q87.7502 546.336 93.5604 546.336 Z" fill="#000000" fill-rule="evenodd" fill-opacity="1" /><path clip-path="url(#clip130)" d="M113.722 575.641 L118.607 575.641 L118.607 581.521 L113.722 581.521 L113.722 575.641 Z" fill="#000000" fill-rule="evenodd" fill-opacity="1" /><path clip-path="url(#clip130)" d="M129.602 577.586 L137.241 577.586 L137.241 551.22 L128.931 552.887 L128.931 548.628 L137.194 546.961 L141.87 546.961 L141.87 577.586 L149.509 577.586 L149.509 581.521 L129.602 581.521 L129.602 577.586 Z" fill="#000000" fill-rule="evenodd" fill-opacity="1" /><path clip-path="url(#clip130)" d="M168.953 550.04 Q165.342 550.04 163.514 553.604 Q161.708 557.146 161.708 564.276 Q161.708 571.382 163.514 574.947 Q165.342 578.488 168.953 578.488 Q172.588 578.488 174.393 574.947 Q176.222 571.382 176.222 564.276 Q176.222 557.146 174.393 553.604 Q172.588 550.04 168.953 550.04 M168.953 546.336 Q174.764 546.336 177.819 550.942 Q180.898 555.526 180.898 564.276 Q180.898 573.002 177.819 577.609 Q174.764 582.192 168.953 582.192 Q163.143 582.192 160.065 577.609 Q157.009 573.002 157.009 564.276 Q157.009 555.526 160.065 550.942 Q163.143 546.336 168.953 546.336 Z" fill="#000000" fill-rule="evenodd" fill-opacity="1" /><path clip-path="url(#clip130)" d="M44.7875 416.546 L74.4633 416.546 L74.4633 420.481 L44.7875 420.481 L44.7875 416.546 Z" fill="#000000" fill-rule="evenodd" fill-opacity="1" /><path clip-path="url(#clip130)" d="M94.5557 401.893 Q90.9447 401.893 89.116 405.458 Q87.3104 409 87.3104 416.129 Q87.3104 423.236 89.116 426.8 Q90.9447 430.342 94.5557 430.342 Q98.19 430.342 99.9955 426.8 Q101.824 423.236 101.824 416.129 Q101.824 409 99.9955 405.458 Q98.19 401.893 94.5557 401.893 M94.5557 398.189 Q100.366 398.189 103.421 402.796 Q106.5 407.379 106.5 416.129 Q106.5 424.856 103.421 429.462 Q100.366 434.046 94.5557 434.046 Q88.7456 434.046 85.6669 429.462 Q82.6114 424.856 82.6114 416.129 Q82.6114 407.379 85.6669 402.796 Q88.7456 398.189 94.5557 398.189 Z" fill="#000000" fill-rule="evenodd" fill-opacity="1" /><path clip-path="url(#clip130)" d="M114.718 427.495 L119.602 427.495 L119.602 433.374 L114.718 433.374 L114.718 427.495 Z" fill="#000000" fill-rule="evenodd" fill-opacity="1" /><path clip-path="url(#clip130)" d="M139.787 401.893 Q136.176 401.893 134.347 405.458 Q132.542 409 132.542 416.129 Q132.542 423.236 134.347 426.8 Q136.176 430.342 139.787 430.342 Q143.421 430.342 145.227 426.8 Q147.055 423.236 147.055 416.129 Q147.055 409 145.227 405.458 Q143.421 401.893 139.787 401.893 M139.787 398.189 Q145.597 398.189 148.653 402.796 Q151.731 407.379 151.731 416.129 Q151.731 424.856 148.653 429.462 Q145.597 434.046 139.787 434.046 Q133.977 434.046 130.898 429.462 Q127.843 424.856 127.843 416.129 Q127.843 407.379 130.898 402.796 Q133.977 398.189 139.787 398.189 Z" fill="#000000" fill-rule="evenodd" fill-opacity="1" /><path clip-path="url(#clip130)" d="M159.995 398.814 L178.352 398.814 L178.352 402.75 L164.278 402.75 L164.278 411.222 Q165.296 410.875 166.315 410.713 Q167.333 410.527 168.352 410.527 Q174.139 410.527 177.518 413.699 Q180.898 416.87 180.898 422.287 Q180.898 427.865 177.426 430.967 Q173.953 434.046 167.634 434.046 Q165.458 434.046 163.19 433.675 Q160.944 433.305 158.537 432.564 L158.537 427.865 Q160.62 428.999 162.842 429.555 Q165.065 430.111 167.541 430.111 Q171.546 430.111 173.884 428.004 Q176.222 425.898 176.222 422.287 Q176.222 418.675 173.884 416.569 Q171.546 414.462 167.541 414.462 Q165.666 414.462 163.791 414.879 Q161.94 415.296 159.995 416.175 L159.995 398.814 Z" fill="#000000" fill-rule="evenodd" fill-opacity="1" /><path clip-path="url(#clip130)" d="M93.5604 253.747 Q89.9493 253.747 88.1206 257.311 Q86.315 260.853 86.315 267.983 Q86.315 275.089 88.1206 278.654 Q89.9493 282.196 93.5604 282.196 Q97.1946 282.196 99.0002 278.654 Q100.829 275.089 100.829 267.983 Q100.829 260.853 99.0002 257.311 Q97.1946 253.747 93.5604 253.747 M93.5604 250.043 Q99.3705 250.043 102.426 254.649 Q105.505 259.233 105.505 267.983 Q105.505 276.71 102.426 281.316 Q99.3705 285.899 93.5604 285.899 Q87.7502 285.899 84.6715 281.316 Q81.616 276.71 81.616 267.983 Q81.616 259.233 84.6715 254.649 Q87.7502 250.043 93.5604 250.043 Z" fill="#000000" fill-rule="evenodd" fill-opacity="1" /><path clip-path="url(#clip130)" d="M113.722 279.348 L118.607 279.348 L118.607 285.228 L113.722 285.228 L113.722 279.348 Z" fill="#000000" fill-rule="evenodd" fill-opacity="1" /><path clip-path="url(#clip130)" d="M138.792 253.747 Q135.181 253.747 133.352 257.311 Q131.546 260.853 131.546 267.983 Q131.546 275.089 133.352 278.654 Q135.181 282.196 138.792 282.196 Q142.426 282.196 144.231 278.654 Q146.06 275.089 146.06 267.983 Q146.06 260.853 144.231 257.311 Q142.426 253.747 138.792 253.747 M138.792 250.043 Q144.602 250.043 147.657 254.649 Q150.736 259.233 150.736 267.983 Q150.736 276.71 147.657 281.316 Q144.602 285.899 138.792 285.899 Q132.981 285.899 129.903 281.316 Q126.847 276.71 126.847 267.983 Q126.847 259.233 129.903 254.649 Q132.981 250.043 138.792 250.043 Z" fill="#000000" fill-rule="evenodd" fill-opacity="1" /><path clip-path="url(#clip130)" d="M168.953 253.747 Q165.342 253.747 163.514 257.311 Q161.708 260.853 161.708 267.983 Q161.708 275.089 163.514 278.654 Q165.342 282.196 168.953 282.196 Q172.588 282.196 174.393 278.654 Q176.222 275.089 176.222 267.983 Q176.222 260.853 174.393 257.311 Q172.588 253.747 168.953 253.747 M168.953 250.043 Q174.764 250.043 177.819 254.649 Q180.898 259.233 180.898 267.983 Q180.898 276.71 177.819 281.316 Q174.764 285.899 168.953 285.899 Q163.143 285.899 160.065 281.316 Q157.009 276.71 157.009 267.983 Q157.009 259.233 160.065 254.649 Q163.143 250.043 168.953 250.043 Z" fill="#000000" fill-rule="evenodd" fill-opacity="1" /><path clip-path="url(#clip130)" d="M94.5557 105.6 Q90.9447 105.6 89.116 109.165 Q87.3104 112.707 87.3104 119.836 Q87.3104 126.943 89.116 130.508 Q90.9447 134.049 94.5557 134.049 Q98.19 134.049 99.9955 130.508 Q101.824 126.943 101.824 119.836 Q101.824 112.707 99.9955 109.165 Q98.19 105.6 94.5557 105.6 M94.5557 101.897 Q100.366 101.897 103.421 106.503 Q106.5 111.086 106.5 119.836 Q106.5 128.563 103.421 133.17 Q100.366 137.753 94.5557 137.753 Q88.7456 137.753 85.6669 133.17 Q82.6114 128.563 82.6114 119.836 Q82.6114 111.086 85.6669 106.503 Q88.7456 101.897 94.5557 101.897 Z" fill="#000000" fill-rule="evenodd" fill-opacity="1" /><path clip-path="url(#clip130)" d="M114.718 131.202 L119.602 131.202 L119.602 137.082 L114.718 137.082 L114.718 131.202 Z" fill="#000000" fill-rule="evenodd" fill-opacity="1" /><path clip-path="url(#clip130)" d="M139.787 105.6 Q136.176 105.6 134.347 109.165 Q132.542 112.707 132.542 119.836 Q132.542 126.943 134.347 130.508 Q136.176 134.049 139.787 134.049 Q143.421 134.049 145.227 130.508 Q147.055 126.943 147.055 119.836 Q147.055 112.707 145.227 109.165 Q143.421 105.6 139.787 105.6 M139.787 101.897 Q145.597 101.897 148.653 106.503 Q151.731 111.086 151.731 119.836 Q151.731 128.563 148.653 133.17 Q145.597 137.753 139.787 137.753 Q133.977 137.753 130.898 133.17 Q127.843 128.563 127.843 119.836 Q127.843 111.086 130.898 106.503 Q133.977 101.897 139.787 101.897 Z" fill="#000000" fill-rule="evenodd" fill-opacity="1" /><path clip-path="url(#clip130)" d="M159.995 102.522 L178.352 102.522 L178.352 106.457 L164.278 106.457 L164.278 114.929 Q165.296 114.582 166.315 114.42 Q167.333 114.234 168.352 114.234 Q174.139 114.234 177.518 117.406 Q180.898 120.577 180.898 125.994 Q180.898 131.572 177.426 134.674 Q173.953 137.753 167.634 137.753 Q165.458 137.753 163.19 137.383 Q160.944 137.012 158.537 136.271 L158.537 131.572 Q160.62 132.707 162.842 133.262 Q165.065 133.818 167.541 133.818 Q171.546 133.818 173.884 131.711 Q176.222 129.605 176.222 125.994 Q176.222 122.383 173.884 120.276 Q171.546 118.17 167.541 118.17 Q165.666 118.17 163.791 118.586 Q161.94 119.003 159.995 119.883 L159.995 102.522 Z" fill="#000000" fill-rule="evenodd" fill-opacity="1" /><path clip-path="url(#clip130)" d="M1518.97 12.096 L1527.15 12.096 L1527.15 65.6895 L1556.6 65.6895 L1556.6 72.576 L1518.97 72.576 L1518.97 12.096 Z" fill="#000000" fill-rule="evenodd" fill-opacity="1" /><path clip-path="url(#clip130)" d="M1602.21 48.0275 L1602.21 51.6733 L1567.94 51.6733 Q1568.43 59.3701 1572.56 63.421 Q1576.73 67.4314 1584.14 67.4314 Q1588.44 67.4314 1592.45 66.3781 Q1596.5 65.3249 1600.47 63.2184 L1600.47 70.267 Q1596.46 71.9684 1592.25 72.8596 Q1588.03 73.7508 1583.7 73.7508 Q1572.84 73.7508 1566.48 67.4314 Q1560.16 61.1119 1560.16 50.3365 Q1560.16 39.1965 1566.16 32.6746 Q1572.19 26.1121 1582.4 26.1121 Q1591.56 26.1121 1596.86 32.0264 Q1602.21 37.9003 1602.21 48.0275 M1594.76 45.84 Q1594.68 39.7232 1591.31 36.0774 Q1587.99 32.4315 1582.48 32.4315 Q1576.25 32.4315 1572.48 35.9558 Q1568.75 39.4801 1568.18 45.8805 L1594.76 45.84 Z" fill="#000000" fill-rule="evenodd" fill-opacity="1" /><path clip-path="url(#clip130)" d="M1635.06 49.7694 Q1626.03 49.7694 1622.55 51.8354 Q1619.06 53.9013 1619.06 58.8839 Q1619.06 62.8538 1621.66 65.2034 Q1624.29 67.5124 1628.79 67.5124 Q1634.98 67.5124 1638.71 63.1374 Q1642.48 58.7219 1642.48 51.4303 L1642.48 49.7694 L1635.06 49.7694 M1649.93 46.6907 L1649.93 72.576 L1642.48 72.576 L1642.48 65.6895 Q1639.93 69.8214 1636.12 71.8063 Q1632.31 73.7508 1626.8 73.7508 Q1619.83 73.7508 1615.7 69.8619 Q1611.61 65.9325 1611.61 59.3701 Q1611.61 51.7138 1616.71 47.825 Q1621.86 43.9361 1632.03 43.9361 L1642.48 43.9361 L1642.48 43.2069 Q1642.48 38.0623 1639.08 35.2672 Q1635.71 32.4315 1629.6 32.4315 Q1625.71 32.4315 1622.02 33.3632 Q1618.33 34.295 1614.93 36.1584 L1614.93 29.2718 Q1619.02 27.692 1622.87 26.9223 Q1626.72 26.1121 1630.37 26.1121 Q1640.21 26.1121 1645.07 31.2163 Q1649.93 36.3204 1649.93 46.6907 Z" fill="#000000" fill-rule="evenodd" fill-opacity="1" /><path clip-path="url(#clip130)" d="M1665 9.54393 L1672.5 9.54393 L1672.5 46.7717 L1694.73 27.2059 L1704.25 27.2059 L1680.19 48.4326 L1705.27 72.576 L1695.54 72.576 L1672.5 50.4176 L1672.5 72.576 L1665 72.576 L1665 9.54393 Z" fill="#000000" fill-rule="evenodd" fill-opacity="1" /><path clip-path="url(#clip130)" d="M1729.25 76.7889 Q1726.09 84.8907 1723.09 87.3618 Q1720.09 89.8329 1715.07 89.8329 L1709.12 89.8329 L1709.12 83.5945 L1713.49 83.5945 Q1716.57 83.5945 1718.27 82.1361 Q1719.97 80.6778 1722.04 75.2496 L1723.37 71.8468 L1705.02 27.2059 L1712.92 27.2059 L1727.1 62.6918 L1741.28 27.2059 L1749.18 27.2059 L1729.25 76.7889 Z" fill="#000000" fill-rule="evenodd" fill-opacity="1" /><path clip-path="url(#clip130)" d="M1786.16 12.096 L1794.35 12.096 L1794.35 72.576 L1786.16 72.576 L1786.16 12.096 Z" fill="#000000" fill-rule="evenodd" fill-opacity="1" /><path clip-path="url(#clip130)" d="M1848.02 45.1919 L1848.02 72.576 L1840.57 72.576 L1840.57 45.4349 Q1840.57 38.994 1838.06 35.7938 Q1835.54 32.5936 1830.52 32.5936 Q1824.48 32.5936 1821 36.4419 Q1817.52 40.2903 1817.52 46.9338 L1817.52 72.576 L1810.02 72.576 L1810.02 27.2059 L1817.52 27.2059 L1817.52 34.2544 Q1820.19 30.163 1823.8 28.1376 Q1827.44 26.1121 1832.18 26.1121 Q1840 26.1121 1844.01 30.9732 Q1848.02 35.7938 1848.02 45.1919 Z" fill="#000000" fill-rule="evenodd" fill-opacity="1" /><path clip-path="url(#clip130)" d="M1870.26 14.324 L1870.26 27.2059 L1885.61 27.2059 L1885.61 32.9987 L1870.26 32.9987 L1870.26 57.6282 Q1870.26 63.1779 1871.76 64.7578 Q1873.3 66.3376 1877.96 66.3376 L1885.61 66.3376 L1885.61 72.576 L1877.96 72.576 Q1869.33 72.576 1866.05 69.3758 Q1862.77 66.1351 1862.77 57.6282 L1862.77 32.9987 L1857.3 32.9987 L1857.3 27.2059 L1862.77 27.2059 L1862.77 14.324 L1870.26 14.324 Z" fill="#000000" fill-rule="evenodd" fill-opacity="1" /><path clip-path="url(#clip130)" d="M1934.22 48.0275 L1934.22 51.6733 L1899.95 51.6733 Q1900.44 59.3701 1904.57 63.421 Q1908.74 67.4314 1916.16 67.4314 Q1920.45 67.4314 1924.46 66.3781 Q1928.51 65.3249 1932.48 63.2184 L1932.48 70.267 Q1928.47 71.9684 1924.26 72.8596 Q1920.05 73.7508 1915.71 73.7508 Q1904.85 73.7508 1898.49 67.4314 Q1892.18 61.1119 1892.18 50.3365 Q1892.18 39.1965 1898.17 32.6746 Q1904.21 26.1121 1914.42 26.1121 Q1923.57 26.1121 1928.88 32.0264 Q1934.22 37.9003 1934.22 48.0275 M1926.77 45.84 Q1926.69 39.7232 1923.33 36.0774 Q1920.01 32.4315 1914.5 32.4315 Q1908.26 32.4315 1904.49 35.9558 Q1900.76 39.4801 1900.2 45.8805 L1926.77 45.84 Z" fill="#000000" fill-rule="evenodd" fill-opacity="1" /><path clip-path="url(#clip130)" d="M1976.31 49.3643 Q1976.31 41.2625 1972.95 36.8065 Q1969.63 32.3505 1963.59 32.3505 Q1957.6 32.3505 1954.24 36.8065 Q1950.91 41.2625 1950.91 49.3643 Q1950.91 57.4256 1954.24 61.8816 Q1957.6 66.3376 1963.59 66.3376 Q1969.63 66.3376 1972.95 61.8816 Q1976.31 57.4256 1976.31 49.3643 M1983.77 66.9452 Q1983.77 78.5308 1978.62 84.1616 Q1973.48 89.8329 1962.86 89.8329 Q1958.93 89.8329 1955.45 89.2252 Q1951.97 88.6581 1948.69 87.4428 L1948.69 80.1917 Q1951.97 81.9741 1955.17 82.8248 Q1958.37 83.6755 1961.69 83.6755 Q1969.02 83.6755 1972.67 79.8271 Q1976.31 76.0193 1976.31 68.282 L1976.31 64.5957 Q1974 68.6061 1970.4 70.5911 Q1966.79 72.576 1961.77 72.576 Q1953.43 72.576 1948.32 66.2161 Q1943.22 59.8562 1943.22 49.3643 Q1943.22 38.832 1948.32 32.472 Q1953.43 26.1121 1961.77 26.1121 Q1966.79 26.1121 1970.4 28.0971 Q1974 30.082 1976.31 34.0924 L1976.31 27.2059 L1983.77 27.2059 L1983.77 66.9452 Z" fill="#000000" fill-rule="evenodd" fill-opacity="1" /><path clip-path="url(#clip130)" d="M2025.41 34.1734 Q2024.15 33.4443 2022.66 33.1202 Q2021.2 32.7556 2019.41 32.7556 Q2013.1 32.7556 2009.69 36.8875 Q2006.33 40.9789 2006.33 48.6757 L2006.33 72.576 L1998.84 72.576 L1998.84 27.2059 L2006.33 27.2059 L2006.33 34.2544 Q2008.68 30.1225 2012.45 28.1376 Q2016.21 26.1121 2021.6 26.1121 Q2022.37 26.1121 2023.3 26.2337 Q2024.24 26.3147 2025.37 26.5172 L2025.41 34.1734 Z" fill="#000000" fill-rule="evenodd" fill-opacity="1" /><path clip-path="url(#clip130)" d="M2053.85 49.7694 Q2044.81 49.7694 2041.33 51.8354 Q2037.85 53.9013 2037.85 58.8839 Q2037.85 62.8538 2040.44 65.2034 Q2043.07 67.5124 2047.57 67.5124 Q2053.77 67.5124 2057.49 63.1374 Q2061.26 58.7219 2061.26 51.4303 L2061.26 49.7694 L2053.85 49.7694 M2068.71 46.6907 L2068.71 72.576 L2061.26 72.576 L2061.26 65.6895 Q2058.71 69.8214 2054.9 71.8063 Q2051.09 73.7508 2045.58 73.7508 Q2038.62 73.7508 2034.48 69.8619 Q2030.39 65.9325 2030.39 59.3701 Q2030.39 51.7138 2035.5 47.825 Q2040.64 43.9361 2050.81 43.9361 L2061.26 43.9361 L2061.26 43.2069 Q2061.26 38.0623 2057.86 35.2672 Q2054.5 32.4315 2048.38 32.4315 Q2044.49 32.4315 2040.8 33.3632 Q2037.12 34.295 2033.71 36.1584 L2033.71 29.2718 Q2037.81 27.692 2041.65 26.9223 Q2045.5 26.1121 2049.15 26.1121 Q2058.99 26.1121 2063.85 31.2163 Q2068.71 36.3204 2068.71 46.6907 Z" fill="#000000" fill-rule="evenodd" fill-opacity="1" /><path clip-path="url(#clip130)" d="M2091.44 14.324 L2091.44 27.2059 L2106.79 27.2059 L2106.79 32.9987 L2091.44 32.9987 L2091.44 57.6282 Q2091.44 63.1779 2092.94 64.7578 Q2094.48 66.3376 2099.14 66.3376 L2106.79 66.3376 L2106.79 72.576 L2099.14 72.576 Q2090.51 72.576 2087.23 69.3758 Q2083.95 66.1351 2083.95 57.6282 L2083.95 32.9987 L2078.48 32.9987 L2078.48 27.2059 L2083.95 27.2059 L2083.95 14.324 L2091.44 14.324 Z" fill="#000000" fill-rule="evenodd" fill-opacity="1" /><path clip-path="url(#clip130)" d="M2155.4 48.0275 L2155.4 51.6733 L2121.13 51.6733 Q2121.62 59.3701 2125.75 63.421 Q2129.92 67.4314 2137.34 67.4314 Q2141.63 67.4314 2145.64 66.3781 Q2149.69 65.3249 2153.66 63.2184 L2153.66 70.267 Q2149.65 71.9684 2145.44 72.8596 Q2141.23 73.7508 2136.89 73.7508 Q2126.03 73.7508 2119.67 67.4314 Q2113.35 61.1119 2113.35 50.3365 Q2113.35 39.1965 2119.35 32.6746 Q2125.39 26.1121 2135.59 26.1121 Q2144.75 26.1121 2150.06 32.0264 Q2155.4 37.9003 2155.4 48.0275 M2147.95 45.84 Q2147.87 39.7232 2144.51 36.0774 Q2141.18 32.4315 2135.68 32.4315 Q2129.44 32.4315 2125.67 35.9558 Q2121.94 39.4801 2121.38 45.8805 L2147.95 45.84 Z" fill="#000000" fill-rule="evenodd" fill-opacity="1" /><path clip-path="url(#clip130)" d="M2214.63 49.7694 Q2205.59 49.7694 2202.11 51.8354 Q2198.63 53.9013 2198.63 58.8839 Q2198.63 62.8538 2201.22 65.2034 Q2203.85 67.5124 2208.35 67.5124 Q2214.55 67.5124 2218.27 63.1374 Q2222.04 58.7219 2222.04 51.4303 L2222.04 49.7694 L2214.63 49.7694 M2229.49 46.6907 L2229.49 72.576 L2222.04 72.576 L2222.04 65.6895 Q2219.49 69.8214 2215.68 71.8063 Q2211.87 73.7508 2206.36 73.7508 Q2199.4 73.7508 2195.26 69.8619 Q2191.17 65.9325 2191.17 59.3701 Q2191.17 51.7138 2196.28 47.825 Q2201.42 43.9361 2211.59 43.9361 L2222.04 43.9361 L2222.04 43.2069 Q2222.04 38.0623 2218.64 35.2672 Q2215.28 32.4315 2209.16 32.4315 Q2205.27 32.4315 2201.58 33.3632 Q2197.9 34.295 2194.49 36.1584 L2194.49 29.2718 Q2198.59 27.692 2202.43 26.9223 Q2206.28 26.1121 2209.93 26.1121 Q2219.77 26.1121 2224.63 31.2163 Q2229.49 36.3204 2229.49 46.6907 Z" fill="#000000" fill-rule="evenodd" fill-opacity="1" /><path clip-path="url(#clip130)" d="M2282.56 45.1919 L2282.56 72.576 L2275.11 72.576 L2275.11 45.4349 Q2275.11 38.994 2272.6 35.7938 Q2270.08 32.5936 2265.06 32.5936 Q2259.03 32.5936 2255.54 36.4419 Q2252.06 40.2903 2252.06 46.9338 L2252.06 72.576 L2244.56 72.576 L2244.56 27.2059 L2252.06 27.2059 L2252.06 34.2544 Q2254.73 30.163 2258.34 28.1376 Q2261.98 26.1121 2266.72 26.1121 Q2274.54 26.1121 2278.55 30.9732 Q2282.56 35.7938 2282.56 45.1919 Z" fill="#000000" fill-rule="evenodd" fill-opacity="1" /><path clip-path="url(#clip130)" d="M2327.28 34.0924 L2327.28 9.54393 L2334.74 9.54393 L2334.74 72.576 L2327.28 72.576 L2327.28 65.7705 Q2324.93 69.8214 2321.33 71.8063 Q2317.76 73.7508 2312.74 73.7508 Q2304.52 73.7508 2299.33 67.1883 Q2294.19 60.6258 2294.19 49.9314 Q2294.19 39.2371 2299.33 32.6746 Q2304.52 26.1121 2312.74 26.1121 Q2317.76 26.1121 2321.33 28.0971 Q2324.93 30.0415 2327.28 34.0924 M2301.88 49.9314 Q2301.88 58.1548 2305.25 62.8538 Q2308.65 67.5124 2314.56 67.5124 Q2320.48 67.5124 2323.88 62.8538 Q2327.28 58.1548 2327.28 49.9314 Q2327.28 41.7081 2323.88 37.0496 Q2320.48 32.3505 2314.56 32.3505 Q2308.65 32.3505 2305.25 37.0496 Q2301.88 41.7081 2301.88 49.9314 Z" fill="#000000" fill-rule="evenodd" fill-opacity="1" /><path clip-path="url(#clip130)" d="M2376.79 12.096 L2411.54 12.096 L2411.54 18.9825 L2384.97 18.9825 L2384.97 36.8065 L2408.95 36.8065 L2408.95 43.6931 L2384.97 43.6931 L2384.97 72.576 L2376.79 72.576 L2376.79 12.096 Z" fill="#000000" fill-rule="evenodd" fill-opacity="1" /><path clip-path="url(#clip130)" d="M2418.14 27.2059 L2425.6 27.2059 L2425.6 72.576 L2418.14 72.576 L2418.14 27.2059 M2418.14 9.54393 L2425.6 9.54393 L2425.6 18.9825 L2418.14 18.9825 L2418.14 9.54393 Z" fill="#000000" fill-rule="evenodd" fill-opacity="1" /><path clip-path="url(#clip130)" d="M2467.49 34.1734 Q2466.23 33.4443 2464.73 33.1202 Q2463.27 32.7556 2461.49 32.7556 Q2455.17 32.7556 2451.77 36.8875 Q2448.41 40.9789 2448.41 48.6757 L2448.41 72.576 L2440.91 72.576 L2440.91 27.2059 L2448.41 27.2059 L2448.41 34.2544 Q2450.75 30.1225 2454.52 28.1376 Q2458.29 26.1121 2463.68 26.1121 Q2464.45 26.1121 2465.38 26.2337 Q2466.31 26.3147 2467.44 26.5172 L2467.49 34.1734 Z" fill="#000000" fill-rule="evenodd" fill-opacity="1" /><path clip-path="url(#clip130)" d="M2512.29 48.0275 L2512.29 51.6733 L2478.02 51.6733 Q2478.5 59.3701 2482.64 63.421 Q2486.81 67.4314 2494.22 67.4314 Q2498.51 67.4314 2502.53 66.3781 Q2506.58 65.3249 2510.55 63.2184 L2510.55 70.267 Q2506.54 71.9684 2502.32 72.8596 Q2498.11 73.7508 2493.78 73.7508 Q2482.92 73.7508 2476.56 67.4314 Q2470.24 61.1119 2470.24 50.3365 Q2470.24 39.1965 2476.23 32.6746 Q2482.27 26.1121 2492.48 26.1121 Q2501.63 26.1121 2506.94 32.0264 Q2512.29 37.9003 2512.29 48.0275 M2504.83 45.84 Q2504.75 39.7232 2501.39 36.0774 Q2498.07 32.4315 2492.56 32.4315 Q2486.32 32.4315 2482.55 35.9558 Q2478.83 39.4801 2478.26 45.8805 L2504.83 45.84 Z" fill="#000000" fill-rule="evenodd" fill-opacity="1" /><polyline clip-path="url(#clip132)" style="stroke:#009af9; stroke-linecap:round; stroke-linejoin:round; stroke-width:4; stroke-opacity:1; fill:none" points="
  339.09,564.241 372.621,562.759 406.152,561.293 439.682,559.841 473.213,558.403 506.744,556.98 540.274,555.571 573.805,554.177 607.336,552.796 640.867,551.429 
  674.397,550.075 707.928,519.106 741.459,488.447 774.99,458.094 808.52,428.045 842.051,398.296 875.582,368.845 909.113,339.688 942.643,310.823 976.174,282.246 
  1009.7,253.955 1043.24,225.947 1076.77,198.22 1110.3,170.769 1143.83,143.593 1177.36,860.534 1210.89,826.46 1244.42,792.727 1277.95,759.331 1311.48,726.27 
  1345.01,693.539 1378.54,661.135 1412.07,629.055 1445.6,597.296 1479.14,565.855 1512.67,534.728 1546.2,503.913 1579.73,473.405 1613.26,443.203 1646.79,413.302 
  1680.32,383.701 1713.85,354.396 1747.38,325.383 1780.91,296.661 1814.44,268.226 1847.97,240.076 1881.5,212.207 1915.03,184.616 1948.57,157.302 1982.1,130.26 
  2015.63,133.119 2049.16,135.948 2082.69,138.75 2116.22,141.523 2149.75,144.269 2183.28,146.987 2216.81,149.678 2250.34,152.343 2283.87,154.98 2317.4,157.591 
  2350.93,160.176 2384.46,162.735 2418,165.269 2451.53,167.777 2485.06,170.26 2518.59,172.719 2552.12,175.153 2585.65,177.562 2619.18,179.947 2652.71,182.309 
  2686.24,184.647 2719.77,186.961 2753.3,189.252 2786.83,191.521 2820.36,193.767 2853.9,195.99 2887.43,198.191 2920.96,200.37 2954.49,202.527 2988.02,204.663 
  3021.55,206.777 3055.08,208.87 3088.61,210.943 3122.14,212.994 3155.67,215.025 3189.2,217.036 3222.73,219.026 3256.26,220.997 3289.79,222.948 3323.33,224.879 
  3356.86,226.792 3390.39,228.685 3423.92,230.559 3457.45,232.414 3490.98,234.251 3524.51,236.069 3558.04,237.87 3591.57,239.652 3625.1,241.416 3658.63,243.163 
  3692.16,244.892 
  "/>
<path clip-path="url(#clip130)" d="
M2839.55 237.835 L3674.28 237.835 L3674.28 134.155 L2839.55 134.155  Z
  " fill="#ffffff" fill-rule="evenodd" fill-opacity="1"/>
<polyline clip-path="url(#clip130)" style="stroke:#000000; stroke-linecap:round; stroke-linejoin:round; stroke-width:4; stroke-opacity:1; fill:none" points="
  2839.55,237.835 3674.28,237.835 3674.28,134.155 2839.55,134.155 2839.55,237.835 
  "/>
<polyline clip-path="url(#clip130)" style="stroke:#009af9; stroke-linecap:round; stroke-linejoin:round; stroke-width:4; stroke-opacity:1; fill:none" points="
  2879.04,185.995 3115.99,185.995 
  "/>
<path clip-path="url(#clip130)" d="M3155.48 168.715 L3162.45 168.715 L3171.27 192.234 L3180.14 168.715 L3187.1 168.715 L3187.1 203.275 L3182.54 203.275 L3182.54 172.928 L3173.63 196.632 L3168.93 196.632 L3160.02 172.928 L3160.02 203.275 L3155.48 203.275 L3155.48 168.715 Z" fill="#000000" fill-rule="evenodd" fill-opacity="1" /><path clip-path="url(#clip130)" d="M3218.38 189.247 L3218.38 191.331 L3198.79 191.331 Q3199.07 195.729 3201.43 198.044 Q3203.82 200.335 3208.05 200.335 Q3210.51 200.335 3212.8 199.733 Q3215.11 199.132 3217.38 197.928 L3217.38 201.956 Q3215.09 202.928 3212.68 203.437 Q3210.28 203.946 3207.8 203.946 Q3201.6 203.946 3197.96 200.335 Q3194.35 196.724 3194.35 190.567 Q3194.35 184.201 3197.78 180.474 Q3201.23 176.724 3207.06 176.724 Q3212.29 176.724 3215.32 180.104 Q3218.38 183.46 3218.38 189.247 M3214.12 187.997 Q3214.07 184.502 3212.15 182.419 Q3210.25 180.335 3207.1 180.335 Q3203.54 180.335 3201.39 182.349 Q3199.26 184.363 3198.93 188.021 L3214.12 187.997 Z" fill="#000000" fill-rule="evenodd" fill-opacity="1" /><path clip-path="url(#clip130)" d="M3245.55 182.326 Q3247.15 179.456 3249.37 178.09 Q3251.6 176.724 3254.6 176.724 Q3258.66 176.724 3260.85 179.572 Q3263.05 182.396 3263.05 187.627 L3263.05 203.275 L3258.77 203.275 L3258.77 187.766 Q3258.77 184.039 3257.45 182.234 Q3256.13 180.428 3253.42 180.428 Q3250.11 180.428 3248.19 182.627 Q3246.27 184.826 3246.27 188.622 L3246.27 203.275 L3241.99 203.275 L3241.99 187.766 Q3241.99 184.016 3240.67 182.234 Q3239.35 180.428 3236.6 180.428 Q3233.33 180.428 3231.41 182.65 Q3229.49 184.849 3229.49 188.622 L3229.49 203.275 L3225.21 203.275 L3225.21 177.349 L3229.49 177.349 L3229.49 181.377 Q3230.95 178.993 3232.98 177.859 Q3235.02 176.724 3237.82 176.724 Q3240.65 176.724 3242.61 178.16 Q3244.6 179.595 3245.55 182.326 Z" fill="#000000" fill-rule="evenodd" fill-opacity="1" /><path clip-path="url(#clip130)" d="M3290.16 190.335 Q3290.16 185.636 3288.22 182.974 Q3286.29 180.289 3282.91 180.289 Q3279.53 180.289 3277.59 182.974 Q3275.67 185.636 3275.67 190.335 Q3275.67 195.034 3277.59 197.72 Q3279.53 200.382 3282.91 200.382 Q3286.29 200.382 3288.22 197.72 Q3290.16 195.034 3290.16 190.335 M3275.67 181.284 Q3277.01 178.97 3279.05 177.859 Q3281.11 176.724 3283.96 176.724 Q3288.68 176.724 3291.62 180.474 Q3294.58 184.224 3294.58 190.335 Q3294.58 196.446 3291.62 200.196 Q3288.68 203.946 3283.96 203.946 Q3281.11 203.946 3279.05 202.835 Q3277.01 201.701 3275.67 199.386 L3275.67 203.275 L3271.39 203.275 L3271.39 167.257 L3275.67 167.257 L3275.67 181.284 Z" fill="#000000" fill-rule="evenodd" fill-opacity="1" /><path clip-path="url(#clip130)" d="M3316.66 181.331 Q3315.95 180.914 3315.09 180.729 Q3314.26 180.521 3313.24 180.521 Q3309.63 180.521 3307.68 182.882 Q3305.76 185.22 3305.76 189.618 L3305.76 203.275 L3301.48 203.275 L3301.48 177.349 L3305.76 177.349 L3305.76 181.377 Q3307.1 179.016 3309.26 177.882 Q3311.41 176.724 3314.49 176.724 Q3314.93 176.724 3315.46 176.794 Q3315.99 176.84 3316.64 176.956 L3316.66 181.331 Z" fill="#000000" fill-rule="evenodd" fill-opacity="1" /><path clip-path="url(#clip130)" d="M3332.91 190.243 Q3327.75 190.243 3325.76 191.423 Q3323.77 192.604 3323.77 195.451 Q3323.77 197.72 3325.25 199.062 Q3326.76 200.382 3329.33 200.382 Q3332.87 200.382 3335 197.882 Q3337.15 195.358 3337.15 191.192 L3337.15 190.243 L3332.91 190.243 M3341.41 188.484 L3341.41 203.275 L3337.15 203.275 L3337.15 199.34 Q3335.69 201.701 3333.52 202.835 Q3331.34 203.946 3328.19 203.946 Q3324.21 203.946 3321.85 201.724 Q3319.51 199.479 3319.51 195.729 Q3319.51 191.354 3322.43 189.132 Q3325.37 186.909 3331.18 186.909 L3337.15 186.909 L3337.15 186.493 Q3337.15 183.553 3335.21 181.956 Q3333.28 180.335 3329.79 180.335 Q3327.57 180.335 3325.46 180.868 Q3323.35 181.4 3321.41 182.465 L3321.41 178.53 Q3323.75 177.627 3325.95 177.187 Q3328.15 176.724 3330.23 176.724 Q3335.85 176.724 3338.63 179.641 Q3341.41 182.558 3341.41 188.484 Z" fill="#000000" fill-rule="evenodd" fill-opacity="1" /><path clip-path="url(#clip130)" d="M3371.73 187.627 L3371.73 203.275 L3367.47 203.275 L3367.47 187.766 Q3367.47 184.085 3366.04 182.257 Q3364.6 180.428 3361.73 180.428 Q3358.28 180.428 3356.29 182.627 Q3354.3 184.826 3354.3 188.622 L3354.3 203.275 L3350.02 203.275 L3350.02 177.349 L3354.3 177.349 L3354.3 181.377 Q3355.83 179.039 3357.89 177.882 Q3359.97 176.724 3362.68 176.724 Q3367.15 176.724 3369.44 179.502 Q3371.73 182.257 3371.73 187.627 Z" fill="#000000" fill-rule="evenodd" fill-opacity="1" /><path clip-path="url(#clip130)" d="M3402.4 189.247 L3402.4 191.331 L3382.82 191.331 Q3383.1 195.729 3385.46 198.044 Q3387.84 200.335 3392.08 200.335 Q3394.53 200.335 3396.83 199.733 Q3399.14 199.132 3401.41 197.928 L3401.41 201.956 Q3399.12 202.928 3396.71 203.437 Q3394.3 203.946 3391.83 203.946 Q3385.62 203.946 3381.99 200.335 Q3378.38 196.724 3378.38 190.567 Q3378.38 184.201 3381.8 180.474 Q3385.25 176.724 3391.09 176.724 Q3396.32 176.724 3399.35 180.104 Q3402.4 183.46 3402.4 189.247 M3398.15 187.997 Q3398.1 184.502 3396.18 182.419 Q3394.28 180.335 3391.13 180.335 Q3387.57 180.335 3385.41 182.349 Q3383.28 184.363 3382.96 188.021 L3398.15 187.997 Z" fill="#000000" fill-rule="evenodd" fill-opacity="1" /><path clip-path="url(#clip130)" d="M3433.56 203.275 L3420.37 168.715 L3425.25 168.715 L3436.2 197.812 L3447.17 168.715 L3452.03 168.715 L3438.86 203.275 L3433.56 203.275 Z" fill="#000000" fill-rule="evenodd" fill-opacity="1" /><path clip-path="url(#clip130)" d="M3463.26 180.335 Q3459.83 180.335 3457.84 183.021 Q3455.85 185.683 3455.85 190.335 Q3455.85 194.988 3457.82 197.673 Q3459.81 200.335 3463.26 200.335 Q3466.66 200.335 3468.65 197.65 Q3470.65 194.965 3470.65 190.335 Q3470.65 185.729 3468.65 183.044 Q3466.66 180.335 3463.26 180.335 M3463.26 176.724 Q3468.82 176.724 3471.99 180.335 Q3475.16 183.947 3475.16 190.335 Q3475.16 196.701 3471.99 200.335 Q3468.82 203.946 3463.26 203.946 Q3457.68 203.946 3454.51 200.335 Q3451.36 196.701 3451.36 190.335 Q3451.36 183.947 3454.51 180.335 Q3457.68 176.724 3463.26 176.724 Z" fill="#000000" fill-rule="evenodd" fill-opacity="1" /><path clip-path="url(#clip130)" d="M3482.22 167.257 L3486.48 167.257 L3486.48 203.275 L3482.22 203.275 L3482.22 167.257 Z" fill="#000000" fill-rule="evenodd" fill-opacity="1" /><path clip-path="url(#clip130)" d="M3499.6 169.988 L3499.6 177.349 L3508.38 177.349 L3508.38 180.659 L3499.6 180.659 L3499.6 194.733 Q3499.6 197.905 3500.46 198.808 Q3501.34 199.71 3504 199.71 L3508.38 199.71 L3508.38 203.275 L3504 203.275 Q3499.07 203.275 3497.2 201.446 Q3495.32 199.595 3495.32 194.733 L3495.32 180.659 L3492.2 180.659 L3492.2 177.349 L3495.32 177.349 L3495.32 169.988 L3499.6 169.988 Z" fill="#000000" fill-rule="evenodd" fill-opacity="1" /><path clip-path="url(#clip130)" d="M3525.76 190.243 Q3520.6 190.243 3518.61 191.423 Q3516.62 192.604 3516.62 195.451 Q3516.62 197.72 3518.1 199.062 Q3519.6 200.382 3522.17 200.382 Q3525.71 200.382 3527.84 197.882 Q3530 195.358 3530 191.192 L3530 190.243 L3525.76 190.243 M3534.26 188.484 L3534.26 203.275 L3530 203.275 L3530 199.34 Q3528.54 201.701 3526.36 202.835 Q3524.19 203.946 3521.04 203.946 Q3517.06 203.946 3514.7 201.724 Q3512.36 199.479 3512.36 195.729 Q3512.36 191.354 3515.27 189.132 Q3518.21 186.909 3524.02 186.909 L3530 186.909 L3530 186.493 Q3530 183.553 3528.05 181.956 Q3526.13 180.335 3522.64 180.335 Q3520.41 180.335 3518.31 180.868 Q3516.2 181.4 3514.26 182.465 L3514.26 178.53 Q3516.59 177.627 3518.79 177.187 Q3520.99 176.724 3523.08 176.724 Q3528.7 176.724 3531.48 179.641 Q3534.26 182.558 3534.26 188.484 Z" fill="#000000" fill-rule="evenodd" fill-opacity="1" /><path clip-path="url(#clip130)" d="M3560.09 190.011 Q3560.09 185.382 3558.17 182.835 Q3556.27 180.289 3552.82 180.289 Q3549.39 180.289 3547.47 182.835 Q3545.58 185.382 3545.58 190.011 Q3545.58 194.618 3547.47 197.164 Q3549.39 199.71 3552.82 199.71 Q3556.27 199.71 3558.17 197.164 Q3560.09 194.618 3560.09 190.011 M3564.35 200.058 Q3564.35 206.678 3561.41 209.895 Q3558.47 213.136 3552.4 213.136 Q3550.16 213.136 3548.17 212.789 Q3546.18 212.465 3544.3 211.77 L3544.3 207.627 Q3546.18 208.645 3548.01 209.132 Q3549.83 209.618 3551.73 209.618 Q3555.92 209.618 3558.01 207.419 Q3560.09 205.243 3560.09 200.821 L3560.09 198.715 Q3558.77 201.007 3556.71 202.141 Q3554.65 203.275 3551.78 203.275 Q3547.01 203.275 3544.09 199.641 Q3541.18 196.007 3541.18 190.011 Q3541.18 183.993 3544.09 180.359 Q3547.01 176.724 3551.78 176.724 Q3554.65 176.724 3556.71 177.859 Q3558.77 178.993 3560.09 181.284 L3560.09 177.349 L3564.35 177.349 L3564.35 200.058 Z" fill="#000000" fill-rule="evenodd" fill-opacity="1" /><path clip-path="url(#clip130)" d="M3595.3 189.247 L3595.3 191.331 L3575.71 191.331 Q3575.99 195.729 3578.35 198.044 Q3580.74 200.335 3584.97 200.335 Q3587.43 200.335 3589.72 199.733 Q3592.03 199.132 3594.3 197.928 L3594.3 201.956 Q3592.01 202.928 3589.6 203.437 Q3587.2 203.946 3584.72 203.946 Q3578.51 203.946 3574.88 200.335 Q3571.27 196.724 3571.27 190.567 Q3571.27 184.201 3574.7 180.474 Q3578.14 176.724 3583.98 176.724 Q3589.21 176.724 3592.24 180.104 Q3595.3 183.46 3595.3 189.247 M3591.04 187.997 Q3590.99 184.502 3589.07 182.419 Q3587.17 180.335 3584.02 180.335 Q3580.46 180.335 3578.31 182.349 Q3576.18 184.363 3575.85 188.021 L3591.04 187.997 Z" fill="#000000" fill-rule="evenodd" fill-opacity="1" /><path clip-path="url(#clip130)" d="
M238.498 1811.89 L3792.76 1811.89 L3792.76 1037.8 L238.498 1037.8  Z
  " fill="#ffffff" fill-rule="evenodd" fill-opacity="1"/>
<defs>
  <clipPath id="clip133">
    <rect x="238" y="1037" width="3555" height="775"/>
  </clipPath>
</defs>
<polyline clip-path="url(#clip133)" style="stroke:#000000; stroke-linecap:round; stroke-linejoin:round; stroke-width:2; stroke-opacity:0.1; fill:none" points="
  339.09,1811.89 339.09,1037.8 
  "/>
<polyline clip-path="url(#clip133)" style="stroke:#000000; stroke-linecap:round; stroke-linejoin:round; stroke-width:2; stroke-opacity:0.1; fill:none" points="
  1177.36,1811.89 1177.36,1037.8 
  "/>
<polyline clip-path="url(#clip133)" style="stroke:#000000; stroke-linecap:round; stroke-linejoin:round; stroke-width:2; stroke-opacity:0.1; fill:none" points="
  2015.63,1811.89 2015.63,1037.8 
  "/>
<polyline clip-path="url(#clip133)" style="stroke:#000000; stroke-linecap:round; stroke-linejoin:round; stroke-width:2; stroke-opacity:0.1; fill:none" points="
  2853.9,1811.89 2853.9,1037.8 
  "/>
<polyline clip-path="url(#clip133)" style="stroke:#000000; stroke-linecap:round; stroke-linejoin:round; stroke-width:2; stroke-opacity:0.1; fill:none" points="
  3692.16,1811.89 3692.16,1037.8 
  "/>
<polyline clip-path="url(#clip130)" style="stroke:#000000; stroke-linecap:round; stroke-linejoin:round; stroke-width:4; stroke-opacity:1; fill:none" points="
  238.498,1811.89 3792.76,1811.89 
  "/>
<polyline clip-path="url(#clip130)" style="stroke:#000000; stroke-linecap:round; stroke-linejoin:round; stroke-width:4; stroke-opacity:1; fill:none" points="
  339.09,1811.89 339.09,1792.99 
  "/>
<polyline clip-path="url(#clip130)" style="stroke:#000000; stroke-linecap:round; stroke-linejoin:round; stroke-width:4; stroke-opacity:1; fill:none" points="
  1177.36,1811.89 1177.36,1792.99 
  "/>
<polyline clip-path="url(#clip130)" style="stroke:#000000; stroke-linecap:round; stroke-linejoin:round; stroke-width:4; stroke-opacity:1; fill:none" points="
  2015.63,1811.89 2015.63,1792.99 
  "/>
<polyline clip-path="url(#clip130)" style="stroke:#000000; stroke-linecap:round; stroke-linejoin:round; stroke-width:4; stroke-opacity:1; fill:none" points="
  2853.9,1811.89 2853.9,1792.99 
  "/>
<polyline clip-path="url(#clip130)" style="stroke:#000000; stroke-linecap:round; stroke-linejoin:round; stroke-width:4; stroke-opacity:1; fill:none" points="
  3692.16,1811.89 3692.16,1792.99 
  "/>
<path clip-path="url(#clip130)" d="M301.394 1854.33 Q297.782 1854.33 295.954 1857.89 Q294.148 1861.43 294.148 1868.56 Q294.148 1875.67 295.954 1879.23 Q297.782 1882.78 301.394 1882.78 Q305.028 1882.78 306.833 1879.23 Q308.662 1875.67 308.662 1868.56 Q308.662 1861.43 306.833 1857.89 Q305.028 1854.33 301.394 1854.33 M301.394 1850.62 Q307.204 1850.62 310.259 1855.23 Q313.338 1859.81 313.338 1868.56 Q313.338 1877.29 310.259 1881.9 Q307.204 1886.48 301.394 1886.48 Q295.583 1886.48 292.505 1881.9 Q289.449 1877.29 289.449 1868.56 Q289.449 1859.81 292.505 1855.23 Q295.583 1850.62 301.394 1850.62 Z" fill="#000000" fill-rule="evenodd" fill-opacity="1" /><path clip-path="url(#clip130)" d="M321.555 1879.93 L326.44 1879.93 L326.44 1885.81 L321.555 1885.81 L321.555 1879.93 Z" fill="#000000" fill-rule="evenodd" fill-opacity="1" /><path clip-path="url(#clip130)" d="M346.625 1854.33 Q343.014 1854.33 341.185 1857.89 Q339.379 1861.43 339.379 1868.56 Q339.379 1875.67 341.185 1879.23 Q343.014 1882.78 346.625 1882.78 Q350.259 1882.78 352.065 1879.23 Q353.893 1875.67 353.893 1868.56 Q353.893 1861.43 352.065 1857.89 Q350.259 1854.33 346.625 1854.33 M346.625 1850.62 Q352.435 1850.62 355.49 1855.23 Q358.569 1859.81 358.569 1868.56 Q358.569 1877.29 355.49 1881.9 Q352.435 1886.48 346.625 1886.48 Q340.815 1886.48 337.736 1881.9 Q334.68 1877.29 334.68 1868.56 Q334.68 1859.81 337.736 1855.23 Q340.815 1850.62 346.625 1850.62 Z" fill="#000000" fill-rule="evenodd" fill-opacity="1" /><path clip-path="url(#clip130)" d="M376.787 1854.33 Q373.176 1854.33 371.347 1857.89 Q369.541 1861.43 369.541 1868.56 Q369.541 1875.67 371.347 1879.23 Q373.176 1882.78 376.787 1882.78 Q380.421 1882.78 382.226 1879.23 Q384.055 1875.67 384.055 1868.56 Q384.055 1861.43 382.226 1857.89 Q380.421 1854.33 376.787 1854.33 M376.787 1850.62 Q382.597 1850.62 385.652 1855.23 Q388.731 1859.81 388.731 1868.56 Q388.731 1877.29 385.652 1881.9 Q382.597 1886.48 376.787 1886.48 Q370.976 1886.48 367.898 1881.9 Q364.842 1877.29 364.842 1868.56 Q364.842 1859.81 367.898 1855.23 Q370.976 1850.62 376.787 1850.62 Z" fill="#000000" fill-rule="evenodd" fill-opacity="1" /><path clip-path="url(#clip130)" d="M1140.16 1854.33 Q1136.55 1854.33 1134.72 1857.89 Q1132.91 1861.43 1132.91 1868.56 Q1132.91 1875.67 1134.72 1879.23 Q1136.55 1882.78 1140.16 1882.78 Q1143.79 1882.78 1145.6 1879.23 Q1147.43 1875.67 1147.43 1868.56 Q1147.43 1861.43 1145.6 1857.89 Q1143.79 1854.33 1140.16 1854.33 M1140.16 1850.62 Q1145.97 1850.62 1149.03 1855.23 Q1152.1 1859.81 1152.1 1868.56 Q1152.1 1877.29 1149.03 1881.9 Q1145.97 1886.48 1140.16 1886.48 Q1134.35 1886.48 1131.27 1881.9 Q1128.22 1877.29 1128.22 1868.56 Q1128.22 1859.81 1131.27 1855.23 Q1134.35 1850.62 1140.16 1850.62 Z" fill="#000000" fill-rule="evenodd" fill-opacity="1" /><path clip-path="url(#clip130)" d="M1160.32 1879.93 L1165.21 1879.93 L1165.21 1885.81 L1160.32 1885.81 L1160.32 1879.93 Z" fill="#000000" fill-rule="evenodd" fill-opacity="1" /><path clip-path="url(#clip130)" d="M1179.42 1881.87 L1195.74 1881.87 L1195.74 1885.81 L1173.79 1885.81 L1173.79 1881.87 Q1176.46 1879.12 1181.04 1874.49 Q1185.65 1869.84 1186.83 1868.49 Q1189.07 1865.97 1189.95 1864.23 Q1190.85 1862.47 1190.85 1860.78 Q1190.85 1858.03 1188.91 1856.29 Q1186.99 1854.56 1183.89 1854.56 Q1181.69 1854.56 1179.23 1855.32 Q1176.8 1856.09 1174.03 1857.64 L1174.03 1852.91 Q1176.85 1851.78 1179.3 1851.2 Q1181.76 1850.62 1183.79 1850.62 Q1189.16 1850.62 1192.36 1853.31 Q1195.55 1855.99 1195.55 1860.48 Q1195.55 1862.61 1194.74 1864.53 Q1193.96 1866.43 1191.85 1869.03 Q1191.27 1869.7 1188.17 1872.91 Q1185.07 1876.11 1179.42 1881.87 Z" fill="#000000" fill-rule="evenodd" fill-opacity="1" /><path clip-path="url(#clip130)" d="M1205.6 1851.25 L1223.96 1851.25 L1223.96 1855.18 L1209.88 1855.18 L1209.88 1863.66 Q1210.9 1863.31 1211.92 1863.15 Q1212.94 1862.96 1213.96 1862.96 Q1219.74 1862.96 1223.12 1866.13 Q1226.5 1869.3 1226.5 1874.72 Q1226.5 1880.3 1223.03 1883.4 Q1219.56 1886.48 1213.24 1886.48 Q1211.06 1886.48 1208.79 1886.11 Q1206.55 1885.74 1204.14 1885 L1204.14 1880.3 Q1206.22 1881.43 1208.45 1881.99 Q1210.67 1882.54 1213.15 1882.54 Q1217.15 1882.54 1219.49 1880.44 Q1221.83 1878.33 1221.83 1874.72 Q1221.83 1871.11 1219.49 1869 Q1217.15 1866.9 1213.15 1866.9 Q1211.27 1866.9 1209.4 1867.31 Q1207.54 1867.73 1205.6 1868.61 L1205.6 1851.25 Z" fill="#000000" fill-rule="evenodd" fill-opacity="1" /><path clip-path="url(#clip130)" d="M1977.93 1854.33 Q1974.32 1854.33 1972.49 1857.89 Q1970.69 1861.43 1970.69 1868.56 Q1970.69 1875.67 1972.49 1879.23 Q1974.32 1882.78 1977.93 1882.78 Q1981.56 1882.78 1983.37 1879.23 Q1985.2 1875.67 1985.2 1868.56 Q1985.2 1861.43 1983.37 1857.89 Q1981.56 1854.33 1977.93 1854.33 M1977.93 1850.62 Q1983.74 1850.62 1986.8 1855.23 Q1989.87 1859.81 1989.87 1868.56 Q1989.87 1877.29 1986.8 1881.9 Q1983.74 1886.48 1977.93 1886.48 Q1972.12 1886.48 1969.04 1881.9 Q1965.99 1877.29 1965.99 1868.56 Q1965.99 1859.81 1969.04 1855.23 Q1972.12 1850.62 1977.93 1850.62 Z" fill="#000000" fill-rule="evenodd" fill-opacity="1" /><path clip-path="url(#clip130)" d="M1998.09 1879.93 L2002.98 1879.93 L2002.98 1885.81 L1998.09 1885.81 L1998.09 1879.93 Z" fill="#000000" fill-rule="evenodd" fill-opacity="1" /><path clip-path="url(#clip130)" d="M2013.21 1851.25 L2031.56 1851.25 L2031.56 1855.18 L2017.49 1855.18 L2017.49 1863.66 Q2018.51 1863.31 2019.53 1863.15 Q2020.55 1862.96 2021.56 1862.96 Q2027.35 1862.96 2030.73 1866.13 Q2034.11 1869.3 2034.11 1874.72 Q2034.11 1880.3 2030.64 1883.4 Q2027.17 1886.48 2020.85 1886.48 Q2018.67 1886.48 2016.4 1886.11 Q2014.16 1885.74 2011.75 1885 L2011.75 1880.3 Q2013.83 1881.43 2016.06 1881.99 Q2018.28 1882.54 2020.75 1882.54 Q2024.76 1882.54 2027.1 1880.44 Q2029.43 1878.33 2029.43 1874.72 Q2029.43 1871.11 2027.1 1869 Q2024.76 1866.9 2020.75 1866.9 Q2018.88 1866.9 2017 1867.31 Q2015.15 1867.73 2013.21 1868.61 L2013.21 1851.25 Z" fill="#000000" fill-rule="evenodd" fill-opacity="1" /><path clip-path="url(#clip130)" d="M2053.32 1854.33 Q2049.71 1854.33 2047.88 1857.89 Q2046.08 1861.43 2046.08 1868.56 Q2046.08 1875.67 2047.88 1879.23 Q2049.71 1882.78 2053.32 1882.78 Q2056.96 1882.78 2058.76 1879.23 Q2060.59 1875.67 2060.59 1868.56 Q2060.59 1861.43 2058.76 1857.89 Q2056.96 1854.33 2053.32 1854.33 M2053.32 1850.62 Q2059.13 1850.62 2062.19 1855.23 Q2065.27 1859.81 2065.27 1868.56 Q2065.27 1877.29 2062.19 1881.9 Q2059.13 1886.48 2053.32 1886.48 Q2047.51 1886.48 2044.43 1881.9 Q2041.38 1877.29 2041.38 1868.56 Q2041.38 1859.81 2044.43 1855.23 Q2047.51 1850.62 2053.32 1850.62 Z" fill="#000000" fill-rule="evenodd" fill-opacity="1" /><path clip-path="url(#clip130)" d="M2816.7 1854.33 Q2813.09 1854.33 2811.26 1857.89 Q2809.45 1861.43 2809.45 1868.56 Q2809.45 1875.67 2811.26 1879.23 Q2813.09 1882.78 2816.7 1882.78 Q2820.33 1882.78 2822.14 1879.23 Q2823.96 1875.67 2823.96 1868.56 Q2823.96 1861.43 2822.14 1857.89 Q2820.33 1854.33 2816.7 1854.33 M2816.7 1850.62 Q2822.51 1850.62 2825.56 1855.23 Q2828.64 1859.81 2828.64 1868.56 Q2828.64 1877.29 2825.56 1881.9 Q2822.51 1886.48 2816.7 1886.48 Q2810.89 1886.48 2807.81 1881.9 Q2804.75 1877.29 2804.75 1868.56 Q2804.75 1859.81 2807.81 1855.23 Q2810.89 1850.62 2816.7 1850.62 Z" fill="#000000" fill-rule="evenodd" fill-opacity="1" /><path clip-path="url(#clip130)" d="M2836.86 1879.93 L2841.74 1879.93 L2841.74 1885.81 L2836.86 1885.81 L2836.86 1879.93 Z" fill="#000000" fill-rule="evenodd" fill-opacity="1" /><path clip-path="url(#clip130)" d="M2850.75 1851.25 L2872.97 1851.25 L2872.97 1853.24 L2860.42 1885.81 L2855.54 1885.81 L2867.34 1855.18 L2850.75 1855.18 L2850.75 1851.25 Z" fill="#000000" fill-rule="evenodd" fill-opacity="1" /><path clip-path="url(#clip130)" d="M2882.14 1851.25 L2900.49 1851.25 L2900.49 1855.18 L2886.42 1855.18 L2886.42 1863.66 Q2887.44 1863.31 2888.46 1863.15 Q2889.47 1862.96 2890.49 1862.96 Q2896.28 1862.96 2899.66 1866.13 Q2903.04 1869.3 2903.04 1874.72 Q2903.04 1880.3 2899.57 1883.4 Q2896.09 1886.48 2889.77 1886.48 Q2887.6 1886.48 2885.33 1886.11 Q2883.08 1885.74 2880.68 1885 L2880.68 1880.3 Q2882.76 1881.43 2884.98 1881.99 Q2887.21 1882.54 2889.68 1882.54 Q2893.69 1882.54 2896.02 1880.44 Q2898.36 1878.33 2898.36 1874.72 Q2898.36 1871.11 2896.02 1869 Q2893.69 1866.9 2889.68 1866.9 Q2887.81 1866.9 2885.93 1867.31 Q2884.08 1867.73 2882.14 1868.61 L2882.14 1851.25 Z" fill="#000000" fill-rule="evenodd" fill-opacity="1" /><path clip-path="url(#clip130)" d="M3644.24 1881.87 L3651.87 1881.87 L3651.87 1855.51 L3643.56 1857.17 L3643.56 1852.91 L3651.83 1851.25 L3656.5 1851.25 L3656.5 1881.87 L3664.14 1881.87 L3664.14 1885.81 L3644.24 1885.81 L3644.24 1881.87 Z" fill="#000000" fill-rule="evenodd" fill-opacity="1" /><path clip-path="url(#clip130)" d="M3673.59 1879.93 L3678.47 1879.93 L3678.47 1885.81 L3673.59 1885.81 L3673.59 1879.93 Z" fill="#000000" fill-rule="evenodd" fill-opacity="1" /><path clip-path="url(#clip130)" d="M3698.66 1854.33 Q3695.05 1854.33 3693.22 1857.89 Q3691.41 1861.43 3691.41 1868.56 Q3691.41 1875.67 3693.22 1879.23 Q3695.05 1882.78 3698.66 1882.78 Q3702.29 1882.78 3704.1 1879.23 Q3705.93 1875.67 3705.93 1868.56 Q3705.93 1861.43 3704.1 1857.89 Q3702.29 1854.33 3698.66 1854.33 M3698.66 1850.62 Q3704.47 1850.62 3707.52 1855.23 Q3710.6 1859.81 3710.6 1868.56 Q3710.6 1877.29 3707.52 1881.9 Q3704.47 1886.48 3698.66 1886.48 Q3692.85 1886.48 3689.77 1881.9 Q3686.71 1877.29 3686.71 1868.56 Q3686.71 1859.81 3689.77 1855.23 Q3692.85 1850.62 3698.66 1850.62 Z" fill="#000000" fill-rule="evenodd" fill-opacity="1" /><path clip-path="url(#clip130)" d="M3728.82 1854.33 Q3725.21 1854.33 3723.38 1857.89 Q3721.57 1861.43 3721.57 1868.56 Q3721.57 1875.67 3723.38 1879.23 Q3725.21 1882.78 3728.82 1882.78 Q3732.45 1882.78 3734.26 1879.23 Q3736.09 1875.67 3736.09 1868.56 Q3736.09 1861.43 3734.26 1857.89 Q3732.45 1854.33 3728.82 1854.33 M3728.82 1850.62 Q3734.63 1850.62 3737.68 1855.23 Q3740.76 1859.81 3740.76 1868.56 Q3740.76 1877.29 3737.68 1881.9 Q3734.63 1886.48 3728.82 1886.48 Q3723.01 1886.48 3719.93 1881.9 Q3716.87 1877.29 3716.87 1868.56 Q3716.87 1859.81 3719.93 1855.23 Q3723.01 1850.62 3728.82 1850.62 Z" fill="#000000" fill-rule="evenodd" fill-opacity="1" /><polyline clip-path="url(#clip133)" style="stroke:#000000; stroke-linecap:round; stroke-linejoin:round; stroke-width:2; stroke-opacity:0.1; fill:none" points="
  238.498,1789.98 3792.76,1789.98 
  "/>
<polyline clip-path="url(#clip133)" style="stroke:#000000; stroke-linecap:round; stroke-linejoin:round; stroke-width:2; stroke-opacity:0.1; fill:none" points="
  238.498,1607.41 3792.76,1607.41 
  "/>
<polyline clip-path="url(#clip133)" style="stroke:#000000; stroke-linecap:round; stroke-linejoin:round; stroke-width:2; stroke-opacity:0.1; fill:none" points="
  238.498,1424.84 3792.76,1424.84 
  "/>
<polyline clip-path="url(#clip133)" style="stroke:#000000; stroke-linecap:round; stroke-linejoin:round; stroke-width:2; stroke-opacity:0.1; fill:none" points="
  238.498,1242.27 3792.76,1242.27 
  "/>
<polyline clip-path="url(#clip133)" style="stroke:#000000; stroke-linecap:round; stroke-linejoin:round; stroke-width:2; stroke-opacity:0.1; fill:none" points="
  238.498,1059.71 3792.76,1059.71 
  "/>
<polyline clip-path="url(#clip130)" style="stroke:#000000; stroke-linecap:round; stroke-linejoin:round; stroke-width:4; stroke-opacity:1; fill:none" points="
  238.498,1811.89 238.498,1037.8 
  "/>
<polyline clip-path="url(#clip130)" style="stroke:#000000; stroke-linecap:round; stroke-linejoin:round; stroke-width:4; stroke-opacity:1; fill:none" points="
  238.498,1789.98 257.396,1789.98 
  "/>
<polyline clip-path="url(#clip130)" style="stroke:#000000; stroke-linecap:round; stroke-linejoin:round; stroke-width:4; stroke-opacity:1; fill:none" points="
  238.498,1607.41 257.396,1607.41 
  "/>
<polyline clip-path="url(#clip130)" style="stroke:#000000; stroke-linecap:round; stroke-linejoin:round; stroke-width:4; stroke-opacity:1; fill:none" points="
  238.498,1424.84 257.396,1424.84 
  "/>
<polyline clip-path="url(#clip130)" style="stroke:#000000; stroke-linecap:round; stroke-linejoin:round; stroke-width:4; stroke-opacity:1; fill:none" points="
  238.498,1242.27 257.396,1242.27 
  "/>
<polyline clip-path="url(#clip130)" style="stroke:#000000; stroke-linecap:round; stroke-linejoin:round; stroke-width:4; stroke-opacity:1; fill:none" points="
  238.498,1059.71 257.396,1059.71 
  "/>
<path clip-path="url(#clip130)" d="M93.5604 1775.78 Q89.9493 1775.78 88.1206 1779.34 Q86.315 1782.88 86.315 1790.01 Q86.315 1797.12 88.1206 1800.69 Q89.9493 1804.23 93.5604 1804.23 Q97.1946 1804.23 99.0002 1800.69 Q100.829 1797.12 100.829 1790.01 Q100.829 1782.88 99.0002 1779.34 Q97.1946 1775.78 93.5604 1775.78 M93.5604 1772.07 Q99.3705 1772.07 102.426 1776.68 Q105.505 1781.26 105.505 1790.01 Q105.505 1798.74 102.426 1803.35 Q99.3705 1807.93 93.5604 1807.93 Q87.7502 1807.93 84.6715 1803.35 Q81.616 1798.74 81.616 1790.01 Q81.616 1781.26 84.6715 1776.68 Q87.7502 1772.07 93.5604 1772.07 Z" fill="#000000" fill-rule="evenodd" fill-opacity="1" /><path clip-path="url(#clip130)" d="M113.722 1801.38 L118.607 1801.38 L118.607 1807.26 L113.722 1807.26 L113.722 1801.38 Z" fill="#000000" fill-rule="evenodd" fill-opacity="1" /><path clip-path="url(#clip130)" d="M138.792 1775.78 Q135.181 1775.78 133.352 1779.34 Q131.546 1782.88 131.546 1790.01 Q131.546 1797.12 133.352 1800.69 Q135.181 1804.23 138.792 1804.23 Q142.426 1804.23 144.231 1800.69 Q146.06 1797.12 146.06 1790.01 Q146.06 1782.88 144.231 1779.34 Q142.426 1775.78 138.792 1775.78 M138.792 1772.07 Q144.602 1772.07 147.657 1776.68 Q150.736 1781.26 150.736 1790.01 Q150.736 1798.74 147.657 1803.35 Q144.602 1807.93 138.792 1807.93 Q132.981 1807.93 129.903 1803.35 Q126.847 1798.74 126.847 1790.01 Q126.847 1781.26 129.903 1776.68 Q132.981 1772.07 138.792 1772.07 Z" fill="#000000" fill-rule="evenodd" fill-opacity="1" /><path clip-path="url(#clip130)" d="M168.953 1775.78 Q165.342 1775.78 163.514 1779.34 Q161.708 1782.88 161.708 1790.01 Q161.708 1797.12 163.514 1800.69 Q165.342 1804.23 168.953 1804.23 Q172.588 1804.23 174.393 1800.69 Q176.222 1797.12 176.222 1790.01 Q176.222 1782.88 174.393 1779.34 Q172.588 1775.78 168.953 1775.78 M168.953 1772.07 Q174.764 1772.07 177.819 1776.68 Q180.898 1781.26 180.898 1790.01 Q180.898 1798.74 177.819 1803.35 Q174.764 1807.93 168.953 1807.93 Q163.143 1807.93 160.065 1803.35 Q157.009 1798.74 157.009 1790.01 Q157.009 1781.26 160.065 1776.68 Q163.143 1772.07 168.953 1772.07 Z" fill="#000000" fill-rule="evenodd" fill-opacity="1" /><path clip-path="url(#clip130)" d="M94.5557 1593.21 Q90.9447 1593.21 89.116 1596.77 Q87.3104 1600.32 87.3104 1607.45 Q87.3104 1614.55 89.116 1618.12 Q90.9447 1621.66 94.5557 1621.66 Q98.19 1621.66 99.9955 1618.12 Q101.824 1614.55 101.824 1607.45 Q101.824 1600.32 99.9955 1596.77 Q98.19 1593.21 94.5557 1593.21 M94.5557 1589.51 Q100.366 1589.51 103.421 1594.11 Q106.5 1598.7 106.5 1607.45 Q106.5 1616.17 103.421 1620.78 Q100.366 1625.36 94.5557 1625.36 Q88.7456 1625.36 85.6669 1620.78 Q82.6114 1616.17 82.6114 1607.45 Q82.6114 1598.7 85.6669 1594.11 Q88.7456 1589.51 94.5557 1589.51 Z" fill="#000000" fill-rule="evenodd" fill-opacity="1" /><path clip-path="url(#clip130)" d="M114.718 1618.81 L119.602 1618.81 L119.602 1624.69 L114.718 1624.69 L114.718 1618.81 Z" fill="#000000" fill-rule="evenodd" fill-opacity="1" /><path clip-path="url(#clip130)" d="M133.815 1620.76 L150.134 1620.76 L150.134 1624.69 L128.19 1624.69 L128.19 1620.76 Q130.852 1618 135.435 1613.37 Q140.042 1608.72 141.222 1607.38 Q143.468 1604.85 144.347 1603.12 Q145.25 1601.36 145.25 1599.67 Q145.25 1596.91 143.305 1595.18 Q141.384 1593.44 138.282 1593.44 Q136.083 1593.44 133.63 1594.21 Q131.199 1594.97 128.421 1596.52 L128.421 1591.8 Q131.245 1590.66 133.699 1590.09 Q136.153 1589.51 138.19 1589.51 Q143.56 1589.51 146.755 1592.19 Q149.949 1594.88 149.949 1599.37 Q149.949 1601.5 149.139 1603.42 Q148.352 1605.32 146.245 1607.91 Q145.667 1608.58 142.565 1611.8 Q139.463 1614.99 133.815 1620.76 Z" fill="#000000" fill-rule="evenodd" fill-opacity="1" /><path clip-path="url(#clip130)" d="M159.995 1590.13 L178.352 1590.13 L178.352 1594.07 L164.278 1594.07 L164.278 1602.54 Q165.296 1602.19 166.315 1602.03 Q167.333 1601.84 168.352 1601.84 Q174.139 1601.84 177.518 1605.02 Q180.898 1608.19 180.898 1613.6 Q180.898 1619.18 177.426 1622.28 Q173.953 1625.36 167.634 1625.36 Q165.458 1625.36 163.19 1624.99 Q160.944 1624.62 158.537 1623.88 L158.537 1619.18 Q160.62 1620.32 162.842 1620.87 Q165.065 1621.43 167.541 1621.43 Q171.546 1621.43 173.884 1619.32 Q176.222 1617.21 176.222 1613.6 Q176.222 1609.99 173.884 1607.89 Q171.546 1605.78 167.541 1605.78 Q165.666 1605.78 163.791 1606.2 Q161.94 1606.61 159.995 1607.49 L159.995 1590.13 Z" fill="#000000" fill-rule="evenodd" fill-opacity="1" /><path clip-path="url(#clip130)" d="M93.5604 1410.64 Q89.9493 1410.64 88.1206 1414.21 Q86.315 1417.75 86.315 1424.88 Q86.315 1431.98 88.1206 1435.55 Q89.9493 1439.09 93.5604 1439.09 Q97.1946 1439.09 99.0002 1435.55 Q100.829 1431.98 100.829 1424.88 Q100.829 1417.75 99.0002 1414.21 Q97.1946 1410.64 93.5604 1410.64 M93.5604 1406.94 Q99.3705 1406.94 102.426 1411.54 Q105.505 1416.13 105.505 1424.88 Q105.505 1433.6 102.426 1438.21 Q99.3705 1442.79 93.5604 1442.79 Q87.7502 1442.79 84.6715 1438.21 Q81.616 1433.6 81.616 1424.88 Q81.616 1416.13 84.6715 1411.54 Q87.7502 1406.94 93.5604 1406.94 Z" fill="#000000" fill-rule="evenodd" fill-opacity="1" /><path clip-path="url(#clip130)" d="M113.722 1436.24 L118.607 1436.24 L118.607 1442.12 L113.722 1442.12 L113.722 1436.24 Z" fill="#000000" fill-rule="evenodd" fill-opacity="1" /><path clip-path="url(#clip130)" d="M128.838 1407.56 L147.194 1407.56 L147.194 1411.5 L133.12 1411.5 L133.12 1419.97 Q134.139 1419.62 135.157 1419.46 Q136.176 1419.28 137.194 1419.28 Q142.981 1419.28 146.361 1422.45 Q149.741 1425.62 149.741 1431.04 Q149.741 1436.61 146.268 1439.72 Q142.796 1442.79 136.477 1442.79 Q134.301 1442.79 132.032 1442.42 Q129.787 1442.05 127.38 1441.31 L127.38 1436.61 Q129.463 1437.75 131.685 1438.3 Q133.907 1438.86 136.384 1438.86 Q140.389 1438.86 142.727 1436.75 Q145.065 1434.65 145.065 1431.04 Q145.065 1427.42 142.727 1425.32 Q140.389 1423.21 136.384 1423.21 Q134.509 1423.21 132.634 1423.63 Q130.782 1424.04 128.838 1424.92 L128.838 1407.56 Z" fill="#000000" fill-rule="evenodd" fill-opacity="1" /><path clip-path="url(#clip130)" d="M168.953 1410.64 Q165.342 1410.64 163.514 1414.21 Q161.708 1417.75 161.708 1424.88 Q161.708 1431.98 163.514 1435.55 Q165.342 1439.09 168.953 1439.09 Q172.588 1439.09 174.393 1435.55 Q176.222 1431.98 176.222 1424.88 Q176.222 1417.75 174.393 1414.21 Q172.588 1410.64 168.953 1410.64 M168.953 1406.94 Q174.764 1406.94 177.819 1411.54 Q180.898 1416.13 180.898 1424.88 Q180.898 1433.6 177.819 1438.21 Q174.764 1442.79 168.953 1442.79 Q163.143 1442.79 160.065 1438.21 Q157.009 1433.6 157.009 1424.88 Q157.009 1416.13 160.065 1411.54 Q163.143 1406.94 168.953 1406.94 Z" fill="#000000" fill-rule="evenodd" fill-opacity="1" /><path clip-path="url(#clip130)" d="M94.5557 1228.07 Q90.9447 1228.07 89.116 1231.64 Q87.3104 1235.18 87.3104 1242.31 Q87.3104 1249.42 89.116 1252.98 Q90.9447 1256.52 94.5557 1256.52 Q98.19 1256.52 99.9955 1252.98 Q101.824 1249.42 101.824 1242.31 Q101.824 1235.18 99.9955 1231.64 Q98.19 1228.07 94.5557 1228.07 M94.5557 1224.37 Q100.366 1224.37 103.421 1228.98 Q106.5 1233.56 106.5 1242.31 Q106.5 1251.04 103.421 1255.64 Q100.366 1260.23 94.5557 1260.23 Q88.7456 1260.23 85.6669 1255.64 Q82.6114 1251.04 82.6114 1242.31 Q82.6114 1233.56 85.6669 1228.98 Q88.7456 1224.37 94.5557 1224.37 Z" fill="#000000" fill-rule="evenodd" fill-opacity="1" /><path clip-path="url(#clip130)" d="M114.718 1253.68 L119.602 1253.68 L119.602 1259.55 L114.718 1259.55 L114.718 1253.68 Z" fill="#000000" fill-rule="evenodd" fill-opacity="1" /><path clip-path="url(#clip130)" d="M128.606 1224.99 L150.829 1224.99 L150.829 1226.99 L138.282 1259.55 L133.398 1259.55 L145.204 1228.93 L128.606 1228.93 L128.606 1224.99 Z" fill="#000000" fill-rule="evenodd" fill-opacity="1" /><path clip-path="url(#clip130)" d="M159.995 1224.99 L178.352 1224.99 L178.352 1228.93 L164.278 1228.93 L164.278 1237.4 Q165.296 1237.05 166.315 1236.89 Q167.333 1236.71 168.352 1236.71 Q174.139 1236.71 177.518 1239.88 Q180.898 1243.05 180.898 1248.47 Q180.898 1254.05 177.426 1257.15 Q173.953 1260.23 167.634 1260.23 Q165.458 1260.23 163.19 1259.86 Q160.944 1259.49 158.537 1258.74 L158.537 1254.05 Q160.62 1255.18 162.842 1255.74 Q165.065 1256.29 167.541 1256.29 Q171.546 1256.29 173.884 1254.18 Q176.222 1252.08 176.222 1248.47 Q176.222 1244.86 173.884 1242.75 Q171.546 1240.64 167.541 1240.64 Q165.666 1240.64 163.791 1241.06 Q161.94 1241.48 159.995 1242.36 L159.995 1224.99 Z" fill="#000000" fill-rule="evenodd" fill-opacity="1" /><path clip-path="url(#clip130)" d="M84.3706 1073.05 L92.0095 1073.05 L92.0095 1046.69 L83.6993 1048.35 L83.6993 1044.09 L91.9632 1042.43 L96.6391 1042.43 L96.6391 1073.05 L104.278 1073.05 L104.278 1076.99 L84.3706 1076.99 L84.3706 1073.05 Z" fill="#000000" fill-rule="evenodd" fill-opacity="1" /><path clip-path="url(#clip130)" d="M113.722 1071.11 L118.607 1071.11 L118.607 1076.99 L113.722 1076.99 L113.722 1071.11 Z" fill="#000000" fill-rule="evenodd" fill-opacity="1" /><path clip-path="url(#clip130)" d="M138.792 1045.5 Q135.181 1045.5 133.352 1049.07 Q131.546 1052.61 131.546 1059.74 Q131.546 1066.85 133.352 1070.41 Q135.181 1073.95 138.792 1073.95 Q142.426 1073.95 144.231 1070.41 Q146.06 1066.85 146.06 1059.74 Q146.06 1052.61 144.231 1049.07 Q142.426 1045.5 138.792 1045.5 M138.792 1041.8 Q144.602 1041.8 147.657 1046.41 Q150.736 1050.99 150.736 1059.74 Q150.736 1068.47 147.657 1073.07 Q144.602 1077.66 138.792 1077.66 Q132.981 1077.66 129.903 1073.07 Q126.847 1068.47 126.847 1059.74 Q126.847 1050.99 129.903 1046.41 Q132.981 1041.8 138.792 1041.8 Z" fill="#000000" fill-rule="evenodd" fill-opacity="1" /><path clip-path="url(#clip130)" d="M168.953 1045.5 Q165.342 1045.5 163.514 1049.07 Q161.708 1052.61 161.708 1059.74 Q161.708 1066.85 163.514 1070.41 Q165.342 1073.95 168.953 1073.95 Q172.588 1073.95 174.393 1070.41 Q176.222 1066.85 176.222 1059.74 Q176.222 1052.61 174.393 1049.07 Q172.588 1045.5 168.953 1045.5 M168.953 1041.8 Q174.764 1041.8 177.819 1046.41 Q180.898 1050.99 180.898 1059.74 Q180.898 1068.47 177.819 1073.07 Q174.764 1077.66 168.953 1077.66 Q163.143 1077.66 160.065 1073.07 Q157.009 1068.47 157.009 1059.74 Q157.009 1050.99 160.065 1046.41 Q163.143 1041.8 168.953 1041.8 Z" fill="#000000" fill-rule="evenodd" fill-opacity="1" /><polyline clip-path="url(#clip133)" style="stroke:#009af9; stroke-linecap:round; stroke-linejoin:round; stroke-width:4; stroke-opacity:1; fill:none" points="
  339.09,1789.98 372.621,1789.98 406.152,1789.98 439.682,1789.98 473.213,1789.98 506.744,1789.98 540.274,1789.98 573.805,1789.98 607.336,1789.98 640.867,1789.98 
  674.397,1789.98 707.928,1059.71 741.459,1059.71 774.99,1059.71 808.52,1059.71 842.051,1059.71 875.582,1059.71 909.113,1059.71 942.643,1059.71 976.174,1059.71 
  1009.7,1059.71 1043.24,1059.71 1076.77,1059.71 1110.3,1059.71 1143.83,1059.71 1177.36,1059.71 1210.89,1059.71 1244.42,1059.71 1277.95,1059.71 1311.48,1059.71 
  1345.01,1059.71 1378.54,1059.71 1412.07,1059.71 1445.6,1059.71 1479.14,1059.71 1512.67,1059.71 1546.2,1059.71 1579.73,1059.71 1613.26,1059.71 1646.79,1059.71 
  1680.32,1059.71 1713.85,1059.71 1747.38,1059.71 1780.91,1059.71 1814.44,1059.71 1847.97,1059.71 1881.5,1059.71 1915.03,1059.71 1948.57,1059.71 1982.1,1059.71 
  2015.63,1789.98 2049.16,1789.98 2082.69,1789.98 2116.22,1789.98 2149.75,1789.98 2183.28,1789.98 2216.81,1789.98 2250.34,1789.98 2283.87,1789.98 2317.4,1789.98 
  2350.93,1789.98 2384.46,1789.98 2418,1789.98 2451.53,1789.98 2485.06,1789.98 2518.59,1789.98 2552.12,1789.98 2585.65,1789.98 2619.18,1789.98 2652.71,1789.98 
  2686.24,1789.98 2719.77,1789.98 2753.3,1789.98 2786.83,1789.98 2820.36,1789.98 2853.9,1789.98 2887.43,1789.98 2920.96,1789.98 2954.49,1789.98 2988.02,1789.98 
  3021.55,1789.98 3055.08,1789.98 3088.61,1789.98 3122.14,1789.98 3155.67,1789.98 3189.2,1789.98 3222.73,1789.98 3256.26,1789.98 3289.79,1789.98 3323.33,1789.98 
  3356.86,1789.98 3390.39,1789.98 3423.92,1789.98 3457.45,1789.98 3490.98,1789.98 3524.51,1789.98 3558.04,1789.98 3591.57,1789.98 3625.1,1789.98 3658.63,1789.98 
  3692.16,1789.98 
  "/>
<path clip-path="url(#clip130)" d="
M3105.1 1167.28 L3674.28 1167.28 L3674.28 1063.6 L3105.1 1063.6  Z
  " fill="#ffffff" fill-rule="evenodd" fill-opacity="1"/>
<polyline clip-path="url(#clip130)" style="stroke:#000000; stroke-linecap:round; stroke-linejoin:round; stroke-width:4; stroke-opacity:1; fill:none" points="
  3105.1,1167.28 3674.28,1167.28 3674.28,1063.6 3105.1,1063.6 3105.1,1167.28 
  "/>
<polyline clip-path="url(#clip130)" style="stroke:#009af9; stroke-linecap:round; stroke-linejoin:round; stroke-width:4; stroke-opacity:1; fill:none" points="
  3144.6,1115.44 3381.55,1115.44 
  "/>
<path clip-path="url(#clip130)" d="M3448.91 1100.82 L3448.91 1105.75 Q3446.55 1103.55 3443.86 1102.47 Q3441.2 1101.38 3438.19 1101.38 Q3432.27 1101.38 3429.12 1105.01 Q3425.97 1108.62 3425.97 1115.48 Q3425.97 1122.3 3429.12 1125.94 Q3432.27 1129.55 3438.19 1129.55 Q3441.2 1129.55 3443.86 1128.46 Q3446.55 1127.37 3448.91 1125.17 L3448.91 1130.06 Q3446.46 1131.73 3443.7 1132.56 Q3440.97 1133.39 3437.91 1133.39 Q3430.07 1133.39 3425.55 1128.6 Q3421.04 1123.79 3421.04 1115.48 Q3421.04 1107.14 3425.55 1102.35 Q3430.07 1097.54 3437.91 1097.54 Q3441.02 1097.54 3443.75 1098.37 Q3446.5 1099.18 3448.91 1100.82 Z" fill="#000000" fill-rule="evenodd" fill-opacity="1" /><path clip-path="url(#clip130)" d="M3455.51 1122.49 L3455.51 1106.8 L3459.77 1106.8 L3459.77 1122.33 Q3459.77 1126.01 3461.2 1127.86 Q3462.64 1129.69 3465.51 1129.69 Q3468.96 1129.69 3470.95 1127.49 Q3472.96 1125.29 3472.96 1121.49 L3472.96 1106.8 L3477.22 1106.8 L3477.22 1132.72 L3472.96 1132.72 L3472.96 1128.74 Q3471.41 1131.1 3469.35 1132.26 Q3467.31 1133.39 3464.6 1133.39 Q3460.14 1133.39 3457.82 1130.61 Q3455.51 1127.84 3455.51 1122.49 M3466.22 1106.17 L3466.22 1106.17 Z" fill="#000000" fill-rule="evenodd" fill-opacity="1" /><path clip-path="url(#clip130)" d="M3501.02 1110.78 Q3500.3 1110.36 3499.44 1110.17 Q3498.61 1109.97 3497.59 1109.97 Q3493.98 1109.97 3492.03 1112.33 Q3490.11 1114.67 3490.11 1119.06 L3490.11 1132.72 L3485.83 1132.72 L3485.83 1106.8 L3490.11 1106.8 L3490.11 1110.82 Q3491.46 1108.46 3493.61 1107.33 Q3495.76 1106.17 3498.84 1106.17 Q3499.28 1106.17 3499.81 1106.24 Q3500.34 1106.29 3500.99 1106.4 L3501.02 1110.78 Z" fill="#000000" fill-rule="evenodd" fill-opacity="1" /><path clip-path="url(#clip130)" d="M3519.67 1110.78 Q3518.95 1110.36 3518.1 1110.17 Q3517.27 1109.97 3516.25 1109.97 Q3512.64 1109.97 3510.69 1112.33 Q3508.77 1114.67 3508.77 1119.06 L3508.77 1132.72 L3504.49 1132.72 L3504.49 1106.8 L3508.77 1106.8 L3508.77 1110.82 Q3510.11 1108.46 3512.27 1107.33 Q3514.42 1106.17 3517.5 1106.17 Q3517.94 1106.17 3518.47 1106.24 Q3519 1106.29 3519.65 1106.4 L3519.67 1110.78 Z" fill="#000000" fill-rule="evenodd" fill-opacity="1" /><path clip-path="url(#clip130)" d="M3545.27 1118.69 L3545.27 1120.78 L3525.69 1120.78 Q3525.97 1125.17 3528.33 1127.49 Q3530.71 1129.78 3534.95 1129.78 Q3537.4 1129.78 3539.7 1129.18 Q3542.01 1128.58 3544.28 1127.37 L3544.28 1131.4 Q3541.99 1132.37 3539.58 1132.88 Q3537.17 1133.39 3534.7 1133.39 Q3528.49 1133.39 3524.86 1129.78 Q3521.25 1126.17 3521.25 1120.01 Q3521.25 1113.65 3524.67 1109.92 Q3528.12 1106.17 3533.95 1106.17 Q3539.19 1106.17 3542.22 1109.55 Q3545.27 1112.91 3545.27 1118.69 M3541.02 1117.44 Q3540.97 1113.95 3539.05 1111.86 Q3537.15 1109.78 3534 1109.78 Q3530.44 1109.78 3528.28 1111.8 Q3526.15 1113.81 3525.83 1117.47 L3541.02 1117.44 Z" fill="#000000" fill-rule="evenodd" fill-opacity="1" /><path clip-path="url(#clip130)" d="M3573.82 1117.07 L3573.82 1132.72 L3569.56 1132.72 L3569.56 1117.21 Q3569.56 1113.53 3568.12 1111.7 Q3566.69 1109.87 3563.82 1109.87 Q3560.37 1109.87 3558.38 1112.07 Q3556.39 1114.27 3556.39 1118.07 L3556.39 1132.72 L3552.1 1132.72 L3552.1 1106.8 L3556.39 1106.8 L3556.39 1110.82 Q3557.91 1108.49 3559.97 1107.33 Q3562.06 1106.17 3564.76 1106.17 Q3569.23 1106.17 3571.52 1108.95 Q3573.82 1111.7 3573.82 1117.07 Z" fill="#000000" fill-rule="evenodd" fill-opacity="1" /><path clip-path="url(#clip130)" d="M3586.52 1099.43 L3586.52 1106.8 L3595.3 1106.8 L3595.3 1110.11 L3586.52 1110.11 L3586.52 1124.18 Q3586.52 1127.35 3587.38 1128.25 Q3588.26 1129.16 3590.92 1129.16 L3595.3 1129.16 L3595.3 1132.72 L3590.92 1132.72 Q3585.99 1132.72 3584.12 1130.89 Q3582.24 1129.04 3582.24 1124.18 L3582.24 1110.11 L3579.12 1110.11 L3579.12 1106.8 L3582.24 1106.8 L3582.24 1099.43 L3586.52 1099.43 Z" fill="#000000" fill-rule="evenodd" fill-opacity="1" /></svg>
