<?xml version="1.0" encoding="utf-8"?>
<svg xmlns="http://www.w3.org/2000/svg" xmlns:xlink="http://www.w3.org/1999/xlink" width="672" height="480" viewBox="0 0 2688 1920">
<defs>
  <clipPath id="clip810">
    <rect x="0" y="0" width="2688" height="1920"/>
  </clipPath>
</defs>
<path clip-path="url(#clip810)" d="
M0 1920 L2688 1920 L2688 0 L0 0  Z
  " fill="#ffffff" fill-rule="evenodd" fill-opacity="1"/>
<defs>
  <clipPath id="clip811">
    <rect x="537" y="0" width="1883" height="1883"/>
  </clipPath>
</defs>
<path clip-path="url(#clip810)" d="
M329.848 1806.09 L2640.76 1806.09 L2640.76 127.792 L329.848 127.792  Z
  " fill="#ffffff" fill-rule="evenodd" fill-opacity="1"/>
<defs>
  <clipPath id="clip812">
    <rect x="329" y="127" width="2312" height="1679"/>
  </clipPath>
</defs>
<polyline clip-path="url(#clip810)" style="stroke:#000000; stroke-linecap:round; stroke-linejoin:round; stroke-width:4; stroke-opacity:1; fill:none" points="
  329.848,1806.09 2640.76,1806.09 
  "/>
<path clip-path="url(#clip810)" d="M1182.93 1855.92 L1192.51 1855.92 L1204.64 1888.26 L1216.83 1855.92 L1226.41 1855.92 L1226.41 1903.44 L1220.14 1903.44 L1220.14 1861.71 L1207.88 1894.3 L1201.42 1894.3 L1189.17 1861.71 L1189.17 1903.44 L1182.93 1903.44 L1182.93 1855.92 Z" fill="#000000" fill-rule="evenodd" fill-opacity="1" /><path clip-path="url(#clip810)" d="M1269.41 1884.15 L1269.41 1887.01 L1242.48 1887.01 Q1242.86 1893.06 1246.11 1896.24 Q1249.39 1899.4 1255.21 1899.4 Q1258.59 1899.4 1261.74 1898.57 Q1264.92 1897.74 1268.04 1896.09 L1268.04 1901.62 Q1264.89 1902.96 1261.58 1903.66 Q1258.27 1904.36 1254.86 1904.36 Q1246.33 1904.36 1241.34 1899.4 Q1236.37 1894.43 1236.37 1885.96 Q1236.37 1877.21 1241.08 1872.09 Q1245.82 1866.93 1253.84 1866.93 Q1261.04 1866.93 1265.21 1871.58 Q1269.41 1876.19 1269.41 1884.15 M1263.55 1882.43 Q1263.49 1877.62 1260.85 1874.76 Q1258.24 1871.9 1253.91 1871.9 Q1249.01 1871.9 1246.05 1874.66 Q1243.12 1877.43 1242.67 1882.46 L1263.55 1882.43 Z" fill="#000000" fill-rule="evenodd" fill-opacity="1" /><path clip-path="url(#clip810)" d="M1306.78 1874.63 Q1308.97 1870.69 1312.03 1868.81 Q1315.08 1866.93 1319.22 1866.93 Q1324.79 1866.93 1327.81 1870.85 Q1330.84 1874.73 1330.84 1881.92 L1330.84 1903.44 L1324.95 1903.44 L1324.95 1882.11 Q1324.95 1876.99 1323.14 1874.51 Q1321.32 1872.02 1317.6 1872.02 Q1313.05 1872.02 1310.4 1875.05 Q1307.76 1878.07 1307.76 1883.29 L1307.76 1903.44 L1301.87 1903.44 L1301.87 1882.11 Q1301.87 1876.96 1300.06 1874.51 Q1298.25 1872.02 1294.46 1872.02 Q1289.97 1872.02 1287.33 1875.08 Q1284.69 1878.1 1284.69 1883.29 L1284.69 1903.44 L1278.8 1903.44 L1278.8 1867.79 L1284.69 1867.79 L1284.69 1873.33 Q1286.69 1870.05 1289.49 1868.49 Q1292.29 1866.93 1296.14 1866.93 Q1300.03 1866.93 1302.73 1868.9 Q1305.47 1870.88 1306.78 1874.63 Z" fill="#000000" fill-rule="evenodd" fill-opacity="1" /><path clip-path="url(#clip810)" d="M1368.11 1885.65 Q1368.11 1879.18 1365.44 1875.52 Q1362.79 1871.83 1358.15 1871.83 Q1353.5 1871.83 1350.83 1875.52 Q1348.18 1879.18 1348.18 1885.65 Q1348.18 1892.11 1350.83 1895.8 Q1353.5 1899.46 1358.15 1899.46 Q1362.79 1899.46 1365.44 1895.8 Q1368.11 1892.11 1368.11 1885.65 M1348.18 1873.2 Q1350.03 1870.02 1352.83 1868.49 Q1355.66 1866.93 1359.58 1866.93 Q1366.07 1866.93 1370.11 1872.09 Q1374.19 1877.24 1374.19 1885.65 Q1374.19 1894.05 1370.11 1899.2 Q1366.07 1904.36 1359.58 1904.36 Q1355.66 1904.36 1352.83 1902.83 Q1350.03 1901.27 1348.18 1898.09 L1348.18 1903.44 L1342.3 1903.44 L1342.3 1853.91 L1348.18 1853.91 L1348.18 1873.2 Z" fill="#000000" fill-rule="evenodd" fill-opacity="1" /><path clip-path="url(#clip810)" d="M1404.55 1873.26 Q1403.57 1872.69 1402.39 1872.44 Q1401.24 1872.15 1399.84 1872.15 Q1394.88 1872.15 1392.2 1875.4 Q1389.56 1878.61 1389.56 1884.66 L1389.56 1903.44 L1383.67 1903.44 L1383.67 1867.79 L1389.56 1867.79 L1389.56 1873.33 Q1391.41 1870.08 1394.37 1868.52 Q1397.33 1866.93 1401.56 1866.93 Q1402.17 1866.93 1402.9 1867.03 Q1403.63 1867.09 1404.52 1867.25 L1404.55 1873.26 Z" fill="#000000" fill-rule="evenodd" fill-opacity="1" /><path clip-path="url(#clip810)" d="M1426.9 1885.52 Q1419.8 1885.52 1417.06 1887.14 Q1414.32 1888.76 1414.32 1892.68 Q1414.32 1895.8 1416.36 1897.64 Q1418.43 1899.46 1421.96 1899.46 Q1426.83 1899.46 1429.76 1896.02 Q1432.72 1892.55 1432.72 1886.82 L1432.72 1885.52 L1426.9 1885.52 M1438.58 1883.1 L1438.58 1903.44 L1432.72 1903.44 L1432.72 1898.03 Q1430.72 1901.27 1427.72 1902.83 Q1424.73 1904.36 1420.4 1904.36 Q1414.93 1904.36 1411.68 1901.31 Q1408.47 1898.22 1408.47 1893.06 Q1408.47 1887.05 1412.48 1883.99 Q1416.52 1880.93 1424.51 1880.93 L1432.72 1880.93 L1432.72 1880.36 Q1432.72 1876.32 1430.05 1874.12 Q1427.41 1871.9 1422.6 1871.9 Q1419.54 1871.9 1416.65 1872.63 Q1413.75 1873.36 1411.08 1874.82 L1411.08 1869.41 Q1414.29 1868.17 1417.32 1867.57 Q1420.34 1866.93 1423.2 1866.93 Q1430.94 1866.93 1434.76 1870.94 Q1438.58 1874.95 1438.58 1883.1 Z" fill="#000000" fill-rule="evenodd" fill-opacity="1" /><path clip-path="url(#clip810)" d="M1480.27 1881.92 L1480.27 1903.44 L1474.42 1903.44 L1474.42 1882.11 Q1474.42 1877.05 1472.44 1874.54 Q1470.47 1872.02 1466.52 1872.02 Q1461.78 1872.02 1459.04 1875.05 Q1456.31 1878.07 1456.31 1883.29 L1456.31 1903.44 L1450.42 1903.44 L1450.42 1867.79 L1456.31 1867.79 L1456.31 1873.33 Q1458.41 1870.11 1461.24 1868.52 Q1464.1 1866.93 1467.83 1866.93 Q1473.97 1866.93 1477.12 1870.75 Q1480.27 1874.54 1480.27 1881.92 Z" fill="#000000" fill-rule="evenodd" fill-opacity="1" /><path clip-path="url(#clip810)" d="M1522.45 1884.15 L1522.45 1887.01 L1495.52 1887.01 Q1495.9 1893.06 1499.15 1896.24 Q1502.43 1899.4 1508.25 1899.4 Q1511.62 1899.4 1514.78 1898.57 Q1517.96 1897.74 1521.08 1896.09 L1521.08 1901.62 Q1517.93 1902.96 1514.62 1903.66 Q1511.31 1904.36 1507.9 1904.36 Q1499.37 1904.36 1494.37 1899.4 Q1489.41 1894.43 1489.41 1885.96 Q1489.41 1877.21 1494.12 1872.09 Q1498.86 1866.93 1506.88 1866.93 Q1514.07 1866.93 1518.24 1871.58 Q1522.45 1876.19 1522.45 1884.15 M1516.59 1882.43 Q1516.53 1877.62 1513.88 1874.76 Q1511.27 1871.9 1506.95 1871.9 Q1502.04 1871.9 1499.08 1874.66 Q1496.16 1877.43 1495.71 1882.46 L1516.59 1882.43 Z" fill="#000000" fill-rule="evenodd" fill-opacity="1" /><path clip-path="url(#clip810)" d="M1565.29 1903.44 L1547.14 1855.92 L1553.86 1855.92 L1568.92 1895.93 L1584 1855.92 L1590.69 1855.92 L1572.58 1903.44 L1565.29 1903.44 Z" fill="#000000" fill-rule="evenodd" fill-opacity="1" /><path clip-path="url(#clip810)" d="M1606.12 1871.9 Q1601.41 1871.9 1598.68 1875.59 Q1595.94 1879.25 1595.94 1885.65 Q1595.94 1892.04 1598.64 1895.74 Q1601.38 1899.4 1606.12 1899.4 Q1610.8 1899.4 1613.54 1895.7 Q1616.28 1892.01 1616.28 1885.65 Q1616.28 1879.31 1613.54 1875.62 Q1610.8 1871.9 1606.12 1871.9 M1606.12 1866.93 Q1613.76 1866.93 1618.12 1871.9 Q1622.48 1876.86 1622.48 1885.65 Q1622.48 1894.4 1618.12 1899.4 Q1613.76 1904.36 1606.12 1904.36 Q1598.45 1904.36 1594.09 1899.4 Q1589.76 1894.4 1589.76 1885.65 Q1589.76 1876.86 1594.09 1871.9 Q1598.45 1866.93 1606.12 1866.93 Z" fill="#000000" fill-rule="evenodd" fill-opacity="1" /><path clip-path="url(#clip810)" d="M1632.19 1853.91 L1638.05 1853.91 L1638.05 1903.44 L1632.19 1903.44 L1632.19 1853.91 Z" fill="#000000" fill-rule="evenodd" fill-opacity="1" /><path clip-path="url(#clip810)" d="M1656.09 1857.67 L1656.09 1867.79 L1668.16 1867.79 L1668.16 1872.34 L1656.09 1872.34 L1656.09 1891.69 Q1656.09 1896.05 1657.27 1897.29 Q1658.48 1898.54 1662.14 1898.54 L1668.16 1898.54 L1668.16 1903.44 L1662.14 1903.44 Q1655.36 1903.44 1652.78 1900.92 Q1650.21 1898.38 1650.21 1891.69 L1650.21 1872.34 L1645.91 1872.34 L1645.91 1867.79 L1650.21 1867.79 L1650.21 1857.67 L1656.09 1857.67 Z" fill="#000000" fill-rule="evenodd" fill-opacity="1" /><path clip-path="url(#clip810)" d="M1692.06 1885.52 Q1684.96 1885.52 1682.22 1887.14 Q1679.49 1888.76 1679.49 1892.68 Q1679.49 1895.8 1681.52 1897.64 Q1683.59 1899.46 1687.13 1899.46 Q1692 1899.46 1694.92 1896.02 Q1697.88 1892.55 1697.88 1886.82 L1697.88 1885.52 L1692.06 1885.52 M1703.74 1883.1 L1703.74 1903.44 L1697.88 1903.44 L1697.88 1898.03 Q1695.88 1901.27 1692.89 1902.83 Q1689.9 1904.36 1685.57 1904.36 Q1680.09 1904.36 1676.85 1901.31 Q1673.63 1898.22 1673.63 1893.06 Q1673.63 1887.05 1677.64 1883.99 Q1681.68 1880.93 1689.67 1880.93 L1697.88 1880.93 L1697.88 1880.36 Q1697.88 1876.32 1695.21 1874.12 Q1692.57 1871.9 1687.76 1871.9 Q1684.71 1871.9 1681.81 1872.63 Q1678.91 1873.36 1676.24 1874.82 L1676.24 1869.41 Q1679.46 1868.17 1682.48 1867.57 Q1685.5 1866.93 1688.37 1866.93 Q1696.1 1866.93 1699.92 1870.94 Q1703.74 1874.95 1703.74 1883.1 Z" fill="#000000" fill-rule="evenodd" fill-opacity="1" /><path clip-path="url(#clip810)" d="M1739.26 1885.2 Q1739.26 1878.83 1736.62 1875.33 Q1734.01 1871.83 1729.27 1871.83 Q1724.56 1871.83 1721.92 1875.33 Q1719.31 1878.83 1719.31 1885.2 Q1719.31 1891.53 1721.92 1895.03 Q1724.56 1898.54 1729.27 1898.54 Q1734.01 1898.54 1736.62 1895.03 Q1739.26 1891.53 1739.26 1885.2 M1745.12 1899.01 Q1745.12 1908.12 1741.08 1912.54 Q1737.03 1917 1728.69 1917 Q1725.61 1917 1722.87 1916.52 Q1720.13 1916.07 1717.55 1915.12 L1717.55 1909.42 Q1720.13 1910.82 1722.65 1911.49 Q1725.16 1912.16 1727.77 1912.16 Q1733.53 1912.16 1736.4 1909.13 Q1739.26 1906.14 1739.26 1900.06 L1739.26 1897.17 Q1737.45 1900.32 1734.61 1901.88 Q1731.78 1903.44 1727.84 1903.44 Q1721.28 1903.44 1717.27 1898.44 Q1713.26 1893.44 1713.26 1885.2 Q1713.26 1876.92 1717.27 1871.93 Q1721.28 1866.93 1727.84 1866.93 Q1731.78 1866.93 1734.61 1868.49 Q1737.45 1870.05 1739.26 1873.2 L1739.26 1867.79 L1745.12 1867.79 L1745.12 1899.01 Z" fill="#000000" fill-rule="evenodd" fill-opacity="1" /><path clip-path="url(#clip810)" d="M1787.67 1884.15 L1787.67 1887.01 L1760.75 1887.01 Q1761.13 1893.06 1764.37 1896.24 Q1767.65 1899.4 1773.48 1899.4 Q1776.85 1899.4 1780 1898.57 Q1783.19 1897.74 1786.3 1896.09 L1786.3 1901.62 Q1783.15 1902.96 1779.84 1903.66 Q1776.53 1904.36 1773.13 1904.36 Q1764.6 1904.36 1759.6 1899.4 Q1754.63 1894.43 1754.63 1885.96 Q1754.63 1877.21 1759.35 1872.09 Q1764.09 1866.93 1772.11 1866.93 Q1779.3 1866.93 1783.47 1871.58 Q1787.67 1876.19 1787.67 1884.15 M1781.82 1882.43 Q1781.75 1877.62 1779.11 1874.76 Q1776.5 1871.9 1772.17 1871.9 Q1767.27 1871.9 1764.31 1874.66 Q1761.38 1877.43 1760.94 1882.46 L1781.82 1882.43 Z" fill="#000000" fill-rule="evenodd" fill-opacity="1" /><polyline clip-path="url(#clip812)" style="stroke:#000000; stroke-linecap:round; stroke-linejoin:round; stroke-width:2; stroke-opacity:0.1; fill:none" points="
  329.848,3484.4 2640.76,3484.4 
  "/>
<polyline clip-path="url(#clip812)" style="stroke:#000000; stroke-linecap:round; stroke-linejoin:round; stroke-width:2; stroke-opacity:0.1; fill:none" points="
  329.848,1806.09 2640.76,1806.09 
  "/>
<polyline clip-path="url(#clip812)" style="stroke:#000000; stroke-linecap:round; stroke-linejoin:round; stroke-width:2; stroke-opacity:0.1; fill:none" points="
  329.848,127.792 2640.76,127.792 
  "/>
<polyline clip-path="url(#clip810)" style="stroke:#000000; stroke-linecap:round; stroke-linejoin:round; stroke-width:4; stroke-opacity:1; fill:none" points="
  329.848,1806.09 329.848,127.792 
  "/>
<polyline clip-path="url(#clip810)" style="stroke:#000000; stroke-linecap:round; stroke-linejoin:round; stroke-width:4; stroke-opacity:1; fill:none" points="
  329.848,3484.4 348.745,3484.4 
  "/>
<polyline clip-path="url(#clip810)" style="stroke:#000000; stroke-linecap:round; stroke-linejoin:round; stroke-width:4; stroke-opacity:1; fill:none" points="
  329.848,1806.09 348.745,1806.09 
  "/>
<polyline clip-path="url(#clip810)" style="stroke:#000000; stroke-linecap:round; stroke-linejoin:round; stroke-width:4; stroke-opacity:1; fill:none" points="
  329.848,127.792 348.745,127.792 
  "/>
<path clip-path="url(#clip810)" d="M71.7974 111.646 L71.7974 116.207 Q69.1354 114.933 66.7743 114.308 Q64.4132 113.683 62.2141 113.683 Q58.3947 113.683 56.3113 115.165 Q54.2512 116.646 54.2512 119.378 Q54.2512 121.669 55.6169 122.85 Q57.0058 124.007 60.8484 124.725 L63.6724 125.304 Q68.9039 126.299 71.3807 128.822 Q73.8807 131.322 73.8807 135.535 Q73.8807 140.558 70.5011 143.151 Q67.1446 145.743 60.64 145.743 Q58.1863 145.743 55.4086 145.188 Q52.654 144.632 49.691 143.544 L49.691 138.73 Q52.5382 140.327 55.2697 141.137 Q58.0012 141.947 60.64 141.947 Q64.6446 141.947 66.8206 140.373 Q68.9965 138.799 68.9965 135.882 Q68.9965 133.336 67.4224 131.901 Q65.8715 130.466 62.3067 129.748 L59.4595 129.193 Q54.228 128.151 51.8901 125.929 Q49.5521 123.706 49.5521 119.748 Q49.5521 115.165 52.7697 112.526 Q56.0104 109.887 61.6817 109.887 Q64.1122 109.887 66.6354 110.327 Q69.1585 110.767 71.7974 111.646 Z" fill="#000000" fill-rule="evenodd" fill-opacity="1" /><path clip-path="url(#clip810)" d="M92.7695 132.04 Q87.6075 132.04 85.6167 133.22 Q83.626 134.401 83.626 137.248 Q83.626 139.517 85.1075 140.859 Q86.6121 142.179 89.1815 142.179 Q92.7232 142.179 94.8528 139.679 Q97.0056 137.156 97.0056 132.989 L97.0056 132.04 L92.7695 132.04 M101.265 130.281 L101.265 145.072 L97.0056 145.072 L97.0056 141.137 Q95.5472 143.498 93.3713 144.632 Q91.1954 145.743 88.0473 145.743 Q84.0658 145.743 81.7047 143.521 Q79.3668 141.276 79.3668 137.526 Q79.3668 133.151 82.2834 130.929 Q85.2232 128.706 91.0334 128.706 L97.0056 128.706 L97.0056 128.29 Q97.0056 125.35 95.0611 123.753 Q93.1399 122.132 89.6445 122.132 Q87.4223 122.132 85.3158 122.665 Q83.2094 123.197 81.2649 124.262 L81.2649 120.327 Q83.6029 119.424 85.8019 118.984 Q88.001 118.521 90.0843 118.521 Q95.7093 118.521 98.487 121.438 Q101.265 124.355 101.265 130.281 Z" fill="#000000" fill-rule="evenodd" fill-opacity="1" /><path clip-path="url(#clip810)" d="M114.251 111.785 L114.251 119.146 L123.024 119.146 L123.024 122.457 L114.251 122.457 L114.251 136.531 Q114.251 139.702 115.107 140.605 Q115.987 141.507 118.649 141.507 L123.024 141.507 L123.024 145.072 L118.649 145.072 Q113.718 145.072 111.843 143.243 Q109.968 141.392 109.968 136.531 L109.968 122.457 L106.843 122.457 L106.843 119.146 L109.968 119.146 L109.968 111.785 L114.251 111.785 Z" fill="#000000" fill-rule="evenodd" fill-opacity="1" /><path clip-path="url(#clip810)" d="M128.186 134.841 L128.186 119.146 L132.445 119.146 L132.445 134.679 Q132.445 138.359 133.88 140.211 Q135.316 142.04 138.186 142.04 Q141.635 142.04 143.626 139.841 Q145.64 137.642 145.64 133.845 L145.64 119.146 L149.899 119.146 L149.899 145.072 L145.64 145.072 L145.64 141.091 Q144.089 143.452 142.028 144.609 Q139.991 145.743 137.283 145.743 Q132.816 145.743 130.501 142.966 Q128.186 140.188 128.186 134.841 M138.903 118.521 L138.903 118.521 Z" fill="#000000" fill-rule="evenodd" fill-opacity="1" /><path clip-path="url(#clip810)" d="M173.695 123.128 Q172.977 122.711 172.121 122.526 Q171.288 122.318 170.269 122.318 Q166.658 122.318 164.714 124.679 Q162.792 127.017 162.792 131.415 L162.792 145.072 L158.51 145.072 L158.51 119.146 L162.792 119.146 L162.792 123.174 Q164.135 120.813 166.288 119.679 Q168.44 118.521 171.519 118.521 Q171.959 118.521 172.491 118.591 Q173.024 118.637 173.672 118.753 L173.695 123.128 Z" fill="#000000" fill-rule="evenodd" fill-opacity="1" /><path clip-path="url(#clip810)" d="M189.945 132.04 Q184.783 132.04 182.792 133.22 Q180.801 134.401 180.801 137.248 Q180.801 139.517 182.283 140.859 Q183.788 142.179 186.357 142.179 Q189.899 142.179 192.028 139.679 Q194.181 137.156 194.181 132.989 L194.181 132.04 L189.945 132.04 M198.44 130.281 L198.44 145.072 L194.181 145.072 L194.181 141.137 Q192.723 143.498 190.547 144.632 Q188.371 145.743 185.223 145.743 Q181.241 145.743 178.88 143.521 Q176.542 141.276 176.542 137.526 Q176.542 133.151 179.459 130.929 Q182.399 128.706 188.209 128.706 L194.181 128.706 L194.181 128.29 Q194.181 125.35 192.237 123.753 Q190.315 122.132 186.82 122.132 Q184.598 122.132 182.491 122.665 Q180.385 123.197 178.44 124.262 L178.44 120.327 Q180.778 119.424 182.977 118.984 Q185.176 118.521 187.26 118.521 Q192.885 118.521 195.662 121.438 Q198.44 124.355 198.44 130.281 Z" fill="#000000" fill-rule="evenodd" fill-opacity="1" /><path clip-path="url(#clip810)" d="M211.426 111.785 L211.426 119.146 L220.199 119.146 L220.199 122.457 L211.426 122.457 L211.426 136.531 Q211.426 139.702 212.283 140.605 Q213.162 141.507 215.824 141.507 L220.199 141.507 L220.199 145.072 L215.824 145.072 Q210.894 145.072 209.019 143.243 Q207.144 141.392 207.144 136.531 L207.144 122.457 L204.019 122.457 L204.019 119.146 L207.144 119.146 L207.144 111.785 L211.426 111.785 Z" fill="#000000" fill-rule="evenodd" fill-opacity="1" /><path clip-path="url(#clip810)" d="M225.801 119.146 L230.06 119.146 L230.06 145.072 L225.801 145.072 L225.801 119.146 M225.801 109.054 L230.06 109.054 L230.06 114.447 L225.801 114.447 L225.801 109.054 Z" fill="#000000" fill-rule="evenodd" fill-opacity="1" /><path clip-path="url(#clip810)" d="M249.019 122.132 Q245.593 122.132 243.602 124.818 Q241.611 127.48 241.611 132.132 Q241.611 136.785 243.579 139.47 Q245.57 142.132 249.019 142.132 Q252.421 142.132 254.412 139.447 Q256.403 136.762 256.403 132.132 Q256.403 127.526 254.412 124.841 Q252.421 122.132 249.019 122.132 M249.019 118.521 Q254.574 118.521 257.745 122.132 Q260.917 125.744 260.917 132.132 Q260.917 138.498 257.745 142.132 Q254.574 145.743 249.019 145.743 Q243.44 145.743 240.269 142.132 Q237.121 138.498 237.121 132.132 Q237.121 125.744 240.269 122.132 Q243.44 118.521 249.019 118.521 Z" fill="#000000" fill-rule="evenodd" fill-opacity="1" /><path clip-path="url(#clip810)" d="M289.528 129.424 L289.528 145.072 L285.268 145.072 L285.268 129.563 Q285.268 125.882 283.833 124.054 Q282.398 122.225 279.528 122.225 Q276.079 122.225 274.088 124.424 Q272.097 126.623 272.097 130.419 L272.097 145.072 L267.815 145.072 L267.815 119.146 L272.097 119.146 L272.097 123.174 Q273.625 120.836 275.685 119.679 Q277.768 118.521 280.477 118.521 Q284.944 118.521 287.236 121.299 Q289.528 124.054 289.528 129.424 Z" fill="#000000" fill-rule="evenodd" fill-opacity="1" /><path clip-path="url(#clip810)" d="M1171.38 12.096 L1222.54 12.096 L1222.54 18.9825 L1201.07 18.9825 L1201.07 72.576 L1192.85 72.576 L1192.85 18.9825 L1171.38 18.9825 L1171.38 12.096 Z" fill="#000000" fill-rule="evenodd" fill-opacity="1" /><path clip-path="url(#clip810)" d="M1237 49.7694 Q1227.97 49.7694 1224.48 51.8354 Q1221 53.9013 1221 58.8839 Q1221 62.8538 1223.59 65.2034 Q1226.23 67.5124 1230.72 67.5124 Q1236.92 67.5124 1240.65 63.1374 Q1244.41 58.7219 1244.41 51.4303 L1244.41 49.7694 L1237 49.7694 M1251.87 46.6907 L1251.87 72.576 L1244.41 72.576 L1244.41 65.6895 Q1241.86 69.8214 1238.05 71.8063 Q1234.25 73.7508 1228.74 73.7508 Q1221.77 73.7508 1217.64 69.8619 Q1213.55 65.9325 1213.55 59.3701 Q1213.55 51.7138 1218.65 47.825 Q1223.8 43.9361 1233.96 43.9361 L1244.41 43.9361 L1244.41 43.2069 Q1244.41 38.0623 1241.01 35.2672 Q1237.65 32.4315 1231.53 32.4315 Q1227.64 32.4315 1223.96 33.3632 Q1220.27 34.295 1216.87 36.1584 L1216.87 29.2718 Q1220.96 27.692 1224.81 26.9223 Q1228.66 26.1121 1232.3 26.1121 Q1242.15 26.1121 1247.01 31.2163 Q1251.87 36.3204 1251.87 46.6907 Z" fill="#000000" fill-rule="evenodd" fill-opacity="1" /><path clip-path="url(#clip810)" d="M1304.94 45.1919 L1304.94 72.576 L1297.48 72.576 L1297.48 45.4349 Q1297.48 38.994 1294.97 35.7938 Q1292.46 32.5936 1287.44 32.5936 Q1281.4 32.5936 1277.92 36.4419 Q1274.43 40.2903 1274.43 46.9338 L1274.43 72.576 L1266.94 72.576 L1266.94 27.2059 L1274.43 27.2059 L1274.43 34.2544 Q1277.11 30.163 1280.71 28.1376 Q1284.36 26.1121 1289.1 26.1121 Q1296.91 26.1121 1300.92 30.9732 Q1304.94 35.7938 1304.94 45.1919 Z" fill="#000000" fill-rule="evenodd" fill-opacity="1" /><path clip-path="url(#clip810)" d="M1357.52 45.1919 L1357.52 72.576 L1350.06 72.576 L1350.06 45.4349 Q1350.06 38.994 1347.55 35.7938 Q1345.04 32.5936 1340.02 32.5936 Q1333.98 32.5936 1330.5 36.4419 Q1327.01 40.2903 1327.01 46.9338 L1327.01 72.576 L1319.52 72.576 L1319.52 9.54393 L1327.01 9.54393 L1327.01 34.2544 Q1329.69 30.163 1333.29 28.1376 Q1336.94 26.1121 1341.68 26.1121 Q1349.5 26.1121 1353.51 30.9732 Q1357.52 35.7938 1357.52 45.1919 Z" fill="#000000" fill-rule="evenodd" fill-opacity="1" /><path clip-path="url(#clip810)" d="M1419.29 20.1573 L1408.19 50.2555 L1430.43 50.2555 L1419.29 20.1573 M1414.67 12.096 L1423.95 12.096 L1447 72.576 L1438.49 72.576 L1432.98 57.061 L1405.72 57.061 L1400.21 72.576 L1391.58 72.576 L1414.67 12.096 Z" fill="#000000" fill-rule="evenodd" fill-opacity="1" /><path clip-path="url(#clip810)" d="M1486.7 28.9478 L1486.7 35.9153 Q1483.54 34.1734 1480.34 33.3227 Q1477.18 32.4315 1473.94 32.4315 Q1466.69 32.4315 1462.68 37.0496 Q1458.67 41.6271 1458.67 49.9314 Q1458.67 58.2358 1462.68 62.8538 Q1466.69 67.4314 1473.94 67.4314 Q1477.18 67.4314 1480.34 66.5807 Q1483.54 65.6895 1486.7 63.9476 L1486.7 70.8341 Q1483.58 72.2924 1480.22 73.0216 Q1476.9 73.7508 1473.13 73.7508 Q1462.88 73.7508 1456.84 67.3098 Q1450.81 60.8689 1450.81 49.9314 Q1450.81 38.832 1456.88 32.472 Q1463 26.1121 1473.61 26.1121 Q1477.06 26.1121 1480.34 26.8413 Q1483.62 27.5299 1486.7 28.9478 Z" fill="#000000" fill-rule="evenodd" fill-opacity="1" /><path clip-path="url(#clip810)" d="M1507.03 14.324 L1507.03 27.2059 L1522.39 27.2059 L1522.39 32.9987 L1507.03 32.9987 L1507.03 57.6282 Q1507.03 63.1779 1508.53 64.7578 Q1510.07 66.3376 1514.73 66.3376 L1522.39 66.3376 L1522.39 72.576 L1514.73 72.576 Q1506.1 72.576 1502.82 69.3758 Q1499.54 66.1351 1499.54 57.6282 L1499.54 32.9987 L1494.07 32.9987 L1494.07 27.2059 L1499.54 27.2059 L1499.54 14.324 L1507.03 14.324 Z" fill="#000000" fill-rule="evenodd" fill-opacity="1" /><path clip-path="url(#clip810)" d="M1532.19 27.2059 L1539.64 27.2059 L1539.64 72.576 L1532.19 72.576 L1532.19 27.2059 M1532.19 9.54393 L1539.64 9.54393 L1539.64 18.9825 L1532.19 18.9825 L1532.19 9.54393 Z" fill="#000000" fill-rule="evenodd" fill-opacity="1" /><path clip-path="url(#clip810)" d="M1549.89 27.2059 L1557.79 27.2059 L1571.97 65.2844 L1586.15 27.2059 L1594.05 27.2059 L1577.03 72.576 L1566.91 72.576 L1549.89 27.2059 Z" fill="#000000" fill-rule="evenodd" fill-opacity="1" /><path clip-path="url(#clip810)" d="M1624.96 49.7694 Q1615.92 49.7694 1612.44 51.8354 Q1608.96 53.9013 1608.96 58.8839 Q1608.96 62.8538 1611.55 65.2034 Q1614.18 67.5124 1618.68 67.5124 Q1624.88 67.5124 1628.6 63.1374 Q1632.37 58.7219 1632.37 51.4303 L1632.37 49.7694 L1624.96 49.7694 M1639.82 46.6907 L1639.82 72.576 L1632.37 72.576 L1632.37 65.6895 Q1629.82 69.8214 1626.01 71.8063 Q1622.2 73.7508 1616.69 73.7508 Q1609.73 73.7508 1605.59 69.8619 Q1601.5 65.9325 1601.5 59.3701 Q1601.5 51.7138 1606.61 47.825 Q1611.75 43.9361 1621.92 43.9361 L1632.37 43.9361 L1632.37 43.2069 Q1632.37 38.0623 1628.97 35.2672 Q1625.6 32.4315 1619.49 32.4315 Q1615.6 32.4315 1611.91 33.3632 Q1608.23 34.295 1604.82 36.1584 L1604.82 29.2718 Q1608.92 27.692 1612.76 26.9223 Q1616.61 26.1121 1620.26 26.1121 Q1630.1 26.1121 1634.96 31.2163 Q1639.82 36.3204 1639.82 46.6907 Z" fill="#000000" fill-rule="evenodd" fill-opacity="1" /><path clip-path="url(#clip810)" d="M1662.55 14.324 L1662.55 27.2059 L1677.9 27.2059 L1677.9 32.9987 L1662.55 32.9987 L1662.55 57.6282 Q1662.55 63.1779 1664.05 64.7578 Q1665.59 66.3376 1670.25 66.3376 L1677.9 66.3376 L1677.9 72.576 L1670.25 72.576 Q1661.62 72.576 1658.34 69.3758 Q1655.05 66.1351 1655.05 57.6282 L1655.05 32.9987 L1649.59 32.9987 L1649.59 27.2059 L1655.05 27.2059 L1655.05 14.324 L1662.55 14.324 Z" fill="#000000" fill-rule="evenodd" fill-opacity="1" /><path clip-path="url(#clip810)" d="M1687.71 27.2059 L1695.16 27.2059 L1695.16 72.576 L1687.71 72.576 L1687.71 27.2059 M1687.71 9.54393 L1695.16 9.54393 L1695.16 18.9825 L1687.71 18.9825 L1687.71 9.54393 Z" fill="#000000" fill-rule="evenodd" fill-opacity="1" /><path clip-path="url(#clip810)" d="M1728.34 32.4315 Q1722.34 32.4315 1718.86 37.1306 Q1715.37 41.7891 1715.37 49.9314 Q1715.37 58.0738 1718.82 62.7728 Q1722.3 67.4314 1728.34 67.4314 Q1734.29 67.4314 1737.77 62.7323 Q1741.26 58.0333 1741.26 49.9314 Q1741.26 41.8701 1737.77 37.1711 Q1734.29 32.4315 1728.34 32.4315 M1728.34 26.1121 Q1738.06 26.1121 1743.61 32.4315 Q1749.16 38.7509 1749.16 49.9314 Q1749.16 61.0714 1743.61 67.4314 Q1738.06 73.7508 1728.34 73.7508 Q1718.57 73.7508 1713.02 67.4314 Q1707.51 61.0714 1707.51 49.9314 Q1707.51 38.7509 1713.02 32.4315 Q1718.57 26.1121 1728.34 26.1121 Z" fill="#000000" fill-rule="evenodd" fill-opacity="1" /><path clip-path="url(#clip810)" d="M1799.23 45.1919 L1799.23 72.576 L1791.77 72.576 L1791.77 45.4349 Q1791.77 38.994 1789.26 35.7938 Q1786.75 32.5936 1781.73 32.5936 Q1775.69 32.5936 1772.21 36.4419 Q1768.72 40.2903 1768.72 46.9338 L1768.72 72.576 L1761.23 72.576 L1761.23 27.2059 L1768.72 27.2059 L1768.72 34.2544 Q1771.4 30.163 1775 28.1376 Q1778.65 26.1121 1783.39 26.1121 Q1791.21 26.1121 1795.22 30.9732 Q1799.23 35.7938 1799.23 45.1919 Z" fill="#000000" fill-rule="evenodd" fill-opacity="1" /><polyline clip-path="url(#clip812)" style="stroke:#009af9; stroke-linecap:round; stroke-linejoin:round; stroke-width:4; stroke-opacity:1; fill:none" points="
  395.251,3424.02 400.701,3422.83 406.151,3421.6 411.602,3420.36 417.052,3419.09 422.502,3417.8 427.952,3416.48 433.403,3415.14 438.853,3413.77 444.303,3412.37 
  449.753,3410.95 455.204,3409.5 460.654,3408.02 466.104,3406.51 471.554,3404.98 477.005,3403.41 482.455,3401.81 487.905,3400.19 493.355,3398.53 498.806,3396.84 
  504.256,3395.12 509.706,3393.36 515.156,3391.58 520.607,3389.75 526.057,3387.9 531.507,3386.01 536.957,3384.08 542.408,3382.11 547.858,3380.11 553.308,3378.07 
  558.758,3375.99 564.209,3373.87 569.659,3371.72 575.109,3369.52 580.559,3367.28 586.01,3365 591.46,3362.67 596.91,3360.3 602.36,3357.89 607.811,3355.43 
  613.261,3352.93 618.711,3350.38 624.161,3347.78 629.612,3345.14 635.062,3342.45 640.512,3339.7 645.962,3336.91 651.413,3334.06 656.863,3331.16 662.313,3328.21 
  667.764,3325.21 673.214,3322.14 678.664,3319.03 684.114,3315.86 689.565,3312.63 695.015,3309.34 700.465,3305.99 705.915,3302.58 711.366,3299.11 716.816,3295.58 
  722.266,3291.98 727.716,3288.32 733.167,3284.6 738.617,3280.8 744.067,3276.95 749.517,3273.02 754.968,3269.02 760.418,3264.96 765.868,3260.82 771.318,3256.61 
  776.769,3252.32 782.219,3247.97 787.669,3243.53 793.119,3239.02 798.57,3234.44 804.02,3229.77 809.47,3225.02 814.92,3220.2 820.371,3215.29 825.821,3210.29 
  831.271,3205.22 836.721,3200.06 842.172,3194.81 847.622,3189.47 853.072,3184.05 858.522,3178.53 863.973,3172.93 869.423,3167.23 874.873,3161.44 880.323,3155.55 
  885.774,3149.57 891.224,3143.5 896.674,3137.32 902.124,3131.05 907.575,3124.67 913.025,3118.2 918.475,3111.62 923.926,3104.95 929.376,3098.16 934.826,3091.27 
  940.276,3084.28 945.727,3077.18 951.177,3069.97 956.627,3062.65 962.077,3055.21 967.528,3047.67 972.978,3040.02 978.428,3032.25 983.878,3024.37 989.329,3016.37 
  994.779,3008.26 1000.23,3000.03 1005.68,2991.68 1011.13,2983.21 1016.58,2974.62 1022.03,2965.92 1027.48,2957.09 1032.93,2948.14 1038.38,2939.06 1043.83,2929.87 
  1049.28,2920.55 1054.73,2911.1 1060.18,2901.53 1065.63,2891.84 1071.08,2882.01 1076.53,2872.07 1081.98,2861.99 1087.43,2851.79 1092.88,2841.45 1098.33,2830.99 
  1103.78,2820.4 1109.23,2809.69 1114.68,2798.84 1120.13,2787.87 1125.58,2776.76 1131.04,2765.53 1136.49,2754.17 1141.94,2742.67 1147.39,2731.05 1152.84,2719.3 
  1158.29,2707.42 1163.74,2695.42 1169.19,2683.28 1174.64,2671.02 1180.09,2658.63 1185.54,2646.12 1190.99,2633.48 1196.44,2620.71 1201.89,2607.82 1207.34,2594.8 
  1212.79,2581.67 1218.24,2568.41 1223.69,2555.02 1229.14,2541.52 1234.59,2527.9 1240.04,2514.17 1245.49,2500.31 1250.94,2486.34 1256.39,2472.26 1261.84,2458.07 
  1267.29,2443.76 1272.74,2429.35 1278.19,2414.83 1283.64,2400.2 1289.09,2385.47 1294.54,2370.63 1299.99,2355.7 1305.44,2340.67 1310.89,2325.54 1316.34,2310.32 
  1321.79,2295 1327.24,2279.6 1332.69,2264.11 1338.14,2248.54 1343.6,2232.88 1349.05,2217.14 1354.5,2201.33 1359.95,2185.44 1365.4,2169.48 1370.85,2153.45 
  1376.3,2137.35 1381.75,2121.19 1387.2,2104.97 1392.65,2088.69 1398.1,2072.35 1403.55,2055.97 1409,2039.53 1414.45,2023.05 1419.9,2006.53 1425.35,1989.97 
  1430.8,1973.37 1436.25,1956.73 1441.7,1940.07 1447.15,1923.38 1452.6,1906.67 1458.05,1889.94 1463.5,1873.19 1468.95,1856.43 1474.4,1839.66 1479.85,1822.88 
  1485.3,1806.09 1490.75,1789.31 1496.2,1772.53 1501.65,1755.76 1507.1,1739 1512.55,1722.25 1518,1705.52 1523.45,1688.8 1528.9,1672.12 1534.35,1655.45 
  1539.8,1638.82 1545.25,1622.22 1550.7,1605.66 1556.16,1589.14 1561.61,1572.65 1567.06,1556.22 1572.51,1539.83 1577.96,1523.5 1583.41,1507.22 1588.86,1491 
  1594.31,1474.84 1599.76,1458.74 1605.21,1442.71 1610.66,1426.75 1616.11,1410.86 1621.56,1395.05 1627.01,1379.31 1632.46,1363.65 1637.91,1348.08 1643.36,1332.59 
  1648.81,1317.18 1654.26,1301.87 1659.71,1286.65 1665.16,1271.52 1670.61,1256.49 1676.06,1241.55 1681.51,1226.72 1686.96,1211.99 1692.41,1197.36 1697.86,1182.84 
  1703.31,1168.42 1708.76,1154.12 1714.21,1139.92 1719.66,1125.84 1725.11,1111.87 1730.56,1098.02 1736.01,1084.28 1741.46,1070.66 1746.91,1057.16 1752.36,1043.78 
  1757.81,1030.52 1763.26,1017.38 1768.72,1004.37 1774.17,991.478 1779.62,978.711 1785.07,966.07 1790.52,953.554 1795.97,941.165 1801.42,928.903 1806.87,916.769 
  1812.32,904.763 1817.77,892.884 1823.22,881.135 1828.67,869.514 1834.12,858.022 1839.57,846.659 1845.02,835.425 1850.47,824.321 1855.92,813.346 1861.37,802.5 
  1866.82,791.782 1872.27,781.194 1877.72,770.734 1883.17,760.402 1888.62,750.198 1894.07,740.122 1899.52,730.173 1904.97,720.351 1910.42,710.655 1915.87,701.085 
  1921.32,691.64 1926.77,682.319 1932.22,673.123 1937.67,664.05 1943.12,655.099 1948.57,646.271 1954.02,637.563 1959.47,628.976 1964.92,620.509 1970.37,612.16 
  1975.82,603.93 1981.28,595.816 1986.73,587.819 1992.18,579.937 1997.63,572.169 2003.08,564.515 2008.53,556.973 2013.98,549.542 2019.43,542.222 2024.88,535.011 
  2030.33,527.909 2035.78,520.914 2041.23,514.025 2046.68,507.242 2052.13,500.563 2057.58,493.987 2063.03,487.513 2068.48,481.14 2073.93,474.866 2079.38,468.692 
  2084.83,462.615 2090.28,456.635 2095.73,450.749 2101.18,444.959 2106.63,439.261 2112.08,433.656 2117.53,428.141 2122.98,422.716 2128.43,417.38 2133.88,412.132 
  2139.33,406.97 2144.78,401.893 2150.23,396.901 2155.68,391.991 2161.13,387.164 2166.58,382.418 2172.03,377.751 2177.48,373.164 2182.93,368.654 2188.38,364.22 
  2193.83,359.862 2199.29,355.579 2204.74,351.369 2210.19,347.231 2215.64,343.165 2221.09,339.169 2226.54,335.242 2231.99,331.383 2237.44,327.592 2242.89,323.867 
  2248.34,320.207 2253.79,316.611 2259.24,313.078 2264.69,309.608 2270.14,306.199 2275.59,302.851 2281.04,299.562 2286.49,296.331 2291.94,293.159 2297.39,290.042 
  2302.84,286.982 2308.29,283.976 2313.74,281.025 2319.19,278.127 2324.64,275.281 2330.09,272.486 2335.54,269.742 2340.99,267.048 2346.44,264.403 2351.89,261.806 
  2357.34,259.256 2362.79,256.753 2368.24,254.295 2373.69,251.883 2379.14,249.515 2384.59,247.19 2390.04,244.909 2395.49,242.669 2400.94,240.471 2406.39,238.313 
  2411.85,236.195 2417.3,234.117 2422.75,232.077 2428.2,230.075 2433.65,228.11 2439.1,226.182 2444.55,224.289 2450,222.433 2455.45,220.61 2460.9,218.822 
  2466.35,217.068 2471.8,215.346 2477.25,213.657 2482.7,211.999 2488.15,210.373 2493.6,208.777 2499.05,207.211 2504.5,205.675 2509.95,204.168 2515.4,202.689 
  2520.85,201.239 2526.3,199.816 2531.75,198.42 2537.2,197.05 2542.65,195.706 2548.1,194.388 2553.55,193.095 2559,191.827 2564.45,190.582 2569.9,189.362 
  2575.35,188.165 
  "/>
</svg>
