<?xml version="1.0" encoding="utf-8"?>
<svg xmlns="http://www.w3.org/2000/svg" xmlns:xlink="http://www.w3.org/1999/xlink" width="672" height="480" viewBox="0 0 2688 1920">
<defs>
  <clipPath id="clip730">
    <rect x="0" y="0" width="2688" height="1920"/>
  </clipPath>
</defs>
<path clip-path="url(#clip730)" d="
M0 1920 L2688 1920 L2688 0 L0 0  Z
  " fill="#ffffff" fill-rule="evenodd" fill-opacity="1"/>
<defs>
  <clipPath id="clip731">
    <rect x="537" y="0" width="1883" height="1883"/>
  </clipPath>
</defs>
<path clip-path="url(#clip730)" d="
M226.978 881.053 L2640.76 881.053 L2640.76 127.792 L226.978 127.792  Z
  " fill="#ffffff" fill-rule="evenodd" fill-opacity="1"/>
<defs>
  <clipPath id="clip732">
    <rect x="226" y="127" width="2415" height="754"/>
  </clipPath>
</defs>
<polyline clip-path="url(#clip732)" style="stroke:#000000; stroke-linecap:round; stroke-linejoin:round; stroke-width:2; stroke-opacity:0.1; fill:none" points="
  295.292,881.053 295.292,127.792 
  "/>
<polyline clip-path="url(#clip732)" style="stroke:#000000; stroke-linecap:round; stroke-linejoin:round; stroke-width:2; stroke-opacity:0.1; fill:none" points="
  864.58,881.053 864.58,127.792 
  "/>
<polyline clip-path="url(#clip732)" style="stroke:#000000; stroke-linecap:round; stroke-linejoin:round; stroke-width:2; stroke-opacity:0.1; fill:none" points="
  1433.87,881.053 1433.87,127.792 
  "/>
<polyline clip-path="url(#clip732)" style="stroke:#000000; stroke-linecap:round; stroke-linejoin:round; stroke-width:2; stroke-opacity:0.1; fill:none" points="
  2003.15,881.053 2003.15,127.792 
  "/>
<polyline clip-path="url(#clip732)" style="stroke:#000000; stroke-linecap:round; stroke-linejoin:round; stroke-width:2; stroke-opacity:0.1; fill:none" points="
  2572.44,881.053 2572.44,127.792 
  "/>
<polyline clip-path="url(#clip730)" style="stroke:#000000; stroke-linecap:round; stroke-linejoin:round; stroke-width:4; stroke-opacity:1; fill:none" points="
  226.978,881.053 2640.76,881.053 
  "/>
<polyline clip-path="url(#clip730)" style="stroke:#000000; stroke-linecap:round; stroke-linejoin:round; stroke-width:4; stroke-opacity:1; fill:none" points="
  295.292,881.053 295.292,862.156 
  "/>
<polyline clip-path="url(#clip730)" style="stroke:#000000; stroke-linecap:round; stroke-linejoin:round; stroke-width:4; stroke-opacity:1; fill:none" points="
  864.58,881.053 864.58,862.156 
  "/>
<polyline clip-path="url(#clip730)" style="stroke:#000000; stroke-linecap:round; stroke-linejoin:round; stroke-width:4; stroke-opacity:1; fill:none" points="
  1433.87,881.053 1433.87,862.156 
  "/>
<polyline clip-path="url(#clip730)" style="stroke:#000000; stroke-linecap:round; stroke-linejoin:round; stroke-width:4; stroke-opacity:1; fill:none" points="
  2003.15,881.053 2003.15,862.156 
  "/>
<polyline clip-path="url(#clip730)" style="stroke:#000000; stroke-linecap:round; stroke-linejoin:round; stroke-width:4; stroke-opacity:1; fill:none" points="
  2572.44,881.053 2572.44,862.156 
  "/>
<path clip-path="url(#clip730)" d="M257.596 914.276 Q253.985 914.276 252.156 917.841 Q250.35 921.382 250.35 928.512 Q250.35 935.618 252.156 939.183 Q253.985 942.725 257.596 942.725 Q261.23 942.725 263.036 939.183 Q264.864 935.618 264.864 928.512 Q264.864 921.382 263.036 917.841 Q261.23 914.276 257.596 914.276 M257.596 910.572 Q263.406 910.572 266.461 915.179 Q269.54 919.762 269.54 928.512 Q269.54 937.239 266.461 941.845 Q263.406 946.429 257.596 946.429 Q251.786 946.429 248.707 941.845 Q245.651 937.239 245.651 928.512 Q245.651 919.762 248.707 915.179 Q251.786 910.572 257.596 910.572 Z" fill="#000000" fill-rule="evenodd" fill-opacity="1" /><path clip-path="url(#clip730)" d="M277.758 939.878 L282.642 939.878 L282.642 945.757 L277.758 945.757 L277.758 939.878 Z" fill="#000000" fill-rule="evenodd" fill-opacity="1" /><path clip-path="url(#clip730)" d="M302.827 914.276 Q299.216 914.276 297.387 917.841 Q295.582 921.382 295.582 928.512 Q295.582 935.618 297.387 939.183 Q299.216 942.725 302.827 942.725 Q306.461 942.725 308.267 939.183 Q310.096 935.618 310.096 928.512 Q310.096 921.382 308.267 917.841 Q306.461 914.276 302.827 914.276 M302.827 910.572 Q308.637 910.572 311.693 915.179 Q314.771 919.762 314.771 928.512 Q314.771 937.239 311.693 941.845 Q308.637 946.429 302.827 946.429 Q297.017 946.429 293.938 941.845 Q290.883 937.239 290.883 928.512 Q290.883 919.762 293.938 915.179 Q297.017 910.572 302.827 910.572 Z" fill="#000000" fill-rule="evenodd" fill-opacity="1" /><path clip-path="url(#clip730)" d="M332.989 914.276 Q329.378 914.276 327.549 917.841 Q325.744 921.382 325.744 928.512 Q325.744 935.618 327.549 939.183 Q329.378 942.725 332.989 942.725 Q336.623 942.725 338.429 939.183 Q340.257 935.618 340.257 928.512 Q340.257 921.382 338.429 917.841 Q336.623 914.276 332.989 914.276 M332.989 910.572 Q338.799 910.572 341.855 915.179 Q344.933 919.762 344.933 928.512 Q344.933 937.239 341.855 941.845 Q338.799 946.429 332.989 946.429 Q327.179 946.429 324.1 941.845 Q321.045 937.239 321.045 928.512 Q321.045 919.762 324.1 915.179 Q327.179 910.572 332.989 910.572 Z" fill="#000000" fill-rule="evenodd" fill-opacity="1" /><path clip-path="url(#clip730)" d="M827.381 914.276 Q823.77 914.276 821.941 917.841 Q820.135 921.382 820.135 928.512 Q820.135 935.618 821.941 939.183 Q823.77 942.725 827.381 942.725 Q831.015 942.725 832.821 939.183 Q834.649 935.618 834.649 928.512 Q834.649 921.382 832.821 917.841 Q831.015 914.276 827.381 914.276 M827.381 910.572 Q833.191 910.572 836.246 915.179 Q839.325 919.762 839.325 928.512 Q839.325 937.239 836.246 941.845 Q833.191 946.429 827.381 946.429 Q821.571 946.429 818.492 941.845 Q815.436 937.239 815.436 928.512 Q815.436 919.762 818.492 915.179 Q821.571 910.572 827.381 910.572 Z" fill="#000000" fill-rule="evenodd" fill-opacity="1" /><path clip-path="url(#clip730)" d="M847.543 939.878 L852.427 939.878 L852.427 945.757 L847.543 945.757 L847.543 939.878 Z" fill="#000000" fill-rule="evenodd" fill-opacity="1" /><path clip-path="url(#clip730)" d="M866.64 941.822 L882.959 941.822 L882.959 945.757 L861.015 945.757 L861.015 941.822 Q863.677 939.068 868.26 934.438 Q872.867 929.785 874.047 928.443 Q876.293 925.919 877.172 924.183 Q878.075 922.424 878.075 920.734 Q878.075 917.98 876.13 916.244 Q874.209 914.507 871.107 914.507 Q868.908 914.507 866.455 915.271 Q864.024 916.035 861.246 917.586 L861.246 912.864 Q864.07 911.73 866.524 911.151 Q868.978 910.572 871.015 910.572 Q876.385 910.572 879.58 913.257 Q882.774 915.943 882.774 920.433 Q882.774 922.563 881.964 924.484 Q881.177 926.382 879.07 928.975 Q878.492 929.646 875.39 932.864 Q872.288 936.058 866.64 941.822 Z" fill="#000000" fill-rule="evenodd" fill-opacity="1" /><path clip-path="url(#clip730)" d="M892.82 911.197 L911.177 911.197 L911.177 915.132 L897.103 915.132 L897.103 923.605 Q898.121 923.257 899.14 923.095 Q900.158 922.91 901.177 922.91 Q906.964 922.91 910.343 926.081 Q913.723 929.253 913.723 934.669 Q913.723 940.248 910.251 943.35 Q906.778 946.429 900.459 946.429 Q898.283 946.429 896.015 946.058 Q893.769 945.688 891.362 944.947 L891.362 940.248 Q893.445 941.382 895.667 941.938 Q897.89 942.493 900.366 942.493 Q904.371 942.493 906.709 940.387 Q909.047 938.281 909.047 934.669 Q909.047 931.058 906.709 928.952 Q904.371 926.845 900.366 926.845 Q898.491 926.845 896.616 927.262 Q894.765 927.679 892.82 928.558 L892.82 911.197 Z" fill="#000000" fill-rule="evenodd" fill-opacity="1" /><path clip-path="url(#clip730)" d="M1396.17 914.276 Q1392.56 914.276 1390.73 917.841 Q1388.93 921.382 1388.93 928.512 Q1388.93 935.618 1390.73 939.183 Q1392.56 942.725 1396.17 942.725 Q1399.8 942.725 1401.61 939.183 Q1403.44 935.618 1403.44 928.512 Q1403.44 921.382 1401.61 917.841 Q1399.8 914.276 1396.17 914.276 M1396.17 910.572 Q1401.98 910.572 1405.04 915.179 Q1408.11 919.762 1408.11 928.512 Q1408.11 937.239 1405.04 941.845 Q1401.98 946.429 1396.17 946.429 Q1390.36 946.429 1387.28 941.845 Q1384.23 937.239 1384.23 928.512 Q1384.23 919.762 1387.28 915.179 Q1390.36 910.572 1396.17 910.572 Z" fill="#000000" fill-rule="evenodd" fill-opacity="1" /><path clip-path="url(#clip730)" d="M1416.33 939.878 L1421.22 939.878 L1421.22 945.757 L1416.33 945.757 L1416.33 939.878 Z" fill="#000000" fill-rule="evenodd" fill-opacity="1" /><path clip-path="url(#clip730)" d="M1431.45 911.197 L1449.8 911.197 L1449.8 915.132 L1435.73 915.132 L1435.73 923.605 Q1436.75 923.257 1437.77 923.095 Q1438.79 922.91 1439.8 922.91 Q1445.59 922.91 1448.97 926.081 Q1452.35 929.253 1452.35 934.669 Q1452.35 940.248 1448.88 943.35 Q1445.41 946.429 1439.09 946.429 Q1436.91 946.429 1434.64 946.058 Q1432.4 945.688 1429.99 944.947 L1429.99 940.248 Q1432.07 941.382 1434.3 941.938 Q1436.52 942.493 1438.99 942.493 Q1443 942.493 1445.34 940.387 Q1447.67 938.281 1447.67 934.669 Q1447.67 931.058 1445.34 928.952 Q1443 926.845 1438.99 926.845 Q1437.12 926.845 1435.24 927.262 Q1433.39 927.679 1431.45 928.558 L1431.45 911.197 Z" fill="#000000" fill-rule="evenodd" fill-opacity="1" /><path clip-path="url(#clip730)" d="M1471.56 914.276 Q1467.95 914.276 1466.12 917.841 Q1464.32 921.382 1464.32 928.512 Q1464.32 935.618 1466.12 939.183 Q1467.95 942.725 1471.56 942.725 Q1475.2 942.725 1477 939.183 Q1478.83 935.618 1478.83 928.512 Q1478.83 921.382 1477 917.841 Q1475.2 914.276 1471.56 914.276 M1471.56 910.572 Q1477.37 910.572 1480.43 915.179 Q1483.51 919.762 1483.51 928.512 Q1483.51 937.239 1480.43 941.845 Q1477.37 946.429 1471.56 946.429 Q1465.75 946.429 1462.67 941.845 Q1459.62 937.239 1459.62 928.512 Q1459.62 919.762 1462.67 915.179 Q1465.75 910.572 1471.56 910.572 Z" fill="#000000" fill-rule="evenodd" fill-opacity="1" /><path clip-path="url(#clip730)" d="M1965.96 914.276 Q1962.34 914.276 1960.52 917.841 Q1958.71 921.382 1958.71 928.512 Q1958.71 935.618 1960.52 939.183 Q1962.34 942.725 1965.96 942.725 Q1969.59 942.725 1971.4 939.183 Q1973.22 935.618 1973.22 928.512 Q1973.22 921.382 1971.4 917.841 Q1969.59 914.276 1965.96 914.276 M1965.96 910.572 Q1971.77 910.572 1974.82 915.179 Q1977.9 919.762 1977.9 928.512 Q1977.9 937.239 1974.82 941.845 Q1971.77 946.429 1965.96 946.429 Q1960.15 946.429 1957.07 941.845 Q1954.01 937.239 1954.01 928.512 Q1954.01 919.762 1957.07 915.179 Q1960.15 910.572 1965.96 910.572 Z" fill="#000000" fill-rule="evenodd" fill-opacity="1" /><path clip-path="url(#clip730)" d="M1986.12 939.878 L1991 939.878 L1991 945.757 L1986.12 945.757 L1986.12 939.878 Z" fill="#000000" fill-rule="evenodd" fill-opacity="1" /><path clip-path="url(#clip730)" d="M2000.01 911.197 L2022.23 911.197 L2022.23 913.188 L2009.68 945.757 L2004.8 945.757 L2016.6 915.132 L2000.01 915.132 L2000.01 911.197 Z" fill="#000000" fill-rule="evenodd" fill-opacity="1" /><path clip-path="url(#clip730)" d="M2031.39 911.197 L2049.75 911.197 L2049.75 915.132 L2035.68 915.132 L2035.68 923.605 Q2036.7 923.257 2037.71 923.095 Q2038.73 922.91 2039.75 922.91 Q2045.54 922.91 2048.92 926.081 Q2052.3 929.253 2052.3 934.669 Q2052.3 940.248 2048.83 943.35 Q2045.35 946.429 2039.03 946.429 Q2036.86 946.429 2034.59 946.058 Q2032.34 945.688 2029.94 944.947 L2029.94 940.248 Q2032.02 941.382 2034.24 941.938 Q2036.46 942.493 2038.94 942.493 Q2042.95 942.493 2045.28 940.387 Q2047.62 938.281 2047.62 934.669 Q2047.62 931.058 2045.28 928.952 Q2042.95 926.845 2038.94 926.845 Q2037.07 926.845 2035.19 927.262 Q2033.34 927.679 2031.39 928.558 L2031.39 911.197 Z" fill="#000000" fill-rule="evenodd" fill-opacity="1" /><path clip-path="url(#clip730)" d="M2524.51 941.822 L2532.15 941.822 L2532.15 915.457 L2523.84 917.123 L2523.84 912.864 L2532.11 911.197 L2536.78 911.197 L2536.78 941.822 L2544.42 941.822 L2544.42 945.757 L2524.51 945.757 L2524.51 941.822 Z" fill="#000000" fill-rule="evenodd" fill-opacity="1" /><path clip-path="url(#clip730)" d="M2553.87 939.878 L2558.75 939.878 L2558.75 945.757 L2553.87 945.757 L2553.87 939.878 Z" fill="#000000" fill-rule="evenodd" fill-opacity="1" /><path clip-path="url(#clip730)" d="M2578.93 914.276 Q2575.32 914.276 2573.49 917.841 Q2571.69 921.382 2571.69 928.512 Q2571.69 935.618 2573.49 939.183 Q2575.32 942.725 2578.93 942.725 Q2582.57 942.725 2584.37 939.183 Q2586.2 935.618 2586.2 928.512 Q2586.2 921.382 2584.37 917.841 Q2582.57 914.276 2578.93 914.276 M2578.93 910.572 Q2584.74 910.572 2587.8 915.179 Q2590.88 919.762 2590.88 928.512 Q2590.88 937.239 2587.8 941.845 Q2584.74 946.429 2578.93 946.429 Q2573.12 946.429 2570.05 941.845 Q2566.99 937.239 2566.99 928.512 Q2566.99 919.762 2570.05 915.179 Q2573.12 910.572 2578.93 910.572 Z" fill="#000000" fill-rule="evenodd" fill-opacity="1" /><path clip-path="url(#clip730)" d="M2609.1 914.276 Q2605.49 914.276 2603.66 917.841 Q2601.85 921.382 2601.85 928.512 Q2601.85 935.618 2603.66 939.183 Q2605.49 942.725 2609.1 942.725 Q2612.73 942.725 2614.54 939.183 Q2616.36 935.618 2616.36 928.512 Q2616.36 921.382 2614.54 917.841 Q2612.73 914.276 2609.1 914.276 M2609.1 910.572 Q2614.91 910.572 2617.96 915.179 Q2621.04 919.762 2621.04 928.512 Q2621.04 937.239 2617.96 941.845 Q2614.91 946.429 2609.1 946.429 Q2603.29 946.429 2600.21 941.845 Q2597.15 937.239 2597.15 928.512 Q2597.15 919.762 2600.21 915.179 Q2603.29 910.572 2609.1 910.572 Z" fill="#000000" fill-rule="evenodd" fill-opacity="1" /><polyline clip-path="url(#clip732)" style="stroke:#000000; stroke-linecap:round; stroke-linejoin:round; stroke-width:2; stroke-opacity:0.1; fill:none" points="
  226.978,859.735 2640.76,859.735 
  "/>
<polyline clip-path="url(#clip732)" style="stroke:#000000; stroke-linecap:round; stroke-linejoin:round; stroke-width:2; stroke-opacity:0.1; fill:none" points="
  226.978,715.574 2640.76,715.574 
  "/>
<polyline clip-path="url(#clip732)" style="stroke:#000000; stroke-linecap:round; stroke-linejoin:round; stroke-width:2; stroke-opacity:0.1; fill:none" points="
  226.978,571.414 2640.76,571.414 
  "/>
<polyline clip-path="url(#clip732)" style="stroke:#000000; stroke-linecap:round; stroke-linejoin:round; stroke-width:2; stroke-opacity:0.1; fill:none" points="
  226.978,427.254 2640.76,427.254 
  "/>
<polyline clip-path="url(#clip732)" style="stroke:#000000; stroke-linecap:round; stroke-linejoin:round; stroke-width:2; stroke-opacity:0.1; fill:none" points="
  226.978,283.094 2640.76,283.094 
  "/>
<polyline clip-path="url(#clip732)" style="stroke:#000000; stroke-linecap:round; stroke-linejoin:round; stroke-width:2; stroke-opacity:0.1; fill:none" points="
  226.978,138.934 2640.76,138.934 
  "/>
<polyline clip-path="url(#clip730)" style="stroke:#000000; stroke-linecap:round; stroke-linejoin:round; stroke-width:4; stroke-opacity:1; fill:none" points="
  226.978,881.053 226.978,127.792 
  "/>
<polyline clip-path="url(#clip730)" style="stroke:#000000; stroke-linecap:round; stroke-linejoin:round; stroke-width:4; stroke-opacity:1; fill:none" points="
  226.978,859.735 245.876,859.735 
  "/>
<polyline clip-path="url(#clip730)" style="stroke:#000000; stroke-linecap:round; stroke-linejoin:round; stroke-width:4; stroke-opacity:1; fill:none" points="
  226.978,715.574 245.876,715.574 
  "/>
<polyline clip-path="url(#clip730)" style="stroke:#000000; stroke-linecap:round; stroke-linejoin:round; stroke-width:4; stroke-opacity:1; fill:none" points="
  226.978,571.414 245.876,571.414 
  "/>
<polyline clip-path="url(#clip730)" style="stroke:#000000; stroke-linecap:round; stroke-linejoin:round; stroke-width:4; stroke-opacity:1; fill:none" points="
  226.978,427.254 245.876,427.254 
  "/>
<polyline clip-path="url(#clip730)" style="stroke:#000000; stroke-linecap:round; stroke-linejoin:round; stroke-width:4; stroke-opacity:1; fill:none" points="
  226.978,283.094 245.876,283.094 
  "/>
<polyline clip-path="url(#clip730)" style="stroke:#000000; stroke-linecap:round; stroke-linejoin:round; stroke-width:4; stroke-opacity:1; fill:none" points="
  226.978,138.934 245.876,138.934 
  "/>
<path clip-path="url(#clip730)" d="M49.5521 860.186 L79.2279 860.186 L79.2279 864.121 L49.5521 864.121 L49.5521 860.186 Z" fill="#000000" fill-rule="evenodd" fill-opacity="1" /><path clip-path="url(#clip730)" d="M99.3204 845.533 Q95.7093 845.533 93.8806 849.098 Q92.075 852.64 92.075 859.769 Q92.075 866.876 93.8806 870.441 Q95.7093 873.982 99.3204 873.982 Q102.955 873.982 104.76 870.441 Q106.589 866.876 106.589 859.769 Q106.589 852.64 104.76 849.098 Q102.955 845.533 99.3204 845.533 M99.3204 841.83 Q105.131 841.83 108.186 846.436 Q111.265 851.019 111.265 859.769 Q111.265 868.496 108.186 873.103 Q105.131 877.686 99.3204 877.686 Q93.5102 877.686 90.4315 873.103 Q87.376 868.496 87.376 859.769 Q87.376 851.019 90.4315 846.436 Q93.5102 841.83 99.3204 841.83 Z" fill="#000000" fill-rule="evenodd" fill-opacity="1" /><path clip-path="url(#clip730)" d="M119.482 871.135 L124.367 871.135 L124.367 877.015 L119.482 877.015 L119.482 871.135 Z" fill="#000000" fill-rule="evenodd" fill-opacity="1" /><path clip-path="url(#clip730)" d="M138.579 873.079 L154.899 873.079 L154.899 877.015 L132.954 877.015 L132.954 873.079 Q135.616 870.325 140.2 865.695 Q144.806 861.042 145.987 859.7 Q148.232 857.177 149.112 855.441 Q150.015 853.681 150.015 851.992 Q150.015 849.237 148.07 847.501 Q146.149 845.765 143.047 845.765 Q140.848 845.765 138.394 846.529 Q135.964 847.293 133.186 848.843 L133.186 844.121 Q136.01 842.987 138.464 842.408 Q140.917 841.83 142.954 841.83 Q148.325 841.83 151.519 844.515 Q154.714 847.2 154.714 851.691 Q154.714 853.82 153.903 855.742 Q153.116 857.64 151.01 860.232 Q150.431 860.904 147.329 864.121 Q144.228 867.316 138.579 873.079 Z" fill="#000000" fill-rule="evenodd" fill-opacity="1" /><path clip-path="url(#clip730)" d="M174.713 845.533 Q171.102 845.533 169.274 849.098 Q167.468 852.64 167.468 859.769 Q167.468 866.876 169.274 870.441 Q171.102 873.982 174.713 873.982 Q178.348 873.982 180.153 870.441 Q181.982 866.876 181.982 859.769 Q181.982 852.64 180.153 849.098 Q178.348 845.533 174.713 845.533 M174.713 841.83 Q180.524 841.83 183.579 846.436 Q186.658 851.019 186.658 859.769 Q186.658 868.496 183.579 873.103 Q180.524 877.686 174.713 877.686 Q168.903 877.686 165.825 873.103 Q162.769 868.496 162.769 859.769 Q162.769 851.019 165.825 846.436 Q168.903 841.83 174.713 841.83 Z" fill="#000000" fill-rule="evenodd" fill-opacity="1" /><path clip-path="url(#clip730)" d="M50.5475 716.026 L80.2233 716.026 L80.2233 719.961 L50.5475 719.961 L50.5475 716.026 Z" fill="#000000" fill-rule="evenodd" fill-opacity="1" /><path clip-path="url(#clip730)" d="M100.316 701.373 Q96.7047 701.373 94.876 704.938 Q93.0704 708.48 93.0704 715.609 Q93.0704 722.716 94.876 726.28 Q96.7047 729.822 100.316 729.822 Q103.95 729.822 105.756 726.28 Q107.584 722.716 107.584 715.609 Q107.584 708.48 105.756 704.938 Q103.95 701.373 100.316 701.373 M100.316 697.669 Q106.126 697.669 109.181 702.276 Q112.26 706.859 112.26 715.609 Q112.26 724.336 109.181 728.942 Q106.126 733.526 100.316 733.526 Q94.5056 733.526 91.4269 728.942 Q88.3714 724.336 88.3714 715.609 Q88.3714 706.859 91.4269 702.276 Q94.5056 697.669 100.316 697.669 Z" fill="#000000" fill-rule="evenodd" fill-opacity="1" /><path clip-path="url(#clip730)" d="M120.478 726.975 L125.362 726.975 L125.362 732.854 L120.478 732.854 L120.478 726.975 Z" fill="#000000" fill-rule="evenodd" fill-opacity="1" /><path clip-path="url(#clip730)" d="M136.357 728.919 L143.996 728.919 L143.996 702.554 L135.686 704.22 L135.686 699.961 L143.95 698.294 L148.626 698.294 L148.626 728.919 L156.265 728.919 L156.265 732.854 L136.357 732.854 L136.357 728.919 Z" fill="#000000" fill-rule="evenodd" fill-opacity="1" /><path clip-path="url(#clip730)" d="M165.755 698.294 L184.112 698.294 L184.112 702.23 L170.038 702.23 L170.038 710.702 Q171.056 710.355 172.075 710.192 Q173.093 710.007 174.112 710.007 Q179.899 710.007 183.278 713.179 Q186.658 716.35 186.658 721.766 Q186.658 727.345 183.186 730.447 Q179.713 733.526 173.394 733.526 Q171.218 733.526 168.95 733.155 Q166.704 732.785 164.297 732.044 L164.297 727.345 Q166.38 728.479 168.602 729.035 Q170.825 729.591 173.301 729.591 Q177.306 729.591 179.644 727.484 Q181.982 725.378 181.982 721.766 Q181.982 718.155 179.644 716.049 Q177.306 713.942 173.301 713.942 Q171.426 713.942 169.551 714.359 Q167.7 714.776 165.755 715.655 L165.755 698.294 Z" fill="#000000" fill-rule="evenodd" fill-opacity="1" /><path clip-path="url(#clip730)" d="M49.5521 571.866 L79.2279 571.866 L79.2279 575.801 L49.5521 575.801 L49.5521 571.866 Z" fill="#000000" fill-rule="evenodd" fill-opacity="1" /><path clip-path="url(#clip730)" d="M99.3204 557.213 Q95.7093 557.213 93.8806 560.778 Q92.075 564.319 92.075 571.449 Q92.075 578.555 93.8806 582.12 Q95.7093 585.662 99.3204 585.662 Q102.955 585.662 104.76 582.12 Q106.589 578.555 106.589 571.449 Q106.589 564.319 104.76 560.778 Q102.955 557.213 99.3204 557.213 M99.3204 553.509 Q105.131 553.509 108.186 558.116 Q111.265 562.699 111.265 571.449 Q111.265 580.176 108.186 584.782 Q105.131 589.365 99.3204 589.365 Q93.5102 589.365 90.4315 584.782 Q87.376 580.176 87.376 571.449 Q87.376 562.699 90.4315 558.116 Q93.5102 553.509 99.3204 553.509 Z" fill="#000000" fill-rule="evenodd" fill-opacity="1" /><path clip-path="url(#clip730)" d="M119.482 582.815 L124.367 582.815 L124.367 588.694 L119.482 588.694 L119.482 582.815 Z" fill="#000000" fill-rule="evenodd" fill-opacity="1" /><path clip-path="url(#clip730)" d="M135.362 584.759 L143.001 584.759 L143.001 558.393 L134.691 560.06 L134.691 555.801 L142.954 554.134 L147.63 554.134 L147.63 584.759 L155.269 584.759 L155.269 588.694 L135.362 588.694 L135.362 584.759 Z" fill="#000000" fill-rule="evenodd" fill-opacity="1" /><path clip-path="url(#clip730)" d="M174.713 557.213 Q171.102 557.213 169.274 560.778 Q167.468 564.319 167.468 571.449 Q167.468 578.555 169.274 582.12 Q171.102 585.662 174.713 585.662 Q178.348 585.662 180.153 582.12 Q181.982 578.555 181.982 571.449 Q181.982 564.319 180.153 560.778 Q178.348 557.213 174.713 557.213 M174.713 553.509 Q180.524 553.509 183.579 558.116 Q186.658 562.699 186.658 571.449 Q186.658 580.176 183.579 584.782 Q180.524 589.365 174.713 589.365 Q168.903 589.365 165.825 584.782 Q162.769 580.176 162.769 571.449 Q162.769 562.699 165.825 558.116 Q168.903 553.509 174.713 553.509 Z" fill="#000000" fill-rule="evenodd" fill-opacity="1" /><path clip-path="url(#clip730)" d="M50.5475 427.705 L80.2233 427.705 L80.2233 431.641 L50.5475 431.641 L50.5475 427.705 Z" fill="#000000" fill-rule="evenodd" fill-opacity="1" /><path clip-path="url(#clip730)" d="M100.316 413.053 Q96.7047 413.053 94.876 416.617 Q93.0704 420.159 93.0704 427.289 Q93.0704 434.395 94.876 437.96 Q96.7047 441.502 100.316 441.502 Q103.95 441.502 105.756 437.96 Q107.584 434.395 107.584 427.289 Q107.584 420.159 105.756 416.617 Q103.95 413.053 100.316 413.053 M100.316 409.349 Q106.126 409.349 109.181 413.955 Q112.26 418.539 112.26 427.289 Q112.26 436.015 109.181 440.622 Q106.126 445.205 100.316 445.205 Q94.5056 445.205 91.4269 440.622 Q88.3714 436.015 88.3714 427.289 Q88.3714 418.539 91.4269 413.955 Q94.5056 409.349 100.316 409.349 Z" fill="#000000" fill-rule="evenodd" fill-opacity="1" /><path clip-path="url(#clip730)" d="M120.478 438.654 L125.362 438.654 L125.362 444.534 L120.478 444.534 L120.478 438.654 Z" fill="#000000" fill-rule="evenodd" fill-opacity="1" /><path clip-path="url(#clip730)" d="M145.547 413.053 Q141.936 413.053 140.107 416.617 Q138.302 420.159 138.302 427.289 Q138.302 434.395 140.107 437.96 Q141.936 441.502 145.547 441.502 Q149.181 441.502 150.987 437.96 Q152.815 434.395 152.815 427.289 Q152.815 420.159 150.987 416.617 Q149.181 413.053 145.547 413.053 M145.547 409.349 Q151.357 409.349 154.413 413.955 Q157.491 418.539 157.491 427.289 Q157.491 436.015 154.413 440.622 Q151.357 445.205 145.547 445.205 Q139.737 445.205 136.658 440.622 Q133.603 436.015 133.603 427.289 Q133.603 418.539 136.658 413.955 Q139.737 409.349 145.547 409.349 Z" fill="#000000" fill-rule="evenodd" fill-opacity="1" /><path clip-path="url(#clip730)" d="M165.755 409.974 L184.112 409.974 L184.112 413.909 L170.038 413.909 L170.038 422.381 Q171.056 422.034 172.075 421.872 Q173.093 421.687 174.112 421.687 Q179.899 421.687 183.278 424.858 Q186.658 428.029 186.658 433.446 Q186.658 439.025 183.186 442.127 Q179.713 445.205 173.394 445.205 Q171.218 445.205 168.95 444.835 Q166.704 444.465 164.297 443.724 L164.297 439.025 Q166.38 440.159 168.602 440.715 Q170.825 441.27 173.301 441.27 Q177.306 441.27 179.644 439.164 Q181.982 437.057 181.982 433.446 Q181.982 429.835 179.644 427.728 Q177.306 425.622 173.301 425.622 Q171.426 425.622 169.551 426.039 Q167.7 426.455 165.755 427.335 L165.755 409.974 Z" fill="#000000" fill-rule="evenodd" fill-opacity="1" /><path clip-path="url(#clip730)" d="M99.3204 268.892 Q95.7093 268.892 93.8806 272.457 Q92.075 275.999 92.075 283.128 Q92.075 290.235 93.8806 293.8 Q95.7093 297.341 99.3204 297.341 Q102.955 297.341 104.76 293.8 Q106.589 290.235 106.589 283.128 Q106.589 275.999 104.76 272.457 Q102.955 268.892 99.3204 268.892 M99.3204 265.189 Q105.131 265.189 108.186 269.795 Q111.265 274.379 111.265 283.128 Q111.265 291.855 108.186 296.462 Q105.131 301.045 99.3204 301.045 Q93.5102 301.045 90.4315 296.462 Q87.376 291.855 87.376 283.128 Q87.376 274.379 90.4315 269.795 Q93.5102 265.189 99.3204 265.189 Z" fill="#000000" fill-rule="evenodd" fill-opacity="1" /><path clip-path="url(#clip730)" d="M119.482 294.494 L124.367 294.494 L124.367 300.374 L119.482 300.374 L119.482 294.494 Z" fill="#000000" fill-rule="evenodd" fill-opacity="1" /><path clip-path="url(#clip730)" d="M144.552 268.892 Q140.941 268.892 139.112 272.457 Q137.306 275.999 137.306 283.128 Q137.306 290.235 139.112 293.8 Q140.941 297.341 144.552 297.341 Q148.186 297.341 149.991 293.8 Q151.82 290.235 151.82 283.128 Q151.82 275.999 149.991 272.457 Q148.186 268.892 144.552 268.892 M144.552 265.189 Q150.362 265.189 153.417 269.795 Q156.496 274.379 156.496 283.128 Q156.496 291.855 153.417 296.462 Q150.362 301.045 144.552 301.045 Q138.741 301.045 135.663 296.462 Q132.607 291.855 132.607 283.128 Q132.607 274.379 135.663 269.795 Q138.741 265.189 144.552 265.189 Z" fill="#000000" fill-rule="evenodd" fill-opacity="1" /><path clip-path="url(#clip730)" d="M174.713 268.892 Q171.102 268.892 169.274 272.457 Q167.468 275.999 167.468 283.128 Q167.468 290.235 169.274 293.8 Q171.102 297.341 174.713 297.341 Q178.348 297.341 180.153 293.8 Q181.982 290.235 181.982 283.128 Q181.982 275.999 180.153 272.457 Q178.348 268.892 174.713 268.892 M174.713 265.189 Q180.524 265.189 183.579 269.795 Q186.658 274.379 186.658 283.128 Q186.658 291.855 183.579 296.462 Q180.524 301.045 174.713 301.045 Q168.903 301.045 165.825 296.462 Q162.769 291.855 162.769 283.128 Q162.769 274.379 165.825 269.795 Q168.903 265.189 174.713 265.189 Z" fill="#000000" fill-rule="evenodd" fill-opacity="1" /><path clip-path="url(#clip730)" d="M100.316 124.732 Q96.7047 124.732 94.876 128.297 Q93.0704 131.839 93.0704 138.968 Q93.0704 146.075 94.876 149.639 Q96.7047 153.181 100.316 153.181 Q103.95 153.181 105.756 149.639 Q107.584 146.075 107.584 138.968 Q107.584 131.839 105.756 128.297 Q103.95 124.732 100.316 124.732 M100.316 121.029 Q106.126 121.029 109.181 125.635 Q112.26 130.218 112.26 138.968 Q112.26 147.695 109.181 152.302 Q106.126 156.885 100.316 156.885 Q94.5056 156.885 91.4269 152.302 Q88.3714 147.695 88.3714 138.968 Q88.3714 130.218 91.4269 125.635 Q94.5056 121.029 100.316 121.029 Z" fill="#000000" fill-rule="evenodd" fill-opacity="1" /><path clip-path="url(#clip730)" d="M120.478 150.334 L125.362 150.334 L125.362 156.214 L120.478 156.214 L120.478 150.334 Z" fill="#000000" fill-rule="evenodd" fill-opacity="1" /><path clip-path="url(#clip730)" d="M145.547 124.732 Q141.936 124.732 140.107 128.297 Q138.302 131.839 138.302 138.968 Q138.302 146.075 140.107 149.639 Q141.936 153.181 145.547 153.181 Q149.181 153.181 150.987 149.639 Q152.815 146.075 152.815 138.968 Q152.815 131.839 150.987 128.297 Q149.181 124.732 145.547 124.732 M145.547 121.029 Q151.357 121.029 154.413 125.635 Q157.491 130.218 157.491 138.968 Q157.491 147.695 154.413 152.302 Q151.357 156.885 145.547 156.885 Q139.737 156.885 136.658 152.302 Q133.603 147.695 133.603 138.968 Q133.603 130.218 136.658 125.635 Q139.737 121.029 145.547 121.029 Z" fill="#000000" fill-rule="evenodd" fill-opacity="1" /><path clip-path="url(#clip730)" d="M165.755 121.654 L184.112 121.654 L184.112 125.589 L170.038 125.589 L170.038 134.061 Q171.056 133.714 172.075 133.552 Q173.093 133.366 174.112 133.366 Q179.899 133.366 183.278 136.538 Q186.658 139.709 186.658 145.126 Q186.658 150.704 183.186 153.806 Q179.713 156.885 173.394 156.885 Q171.218 156.885 168.95 156.514 Q166.704 156.144 164.297 155.403 L164.297 150.704 Q166.38 151.839 168.602 152.394 Q170.825 152.95 173.301 152.95 Q177.306 152.95 179.644 150.843 Q181.982 148.737 181.982 145.126 Q181.982 141.515 179.644 139.408 Q177.306 137.302 173.301 137.302 Q171.426 137.302 169.551 137.718 Q167.7 138.135 165.755 139.015 L165.755 121.654 Z" fill="#000000" fill-rule="evenodd" fill-opacity="1" /><path clip-path="url(#clip730)" d="M937.206 12.096 L945.389 12.096 L945.389 65.6895 L974.839 65.6895 L974.839 72.576 L937.206 72.576 L937.206 12.096 Z" fill="#000000" fill-rule="evenodd" fill-opacity="1" /><path clip-path="url(#clip730)" d="M1020.45 48.0275 L1020.45 51.6733 L986.181 51.6733 Q986.667 59.3701 990.799 63.421 Q994.972 67.4314 1002.38 67.4314 Q1006.68 67.4314 1010.69 66.3781 Q1014.74 65.3249 1018.71 63.2184 L1018.71 70.267 Q1014.7 71.9684 1010.49 72.8596 Q1006.27 73.7508 1001.94 73.7508 Q991.083 73.7508 984.723 67.4314 Q978.403 61.1119 978.403 50.3365 Q978.403 39.1965 984.399 32.6746 Q990.435 26.1121 1000.64 26.1121 Q1009.8 26.1121 1015.1 32.0264 Q1020.45 37.9003 1020.45 48.0275 M1013 45.84 Q1012.92 39.7232 1009.55 36.0774 Q1006.23 32.4315 1000.72 32.4315 Q994.486 32.4315 990.718 35.9558 Q986.991 39.4801 986.424 45.8805 L1013 45.84 Z" fill="#000000" fill-rule="evenodd" fill-opacity="1" /><path clip-path="url(#clip730)" d="M1053.3 49.7694 Q1044.27 49.7694 1040.79 51.8354 Q1037.3 53.9013 1037.3 58.8839 Q1037.3 62.8538 1039.9 65.2034 Q1042.53 67.5124 1047.03 67.5124 Q1053.22 67.5124 1056.95 63.1374 Q1060.72 58.7219 1060.72 51.4303 L1060.72 49.7694 L1053.3 49.7694 M1068.17 46.6907 L1068.17 72.576 L1060.72 72.576 L1060.72 65.6895 Q1058.17 69.8214 1054.36 71.8063 Q1050.55 73.7508 1045.04 73.7508 Q1038.07 73.7508 1033.94 69.8619 Q1029.85 65.9325 1029.85 59.3701 Q1029.85 51.7138 1034.95 47.825 Q1040.1 43.9361 1050.27 43.9361 L1060.72 43.9361 L1060.72 43.2069 Q1060.72 38.0623 1057.32 35.2672 Q1053.95 32.4315 1047.84 32.4315 Q1043.95 32.4315 1040.26 33.3632 Q1036.57 34.295 1033.17 36.1584 L1033.17 29.2718 Q1037.26 27.692 1041.11 26.9223 Q1044.96 26.1121 1048.61 26.1121 Q1058.45 26.1121 1063.31 31.2163 Q1068.17 36.3204 1068.17 46.6907 Z" fill="#000000" fill-rule="evenodd" fill-opacity="1" /><path clip-path="url(#clip730)" d="M1083.24 9.54393 L1090.74 9.54393 L1090.74 46.7717 L1112.97 27.2059 L1122.49 27.2059 L1098.43 48.4326 L1123.51 72.576 L1113.78 72.576 L1090.74 50.4176 L1090.74 72.576 L1083.24 72.576 L1083.24 9.54393 Z" fill="#000000" fill-rule="evenodd" fill-opacity="1" /><path clip-path="url(#clip730)" d="M1147.49 76.7889 Q1144.33 84.8907 1141.33 87.3618 Q1138.33 89.8329 1133.31 89.8329 L1127.36 89.8329 L1127.36 83.5945 L1131.73 83.5945 Q1134.81 83.5945 1136.51 82.1361 Q1138.21 80.6778 1140.28 75.2496 L1141.61 71.8468 L1123.26 27.2059 L1131.16 27.2059 L1145.34 62.6918 L1159.52 27.2059 L1167.42 27.2059 L1147.49 76.7889 Z" fill="#000000" fill-rule="evenodd" fill-opacity="1" /><path clip-path="url(#clip730)" d="M1204.4 12.096 L1212.59 12.096 L1212.59 72.576 L1204.4 72.576 L1204.4 12.096 Z" fill="#000000" fill-rule="evenodd" fill-opacity="1" /><path clip-path="url(#clip730)" d="M1266.26 45.1919 L1266.26 72.576 L1258.81 72.576 L1258.81 45.4349 Q1258.81 38.994 1256.3 35.7938 Q1253.78 32.5936 1248.76 32.5936 Q1242.72 32.5936 1239.24 36.4419 Q1235.76 40.2903 1235.76 46.9338 L1235.76 72.576 L1228.26 72.576 L1228.26 27.2059 L1235.76 27.2059 L1235.76 34.2544 Q1238.43 30.163 1242.04 28.1376 Q1245.68 26.1121 1250.42 26.1121 Q1258.24 26.1121 1262.25 30.9732 Q1266.26 35.7938 1266.26 45.1919 Z" fill="#000000" fill-rule="evenodd" fill-opacity="1" /><path clip-path="url(#clip730)" d="M1288.5 14.324 L1288.5 27.2059 L1303.85 27.2059 L1303.85 32.9987 L1288.5 32.9987 L1288.5 57.6282 Q1288.5 63.1779 1290 64.7578 Q1291.54 66.3376 1296.2 66.3376 L1303.85 66.3376 L1303.85 72.576 L1296.2 72.576 Q1287.57 72.576 1284.29 69.3758 Q1281.01 66.1351 1281.01 57.6282 L1281.01 32.9987 L1275.54 32.9987 L1275.54 27.2059 L1281.01 27.2059 L1281.01 14.324 L1288.5 14.324 Z" fill="#000000" fill-rule="evenodd" fill-opacity="1" /><path clip-path="url(#clip730)" d="M1352.46 48.0275 L1352.46 51.6733 L1318.19 51.6733 Q1318.68 59.3701 1322.81 63.421 Q1326.98 67.4314 1334.4 67.4314 Q1338.69 67.4314 1342.7 66.3781 Q1346.75 65.3249 1350.72 63.2184 L1350.72 70.267 Q1346.71 71.9684 1342.5 72.8596 Q1338.29 73.7508 1333.95 73.7508 Q1323.09 73.7508 1316.73 67.4314 Q1310.42 61.1119 1310.42 50.3365 Q1310.42 39.1965 1316.41 32.6746 Q1322.45 26.1121 1332.66 26.1121 Q1341.81 26.1121 1347.12 32.0264 Q1352.46 37.9003 1352.46 48.0275 M1345.01 45.84 Q1344.93 39.7232 1341.57 36.0774 Q1338.25 32.4315 1332.74 32.4315 Q1326.5 32.4315 1322.73 35.9558 Q1319 39.4801 1318.44 45.8805 L1345.01 45.84 Z" fill="#000000" fill-rule="evenodd" fill-opacity="1" /><path clip-path="url(#clip730)" d="M1394.55 49.3643 Q1394.55 41.2625 1391.19 36.8065 Q1387.87 32.3505 1381.83 32.3505 Q1375.84 32.3505 1372.48 36.8065 Q1369.15 41.2625 1369.15 49.3643 Q1369.15 57.4256 1372.48 61.8816 Q1375.84 66.3376 1381.83 66.3376 Q1387.87 66.3376 1391.19 61.8816 Q1394.55 57.4256 1394.55 49.3643 M1402.01 66.9452 Q1402.01 78.5308 1396.86 84.1616 Q1391.72 89.8329 1381.1 89.8329 Q1377.17 89.8329 1373.69 89.2252 Q1370.21 88.6581 1366.93 87.4428 L1366.93 80.1917 Q1370.21 81.9741 1373.41 82.8248 Q1376.61 83.6755 1379.93 83.6755 Q1387.26 83.6755 1390.91 79.8271 Q1394.55 76.0193 1394.55 68.282 L1394.55 64.5957 Q1392.24 68.6061 1388.64 70.5911 Q1385.03 72.576 1380.01 72.576 Q1371.67 72.576 1366.56 66.2161 Q1361.46 59.8562 1361.46 49.3643 Q1361.46 38.832 1366.56 32.472 Q1371.67 26.1121 1380.01 26.1121 Q1385.03 26.1121 1388.64 28.0971 Q1392.24 30.082 1394.55 34.0924 L1394.55 27.2059 L1402.01 27.2059 L1402.01 66.9452 Z" fill="#000000" fill-rule="evenodd" fill-opacity="1" /><path clip-path="url(#clip730)" d="M1443.65 34.1734 Q1442.39 33.4443 1440.9 33.1202 Q1439.44 32.7556 1437.65 32.7556 Q1431.34 32.7556 1427.93 36.8875 Q1424.57 40.9789 1424.57 48.6757 L1424.57 72.576 L1417.08 72.576 L1417.08 27.2059 L1424.57 27.2059 L1424.57 34.2544 Q1426.92 30.1225 1430.69 28.1376 Q1434.45 26.1121 1439.84 26.1121 Q1440.61 26.1121 1441.54 26.2337 Q1442.48 26.3147 1443.61 26.5172 L1443.65 34.1734 Z" fill="#000000" fill-rule="evenodd" fill-opacity="1" /><path clip-path="url(#clip730)" d="M1472.09 49.7694 Q1463.05 49.7694 1459.57 51.8354 Q1456.09 53.9013 1456.09 58.8839 Q1456.09 62.8538 1458.68 65.2034 Q1461.31 67.5124 1465.81 67.5124 Q1472.01 67.5124 1475.73 63.1374 Q1479.5 58.7219 1479.5 51.4303 L1479.5 49.7694 L1472.09 49.7694 M1486.95 46.6907 L1486.95 72.576 L1479.5 72.576 L1479.5 65.6895 Q1476.95 69.8214 1473.14 71.8063 Q1469.33 73.7508 1463.82 73.7508 Q1456.86 73.7508 1452.72 69.8619 Q1448.63 65.9325 1448.63 59.3701 Q1448.63 51.7138 1453.74 47.825 Q1458.88 43.9361 1469.05 43.9361 L1479.5 43.9361 L1479.5 43.2069 Q1479.5 38.0623 1476.1 35.2672 Q1472.74 32.4315 1466.62 32.4315 Q1462.73 32.4315 1459.04 33.3632 Q1455.36 34.295 1451.95 36.1584 L1451.95 29.2718 Q1456.05 27.692 1459.89 26.9223 Q1463.74 26.1121 1467.39 26.1121 Q1477.23 26.1121 1482.09 31.2163 Q1486.95 36.3204 1486.95 46.6907 Z" fill="#000000" fill-rule="evenodd" fill-opacity="1" /><path clip-path="url(#clip730)" d="M1509.68 14.324 L1509.68 27.2059 L1525.03 27.2059 L1525.03 32.9987 L1509.68 32.9987 L1509.68 57.6282 Q1509.68 63.1779 1511.18 64.7578 Q1512.72 66.3376 1517.38 66.3376 L1525.03 66.3376 L1525.03 72.576 L1517.38 72.576 Q1508.75 72.576 1505.47 69.3758 Q1502.19 66.1351 1502.19 57.6282 L1502.19 32.9987 L1496.72 32.9987 L1496.72 27.2059 L1502.19 27.2059 L1502.19 14.324 L1509.68 14.324 Z" fill="#000000" fill-rule="evenodd" fill-opacity="1" /><path clip-path="url(#clip730)" d="M1573.64 48.0275 L1573.64 51.6733 L1539.37 51.6733 Q1539.86 59.3701 1543.99 63.421 Q1548.16 67.4314 1555.58 67.4314 Q1559.87 67.4314 1563.88 66.3781 Q1567.93 65.3249 1571.9 63.2184 L1571.9 70.267 Q1567.89 71.9684 1563.68 72.8596 Q1559.47 73.7508 1555.13 73.7508 Q1544.27 73.7508 1537.91 67.4314 Q1531.59 61.1119 1531.59 50.3365 Q1531.59 39.1965 1537.59 32.6746 Q1543.63 26.1121 1553.83 26.1121 Q1562.99 26.1121 1568.3 32.0264 Q1573.64 37.9003 1573.64 48.0275 M1566.19 45.84 Q1566.11 39.7232 1562.75 36.0774 Q1559.42 32.4315 1553.92 32.4315 Q1547.68 32.4315 1543.91 35.9558 Q1540.18 39.4801 1539.62 45.8805 L1566.19 45.84 Z" fill="#000000" fill-rule="evenodd" fill-opacity="1" /><path clip-path="url(#clip730)" d="M1632.87 49.7694 Q1623.83 49.7694 1620.35 51.8354 Q1616.87 53.9013 1616.87 58.8839 Q1616.87 62.8538 1619.46 65.2034 Q1622.09 67.5124 1626.59 67.5124 Q1632.79 67.5124 1636.51 63.1374 Q1640.28 58.7219 1640.28 51.4303 L1640.28 49.7694 L1632.87 49.7694 M1647.73 46.6907 L1647.73 72.576 L1640.28 72.576 L1640.28 65.6895 Q1637.73 69.8214 1633.92 71.8063 Q1630.11 73.7508 1624.6 73.7508 Q1617.64 73.7508 1613.5 69.8619 Q1609.41 65.9325 1609.41 59.3701 Q1609.41 51.7138 1614.52 47.825 Q1619.66 43.9361 1629.83 43.9361 L1640.28 43.9361 L1640.28 43.2069 Q1640.28 38.0623 1636.88 35.2672 Q1633.52 32.4315 1627.4 32.4315 Q1623.51 32.4315 1619.82 33.3632 Q1616.14 34.295 1612.73 36.1584 L1612.73 29.2718 Q1616.83 27.692 1620.67 26.9223 Q1624.52 26.1121 1628.17 26.1121 Q1638.01 26.1121 1642.87 31.2163 Q1647.73 36.3204 1647.73 46.6907 Z" fill="#000000" fill-rule="evenodd" fill-opacity="1" /><path clip-path="url(#clip730)" d="M1700.8 45.1919 L1700.8 72.576 L1693.35 72.576 L1693.35 45.4349 Q1693.35 38.994 1690.84 35.7938 Q1688.32 32.5936 1683.3 32.5936 Q1677.27 32.5936 1673.78 36.4419 Q1670.3 40.2903 1670.3 46.9338 L1670.3 72.576 L1662.8 72.576 L1662.8 27.2059 L1670.3 27.2059 L1670.3 34.2544 Q1672.97 30.163 1676.58 28.1376 Q1680.22 26.1121 1684.96 26.1121 Q1692.78 26.1121 1696.79 30.9732 Q1700.8 35.7938 1700.8 45.1919 Z" fill="#000000" fill-rule="evenodd" fill-opacity="1" /><path clip-path="url(#clip730)" d="M1745.52 34.0924 L1745.52 9.54393 L1752.98 9.54393 L1752.98 72.576 L1745.52 72.576 L1745.52 65.7705 Q1743.17 69.8214 1739.57 71.8063 Q1736 73.7508 1730.98 73.7508 Q1722.76 73.7508 1717.57 67.1883 Q1712.43 60.6258 1712.43 49.9314 Q1712.43 39.2371 1717.57 32.6746 Q1722.76 26.1121 1730.98 26.1121 Q1736 26.1121 1739.57 28.0971 Q1743.17 30.0415 1745.52 34.0924 M1720.12 49.9314 Q1720.12 58.1548 1723.49 62.8538 Q1726.89 67.5124 1732.8 67.5124 Q1738.72 67.5124 1742.12 62.8538 Q1745.52 58.1548 1745.52 49.9314 Q1745.52 41.7081 1742.12 37.0496 Q1738.72 32.3505 1732.8 32.3505 Q1726.89 32.3505 1723.49 37.0496 Q1720.12 41.7081 1720.12 49.9314 Z" fill="#000000" fill-rule="evenodd" fill-opacity="1" /><path clip-path="url(#clip730)" d="M1795.03 12.096 L1829.78 12.096 L1829.78 18.9825 L1803.21 18.9825 L1803.21 36.8065 L1827.19 36.8065 L1827.19 43.6931 L1803.21 43.6931 L1803.21 72.576 L1795.03 72.576 L1795.03 12.096 Z" fill="#000000" fill-rule="evenodd" fill-opacity="1" /><path clip-path="url(#clip730)" d="M1836.38 27.2059 L1843.84 27.2059 L1843.84 72.576 L1836.38 72.576 L1836.38 27.2059 M1836.38 9.54393 L1843.84 9.54393 L1843.84 18.9825 L1836.38 18.9825 L1836.38 9.54393 Z" fill="#000000" fill-rule="evenodd" fill-opacity="1" /><path clip-path="url(#clip730)" d="M1885.73 34.1734 Q1884.47 33.4443 1882.97 33.1202 Q1881.51 32.7556 1879.73 32.7556 Q1873.41 32.7556 1870.01 36.8875 Q1866.65 40.9789 1866.65 48.6757 L1866.65 72.576 L1859.15 72.576 L1859.15 27.2059 L1866.65 27.2059 L1866.65 34.2544 Q1868.99 30.1225 1872.76 28.1376 Q1876.53 26.1121 1881.92 26.1121 Q1882.69 26.1121 1883.62 26.2337 Q1884.55 26.3147 1885.68 26.5172 L1885.73 34.1734 Z" fill="#000000" fill-rule="evenodd" fill-opacity="1" /><path clip-path="url(#clip730)" d="M1930.53 48.0275 L1930.53 51.6733 L1896.26 51.6733 Q1896.74 59.3701 1900.88 63.421 Q1905.05 67.4314 1912.46 67.4314 Q1916.75 67.4314 1920.77 66.3781 Q1924.82 65.3249 1928.79 63.2184 L1928.79 70.267 Q1924.78 71.9684 1920.56 72.8596 Q1916.35 73.7508 1912.02 73.7508 Q1901.16 73.7508 1894.8 67.4314 Q1888.48 61.1119 1888.48 50.3365 Q1888.48 39.1965 1894.47 32.6746 Q1900.51 26.1121 1910.72 26.1121 Q1919.87 26.1121 1925.18 32.0264 Q1930.53 37.9003 1930.53 48.0275 M1923.07 45.84 Q1922.99 39.7232 1919.63 36.0774 Q1916.31 32.4315 1910.8 32.4315 Q1904.56 32.4315 1900.79 35.9558 Q1897.07 39.4801 1896.5 45.8805 L1923.07 45.84 Z" fill="#000000" fill-rule="evenodd" fill-opacity="1" /><polyline clip-path="url(#clip732)" style="stroke:#009af9; stroke-linecap:round; stroke-linejoin:round; stroke-width:4; stroke-opacity:1; fill:none" points="
  295.292,571.414 318.064,569.973 340.835,568.545 363.607,567.132 386.378,565.734 409.15,564.349 431.921,562.978 454.693,561.621 477.464,560.277 500.236,558.947 
  523.007,557.63 545.779,527.494 568.55,497.66 591.322,468.124 614.093,438.883 636.865,409.934 659.636,381.276 682.408,352.903 705.179,324.815 727.951,297.007 
  750.722,269.478 773.494,242.223 796.265,215.242 819.037,188.53 841.808,162.085 864.58,859.735 887.351,826.578 910.123,793.752 932.894,761.255 955.666,729.083 
  978.437,697.233 1001.21,665.701 1023.98,634.485 1046.75,603.58 1069.52,572.985 1092.29,542.696 1115.07,512.709 1137.84,483.023 1160.61,453.633 1183.38,424.537 
  1206.15,395.732 1228.92,367.215 1251.69,338.984 1274.47,311.034 1297.24,283.365 1320.01,255.971 1342.78,228.852 1365.55,202.004 1388.32,175.425 1411.1,149.111 
  1433.87,151.892 1456.64,154.646 1479.41,157.372 1502.18,160.071 1524.95,162.743 1547.72,165.388 1570.5,168.006 1593.27,170.599 1616.04,173.165 1638.81,175.706 
  1661.58,178.222 1684.35,180.712 1707.12,183.178 1729.9,185.618 1752.67,188.035 1775.44,190.427 1798.21,192.795 1820.98,195.14 1843.75,197.461 1866.53,199.759 
  1889.3,202.034 1912.07,204.286 1934.84,206.516 1957.61,208.723 1980.38,210.908 2003.15,213.072 2025.93,215.214 2048.7,217.334 2071.47,219.433 2094.24,221.511 
  2117.01,223.569 2139.78,225.606 2162.55,227.622 2185.33,229.618 2208.1,231.595 2230.87,233.551 2253.64,235.488 2276.41,237.406 2299.18,239.305 2321.96,241.184 
  2344.73,243.045 2367.5,244.887 2390.27,246.711 2413.04,248.516 2435.81,250.303 2458.58,252.073 2481.36,253.825 2504.13,255.559 2526.9,257.276 2549.67,258.976 
  2572.44,260.658 
  "/>
<path clip-path="url(#clip730)" d="
M1852.29 256.581 L2560.3 256.581 L2560.3 152.901 L1852.29 152.901  Z
  " fill="#ffffff" fill-rule="evenodd" fill-opacity="1"/>
<polyline clip-path="url(#clip730)" style="stroke:#000000; stroke-linecap:round; stroke-linejoin:round; stroke-width:4; stroke-opacity:1; fill:none" points="
  1852.29,256.581 2560.3,256.581 2560.3,152.901 1852.29,152.901 1852.29,256.581 
  "/>
<polyline clip-path="url(#clip730)" style="stroke:#009af9; stroke-linecap:round; stroke-linejoin:round; stroke-width:4; stroke-opacity:1; fill:none" points="
  1879.11,204.741 2040.02,204.741 
  "/>
<path clip-path="url(#clip730)" d="M2066.84 187.461 L2073.81 187.461 L2082.63 210.979 L2091.5 187.461 L2098.46 187.461 L2098.46 222.021 L2093.9 222.021 L2093.9 191.674 L2084.99 215.377 L2080.29 215.377 L2071.38 191.674 L2071.38 222.021 L2066.84 222.021 L2066.84 187.461 Z" fill="#000000" fill-rule="evenodd" fill-opacity="1" /><path clip-path="url(#clip730)" d="M2129.74 207.993 L2129.74 210.076 L2110.15 210.076 Q2110.43 214.475 2112.79 216.789 Q2115.18 219.081 2119.41 219.081 Q2121.87 219.081 2124.16 218.479 Q2126.47 217.877 2128.74 216.674 L2128.74 220.701 Q2126.45 221.674 2124.04 222.183 Q2121.64 222.692 2119.16 222.692 Q2112.96 222.692 2109.32 219.081 Q2105.71 215.47 2105.71 209.313 Q2105.71 202.947 2109.14 199.22 Q2112.59 195.47 2118.42 195.47 Q2123.65 195.47 2126.68 198.85 Q2129.74 202.206 2129.74 207.993 M2125.48 206.743 Q2125.43 203.248 2123.51 201.164 Q2121.61 199.081 2118.46 199.081 Q2114.9 199.081 2112.75 201.095 Q2110.62 203.109 2110.29 206.766 L2125.48 206.743 Z" fill="#000000" fill-rule="evenodd" fill-opacity="1" /><path clip-path="url(#clip730)" d="M2156.91 201.072 Q2158.51 198.202 2160.73 196.836 Q2162.96 195.47 2165.96 195.47 Q2170.02 195.47 2172.21 198.317 Q2174.41 201.141 2174.41 206.373 L2174.41 222.021 L2170.13 222.021 L2170.13 206.512 Q2170.13 202.785 2168.81 200.979 Q2167.49 199.174 2164.78 199.174 Q2161.47 199.174 2159.55 201.373 Q2157.63 203.572 2157.63 207.368 L2157.63 222.021 L2153.35 222.021 L2153.35 206.512 Q2153.35 202.762 2152.03 200.979 Q2150.71 199.174 2147.96 199.174 Q2144.69 199.174 2142.77 201.396 Q2140.85 203.595 2140.85 207.368 L2140.85 222.021 L2136.57 222.021 L2136.57 196.095 L2140.85 196.095 L2140.85 200.123 Q2142.31 197.739 2144.34 196.604 Q2146.38 195.47 2149.18 195.47 Q2152.01 195.47 2153.97 196.905 Q2155.96 198.34 2156.91 201.072 Z" fill="#000000" fill-rule="evenodd" fill-opacity="1" /><path clip-path="url(#clip730)" d="M2201.52 209.081 Q2201.52 204.382 2199.58 201.72 Q2197.65 199.035 2194.27 199.035 Q2190.89 199.035 2188.95 201.72 Q2187.03 204.382 2187.03 209.081 Q2187.03 213.78 2188.95 216.465 Q2190.89 219.127 2194.27 219.127 Q2197.65 219.127 2199.58 216.465 Q2201.52 213.78 2201.52 209.081 M2187.03 200.03 Q2188.37 197.715 2190.41 196.604 Q2192.47 195.47 2195.32 195.47 Q2200.04 195.47 2202.98 199.22 Q2205.94 202.97 2205.94 209.081 Q2205.94 215.192 2202.98 218.942 Q2200.04 222.692 2195.32 222.692 Q2192.47 222.692 2190.41 221.581 Q2188.37 220.447 2187.03 218.132 L2187.03 222.021 L2182.75 222.021 L2182.75 186.003 L2187.03 186.003 L2187.03 200.03 Z" fill="#000000" fill-rule="evenodd" fill-opacity="1" /><path clip-path="url(#clip730)" d="M2228.02 200.077 Q2227.31 199.66 2226.45 199.475 Q2225.62 199.266 2224.6 199.266 Q2220.99 199.266 2219.04 201.627 Q2217.12 203.965 2217.12 208.363 L2217.12 222.021 L2212.84 222.021 L2212.84 196.095 L2217.12 196.095 L2217.12 200.123 Q2218.46 197.762 2220.62 196.627 Q2222.77 195.47 2225.85 195.47 Q2226.29 195.47 2226.82 195.539 Q2227.35 195.586 2228 195.702 L2228.02 200.077 Z" fill="#000000" fill-rule="evenodd" fill-opacity="1" /><path clip-path="url(#clip730)" d="M2244.27 208.988 Q2239.11 208.988 2237.12 210.169 Q2235.13 211.35 2235.13 214.197 Q2235.13 216.465 2236.61 217.808 Q2238.12 219.127 2240.69 219.127 Q2244.23 219.127 2246.36 216.627 Q2248.51 214.104 2248.51 209.938 L2248.51 208.988 L2244.27 208.988 M2252.77 207.229 L2252.77 222.021 L2248.51 222.021 L2248.51 218.086 Q2247.05 220.447 2244.88 221.581 Q2242.7 222.692 2239.55 222.692 Q2235.57 222.692 2233.21 220.47 Q2230.87 218.225 2230.87 214.475 Q2230.87 210.1 2233.79 207.877 Q2236.73 205.655 2242.54 205.655 L2248.51 205.655 L2248.51 205.239 Q2248.51 202.299 2246.57 200.702 Q2244.64 199.081 2241.15 199.081 Q2238.93 199.081 2236.82 199.614 Q2234.71 200.146 2232.77 201.211 L2232.77 197.276 Q2235.11 196.373 2237.31 195.933 Q2239.51 195.47 2241.59 195.47 Q2247.21 195.47 2249.99 198.387 Q2252.77 201.303 2252.77 207.229 Z" fill="#000000" fill-rule="evenodd" fill-opacity="1" /><path clip-path="url(#clip730)" d="M2283.09 206.373 L2283.09 222.021 L2278.83 222.021 L2278.83 206.512 Q2278.83 202.831 2277.4 201.002 Q2275.96 199.174 2273.09 199.174 Q2269.64 199.174 2267.65 201.373 Q2265.66 203.572 2265.66 207.368 L2265.66 222.021 L2261.38 222.021 L2261.38 196.095 L2265.66 196.095 L2265.66 200.123 Q2267.19 197.785 2269.25 196.627 Q2271.33 195.47 2274.04 195.47 Q2278.51 195.47 2280.8 198.248 Q2283.09 201.002 2283.09 206.373 Z" fill="#000000" fill-rule="evenodd" fill-opacity="1" /><path clip-path="url(#clip730)" d="M2313.76 207.993 L2313.76 210.076 L2294.18 210.076 Q2294.46 214.475 2296.82 216.789 Q2299.2 219.081 2303.44 219.081 Q2305.89 219.081 2308.19 218.479 Q2310.5 217.877 2312.77 216.674 L2312.77 220.701 Q2310.48 221.674 2308.07 222.183 Q2305.66 222.692 2303.19 222.692 Q2296.98 222.692 2293.35 219.081 Q2289.74 215.47 2289.74 209.313 Q2289.74 202.947 2293.16 199.22 Q2296.61 195.47 2302.45 195.47 Q2307.68 195.47 2310.71 198.85 Q2313.76 202.206 2313.76 207.993 M2309.51 206.743 Q2309.46 203.248 2307.54 201.164 Q2305.64 199.081 2302.49 199.081 Q2298.93 199.081 2296.77 201.095 Q2294.64 203.109 2294.32 206.766 L2309.51 206.743 Z" fill="#000000" fill-rule="evenodd" fill-opacity="1" /><path clip-path="url(#clip730)" d="M2344.92 222.021 L2331.73 187.461 L2336.61 187.461 L2347.56 216.558 L2358.53 187.461 L2363.39 187.461 L2350.22 222.021 L2344.92 222.021 Z" fill="#000000" fill-rule="evenodd" fill-opacity="1" /><path clip-path="url(#clip730)" d="M2374.62 199.081 Q2371.19 199.081 2369.2 201.766 Q2367.21 204.428 2367.21 209.081 Q2367.21 213.734 2369.18 216.419 Q2371.17 219.081 2374.62 219.081 Q2378.02 219.081 2380.01 216.396 Q2382.01 213.711 2382.01 209.081 Q2382.01 204.475 2380.01 201.789 Q2378.02 199.081 2374.62 199.081 M2374.62 195.47 Q2380.18 195.47 2383.35 199.081 Q2386.52 202.692 2386.52 209.081 Q2386.52 215.447 2383.35 219.081 Q2380.18 222.692 2374.62 222.692 Q2369.04 222.692 2365.87 219.081 Q2362.72 215.447 2362.72 209.081 Q2362.72 202.692 2365.87 199.081 Q2369.04 195.47 2374.62 195.47 Z" fill="#000000" fill-rule="evenodd" fill-opacity="1" /><path clip-path="url(#clip730)" d="M2393.58 186.003 L2397.84 186.003 L2397.84 222.021 L2393.58 222.021 L2393.58 186.003 Z" fill="#000000" fill-rule="evenodd" fill-opacity="1" /><path clip-path="url(#clip730)" d="M2410.96 188.734 L2410.96 196.095 L2419.74 196.095 L2419.74 199.405 L2410.96 199.405 L2410.96 213.479 Q2410.96 216.65 2411.82 217.553 Q2412.7 218.456 2415.36 218.456 L2419.74 218.456 L2419.74 222.021 L2415.36 222.021 Q2410.43 222.021 2408.56 220.192 Q2406.68 218.34 2406.68 213.479 L2406.68 199.405 L2403.56 199.405 L2403.56 196.095 L2406.68 196.095 L2406.68 188.734 L2410.96 188.734 Z" fill="#000000" fill-rule="evenodd" fill-opacity="1" /><path clip-path="url(#clip730)" d="M2437.12 208.988 Q2431.96 208.988 2429.97 210.169 Q2427.98 211.35 2427.98 214.197 Q2427.98 216.465 2429.46 217.808 Q2430.96 219.127 2433.53 219.127 Q2437.07 219.127 2439.2 216.627 Q2441.36 214.104 2441.36 209.938 L2441.36 208.988 L2437.12 208.988 M2445.62 207.229 L2445.62 222.021 L2441.36 222.021 L2441.36 218.086 Q2439.9 220.447 2437.72 221.581 Q2435.55 222.692 2432.4 222.692 Q2428.42 222.692 2426.06 220.47 Q2423.72 218.225 2423.72 214.475 Q2423.72 210.1 2426.63 207.877 Q2429.57 205.655 2435.38 205.655 L2441.36 205.655 L2441.36 205.239 Q2441.36 202.299 2439.41 200.702 Q2437.49 199.081 2434 199.081 Q2431.77 199.081 2429.67 199.614 Q2427.56 200.146 2425.62 201.211 L2425.62 197.276 Q2427.95 196.373 2430.15 195.933 Q2432.35 195.47 2434.44 195.47 Q2440.06 195.47 2442.84 198.387 Q2445.62 201.303 2445.62 207.229 Z" fill="#000000" fill-rule="evenodd" fill-opacity="1" /><path clip-path="url(#clip730)" d="M2471.45 208.757 Q2471.45 204.127 2469.53 201.581 Q2467.63 199.035 2464.18 199.035 Q2460.75 199.035 2458.83 201.581 Q2456.94 204.127 2456.94 208.757 Q2456.94 213.363 2458.83 215.91 Q2460.75 218.456 2464.18 218.456 Q2467.63 218.456 2469.53 215.91 Q2471.45 213.363 2471.45 208.757 M2475.71 218.803 Q2475.71 225.424 2472.77 228.641 Q2469.83 231.882 2463.76 231.882 Q2461.52 231.882 2459.53 231.535 Q2457.54 231.211 2455.66 230.516 L2455.66 226.373 Q2457.54 227.391 2459.37 227.877 Q2461.19 228.363 2463.09 228.363 Q2467.28 228.363 2469.37 226.164 Q2471.45 223.988 2471.45 219.567 L2471.45 217.461 Q2470.13 219.752 2468.07 220.887 Q2466.01 222.021 2463.14 222.021 Q2458.37 222.021 2455.45 218.387 Q2452.54 214.752 2452.54 208.757 Q2452.54 202.739 2455.45 199.104 Q2458.37 195.47 2463.14 195.47 Q2466.01 195.47 2468.07 196.604 Q2470.13 197.739 2471.45 200.03 L2471.45 196.095 L2475.71 196.095 L2475.71 218.803 Z" fill="#000000" fill-rule="evenodd" fill-opacity="1" /><path clip-path="url(#clip730)" d="M2506.66 207.993 L2506.66 210.076 L2487.07 210.076 Q2487.35 214.475 2489.71 216.789 Q2492.1 219.081 2496.33 219.081 Q2498.79 219.081 2501.08 218.479 Q2503.39 217.877 2505.66 216.674 L2505.66 220.701 Q2503.37 221.674 2500.96 222.183 Q2498.56 222.692 2496.08 222.692 Q2489.87 222.692 2486.24 219.081 Q2482.63 215.47 2482.63 209.313 Q2482.63 202.947 2486.06 199.22 Q2489.5 195.47 2495.34 195.47 Q2500.57 195.47 2503.6 198.85 Q2506.66 202.206 2506.66 207.993 M2502.4 206.743 Q2502.35 203.248 2500.43 201.164 Q2498.53 199.081 2495.38 199.081 Q2491.82 199.081 2489.67 201.095 Q2487.54 203.109 2487.21 206.766 L2502.4 206.743 Z" fill="#000000" fill-rule="evenodd" fill-opacity="1" /><path clip-path="url(#clip730)" d="
M226.978 1800.78 L2640.76 1800.78 L2640.76 1047.52 L226.978 1047.52  Z
  " fill="#ffffff" fill-rule="evenodd" fill-opacity="1"/>
<defs>
  <clipPath id="clip733">
    <rect x="226" y="1047" width="2415" height="754"/>
  </clipPath>
</defs>
<polyline clip-path="url(#clip733)" style="stroke:#000000; stroke-linecap:round; stroke-linejoin:round; stroke-width:2; stroke-opacity:0.1; fill:none" points="
  295.292,1800.78 295.292,1047.52 
  "/>
<polyline clip-path="url(#clip733)" style="stroke:#000000; stroke-linecap:round; stroke-linejoin:round; stroke-width:2; stroke-opacity:0.1; fill:none" points="
  864.58,1800.78 864.58,1047.52 
  "/>
<polyline clip-path="url(#clip733)" style="stroke:#000000; stroke-linecap:round; stroke-linejoin:round; stroke-width:2; stroke-opacity:0.1; fill:none" points="
  1433.87,1800.78 1433.87,1047.52 
  "/>
<polyline clip-path="url(#clip733)" style="stroke:#000000; stroke-linecap:round; stroke-linejoin:round; stroke-width:2; stroke-opacity:0.1; fill:none" points="
  2003.15,1800.78 2003.15,1047.52 
  "/>
<polyline clip-path="url(#clip733)" style="stroke:#000000; stroke-linecap:round; stroke-linejoin:round; stroke-width:2; stroke-opacity:0.1; fill:none" points="
  2572.44,1800.78 2572.44,1047.52 
  "/>
<polyline clip-path="url(#clip730)" style="stroke:#000000; stroke-linecap:round; stroke-linejoin:round; stroke-width:4; stroke-opacity:1; fill:none" points="
  226.978,1800.78 2640.76,1800.78 
  "/>
<polyline clip-path="url(#clip730)" style="stroke:#000000; stroke-linecap:round; stroke-linejoin:round; stroke-width:4; stroke-opacity:1; fill:none" points="
  295.292,1800.78 295.292,1781.88 
  "/>
<polyline clip-path="url(#clip730)" style="stroke:#000000; stroke-linecap:round; stroke-linejoin:round; stroke-width:4; stroke-opacity:1; fill:none" points="
  864.58,1800.78 864.58,1781.88 
  "/>
<polyline clip-path="url(#clip730)" style="stroke:#000000; stroke-linecap:round; stroke-linejoin:round; stroke-width:4; stroke-opacity:1; fill:none" points="
  1433.87,1800.78 1433.87,1781.88 
  "/>
<polyline clip-path="url(#clip730)" style="stroke:#000000; stroke-linecap:round; stroke-linejoin:round; stroke-width:4; stroke-opacity:1; fill:none" points="
  2003.15,1800.78 2003.15,1781.88 
  "/>
<polyline clip-path="url(#clip730)" style="stroke:#000000; stroke-linecap:round; stroke-linejoin:round; stroke-width:4; stroke-opacity:1; fill:none" points="
  2572.44,1800.78 2572.44,1781.88 
  "/>
<path clip-path="url(#clip730)" d="M257.596 1834 Q253.985 1834 252.156 1837.57 Q250.35 1841.11 250.35 1848.24 Q250.35 1855.34 252.156 1858.91 Q253.985 1862.45 257.596 1862.45 Q261.23 1862.45 263.036 1858.91 Q264.864 1855.34 264.864 1848.24 Q264.864 1841.11 263.036 1837.57 Q261.23 1834 257.596 1834 M257.596 1830.3 Q263.406 1830.3 266.461 1834.9 Q269.54 1839.49 269.54 1848.24 Q269.54 1856.96 266.461 1861.57 Q263.406 1866.15 257.596 1866.15 Q251.786 1866.15 248.707 1861.57 Q245.651 1856.96 245.651 1848.24 Q245.651 1839.49 248.707 1834.9 Q251.786 1830.3 257.596 1830.3 Z" fill="#000000" fill-rule="evenodd" fill-opacity="1" /><path clip-path="url(#clip730)" d="M277.758 1859.6 L282.642 1859.6 L282.642 1865.48 L277.758 1865.48 L277.758 1859.6 Z" fill="#000000" fill-rule="evenodd" fill-opacity="1" /><path clip-path="url(#clip730)" d="M302.827 1834 Q299.216 1834 297.387 1837.57 Q295.582 1841.11 295.582 1848.24 Q295.582 1855.34 297.387 1858.91 Q299.216 1862.45 302.827 1862.45 Q306.461 1862.45 308.267 1858.91 Q310.096 1855.34 310.096 1848.24 Q310.096 1841.11 308.267 1837.57 Q306.461 1834 302.827 1834 M302.827 1830.3 Q308.637 1830.3 311.693 1834.9 Q314.771 1839.49 314.771 1848.24 Q314.771 1856.96 311.693 1861.57 Q308.637 1866.15 302.827 1866.15 Q297.017 1866.15 293.938 1861.57 Q290.883 1856.96 290.883 1848.24 Q290.883 1839.49 293.938 1834.9 Q297.017 1830.3 302.827 1830.3 Z" fill="#000000" fill-rule="evenodd" fill-opacity="1" /><path clip-path="url(#clip730)" d="M332.989 1834 Q329.378 1834 327.549 1837.57 Q325.744 1841.11 325.744 1848.24 Q325.744 1855.34 327.549 1858.91 Q329.378 1862.45 332.989 1862.45 Q336.623 1862.45 338.429 1858.91 Q340.257 1855.34 340.257 1848.24 Q340.257 1841.11 338.429 1837.57 Q336.623 1834 332.989 1834 M332.989 1830.3 Q338.799 1830.3 341.855 1834.9 Q344.933 1839.49 344.933 1848.24 Q344.933 1856.96 341.855 1861.57 Q338.799 1866.15 332.989 1866.15 Q327.179 1866.15 324.1 1861.57 Q321.045 1856.96 321.045 1848.24 Q321.045 1839.49 324.1 1834.9 Q327.179 1830.3 332.989 1830.3 Z" fill="#000000" fill-rule="evenodd" fill-opacity="1" /><path clip-path="url(#clip730)" d="M827.381 1834 Q823.77 1834 821.941 1837.57 Q820.135 1841.11 820.135 1848.24 Q820.135 1855.34 821.941 1858.91 Q823.77 1862.45 827.381 1862.45 Q831.015 1862.45 832.821 1858.91 Q834.649 1855.34 834.649 1848.24 Q834.649 1841.11 832.821 1837.57 Q831.015 1834 827.381 1834 M827.381 1830.3 Q833.191 1830.3 836.246 1834.9 Q839.325 1839.49 839.325 1848.24 Q839.325 1856.96 836.246 1861.57 Q833.191 1866.15 827.381 1866.15 Q821.571 1866.15 818.492 1861.57 Q815.436 1856.96 815.436 1848.24 Q815.436 1839.49 818.492 1834.9 Q821.571 1830.3 827.381 1830.3 Z" fill="#000000" fill-rule="evenodd" fill-opacity="1" /><path clip-path="url(#clip730)" d="M847.543 1859.6 L852.427 1859.6 L852.427 1865.48 L847.543 1865.48 L847.543 1859.6 Z" fill="#000000" fill-rule="evenodd" fill-opacity="1" /><path clip-path="url(#clip730)" d="M866.64 1861.55 L882.959 1861.55 L882.959 1865.48 L861.015 1865.48 L861.015 1861.55 Q863.677 1858.79 868.26 1854.16 Q872.867 1849.51 874.047 1848.17 Q876.293 1845.65 877.172 1843.91 Q878.075 1842.15 878.075 1840.46 Q878.075 1837.71 876.13 1835.97 Q874.209 1834.23 871.107 1834.23 Q868.908 1834.23 866.455 1835 Q864.024 1835.76 861.246 1837.31 L861.246 1832.59 Q864.07 1831.46 866.524 1830.88 Q868.978 1830.3 871.015 1830.3 Q876.385 1830.3 879.58 1832.98 Q882.774 1835.67 882.774 1840.16 Q882.774 1842.29 881.964 1844.21 Q881.177 1846.11 879.07 1848.7 Q878.492 1849.37 875.39 1852.59 Q872.288 1855.78 866.64 1861.55 Z" fill="#000000" fill-rule="evenodd" fill-opacity="1" /><path clip-path="url(#clip730)" d="M892.82 1830.92 L911.177 1830.92 L911.177 1834.86 L897.103 1834.86 L897.103 1843.33 Q898.121 1842.98 899.14 1842.82 Q900.158 1842.64 901.177 1842.64 Q906.964 1842.64 910.343 1845.81 Q913.723 1848.98 913.723 1854.4 Q913.723 1859.97 910.251 1863.08 Q906.778 1866.15 900.459 1866.15 Q898.283 1866.15 896.015 1865.78 Q893.769 1865.41 891.362 1864.67 L891.362 1859.97 Q893.445 1861.11 895.667 1861.66 Q897.89 1862.22 900.366 1862.22 Q904.371 1862.22 906.709 1860.11 Q909.047 1858.01 909.047 1854.4 Q909.047 1850.78 906.709 1848.68 Q904.371 1846.57 900.366 1846.57 Q898.491 1846.57 896.616 1846.99 Q894.765 1847.4 892.82 1848.28 L892.82 1830.92 Z" fill="#000000" fill-rule="evenodd" fill-opacity="1" /><path clip-path="url(#clip730)" d="M1396.17 1834 Q1392.56 1834 1390.73 1837.57 Q1388.93 1841.11 1388.93 1848.24 Q1388.93 1855.34 1390.73 1858.91 Q1392.56 1862.45 1396.17 1862.45 Q1399.8 1862.45 1401.61 1858.91 Q1403.44 1855.34 1403.44 1848.24 Q1403.44 1841.11 1401.61 1837.57 Q1399.8 1834 1396.17 1834 M1396.17 1830.3 Q1401.98 1830.3 1405.04 1834.9 Q1408.11 1839.49 1408.11 1848.24 Q1408.11 1856.96 1405.04 1861.57 Q1401.98 1866.15 1396.17 1866.15 Q1390.36 1866.15 1387.28 1861.57 Q1384.23 1856.96 1384.23 1848.24 Q1384.23 1839.49 1387.28 1834.9 Q1390.36 1830.3 1396.17 1830.3 Z" fill="#000000" fill-rule="evenodd" fill-opacity="1" /><path clip-path="url(#clip730)" d="M1416.33 1859.6 L1421.22 1859.6 L1421.22 1865.48 L1416.33 1865.48 L1416.33 1859.6 Z" fill="#000000" fill-rule="evenodd" fill-opacity="1" /><path clip-path="url(#clip730)" d="M1431.45 1830.92 L1449.8 1830.92 L1449.8 1834.86 L1435.73 1834.86 L1435.73 1843.33 Q1436.75 1842.98 1437.77 1842.82 Q1438.79 1842.64 1439.8 1842.64 Q1445.59 1842.64 1448.97 1845.81 Q1452.35 1848.98 1452.35 1854.4 Q1452.35 1859.97 1448.88 1863.08 Q1445.41 1866.15 1439.09 1866.15 Q1436.91 1866.15 1434.64 1865.78 Q1432.4 1865.41 1429.99 1864.67 L1429.99 1859.97 Q1432.07 1861.11 1434.3 1861.66 Q1436.52 1862.22 1438.99 1862.22 Q1443 1862.22 1445.34 1860.11 Q1447.67 1858.01 1447.67 1854.4 Q1447.67 1850.78 1445.34 1848.68 Q1443 1846.57 1438.99 1846.57 Q1437.12 1846.57 1435.24 1846.99 Q1433.39 1847.4 1431.45 1848.28 L1431.45 1830.92 Z" fill="#000000" fill-rule="evenodd" fill-opacity="1" /><path clip-path="url(#clip730)" d="M1471.56 1834 Q1467.95 1834 1466.12 1837.57 Q1464.32 1841.11 1464.32 1848.24 Q1464.32 1855.34 1466.12 1858.91 Q1467.95 1862.45 1471.56 1862.45 Q1475.2 1862.45 1477 1858.91 Q1478.83 1855.34 1478.83 1848.24 Q1478.83 1841.11 1477 1837.57 Q1475.2 1834 1471.56 1834 M1471.56 1830.3 Q1477.37 1830.3 1480.43 1834.9 Q1483.51 1839.49 1483.51 1848.24 Q1483.51 1856.96 1480.43 1861.57 Q1477.37 1866.15 1471.56 1866.15 Q1465.75 1866.15 1462.67 1861.57 Q1459.62 1856.96 1459.62 1848.24 Q1459.62 1839.49 1462.67 1834.9 Q1465.75 1830.3 1471.56 1830.3 Z" fill="#000000" fill-rule="evenodd" fill-opacity="1" /><path clip-path="url(#clip730)" d="M1965.96 1834 Q1962.34 1834 1960.52 1837.57 Q1958.71 1841.11 1958.71 1848.24 Q1958.71 1855.34 1960.52 1858.91 Q1962.34 1862.45 1965.96 1862.45 Q1969.59 1862.45 1971.4 1858.91 Q1973.22 1855.34 1973.22 1848.24 Q1973.22 1841.11 1971.4 1837.57 Q1969.59 1834 1965.96 1834 M1965.96 1830.3 Q1971.77 1830.3 1974.82 1834.9 Q1977.9 1839.49 1977.9 1848.24 Q1977.9 1856.96 1974.82 1861.57 Q1971.77 1866.15 1965.96 1866.15 Q1960.15 1866.15 1957.07 1861.57 Q1954.01 1856.96 1954.01 1848.24 Q1954.01 1839.49 1957.07 1834.9 Q1960.15 1830.3 1965.96 1830.3 Z" fill="#000000" fill-rule="evenodd" fill-opacity="1" /><path clip-path="url(#clip730)" d="M1986.12 1859.6 L1991 1859.6 L1991 1865.48 L1986.12 1865.48 L1986.12 1859.6 Z" fill="#000000" fill-rule="evenodd" fill-opacity="1" /><path clip-path="url(#clip730)" d="M2000.01 1830.92 L2022.23 1830.92 L2022.23 1832.91 L2009.68 1865.48 L2004.8 1865.48 L2016.6 1834.86 L2000.01 1834.86 L2000.01 1830.92 Z" fill="#000000" fill-rule="evenodd" fill-opacity="1" /><path clip-path="url(#clip730)" d="M2031.39 1830.92 L2049.75 1830.92 L2049.75 1834.86 L2035.68 1834.86 L2035.68 1843.33 Q2036.7 1842.98 2037.71 1842.82 Q2038.73 1842.64 2039.75 1842.64 Q2045.54 1842.64 2048.92 1845.81 Q2052.3 1848.98 2052.3 1854.4 Q2052.3 1859.97 2048.83 1863.08 Q2045.35 1866.15 2039.03 1866.15 Q2036.86 1866.15 2034.59 1865.78 Q2032.34 1865.41 2029.94 1864.67 L2029.94 1859.97 Q2032.02 1861.11 2034.24 1861.66 Q2036.46 1862.22 2038.94 1862.22 Q2042.95 1862.22 2045.28 1860.11 Q2047.62 1858.01 2047.62 1854.4 Q2047.62 1850.78 2045.28 1848.68 Q2042.95 1846.57 2038.94 1846.57 Q2037.07 1846.57 2035.19 1846.99 Q2033.34 1847.4 2031.39 1848.28 L2031.39 1830.92 Z" fill="#000000" fill-rule="evenodd" fill-opacity="1" /><path clip-path="url(#clip730)" d="M2524.51 1861.55 L2532.15 1861.55 L2532.15 1835.18 L2523.84 1836.85 L2523.84 1832.59 L2532.11 1830.92 L2536.78 1830.92 L2536.78 1861.55 L2544.42 1861.55 L2544.42 1865.48 L2524.51 1865.48 L2524.51 1861.55 Z" fill="#000000" fill-rule="evenodd" fill-opacity="1" /><path clip-path="url(#clip730)" d="M2553.87 1859.6 L2558.75 1859.6 L2558.75 1865.48 L2553.87 1865.48 L2553.87 1859.6 Z" fill="#000000" fill-rule="evenodd" fill-opacity="1" /><path clip-path="url(#clip730)" d="M2578.93 1834 Q2575.32 1834 2573.49 1837.57 Q2571.69 1841.11 2571.69 1848.24 Q2571.69 1855.34 2573.49 1858.91 Q2575.32 1862.45 2578.93 1862.45 Q2582.57 1862.45 2584.37 1858.91 Q2586.2 1855.34 2586.2 1848.24 Q2586.2 1841.11 2584.37 1837.57 Q2582.57 1834 2578.93 1834 M2578.93 1830.3 Q2584.74 1830.3 2587.8 1834.9 Q2590.88 1839.49 2590.88 1848.24 Q2590.88 1856.96 2587.8 1861.57 Q2584.74 1866.15 2578.93 1866.15 Q2573.12 1866.15 2570.05 1861.57 Q2566.99 1856.96 2566.99 1848.24 Q2566.99 1839.49 2570.05 1834.9 Q2573.12 1830.3 2578.93 1830.3 Z" fill="#000000" fill-rule="evenodd" fill-opacity="1" /><path clip-path="url(#clip730)" d="M2609.1 1834 Q2605.49 1834 2603.66 1837.57 Q2601.85 1841.11 2601.85 1848.24 Q2601.85 1855.34 2603.66 1858.91 Q2605.49 1862.45 2609.1 1862.45 Q2612.73 1862.45 2614.54 1858.91 Q2616.36 1855.34 2616.36 1848.24 Q2616.36 1841.11 2614.54 1837.57 Q2612.73 1834 2609.1 1834 M2609.1 1830.3 Q2614.91 1830.3 2617.96 1834.9 Q2621.04 1839.49 2621.04 1848.24 Q2621.04 1856.96 2617.96 1861.57 Q2614.91 1866.15 2609.1 1866.15 Q2603.29 1866.15 2600.21 1861.57 Q2597.15 1856.96 2597.15 1848.24 Q2597.15 1839.49 2600.21 1834.9 Q2603.29 1830.3 2609.1 1830.3 Z" fill="#000000" fill-rule="evenodd" fill-opacity="1" /><polyline clip-path="url(#clip733)" style="stroke:#000000; stroke-linecap:round; stroke-linejoin:round; stroke-width:2; stroke-opacity:0.1; fill:none" points="
  226.978,1779.46 2640.76,1779.46 
  "/>
<polyline clip-path="url(#clip733)" style="stroke:#000000; stroke-linecap:round; stroke-linejoin:round; stroke-width:2; stroke-opacity:0.1; fill:none" points="
  226.978,1601.8 2640.76,1601.8 
  "/>
<polyline clip-path="url(#clip733)" style="stroke:#000000; stroke-linecap:round; stroke-linejoin:round; stroke-width:2; stroke-opacity:0.1; fill:none" points="
  226.978,1424.15 2640.76,1424.15 
  "/>
<polyline clip-path="url(#clip733)" style="stroke:#000000; stroke-linecap:round; stroke-linejoin:round; stroke-width:2; stroke-opacity:0.1; fill:none" points="
  226.978,1246.49 2640.76,1246.49 
  "/>
<polyline clip-path="url(#clip733)" style="stroke:#000000; stroke-linecap:round; stroke-linejoin:round; stroke-width:2; stroke-opacity:0.1; fill:none" points="
  226.978,1068.84 2640.76,1068.84 
  "/>
<polyline clip-path="url(#clip730)" style="stroke:#000000; stroke-linecap:round; stroke-linejoin:round; stroke-width:4; stroke-opacity:1; fill:none" points="
  226.978,1800.78 226.978,1047.52 
  "/>
<polyline clip-path="url(#clip730)" style="stroke:#000000; stroke-linecap:round; stroke-linejoin:round; stroke-width:4; stroke-opacity:1; fill:none" points="
  226.978,1779.46 245.876,1779.46 
  "/>
<polyline clip-path="url(#clip730)" style="stroke:#000000; stroke-linecap:round; stroke-linejoin:round; stroke-width:4; stroke-opacity:1; fill:none" points="
  226.978,1601.8 245.876,1601.8 
  "/>
<polyline clip-path="url(#clip730)" style="stroke:#000000; stroke-linecap:round; stroke-linejoin:round; stroke-width:4; stroke-opacity:1; fill:none" points="
  226.978,1424.15 245.876,1424.15 
  "/>
<polyline clip-path="url(#clip730)" style="stroke:#000000; stroke-linecap:round; stroke-linejoin:round; stroke-width:4; stroke-opacity:1; fill:none" points="
  226.978,1246.49 245.876,1246.49 
  "/>
<polyline clip-path="url(#clip730)" style="stroke:#000000; stroke-linecap:round; stroke-linejoin:round; stroke-width:4; stroke-opacity:1; fill:none" points="
  226.978,1068.84 245.876,1068.84 
  "/>
<path clip-path="url(#clip730)" d="M99.3204 1765.26 Q95.7093 1765.26 93.8806 1768.82 Q92.075 1772.37 92.075 1779.5 Q92.075 1786.6 93.8806 1790.17 Q95.7093 1793.71 99.3204 1793.71 Q102.955 1793.71 104.76 1790.17 Q106.589 1786.6 106.589 1779.5 Q106.589 1772.37 104.76 1768.82 Q102.955 1765.26 99.3204 1765.26 M99.3204 1761.56 Q105.131 1761.56 108.186 1766.16 Q111.265 1770.75 111.265 1779.5 Q111.265 1788.22 108.186 1792.83 Q105.131 1797.41 99.3204 1797.41 Q93.5102 1797.41 90.4315 1792.83 Q87.376 1788.22 87.376 1779.5 Q87.376 1770.75 90.4315 1766.16 Q93.5102 1761.56 99.3204 1761.56 Z" fill="#000000" fill-rule="evenodd" fill-opacity="1" /><path clip-path="url(#clip730)" d="M119.482 1790.86 L124.367 1790.86 L124.367 1796.74 L119.482 1796.74 L119.482 1790.86 Z" fill="#000000" fill-rule="evenodd" fill-opacity="1" /><path clip-path="url(#clip730)" d="M144.552 1765.26 Q140.941 1765.26 139.112 1768.82 Q137.306 1772.37 137.306 1779.5 Q137.306 1786.6 139.112 1790.17 Q140.941 1793.71 144.552 1793.71 Q148.186 1793.71 149.991 1790.17 Q151.82 1786.6 151.82 1779.5 Q151.82 1772.37 149.991 1768.82 Q148.186 1765.26 144.552 1765.26 M144.552 1761.56 Q150.362 1761.56 153.417 1766.16 Q156.496 1770.75 156.496 1779.5 Q156.496 1788.22 153.417 1792.83 Q150.362 1797.41 144.552 1797.41 Q138.741 1797.41 135.663 1792.83 Q132.607 1788.22 132.607 1779.5 Q132.607 1770.75 135.663 1766.16 Q138.741 1761.56 144.552 1761.56 Z" fill="#000000" fill-rule="evenodd" fill-opacity="1" /><path clip-path="url(#clip730)" d="M174.713 1765.26 Q171.102 1765.26 169.274 1768.82 Q167.468 1772.37 167.468 1779.5 Q167.468 1786.6 169.274 1790.17 Q171.102 1793.71 174.713 1793.71 Q178.348 1793.71 180.153 1790.17 Q181.982 1786.6 181.982 1779.5 Q181.982 1772.37 180.153 1768.82 Q178.348 1765.26 174.713 1765.26 M174.713 1761.56 Q180.524 1761.56 183.579 1766.16 Q186.658 1770.75 186.658 1779.5 Q186.658 1788.22 183.579 1792.83 Q180.524 1797.41 174.713 1797.41 Q168.903 1797.41 165.825 1792.83 Q162.769 1788.22 162.769 1779.5 Q162.769 1770.75 165.825 1766.16 Q168.903 1761.56 174.713 1761.56 Z" fill="#000000" fill-rule="evenodd" fill-opacity="1" /><path clip-path="url(#clip730)" d="M100.316 1587.6 Q96.7047 1587.6 94.876 1591.17 Q93.0704 1594.71 93.0704 1601.84 Q93.0704 1608.95 94.876 1612.51 Q96.7047 1616.05 100.316 1616.05 Q103.95 1616.05 105.756 1612.51 Q107.584 1608.95 107.584 1601.84 Q107.584 1594.71 105.756 1591.17 Q103.95 1587.6 100.316 1587.6 M100.316 1583.9 Q106.126 1583.9 109.181 1588.51 Q112.26 1593.09 112.26 1601.84 Q112.26 1610.57 109.181 1615.17 Q106.126 1619.76 100.316 1619.76 Q94.5056 1619.76 91.4269 1615.17 Q88.3714 1610.57 88.3714 1601.84 Q88.3714 1593.09 91.4269 1588.51 Q94.5056 1583.9 100.316 1583.9 Z" fill="#000000" fill-rule="evenodd" fill-opacity="1" /><path clip-path="url(#clip730)" d="M120.478 1613.21 L125.362 1613.21 L125.362 1619.08 L120.478 1619.08 L120.478 1613.21 Z" fill="#000000" fill-rule="evenodd" fill-opacity="1" /><path clip-path="url(#clip730)" d="M139.575 1615.15 L155.894 1615.15 L155.894 1619.08 L133.95 1619.08 L133.95 1615.15 Q136.612 1612.39 141.195 1607.77 Q145.802 1603.11 146.982 1601.77 Q149.228 1599.25 150.107 1597.51 Q151.01 1595.75 151.01 1594.06 Q151.01 1591.31 149.065 1589.57 Q147.144 1587.83 144.042 1587.83 Q141.843 1587.83 139.39 1588.6 Q136.959 1589.36 134.181 1590.91 L134.181 1586.19 Q137.005 1585.06 139.459 1584.48 Q141.913 1583.9 143.95 1583.9 Q149.32 1583.9 152.515 1586.58 Q155.709 1589.27 155.709 1593.76 Q155.709 1595.89 154.899 1597.81 Q154.112 1599.71 152.005 1602.3 Q151.427 1602.97 148.325 1606.19 Q145.223 1609.39 139.575 1615.15 Z" fill="#000000" fill-rule="evenodd" fill-opacity="1" /><path clip-path="url(#clip730)" d="M165.755 1584.52 L184.112 1584.52 L184.112 1588.46 L170.038 1588.46 L170.038 1596.93 Q171.056 1596.58 172.075 1596.42 Q173.093 1596.24 174.112 1596.24 Q179.899 1596.24 183.278 1599.41 Q186.658 1602.58 186.658 1608 Q186.658 1613.58 183.186 1616.68 Q179.713 1619.76 173.394 1619.76 Q171.218 1619.76 168.95 1619.39 Q166.704 1619.02 164.297 1618.27 L164.297 1613.58 Q166.38 1614.71 168.602 1615.27 Q170.825 1615.82 173.301 1615.82 Q177.306 1615.82 179.644 1613.71 Q181.982 1611.61 181.982 1608 Q181.982 1604.39 179.644 1602.28 Q177.306 1600.17 173.301 1600.17 Q171.426 1600.17 169.551 1600.59 Q167.7 1601.01 165.755 1601.89 L165.755 1584.52 Z" fill="#000000" fill-rule="evenodd" fill-opacity="1" /><path clip-path="url(#clip730)" d="M99.3204 1409.95 Q95.7093 1409.95 93.8806 1413.51 Q92.075 1417.05 92.075 1424.18 Q92.075 1431.29 93.8806 1434.85 Q95.7093 1438.4 99.3204 1438.4 Q102.955 1438.4 104.76 1434.85 Q106.589 1431.29 106.589 1424.18 Q106.589 1417.05 104.76 1413.51 Q102.955 1409.95 99.3204 1409.95 M99.3204 1406.24 Q105.131 1406.24 108.186 1410.85 Q111.265 1415.43 111.265 1424.18 Q111.265 1432.91 108.186 1437.52 Q105.131 1442.1 99.3204 1442.1 Q93.5102 1442.1 90.4315 1437.52 Q87.376 1432.91 87.376 1424.18 Q87.376 1415.43 90.4315 1410.85 Q93.5102 1406.24 99.3204 1406.24 Z" fill="#000000" fill-rule="evenodd" fill-opacity="1" /><path clip-path="url(#clip730)" d="M119.482 1435.55 L124.367 1435.55 L124.367 1441.43 L119.482 1441.43 L119.482 1435.55 Z" fill="#000000" fill-rule="evenodd" fill-opacity="1" /><path clip-path="url(#clip730)" d="M134.598 1406.87 L152.954 1406.87 L152.954 1410.8 L138.88 1410.8 L138.88 1419.28 Q139.899 1418.93 140.917 1418.77 Q141.936 1418.58 142.954 1418.58 Q148.741 1418.58 152.121 1421.75 Q155.501 1424.92 155.501 1430.34 Q155.501 1435.92 152.028 1439.02 Q148.556 1442.1 142.237 1442.1 Q140.061 1442.1 137.792 1441.73 Q135.547 1441.36 133.14 1440.62 L133.14 1435.92 Q135.223 1437.05 137.445 1437.61 Q139.667 1438.16 142.144 1438.16 Q146.149 1438.16 148.487 1436.06 Q150.825 1433.95 150.825 1430.34 Q150.825 1426.73 148.487 1424.62 Q146.149 1422.52 142.144 1422.52 Q140.269 1422.52 138.394 1422.93 Q136.542 1423.35 134.598 1424.23 L134.598 1406.87 Z" fill="#000000" fill-rule="evenodd" fill-opacity="1" /><path clip-path="url(#clip730)" d="M174.713 1409.95 Q171.102 1409.95 169.274 1413.51 Q167.468 1417.05 167.468 1424.18 Q167.468 1431.29 169.274 1434.85 Q171.102 1438.4 174.713 1438.4 Q178.348 1438.4 180.153 1434.85 Q181.982 1431.29 181.982 1424.18 Q181.982 1417.05 180.153 1413.51 Q178.348 1409.95 174.713 1409.95 M174.713 1406.24 Q180.524 1406.24 183.579 1410.85 Q186.658 1415.43 186.658 1424.18 Q186.658 1432.91 183.579 1437.52 Q180.524 1442.1 174.713 1442.1 Q168.903 1442.1 165.825 1437.52 Q162.769 1432.91 162.769 1424.18 Q162.769 1415.43 165.825 1410.85 Q168.903 1406.24 174.713 1406.24 Z" fill="#000000" fill-rule="evenodd" fill-opacity="1" /><path clip-path="url(#clip730)" d="M100.316 1232.29 Q96.7047 1232.29 94.876 1235.86 Q93.0704 1239.4 93.0704 1246.53 Q93.0704 1253.63 94.876 1257.2 Q96.7047 1260.74 100.316 1260.74 Q103.95 1260.74 105.756 1257.2 Q107.584 1253.63 107.584 1246.53 Q107.584 1239.4 105.756 1235.86 Q103.95 1232.29 100.316 1232.29 M100.316 1228.59 Q106.126 1228.59 109.181 1233.19 Q112.26 1237.78 112.26 1246.53 Q112.26 1255.25 109.181 1259.86 Q106.126 1264.44 100.316 1264.44 Q94.5056 1264.44 91.4269 1259.86 Q88.3714 1255.25 88.3714 1246.53 Q88.3714 1237.78 91.4269 1233.19 Q94.5056 1228.59 100.316 1228.59 Z" fill="#000000" fill-rule="evenodd" fill-opacity="1" /><path clip-path="url(#clip730)" d="M120.478 1257.89 L125.362 1257.89 L125.362 1263.77 L120.478 1263.77 L120.478 1257.89 Z" fill="#000000" fill-rule="evenodd" fill-opacity="1" /><path clip-path="url(#clip730)" d="M134.366 1229.21 L156.589 1229.21 L156.589 1231.2 L144.042 1263.77 L139.158 1263.77 L150.964 1233.15 L134.366 1233.15 L134.366 1229.21 Z" fill="#000000" fill-rule="evenodd" fill-opacity="1" /><path clip-path="url(#clip730)" d="M165.755 1229.21 L184.112 1229.21 L184.112 1233.15 L170.038 1233.15 L170.038 1241.62 Q171.056 1241.27 172.075 1241.11 Q173.093 1240.93 174.112 1240.93 Q179.899 1240.93 183.278 1244.1 Q186.658 1247.27 186.658 1252.68 Q186.658 1258.26 183.186 1261.37 Q179.713 1264.44 173.394 1264.44 Q171.218 1264.44 168.95 1264.07 Q166.704 1263.7 164.297 1262.96 L164.297 1258.26 Q166.38 1259.4 168.602 1259.95 Q170.825 1260.51 173.301 1260.51 Q177.306 1260.51 179.644 1258.4 Q181.982 1256.3 181.982 1252.68 Q181.982 1249.07 179.644 1246.97 Q177.306 1244.86 173.301 1244.86 Q171.426 1244.86 169.551 1245.28 Q167.7 1245.69 165.755 1246.57 L165.755 1229.21 Z" fill="#000000" fill-rule="evenodd" fill-opacity="1" /><path clip-path="url(#clip730)" d="M90.1306 1082.18 L97.7695 1082.18 L97.7695 1055.82 L89.4593 1057.48 L89.4593 1053.22 L97.7232 1051.56 L102.399 1051.56 L102.399 1082.18 L110.038 1082.18 L110.038 1086.12 L90.1306 1086.12 L90.1306 1082.18 Z" fill="#000000" fill-rule="evenodd" fill-opacity="1" /><path clip-path="url(#clip730)" d="M119.482 1080.24 L124.367 1080.24 L124.367 1086.12 L119.482 1086.12 L119.482 1080.24 Z" fill="#000000" fill-rule="evenodd" fill-opacity="1" /><path clip-path="url(#clip730)" d="M144.552 1054.64 Q140.941 1054.64 139.112 1058.2 Q137.306 1061.74 137.306 1068.87 Q137.306 1075.98 139.112 1079.54 Q140.941 1083.08 144.552 1083.08 Q148.186 1083.08 149.991 1079.54 Q151.82 1075.98 151.82 1068.87 Q151.82 1061.74 149.991 1058.2 Q148.186 1054.64 144.552 1054.64 M144.552 1050.93 Q150.362 1050.93 153.417 1055.54 Q156.496 1060.12 156.496 1068.87 Q156.496 1077.6 153.417 1082.2 Q150.362 1086.79 144.552 1086.79 Q138.741 1086.79 135.663 1082.2 Q132.607 1077.6 132.607 1068.87 Q132.607 1060.12 135.663 1055.54 Q138.741 1050.93 144.552 1050.93 Z" fill="#000000" fill-rule="evenodd" fill-opacity="1" /><path clip-path="url(#clip730)" d="M174.713 1054.64 Q171.102 1054.64 169.274 1058.2 Q167.468 1061.74 167.468 1068.87 Q167.468 1075.98 169.274 1079.54 Q171.102 1083.08 174.713 1083.08 Q178.348 1083.08 180.153 1079.54 Q181.982 1075.98 181.982 1068.87 Q181.982 1061.74 180.153 1058.2 Q178.348 1054.64 174.713 1054.64 M174.713 1050.93 Q180.524 1050.93 183.579 1055.54 Q186.658 1060.12 186.658 1068.87 Q186.658 1077.6 183.579 1082.2 Q180.524 1086.79 174.713 1086.79 Q168.903 1086.79 165.825 1082.2 Q162.769 1077.6 162.769 1068.87 Q162.769 1060.12 165.825 1055.54 Q168.903 1050.93 174.713 1050.93 Z" fill="#000000" fill-rule="evenodd" fill-opacity="1" /><polyline clip-path="url(#clip733)" style="stroke:#009af9; stroke-linecap:round; stroke-linejoin:round; stroke-width:4; stroke-opacity:1; fill:none" points="
  295.292,1779.46 318.064,1779.46 340.835,1779.46 363.607,1779.46 386.378,1779.46 409.15,1779.46 431.921,1779.46 454.693,1779.46 477.464,1779.46 500.236,1779.46 
  523.007,1779.46 545.779,1068.84 568.55,1068.84 591.322,1068.84 614.093,1068.84 636.865,1068.84 659.636,1068.84 682.408,1068.84 705.179,1068.84 727.951,1068.84 
  750.722,1068.84 773.494,1068.84 796.265,1068.84 819.037,1068.84 841.808,1068.84 864.58,1068.84 887.351,1068.84 910.123,1068.84 932.894,1068.84 955.666,1068.84 
  978.437,1068.84 1001.21,1068.84 1023.98,1068.84 1046.75,1068.84 1069.52,1068.84 1092.29,1068.84 1115.07,1068.84 1137.84,1068.84 1160.61,1068.84 1183.38,1068.84 
  1206.15,1068.84 1228.92,1068.84 1251.69,1068.84 1274.47,1068.84 1297.24,1068.84 1320.01,1068.84 1342.78,1068.84 1365.55,1068.84 1388.32,1068.84 1411.1,1068.84 
  1433.87,1779.46 1456.64,1779.46 1479.41,1779.46 1502.18,1779.46 1524.95,1779.46 1547.72,1779.46 1570.5,1779.46 1593.27,1779.46 1616.04,1779.46 1638.81,1779.46 
  1661.58,1779.46 1684.35,1779.46 1707.12,1779.46 1729.9,1779.46 1752.67,1779.46 1775.44,1779.46 1798.21,1779.46 1820.98,1779.46 1843.75,1779.46 1866.53,1779.46 
  1889.3,1779.46 1912.07,1779.46 1934.84,1779.46 1957.61,1779.46 1980.38,1779.46 2003.15,1779.46 2025.93,1779.46 2048.7,1779.46 2071.47,1779.46 2094.24,1779.46 
  2117.01,1779.46 2139.78,1779.46 2162.55,1779.46 2185.33,1779.46 2208.1,1779.46 2230.87,1779.46 2253.64,1779.46 2276.41,1779.46 2299.18,1779.46 2321.96,1779.46 
  2344.73,1779.46 2367.5,1779.46 2390.27,1779.46 2413.04,1779.46 2435.81,1779.46 2458.58,1779.46 2481.36,1779.46 2504.13,1779.46 2526.9,1779.46 2549.67,1779.46 
  2572.44,1779.46 
  "/>
<path clip-path="url(#clip730)" d="
M2117.84 1176.31 L2560.3 1176.31 L2560.3 1072.63 L2117.84 1072.63  Z
  " fill="#ffffff" fill-rule="evenodd" fill-opacity="1"/>
<polyline clip-path="url(#clip730)" style="stroke:#000000; stroke-linecap:round; stroke-linejoin:round; stroke-width:4; stroke-opacity:1; fill:none" points="
  2117.84,1176.31 2560.3,1176.31 2560.3,1072.63 2117.84,1072.63 2117.84,1176.31 
  "/>
<polyline clip-path="url(#clip730)" style="stroke:#009af9; stroke-linecap:round; stroke-linejoin:round; stroke-width:4; stroke-opacity:1; fill:none" points="
  2144.66,1124.47 2305.58,1124.47 
  "/>
<path clip-path="url(#clip730)" d="M2360.27 1109.85 L2360.27 1114.78 Q2357.91 1112.58 2355.22 1111.49 Q2352.56 1110.4 2349.55 1110.4 Q2343.63 1110.4 2340.48 1114.04 Q2337.33 1117.65 2337.33 1124.5 Q2337.33 1131.33 2340.48 1134.96 Q2343.63 1138.58 2349.55 1138.58 Q2352.56 1138.58 2355.22 1137.49 Q2357.91 1136.4 2360.27 1134.2 L2360.27 1139.08 Q2357.82 1140.75 2355.06 1141.58 Q2352.33 1142.42 2349.27 1142.42 Q2341.43 1142.42 2336.91 1137.63 Q2332.4 1132.81 2332.4 1124.5 Q2332.4 1116.17 2336.91 1111.38 Q2341.43 1106.56 2349.27 1106.56 Q2352.38 1106.56 2355.11 1107.4 Q2357.86 1108.21 2360.27 1109.85 Z" fill="#000000" fill-rule="evenodd" fill-opacity="1" /><path clip-path="url(#clip730)" d="M2366.87 1131.52 L2366.87 1115.82 L2371.13 1115.82 L2371.13 1131.35 Q2371.13 1135.03 2372.56 1136.89 Q2374 1138.71 2376.87 1138.71 Q2380.32 1138.71 2382.31 1136.52 Q2384.32 1134.32 2384.32 1130.52 L2384.32 1115.82 L2388.58 1115.82 L2388.58 1141.75 L2384.32 1141.75 L2384.32 1137.77 Q2382.77 1140.13 2380.71 1141.28 Q2378.67 1142.42 2375.96 1142.42 Q2371.5 1142.42 2369.18 1139.64 Q2366.87 1136.86 2366.87 1131.52 M2377.58 1115.2 L2377.58 1115.2 Z" fill="#000000" fill-rule="evenodd" fill-opacity="1" /><path clip-path="url(#clip730)" d="M2412.38 1119.8 Q2411.66 1119.39 2410.8 1119.2 Q2409.97 1118.99 2408.95 1118.99 Q2405.34 1118.99 2403.39 1121.35 Q2401.47 1123.69 2401.47 1128.09 L2401.47 1141.75 L2397.19 1141.75 L2397.19 1115.82 L2401.47 1115.82 L2401.47 1119.85 Q2402.82 1117.49 2404.97 1116.35 Q2407.12 1115.2 2410.2 1115.2 Q2410.64 1115.2 2411.17 1115.27 Q2411.7 1115.31 2412.35 1115.43 L2412.38 1119.8 Z" fill="#000000" fill-rule="evenodd" fill-opacity="1" /><path clip-path="url(#clip730)" d="M2431.03 1119.8 Q2430.31 1119.39 2429.46 1119.2 Q2428.63 1118.99 2427.61 1118.99 Q2424 1118.99 2422.05 1121.35 Q2420.13 1123.69 2420.13 1128.09 L2420.13 1141.75 L2415.85 1141.75 L2415.85 1115.82 L2420.13 1115.82 L2420.13 1119.85 Q2421.47 1117.49 2423.63 1116.35 Q2425.78 1115.2 2428.86 1115.2 Q2429.3 1115.2 2429.83 1115.27 Q2430.36 1115.31 2431.01 1115.43 L2431.03 1119.8 Z" fill="#000000" fill-rule="evenodd" fill-opacity="1" /><path clip-path="url(#clip730)" d="M2456.63 1127.72 L2456.63 1129.8 L2437.05 1129.8 Q2437.33 1134.2 2439.69 1136.52 Q2442.07 1138.81 2446.31 1138.81 Q2448.76 1138.81 2451.06 1138.21 Q2453.37 1137.6 2455.64 1136.4 L2455.64 1140.43 Q2453.35 1141.4 2450.94 1141.91 Q2448.53 1142.42 2446.06 1142.42 Q2439.85 1142.42 2436.22 1138.81 Q2432.61 1135.2 2432.61 1129.04 Q2432.61 1122.67 2436.03 1118.95 Q2439.48 1115.2 2445.31 1115.2 Q2450.55 1115.2 2453.58 1118.58 Q2456.63 1121.93 2456.63 1127.72 M2452.38 1126.47 Q2452.33 1122.97 2450.41 1120.89 Q2448.51 1118.81 2445.36 1118.81 Q2441.8 1118.81 2439.64 1120.82 Q2437.51 1122.83 2437.19 1126.49 L2452.38 1126.47 Z" fill="#000000" fill-rule="evenodd" fill-opacity="1" /><path clip-path="url(#clip730)" d="M2485.18 1126.1 L2485.18 1141.75 L2480.92 1141.75 L2480.92 1126.24 Q2480.92 1122.56 2479.48 1120.73 Q2478.05 1118.9 2475.18 1118.9 Q2471.73 1118.9 2469.74 1121.1 Q2467.75 1123.3 2467.75 1127.09 L2467.75 1141.75 L2463.46 1141.75 L2463.46 1115.82 L2467.75 1115.82 L2467.75 1119.85 Q2469.27 1117.51 2471.33 1116.35 Q2473.42 1115.2 2476.12 1115.2 Q2480.59 1115.2 2482.88 1117.97 Q2485.18 1120.73 2485.18 1126.1 Z" fill="#000000" fill-rule="evenodd" fill-opacity="1" /><path clip-path="url(#clip730)" d="M2497.88 1108.46 L2497.88 1115.82 L2506.66 1115.82 L2506.66 1119.13 L2497.88 1119.13 L2497.88 1133.21 Q2497.88 1136.38 2498.74 1137.28 Q2499.62 1138.18 2502.28 1138.18 L2506.66 1138.18 L2506.66 1141.75 L2502.28 1141.75 Q2497.35 1141.75 2495.48 1139.92 Q2493.6 1138.07 2493.6 1133.21 L2493.6 1119.13 L2490.48 1119.13 L2490.48 1115.82 L2493.6 1115.82 L2493.6 1108.46 L2497.88 1108.46 Z" fill="#000000" fill-rule="evenodd" fill-opacity="1" /></svg>
