<?xml version="1.0" encoding="utf-8"?>
<svg xmlns="http://www.w3.org/2000/svg" xmlns:xlink="http://www.w3.org/1999/xlink" width="672" height="480" viewBox="0 0 2688 1920">
<defs>
  <clipPath id="clip930">
    <rect x="0" y="0" width="2688" height="1920"/>
  </clipPath>
</defs>
<path clip-path="url(#clip930)" d="
M0 1920 L2688 1920 L2688 0 L0 0  Z
  " fill="#ffffff" fill-rule="evenodd" fill-opacity="1"/>
<defs>
  <clipPath id="clip931">
    <rect x="537" y="0" width="1883" height="1883"/>
  </clipPath>
</defs>
<path clip-path="url(#clip930)" d="
M189.154 1800.78 L2640.76 1800.78 L2640.76 127.792 L189.154 127.792  Z
  " fill="#ffffff" fill-rule="evenodd" fill-opacity="1"/>
<defs>
  <clipPath id="clip932">
    <rect x="189" y="127" width="2453" height="1674"/>
  </clipPath>
</defs>
<polyline clip-path="url(#clip932)" style="stroke:#000000; stroke-linecap:round; stroke-linejoin:round; stroke-width:2; stroke-opacity:0.1; fill:none" points="
  258.539,1800.78 258.539,127.792 
  "/>
<polyline clip-path="url(#clip932)" style="stroke:#000000; stroke-linecap:round; stroke-linejoin:round; stroke-width:2; stroke-opacity:0.1; fill:none" points="
  836.747,1800.78 836.747,127.792 
  "/>
<polyline clip-path="url(#clip932)" style="stroke:#000000; stroke-linecap:round; stroke-linejoin:round; stroke-width:2; stroke-opacity:0.1; fill:none" points="
  1414.95,1800.78 1414.95,127.792 
  "/>
<polyline clip-path="url(#clip932)" style="stroke:#000000; stroke-linecap:round; stroke-linejoin:round; stroke-width:2; stroke-opacity:0.1; fill:none" points="
  1993.16,1800.78 1993.16,127.792 
  "/>
<polyline clip-path="url(#clip932)" style="stroke:#000000; stroke-linecap:round; stroke-linejoin:round; stroke-width:2; stroke-opacity:0.1; fill:none" points="
  2571.37,1800.78 2571.37,127.792 
  "/>
<polyline clip-path="url(#clip930)" style="stroke:#000000; stroke-linecap:round; stroke-linejoin:round; stroke-width:4; stroke-opacity:1; fill:none" points="
  189.154,1800.78 2640.76,1800.78 
  "/>
<polyline clip-path="url(#clip930)" style="stroke:#000000; stroke-linecap:round; stroke-linejoin:round; stroke-width:4; stroke-opacity:1; fill:none" points="
  258.539,1800.78 258.539,1781.88 
  "/>
<polyline clip-path="url(#clip930)" style="stroke:#000000; stroke-linecap:round; stroke-linejoin:round; stroke-width:4; stroke-opacity:1; fill:none" points="
  836.747,1800.78 836.747,1781.88 
  "/>
<polyline clip-path="url(#clip930)" style="stroke:#000000; stroke-linecap:round; stroke-linejoin:round; stroke-width:4; stroke-opacity:1; fill:none" points="
  1414.95,1800.78 1414.95,1781.88 
  "/>
<polyline clip-path="url(#clip930)" style="stroke:#000000; stroke-linecap:round; stroke-linejoin:round; stroke-width:4; stroke-opacity:1; fill:none" points="
  1993.16,1800.78 1993.16,1781.88 
  "/>
<polyline clip-path="url(#clip930)" style="stroke:#000000; stroke-linecap:round; stroke-linejoin:round; stroke-width:4; stroke-opacity:1; fill:none" points="
  2571.37,1800.78 2571.37,1781.88 
  "/>
<path clip-path="url(#clip930)" d="M220.842 1834 Q217.231 1834 215.403 1837.57 Q213.597 1841.11 213.597 1848.24 Q213.597 1855.34 215.403 1858.91 Q217.231 1862.45 220.842 1862.45 Q224.477 1862.45 226.282 1858.91 Q228.111 1855.34 228.111 1848.24 Q228.111 1841.11 226.282 1837.57 Q224.477 1834 220.842 1834 M220.842 1830.3 Q226.653 1830.3 229.708 1834.9 Q232.787 1839.49 232.787 1848.24 Q232.787 1856.96 229.708 1861.57 Q226.653 1866.15 220.842 1866.15 Q215.032 1866.15 211.954 1861.57 Q208.898 1856.96 208.898 1848.24 Q208.898 1839.49 211.954 1834.9 Q215.032 1830.3 220.842 1830.3 Z" fill="#000000" fill-rule="evenodd" fill-opacity="1" /><path clip-path="url(#clip930)" d="M241.004 1859.6 L245.889 1859.6 L245.889 1865.48 L241.004 1865.48 L241.004 1859.6 Z" fill="#000000" fill-rule="evenodd" fill-opacity="1" /><path clip-path="url(#clip930)" d="M266.074 1834 Q262.463 1834 260.634 1837.57 Q258.828 1841.11 258.828 1848.24 Q258.828 1855.34 260.634 1858.91 Q262.463 1862.45 266.074 1862.45 Q269.708 1862.45 271.513 1858.91 Q273.342 1855.34 273.342 1848.24 Q273.342 1841.11 271.513 1837.57 Q269.708 1834 266.074 1834 M266.074 1830.3 Q271.884 1830.3 274.939 1834.9 Q278.018 1839.49 278.018 1848.24 Q278.018 1856.96 274.939 1861.57 Q271.884 1866.15 266.074 1866.15 Q260.263 1866.15 257.185 1861.57 Q254.129 1856.96 254.129 1848.24 Q254.129 1839.49 257.185 1834.9 Q260.263 1830.3 266.074 1830.3 Z" fill="#000000" fill-rule="evenodd" fill-opacity="1" /><path clip-path="url(#clip930)" d="M296.236 1834 Q292.624 1834 290.796 1837.57 Q288.99 1841.11 288.99 1848.24 Q288.99 1855.34 290.796 1858.91 Q292.624 1862.45 296.236 1862.45 Q299.87 1862.45 301.675 1858.91 Q303.504 1855.34 303.504 1848.24 Q303.504 1841.11 301.675 1837.57 Q299.87 1834 296.236 1834 M296.236 1830.3 Q302.046 1830.3 305.101 1834.9 Q308.18 1839.49 308.18 1848.24 Q308.18 1856.96 305.101 1861.57 Q302.046 1866.15 296.236 1866.15 Q290.425 1866.15 287.347 1861.57 Q284.291 1856.96 284.291 1848.24 Q284.291 1839.49 287.347 1834.9 Q290.425 1830.3 296.236 1830.3 Z" fill="#000000" fill-rule="evenodd" fill-opacity="1" /><path clip-path="url(#clip930)" d="M799.548 1834 Q795.937 1834 794.108 1837.57 Q792.303 1841.11 792.303 1848.24 Q792.303 1855.34 794.108 1858.91 Q795.937 1862.45 799.548 1862.45 Q803.182 1862.45 804.988 1858.91 Q806.817 1855.34 806.817 1848.24 Q806.817 1841.11 804.988 1837.57 Q803.182 1834 799.548 1834 M799.548 1830.3 Q805.358 1830.3 808.414 1834.9 Q811.492 1839.49 811.492 1848.24 Q811.492 1856.96 808.414 1861.57 Q805.358 1866.15 799.548 1866.15 Q793.738 1866.15 790.659 1861.57 Q787.604 1856.96 787.604 1848.24 Q787.604 1839.49 790.659 1834.9 Q793.738 1830.3 799.548 1830.3 Z" fill="#000000" fill-rule="evenodd" fill-opacity="1" /><path clip-path="url(#clip930)" d="M819.71 1859.6 L824.594 1859.6 L824.594 1865.48 L819.71 1865.48 L819.71 1859.6 Z" fill="#000000" fill-rule="evenodd" fill-opacity="1" /><path clip-path="url(#clip930)" d="M838.807 1861.55 L855.126 1861.55 L855.126 1865.48 L833.182 1865.48 L833.182 1861.55 Q835.844 1858.79 840.427 1854.16 Q845.034 1849.51 846.214 1848.17 Q848.46 1845.65 849.339 1843.91 Q850.242 1842.15 850.242 1840.46 Q850.242 1837.71 848.298 1835.97 Q846.377 1834.23 843.275 1834.23 Q841.076 1834.23 838.622 1835 Q836.191 1835.76 833.414 1837.31 L833.414 1832.59 Q836.238 1831.46 838.691 1830.88 Q841.145 1830.3 843.182 1830.3 Q848.552 1830.3 851.747 1832.98 Q854.941 1835.67 854.941 1840.16 Q854.941 1842.29 854.131 1844.21 Q853.344 1846.11 851.238 1848.7 Q850.659 1849.37 847.557 1852.59 Q844.455 1855.78 838.807 1861.55 Z" fill="#000000" fill-rule="evenodd" fill-opacity="1" /><path clip-path="url(#clip930)" d="M864.988 1830.92 L883.344 1830.92 L883.344 1834.86 L869.27 1834.86 L869.27 1843.33 Q870.288 1842.98 871.307 1842.82 Q872.325 1842.64 873.344 1842.64 Q879.131 1842.64 882.511 1845.81 Q885.89 1848.98 885.89 1854.4 Q885.89 1859.97 882.418 1863.08 Q878.946 1866.15 872.626 1866.15 Q870.45 1866.15 868.182 1865.78 Q865.937 1865.41 863.529 1864.67 L863.529 1859.97 Q865.613 1861.11 867.835 1861.66 Q870.057 1862.22 872.534 1862.22 Q876.538 1862.22 878.876 1860.11 Q881.214 1858.01 881.214 1854.4 Q881.214 1850.78 878.876 1848.68 Q876.538 1846.57 872.534 1846.57 Q870.659 1846.57 868.784 1846.99 Q866.932 1847.4 864.988 1848.28 L864.988 1830.92 Z" fill="#000000" fill-rule="evenodd" fill-opacity="1" /><path clip-path="url(#clip930)" d="M1377.26 1834 Q1373.65 1834 1371.82 1837.57 Q1370.01 1841.11 1370.01 1848.24 Q1370.01 1855.34 1371.82 1858.91 Q1373.65 1862.45 1377.26 1862.45 Q1380.89 1862.45 1382.7 1858.91 Q1384.53 1855.34 1384.53 1848.24 Q1384.53 1841.11 1382.7 1837.57 Q1380.89 1834 1377.26 1834 M1377.26 1830.3 Q1383.07 1830.3 1386.12 1834.9 Q1389.2 1839.49 1389.2 1848.24 Q1389.2 1856.96 1386.12 1861.57 Q1383.07 1866.15 1377.26 1866.15 Q1371.45 1866.15 1368.37 1861.57 Q1365.31 1856.96 1365.31 1848.24 Q1365.31 1839.49 1368.37 1834.9 Q1371.45 1830.3 1377.26 1830.3 Z" fill="#000000" fill-rule="evenodd" fill-opacity="1" /><path clip-path="url(#clip930)" d="M1397.42 1859.6 L1402.3 1859.6 L1402.3 1865.48 L1397.42 1865.48 L1397.42 1859.6 Z" fill="#000000" fill-rule="evenodd" fill-opacity="1" /><path clip-path="url(#clip930)" d="M1412.54 1830.92 L1430.89 1830.92 L1430.89 1834.86 L1416.82 1834.86 L1416.82 1843.33 Q1417.84 1842.98 1418.86 1842.82 Q1419.87 1842.64 1420.89 1842.64 Q1426.68 1842.64 1430.06 1845.81 Q1433.44 1848.98 1433.44 1854.4 Q1433.44 1859.97 1429.97 1863.08 Q1426.49 1866.15 1420.17 1866.15 Q1418 1866.15 1415.73 1865.78 Q1413.49 1865.41 1411.08 1864.67 L1411.08 1859.97 Q1413.16 1861.11 1415.38 1861.66 Q1417.61 1862.22 1420.08 1862.22 Q1424.09 1862.22 1426.42 1860.11 Q1428.76 1858.01 1428.76 1854.4 Q1428.76 1850.78 1426.42 1848.68 Q1424.09 1846.57 1420.08 1846.57 Q1418.21 1846.57 1416.33 1846.99 Q1414.48 1847.4 1412.54 1848.28 L1412.54 1830.92 Z" fill="#000000" fill-rule="evenodd" fill-opacity="1" /><path clip-path="url(#clip930)" d="M1452.65 1834 Q1449.04 1834 1447.21 1837.57 Q1445.41 1841.11 1445.41 1848.24 Q1445.41 1855.34 1447.21 1858.91 Q1449.04 1862.45 1452.65 1862.45 Q1456.29 1862.45 1458.09 1858.91 Q1459.92 1855.34 1459.92 1848.24 Q1459.92 1841.11 1458.09 1837.57 Q1456.29 1834 1452.65 1834 M1452.65 1830.3 Q1458.46 1830.3 1461.52 1834.9 Q1464.6 1839.49 1464.6 1848.24 Q1464.6 1856.96 1461.52 1861.57 Q1458.46 1866.15 1452.65 1866.15 Q1446.84 1866.15 1443.76 1861.57 Q1440.71 1856.96 1440.71 1848.24 Q1440.71 1839.49 1443.76 1834.9 Q1446.84 1830.3 1452.65 1830.3 Z" fill="#000000" fill-rule="evenodd" fill-opacity="1" /><path clip-path="url(#clip930)" d="M1955.96 1834 Q1952.35 1834 1950.52 1837.57 Q1948.72 1841.11 1948.72 1848.24 Q1948.72 1855.34 1950.52 1858.91 Q1952.35 1862.45 1955.96 1862.45 Q1959.6 1862.45 1961.4 1858.91 Q1963.23 1855.34 1963.23 1848.24 Q1963.23 1841.11 1961.4 1837.57 Q1959.6 1834 1955.96 1834 M1955.96 1830.3 Q1961.77 1830.3 1964.83 1834.9 Q1967.91 1839.49 1967.91 1848.24 Q1967.91 1856.96 1964.83 1861.57 Q1961.77 1866.15 1955.96 1866.15 Q1950.15 1866.15 1947.08 1861.57 Q1944.02 1856.96 1944.02 1848.24 Q1944.02 1839.49 1947.08 1834.9 Q1950.15 1830.3 1955.96 1830.3 Z" fill="#000000" fill-rule="evenodd" fill-opacity="1" /><path clip-path="url(#clip930)" d="M1976.13 1859.6 L1981.01 1859.6 L1981.01 1865.48 L1976.13 1865.48 L1976.13 1859.6 Z" fill="#000000" fill-rule="evenodd" fill-opacity="1" /><path clip-path="url(#clip930)" d="M1990.01 1830.92 L2012.24 1830.92 L2012.24 1832.91 L1999.69 1865.48 L1994.81 1865.48 L2006.61 1834.86 L1990.01 1834.86 L1990.01 1830.92 Z" fill="#000000" fill-rule="evenodd" fill-opacity="1" /><path clip-path="url(#clip930)" d="M2021.4 1830.92 L2039.76 1830.92 L2039.76 1834.86 L2025.69 1834.86 L2025.69 1843.33 Q2026.7 1842.98 2027.72 1842.82 Q2028.74 1842.64 2029.76 1842.64 Q2035.55 1842.64 2038.93 1845.81 Q2042.31 1848.98 2042.31 1854.4 Q2042.31 1859.97 2038.83 1863.08 Q2035.36 1866.15 2029.04 1866.15 Q2026.87 1866.15 2024.6 1865.78 Q2022.35 1865.41 2019.95 1864.67 L2019.95 1859.97 Q2022.03 1861.11 2024.25 1861.66 Q2026.47 1862.22 2028.95 1862.22 Q2032.95 1862.22 2035.29 1860.11 Q2037.63 1858.01 2037.63 1854.4 Q2037.63 1850.78 2035.29 1848.68 Q2032.95 1846.57 2028.95 1846.57 Q2027.07 1846.57 2025.2 1846.99 Q2023.35 1847.4 2021.4 1848.28 L2021.4 1830.92 Z" fill="#000000" fill-rule="evenodd" fill-opacity="1" /><path clip-path="url(#clip930)" d="M2523.44 1861.55 L2531.08 1861.55 L2531.08 1835.18 L2522.77 1836.85 L2522.77 1832.59 L2531.04 1830.92 L2535.71 1830.92 L2535.71 1861.55 L2543.35 1861.55 L2543.35 1865.48 L2523.44 1865.48 L2523.44 1861.55 Z" fill="#000000" fill-rule="evenodd" fill-opacity="1" /><path clip-path="url(#clip930)" d="M2552.79 1859.6 L2557.68 1859.6 L2557.68 1865.48 L2552.79 1865.48 L2552.79 1859.6 Z" fill="#000000" fill-rule="evenodd" fill-opacity="1" /><path clip-path="url(#clip930)" d="M2577.86 1834 Q2574.25 1834 2572.42 1837.57 Q2570.62 1841.11 2570.62 1848.24 Q2570.62 1855.34 2572.42 1858.91 Q2574.25 1862.45 2577.86 1862.45 Q2581.5 1862.45 2583.3 1858.91 Q2585.13 1855.34 2585.13 1848.24 Q2585.13 1841.11 2583.3 1837.57 Q2581.5 1834 2577.86 1834 M2577.86 1830.3 Q2583.67 1830.3 2586.73 1834.9 Q2589.81 1839.49 2589.81 1848.24 Q2589.81 1856.96 2586.73 1861.57 Q2583.67 1866.15 2577.86 1866.15 Q2572.05 1866.15 2568.98 1861.57 Q2565.92 1856.96 2565.92 1848.24 Q2565.92 1839.49 2568.98 1834.9 Q2572.05 1830.3 2577.86 1830.3 Z" fill="#000000" fill-rule="evenodd" fill-opacity="1" /><path clip-path="url(#clip930)" d="M2608.03 1834 Q2604.41 1834 2602.59 1837.57 Q2600.78 1841.11 2600.78 1848.24 Q2600.78 1855.34 2602.59 1858.91 Q2604.41 1862.45 2608.03 1862.45 Q2611.66 1862.45 2613.47 1858.91 Q2615.29 1855.34 2615.29 1848.24 Q2615.29 1841.11 2613.47 1837.57 Q2611.66 1834 2608.03 1834 M2608.03 1830.3 Q2613.84 1830.3 2616.89 1834.9 Q2619.97 1839.49 2619.97 1848.24 Q2619.97 1856.96 2616.89 1861.57 Q2613.84 1866.15 2608.03 1866.15 Q2602.22 1866.15 2599.14 1861.57 Q2596.08 1856.96 2596.08 1848.24 Q2596.08 1839.49 2599.14 1834.9 Q2602.22 1830.3 2608.03 1830.3 Z" fill="#000000" fill-rule="evenodd" fill-opacity="1" /><polyline clip-path="url(#clip932)" style="stroke:#000000; stroke-linecap:round; stroke-linejoin:round; stroke-width:2; stroke-opacity:0.1; fill:none" points="
  189.154,1753.43 2640.76,1753.43 
  "/>
<polyline clip-path="url(#clip932)" style="stroke:#000000; stroke-linecap:round; stroke-linejoin:round; stroke-width:2; stroke-opacity:0.1; fill:none" points="
  189.154,1358.86 2640.76,1358.86 
  "/>
<polyline clip-path="url(#clip932)" style="stroke:#000000; stroke-linecap:round; stroke-linejoin:round; stroke-width:2; stroke-opacity:0.1; fill:none" points="
  189.154,964.286 2640.76,964.286 
  "/>
<polyline clip-path="url(#clip932)" style="stroke:#000000; stroke-linecap:round; stroke-linejoin:round; stroke-width:2; stroke-opacity:0.1; fill:none" points="
  189.154,569.713 2640.76,569.713 
  "/>
<polyline clip-path="url(#clip932)" style="stroke:#000000; stroke-linecap:round; stroke-linejoin:round; stroke-width:2; stroke-opacity:0.1; fill:none" points="
  189.154,175.141 2640.76,175.141 
  "/>
<polyline clip-path="url(#clip930)" style="stroke:#000000; stroke-linecap:round; stroke-linejoin:round; stroke-width:4; stroke-opacity:1; fill:none" points="
  189.154,1800.78 189.154,127.792 
  "/>
<polyline clip-path="url(#clip930)" style="stroke:#000000; stroke-linecap:round; stroke-linejoin:round; stroke-width:4; stroke-opacity:1; fill:none" points="
  189.154,1753.43 208.052,1753.43 
  "/>
<polyline clip-path="url(#clip930)" style="stroke:#000000; stroke-linecap:round; stroke-linejoin:round; stroke-width:4; stroke-opacity:1; fill:none" points="
  189.154,1358.86 208.052,1358.86 
  "/>
<polyline clip-path="url(#clip930)" style="stroke:#000000; stroke-linecap:round; stroke-linejoin:round; stroke-width:4; stroke-opacity:1; fill:none" points="
  189.154,964.286 208.052,964.286 
  "/>
<polyline clip-path="url(#clip930)" style="stroke:#000000; stroke-linecap:round; stroke-linejoin:round; stroke-width:4; stroke-opacity:1; fill:none" points="
  189.154,569.713 208.052,569.713 
  "/>
<polyline clip-path="url(#clip930)" style="stroke:#000000; stroke-linecap:round; stroke-linejoin:round; stroke-width:4; stroke-opacity:1; fill:none" points="
  189.154,175.141 208.052,175.141 
  "/>
<path clip-path="url(#clip930)" d="M61.4965 1739.23 Q57.8854 1739.23 56.0567 1742.79 Q54.2512 1746.34 54.2512 1753.47 Q54.2512 1760.57 56.0567 1764.14 Q57.8854 1767.68 61.4965 1767.68 Q65.1307 1767.68 66.9363 1764.14 Q68.765 1760.57 68.765 1753.47 Q68.765 1746.34 66.9363 1742.79 Q65.1307 1739.23 61.4965 1739.23 M61.4965 1735.53 Q67.3067 1735.53 70.3622 1740.13 Q73.4409 1744.72 73.4409 1753.47 Q73.4409 1762.19 70.3622 1766.8 Q67.3067 1771.38 61.4965 1771.38 Q55.6864 1771.38 52.6077 1766.8 Q49.5521 1762.19 49.5521 1753.47 Q49.5521 1744.72 52.6077 1740.13 Q55.6864 1735.53 61.4965 1735.53 Z" fill="#000000" fill-rule="evenodd" fill-opacity="1" /><path clip-path="url(#clip930)" d="M81.6584 1764.83 L86.5427 1764.83 L86.5427 1770.71 L81.6584 1770.71 L81.6584 1764.83 Z" fill="#000000" fill-rule="evenodd" fill-opacity="1" /><path clip-path="url(#clip930)" d="M106.728 1739.23 Q103.117 1739.23 101.288 1742.79 Q99.4824 1746.34 99.4824 1753.47 Q99.4824 1760.57 101.288 1764.14 Q103.117 1767.68 106.728 1767.68 Q110.362 1767.68 112.168 1764.14 Q113.996 1760.57 113.996 1753.47 Q113.996 1746.34 112.168 1742.79 Q110.362 1739.23 106.728 1739.23 M106.728 1735.53 Q112.538 1735.53 115.593 1740.13 Q118.672 1744.72 118.672 1753.47 Q118.672 1762.19 115.593 1766.8 Q112.538 1771.38 106.728 1771.38 Q100.918 1771.38 97.8389 1766.8 Q94.7834 1762.19 94.7834 1753.47 Q94.7834 1744.72 97.8389 1740.13 Q100.918 1735.53 106.728 1735.53 Z" fill="#000000" fill-rule="evenodd" fill-opacity="1" /><path clip-path="url(#clip930)" d="M136.89 1739.23 Q133.279 1739.23 131.45 1742.79 Q129.644 1746.34 129.644 1753.47 Q129.644 1760.57 131.45 1764.14 Q133.279 1767.68 136.89 1767.68 Q140.524 1767.68 142.329 1764.14 Q144.158 1760.57 144.158 1753.47 Q144.158 1746.34 142.329 1742.79 Q140.524 1739.23 136.89 1739.23 M136.89 1735.53 Q142.7 1735.53 145.755 1740.13 Q148.834 1744.72 148.834 1753.47 Q148.834 1762.19 145.755 1766.8 Q142.7 1771.38 136.89 1771.38 Q131.079 1771.38 128.001 1766.8 Q124.945 1762.19 124.945 1753.47 Q124.945 1744.72 128.001 1740.13 Q131.079 1735.53 136.89 1735.53 Z" fill="#000000" fill-rule="evenodd" fill-opacity="1" /><path clip-path="url(#clip930)" d="M62.4919 1344.66 Q58.8808 1344.66 57.0521 1348.22 Q55.2465 1351.76 55.2465 1358.89 Q55.2465 1366 57.0521 1369.56 Q58.8808 1373.11 62.4919 1373.11 Q66.1261 1373.11 67.9317 1369.56 Q69.7604 1366 69.7604 1358.89 Q69.7604 1351.76 67.9317 1348.22 Q66.1261 1344.66 62.4919 1344.66 M62.4919 1340.95 Q68.302 1340.95 71.3576 1345.56 Q74.4363 1350.14 74.4363 1358.89 Q74.4363 1367.62 71.3576 1372.23 Q68.302 1376.81 62.4919 1376.81 Q56.6817 1376.81 53.603 1372.23 Q50.5475 1367.62 50.5475 1358.89 Q50.5475 1350.14 53.603 1345.56 Q56.6817 1340.95 62.4919 1340.95 Z" fill="#000000" fill-rule="evenodd" fill-opacity="1" /><path clip-path="url(#clip930)" d="M82.6538 1370.26 L87.538 1370.26 L87.538 1376.14 L82.6538 1376.14 L82.6538 1370.26 Z" fill="#000000" fill-rule="evenodd" fill-opacity="1" /><path clip-path="url(#clip930)" d="M101.751 1372.2 L118.07 1372.2 L118.07 1376.14 L96.126 1376.14 L96.126 1372.2 Q98.788 1369.45 103.371 1364.82 Q107.978 1360.17 109.158 1358.82 Q111.404 1356.3 112.283 1354.56 Q113.186 1352.8 113.186 1351.12 Q113.186 1348.36 111.242 1346.62 Q109.32 1344.89 106.218 1344.89 Q104.019 1344.89 101.566 1345.65 Q99.1352 1346.42 96.3574 1347.97 L96.3574 1343.24 Q99.1815 1342.11 101.635 1341.53 Q104.089 1340.95 106.126 1340.95 Q111.496 1340.95 114.691 1343.64 Q117.885 1346.32 117.885 1350.81 Q117.885 1352.94 117.075 1354.87 Q116.288 1356.76 114.181 1359.36 Q113.603 1360.03 110.501 1363.24 Q107.399 1366.44 101.751 1372.2 Z" fill="#000000" fill-rule="evenodd" fill-opacity="1" /><path clip-path="url(#clip930)" d="M127.931 1341.58 L146.288 1341.58 L146.288 1345.51 L132.214 1345.51 L132.214 1353.99 Q133.232 1353.64 134.251 1353.48 Q135.269 1353.29 136.288 1353.29 Q142.075 1353.29 145.454 1356.46 Q148.834 1359.63 148.834 1365.05 Q148.834 1370.63 145.362 1373.73 Q141.89 1376.81 135.57 1376.81 Q133.394 1376.81 131.126 1376.44 Q128.88 1376.07 126.473 1375.33 L126.473 1370.63 Q128.556 1371.76 130.779 1372.32 Q133.001 1372.87 135.478 1372.87 Q139.482 1372.87 141.82 1370.77 Q144.158 1368.66 144.158 1365.05 Q144.158 1361.44 141.82 1359.33 Q139.482 1357.23 135.478 1357.23 Q133.603 1357.23 131.728 1357.64 Q129.876 1358.06 127.931 1358.94 L127.931 1341.58 Z" fill="#000000" fill-rule="evenodd" fill-opacity="1" /><path clip-path="url(#clip930)" d="M61.4965 950.084 Q57.8854 950.084 56.0567 953.649 Q54.2512 957.191 54.2512 964.32 Q54.2512 971.427 56.0567 974.992 Q57.8854 978.533 61.4965 978.533 Q65.1307 978.533 66.9363 974.992 Q68.765 971.427 68.765 964.32 Q68.765 957.191 66.9363 953.649 Q65.1307 950.084 61.4965 950.084 M61.4965 946.381 Q67.3067 946.381 70.3622 950.987 Q73.4409 955.57 73.4409 964.32 Q73.4409 973.047 70.3622 977.654 Q67.3067 982.237 61.4965 982.237 Q55.6864 982.237 52.6077 977.654 Q49.5521 973.047 49.5521 964.32 Q49.5521 955.57 52.6077 950.987 Q55.6864 946.381 61.4965 946.381 Z" fill="#000000" fill-rule="evenodd" fill-opacity="1" /><path clip-path="url(#clip930)" d="M81.6584 975.686 L86.5427 975.686 L86.5427 981.566 L81.6584 981.566 L81.6584 975.686 Z" fill="#000000" fill-rule="evenodd" fill-opacity="1" /><path clip-path="url(#clip930)" d="M96.7741 947.006 L115.13 947.006 L115.13 950.941 L101.056 950.941 L101.056 959.413 Q102.075 959.066 103.094 958.904 Q104.112 958.719 105.131 958.719 Q110.918 958.719 114.297 961.89 Q117.677 965.061 117.677 970.478 Q117.677 976.056 114.205 979.158 Q110.732 982.237 104.413 982.237 Q102.237 982.237 99.9685 981.867 Q97.7232 981.496 95.3158 980.756 L95.3158 976.056 Q97.3991 977.191 99.6213 977.746 Q101.844 978.302 104.32 978.302 Q108.325 978.302 110.663 976.195 Q113.001 974.089 113.001 970.478 Q113.001 966.867 110.663 964.76 Q108.325 962.654 104.32 962.654 Q102.445 962.654 100.57 963.07 Q98.7185 963.487 96.7741 964.367 L96.7741 947.006 Z" fill="#000000" fill-rule="evenodd" fill-opacity="1" /><path clip-path="url(#clip930)" d="M136.89 950.084 Q133.279 950.084 131.45 953.649 Q129.644 957.191 129.644 964.32 Q129.644 971.427 131.45 974.992 Q133.279 978.533 136.89 978.533 Q140.524 978.533 142.329 974.992 Q144.158 971.427 144.158 964.32 Q144.158 957.191 142.329 953.649 Q140.524 950.084 136.89 950.084 M136.89 946.381 Q142.7 946.381 145.755 950.987 Q148.834 955.57 148.834 964.32 Q148.834 973.047 145.755 977.654 Q142.7 982.237 136.89 982.237 Q131.079 982.237 128.001 977.654 Q124.945 973.047 124.945 964.32 Q124.945 955.57 128.001 950.987 Q131.079 946.381 136.89 946.381 Z" fill="#000000" fill-rule="evenodd" fill-opacity="1" /><path clip-path="url(#clip930)" d="M62.4919 555.512 Q58.8808 555.512 57.0521 559.077 Q55.2465 562.618 55.2465 569.748 Q55.2465 576.854 57.0521 580.419 Q58.8808 583.961 62.4919 583.961 Q66.1261 583.961 67.9317 580.419 Q69.7604 576.854 69.7604 569.748 Q69.7604 562.618 67.9317 559.077 Q66.1261 555.512 62.4919 555.512 M62.4919 551.808 Q68.302 551.808 71.3576 556.415 Q74.4363 560.998 74.4363 569.748 Q74.4363 578.475 71.3576 583.081 Q68.302 587.665 62.4919 587.665 Q56.6817 587.665 53.603 583.081 Q50.5475 578.475 50.5475 569.748 Q50.5475 560.998 53.603 556.415 Q56.6817 551.808 62.4919 551.808 Z" fill="#000000" fill-rule="evenodd" fill-opacity="1" /><path clip-path="url(#clip930)" d="M82.6538 581.114 L87.538 581.114 L87.538 586.993 L82.6538 586.993 L82.6538 581.114 Z" fill="#000000" fill-rule="evenodd" fill-opacity="1" /><path clip-path="url(#clip930)" d="M96.5426 552.433 L118.765 552.433 L118.765 554.424 L106.218 586.993 L101.334 586.993 L113.14 556.368 L96.5426 556.368 L96.5426 552.433 Z" fill="#000000" fill-rule="evenodd" fill-opacity="1" /><path clip-path="url(#clip930)" d="M127.931 552.433 L146.288 552.433 L146.288 556.368 L132.214 556.368 L132.214 564.841 Q133.232 564.493 134.251 564.331 Q135.269 564.146 136.288 564.146 Q142.075 564.146 145.454 567.317 Q148.834 570.489 148.834 575.905 Q148.834 581.484 145.362 584.586 Q141.89 587.665 135.57 587.665 Q133.394 587.665 131.126 587.294 Q128.88 586.924 126.473 586.183 L126.473 581.484 Q128.556 582.618 130.779 583.174 Q133.001 583.729 135.478 583.729 Q139.482 583.729 141.82 581.623 Q144.158 579.516 144.158 575.905 Q144.158 572.294 141.82 570.188 Q139.482 568.081 135.478 568.081 Q133.603 568.081 131.728 568.498 Q129.876 568.915 127.931 569.794 L127.931 552.433 Z" fill="#000000" fill-rule="evenodd" fill-opacity="1" /><path clip-path="url(#clip930)" d="M52.3067 188.486 L59.9456 188.486 L59.9456 162.12 L51.6354 163.787 L51.6354 159.527 L59.8993 157.861 L64.5752 157.861 L64.5752 188.486 L72.214 188.486 L72.214 192.421 L52.3067 192.421 L52.3067 188.486 Z" fill="#000000" fill-rule="evenodd" fill-opacity="1" /><path clip-path="url(#clip930)" d="M81.6584 186.541 L86.5427 186.541 L86.5427 192.421 L81.6584 192.421 L81.6584 186.541 Z" fill="#000000" fill-rule="evenodd" fill-opacity="1" /><path clip-path="url(#clip930)" d="M106.728 160.94 Q103.117 160.94 101.288 164.504 Q99.4824 168.046 99.4824 175.176 Q99.4824 182.282 101.288 185.847 Q103.117 189.388 106.728 189.388 Q110.362 189.388 112.168 185.847 Q113.996 182.282 113.996 175.176 Q113.996 168.046 112.168 164.504 Q110.362 160.94 106.728 160.94 M106.728 157.236 Q112.538 157.236 115.593 161.842 Q118.672 166.426 118.672 175.176 Q118.672 183.902 115.593 188.509 Q112.538 193.092 106.728 193.092 Q100.918 193.092 97.8389 188.509 Q94.7834 183.902 94.7834 175.176 Q94.7834 166.426 97.8389 161.842 Q100.918 157.236 106.728 157.236 Z" fill="#000000" fill-rule="evenodd" fill-opacity="1" /><path clip-path="url(#clip930)" d="M136.89 160.94 Q133.279 160.94 131.45 164.504 Q129.644 168.046 129.644 175.176 Q129.644 182.282 131.45 185.847 Q133.279 189.388 136.89 189.388 Q140.524 189.388 142.329 185.847 Q144.158 182.282 144.158 175.176 Q144.158 168.046 142.329 164.504 Q140.524 160.94 136.89 160.94 M136.89 157.236 Q142.7 157.236 145.755 161.842 Q148.834 166.426 148.834 175.176 Q148.834 183.902 145.755 188.509 Q142.7 193.092 136.89 193.092 Q131.079 193.092 128.001 188.509 Q124.945 183.902 124.945 175.176 Q124.945 166.426 128.001 161.842 Q131.079 157.236 136.89 157.236 Z" fill="#000000" fill-rule="evenodd" fill-opacity="1" /><path clip-path="url(#clip930)" d="M754.617 12.096 L763.408 12.096 L778.436 34.5785 L793.546 12.096 L802.337 12.096 L782.892 41.141 L803.633 72.576 L794.843 72.576 L777.829 46.8528 L760.693 72.576 L751.862 72.576 L773.454 40.2903 L754.617 12.096 Z" fill="#000000" fill-rule="evenodd" fill-opacity="1" /><path clip-path="url(#clip930)" d="M833.61 17.6457 Q824.698 17.6457 819.432 24.2892 Q814.206 30.9327 814.206 42.3968 Q814.206 53.8203 819.432 60.4638 Q824.698 67.1073 833.61 67.1073 Q842.522 67.1073 847.707 60.4638 Q852.933 53.8203 852.933 42.3968 Q852.933 30.9327 847.707 24.2892 Q842.522 17.6457 833.61 17.6457 M833.61 11.0023 Q846.33 11.0023 853.945 19.5497 Q861.561 28.0566 861.561 42.3968 Q861.561 56.6965 853.945 65.2439 Q846.33 73.7508 833.61 73.7508 Q820.849 73.7508 813.193 65.2439 Q805.577 56.737 805.577 42.3968 Q805.577 28.0566 813.193 19.5497 Q820.849 11.0023 833.61 11.0023 Z" fill="#000000" fill-rule="evenodd" fill-opacity="1" /><path clip-path="url(#clip930)" d="M903.042 44.2197 Q905.675 45.1109 908.146 48.0275 Q910.658 50.9442 913.169 56.0483 L921.474 72.576 L912.683 72.576 L904.946 57.061 Q901.948 50.9847 899.113 48.9997 Q896.318 47.0148 891.457 47.0148 L882.545 47.0148 L882.545 72.576 L874.362 72.576 L874.362 12.096 L892.834 12.096 Q903.204 12.096 908.308 16.4305 Q913.413 20.7649 913.413 29.5149 Q913.413 35.2267 910.739 38.994 Q908.106 42.7613 903.042 44.2197 M882.545 18.8205 L882.545 40.2903 L892.834 40.2903 Q898.748 40.2903 901.746 37.5762 Q904.784 34.8216 904.784 29.5149 Q904.784 24.2082 901.746 21.5346 Q898.748 18.8205 892.834 18.8205 L882.545 18.8205 Z" fill="#000000" fill-rule="evenodd" fill-opacity="1" /><path clip-path="url(#clip930)" d="M931.034 62.2867 L939.581 62.2867 L939.581 72.576 L931.034 72.576 L931.034 62.2867 M931.034 29.6769 L939.581 29.6769 L939.581 39.9662 L931.034 39.9662 L931.034 29.6769 Z" fill="#000000" fill-rule="evenodd" fill-opacity="1" /><path clip-path="url(#clip930)" d="M983.777 12.096 L1018.53 12.096 L1018.53 18.9825 L991.96 18.9825 L991.96 36.8065 L1015.94 36.8065 L1015.94 43.6931 L991.96 43.6931 L991.96 72.576 L983.777 72.576 L983.777 12.096 Z" fill="#000000" fill-rule="evenodd" fill-opacity="1" /><path clip-path="url(#clip930)" d="M1044.18 49.7694 Q1035.14 49.7694 1031.66 51.8354 Q1028.17 53.9013 1028.17 58.8839 Q1028.17 62.8538 1030.77 65.2034 Q1033.4 67.5124 1037.9 67.5124 Q1044.09 67.5124 1047.82 63.1374 Q1051.59 58.7219 1051.59 51.4303 L1051.59 49.7694 L1044.18 49.7694 M1059.04 46.6907 L1059.04 72.576 L1051.59 72.576 L1051.59 65.6895 Q1049.04 69.8214 1045.23 71.8063 Q1041.42 73.7508 1035.91 73.7508 Q1028.94 73.7508 1024.81 69.8619 Q1020.72 65.9325 1020.72 59.3701 Q1020.72 51.7138 1025.83 47.825 Q1030.97 43.9361 1041.14 43.9361 L1051.59 43.9361 L1051.59 43.2069 Q1051.59 38.0623 1048.19 35.2672 Q1044.82 32.4315 1038.71 32.4315 Q1034.82 32.4315 1031.13 33.3632 Q1027.45 34.295 1024.04 36.1584 L1024.04 29.2718 Q1028.13 27.692 1031.98 26.9223 Q1035.83 26.1121 1039.48 26.1121 Q1049.32 26.1121 1054.18 31.2163 Q1059.04 36.3204 1059.04 46.6907 Z" fill="#000000" fill-rule="evenodd" fill-opacity="1" /><path clip-path="url(#clip930)" d="M1074.4 9.54393 L1081.85 9.54393 L1081.85 72.576 L1074.4 72.576 L1074.4 9.54393 Z" fill="#000000" fill-rule="evenodd" fill-opacity="1" /><path clip-path="url(#clip930)" d="M1126.37 28.5427 L1126.37 35.5912 Q1123.21 33.9709 1119.81 33.1607 Q1116.4 32.3505 1112.76 32.3505 Q1107.21 32.3505 1104.41 34.0519 Q1101.66 35.7533 1101.66 39.156 Q1101.66 41.7486 1103.64 43.2475 Q1105.63 44.7058 1111.62 46.0426 L1114.18 46.6097 Q1122.12 48.3111 1125.44 51.4303 Q1128.8 54.509 1128.8 60.0587 Q1128.8 66.3781 1123.78 70.0644 Q1118.79 73.7508 1110.04 73.7508 Q1106.4 73.7508 1102.43 73.0216 Q1098.5 72.3329 1094.12 70.9151 L1094.12 63.2184 Q1098.26 65.3654 1102.27 66.4591 Q1106.28 67.5124 1110.21 67.5124 Q1115.47 67.5124 1118.31 65.73 Q1121.14 63.9071 1121.14 60.6258 Q1121.14 57.5877 1119.08 55.9673 Q1117.05 54.3469 1110.12 52.8481 L1107.53 52.2405 Q1100.6 50.7821 1097.53 47.7845 Q1094.45 44.7463 1094.45 39.4801 Q1094.45 33.0797 1098.98 29.5959 Q1103.52 26.1121 1111.87 26.1121 Q1116 26.1121 1119.64 26.7198 Q1123.29 27.3274 1126.37 28.5427 Z" fill="#000000" fill-rule="evenodd" fill-opacity="1" /><path clip-path="url(#clip930)" d="M1179.48 48.0275 L1179.48 51.6733 L1145.21 51.6733 Q1145.69 59.3701 1149.82 63.421 Q1154 67.4314 1161.41 67.4314 Q1165.7 67.4314 1169.71 66.3781 Q1173.76 65.3249 1177.73 63.2184 L1177.73 70.267 Q1173.72 71.9684 1169.51 72.8596 Q1165.3 73.7508 1160.96 73.7508 Q1150.11 73.7508 1143.75 67.4314 Q1137.43 61.1119 1137.43 50.3365 Q1137.43 39.1965 1143.42 32.6746 Q1149.46 26.1121 1159.67 26.1121 Q1168.82 26.1121 1174.13 32.0264 Q1179.48 37.9003 1179.48 48.0275 M1172.02 45.84 Q1171.94 39.7232 1168.58 36.0774 Q1165.26 32.4315 1159.75 32.4315 Q1153.51 32.4315 1149.74 35.9558 Q1146.02 39.4801 1145.45 45.8805 L1172.02 45.84 Z" fill="#000000" fill-rule="evenodd" fill-opacity="1" /><path clip-path="url(#clip930)" d="M1235.99 9.62495 Q1230.56 18.942 1227.92 28.0566 Q1225.29 37.1711 1225.29 46.5287 Q1225.29 55.8863 1227.92 65.0818 Q1230.6 74.2369 1235.99 83.5134 L1229.5 83.5134 Q1223.43 73.9938 1220.39 64.7983 Q1217.39 55.6027 1217.39 46.5287 Q1217.39 37.4952 1220.39 28.3401 Q1223.39 19.1851 1229.5 9.62495 L1235.99 9.62495 Z" fill="#000000" fill-rule="evenodd" fill-opacity="1" /><path clip-path="url(#clip930)" d="M1258.95 43.6931 L1258.95 65.8515 L1272.08 65.8515 Q1278.68 65.8515 1281.84 63.1374 Q1285.04 60.3828 1285.04 54.752 Q1285.04 49.0808 1281.84 46.4072 Q1278.68 43.6931 1272.08 43.6931 L1258.95 43.6931 M1258.95 18.8205 L1258.95 37.0496 L1271.07 37.0496 Q1277.06 37.0496 1279.98 34.8216 Q1282.94 32.5531 1282.94 27.935 Q1282.94 23.3575 1279.98 21.089 Q1277.06 18.8205 1271.07 18.8205 L1258.95 18.8205 M1250.77 12.096 L1271.67 12.096 Q1281.03 12.096 1286.1 15.9849 Q1291.16 19.8737 1291.16 27.0438 Q1291.16 32.5936 1288.57 35.8748 Q1285.97 39.156 1280.95 39.9662 Q1286.99 41.2625 1290.31 45.3944 Q1293.67 49.4858 1293.67 55.6432 Q1293.67 63.745 1288.16 68.1605 Q1282.65 72.576 1272.48 72.576 L1250.77 72.576 L1250.77 12.096 Z" fill="#000000" fill-rule="evenodd" fill-opacity="1" /><path clip-path="url(#clip930)" d="M1307.36 9.54393 L1314.82 9.54393 L1314.82 72.576 L1307.36 72.576 L1307.36 9.54393 Z" fill="#000000" fill-rule="evenodd" fill-opacity="1" /><path clip-path="url(#clip930)" d="M1329.64 54.671 L1329.64 27.2059 L1337.1 27.2059 L1337.1 54.3874 Q1337.1 60.8284 1339.61 64.0691 Q1342.12 67.2693 1347.14 67.2693 Q1353.18 67.2693 1356.66 63.421 Q1360.19 59.5726 1360.19 52.9291 L1360.19 27.2059 L1367.64 27.2059 L1367.64 72.576 L1360.19 72.576 L1360.19 65.6084 Q1357.47 69.7404 1353.87 71.7658 Q1350.3 73.7508 1345.56 73.7508 Q1337.74 73.7508 1333.69 68.8897 Q1329.64 64.0286 1329.64 54.671 M1348.4 26.1121 L1348.4 26.1121 Z" fill="#000000" fill-rule="evenodd" fill-opacity="1" /><path clip-path="url(#clip930)" d="M1421.8 48.0275 L1421.8 51.6733 L1387.53 51.6733 Q1388.02 59.3701 1392.15 63.421 Q1396.32 67.4314 1403.73 67.4314 Q1408.03 67.4314 1412.04 66.3781 Q1416.09 65.3249 1420.06 63.2184 L1420.06 70.267 Q1416.05 71.9684 1411.84 72.8596 Q1407.62 73.7508 1403.29 73.7508 Q1392.43 73.7508 1386.07 67.4314 Q1379.75 61.1119 1379.75 50.3365 Q1379.75 39.1965 1385.75 32.6746 Q1391.78 26.1121 1401.99 26.1121 Q1411.15 26.1121 1416.45 32.0264 Q1421.8 37.9003 1421.8 48.0275 M1414.35 45.84 Q1414.27 39.7232 1410.9 36.0774 Q1407.58 32.4315 1402.07 32.4315 Q1395.83 32.4315 1392.07 35.9558 Q1388.34 39.4801 1387.77 45.8805 L1414.35 45.84 Z" fill="#000000" fill-rule="evenodd" fill-opacity="1" /><path clip-path="url(#clip930)" d="M1432.86 9.62495 L1439.34 9.62495 Q1445.42 19.1851 1448.42 28.3401 Q1451.45 37.4952 1451.45 46.5287 Q1451.45 55.6027 1448.42 64.7983 Q1445.42 73.9938 1439.34 83.5134 L1432.86 83.5134 Q1438.25 74.2369 1440.88 65.0818 Q1443.55 55.8863 1443.55 46.5287 Q1443.55 37.1711 1440.88 28.0566 Q1438.25 18.942 1432.86 9.62495 Z" fill="#000000" fill-rule="evenodd" fill-opacity="1" /><path clip-path="url(#clip930)" d="M1468.31 62.2867 L1476.85 62.2867 L1476.85 69.2543 L1470.21 82.2172 L1464.98 82.2172 L1468.31 69.2543 L1468.31 62.2867 Z" fill="#000000" fill-rule="evenodd" fill-opacity="1" /><path clip-path="url(#clip930)" d="M1511.08 12.096 L1562.25 12.096 L1562.25 18.9825 L1540.78 18.9825 L1540.78 72.576 L1532.55 72.576 L1532.55 18.9825 L1511.08 18.9825 L1511.08 12.096 Z" fill="#000000" fill-rule="evenodd" fill-opacity="1" /><path clip-path="url(#clip930)" d="M1583.92 34.1734 Q1582.66 33.4443 1581.16 33.1202 Q1579.71 32.7556 1577.92 32.7556 Q1571.6 32.7556 1568.2 36.8875 Q1564.84 40.9789 1564.84 48.6757 L1564.84 72.576 L1557.34 72.576 L1557.34 27.2059 L1564.84 27.2059 L1564.84 34.2544 Q1567.19 30.1225 1570.96 28.1376 Q1574.72 26.1121 1580.11 26.1121 Q1580.88 26.1121 1581.81 26.2337 Q1582.74 26.3147 1583.88 26.5172 L1583.92 34.1734 Z" fill="#000000" fill-rule="evenodd" fill-opacity="1" /><path clip-path="url(#clip930)" d="M1590.97 54.671 L1590.97 27.2059 L1598.42 27.2059 L1598.42 54.3874 Q1598.42 60.8284 1600.93 64.0691 Q1603.44 67.2693 1608.47 67.2693 Q1614.5 67.2693 1617.99 63.421 Q1621.51 59.5726 1621.51 52.9291 L1621.51 27.2059 L1628.96 27.2059 L1628.96 72.576 L1621.51 72.576 L1621.51 65.6084 Q1618.8 69.7404 1615.19 71.7658 Q1611.63 73.7508 1606.89 73.7508 Q1599.07 73.7508 1595.02 68.8897 Q1590.97 64.0286 1590.97 54.671 M1609.72 26.1121 L1609.72 26.1121 Z" fill="#000000" fill-rule="evenodd" fill-opacity="1" /><path clip-path="url(#clip930)" d="M1683.12 48.0275 L1683.12 51.6733 L1648.85 51.6733 Q1649.34 59.3701 1653.47 63.421 Q1657.64 67.4314 1665.06 67.4314 Q1669.35 67.4314 1673.36 66.3781 Q1677.41 65.3249 1681.38 63.2184 L1681.38 70.267 Q1677.37 71.9684 1673.16 72.8596 Q1668.95 73.7508 1664.61 73.7508 Q1653.76 73.7508 1647.4 67.4314 Q1641.08 61.1119 1641.08 50.3365 Q1641.08 39.1965 1647.07 32.6746 Q1653.11 26.1121 1663.32 26.1121 Q1672.47 26.1121 1677.78 32.0264 Q1683.12 37.9003 1683.12 48.0275 M1675.67 45.84 Q1675.59 39.7232 1672.23 36.0774 Q1668.91 32.4315 1663.4 32.4315 Q1657.16 32.4315 1653.39 35.9558 Q1649.66 39.4801 1649.1 45.8805 L1675.67 45.84 Z" fill="#000000" fill-rule="evenodd" fill-opacity="1" /><path clip-path="url(#clip930)" d="M1739.63 9.62495 Q1734.21 18.942 1731.57 28.0566 Q1728.94 37.1711 1728.94 46.5287 Q1728.94 55.8863 1731.57 65.0818 Q1734.25 74.2369 1739.63 83.5134 L1733.15 83.5134 Q1727.08 73.9938 1724.04 64.7983 Q1721.04 55.6027 1721.04 46.5287 Q1721.04 37.4952 1724.04 28.3401 Q1727.04 19.1851 1733.15 9.62495 L1739.63 9.62495 Z" fill="#000000" fill-rule="evenodd" fill-opacity="1" /><path clip-path="url(#clip930)" d="M1778.97 17.6457 Q1770.06 17.6457 1764.79 24.2892 Q1759.57 30.9327 1759.57 42.3968 Q1759.57 53.8203 1764.79 60.4638 Q1770.06 67.1073 1778.97 67.1073 Q1787.88 67.1073 1793.07 60.4638 Q1798.29 53.8203 1798.29 42.3968 Q1798.29 30.9327 1793.07 24.2892 Q1787.88 17.6457 1778.97 17.6457 M1778.97 11.0023 Q1791.69 11.0023 1799.3 19.5497 Q1806.92 28.0566 1806.92 42.3968 Q1806.92 56.6965 1799.3 65.2439 Q1791.69 73.7508 1778.97 73.7508 Q1766.21 73.7508 1758.55 65.2439 Q1750.94 56.737 1750.94 42.3968 Q1750.94 28.0566 1758.55 19.5497 Q1766.21 11.0023 1778.97 11.0023 Z" fill="#000000" fill-rule="evenodd" fill-opacity="1" /><path clip-path="url(#clip930)" d="M1845.69 34.1734 Q1844.43 33.4443 1842.93 33.1202 Q1841.47 32.7556 1839.69 32.7556 Q1833.37 32.7556 1829.97 36.8875 Q1826.61 40.9789 1826.61 48.6757 L1826.61 72.576 L1819.11 72.576 L1819.11 27.2059 L1826.61 27.2059 L1826.61 34.2544 Q1828.96 30.1225 1832.72 28.1376 Q1836.49 26.1121 1841.88 26.1121 Q1842.65 26.1121 1843.58 26.2337 Q1844.51 26.3147 1845.65 26.5172 L1845.69 34.1734 Z" fill="#000000" fill-rule="evenodd" fill-opacity="1" /><path clip-path="url(#clip930)" d="M1874.12 49.7694 Q1865.09 49.7694 1861.61 51.8354 Q1858.12 53.9013 1858.12 58.8839 Q1858.12 62.8538 1860.72 65.2034 Q1863.35 67.5124 1867.85 67.5124 Q1874.04 67.5124 1877.77 63.1374 Q1881.54 58.7219 1881.54 51.4303 L1881.54 49.7694 L1874.12 49.7694 M1888.99 46.6907 L1888.99 72.576 L1881.54 72.576 L1881.54 65.6895 Q1878.99 69.8214 1875.18 71.8063 Q1871.37 73.7508 1865.86 73.7508 Q1858.89 73.7508 1854.76 69.8619 Q1850.67 65.9325 1850.67 59.3701 Q1850.67 51.7138 1855.77 47.825 Q1860.92 43.9361 1871.09 43.9361 L1881.54 43.9361 L1881.54 43.2069 Q1881.54 38.0623 1878.14 35.2672 Q1874.77 32.4315 1868.66 32.4315 Q1864.77 32.4315 1861.08 33.3632 Q1857.39 34.295 1853.99 36.1584 L1853.99 29.2718 Q1858.08 27.692 1861.93 26.9223 Q1865.78 26.1121 1869.43 26.1121 Q1879.27 26.1121 1884.13 31.2163 Q1888.99 36.3204 1888.99 46.6907 Z" fill="#000000" fill-rule="evenodd" fill-opacity="1" /><path clip-path="url(#clip930)" d="M1942.06 45.1919 L1942.06 72.576 L1934.6 72.576 L1934.6 45.4349 Q1934.6 38.994 1932.09 35.7938 Q1929.58 32.5936 1924.56 32.5936 Q1918.52 32.5936 1915.04 36.4419 Q1911.56 40.2903 1911.56 46.9338 L1911.56 72.576 L1904.06 72.576 L1904.06 27.2059 L1911.56 27.2059 L1911.56 34.2544 Q1914.23 30.163 1917.83 28.1376 Q1921.48 26.1121 1926.22 26.1121 Q1934.04 26.1121 1938.05 30.9732 Q1942.06 35.7938 1942.06 45.1919 Z" fill="#000000" fill-rule="evenodd" fill-opacity="1" /><path clip-path="url(#clip930)" d="M1986.78 49.3643 Q1986.78 41.2625 1983.42 36.8065 Q1980.1 32.3505 1974.06 32.3505 Q1968.07 32.3505 1964.7 36.8065 Q1961.38 41.2625 1961.38 49.3643 Q1961.38 57.4256 1964.7 61.8816 Q1968.07 66.3376 1974.06 66.3376 Q1980.1 66.3376 1983.42 61.8816 Q1986.78 57.4256 1986.78 49.3643 M1994.23 66.9452 Q1994.23 78.5308 1989.09 84.1616 Q1983.94 89.8329 1973.33 89.8329 Q1969.4 89.8329 1965.92 89.2252 Q1962.43 88.6581 1959.15 87.4428 L1959.15 80.1917 Q1962.43 81.9741 1965.63 82.8248 Q1968.84 83.6755 1972.16 83.6755 Q1979.49 83.6755 1983.13 79.8271 Q1986.78 76.0193 1986.78 68.282 L1986.78 64.5957 Q1984.47 68.6061 1980.87 70.5911 Q1977.26 72.576 1972.24 72.576 Q1963.89 72.576 1958.79 66.2161 Q1953.68 59.8562 1953.68 49.3643 Q1953.68 38.832 1958.79 32.472 Q1963.89 26.1121 1972.24 26.1121 Q1977.26 26.1121 1980.87 28.0971 Q1984.47 30.082 1986.78 34.0924 L1986.78 27.2059 L1994.23 27.2059 L1994.23 66.9452 Z" fill="#000000" fill-rule="evenodd" fill-opacity="1" /><path clip-path="url(#clip930)" d="M2048.39 48.0275 L2048.39 51.6733 L2014.12 51.6733 Q2014.61 59.3701 2018.74 63.421 Q2022.91 67.4314 2030.33 67.4314 Q2034.62 67.4314 2038.63 66.3781 Q2042.68 65.3249 2046.65 63.2184 L2046.65 70.267 Q2042.64 71.9684 2038.43 72.8596 Q2034.22 73.7508 2029.88 73.7508 Q2019.03 73.7508 2012.67 67.4314 Q2006.35 61.1119 2006.35 50.3365 Q2006.35 39.1965 2012.34 32.6746 Q2018.38 26.1121 2028.59 26.1121 Q2037.74 26.1121 2043.05 32.0264 Q2048.39 37.9003 2048.39 48.0275 M2040.94 45.84 Q2040.86 39.7232 2037.5 36.0774 Q2034.18 32.4315 2028.67 32.4315 Q2022.43 32.4315 2018.66 35.9558 Q2014.93 39.4801 2014.37 45.8805 L2040.94 45.84 Z" fill="#000000" fill-rule="evenodd" fill-opacity="1" /><path clip-path="url(#clip930)" d="M2059.45 9.62495 L2065.94 9.62495 Q2072.01 19.1851 2075.01 28.3401 Q2078.05 37.4952 2078.05 46.5287 Q2078.05 55.6027 2075.01 64.7983 Q2072.01 73.9938 2065.94 83.5134 L2059.45 83.5134 Q2064.84 74.2369 2067.47 65.0818 Q2070.15 55.8863 2070.15 46.5287 Q2070.15 37.1711 2067.47 28.0566 Q2064.84 18.942 2059.45 9.62495 Z" fill="#000000" fill-rule="evenodd" fill-opacity="1" /><circle clip-path="url(#clip932)" cx="258.539" cy="1753.43" r="108" fill="#0000ff" fill-rule="evenodd" fill-opacity="1" stroke="#000000" stroke-opacity="1" stroke-width="3.84"/>
<circle clip-path="url(#clip932)" cx="258.539" cy="175.141" r="108" fill="#ffa500" fill-rule="evenodd" fill-opacity="1" stroke="#000000" stroke-opacity="1" stroke-width="3.84"/>
<circle clip-path="url(#clip932)" cx="2571.37" cy="1753.43" r="108" fill="#ffa500" fill-rule="evenodd" fill-opacity="1" stroke="#000000" stroke-opacity="1" stroke-width="3.84"/>
<circle clip-path="url(#clip932)" cx="2571.37" cy="175.141" r="108" fill="#0000ff" fill-rule="evenodd" fill-opacity="1" stroke="#000000" stroke-opacity="1" stroke-width="3.84"/>
</svg>
