<?xml version="1.0" encoding="utf-8"?>
<svg xmlns="http://www.w3.org/2000/svg" xmlns:xlink="http://www.w3.org/1999/xlink" width="672" height="480" viewBox="0 0 2688 1920">
<defs>
  <clipPath id="clip690">
    <rect x="0" y="0" width="2688" height="1920"/>
  </clipPath>
</defs>
<path clip-path="url(#clip690)" d="
M0 1920 L2688 1920 L2688 0 L0 0  Z
  " fill="#ffffff" fill-rule="evenodd" fill-opacity="1"/>
<defs>
  <clipPath id="clip691">
    <rect x="537" y="0" width="1883" height="1883"/>
  </clipPath>
</defs>
<path clip-path="url(#clip690)" d="
M226.978 881.053 L2640.76 881.053 L2640.76 127.792 L226.978 127.792  Z
  " fill="#ffffff" fill-rule="evenodd" fill-opacity="1"/>
<defs>
  <clipPath id="clip692">
    <rect x="226" y="127" width="2415" height="754"/>
  </clipPath>
</defs>
<polyline clip-path="url(#clip692)" style="stroke:#000000; stroke-linecap:round; stroke-linejoin:round; stroke-width:2; stroke-opacity:0.1; fill:none" points="
  295.292,881.053 295.292,127.792 
  "/>
<polyline clip-path="url(#clip692)" style="stroke:#000000; stroke-linecap:round; stroke-linejoin:round; stroke-width:2; stroke-opacity:0.1; fill:none" points="
  864.58,881.053 864.58,127.792 
  "/>
<polyline clip-path="url(#clip692)" style="stroke:#000000; stroke-linecap:round; stroke-linejoin:round; stroke-width:2; stroke-opacity:0.1; fill:none" points="
  1433.87,881.053 1433.87,127.792 
  "/>
<polyline clip-path="url(#clip692)" style="stroke:#000000; stroke-linecap:round; stroke-linejoin:round; stroke-width:2; stroke-opacity:0.1; fill:none" points="
  2003.15,881.053 2003.15,127.792 
  "/>
<polyline clip-path="url(#clip692)" style="stroke:#000000; stroke-linecap:round; stroke-linejoin:round; stroke-width:2; stroke-opacity:0.1; fill:none" points="
  2572.44,881.053 2572.44,127.792 
  "/>
<polyline clip-path="url(#clip690)" style="stroke:#000000; stroke-linecap:round; stroke-linejoin:round; stroke-width:4; stroke-opacity:1; fill:none" points="
  226.978,881.053 2640.76,881.053 
  "/>
<polyline clip-path="url(#clip690)" style="stroke:#000000; stroke-linecap:round; stroke-linejoin:round; stroke-width:4; stroke-opacity:1; fill:none" points="
  295.292,881.053 295.292,862.156 
  "/>
<polyline clip-path="url(#clip690)" style="stroke:#000000; stroke-linecap:round; stroke-linejoin:round; stroke-width:4; stroke-opacity:1; fill:none" points="
  864.58,881.053 864.58,862.156 
  "/>
<polyline clip-path="url(#clip690)" style="stroke:#000000; stroke-linecap:round; stroke-linejoin:round; stroke-width:4; stroke-opacity:1; fill:none" points="
  1433.87,881.053 1433.87,862.156 
  "/>
<polyline clip-path="url(#clip690)" style="stroke:#000000; stroke-linecap:round; stroke-linejoin:round; stroke-width:4; stroke-opacity:1; fill:none" points="
  2003.15,881.053 2003.15,862.156 
  "/>
<polyline clip-path="url(#clip690)" style="stroke:#000000; stroke-linecap:round; stroke-linejoin:round; stroke-width:4; stroke-opacity:1; fill:none" points="
  2572.44,881.053 2572.44,862.156 
  "/>
<path clip-path="url(#clip690)" d="M257.596 914.276 Q253.985 914.276 252.156 917.841 Q250.35 921.382 250.35 928.512 Q250.35 935.618 252.156 939.183 Q253.985 942.725 257.596 942.725 Q261.23 942.725 263.036 939.183 Q264.864 935.618 264.864 928.512 Q264.864 921.382 263.036 917.841 Q261.23 914.276 257.596 914.276 M257.596 910.572 Q263.406 910.572 266.461 915.179 Q269.54 919.762 269.54 928.512 Q269.54 937.239 266.461 941.845 Q263.406 946.429 257.596 946.429 Q251.786 946.429 248.707 941.845 Q245.651 937.239 245.651 928.512 Q245.651 919.762 248.707 915.179 Q251.786 910.572 257.596 910.572 Z" fill="#000000" fill-rule="evenodd" fill-opacity="1" /><path clip-path="url(#clip690)" d="M277.758 939.878 L282.642 939.878 L282.642 945.757 L277.758 945.757 L277.758 939.878 Z" fill="#000000" fill-rule="evenodd" fill-opacity="1" /><path clip-path="url(#clip690)" d="M302.827 914.276 Q299.216 914.276 297.387 917.841 Q295.582 921.382 295.582 928.512 Q295.582 935.618 297.387 939.183 Q299.216 942.725 302.827 942.725 Q306.461 942.725 308.267 939.183 Q310.096 935.618 310.096 928.512 Q310.096 921.382 308.267 917.841 Q306.461 914.276 302.827 914.276 M302.827 910.572 Q308.637 910.572 311.693 915.179 Q314.771 919.762 314.771 928.512 Q314.771 937.239 311.693 941.845 Q308.637 946.429 302.827 946.429 Q297.017 946.429 293.938 941.845 Q290.883 937.239 290.883 928.512 Q290.883 919.762 293.938 915.179 Q297.017 910.572 302.827 910.572 Z" fill="#000000" fill-rule="evenodd" fill-opacity="1" /><path clip-path="url(#clip690)" d="M332.989 914.276 Q329.378 914.276 327.549 917.841 Q325.744 921.382 325.744 928.512 Q325.744 935.618 327.549 939.183 Q329.378 942.725 332.989 942.725 Q336.623 942.725 338.429 939.183 Q340.257 935.618 340.257 928.512 Q340.257 921.382 338.429 917.841 Q336.623 914.276 332.989 914.276 M332.989 910.572 Q338.799 910.572 341.855 915.179 Q344.933 919.762 344.933 928.512 Q344.933 937.239 341.855 941.845 Q338.799 946.429 332.989 946.429 Q327.179 946.429 324.1 941.845 Q321.045 937.239 321.045 928.512 Q321.045 919.762 324.1 915.179 Q327.179 910.572 332.989 910.572 Z" fill="#000000" fill-rule="evenodd" fill-opacity="1" /><path clip-path="url(#clip690)" d="M827.381 914.276 Q823.77 914.276 821.941 917.841 Q820.135 921.382 820.135 928.512 Q820.135 935.618 821.941 939.183 Q823.77 942.725 827.381 942.725 Q831.015 942.725 832.821 939.183 Q834.649 935.618 834.649 928.512 Q834.649 921.382 832.821 917.841 Q831.015 914.276 827.381 914.276 M827.381 910.572 Q833.191 910.572 836.246 915.179 Q839.325 919.762 839.325 928.512 Q839.325 937.239 836.246 941.845 Q833.191 946.429 827.381 946.429 Q821.571 946.429 818.492 941.845 Q815.436 937.239 815.436 928.512 Q815.436 919.762 818.492 915.179 Q821.571 910.572 827.381 910.572 Z" fill="#000000" fill-rule="evenodd" fill-opacity="1" /><path clip-path="url(#clip690)" d="M847.543 939.878 L852.427 939.878 L852.427 945.757 L847.543 945.757 L847.543 939.878 Z" fill="#000000" fill-rule="evenodd" fill-opacity="1" /><path clip-path="url(#clip690)" d="M866.64 941.822 L882.959 941.822 L882.959 945.757 L861.015 945.757 L861.015 941.822 Q863.677 939.068 868.26 934.438 Q872.867 929.785 874.047 928.443 Q876.293 925.919 877.172 924.183 Q878.075 922.424 878.075 920.734 Q878.075 917.98 876.13 916.244 Q874.209 914.507 871.107 914.507 Q868.908 914.507 866.455 915.271 Q864.024 916.035 861.246 917.586 L861.246 912.864 Q864.07 911.73 866.524 911.151 Q868.978 910.572 871.015 910.572 Q876.385 910.572 879.58 913.257 Q882.774 915.943 882.774 920.433 Q882.774 922.563 881.964 924.484 Q881.177 926.382 879.07 928.975 Q878.492 929.646 875.39 932.864 Q872.288 936.058 866.64 941.822 Z" fill="#000000" fill-rule="evenodd" fill-opacity="1" /><path clip-path="url(#clip690)" d="M892.82 911.197 L911.177 911.197 L911.177 915.132 L897.103 915.132 L897.103 923.605 Q898.121 923.257 899.14 923.095 Q900.158 922.91 901.177 922.91 Q906.964 922.91 910.343 926.081 Q913.723 929.253 913.723 934.669 Q913.723 940.248 910.251 943.35 Q906.778 946.429 900.459 946.429 Q898.283 946.429 896.015 946.058 Q893.769 945.688 891.362 944.947 L891.362 940.248 Q893.445 941.382 895.667 941.938 Q897.89 942.493 900.366 942.493 Q904.371 942.493 906.709 940.387 Q909.047 938.281 909.047 934.669 Q909.047 931.058 906.709 928.952 Q904.371 926.845 900.366 926.845 Q898.491 926.845 896.616 927.262 Q894.765 927.679 892.82 928.558 L892.82 911.197 Z" fill="#000000" fill-rule="evenodd" fill-opacity="1" /><path clip-path="url(#clip690)" d="M1396.17 914.276 Q1392.56 914.276 1390.73 917.841 Q1388.93 921.382 1388.93 928.512 Q1388.93 935.618 1390.73 939.183 Q1392.56 942.725 1396.17 942.725 Q1399.8 942.725 1401.61 939.183 Q1403.44 935.618 1403.44 928.512 Q1403.44 921.382 1401.61 917.841 Q1399.8 914.276 1396.17 914.276 M1396.17 910.572 Q1401.98 910.572 1405.04 915.179 Q1408.11 919.762 1408.11 928.512 Q1408.11 937.239 1405.04 941.845 Q1401.98 946.429 1396.17 946.429 Q1390.36 946.429 1387.28 941.845 Q1384.23 937.239 1384.23 928.512 Q1384.23 919.762 1387.28 915.179 Q1390.36 910.572 1396.17 910.572 Z" fill="#000000" fill-rule="evenodd" fill-opacity="1" /><path clip-path="url(#clip690)" d="M1416.33 939.878 L1421.22 939.878 L1421.22 945.757 L1416.33 945.757 L1416.33 939.878 Z" fill="#000000" fill-rule="evenodd" fill-opacity="1" /><path clip-path="url(#clip690)" d="M1431.45 911.197 L1449.8 911.197 L1449.8 915.132 L1435.73 915.132 L1435.73 923.605 Q1436.75 923.257 1437.77 923.095 Q1438.79 922.91 1439.8 922.91 Q1445.59 922.91 1448.97 926.081 Q1452.35 929.253 1452.35 934.669 Q1452.35 940.248 1448.88 943.35 Q1445.41 946.429 1439.09 946.429 Q1436.91 946.429 1434.64 946.058 Q1432.4 945.688 1429.99 944.947 L1429.99 940.248 Q1432.07 941.382 1434.3 941.938 Q1436.52 942.493 1438.99 942.493 Q1443 942.493 1445.34 940.387 Q1447.67 938.281 1447.67 934.669 Q1447.67 931.058 1445.34 928.952 Q1443 926.845 1438.99 926.845 Q1437.12 926.845 1435.24 927.262 Q1433.39 927.679 1431.45 928.558 L1431.45 911.197 Z" fill="#000000" fill-rule="evenodd" fill-opacity="1" /><path clip-path="url(#clip690)" d="M1471.56 914.276 Q1467.95 914.276 1466.12 917.841 Q1464.32 921.382 1464.32 928.512 Q1464.32 935.618 1466.12 939.183 Q1467.95 942.725 1471.56 942.725 Q1475.2 942.725 1477 939.183 Q1478.83 935.618 1478.83 928.512 Q1478.83 921.382 1477 917.841 Q1475.2 914.276 1471.56 914.276 M1471.56 910.572 Q1477.37 910.572 1480.43 915.179 Q1483.51 919.762 1483.51 928.512 Q1483.51 937.239 1480.43 941.845 Q1477.37 946.429 1471.56 946.429 Q1465.75 946.429 1462.67 941.845 Q1459.62 937.239 1459.62 928.512 Q1459.62 919.762 1462.67 915.179 Q1465.75 910.572 1471.56 910.572 Z" fill="#000000" fill-rule="evenodd" fill-opacity="1" /><path clip-path="url(#clip690)" d="M1965.96 914.276 Q1962.34 914.276 1960.52 917.841 Q1958.71 921.382 1958.71 928.512 Q1958.71 935.618 1960.52 939.183 Q1962.34 942.725 1965.96 942.725 Q1969.59 942.725 1971.4 939.183 Q1973.22 935.618 1973.22 928.512 Q1973.22 921.382 1971.4 917.841 Q1969.59 914.276 1965.96 914.276 M1965.96 910.572 Q1971.77 910.572 1974.82 915.179 Q1977.9 919.762 1977.9 928.512 Q1977.9 937.239 1974.82 941.845 Q1971.77 946.429 1965.96 946.429 Q1960.15 946.429 1957.07 941.845 Q1954.01 937.239 1954.01 928.512 Q1954.01 919.762 1957.07 915.179 Q1960.15 910.572 1965.96 910.572 Z" fill="#000000" fill-rule="evenodd" fill-opacity="1" /><path clip-path="url(#clip690)" d="M1986.12 939.878 L1991 939.878 L1991 945.757 L1986.12 945.757 L1986.12 939.878 Z" fill="#000000" fill-rule="evenodd" fill-opacity="1" /><path clip-path="url(#clip690)" d="M2000.01 911.197 L2022.23 911.197 L2022.23 913.188 L2009.68 945.757 L2004.8 945.757 L2016.6 915.132 L2000.01 915.132 L2000.01 911.197 Z" fill="#000000" fill-rule="evenodd" fill-opacity="1" /><path clip-path="url(#clip690)" d="M2031.39 911.197 L2049.75 911.197 L2049.75 915.132 L2035.68 915.132 L2035.68 923.605 Q2036.7 923.257 2037.71 923.095 Q2038.73 922.91 2039.75 922.91 Q2045.54 922.91 2048.92 926.081 Q2052.3 929.253 2052.3 934.669 Q2052.3 940.248 2048.83 943.35 Q2045.35 946.429 2039.03 946.429 Q2036.86 946.429 2034.59 946.058 Q2032.34 945.688 2029.94 944.947 L2029.94 940.248 Q2032.02 941.382 2034.24 941.938 Q2036.46 942.493 2038.94 942.493 Q2042.95 942.493 2045.28 940.387 Q2047.62 938.281 2047.62 934.669 Q2047.62 931.058 2045.28 928.952 Q2042.95 926.845 2038.94 926.845 Q2037.07 926.845 2035.19 927.262 Q2033.34 927.679 2031.39 928.558 L2031.39 911.197 Z" fill="#000000" fill-rule="evenodd" fill-opacity="1" /><path clip-path="url(#clip690)" d="M2524.51 941.822 L2532.15 941.822 L2532.15 915.457 L2523.84 917.123 L2523.84 912.864 L2532.11 911.197 L2536.78 911.197 L2536.78 941.822 L2544.42 941.822 L2544.42 945.757 L2524.51 945.757 L2524.51 941.822 Z" fill="#000000" fill-rule="evenodd" fill-opacity="1" /><path clip-path="url(#clip690)" d="M2553.87 939.878 L2558.75 939.878 L2558.75 945.757 L2553.87 945.757 L2553.87 939.878 Z" fill="#000000" fill-rule="evenodd" fill-opacity="1" /><path clip-path="url(#clip690)" d="M2578.93 914.276 Q2575.32 914.276 2573.49 917.841 Q2571.69 921.382 2571.69 928.512 Q2571.69 935.618 2573.49 939.183 Q2575.32 942.725 2578.93 942.725 Q2582.57 942.725 2584.37 939.183 Q2586.2 935.618 2586.2 928.512 Q2586.2 921.382 2584.37 917.841 Q2582.57 914.276 2578.93 914.276 M2578.93 910.572 Q2584.74 910.572 2587.8 915.179 Q2590.88 919.762 2590.88 928.512 Q2590.88 937.239 2587.8 941.845 Q2584.74 946.429 2578.93 946.429 Q2573.12 946.429 2570.05 941.845 Q2566.99 937.239 2566.99 928.512 Q2566.99 919.762 2570.05 915.179 Q2573.12 910.572 2578.93 910.572 Z" fill="#000000" fill-rule="evenodd" fill-opacity="1" /><path clip-path="url(#clip690)" d="M2609.1 914.276 Q2605.49 914.276 2603.66 917.841 Q2601.85 921.382 2601.85 928.512 Q2601.85 935.618 2603.66 939.183 Q2605.49 942.725 2609.1 942.725 Q2612.73 942.725 2614.54 939.183 Q2616.36 935.618 2616.36 928.512 Q2616.36 921.382 2614.54 917.841 Q2612.73 914.276 2609.1 914.276 M2609.1 910.572 Q2614.91 910.572 2617.96 915.179 Q2621.04 919.762 2621.04 928.512 Q2621.04 937.239 2617.96 941.845 Q2614.91 946.429 2609.1 946.429 Q2603.29 946.429 2600.21 941.845 Q2597.15 937.239 2597.15 928.512 Q2597.15 919.762 2600.21 915.179 Q2603.29 910.572 2609.1 910.572 Z" fill="#000000" fill-rule="evenodd" fill-opacity="1" /><polyline clip-path="url(#clip692)" style="stroke:#000000; stroke-linecap:round; stroke-linejoin:round; stroke-width:2; stroke-opacity:0.1; fill:none" points="
  226.978,859.735 2640.76,859.735 
  "/>
<polyline clip-path="url(#clip692)" style="stroke:#000000; stroke-linecap:round; stroke-linejoin:round; stroke-width:2; stroke-opacity:0.1; fill:none" points="
  226.978,737.213 2640.76,737.213 
  "/>
<polyline clip-path="url(#clip692)" style="stroke:#000000; stroke-linecap:round; stroke-linejoin:round; stroke-width:2; stroke-opacity:0.1; fill:none" points="
  226.978,614.692 2640.76,614.692 
  "/>
<polyline clip-path="url(#clip692)" style="stroke:#000000; stroke-linecap:round; stroke-linejoin:round; stroke-width:2; stroke-opacity:0.1; fill:none" points="
  226.978,492.171 2640.76,492.171 
  "/>
<polyline clip-path="url(#clip692)" style="stroke:#000000; stroke-linecap:round; stroke-linejoin:round; stroke-width:2; stroke-opacity:0.1; fill:none" points="
  226.978,369.649 2640.76,369.649 
  "/>
<polyline clip-path="url(#clip692)" style="stroke:#000000; stroke-linecap:round; stroke-linejoin:round; stroke-width:2; stroke-opacity:0.1; fill:none" points="
  226.978,247.128 2640.76,247.128 
  "/>
<polyline clip-path="url(#clip690)" style="stroke:#000000; stroke-linecap:round; stroke-linejoin:round; stroke-width:4; stroke-opacity:1; fill:none" points="
  226.978,881.053 226.978,127.792 
  "/>
<polyline clip-path="url(#clip690)" style="stroke:#000000; stroke-linecap:round; stroke-linejoin:round; stroke-width:4; stroke-opacity:1; fill:none" points="
  226.978,859.735 245.876,859.735 
  "/>
<polyline clip-path="url(#clip690)" style="stroke:#000000; stroke-linecap:round; stroke-linejoin:round; stroke-width:4; stroke-opacity:1; fill:none" points="
  226.978,737.213 245.876,737.213 
  "/>
<polyline clip-path="url(#clip690)" style="stroke:#000000; stroke-linecap:round; stroke-linejoin:round; stroke-width:4; stroke-opacity:1; fill:none" points="
  226.978,614.692 245.876,614.692 
  "/>
<polyline clip-path="url(#clip690)" style="stroke:#000000; stroke-linecap:round; stroke-linejoin:round; stroke-width:4; stroke-opacity:1; fill:none" points="
  226.978,492.171 245.876,492.171 
  "/>
<polyline clip-path="url(#clip690)" style="stroke:#000000; stroke-linecap:round; stroke-linejoin:round; stroke-width:4; stroke-opacity:1; fill:none" points="
  226.978,369.649 245.876,369.649 
  "/>
<polyline clip-path="url(#clip690)" style="stroke:#000000; stroke-linecap:round; stroke-linejoin:round; stroke-width:4; stroke-opacity:1; fill:none" points="
  226.978,247.128 245.876,247.128 
  "/>
<path clip-path="url(#clip690)" d="M49.5521 860.186 L79.2279 860.186 L79.2279 864.121 L49.5521 864.121 L49.5521 860.186 Z" fill="#000000" fill-rule="evenodd" fill-opacity="1" /><path clip-path="url(#clip690)" d="M99.3204 845.533 Q95.7093 845.533 93.8806 849.098 Q92.075 852.64 92.075 859.769 Q92.075 866.876 93.8806 870.441 Q95.7093 873.982 99.3204 873.982 Q102.955 873.982 104.76 870.441 Q106.589 866.876 106.589 859.769 Q106.589 852.64 104.76 849.098 Q102.955 845.533 99.3204 845.533 M99.3204 841.83 Q105.131 841.83 108.186 846.436 Q111.265 851.019 111.265 859.769 Q111.265 868.496 108.186 873.103 Q105.131 877.686 99.3204 877.686 Q93.5102 877.686 90.4315 873.103 Q87.376 868.496 87.376 859.769 Q87.376 851.019 90.4315 846.436 Q93.5102 841.83 99.3204 841.83 Z" fill="#000000" fill-rule="evenodd" fill-opacity="1" /><path clip-path="url(#clip690)" d="M119.482 871.135 L124.367 871.135 L124.367 877.015 L119.482 877.015 L119.482 871.135 Z" fill="#000000" fill-rule="evenodd" fill-opacity="1" /><path clip-path="url(#clip690)" d="M135.362 873.079 L143.001 873.079 L143.001 846.714 L134.691 848.38 L134.691 844.121 L142.954 842.455 L147.63 842.455 L147.63 873.079 L155.269 873.079 L155.269 877.015 L135.362 877.015 L135.362 873.079 Z" fill="#000000" fill-rule="evenodd" fill-opacity="1" /><path clip-path="url(#clip690)" d="M174.713 845.533 Q171.102 845.533 169.274 849.098 Q167.468 852.64 167.468 859.769 Q167.468 866.876 169.274 870.441 Q171.102 873.982 174.713 873.982 Q178.348 873.982 180.153 870.441 Q181.982 866.876 181.982 859.769 Q181.982 852.64 180.153 849.098 Q178.348 845.533 174.713 845.533 M174.713 841.83 Q180.524 841.83 183.579 846.436 Q186.658 851.019 186.658 859.769 Q186.658 868.496 183.579 873.103 Q180.524 877.686 174.713 877.686 Q168.903 877.686 165.825 873.103 Q162.769 868.496 162.769 859.769 Q162.769 851.019 165.825 846.436 Q168.903 841.83 174.713 841.83 Z" fill="#000000" fill-rule="evenodd" fill-opacity="1" /><path clip-path="url(#clip690)" d="M50.5475 737.665 L80.2233 737.665 L80.2233 741.6 L50.5475 741.6 L50.5475 737.665 Z" fill="#000000" fill-rule="evenodd" fill-opacity="1" /><path clip-path="url(#clip690)" d="M100.316 723.012 Q96.7047 723.012 94.876 726.577 Q93.0704 730.118 93.0704 737.248 Q93.0704 744.354 94.876 747.919 Q96.7047 751.461 100.316 751.461 Q103.95 751.461 105.756 747.919 Q107.584 744.354 107.584 737.248 Q107.584 730.118 105.756 726.577 Q103.95 723.012 100.316 723.012 M100.316 719.308 Q106.126 719.308 109.181 723.915 Q112.26 728.498 112.26 737.248 Q112.26 745.975 109.181 750.581 Q106.126 755.165 100.316 755.165 Q94.5056 755.165 91.4269 750.581 Q88.3714 745.975 88.3714 737.248 Q88.3714 728.498 91.4269 723.915 Q94.5056 719.308 100.316 719.308 Z" fill="#000000" fill-rule="evenodd" fill-opacity="1" /><path clip-path="url(#clip690)" d="M120.478 748.614 L125.362 748.614 L125.362 754.493 L120.478 754.493 L120.478 748.614 Z" fill="#000000" fill-rule="evenodd" fill-opacity="1" /><path clip-path="url(#clip690)" d="M145.547 723.012 Q141.936 723.012 140.107 726.577 Q138.302 730.118 138.302 737.248 Q138.302 744.354 140.107 747.919 Q141.936 751.461 145.547 751.461 Q149.181 751.461 150.987 747.919 Q152.815 744.354 152.815 737.248 Q152.815 730.118 150.987 726.577 Q149.181 723.012 145.547 723.012 M145.547 719.308 Q151.357 719.308 154.413 723.915 Q157.491 728.498 157.491 737.248 Q157.491 745.975 154.413 750.581 Q151.357 755.165 145.547 755.165 Q139.737 755.165 136.658 750.581 Q133.603 745.975 133.603 737.248 Q133.603 728.498 136.658 723.915 Q139.737 719.308 145.547 719.308 Z" fill="#000000" fill-rule="evenodd" fill-opacity="1" /><path clip-path="url(#clip690)" d="M165.755 719.933 L184.112 719.933 L184.112 723.868 L170.038 723.868 L170.038 732.341 Q171.056 731.993 172.075 731.831 Q173.093 731.646 174.112 731.646 Q179.899 731.646 183.278 734.817 Q186.658 737.989 186.658 743.405 Q186.658 748.984 183.186 752.086 Q179.713 755.165 173.394 755.165 Q171.218 755.165 168.95 754.794 Q166.704 754.424 164.297 753.683 L164.297 748.984 Q166.38 750.118 168.602 750.674 Q170.825 751.229 173.301 751.229 Q177.306 751.229 179.644 749.123 Q181.982 747.016 181.982 743.405 Q181.982 739.794 179.644 737.688 Q177.306 735.581 173.301 735.581 Q171.426 735.581 169.551 735.998 Q167.7 736.415 165.755 737.294 L165.755 719.933 Z" fill="#000000" fill-rule="evenodd" fill-opacity="1" /><path clip-path="url(#clip690)" d="M99.3204 600.491 Q95.7093 600.491 93.8806 604.055 Q92.075 607.597 92.075 614.727 Q92.075 621.833 93.8806 625.398 Q95.7093 628.94 99.3204 628.94 Q102.955 628.94 104.76 625.398 Q106.589 621.833 106.589 614.727 Q106.589 607.597 104.76 604.055 Q102.955 600.491 99.3204 600.491 M99.3204 596.787 Q105.131 596.787 108.186 601.393 Q111.265 605.977 111.265 614.727 Q111.265 623.453 108.186 628.06 Q105.131 632.643 99.3204 632.643 Q93.5102 632.643 90.4315 628.06 Q87.376 623.453 87.376 614.727 Q87.376 605.977 90.4315 601.393 Q93.5102 596.787 99.3204 596.787 Z" fill="#000000" fill-rule="evenodd" fill-opacity="1" /><path clip-path="url(#clip690)" d="M119.482 626.092 L124.367 626.092 L124.367 631.972 L119.482 631.972 L119.482 626.092 Z" fill="#000000" fill-rule="evenodd" fill-opacity="1" /><path clip-path="url(#clip690)" d="M144.552 600.491 Q140.941 600.491 139.112 604.055 Q137.306 607.597 137.306 614.727 Q137.306 621.833 139.112 625.398 Q140.941 628.94 144.552 628.94 Q148.186 628.94 149.991 625.398 Q151.82 621.833 151.82 614.727 Q151.82 607.597 149.991 604.055 Q148.186 600.491 144.552 600.491 M144.552 596.787 Q150.362 596.787 153.417 601.393 Q156.496 605.977 156.496 614.727 Q156.496 623.453 153.417 628.06 Q150.362 632.643 144.552 632.643 Q138.741 632.643 135.663 628.06 Q132.607 623.453 132.607 614.727 Q132.607 605.977 135.663 601.393 Q138.741 596.787 144.552 596.787 Z" fill="#000000" fill-rule="evenodd" fill-opacity="1" /><path clip-path="url(#clip690)" d="M174.713 600.491 Q171.102 600.491 169.274 604.055 Q167.468 607.597 167.468 614.727 Q167.468 621.833 169.274 625.398 Q171.102 628.94 174.713 628.94 Q178.348 628.94 180.153 625.398 Q181.982 621.833 181.982 614.727 Q181.982 607.597 180.153 604.055 Q178.348 600.491 174.713 600.491 M174.713 596.787 Q180.524 596.787 183.579 601.393 Q186.658 605.977 186.658 614.727 Q186.658 623.453 183.579 628.06 Q180.524 632.643 174.713 632.643 Q168.903 632.643 165.825 628.06 Q162.769 623.453 162.769 614.727 Q162.769 605.977 165.825 601.393 Q168.903 596.787 174.713 596.787 Z" fill="#000000" fill-rule="evenodd" fill-opacity="1" /><path clip-path="url(#clip690)" d="M100.316 477.969 Q96.7047 477.969 94.876 481.534 Q93.0704 485.076 93.0704 492.205 Q93.0704 499.312 94.876 502.877 Q96.7047 506.418 100.316 506.418 Q103.95 506.418 105.756 502.877 Q107.584 499.312 107.584 492.205 Q107.584 485.076 105.756 481.534 Q103.95 477.969 100.316 477.969 M100.316 474.266 Q106.126 474.266 109.181 478.872 Q112.26 483.455 112.26 492.205 Q112.26 500.932 109.181 505.539 Q106.126 510.122 100.316 510.122 Q94.5056 510.122 91.4269 505.539 Q88.3714 500.932 88.3714 492.205 Q88.3714 483.455 91.4269 478.872 Q94.5056 474.266 100.316 474.266 Z" fill="#000000" fill-rule="evenodd" fill-opacity="1" /><path clip-path="url(#clip690)" d="M120.478 503.571 L125.362 503.571 L125.362 509.451 L120.478 509.451 L120.478 503.571 Z" fill="#000000" fill-rule="evenodd" fill-opacity="1" /><path clip-path="url(#clip690)" d="M145.547 477.969 Q141.936 477.969 140.107 481.534 Q138.302 485.076 138.302 492.205 Q138.302 499.312 140.107 502.877 Q141.936 506.418 145.547 506.418 Q149.181 506.418 150.987 502.877 Q152.815 499.312 152.815 492.205 Q152.815 485.076 150.987 481.534 Q149.181 477.969 145.547 477.969 M145.547 474.266 Q151.357 474.266 154.413 478.872 Q157.491 483.455 157.491 492.205 Q157.491 500.932 154.413 505.539 Q151.357 510.122 145.547 510.122 Q139.737 510.122 136.658 505.539 Q133.603 500.932 133.603 492.205 Q133.603 483.455 136.658 478.872 Q139.737 474.266 145.547 474.266 Z" fill="#000000" fill-rule="evenodd" fill-opacity="1" /><path clip-path="url(#clip690)" d="M165.755 474.891 L184.112 474.891 L184.112 478.826 L170.038 478.826 L170.038 487.298 Q171.056 486.951 172.075 486.789 Q173.093 486.603 174.112 486.603 Q179.899 486.603 183.278 489.775 Q186.658 492.946 186.658 498.363 Q186.658 503.941 183.186 507.043 Q179.713 510.122 173.394 510.122 Q171.218 510.122 168.95 509.752 Q166.704 509.381 164.297 508.64 L164.297 503.941 Q166.38 505.076 168.602 505.631 Q170.825 506.187 173.301 506.187 Q177.306 506.187 179.644 504.08 Q181.982 501.974 181.982 498.363 Q181.982 494.752 179.644 492.645 Q177.306 490.539 173.301 490.539 Q171.426 490.539 169.551 490.955 Q167.7 491.372 165.755 492.252 L165.755 474.891 Z" fill="#000000" fill-rule="evenodd" fill-opacity="1" /><path clip-path="url(#clip690)" d="M99.3204 355.448 Q95.7093 355.448 93.8806 359.013 Q92.075 362.554 92.075 369.684 Q92.075 376.79 93.8806 380.355 Q95.7093 383.897 99.3204 383.897 Q102.955 383.897 104.76 380.355 Q106.589 376.79 106.589 369.684 Q106.589 362.554 104.76 359.013 Q102.955 355.448 99.3204 355.448 M99.3204 351.744 Q105.131 351.744 108.186 356.351 Q111.265 360.934 111.265 369.684 Q111.265 378.411 108.186 383.017 Q105.131 387.601 99.3204 387.601 Q93.5102 387.601 90.4315 383.017 Q87.376 378.411 87.376 369.684 Q87.376 360.934 90.4315 356.351 Q93.5102 351.744 99.3204 351.744 Z" fill="#000000" fill-rule="evenodd" fill-opacity="1" /><path clip-path="url(#clip690)" d="M119.482 381.05 L124.367 381.05 L124.367 386.929 L119.482 386.929 L119.482 381.05 Z" fill="#000000" fill-rule="evenodd" fill-opacity="1" /><path clip-path="url(#clip690)" d="M135.362 382.994 L143.001 382.994 L143.001 356.628 L134.691 358.295 L134.691 354.036 L142.954 352.369 L147.63 352.369 L147.63 382.994 L155.269 382.994 L155.269 386.929 L135.362 386.929 L135.362 382.994 Z" fill="#000000" fill-rule="evenodd" fill-opacity="1" /><path clip-path="url(#clip690)" d="M174.713 355.448 Q171.102 355.448 169.274 359.013 Q167.468 362.554 167.468 369.684 Q167.468 376.79 169.274 380.355 Q171.102 383.897 174.713 383.897 Q178.348 383.897 180.153 380.355 Q181.982 376.79 181.982 369.684 Q181.982 362.554 180.153 359.013 Q178.348 355.448 174.713 355.448 M174.713 351.744 Q180.524 351.744 183.579 356.351 Q186.658 360.934 186.658 369.684 Q186.658 378.411 183.579 383.017 Q180.524 387.601 174.713 387.601 Q168.903 387.601 165.825 383.017 Q162.769 378.411 162.769 369.684 Q162.769 360.934 165.825 356.351 Q168.903 351.744 174.713 351.744 Z" fill="#000000" fill-rule="evenodd" fill-opacity="1" /><path clip-path="url(#clip690)" d="M100.316 232.927 Q96.7047 232.927 94.876 236.491 Q93.0704 240.033 93.0704 247.163 Q93.0704 254.269 94.876 257.834 Q96.7047 261.376 100.316 261.376 Q103.95 261.376 105.756 257.834 Q107.584 254.269 107.584 247.163 Q107.584 240.033 105.756 236.491 Q103.95 232.927 100.316 232.927 M100.316 229.223 Q106.126 229.223 109.181 233.829 Q112.26 238.413 112.26 247.163 Q112.26 255.889 109.181 260.496 Q106.126 265.079 100.316 265.079 Q94.5056 265.079 91.4269 260.496 Q88.3714 255.889 88.3714 247.163 Q88.3714 238.413 91.4269 233.829 Q94.5056 229.223 100.316 229.223 Z" fill="#000000" fill-rule="evenodd" fill-opacity="1" /><path clip-path="url(#clip690)" d="M120.478 258.528 L125.362 258.528 L125.362 264.408 L120.478 264.408 L120.478 258.528 Z" fill="#000000" fill-rule="evenodd" fill-opacity="1" /><path clip-path="url(#clip690)" d="M136.357 260.473 L143.996 260.473 L143.996 234.107 L135.686 235.774 L135.686 231.515 L143.95 229.848 L148.626 229.848 L148.626 260.473 L156.265 260.473 L156.265 264.408 L136.357 264.408 L136.357 260.473 Z" fill="#000000" fill-rule="evenodd" fill-opacity="1" /><path clip-path="url(#clip690)" d="M165.755 229.848 L184.112 229.848 L184.112 233.783 L170.038 233.783 L170.038 242.255 Q171.056 241.908 172.075 241.746 Q173.093 241.561 174.112 241.561 Q179.899 241.561 183.278 244.732 Q186.658 247.903 186.658 253.32 Q186.658 258.899 183.186 262.001 Q179.713 265.079 173.394 265.079 Q171.218 265.079 168.95 264.709 Q166.704 264.338 164.297 263.598 L164.297 258.899 Q166.38 260.033 168.602 260.588 Q170.825 261.144 173.301 261.144 Q177.306 261.144 179.644 259.038 Q181.982 256.931 181.982 253.32 Q181.982 249.709 179.644 247.602 Q177.306 245.496 173.301 245.496 Q171.426 245.496 169.551 245.913 Q167.7 246.329 165.755 247.209 L165.755 229.848 Z" fill="#000000" fill-rule="evenodd" fill-opacity="1" /><path clip-path="url(#clip690)" d="M1070.8 12.096 L1078.99 12.096 L1078.99 72.576 L1070.8 72.576 L1070.8 12.096 Z" fill="#000000" fill-rule="evenodd" fill-opacity="1" /><path clip-path="url(#clip690)" d="M1132.66 45.1919 L1132.66 72.576 L1125.21 72.576 L1125.21 45.4349 Q1125.21 38.994 1122.7 35.7938 Q1120.19 32.5936 1115.16 32.5936 Q1109.13 32.5936 1105.64 36.4419 Q1102.16 40.2903 1102.16 46.9338 L1102.16 72.576 L1094.66 72.576 L1094.66 27.2059 L1102.16 27.2059 L1102.16 34.2544 Q1104.83 30.163 1108.44 28.1376 Q1112.08 26.1121 1116.82 26.1121 Q1124.64 26.1121 1128.65 30.9732 Q1132.66 35.7938 1132.66 45.1919 Z" fill="#000000" fill-rule="evenodd" fill-opacity="1" /><path clip-path="url(#clip690)" d="M1154.9 14.324 L1154.9 27.2059 L1170.25 27.2059 L1170.25 32.9987 L1154.9 32.9987 L1154.9 57.6282 Q1154.9 63.1779 1156.4 64.7578 Q1157.94 66.3376 1162.6 66.3376 L1170.25 66.3376 L1170.25 72.576 L1162.6 72.576 Q1153.97 72.576 1150.69 69.3758 Q1147.41 66.1351 1147.41 57.6282 L1147.41 32.9987 L1141.94 32.9987 L1141.94 27.2059 L1147.41 27.2059 L1147.41 14.324 L1154.9 14.324 Z" fill="#000000" fill-rule="evenodd" fill-opacity="1" /><path clip-path="url(#clip690)" d="M1218.87 48.0275 L1218.87 51.6733 L1184.59 51.6733 Q1185.08 59.3701 1189.21 63.421 Q1193.38 67.4314 1200.8 67.4314 Q1205.09 67.4314 1209.1 66.3781 Q1213.15 65.3249 1217.12 63.2184 L1217.12 70.267 Q1213.11 71.9684 1208.9 72.8596 Q1204.69 73.7508 1200.35 73.7508 Q1189.5 73.7508 1183.14 67.4314 Q1176.82 61.1119 1176.82 50.3365 Q1176.82 39.1965 1182.81 32.6746 Q1188.85 26.1121 1199.06 26.1121 Q1208.21 26.1121 1213.52 32.0264 Q1218.87 37.9003 1218.87 48.0275 M1211.41 45.84 Q1211.33 39.7232 1207.97 36.0774 Q1204.65 32.4315 1199.14 32.4315 Q1192.9 32.4315 1189.13 35.9558 Q1185.4 39.4801 1184.84 45.8805 L1211.41 45.84 Z" fill="#000000" fill-rule="evenodd" fill-opacity="1" /><path clip-path="url(#clip690)" d="M1260.95 49.3643 Q1260.95 41.2625 1257.59 36.8065 Q1254.27 32.3505 1248.23 32.3505 Q1242.24 32.3505 1238.88 36.8065 Q1235.55 41.2625 1235.55 49.3643 Q1235.55 57.4256 1238.88 61.8816 Q1242.24 66.3376 1248.23 66.3376 Q1254.27 66.3376 1257.59 61.8816 Q1260.95 57.4256 1260.95 49.3643 M1268.41 66.9452 Q1268.41 78.5308 1263.26 84.1616 Q1258.12 89.8329 1247.51 89.8329 Q1243.58 89.8329 1240.09 89.2252 Q1236.61 88.6581 1233.33 87.4428 L1233.33 80.1917 Q1236.61 81.9741 1239.81 82.8248 Q1243.01 83.6755 1246.33 83.6755 Q1253.66 83.6755 1257.31 79.8271 Q1260.95 76.0193 1260.95 68.282 L1260.95 64.5957 Q1258.65 68.6061 1255.04 70.5911 Q1251.43 72.576 1246.41 72.576 Q1238.07 72.576 1232.96 66.2161 Q1227.86 59.8562 1227.86 49.3643 Q1227.86 38.832 1232.96 32.472 Q1238.07 26.1121 1246.41 26.1121 Q1251.43 26.1121 1255.04 28.0971 Q1258.65 30.082 1260.95 34.0924 L1260.95 27.2059 L1268.41 27.2059 L1268.41 66.9452 Z" fill="#000000" fill-rule="evenodd" fill-opacity="1" /><path clip-path="url(#clip690)" d="M1310.05 34.1734 Q1308.8 33.4443 1307.3 33.1202 Q1305.84 32.7556 1304.06 32.7556 Q1297.74 32.7556 1294.33 36.8875 Q1290.97 40.9789 1290.97 48.6757 L1290.97 72.576 L1283.48 72.576 L1283.48 27.2059 L1290.97 27.2059 L1290.97 34.2544 Q1293.32 30.1225 1297.09 28.1376 Q1300.86 26.1121 1306.24 26.1121 Q1307.01 26.1121 1307.94 26.2337 Q1308.88 26.3147 1310.01 26.5172 L1310.05 34.1734 Z" fill="#000000" fill-rule="evenodd" fill-opacity="1" /><path clip-path="url(#clip690)" d="M1338.49 49.7694 Q1329.45 49.7694 1325.97 51.8354 Q1322.49 53.9013 1322.49 58.8839 Q1322.49 62.8538 1325.08 65.2034 Q1327.71 67.5124 1332.21 67.5124 Q1338.41 67.5124 1342.13 63.1374 Q1345.9 58.7219 1345.9 51.4303 L1345.9 49.7694 L1338.49 49.7694 M1353.36 46.6907 L1353.36 72.576 L1345.9 72.576 L1345.9 65.6895 Q1343.35 69.8214 1339.54 71.8063 Q1335.73 73.7508 1330.22 73.7508 Q1323.26 73.7508 1319.13 69.8619 Q1315.03 65.9325 1315.03 59.3701 Q1315.03 51.7138 1320.14 47.825 Q1325.28 43.9361 1335.45 43.9361 L1345.9 43.9361 L1345.9 43.2069 Q1345.9 38.0623 1342.5 35.2672 Q1339.14 32.4315 1333.02 32.4315 Q1329.13 32.4315 1325.44 33.3632 Q1321.76 34.295 1318.36 36.1584 L1318.36 29.2718 Q1322.45 27.692 1326.3 26.9223 Q1330.14 26.1121 1333.79 26.1121 Q1343.63 26.1121 1348.49 31.2163 Q1353.36 36.3204 1353.36 46.6907 Z" fill="#000000" fill-rule="evenodd" fill-opacity="1" /><path clip-path="url(#clip690)" d="M1376.08 14.324 L1376.08 27.2059 L1391.43 27.2059 L1391.43 32.9987 L1376.08 32.9987 L1376.08 57.6282 Q1376.08 63.1779 1377.58 64.7578 Q1379.12 66.3376 1383.78 66.3376 L1391.43 66.3376 L1391.43 72.576 L1383.78 72.576 Q1375.15 72.576 1371.87 69.3758 Q1368.59 66.1351 1368.59 57.6282 L1368.59 32.9987 L1363.12 32.9987 L1363.12 27.2059 L1368.59 27.2059 L1368.59 14.324 L1376.08 14.324 Z" fill="#000000" fill-rule="evenodd" fill-opacity="1" /><path clip-path="url(#clip690)" d="M1440.04 48.0275 L1440.04 51.6733 L1405.77 51.6733 Q1406.26 59.3701 1410.39 63.421 Q1414.56 67.4314 1421.98 67.4314 Q1426.27 67.4314 1430.28 66.3781 Q1434.33 65.3249 1438.3 63.2184 L1438.3 70.267 Q1434.29 71.9684 1430.08 72.8596 Q1425.87 73.7508 1421.53 73.7508 Q1410.68 73.7508 1404.32 67.4314 Q1398 61.1119 1398 50.3365 Q1398 39.1965 1403.99 32.6746 Q1410.03 26.1121 1420.24 26.1121 Q1429.39 26.1121 1434.7 32.0264 Q1440.04 37.9003 1440.04 48.0275 M1432.59 45.84 Q1432.51 39.7232 1429.15 36.0774 Q1425.83 32.4315 1420.32 32.4315 Q1414.08 32.4315 1410.31 35.9558 Q1406.58 39.4801 1406.02 45.8805 L1432.59 45.84 Z" fill="#000000" fill-rule="evenodd" fill-opacity="1" /><path clip-path="url(#clip690)" d="M1499.27 49.7694 Q1490.24 49.7694 1486.75 51.8354 Q1483.27 53.9013 1483.27 58.8839 Q1483.27 62.8538 1485.86 65.2034 Q1488.49 67.5124 1492.99 67.5124 Q1499.19 67.5124 1502.91 63.1374 Q1506.68 58.7219 1506.68 51.4303 L1506.68 49.7694 L1499.27 49.7694 M1514.14 46.6907 L1514.14 72.576 L1506.68 72.576 L1506.68 65.6895 Q1504.13 69.8214 1500.32 71.8063 Q1496.51 73.7508 1491 73.7508 Q1484.04 73.7508 1479.91 69.8619 Q1475.81 65.9325 1475.81 59.3701 Q1475.81 51.7138 1480.92 47.825 Q1486.06 43.9361 1496.23 43.9361 L1506.68 43.9361 L1506.68 43.2069 Q1506.68 38.0623 1503.28 35.2672 Q1499.92 32.4315 1493.8 32.4315 Q1489.91 32.4315 1486.22 33.3632 Q1482.54 34.295 1479.14 36.1584 L1479.14 29.2718 Q1483.23 27.692 1487.08 26.9223 Q1490.92 26.1121 1494.57 26.1121 Q1504.41 26.1121 1509.27 31.2163 Q1514.14 36.3204 1514.14 46.6907 Z" fill="#000000" fill-rule="evenodd" fill-opacity="1" /><path clip-path="url(#clip690)" d="M1567.2 45.1919 L1567.2 72.576 L1559.75 72.576 L1559.75 45.4349 Q1559.75 38.994 1557.24 35.7938 Q1554.73 32.5936 1549.7 32.5936 Q1543.67 32.5936 1540.18 36.4419 Q1536.7 40.2903 1536.7 46.9338 L1536.7 72.576 L1529.2 72.576 L1529.2 27.2059 L1536.7 27.2059 L1536.7 34.2544 Q1539.37 30.163 1542.98 28.1376 Q1546.62 26.1121 1551.36 26.1121 Q1559.18 26.1121 1563.19 30.9732 Q1567.2 35.7938 1567.2 45.1919 Z" fill="#000000" fill-rule="evenodd" fill-opacity="1" /><path clip-path="url(#clip690)" d="M1611.92 34.0924 L1611.92 9.54393 L1619.38 9.54393 L1619.38 72.576 L1611.92 72.576 L1611.92 65.7705 Q1609.57 69.8214 1605.97 71.8063 Q1602.4 73.7508 1597.38 73.7508 Q1589.16 73.7508 1583.97 67.1883 Q1578.83 60.6258 1578.83 49.9314 Q1578.83 39.2371 1583.97 32.6746 Q1589.16 26.1121 1597.38 26.1121 Q1602.4 26.1121 1605.97 28.0971 Q1609.57 30.0415 1611.92 34.0924 M1586.53 49.9314 Q1586.53 58.1548 1589.89 62.8538 Q1593.29 67.5124 1599.2 67.5124 Q1605.12 67.5124 1608.52 62.8538 Q1611.92 58.1548 1611.92 49.9314 Q1611.92 41.7081 1608.52 37.0496 Q1605.12 32.3505 1599.2 32.3505 Q1593.29 32.3505 1589.89 37.0496 Q1586.53 41.7081 1586.53 49.9314 Z" fill="#000000" fill-rule="evenodd" fill-opacity="1" /><path clip-path="url(#clip690)" d="M1661.43 12.096 L1696.18 12.096 L1696.18 18.9825 L1669.61 18.9825 L1669.61 36.8065 L1693.59 36.8065 L1693.59 43.6931 L1669.61 43.6931 L1669.61 72.576 L1661.43 72.576 L1661.43 12.096 Z" fill="#000000" fill-rule="evenodd" fill-opacity="1" /><path clip-path="url(#clip690)" d="M1702.79 27.2059 L1710.24 27.2059 L1710.24 72.576 L1702.79 72.576 L1702.79 27.2059 M1702.79 9.54393 L1710.24 9.54393 L1710.24 18.9825 L1702.79 18.9825 L1702.79 9.54393 Z" fill="#000000" fill-rule="evenodd" fill-opacity="1" /><path clip-path="url(#clip690)" d="M1752.13 34.1734 Q1750.87 33.4443 1749.37 33.1202 Q1747.91 32.7556 1746.13 32.7556 Q1739.81 32.7556 1736.41 36.8875 Q1733.05 40.9789 1733.05 48.6757 L1733.05 72.576 L1725.55 72.576 L1725.55 27.2059 L1733.05 27.2059 L1733.05 34.2544 Q1735.4 30.1225 1739.16 28.1376 Q1742.93 26.1121 1748.32 26.1121 Q1749.09 26.1121 1750.02 26.2337 Q1750.95 26.3147 1752.09 26.5172 L1752.13 34.1734 Z" fill="#000000" fill-rule="evenodd" fill-opacity="1" /><path clip-path="url(#clip690)" d="M1796.93 48.0275 L1796.93 51.6733 L1762.66 51.6733 Q1763.14 59.3701 1767.28 63.421 Q1771.45 67.4314 1778.86 67.4314 Q1783.16 67.4314 1787.17 66.3781 Q1791.22 65.3249 1795.19 63.2184 L1795.19 70.267 Q1791.18 71.9684 1786.96 72.8596 Q1782.75 73.7508 1778.42 73.7508 Q1767.56 73.7508 1761.2 67.4314 Q1754.88 61.1119 1754.88 50.3365 Q1754.88 39.1965 1760.88 32.6746 Q1766.91 26.1121 1777.12 26.1121 Q1786.28 26.1121 1791.58 32.0264 Q1796.93 37.9003 1796.93 48.0275 M1789.48 45.84 Q1789.39 39.7232 1786.03 36.0774 Q1782.71 32.4315 1777.2 32.4315 Q1770.96 32.4315 1767.2 35.9558 Q1763.47 39.4801 1762.9 45.8805 L1789.48 45.84 Z" fill="#000000" fill-rule="evenodd" fill-opacity="1" /><polyline clip-path="url(#clip692)" style="stroke:#009af9; stroke-linecap:round; stroke-linejoin:round; stroke-width:4; stroke-opacity:1; fill:none" points="
  295.292,614.692 318.064,614.692 340.835,614.692 363.607,614.692 386.378,614.692 409.15,614.692 431.921,614.692 454.693,614.692 477.464,614.692 500.236,614.692 
  523.007,614.692 545.779,614.692 568.55,614.692 591.322,614.692 614.093,614.692 636.865,614.692 659.636,614.692 682.408,614.692 705.179,614.692 727.951,614.692 
  750.722,614.692 773.494,614.692 796.265,614.692 819.037,614.692 841.808,614.692 864.58,614.692 887.351,590.188 910.123,565.683 932.894,541.179 955.666,516.675 
  978.437,492.171 1001.21,467.666 1023.98,443.162 1046.75,418.658 1069.52,394.154 1092.29,369.649 1115.07,345.145 1137.84,320.641 1160.61,296.136 1183.38,271.632 
  1206.15,247.128 1228.92,222.624 1251.69,198.119 1274.47,173.615 1297.24,149.111 1320.01,859.735 1342.78,835.23 1365.55,810.726 1388.32,786.222 1411.1,761.718 
  1433.87,737.213 1456.64,712.709 1479.41,688.205 1502.18,663.7 1524.95,639.196 1547.72,614.692 1570.5,590.188 1593.27,565.683 1616.04,541.179 1638.81,516.675 
  1661.58,492.171 1684.35,467.666 1707.12,443.162 1729.9,418.658 1752.67,394.154 1775.44,369.649 1798.21,345.145 1820.98,320.641 1843.75,296.136 1866.53,271.632 
  1889.3,247.128 1912.07,222.624 1934.84,198.119 1957.61,173.615 1980.38,149.111 2003.15,149.111 2025.93,149.111 2048.7,149.111 2071.47,149.111 2094.24,149.111 
  2117.01,149.111 2139.78,149.111 2162.55,149.111 2185.33,149.111 2208.1,149.111 2230.87,149.111 2253.64,149.111 2276.41,149.111 2299.18,149.111 2321.96,149.111 
  2344.73,149.111 2367.5,149.111 2390.27,149.111 2413.04,149.111 2435.81,149.111 2458.58,149.111 2481.36,149.111 2504.13,149.111 2526.9,149.111 2549.67,149.111 
  2572.44,149.111 
  "/>
<path clip-path="url(#clip690)" d="
M1852.29 256.581 L2560.3 256.581 L2560.3 152.901 L1852.29 152.901  Z
  " fill="#ffffff" fill-rule="evenodd" fill-opacity="1"/>
<polyline clip-path="url(#clip690)" style="stroke:#000000; stroke-linecap:round; stroke-linejoin:round; stroke-width:4; stroke-opacity:1; fill:none" points="
  1852.29,256.581 2560.3,256.581 2560.3,152.901 1852.29,152.901 1852.29,256.581 
  "/>
<polyline clip-path="url(#clip690)" style="stroke:#009af9; stroke-linecap:round; stroke-linejoin:round; stroke-width:4; stroke-opacity:1; fill:none" points="
  1879.11,204.741 2040.02,204.741 
  "/>
<path clip-path="url(#clip690)" d="M2066.84 187.461 L2073.81 187.461 L2082.63 210.979 L2091.5 187.461 L2098.46 187.461 L2098.46 222.021 L2093.9 222.021 L2093.9 191.674 L2084.99 215.377 L2080.29 215.377 L2071.38 191.674 L2071.38 222.021 L2066.84 222.021 L2066.84 187.461 Z" fill="#000000" fill-rule="evenodd" fill-opacity="1" /><path clip-path="url(#clip690)" d="M2129.74 207.993 L2129.74 210.076 L2110.15 210.076 Q2110.43 214.475 2112.79 216.789 Q2115.18 219.081 2119.41 219.081 Q2121.87 219.081 2124.16 218.479 Q2126.47 217.877 2128.74 216.674 L2128.74 220.701 Q2126.45 221.674 2124.04 222.183 Q2121.64 222.692 2119.16 222.692 Q2112.96 222.692 2109.32 219.081 Q2105.71 215.47 2105.71 209.313 Q2105.71 202.947 2109.14 199.22 Q2112.59 195.47 2118.42 195.47 Q2123.65 195.47 2126.68 198.85 Q2129.74 202.206 2129.74 207.993 M2125.48 206.743 Q2125.43 203.248 2123.51 201.164 Q2121.61 199.081 2118.46 199.081 Q2114.9 199.081 2112.75 201.095 Q2110.62 203.109 2110.29 206.766 L2125.48 206.743 Z" fill="#000000" fill-rule="evenodd" fill-opacity="1" /><path clip-path="url(#clip690)" d="M2156.91 201.072 Q2158.51 198.202 2160.73 196.836 Q2162.96 195.47 2165.96 195.47 Q2170.02 195.47 2172.21 198.317 Q2174.41 201.141 2174.41 206.373 L2174.41 222.021 L2170.13 222.021 L2170.13 206.512 Q2170.13 202.785 2168.81 200.979 Q2167.49 199.174 2164.78 199.174 Q2161.47 199.174 2159.55 201.373 Q2157.63 203.572 2157.63 207.368 L2157.63 222.021 L2153.35 222.021 L2153.35 206.512 Q2153.35 202.762 2152.03 200.979 Q2150.71 199.174 2147.96 199.174 Q2144.69 199.174 2142.77 201.396 Q2140.85 203.595 2140.85 207.368 L2140.85 222.021 L2136.57 222.021 L2136.57 196.095 L2140.85 196.095 L2140.85 200.123 Q2142.31 197.739 2144.34 196.604 Q2146.38 195.47 2149.18 195.47 Q2152.01 195.47 2153.97 196.905 Q2155.96 198.34 2156.91 201.072 Z" fill="#000000" fill-rule="evenodd" fill-opacity="1" /><path clip-path="url(#clip690)" d="M2201.52 209.081 Q2201.52 204.382 2199.58 201.72 Q2197.65 199.035 2194.27 199.035 Q2190.89 199.035 2188.95 201.72 Q2187.03 204.382 2187.03 209.081 Q2187.03 213.78 2188.95 216.465 Q2190.89 219.127 2194.27 219.127 Q2197.65 219.127 2199.58 216.465 Q2201.52 213.78 2201.52 209.081 M2187.03 200.03 Q2188.37 197.715 2190.41 196.604 Q2192.47 195.47 2195.32 195.47 Q2200.04 195.47 2202.98 199.22 Q2205.94 202.97 2205.94 209.081 Q2205.94 215.192 2202.98 218.942 Q2200.04 222.692 2195.32 222.692 Q2192.47 222.692 2190.41 221.581 Q2188.37 220.447 2187.03 218.132 L2187.03 222.021 L2182.75 222.021 L2182.75 186.003 L2187.03 186.003 L2187.03 200.03 Z" fill="#000000" fill-rule="evenodd" fill-opacity="1" /><path clip-path="url(#clip690)" d="M2228.02 200.077 Q2227.31 199.66 2226.45 199.475 Q2225.62 199.266 2224.6 199.266 Q2220.99 199.266 2219.04 201.627 Q2217.12 203.965 2217.12 208.363 L2217.12 222.021 L2212.84 222.021 L2212.84 196.095 L2217.12 196.095 L2217.12 200.123 Q2218.46 197.762 2220.62 196.627 Q2222.77 195.47 2225.85 195.47 Q2226.29 195.47 2226.82 195.539 Q2227.35 195.586 2228 195.702 L2228.02 200.077 Z" fill="#000000" fill-rule="evenodd" fill-opacity="1" /><path clip-path="url(#clip690)" d="M2244.27 208.988 Q2239.11 208.988 2237.12 210.169 Q2235.13 211.35 2235.13 214.197 Q2235.13 216.465 2236.61 217.808 Q2238.12 219.127 2240.69 219.127 Q2244.23 219.127 2246.36 216.627 Q2248.51 214.104 2248.51 209.938 L2248.51 208.988 L2244.27 208.988 M2252.77 207.229 L2252.77 222.021 L2248.51 222.021 L2248.51 218.086 Q2247.05 220.447 2244.88 221.581 Q2242.7 222.692 2239.55 222.692 Q2235.57 222.692 2233.21 220.47 Q2230.87 218.225 2230.87 214.475 Q2230.87 210.1 2233.79 207.877 Q2236.73 205.655 2242.54 205.655 L2248.51 205.655 L2248.51 205.239 Q2248.51 202.299 2246.57 200.702 Q2244.64 199.081 2241.15 199.081 Q2238.93 199.081 2236.82 199.614 Q2234.71 200.146 2232.77 201.211 L2232.77 197.276 Q2235.11 196.373 2237.31 195.933 Q2239.51 195.47 2241.59 195.47 Q2247.21 195.47 2249.99 198.387 Q2252.77 201.303 2252.77 207.229 Z" fill="#000000" fill-rule="evenodd" fill-opacity="1" /><path clip-path="url(#clip690)" d="M2283.09 206.373 L2283.09 222.021 L2278.83 222.021 L2278.83 206.512 Q2278.83 202.831 2277.4 201.002 Q2275.96 199.174 2273.09 199.174 Q2269.64 199.174 2267.65 201.373 Q2265.66 203.572 2265.66 207.368 L2265.66 222.021 L2261.38 222.021 L2261.38 196.095 L2265.66 196.095 L2265.66 200.123 Q2267.19 197.785 2269.25 196.627 Q2271.33 195.47 2274.04 195.47 Q2278.51 195.47 2280.8 198.248 Q2283.09 201.002 2283.09 206.373 Z" fill="#000000" fill-rule="evenodd" fill-opacity="1" /><path clip-path="url(#clip690)" d="M2313.76 207.993 L2313.76 210.076 L2294.18 210.076 Q2294.46 214.475 2296.82 216.789 Q2299.2 219.081 2303.44 219.081 Q2305.89 219.081 2308.19 218.479 Q2310.5 217.877 2312.77 216.674 L2312.77 220.701 Q2310.48 221.674 2308.07 222.183 Q2305.66 222.692 2303.19 222.692 Q2296.98 222.692 2293.35 219.081 Q2289.74 215.47 2289.74 209.313 Q2289.74 202.947 2293.16 199.22 Q2296.61 195.47 2302.45 195.47 Q2307.68 195.47 2310.71 198.85 Q2313.76 202.206 2313.76 207.993 M2309.51 206.743 Q2309.46 203.248 2307.54 201.164 Q2305.64 199.081 2302.49 199.081 Q2298.93 199.081 2296.77 201.095 Q2294.64 203.109 2294.32 206.766 L2309.51 206.743 Z" fill="#000000" fill-rule="evenodd" fill-opacity="1" /><path clip-path="url(#clip690)" d="M2344.92 222.021 L2331.73 187.461 L2336.61 187.461 L2347.56 216.558 L2358.53 187.461 L2363.39 187.461 L2350.22 222.021 L2344.92 222.021 Z" fill="#000000" fill-rule="evenodd" fill-opacity="1" /><path clip-path="url(#clip690)" d="M2374.62 199.081 Q2371.19 199.081 2369.2 201.766 Q2367.21 204.428 2367.21 209.081 Q2367.21 213.734 2369.18 216.419 Q2371.17 219.081 2374.62 219.081 Q2378.02 219.081 2380.01 216.396 Q2382.01 213.711 2382.01 209.081 Q2382.01 204.475 2380.01 201.789 Q2378.02 199.081 2374.62 199.081 M2374.62 195.47 Q2380.18 195.47 2383.35 199.081 Q2386.52 202.692 2386.52 209.081 Q2386.52 215.447 2383.35 219.081 Q2380.18 222.692 2374.62 222.692 Q2369.04 222.692 2365.87 219.081 Q2362.72 215.447 2362.72 209.081 Q2362.72 202.692 2365.87 199.081 Q2369.04 195.47 2374.62 195.47 Z" fill="#000000" fill-rule="evenodd" fill-opacity="1" /><path clip-path="url(#clip690)" d="M2393.58 186.003 L2397.84 186.003 L2397.84 222.021 L2393.58 222.021 L2393.58 186.003 Z" fill="#000000" fill-rule="evenodd" fill-opacity="1" /><path clip-path="url(#clip690)" d="M2410.96 188.734 L2410.96 196.095 L2419.74 196.095 L2419.74 199.405 L2410.96 199.405 L2410.96 213.479 Q2410.96 216.65 2411.82 217.553 Q2412.7 218.456 2415.36 218.456 L2419.74 218.456 L2419.74 222.021 L2415.36 222.021 Q2410.43 222.021 2408.56 220.192 Q2406.68 218.34 2406.68 213.479 L2406.68 199.405 L2403.56 199.405 L2403.56 196.095 L2406.68 196.095 L2406.68 188.734 L2410.96 188.734 Z" fill="#000000" fill-rule="evenodd" fill-opacity="1" /><path clip-path="url(#clip690)" d="M2437.12 208.988 Q2431.96 208.988 2429.97 210.169 Q2427.98 211.35 2427.98 214.197 Q2427.98 216.465 2429.46 217.808 Q2430.96 219.127 2433.53 219.127 Q2437.07 219.127 2439.2 216.627 Q2441.36 214.104 2441.36 209.938 L2441.36 208.988 L2437.12 208.988 M2445.62 207.229 L2445.62 222.021 L2441.36 222.021 L2441.36 218.086 Q2439.9 220.447 2437.72 221.581 Q2435.55 222.692 2432.4 222.692 Q2428.42 222.692 2426.06 220.47 Q2423.72 218.225 2423.72 214.475 Q2423.72 210.1 2426.63 207.877 Q2429.57 205.655 2435.38 205.655 L2441.36 205.655 L2441.36 205.239 Q2441.36 202.299 2439.41 200.702 Q2437.49 199.081 2434 199.081 Q2431.77 199.081 2429.67 199.614 Q2427.56 200.146 2425.62 201.211 L2425.62 197.276 Q2427.95 196.373 2430.15 195.933 Q2432.35 195.47 2434.44 195.47 Q2440.06 195.47 2442.84 198.387 Q2445.62 201.303 2445.62 207.229 Z" fill="#000000" fill-rule="evenodd" fill-opacity="1" /><path clip-path="url(#clip690)" d="M2471.45 208.757 Q2471.45 204.127 2469.53 201.581 Q2467.63 199.035 2464.18 199.035 Q2460.75 199.035 2458.83 201.581 Q2456.94 204.127 2456.94 208.757 Q2456.94 213.363 2458.83 215.91 Q2460.75 218.456 2464.18 218.456 Q2467.63 218.456 2469.53 215.91 Q2471.45 213.363 2471.45 208.757 M2475.71 218.803 Q2475.71 225.424 2472.77 228.641 Q2469.83 231.882 2463.76 231.882 Q2461.52 231.882 2459.53 231.535 Q2457.54 231.211 2455.66 230.516 L2455.66 226.373 Q2457.54 227.391 2459.37 227.877 Q2461.19 228.363 2463.09 228.363 Q2467.28 228.363 2469.37 226.164 Q2471.45 223.988 2471.45 219.567 L2471.45 217.461 Q2470.13 219.752 2468.07 220.887 Q2466.01 222.021 2463.14 222.021 Q2458.37 222.021 2455.45 218.387 Q2452.54 214.752 2452.54 208.757 Q2452.54 202.739 2455.45 199.104 Q2458.37 195.47 2463.14 195.47 Q2466.01 195.47 2468.07 196.604 Q2470.13 197.739 2471.45 200.03 L2471.45 196.095 L2475.71 196.095 L2475.71 218.803 Z" fill="#000000" fill-rule="evenodd" fill-opacity="1" /><path clip-path="url(#clip690)" d="M2506.66 207.993 L2506.66 210.076 L2487.07 210.076 Q2487.35 214.475 2489.71 216.789 Q2492.1 219.081 2496.33 219.081 Q2498.79 219.081 2501.08 218.479 Q2503.39 217.877 2505.66 216.674 L2505.66 220.701 Q2503.37 221.674 2500.96 222.183 Q2498.56 222.692 2496.08 222.692 Q2489.87 222.692 2486.24 219.081 Q2482.63 215.47 2482.63 209.313 Q2482.63 202.947 2486.06 199.22 Q2489.5 195.47 2495.34 195.47 Q2500.57 195.47 2503.6 198.85 Q2506.66 202.206 2506.66 207.993 M2502.4 206.743 Q2502.35 203.248 2500.43 201.164 Q2498.53 199.081 2495.38 199.081 Q2491.82 199.081 2489.67 201.095 Q2487.54 203.109 2487.21 206.766 L2502.4 206.743 Z" fill="#000000" fill-rule="evenodd" fill-opacity="1" /><path clip-path="url(#clip690)" d="
M226.978 1800.78 L2640.76 1800.78 L2640.76 1047.52 L226.978 1047.52  Z
  " fill="#ffffff" fill-rule="evenodd" fill-opacity="1"/>
<defs>
  <clipPath id="clip693">
    <rect x="226" y="1047" width="2415" height="754"/>
  </clipPath>
</defs>
<polyline clip-path="url(#clip693)" style="stroke:#000000; stroke-linecap:round; stroke-linejoin:round; stroke-width:2; stroke-opacity:0.1; fill:none" points="
  295.292,1800.78 295.292,1047.52 
  "/>
<polyline clip-path="url(#clip693)" style="stroke:#000000; stroke-linecap:round; stroke-linejoin:round; stroke-width:2; stroke-opacity:0.1; fill:none" points="
  864.58,1800.78 864.58,1047.52 
  "/>
<polyline clip-path="url(#clip693)" style="stroke:#000000; stroke-linecap:round; stroke-linejoin:round; stroke-width:2; stroke-opacity:0.1; fill:none" points="
  1433.87,1800.78 1433.87,1047.52 
  "/>
<polyline clip-path="url(#clip693)" style="stroke:#000000; stroke-linecap:round; stroke-linejoin:round; stroke-width:2; stroke-opacity:0.1; fill:none" points="
  2003.15,1800.78 2003.15,1047.52 
  "/>
<polyline clip-path="url(#clip693)" style="stroke:#000000; stroke-linecap:round; stroke-linejoin:round; stroke-width:2; stroke-opacity:0.1; fill:none" points="
  2572.44,1800.78 2572.44,1047.52 
  "/>
<polyline clip-path="url(#clip690)" style="stroke:#000000; stroke-linecap:round; stroke-linejoin:round; stroke-width:4; stroke-opacity:1; fill:none" points="
  226.978,1800.78 2640.76,1800.78 
  "/>
<polyline clip-path="url(#clip690)" style="stroke:#000000; stroke-linecap:round; stroke-linejoin:round; stroke-width:4; stroke-opacity:1; fill:none" points="
  295.292,1800.78 295.292,1781.88 
  "/>
<polyline clip-path="url(#clip690)" style="stroke:#000000; stroke-linecap:round; stroke-linejoin:round; stroke-width:4; stroke-opacity:1; fill:none" points="
  864.58,1800.78 864.58,1781.88 
  "/>
<polyline clip-path="url(#clip690)" style="stroke:#000000; stroke-linecap:round; stroke-linejoin:round; stroke-width:4; stroke-opacity:1; fill:none" points="
  1433.87,1800.78 1433.87,1781.88 
  "/>
<polyline clip-path="url(#clip690)" style="stroke:#000000; stroke-linecap:round; stroke-linejoin:round; stroke-width:4; stroke-opacity:1; fill:none" points="
  2003.15,1800.78 2003.15,1781.88 
  "/>
<polyline clip-path="url(#clip690)" style="stroke:#000000; stroke-linecap:round; stroke-linejoin:round; stroke-width:4; stroke-opacity:1; fill:none" points="
  2572.44,1800.78 2572.44,1781.88 
  "/>
<path clip-path="url(#clip690)" d="M257.596 1834 Q253.985 1834 252.156 1837.57 Q250.35 1841.11 250.35 1848.24 Q250.35 1855.34 252.156 1858.91 Q253.985 1862.45 257.596 1862.45 Q261.23 1862.45 263.036 1858.91 Q264.864 1855.34 264.864 1848.24 Q264.864 1841.11 263.036 1837.57 Q261.23 1834 257.596 1834 M257.596 1830.3 Q263.406 1830.3 266.461 1834.9 Q269.54 1839.49 269.54 1848.24 Q269.54 1856.96 266.461 1861.57 Q263.406 1866.15 257.596 1866.15 Q251.786 1866.15 248.707 1861.57 Q245.651 1856.96 245.651 1848.24 Q245.651 1839.49 248.707 1834.9 Q251.786 1830.3 257.596 1830.3 Z" fill="#000000" fill-rule="evenodd" fill-opacity="1" /><path clip-path="url(#clip690)" d="M277.758 1859.6 L282.642 1859.6 L282.642 1865.48 L277.758 1865.48 L277.758 1859.6 Z" fill="#000000" fill-rule="evenodd" fill-opacity="1" /><path clip-path="url(#clip690)" d="M302.827 1834 Q299.216 1834 297.387 1837.57 Q295.582 1841.11 295.582 1848.24 Q295.582 1855.34 297.387 1858.91 Q299.216 1862.45 302.827 1862.45 Q306.461 1862.45 308.267 1858.91 Q310.096 1855.34 310.096 1848.24 Q310.096 1841.11 308.267 1837.57 Q306.461 1834 302.827 1834 M302.827 1830.3 Q308.637 1830.3 311.693 1834.9 Q314.771 1839.49 314.771 1848.24 Q314.771 1856.96 311.693 1861.57 Q308.637 1866.15 302.827 1866.15 Q297.017 1866.15 293.938 1861.57 Q290.883 1856.96 290.883 1848.24 Q290.883 1839.49 293.938 1834.9 Q297.017 1830.3 302.827 1830.3 Z" fill="#000000" fill-rule="evenodd" fill-opacity="1" /><path clip-path="url(#clip690)" d="M332.989 1834 Q329.378 1834 327.549 1837.57 Q325.744 1841.11 325.744 1848.24 Q325.744 1855.34 327.549 1858.91 Q329.378 1862.45 332.989 1862.45 Q336.623 1862.45 338.429 1858.91 Q340.257 1855.34 340.257 1848.24 Q340.257 1841.11 338.429 1837.57 Q336.623 1834 332.989 1834 M332.989 1830.3 Q338.799 1830.3 341.855 1834.9 Q344.933 1839.49 344.933 1848.24 Q344.933 1856.96 341.855 1861.57 Q338.799 1866.15 332.989 1866.15 Q327.179 1866.15 324.1 1861.57 Q321.045 1856.96 321.045 1848.24 Q321.045 1839.49 324.1 1834.9 Q327.179 1830.3 332.989 1830.3 Z" fill="#000000" fill-rule="evenodd" fill-opacity="1" /><path clip-path="url(#clip690)" d="M827.381 1834 Q823.77 1834 821.941 1837.57 Q820.135 1841.11 820.135 1848.24 Q820.135 1855.34 821.941 1858.91 Q823.77 1862.45 827.381 1862.45 Q831.015 1862.45 832.821 1858.91 Q834.649 1855.34 834.649 1848.24 Q834.649 1841.11 832.821 1837.57 Q831.015 1834 827.381 1834 M827.381 1830.3 Q833.191 1830.3 836.246 1834.9 Q839.325 1839.49 839.325 1848.24 Q839.325 1856.96 836.246 1861.57 Q833.191 1866.15 827.381 1866.15 Q821.571 1866.15 818.492 1861.57 Q815.436 1856.96 815.436 1848.24 Q815.436 1839.49 818.492 1834.9 Q821.571 1830.3 827.381 1830.3 Z" fill="#000000" fill-rule="evenodd" fill-opacity="1" /><path clip-path="url(#clip690)" d="M847.543 1859.6 L852.427 1859.6 L852.427 1865.48 L847.543 1865.48 L847.543 1859.6 Z" fill="#000000" fill-rule="evenodd" fill-opacity="1" /><path clip-path="url(#clip690)" d="M866.64 1861.55 L882.959 1861.55 L882.959 1865.48 L861.015 1865.48 L861.015 1861.55 Q863.677 1858.79 868.26 1854.16 Q872.867 1849.51 874.047 1848.17 Q876.293 1845.65 877.172 1843.91 Q878.075 1842.15 878.075 1840.46 Q878.075 1837.71 876.13 1835.97 Q874.209 1834.23 871.107 1834.23 Q868.908 1834.23 866.455 1835 Q864.024 1835.76 861.246 1837.31 L861.246 1832.59 Q864.07 1831.46 866.524 1830.88 Q868.978 1830.3 871.015 1830.3 Q876.385 1830.3 879.58 1832.98 Q882.774 1835.67 882.774 1840.16 Q882.774 1842.29 881.964 1844.21 Q881.177 1846.11 879.07 1848.7 Q878.492 1849.37 875.39 1852.59 Q872.288 1855.78 866.64 1861.55 Z" fill="#000000" fill-rule="evenodd" fill-opacity="1" /><path clip-path="url(#clip690)" d="M892.82 1830.92 L911.177 1830.92 L911.177 1834.86 L897.103 1834.86 L897.103 1843.33 Q898.121 1842.98 899.14 1842.82 Q900.158 1842.64 901.177 1842.64 Q906.964 1842.64 910.343 1845.81 Q913.723 1848.98 913.723 1854.4 Q913.723 1859.97 910.251 1863.08 Q906.778 1866.15 900.459 1866.15 Q898.283 1866.15 896.015 1865.78 Q893.769 1865.41 891.362 1864.67 L891.362 1859.97 Q893.445 1861.11 895.667 1861.66 Q897.89 1862.22 900.366 1862.22 Q904.371 1862.22 906.709 1860.11 Q909.047 1858.01 909.047 1854.4 Q909.047 1850.78 906.709 1848.68 Q904.371 1846.57 900.366 1846.57 Q898.491 1846.57 896.616 1846.99 Q894.765 1847.4 892.82 1848.28 L892.82 1830.92 Z" fill="#000000" fill-rule="evenodd" fill-opacity="1" /><path clip-path="url(#clip690)" d="M1396.17 1834 Q1392.56 1834 1390.73 1837.57 Q1388.93 1841.11 1388.93 1848.24 Q1388.93 1855.34 1390.73 1858.91 Q1392.56 1862.45 1396.17 1862.45 Q1399.8 1862.45 1401.61 1858.91 Q1403.44 1855.34 1403.44 1848.24 Q1403.44 1841.11 1401.61 1837.57 Q1399.8 1834 1396.17 1834 M1396.17 1830.3 Q1401.98 1830.3 1405.04 1834.9 Q1408.11 1839.49 1408.11 1848.24 Q1408.11 1856.96 1405.04 1861.57 Q1401.98 1866.15 1396.17 1866.15 Q1390.36 1866.15 1387.28 1861.57 Q1384.23 1856.96 1384.23 1848.24 Q1384.23 1839.49 1387.28 1834.9 Q1390.36 1830.3 1396.17 1830.3 Z" fill="#000000" fill-rule="evenodd" fill-opacity="1" /><path clip-path="url(#clip690)" d="M1416.33 1859.6 L1421.22 1859.6 L1421.22 1865.48 L1416.33 1865.48 L1416.33 1859.6 Z" fill="#000000" fill-rule="evenodd" fill-opacity="1" /><path clip-path="url(#clip690)" d="M1431.45 1830.92 L1449.8 1830.92 L1449.8 1834.86 L1435.73 1834.86 L1435.73 1843.33 Q1436.75 1842.98 1437.77 1842.82 Q1438.79 1842.64 1439.8 1842.64 Q1445.59 1842.64 1448.97 1845.81 Q1452.35 1848.98 1452.35 1854.4 Q1452.35 1859.97 1448.88 1863.08 Q1445.41 1866.15 1439.09 1866.15 Q1436.91 1866.15 1434.64 1865.78 Q1432.4 1865.41 1429.99 1864.67 L1429.99 1859.97 Q1432.07 1861.11 1434.3 1861.66 Q1436.52 1862.22 1438.99 1862.22 Q1443 1862.22 1445.34 1860.11 Q1447.67 1858.01 1447.67 1854.4 Q1447.67 1850.78 1445.34 1848.68 Q1443 1846.57 1438.99 1846.57 Q1437.12 1846.57 1435.24 1846.99 Q1433.39 1847.4 1431.45 1848.28 L1431.45 1830.92 Z" fill="#000000" fill-rule="evenodd" fill-opacity="1" /><path clip-path="url(#clip690)" d="M1471.56 1834 Q1467.95 1834 1466.12 1837.57 Q1464.32 1841.11 1464.32 1848.24 Q1464.32 1855.34 1466.12 1858.91 Q1467.95 1862.45 1471.56 1862.45 Q1475.2 1862.45 1477 1858.91 Q1478.83 1855.34 1478.83 1848.24 Q1478.83 1841.11 1477 1837.57 Q1475.2 1834 1471.56 1834 M1471.56 1830.3 Q1477.37 1830.3 1480.43 1834.9 Q1483.51 1839.49 1483.51 1848.24 Q1483.51 1856.96 1480.43 1861.57 Q1477.37 1866.15 1471.56 1866.15 Q1465.75 1866.15 1462.67 1861.57 Q1459.62 1856.96 1459.62 1848.24 Q1459.62 1839.49 1462.67 1834.9 Q1465.75 1830.3 1471.56 1830.3 Z" fill="#000000" fill-rule="evenodd" fill-opacity="1" /><path clip-path="url(#clip690)" d="M1965.96 1834 Q1962.34 1834 1960.52 1837.57 Q1958.71 1841.11 1958.71 1848.24 Q1958.71 1855.34 1960.52 1858.91 Q1962.34 1862.45 1965.96 1862.45 Q1969.59 1862.45 1971.4 1858.91 Q1973.22 1855.34 1973.22 1848.24 Q1973.22 1841.11 1971.4 1837.57 Q1969.59 1834 1965.96 1834 M1965.96 1830.3 Q1971.77 1830.3 1974.82 1834.9 Q1977.9 1839.49 1977.9 1848.24 Q1977.9 1856.96 1974.82 1861.57 Q1971.77 1866.15 1965.96 1866.15 Q1960.15 1866.15 1957.07 1861.57 Q1954.01 1856.96 1954.01 1848.24 Q1954.01 1839.49 1957.07 1834.9 Q1960.15 1830.3 1965.96 1830.3 Z" fill="#000000" fill-rule="evenodd" fill-opacity="1" /><path clip-path="url(#clip690)" d="M1986.12 1859.6 L1991 1859.6 L1991 1865.48 L1986.12 1865.48 L1986.12 1859.6 Z" fill="#000000" fill-rule="evenodd" fill-opacity="1" /><path clip-path="url(#clip690)" d="M2000.01 1830.92 L2022.23 1830.92 L2022.23 1832.91 L2009.68 1865.48 L2004.8 1865.48 L2016.6 1834.86 L2000.01 1834.86 L2000.01 1830.92 Z" fill="#000000" fill-rule="evenodd" fill-opacity="1" /><path clip-path="url(#clip690)" d="M2031.39 1830.92 L2049.75 1830.92 L2049.75 1834.86 L2035.68 1834.86 L2035.68 1843.33 Q2036.7 1842.98 2037.71 1842.82 Q2038.73 1842.64 2039.75 1842.64 Q2045.54 1842.64 2048.92 1845.81 Q2052.3 1848.98 2052.3 1854.4 Q2052.3 1859.97 2048.83 1863.08 Q2045.35 1866.15 2039.03 1866.15 Q2036.86 1866.15 2034.59 1865.78 Q2032.34 1865.41 2029.94 1864.67 L2029.94 1859.97 Q2032.02 1861.11 2034.24 1861.66 Q2036.46 1862.22 2038.94 1862.22 Q2042.95 1862.22 2045.28 1860.11 Q2047.62 1858.01 2047.62 1854.4 Q2047.62 1850.78 2045.28 1848.68 Q2042.95 1846.57 2038.94 1846.57 Q2037.07 1846.57 2035.19 1846.99 Q2033.34 1847.4 2031.39 1848.28 L2031.39 1830.92 Z" fill="#000000" fill-rule="evenodd" fill-opacity="1" /><path clip-path="url(#clip690)" d="M2524.51 1861.55 L2532.15 1861.55 L2532.15 1835.18 L2523.84 1836.85 L2523.84 1832.59 L2532.11 1830.92 L2536.78 1830.92 L2536.78 1861.55 L2544.42 1861.55 L2544.42 1865.48 L2524.51 1865.48 L2524.51 1861.55 Z" fill="#000000" fill-rule="evenodd" fill-opacity="1" /><path clip-path="url(#clip690)" d="M2553.87 1859.6 L2558.75 1859.6 L2558.75 1865.48 L2553.87 1865.48 L2553.87 1859.6 Z" fill="#000000" fill-rule="evenodd" fill-opacity="1" /><path clip-path="url(#clip690)" d="M2578.93 1834 Q2575.32 1834 2573.49 1837.57 Q2571.69 1841.11 2571.69 1848.24 Q2571.69 1855.34 2573.49 1858.91 Q2575.32 1862.45 2578.93 1862.45 Q2582.57 1862.45 2584.37 1858.91 Q2586.2 1855.34 2586.2 1848.24 Q2586.2 1841.11 2584.37 1837.57 Q2582.57 1834 2578.93 1834 M2578.93 1830.3 Q2584.74 1830.3 2587.8 1834.9 Q2590.88 1839.49 2590.88 1848.24 Q2590.88 1856.96 2587.8 1861.57 Q2584.74 1866.15 2578.93 1866.15 Q2573.12 1866.15 2570.05 1861.57 Q2566.99 1856.96 2566.99 1848.24 Q2566.99 1839.49 2570.05 1834.9 Q2573.12 1830.3 2578.93 1830.3 Z" fill="#000000" fill-rule="evenodd" fill-opacity="1" /><path clip-path="url(#clip690)" d="M2609.1 1834 Q2605.49 1834 2603.66 1837.57 Q2601.85 1841.11 2601.85 1848.24 Q2601.85 1855.34 2603.66 1858.91 Q2605.49 1862.45 2609.1 1862.45 Q2612.73 1862.45 2614.54 1858.91 Q2616.36 1855.34 2616.36 1848.24 Q2616.36 1841.11 2614.54 1837.57 Q2612.73 1834 2609.1 1834 M2609.1 1830.3 Q2614.91 1830.3 2617.96 1834.9 Q2621.04 1839.49 2621.04 1848.24 Q2621.04 1856.96 2617.96 1861.57 Q2614.91 1866.15 2609.1 1866.15 Q2603.29 1866.15 2600.21 1861.57 Q2597.15 1856.96 2597.15 1848.24 Q2597.15 1839.49 2600.21 1834.9 Q2603.29 1830.3 2609.1 1830.3 Z" fill="#000000" fill-rule="evenodd" fill-opacity="1" /><polyline clip-path="url(#clip693)" style="stroke:#000000; stroke-linecap:round; stroke-linejoin:round; stroke-width:2; stroke-opacity:0.1; fill:none" points="
  226.978,1779.46 2640.76,1779.46 
  "/>
<polyline clip-path="url(#clip693)" style="stroke:#000000; stroke-linecap:round; stroke-linejoin:round; stroke-width:2; stroke-opacity:0.1; fill:none" points="
  226.978,1601.8 2640.76,1601.8 
  "/>
<polyline clip-path="url(#clip693)" style="stroke:#000000; stroke-linecap:round; stroke-linejoin:round; stroke-width:2; stroke-opacity:0.1; fill:none" points="
  226.978,1424.15 2640.76,1424.15 
  "/>
<polyline clip-path="url(#clip693)" style="stroke:#000000; stroke-linecap:round; stroke-linejoin:round; stroke-width:2; stroke-opacity:0.1; fill:none" points="
  226.978,1246.49 2640.76,1246.49 
  "/>
<polyline clip-path="url(#clip693)" style="stroke:#000000; stroke-linecap:round; stroke-linejoin:round; stroke-width:2; stroke-opacity:0.1; fill:none" points="
  226.978,1068.84 2640.76,1068.84 
  "/>
<polyline clip-path="url(#clip690)" style="stroke:#000000; stroke-linecap:round; stroke-linejoin:round; stroke-width:4; stroke-opacity:1; fill:none" points="
  226.978,1800.78 226.978,1047.52 
  "/>
<polyline clip-path="url(#clip690)" style="stroke:#000000; stroke-linecap:round; stroke-linejoin:round; stroke-width:4; stroke-opacity:1; fill:none" points="
  226.978,1779.46 245.876,1779.46 
  "/>
<polyline clip-path="url(#clip690)" style="stroke:#000000; stroke-linecap:round; stroke-linejoin:round; stroke-width:4; stroke-opacity:1; fill:none" points="
  226.978,1601.8 245.876,1601.8 
  "/>
<polyline clip-path="url(#clip690)" style="stroke:#000000; stroke-linecap:round; stroke-linejoin:round; stroke-width:4; stroke-opacity:1; fill:none" points="
  226.978,1424.15 245.876,1424.15 
  "/>
<polyline clip-path="url(#clip690)" style="stroke:#000000; stroke-linecap:round; stroke-linejoin:round; stroke-width:4; stroke-opacity:1; fill:none" points="
  226.978,1246.49 245.876,1246.49 
  "/>
<polyline clip-path="url(#clip690)" style="stroke:#000000; stroke-linecap:round; stroke-linejoin:round; stroke-width:4; stroke-opacity:1; fill:none" points="
  226.978,1068.84 245.876,1068.84 
  "/>
<path clip-path="url(#clip690)" d="M99.3204 1765.26 Q95.7093 1765.26 93.8806 1768.82 Q92.075 1772.37 92.075 1779.5 Q92.075 1786.6 93.8806 1790.17 Q95.7093 1793.71 99.3204 1793.71 Q102.955 1793.71 104.76 1790.17 Q106.589 1786.6 106.589 1779.5 Q106.589 1772.37 104.76 1768.82 Q102.955 1765.26 99.3204 1765.26 M99.3204 1761.56 Q105.131 1761.56 108.186 1766.16 Q111.265 1770.75 111.265 1779.5 Q111.265 1788.22 108.186 1792.83 Q105.131 1797.41 99.3204 1797.41 Q93.5102 1797.41 90.4315 1792.83 Q87.376 1788.22 87.376 1779.5 Q87.376 1770.75 90.4315 1766.16 Q93.5102 1761.56 99.3204 1761.56 Z" fill="#000000" fill-rule="evenodd" fill-opacity="1" /><path clip-path="url(#clip690)" d="M119.482 1790.86 L124.367 1790.86 L124.367 1796.74 L119.482 1796.74 L119.482 1790.86 Z" fill="#000000" fill-rule="evenodd" fill-opacity="1" /><path clip-path="url(#clip690)" d="M144.552 1765.26 Q140.941 1765.26 139.112 1768.82 Q137.306 1772.37 137.306 1779.5 Q137.306 1786.6 139.112 1790.17 Q140.941 1793.71 144.552 1793.71 Q148.186 1793.71 149.991 1790.17 Q151.82 1786.6 151.82 1779.5 Q151.82 1772.37 149.991 1768.82 Q148.186 1765.26 144.552 1765.26 M144.552 1761.56 Q150.362 1761.56 153.417 1766.16 Q156.496 1770.75 156.496 1779.5 Q156.496 1788.22 153.417 1792.83 Q150.362 1797.41 144.552 1797.41 Q138.741 1797.41 135.663 1792.83 Q132.607 1788.22 132.607 1779.5 Q132.607 1770.75 135.663 1766.16 Q138.741 1761.56 144.552 1761.56 Z" fill="#000000" fill-rule="evenodd" fill-opacity="1" /><path clip-path="url(#clip690)" d="M174.713 1765.26 Q171.102 1765.26 169.274 1768.82 Q167.468 1772.37 167.468 1779.5 Q167.468 1786.6 169.274 1790.17 Q171.102 1793.71 174.713 1793.71 Q178.348 1793.71 180.153 1790.17 Q181.982 1786.6 181.982 1779.5 Q181.982 1772.37 180.153 1768.82 Q178.348 1765.26 174.713 1765.26 M174.713 1761.56 Q180.524 1761.56 183.579 1766.16 Q186.658 1770.75 186.658 1779.5 Q186.658 1788.22 183.579 1792.83 Q180.524 1797.41 174.713 1797.41 Q168.903 1797.41 165.825 1792.83 Q162.769 1788.22 162.769 1779.5 Q162.769 1770.75 165.825 1766.16 Q168.903 1761.56 174.713 1761.56 Z" fill="#000000" fill-rule="evenodd" fill-opacity="1" /><path clip-path="url(#clip690)" d="M100.316 1587.6 Q96.7047 1587.6 94.876 1591.17 Q93.0704 1594.71 93.0704 1601.84 Q93.0704 1608.95 94.876 1612.51 Q96.7047 1616.05 100.316 1616.05 Q103.95 1616.05 105.756 1612.51 Q107.584 1608.95 107.584 1601.84 Q107.584 1594.71 105.756 1591.17 Q103.95 1587.6 100.316 1587.6 M100.316 1583.9 Q106.126 1583.9 109.181 1588.51 Q112.26 1593.09 112.26 1601.84 Q112.26 1610.57 109.181 1615.17 Q106.126 1619.76 100.316 1619.76 Q94.5056 1619.76 91.4269 1615.17 Q88.3714 1610.57 88.3714 1601.84 Q88.3714 1593.09 91.4269 1588.51 Q94.5056 1583.9 100.316 1583.9 Z" fill="#000000" fill-rule="evenodd" fill-opacity="1" /><path clip-path="url(#clip690)" d="M120.478 1613.21 L125.362 1613.21 L125.362 1619.08 L120.478 1619.08 L120.478 1613.21 Z" fill="#000000" fill-rule="evenodd" fill-opacity="1" /><path clip-path="url(#clip690)" d="M139.575 1615.15 L155.894 1615.15 L155.894 1619.08 L133.95 1619.08 L133.95 1615.15 Q136.612 1612.39 141.195 1607.77 Q145.802 1603.11 146.982 1601.77 Q149.228 1599.25 150.107 1597.51 Q151.01 1595.75 151.01 1594.06 Q151.01 1591.31 149.065 1589.57 Q147.144 1587.83 144.042 1587.83 Q141.843 1587.83 139.39 1588.6 Q136.959 1589.36 134.181 1590.91 L134.181 1586.19 Q137.005 1585.06 139.459 1584.48 Q141.913 1583.9 143.95 1583.9 Q149.32 1583.9 152.515 1586.58 Q155.709 1589.27 155.709 1593.76 Q155.709 1595.89 154.899 1597.81 Q154.112 1599.71 152.005 1602.3 Q151.427 1602.97 148.325 1606.19 Q145.223 1609.39 139.575 1615.15 Z" fill="#000000" fill-rule="evenodd" fill-opacity="1" /><path clip-path="url(#clip690)" d="M165.755 1584.52 L184.112 1584.52 L184.112 1588.46 L170.038 1588.46 L170.038 1596.93 Q171.056 1596.58 172.075 1596.42 Q173.093 1596.24 174.112 1596.24 Q179.899 1596.24 183.278 1599.41 Q186.658 1602.58 186.658 1608 Q186.658 1613.58 183.186 1616.68 Q179.713 1619.76 173.394 1619.76 Q171.218 1619.76 168.95 1619.39 Q166.704 1619.02 164.297 1618.27 L164.297 1613.58 Q166.38 1614.71 168.602 1615.27 Q170.825 1615.82 173.301 1615.82 Q177.306 1615.82 179.644 1613.71 Q181.982 1611.61 181.982 1608 Q181.982 1604.39 179.644 1602.28 Q177.306 1600.17 173.301 1600.17 Q171.426 1600.17 169.551 1600.59 Q167.7 1601.01 165.755 1601.89 L165.755 1584.52 Z" fill="#000000" fill-rule="evenodd" fill-opacity="1" /><path clip-path="url(#clip690)" d="M99.3204 1409.95 Q95.7093 1409.95 93.8806 1413.51 Q92.075 1417.05 92.075 1424.18 Q92.075 1431.29 93.8806 1434.85 Q95.7093 1438.4 99.3204 1438.4 Q102.955 1438.4 104.76 1434.85 Q106.589 1431.29 106.589 1424.18 Q106.589 1417.05 104.76 1413.51 Q102.955 1409.95 99.3204 1409.95 M99.3204 1406.24 Q105.131 1406.24 108.186 1410.85 Q111.265 1415.43 111.265 1424.18 Q111.265 1432.91 108.186 1437.52 Q105.131 1442.1 99.3204 1442.1 Q93.5102 1442.1 90.4315 1437.52 Q87.376 1432.91 87.376 1424.18 Q87.376 1415.43 90.4315 1410.85 Q93.5102 1406.24 99.3204 1406.24 Z" fill="#000000" fill-rule="evenodd" fill-opacity="1" /><path clip-path="url(#clip690)" d="M119.482 1435.55 L124.367 1435.55 L124.367 1441.43 L119.482 1441.43 L119.482 1435.55 Z" fill="#000000" fill-rule="evenodd" fill-opacity="1" /><path clip-path="url(#clip690)" d="M134.598 1406.87 L152.954 1406.87 L152.954 1410.8 L138.88 1410.8 L138.88 1419.28 Q139.899 1418.93 140.917 1418.77 Q141.936 1418.58 142.954 1418.58 Q148.741 1418.58 152.121 1421.75 Q155.501 1424.92 155.501 1430.34 Q155.501 1435.92 152.028 1439.02 Q148.556 1442.1 142.237 1442.1 Q140.061 1442.1 137.792 1441.73 Q135.547 1441.36 133.14 1440.62 L133.14 1435.92 Q135.223 1437.05 137.445 1437.61 Q139.667 1438.16 142.144 1438.16 Q146.149 1438.16 148.487 1436.06 Q150.825 1433.95 150.825 1430.34 Q150.825 1426.73 148.487 1424.62 Q146.149 1422.52 142.144 1422.52 Q140.269 1422.52 138.394 1422.93 Q136.542 1423.35 134.598 1424.23 L134.598 1406.87 Z" fill="#000000" fill-rule="evenodd" fill-opacity="1" /><path clip-path="url(#clip690)" d="M174.713 1409.95 Q171.102 1409.95 169.274 1413.51 Q167.468 1417.05 167.468 1424.18 Q167.468 1431.29 169.274 1434.85 Q171.102 1438.4 174.713 1438.4 Q178.348 1438.4 180.153 1434.85 Q181.982 1431.29 181.982 1424.18 Q181.982 1417.05 180.153 1413.51 Q178.348 1409.95 174.713 1409.95 M174.713 1406.24 Q180.524 1406.24 183.579 1410.85 Q186.658 1415.43 186.658 1424.18 Q186.658 1432.91 183.579 1437.52 Q180.524 1442.1 174.713 1442.1 Q168.903 1442.1 165.825 1437.52 Q162.769 1432.91 162.769 1424.18 Q162.769 1415.43 165.825 1410.85 Q168.903 1406.24 174.713 1406.24 Z" fill="#000000" fill-rule="evenodd" fill-opacity="1" /><path clip-path="url(#clip690)" d="M100.316 1232.29 Q96.7047 1232.29 94.876 1235.86 Q93.0704 1239.4 93.0704 1246.53 Q93.0704 1253.63 94.876 1257.2 Q96.7047 1260.74 100.316 1260.74 Q103.95 1260.74 105.756 1257.2 Q107.584 1253.63 107.584 1246.53 Q107.584 1239.4 105.756 1235.86 Q103.95 1232.29 100.316 1232.29 M100.316 1228.59 Q106.126 1228.59 109.181 1233.19 Q112.26 1237.78 112.26 1246.53 Q112.26 1255.25 109.181 1259.86 Q106.126 1264.44 100.316 1264.44 Q94.5056 1264.44 91.4269 1259.86 Q88.3714 1255.25 88.3714 1246.53 Q88.3714 1237.78 91.4269 1233.19 Q94.5056 1228.59 100.316 1228.59 Z" fill="#000000" fill-rule="evenodd" fill-opacity="1" /><path clip-path="url(#clip690)" d="M120.478 1257.89 L125.362 1257.89 L125.362 1263.77 L120.478 1263.77 L120.478 1257.89 Z" fill="#000000" fill-rule="evenodd" fill-opacity="1" /><path clip-path="url(#clip690)" d="M134.366 1229.21 L156.589 1229.21 L156.589 1231.2 L144.042 1263.77 L139.158 1263.77 L150.964 1233.15 L134.366 1233.15 L134.366 1229.21 Z" fill="#000000" fill-rule="evenodd" fill-opacity="1" /><path clip-path="url(#clip690)" d="M165.755 1229.21 L184.112 1229.21 L184.112 1233.15 L170.038 1233.15 L170.038 1241.62 Q171.056 1241.27 172.075 1241.11 Q173.093 1240.93 174.112 1240.93 Q179.899 1240.93 183.278 1244.1 Q186.658 1247.27 186.658 1252.68 Q186.658 1258.26 183.186 1261.37 Q179.713 1264.44 173.394 1264.44 Q171.218 1264.44 168.95 1264.07 Q166.704 1263.7 164.297 1262.96 L164.297 1258.26 Q166.38 1259.4 168.602 1259.95 Q170.825 1260.51 173.301 1260.51 Q177.306 1260.51 179.644 1258.4 Q181.982 1256.3 181.982 1252.68 Q181.982 1249.07 179.644 1246.97 Q177.306 1244.86 173.301 1244.86 Q171.426 1244.86 169.551 1245.28 Q167.7 1245.69 165.755 1246.57 L165.755 1229.21 Z" fill="#000000" fill-rule="evenodd" fill-opacity="1" /><path clip-path="url(#clip690)" d="M90.1306 1082.18 L97.7695 1082.18 L97.7695 1055.82 L89.4593 1057.48 L89.4593 1053.22 L97.7232 1051.56 L102.399 1051.56 L102.399 1082.18 L110.038 1082.18 L110.038 1086.12 L90.1306 1086.12 L90.1306 1082.18 Z" fill="#000000" fill-rule="evenodd" fill-opacity="1" /><path clip-path="url(#clip690)" d="M119.482 1080.24 L124.367 1080.24 L124.367 1086.12 L119.482 1086.12 L119.482 1080.24 Z" fill="#000000" fill-rule="evenodd" fill-opacity="1" /><path clip-path="url(#clip690)" d="M144.552 1054.64 Q140.941 1054.64 139.112 1058.2 Q137.306 1061.74 137.306 1068.87 Q137.306 1075.98 139.112 1079.54 Q140.941 1083.08 144.552 1083.08 Q148.186 1083.08 149.991 1079.54 Q151.82 1075.98 151.82 1068.87 Q151.82 1061.74 149.991 1058.2 Q148.186 1054.64 144.552 1054.64 M144.552 1050.93 Q150.362 1050.93 153.417 1055.54 Q156.496 1060.12 156.496 1068.87 Q156.496 1077.6 153.417 1082.2 Q150.362 1086.79 144.552 1086.79 Q138.741 1086.79 135.663 1082.2 Q132.607 1077.6 132.607 1068.87 Q132.607 1060.12 135.663 1055.54 Q138.741 1050.93 144.552 1050.93 Z" fill="#000000" fill-rule="evenodd" fill-opacity="1" /><path clip-path="url(#clip690)" d="M174.713 1054.64 Q171.102 1054.64 169.274 1058.2 Q167.468 1061.74 167.468 1068.87 Q167.468 1075.98 169.274 1079.54 Q171.102 1083.08 174.713 1083.08 Q178.348 1083.08 180.153 1079.54 Q181.982 1075.98 181.982 1068.87 Q181.982 1061.74 180.153 1058.2 Q178.348 1054.64 174.713 1054.64 M174.713 1050.93 Q180.524 1050.93 183.579 1055.54 Q186.658 1060.12 186.658 1068.87 Q186.658 1077.6 183.579 1082.2 Q180.524 1086.79 174.713 1086.79 Q168.903 1086.79 165.825 1082.2 Q162.769 1077.6 162.769 1068.87 Q162.769 1060.12 165.825 1055.54 Q168.903 1050.93 174.713 1050.93 Z" fill="#000000" fill-rule="evenodd" fill-opacity="1" /><polyline clip-path="url(#clip693)" style="stroke:#009af9; stroke-linecap:round; stroke-linejoin:round; stroke-width:4; stroke-opacity:1; fill:none" points="
  295.292,1779.46 318.064,1779.46 340.835,1779.46 363.607,1779.46 386.378,1779.46 409.15,1779.46 431.921,1779.46 454.693,1779.46 477.464,1779.46 500.236,1779.46 
  523.007,1779.46 545.779,1779.46 568.55,1779.46 591.322,1779.46 614.093,1779.46 636.865,1779.46 659.636,1779.46 682.408,1779.46 705.179,1779.46 727.951,1779.46 
  750.722,1779.46 773.494,1779.46 796.265,1779.46 819.037,1779.46 841.808,1779.46 864.58,1779.46 887.351,1068.84 910.123,1068.84 932.894,1068.84 955.666,1068.84 
  978.437,1068.84 1001.21,1068.84 1023.98,1068.84 1046.75,1068.84 1069.52,1068.84 1092.29,1068.84 1115.07,1068.84 1137.84,1068.84 1160.61,1068.84 1183.38,1068.84 
  1206.15,1068.84 1228.92,1068.84 1251.69,1068.84 1274.47,1068.84 1297.24,1068.84 1320.01,1068.84 1342.78,1068.84 1365.55,1068.84 1388.32,1068.84 1411.1,1068.84 
  1433.87,1068.84 1456.64,1068.84 1479.41,1068.84 1502.18,1068.84 1524.95,1068.84 1547.72,1068.84 1570.5,1068.84 1593.27,1068.84 1616.04,1068.84 1638.81,1068.84 
  1661.58,1068.84 1684.35,1068.84 1707.12,1068.84 1729.9,1068.84 1752.67,1068.84 1775.44,1068.84 1798.21,1068.84 1820.98,1068.84 1843.75,1068.84 1866.53,1068.84 
  1889.3,1068.84 1912.07,1068.84 1934.84,1068.84 1957.61,1068.84 1980.38,1068.84 2003.15,1779.46 2025.93,1779.46 2048.7,1779.46 2071.47,1779.46 2094.24,1779.46 
  2117.01,1779.46 2139.78,1779.46 2162.55,1779.46 2185.33,1779.46 2208.1,1779.46 2230.87,1779.46 2253.64,1779.46 2276.41,1779.46 2299.18,1779.46 2321.96,1779.46 
  2344.73,1779.46 2367.5,1779.46 2390.27,1779.46 2413.04,1779.46 2435.81,1779.46 2458.58,1779.46 2481.36,1779.46 2504.13,1779.46 2526.9,1779.46 2549.67,1779.46 
  2572.44,1779.46 
  "/>
<path clip-path="url(#clip690)" d="
M2117.84 1176.31 L2560.3 1176.31 L2560.3 1072.63 L2117.84 1072.63  Z
  " fill="#ffffff" fill-rule="evenodd" fill-opacity="1"/>
<polyline clip-path="url(#clip690)" style="stroke:#000000; stroke-linecap:round; stroke-linejoin:round; stroke-width:4; stroke-opacity:1; fill:none" points="
  2117.84,1176.31 2560.3,1176.31 2560.3,1072.63 2117.84,1072.63 2117.84,1176.31 
  "/>
<polyline clip-path="url(#clip690)" style="stroke:#009af9; stroke-linecap:round; stroke-linejoin:round; stroke-width:4; stroke-opacity:1; fill:none" points="
  2144.66,1124.47 2305.58,1124.47 
  "/>
<path clip-path="url(#clip690)" d="M2360.27 1109.85 L2360.27 1114.78 Q2357.91 1112.58 2355.22 1111.49 Q2352.56 1110.4 2349.55 1110.4 Q2343.63 1110.4 2340.48 1114.04 Q2337.33 1117.65 2337.33 1124.5 Q2337.33 1131.33 2340.48 1134.96 Q2343.63 1138.58 2349.55 1138.58 Q2352.56 1138.58 2355.22 1137.49 Q2357.91 1136.4 2360.27 1134.2 L2360.27 1139.08 Q2357.82 1140.75 2355.06 1141.58 Q2352.33 1142.42 2349.27 1142.42 Q2341.43 1142.42 2336.91 1137.63 Q2332.4 1132.81 2332.4 1124.5 Q2332.4 1116.17 2336.91 1111.38 Q2341.43 1106.56 2349.27 1106.56 Q2352.38 1106.56 2355.11 1107.4 Q2357.86 1108.21 2360.27 1109.85 Z" fill="#000000" fill-rule="evenodd" fill-opacity="1" /><path clip-path="url(#clip690)" d="M2366.87 1131.52 L2366.87 1115.82 L2371.13 1115.82 L2371.13 1131.35 Q2371.13 1135.03 2372.56 1136.89 Q2374 1138.71 2376.87 1138.71 Q2380.32 1138.71 2382.31 1136.52 Q2384.32 1134.32 2384.32 1130.52 L2384.32 1115.82 L2388.58 1115.82 L2388.58 1141.75 L2384.32 1141.75 L2384.32 1137.77 Q2382.77 1140.13 2380.71 1141.28 Q2378.67 1142.42 2375.96 1142.42 Q2371.5 1142.42 2369.18 1139.64 Q2366.87 1136.86 2366.87 1131.52 M2377.58 1115.2 L2377.58 1115.2 Z" fill="#000000" fill-rule="evenodd" fill-opacity="1" /><path clip-path="url(#clip690)" d="M2412.38 1119.8 Q2411.66 1119.39 2410.8 1119.2 Q2409.97 1118.99 2408.95 1118.99 Q2405.34 1118.99 2403.39 1121.35 Q2401.47 1123.69 2401.47 1128.09 L2401.47 1141.75 L2397.19 1141.75 L2397.19 1115.82 L2401.47 1115.82 L2401.47 1119.85 Q2402.82 1117.49 2404.97 1116.35 Q2407.12 1115.2 2410.2 1115.2 Q2410.64 1115.2 2411.17 1115.27 Q2411.7 1115.31 2412.35 1115.43 L2412.38 1119.8 Z" fill="#000000" fill-rule="evenodd" fill-opacity="1" /><path clip-path="url(#clip690)" d="M2431.03 1119.8 Q2430.31 1119.39 2429.46 1119.2 Q2428.63 1118.99 2427.61 1118.99 Q2424 1118.99 2422.05 1121.35 Q2420.13 1123.69 2420.13 1128.09 L2420.13 1141.75 L2415.85 1141.75 L2415.85 1115.82 L2420.13 1115.82 L2420.13 1119.85 Q2421.47 1117.49 2423.63 1116.35 Q2425.78 1115.2 2428.86 1115.2 Q2429.3 1115.2 2429.83 1115.27 Q2430.36 1115.31 2431.01 1115.43 L2431.03 1119.8 Z" fill="#000000" fill-rule="evenodd" fill-opacity="1" /><path clip-path="url(#clip690)" d="M2456.63 1127.72 L2456.63 1129.8 L2437.05 1129.8 Q2437.33 1134.2 2439.69 1136.52 Q2442.07 1138.81 2446.31 1138.81 Q2448.76 1138.81 2451.06 1138.21 Q2453.37 1137.6 2455.64 1136.4 L2455.64 1140.43 Q2453.35 1141.4 2450.94 1141.91 Q2448.53 1142.42 2446.06 1142.42 Q2439.85 1142.42 2436.22 1138.81 Q2432.61 1135.2 2432.61 1129.04 Q2432.61 1122.67 2436.03 1118.95 Q2439.48 1115.2 2445.31 1115.2 Q2450.55 1115.2 2453.58 1118.58 Q2456.63 1121.93 2456.63 1127.72 M2452.38 1126.47 Q2452.33 1122.97 2450.41 1120.89 Q2448.51 1118.81 2445.36 1118.81 Q2441.8 1118.81 2439.64 1120.82 Q2437.51 1122.83 2437.19 1126.49 L2452.38 1126.47 Z" fill="#000000" fill-rule="evenodd" fill-opacity="1" /><path clip-path="url(#clip690)" d="M2485.18 1126.1 L2485.18 1141.75 L2480.92 1141.75 L2480.92 1126.24 Q2480.92 1122.56 2479.48 1120.73 Q2478.05 1118.9 2475.18 1118.9 Q2471.73 1118.9 2469.74 1121.1 Q2467.75 1123.3 2467.75 1127.09 L2467.75 1141.75 L2463.46 1141.75 L2463.46 1115.82 L2467.75 1115.82 L2467.75 1119.85 Q2469.27 1117.51 2471.33 1116.35 Q2473.42 1115.2 2476.12 1115.2 Q2480.59 1115.2 2482.88 1117.97 Q2485.18 1120.73 2485.18 1126.1 Z" fill="#000000" fill-rule="evenodd" fill-opacity="1" /><path clip-path="url(#clip690)" d="M2497.88 1108.46 L2497.88 1115.82 L2506.66 1115.82 L2506.66 1119.13 L2497.88 1119.13 L2497.88 1133.21 Q2497.88 1136.38 2498.74 1137.28 Q2499.62 1138.18 2502.28 1138.18 L2506.66 1138.18 L2506.66 1141.75 L2502.28 1141.75 Q2497.35 1141.75 2495.48 1139.92 Q2493.6 1138.07 2493.6 1133.21 L2493.6 1119.13 L2490.48 1119.13 L2490.48 1115.82 L2493.6 1115.82 L2493.6 1108.46 L2497.88 1108.46 Z" fill="#000000" fill-rule="evenodd" fill-opacity="1" /></svg>
