<?xml version="1.0" encoding="utf-8"?>
<svg xmlns="http://www.w3.org/2000/svg" xmlns:xlink="http://www.w3.org/1999/xlink" width="672" height="480" viewBox="0 0 2688 1920">
<defs>
  <clipPath id="clip890">
    <rect x="0" y="0" width="2688" height="1920"/>
  </clipPath>
</defs>
<path clip-path="url(#clip890)" d="
M0 1920 L2688 1920 L2688 0 L0 0  Z
  " fill="#ffffff" fill-rule="evenodd" fill-opacity="1"/>
<defs>
  <clipPath id="clip891">
    <rect x="537" y="0" width="1883" height="1883"/>
  </clipPath>
</defs>
<path clip-path="url(#clip890)" d="
M329.848 1806.09 L2640.76 1806.09 L2640.76 127.792 L329.848 127.792  Z
  " fill="#ffffff" fill-rule="evenodd" fill-opacity="1"/>
<defs>
  <clipPath id="clip892">
    <rect x="329" y="127" width="2312" height="1679"/>
  </clipPath>
</defs>
<polyline clip-path="url(#clip890)" style="stroke:#000000; stroke-linecap:round; stroke-linejoin:round; stroke-width:4; stroke-opacity:1; fill:none" points="
  329.848,1806.09 2640.76,1806.09 
  "/>
<path clip-path="url(#clip890)" d="M1182.93 1855.92 L1192.51 1855.92 L1204.64 1888.26 L1216.83 1855.92 L1226.41 1855.92 L1226.41 1903.44 L1220.14 1903.44 L1220.14 1861.71 L1207.88 1894.3 L1201.42 1894.3 L1189.17 1861.71 L1189.17 1903.44 L1182.93 1903.44 L1182.93 1855.92 Z" fill="#000000" fill-rule="evenodd" fill-opacity="1" /><path clip-path="url(#clip890)" d="M1269.41 1884.15 L1269.41 1887.01 L1242.48 1887.01 Q1242.86 1893.06 1246.11 1896.24 Q1249.39 1899.4 1255.21 1899.4 Q1258.59 1899.4 1261.74 1898.57 Q1264.92 1897.74 1268.04 1896.09 L1268.04 1901.62 Q1264.89 1902.96 1261.58 1903.66 Q1258.27 1904.36 1254.86 1904.36 Q1246.33 1904.36 1241.34 1899.4 Q1236.37 1894.43 1236.37 1885.96 Q1236.37 1877.21 1241.08 1872.09 Q1245.82 1866.93 1253.84 1866.93 Q1261.04 1866.93 1265.21 1871.58 Q1269.41 1876.19 1269.41 1884.15 M1263.55 1882.43 Q1263.49 1877.62 1260.85 1874.76 Q1258.24 1871.9 1253.91 1871.9 Q1249.01 1871.9 1246.05 1874.66 Q1243.12 1877.43 1242.67 1882.46 L1263.55 1882.43 Z" fill="#000000" fill-rule="evenodd" fill-opacity="1" /><path clip-path="url(#clip890)" d="M1306.78 1874.63 Q1308.97 1870.69 1312.03 1868.81 Q1315.08 1866.93 1319.22 1866.93 Q1324.79 1866.93 1327.81 1870.85 Q1330.84 1874.73 1330.84 1881.92 L1330.84 1903.44 L1324.95 1903.44 L1324.95 1882.11 Q1324.95 1876.99 1323.14 1874.51 Q1321.32 1872.02 1317.6 1872.02 Q1313.05 1872.02 1310.4 1875.05 Q1307.76 1878.07 1307.76 1883.29 L1307.76 1903.44 L1301.87 1903.44 L1301.87 1882.11 Q1301.87 1876.96 1300.06 1874.51 Q1298.25 1872.02 1294.46 1872.02 Q1289.97 1872.02 1287.33 1875.08 Q1284.69 1878.1 1284.69 1883.29 L1284.69 1903.44 L1278.8 1903.44 L1278.8 1867.79 L1284.69 1867.79 L1284.69 1873.33 Q1286.69 1870.05 1289.49 1868.49 Q1292.29 1866.93 1296.14 1866.93 Q1300.03 1866.93 1302.73 1868.9 Q1305.47 1870.88 1306.78 1874.63 Z" fill="#000000" fill-rule="evenodd" fill-opacity="1" /><path clip-path="url(#clip890)" d="M1368.11 1885.65 Q1368.11 1879.18 1365.44 1875.52 Q1362.79 1871.83 1358.15 1871.83 Q1353.5 1871.83 1350.83 1875.52 Q1348.18 1879.18 1348.18 1885.65 Q1348.18 1892.11 1350.83 1895.8 Q1353.5 1899.46 1358.15 1899.46 Q1362.79 1899.46 1365.44 1895.8 Q1368.11 1892.11 1368.11 1885.65 M1348.18 1873.2 Q1350.03 1870.02 1352.83 1868.49 Q1355.66 1866.93 1359.58 1866.93 Q1366.07 1866.93 1370.11 1872.09 Q1374.19 1877.24 1374.19 1885.65 Q1374.19 1894.05 1370.11 1899.2 Q1366.07 1904.36 1359.58 1904.36 Q1355.66 1904.36 1352.83 1902.83 Q1350.03 1901.27 1348.18 1898.09 L1348.18 1903.44 L1342.3 1903.44 L1342.3 1853.91 L1348.18 1853.91 L1348.18 1873.2 Z" fill="#000000" fill-rule="evenodd" fill-opacity="1" /><path clip-path="url(#clip890)" d="M1404.55 1873.26 Q1403.57 1872.69 1402.39 1872.44 Q1401.24 1872.15 1399.84 1872.15 Q1394.88 1872.15 1392.2 1875.4 Q1389.56 1878.61 1389.56 1884.66 L1389.56 1903.44 L1383.67 1903.44 L1383.67 1867.79 L1389.56 1867.79 L1389.56 1873.33 Q1391.41 1870.08 1394.37 1868.52 Q1397.33 1866.93 1401.56 1866.93 Q1402.17 1866.93 1402.9 1867.03 Q1403.63 1867.09 1404.52 1867.25 L1404.55 1873.26 Z" fill="#000000" fill-rule="evenodd" fill-opacity="1" /><path clip-path="url(#clip890)" d="M1426.9 1885.52 Q1419.8 1885.52 1417.06 1887.14 Q1414.32 1888.76 1414.32 1892.68 Q1414.32 1895.8 1416.36 1897.64 Q1418.43 1899.46 1421.96 1899.46 Q1426.83 1899.46 1429.76 1896.02 Q1432.72 1892.55 1432.72 1886.82 L1432.72 1885.52 L1426.9 1885.52 M1438.58 1883.1 L1438.58 1903.44 L1432.72 1903.44 L1432.72 1898.03 Q1430.72 1901.27 1427.72 1902.83 Q1424.73 1904.36 1420.4 1904.36 Q1414.93 1904.36 1411.68 1901.31 Q1408.47 1898.22 1408.47 1893.06 Q1408.47 1887.05 1412.48 1883.99 Q1416.52 1880.93 1424.51 1880.93 L1432.72 1880.93 L1432.72 1880.36 Q1432.72 1876.32 1430.05 1874.12 Q1427.41 1871.9 1422.6 1871.9 Q1419.54 1871.9 1416.65 1872.63 Q1413.75 1873.36 1411.08 1874.82 L1411.08 1869.41 Q1414.29 1868.17 1417.32 1867.57 Q1420.34 1866.93 1423.2 1866.93 Q1430.94 1866.93 1434.76 1870.94 Q1438.58 1874.95 1438.58 1883.1 Z" fill="#000000" fill-rule="evenodd" fill-opacity="1" /><path clip-path="url(#clip890)" d="M1480.27 1881.92 L1480.27 1903.44 L1474.42 1903.44 L1474.42 1882.11 Q1474.42 1877.05 1472.44 1874.54 Q1470.47 1872.02 1466.52 1872.02 Q1461.78 1872.02 1459.04 1875.05 Q1456.31 1878.07 1456.31 1883.29 L1456.31 1903.44 L1450.42 1903.44 L1450.42 1867.79 L1456.31 1867.79 L1456.31 1873.33 Q1458.41 1870.11 1461.24 1868.52 Q1464.1 1866.93 1467.83 1866.93 Q1473.97 1866.93 1477.12 1870.75 Q1480.27 1874.54 1480.27 1881.92 Z" fill="#000000" fill-rule="evenodd" fill-opacity="1" /><path clip-path="url(#clip890)" d="M1522.45 1884.15 L1522.45 1887.01 L1495.52 1887.01 Q1495.9 1893.06 1499.15 1896.24 Q1502.43 1899.4 1508.25 1899.4 Q1511.62 1899.4 1514.78 1898.57 Q1517.96 1897.74 1521.08 1896.09 L1521.08 1901.62 Q1517.93 1902.96 1514.62 1903.66 Q1511.31 1904.36 1507.9 1904.36 Q1499.37 1904.36 1494.37 1899.4 Q1489.41 1894.43 1489.41 1885.96 Q1489.41 1877.21 1494.12 1872.09 Q1498.86 1866.93 1506.88 1866.93 Q1514.07 1866.93 1518.24 1871.58 Q1522.45 1876.19 1522.45 1884.15 M1516.59 1882.43 Q1516.53 1877.62 1513.88 1874.76 Q1511.27 1871.9 1506.95 1871.9 Q1502.04 1871.9 1499.08 1874.66 Q1496.16 1877.43 1495.71 1882.46 L1516.59 1882.43 Z" fill="#000000" fill-rule="evenodd" fill-opacity="1" /><path clip-path="url(#clip890)" d="M1565.29 1903.44 L1547.14 1855.92 L1553.86 1855.92 L1568.92 1895.93 L1584 1855.92 L1590.69 1855.92 L1572.58 1903.44 L1565.29 1903.44 Z" fill="#000000" fill-rule="evenodd" fill-opacity="1" /><path clip-path="url(#clip890)" d="M1606.12 1871.9 Q1601.41 1871.9 1598.68 1875.59 Q1595.94 1879.25 1595.94 1885.65 Q1595.94 1892.04 1598.64 1895.74 Q1601.38 1899.4 1606.12 1899.4 Q1610.8 1899.4 1613.54 1895.7 Q1616.28 1892.01 1616.28 1885.65 Q1616.28 1879.31 1613.54 1875.62 Q1610.8 1871.9 1606.12 1871.9 M1606.12 1866.93 Q1613.76 1866.93 1618.12 1871.9 Q1622.48 1876.86 1622.48 1885.65 Q1622.48 1894.4 1618.12 1899.4 Q1613.76 1904.36 1606.12 1904.36 Q1598.45 1904.36 1594.09 1899.4 Q1589.76 1894.4 1589.76 1885.65 Q1589.76 1876.86 1594.09 1871.9 Q1598.45 1866.93 1606.12 1866.93 Z" fill="#000000" fill-rule="evenodd" fill-opacity="1" /><path clip-path="url(#clip890)" d="M1632.19 1853.91 L1638.05 1853.91 L1638.05 1903.44 L1632.19 1903.44 L1632.19 1853.91 Z" fill="#000000" fill-rule="evenodd" fill-opacity="1" /><path clip-path="url(#clip890)" d="M1656.09 1857.67 L1656.09 1867.79 L1668.16 1867.79 L1668.16 1872.34 L1656.09 1872.34 L1656.09 1891.69 Q1656.09 1896.05 1657.27 1897.29 Q1658.48 1898.54 1662.14 1898.54 L1668.16 1898.54 L1668.16 1903.44 L1662.14 1903.44 Q1655.36 1903.44 1652.78 1900.92 Q1650.21 1898.38 1650.21 1891.69 L1650.21 1872.34 L1645.91 1872.34 L1645.91 1867.79 L1650.21 1867.79 L1650.21 1857.67 L1656.09 1857.67 Z" fill="#000000" fill-rule="evenodd" fill-opacity="1" /><path clip-path="url(#clip890)" d="M1692.06 1885.52 Q1684.96 1885.52 1682.22 1887.14 Q1679.49 1888.76 1679.49 1892.68 Q1679.49 1895.8 1681.52 1897.64 Q1683.59 1899.46 1687.13 1899.46 Q1692 1899.46 1694.92 1896.02 Q1697.88 1892.55 1697.88 1886.82 L1697.88 1885.52 L1692.06 1885.52 M1703.74 1883.1 L1703.74 1903.44 L1697.88 1903.44 L1697.88 1898.03 Q1695.88 1901.27 1692.89 1902.83 Q1689.9 1904.36 1685.57 1904.36 Q1680.09 1904.36 1676.85 1901.31 Q1673.63 1898.22 1673.63 1893.06 Q1673.63 1887.05 1677.64 1883.99 Q1681.68 1880.93 1689.67 1880.93 L1697.88 1880.93 L1697.88 1880.36 Q1697.88 1876.32 1695.21 1874.12 Q1692.57 1871.9 1687.76 1871.9 Q1684.71 1871.9 1681.81 1872.63 Q1678.91 1873.36 1676.24 1874.82 L1676.24 1869.41 Q1679.46 1868.17 1682.48 1867.57 Q1685.5 1866.93 1688.37 1866.93 Q1696.1 1866.93 1699.92 1870.94 Q1703.74 1874.95 1703.74 1883.1 Z" fill="#000000" fill-rule="evenodd" fill-opacity="1" /><path clip-path="url(#clip890)" d="M1739.26 1885.2 Q1739.26 1878.83 1736.62 1875.33 Q1734.01 1871.83 1729.27 1871.83 Q1724.56 1871.83 1721.92 1875.33 Q1719.31 1878.83 1719.31 1885.2 Q1719.31 1891.53 1721.92 1895.03 Q1724.56 1898.54 1729.27 1898.54 Q1734.01 1898.54 1736.62 1895.03 Q1739.26 1891.53 1739.26 1885.2 M1745.12 1899.01 Q1745.12 1908.12 1741.08 1912.54 Q1737.03 1917 1728.69 1917 Q1725.61 1917 1722.87 1916.52 Q1720.13 1916.07 1717.55 1915.12 L1717.55 1909.42 Q1720.13 1910.82 1722.65 1911.49 Q1725.16 1912.16 1727.77 1912.16 Q1733.53 1912.16 1736.4 1909.13 Q1739.26 1906.14 1739.26 1900.06 L1739.26 1897.17 Q1737.45 1900.32 1734.61 1901.88 Q1731.78 1903.44 1727.84 1903.44 Q1721.28 1903.44 1717.27 1898.44 Q1713.26 1893.44 1713.26 1885.2 Q1713.26 1876.92 1717.27 1871.93 Q1721.28 1866.93 1727.84 1866.93 Q1731.78 1866.93 1734.61 1868.49 Q1737.45 1870.05 1739.26 1873.2 L1739.26 1867.79 L1745.12 1867.79 L1745.12 1899.01 Z" fill="#000000" fill-rule="evenodd" fill-opacity="1" /><path clip-path="url(#clip890)" d="M1787.67 1884.15 L1787.67 1887.01 L1760.75 1887.01 Q1761.13 1893.06 1764.37 1896.24 Q1767.65 1899.4 1773.48 1899.4 Q1776.85 1899.4 1780 1898.57 Q1783.19 1897.74 1786.3 1896.09 L1786.3 1901.62 Q1783.15 1902.96 1779.84 1903.66 Q1776.53 1904.36 1773.13 1904.36 Q1764.6 1904.36 1759.6 1899.4 Q1754.63 1894.43 1754.63 1885.96 Q1754.63 1877.21 1759.35 1872.09 Q1764.09 1866.93 1772.11 1866.93 Q1779.3 1866.93 1783.47 1871.58 Q1787.67 1876.19 1787.67 1884.15 M1781.82 1882.43 Q1781.75 1877.62 1779.11 1874.76 Q1776.5 1871.9 1772.17 1871.9 Q1767.27 1871.9 1764.31 1874.66 Q1761.38 1877.43 1760.94 1882.46 L1781.82 1882.43 Z" fill="#000000" fill-rule="evenodd" fill-opacity="1" /><polyline clip-path="url(#clip892)" style="stroke:#000000; stroke-linecap:round; stroke-linejoin:round; stroke-width:2; stroke-opacity:0.1; fill:none" points="
  329.848,1806.09 2640.76,1806.09 
  "/>
<polyline clip-path="url(#clip892)" style="stroke:#000000; stroke-linecap:round; stroke-linejoin:round; stroke-width:2; stroke-opacity:0.1; fill:none" points="
  329.848,127.792 2640.76,127.792 
  "/>
<polyline clip-path="url(#clip890)" style="stroke:#000000; stroke-linecap:round; stroke-linejoin:round; stroke-width:4; stroke-opacity:1; fill:none" points="
  329.848,1806.09 329.848,127.792 
  "/>
<polyline clip-path="url(#clip890)" style="stroke:#000000; stroke-linecap:round; stroke-linejoin:round; stroke-width:4; stroke-opacity:1; fill:none" points="
  329.848,1806.09 348.745,1806.09 
  "/>
<polyline clip-path="url(#clip890)" style="stroke:#000000; stroke-linecap:round; stroke-linejoin:round; stroke-width:4; stroke-opacity:1; fill:none" points="
  329.848,127.792 348.745,127.792 
  "/>
<path clip-path="url(#clip890)" d="M71.7974 111.646 L71.7974 116.207 Q69.1354 114.933 66.7743 114.308 Q64.4132 113.683 62.2141 113.683 Q58.3947 113.683 56.3113 115.165 Q54.2512 116.646 54.2512 119.378 Q54.2512 121.669 55.6169 122.85 Q57.0058 124.007 60.8484 124.725 L63.6724 125.304 Q68.9039 126.299 71.3807 128.822 Q73.8807 131.322 73.8807 135.535 Q73.8807 140.558 70.5011 143.151 Q67.1446 145.743 60.64 145.743 Q58.1863 145.743 55.4086 145.188 Q52.654 144.632 49.691 143.544 L49.691 138.73 Q52.5382 140.327 55.2697 141.137 Q58.0012 141.947 60.64 141.947 Q64.6446 141.947 66.8206 140.373 Q68.9965 138.799 68.9965 135.882 Q68.9965 133.336 67.4224 131.901 Q65.8715 130.466 62.3067 129.748 L59.4595 129.193 Q54.228 128.151 51.8901 125.929 Q49.5521 123.706 49.5521 119.748 Q49.5521 115.165 52.7697 112.526 Q56.0104 109.887 61.6817 109.887 Q64.1122 109.887 66.6354 110.327 Q69.1585 110.767 71.7974 111.646 Z" fill="#000000" fill-rule="evenodd" fill-opacity="1" /><path clip-path="url(#clip890)" d="M92.7695 132.04 Q87.6075 132.04 85.6167 133.22 Q83.626 134.401 83.626 137.248 Q83.626 139.517 85.1075 140.859 Q86.6121 142.179 89.1815 142.179 Q92.7232 142.179 94.8528 139.679 Q97.0056 137.156 97.0056 132.989 L97.0056 132.04 L92.7695 132.04 M101.265 130.281 L101.265 145.072 L97.0056 145.072 L97.0056 141.137 Q95.5472 143.498 93.3713 144.632 Q91.1954 145.743 88.0473 145.743 Q84.0658 145.743 81.7047 143.521 Q79.3668 141.276 79.3668 137.526 Q79.3668 133.151 82.2834 130.929 Q85.2232 128.706 91.0334 128.706 L97.0056 128.706 L97.0056 128.29 Q97.0056 125.35 95.0611 123.753 Q93.1399 122.132 89.6445 122.132 Q87.4223 122.132 85.3158 122.665 Q83.2094 123.197 81.2649 124.262 L81.2649 120.327 Q83.6029 119.424 85.8019 118.984 Q88.001 118.521 90.0843 118.521 Q95.7093 118.521 98.487 121.438 Q101.265 124.355 101.265 130.281 Z" fill="#000000" fill-rule="evenodd" fill-opacity="1" /><path clip-path="url(#clip890)" d="M114.251 111.785 L114.251 119.146 L123.024 119.146 L123.024 122.457 L114.251 122.457 L114.251 136.531 Q114.251 139.702 115.107 140.605 Q115.987 141.507 118.649 141.507 L123.024 141.507 L123.024 145.072 L118.649 145.072 Q113.718 145.072 111.843 143.243 Q109.968 141.392 109.968 136.531 L109.968 122.457 L106.843 122.457 L106.843 119.146 L109.968 119.146 L109.968 111.785 L114.251 111.785 Z" fill="#000000" fill-rule="evenodd" fill-opacity="1" /><path clip-path="url(#clip890)" d="M128.186 134.841 L128.186 119.146 L132.445 119.146 L132.445 134.679 Q132.445 138.359 133.88 140.211 Q135.316 142.04 138.186 142.04 Q141.635 142.04 143.626 139.841 Q145.64 137.642 145.64 133.845 L145.64 119.146 L149.899 119.146 L149.899 145.072 L145.64 145.072 L145.64 141.091 Q144.089 143.452 142.028 144.609 Q139.991 145.743 137.283 145.743 Q132.816 145.743 130.501 142.966 Q128.186 140.188 128.186 134.841 M138.903 118.521 L138.903 118.521 Z" fill="#000000" fill-rule="evenodd" fill-opacity="1" /><path clip-path="url(#clip890)" d="M173.695 123.128 Q172.977 122.711 172.121 122.526 Q171.288 122.318 170.269 122.318 Q166.658 122.318 164.714 124.679 Q162.792 127.017 162.792 131.415 L162.792 145.072 L158.51 145.072 L158.51 119.146 L162.792 119.146 L162.792 123.174 Q164.135 120.813 166.288 119.679 Q168.44 118.521 171.519 118.521 Q171.959 118.521 172.491 118.591 Q173.024 118.637 173.672 118.753 L173.695 123.128 Z" fill="#000000" fill-rule="evenodd" fill-opacity="1" /><path clip-path="url(#clip890)" d="M189.945 132.04 Q184.783 132.04 182.792 133.22 Q180.801 134.401 180.801 137.248 Q180.801 139.517 182.283 140.859 Q183.788 142.179 186.357 142.179 Q189.899 142.179 192.028 139.679 Q194.181 137.156 194.181 132.989 L194.181 132.04 L189.945 132.04 M198.44 130.281 L198.44 145.072 L194.181 145.072 L194.181 141.137 Q192.723 143.498 190.547 144.632 Q188.371 145.743 185.223 145.743 Q181.241 145.743 178.88 143.521 Q176.542 141.276 176.542 137.526 Q176.542 133.151 179.459 130.929 Q182.399 128.706 188.209 128.706 L194.181 128.706 L194.181 128.29 Q194.181 125.35 192.237 123.753 Q190.315 122.132 186.82 122.132 Q184.598 122.132 182.491 122.665 Q180.385 123.197 178.44 124.262 L178.44 120.327 Q180.778 119.424 182.977 118.984 Q185.176 118.521 187.26 118.521 Q192.885 118.521 195.662 121.438 Q198.44 124.355 198.44 130.281 Z" fill="#000000" fill-rule="evenodd" fill-opacity="1" /><path clip-path="url(#clip890)" d="M211.426 111.785 L211.426 119.146 L220.199 119.146 L220.199 122.457 L211.426 122.457 L211.426 136.531 Q211.426 139.702 212.283 140.605 Q213.162 141.507 215.824 141.507 L220.199 141.507 L220.199 145.072 L215.824 145.072 Q210.894 145.072 209.019 143.243 Q207.144 141.392 207.144 136.531 L207.144 122.457 L204.019 122.457 L204.019 119.146 L207.144 119.146 L207.144 111.785 L211.426 111.785 Z" fill="#000000" fill-rule="evenodd" fill-opacity="1" /><path clip-path="url(#clip890)" d="M225.801 119.146 L230.06 119.146 L230.06 145.072 L225.801 145.072 L225.801 119.146 M225.801 109.054 L230.06 109.054 L230.06 114.447 L225.801 114.447 L225.801 109.054 Z" fill="#000000" fill-rule="evenodd" fill-opacity="1" /><path clip-path="url(#clip890)" d="M249.019 122.132 Q245.593 122.132 243.602 124.818 Q241.611 127.48 241.611 132.132 Q241.611 136.785 243.579 139.47 Q245.57 142.132 249.019 142.132 Q252.421 142.132 254.412 139.447 Q256.403 136.762 256.403 132.132 Q256.403 127.526 254.412 124.841 Q252.421 122.132 249.019 122.132 M249.019 118.521 Q254.574 118.521 257.745 122.132 Q260.917 125.744 260.917 132.132 Q260.917 138.498 257.745 142.132 Q254.574 145.743 249.019 145.743 Q243.44 145.743 240.269 142.132 Q237.121 138.498 237.121 132.132 Q237.121 125.744 240.269 122.132 Q243.44 118.521 249.019 118.521 Z" fill="#000000" fill-rule="evenodd" fill-opacity="1" /><path clip-path="url(#clip890)" d="M289.528 129.424 L289.528 145.072 L285.268 145.072 L285.268 129.563 Q285.268 125.882 283.833 124.054 Q282.398 122.225 279.528 122.225 Q276.079 122.225 274.088 124.424 Q272.097 126.623 272.097 130.419 L272.097 145.072 L267.815 145.072 L267.815 119.146 L272.097 119.146 L272.097 123.174 Q273.625 120.836 275.685 119.679 Q277.768 118.521 280.477 118.521 Q284.944 118.521 287.236 121.299 Q289.528 124.054 289.528 129.424 Z" fill="#000000" fill-rule="evenodd" fill-opacity="1" /><path clip-path="url(#clip890)" d="M865.27 12.096 L873.453 12.096 L873.453 36.8875 L903.187 36.8875 L903.187 12.096 L911.37 12.096 L911.37 72.576 L903.187 72.576 L903.187 43.7741 L873.453 43.7741 L873.453 72.576 L865.27 72.576 L865.27 12.096 Z" fill="#000000" fill-rule="evenodd" fill-opacity="1" /><path clip-path="url(#clip890)" d="M966.138 48.0275 L966.138 51.6733 L931.867 51.6733 Q932.353 59.3701 936.485 63.421 Q940.658 67.4314 948.071 67.4314 Q952.365 67.4314 956.375 66.3781 Q960.426 65.3249 964.396 63.2184 L964.396 70.267 Q960.386 71.9684 956.173 72.8596 Q951.96 73.7508 947.625 73.7508 Q936.769 73.7508 930.409 67.4314 Q924.09 61.1119 924.09 50.3365 Q924.09 39.1965 930.085 32.6746 Q936.121 26.1121 946.329 26.1121 Q955.484 26.1121 960.791 32.0264 Q966.138 37.9003 966.138 48.0275 M958.684 45.84 Q958.603 39.7232 955.241 36.0774 Q951.919 32.4315 946.41 32.4315 Q940.172 32.4315 936.404 35.9558 Q932.677 39.4801 932.11 45.8805 L958.684 45.84 Z" fill="#000000" fill-rule="evenodd" fill-opacity="1" /><path clip-path="url(#clip890)" d="M998.991 49.7694 Q989.957 49.7694 986.473 51.8354 Q982.99 53.9013 982.99 58.8839 Q982.99 62.8538 985.582 65.2034 Q988.215 67.5124 992.712 67.5124 Q998.91 67.5124 1002.64 63.1374 Q1006.4 58.7219 1006.4 51.4303 L1006.4 49.7694 L998.991 49.7694 M1013.86 46.6907 L1013.86 72.576 L1006.4 72.576 L1006.4 65.6895 Q1003.85 69.8214 1000.04 71.8063 Q996.236 73.7508 990.727 73.7508 Q983.759 73.7508 979.627 69.8619 Q975.536 65.9325 975.536 59.3701 Q975.536 51.7138 980.64 47.825 Q985.785 43.9361 995.953 43.9361 L1006.4 43.9361 L1006.4 43.2069 Q1006.4 38.0623 1003 35.2672 Q999.639 32.4315 993.522 32.4315 Q989.633 32.4315 985.947 33.3632 Q982.261 34.295 978.858 36.1584 L978.858 29.2718 Q982.949 27.692 986.798 26.9223 Q990.646 26.1121 994.292 26.1121 Q1004.14 26.1121 1009 31.2163 Q1013.86 36.3204 1013.86 46.6907 Z" fill="#000000" fill-rule="evenodd" fill-opacity="1" /><path clip-path="url(#clip890)" d="M1023.86 27.2059 L1031.76 27.2059 L1045.94 65.2844 L1060.12 27.2059 L1068.02 27.2059 L1051 72.576 L1040.88 72.576 L1023.86 27.2059 Z" fill="#000000" fill-rule="evenodd" fill-opacity="1" /><path clip-path="url(#clip890)" d="M1078.31 27.2059 L1085.76 27.2059 L1085.76 72.576 L1078.31 72.576 L1078.31 27.2059 M1078.31 9.54393 L1085.76 9.54393 L1085.76 18.9825 L1078.31 18.9825 L1078.31 9.54393 Z" fill="#000000" fill-rule="evenodd" fill-opacity="1" /><path clip-path="url(#clip890)" d="M1130.28 28.5427 L1130.28 35.5912 Q1127.12 33.9709 1123.72 33.1607 Q1120.32 32.3505 1116.67 32.3505 Q1111.12 32.3505 1108.32 34.0519 Q1105.57 35.7533 1105.57 39.156 Q1105.57 41.7486 1107.55 43.2475 Q1109.54 44.7058 1115.54 46.0426 L1118.09 46.6097 Q1126.03 48.3111 1129.35 51.4303 Q1132.71 54.509 1132.71 60.0587 Q1132.71 66.3781 1127.69 70.0644 Q1122.71 73.7508 1113.96 73.7508 Q1110.31 73.7508 1106.34 73.0216 Q1102.41 72.3329 1098.04 70.9151 L1098.04 63.2184 Q1102.17 65.3654 1106.18 66.4591 Q1110.19 67.5124 1114.12 67.5124 Q1119.38 67.5124 1122.22 65.73 Q1125.05 63.9071 1125.05 60.6258 Q1125.05 57.5877 1122.99 55.9673 Q1120.96 54.3469 1114.04 52.8481 L1111.44 52.2405 Q1104.52 50.7821 1101.44 47.7845 Q1098.36 44.7463 1098.36 39.4801 Q1098.36 33.0797 1102.9 29.5959 Q1107.43 26.1121 1115.78 26.1121 Q1119.91 26.1121 1123.56 26.7198 Q1127.2 27.3274 1130.28 28.5427 Z" fill="#000000" fill-rule="evenodd" fill-opacity="1" /><path clip-path="url(#clip890)" d="M1144.58 27.2059 L1152.03 27.2059 L1152.03 72.576 L1144.58 72.576 L1144.58 27.2059 M1144.58 9.54393 L1152.03 9.54393 L1152.03 18.9825 L1144.58 18.9825 L1144.58 9.54393 Z" fill="#000000" fill-rule="evenodd" fill-opacity="1" /><path clip-path="url(#clip890)" d="M1197.49 34.0924 L1197.49 9.54393 L1204.94 9.54393 L1204.94 72.576 L1197.49 72.576 L1197.49 65.7705 Q1195.14 69.8214 1191.53 71.8063 Q1187.97 73.7508 1182.94 73.7508 Q1174.72 73.7508 1169.53 67.1883 Q1164.39 60.6258 1164.39 49.9314 Q1164.39 39.2371 1169.53 32.6746 Q1174.72 26.1121 1182.94 26.1121 Q1187.97 26.1121 1191.53 28.0971 Q1195.14 30.0415 1197.49 34.0924 M1172.09 49.9314 Q1172.09 58.1548 1175.45 62.8538 Q1178.85 67.5124 1184.77 67.5124 Q1190.68 67.5124 1194.08 62.8538 Q1197.49 58.1548 1197.49 49.9314 Q1197.49 41.7081 1194.08 37.0496 Q1190.68 32.3505 1184.77 32.3505 Q1178.85 32.3505 1175.45 37.0496 Q1172.09 41.7081 1172.09 49.9314 Z" fill="#000000" fill-rule="evenodd" fill-opacity="1" /><path clip-path="url(#clip890)" d="M1259.1 48.0275 L1259.1 51.6733 L1224.83 51.6733 Q1225.31 59.3701 1229.45 63.421 Q1233.62 67.4314 1241.03 67.4314 Q1245.33 67.4314 1249.34 66.3781 Q1253.39 65.3249 1257.36 63.2184 L1257.36 70.267 Q1253.35 71.9684 1249.13 72.8596 Q1244.92 73.7508 1240.59 73.7508 Q1229.73 73.7508 1223.37 67.4314 Q1217.05 61.1119 1217.05 50.3365 Q1217.05 39.1965 1223.05 32.6746 Q1229.08 26.1121 1239.29 26.1121 Q1248.45 26.1121 1253.75 32.0264 Q1259.1 37.9003 1259.1 48.0275 M1251.65 45.84 Q1251.56 39.7232 1248.2 36.0774 Q1244.88 32.4315 1239.37 32.4315 Q1233.13 32.4315 1229.37 35.9558 Q1225.64 39.4801 1225.07 45.8805 L1251.65 45.84 Z" fill="#000000" fill-rule="evenodd" fill-opacity="1" /><path clip-path="url(#clip890)" d="M1315.61 9.62495 Q1310.18 18.942 1307.55 28.0566 Q1304.92 37.1711 1304.92 46.5287 Q1304.92 55.8863 1307.55 65.0818 Q1310.22 74.2369 1315.61 83.5134 L1309.13 83.5134 Q1303.05 73.9938 1300.01 64.7983 Q1297.02 55.6027 1297.02 46.5287 Q1297.02 37.4952 1300.01 28.3401 Q1303.01 19.1851 1309.13 9.62495 L1315.61 9.62495 Z" fill="#000000" fill-rule="evenodd" fill-opacity="1" /><path clip-path="url(#clip890)" d="M1354.94 17.6457 Q1346.03 17.6457 1340.77 24.2892 Q1335.54 30.9327 1335.54 42.3968 Q1335.54 53.8203 1340.77 60.4638 Q1346.03 67.1073 1354.94 67.1073 Q1363.86 67.1073 1369.04 60.4638 Q1374.27 53.8203 1374.27 42.3968 Q1374.27 30.9327 1369.04 24.2892 Q1363.86 17.6457 1354.94 17.6457 M1354.94 11.0023 Q1367.66 11.0023 1375.28 19.5497 Q1382.89 28.0566 1382.89 42.3968 Q1382.89 56.6965 1375.28 65.2439 Q1367.66 73.7508 1354.94 73.7508 Q1342.18 73.7508 1334.53 65.2439 Q1326.91 56.737 1326.91 42.3968 Q1326.91 28.0566 1334.53 19.5497 Q1342.18 11.0023 1354.94 11.0023 Z" fill="#000000" fill-rule="evenodd" fill-opacity="1" /><path clip-path="url(#clip890)" d="M1395.7 12.096 L1406.71 12.096 L1433.53 62.6918 L1433.53 12.096 L1441.47 12.096 L1441.47 72.576 L1430.45 72.576 L1403.64 21.9802 L1403.64 72.576 L1395.7 72.576 L1395.7 12.096 Z" fill="#000000" fill-rule="evenodd" fill-opacity="1" /><path clip-path="url(#clip890)" d="M1470.68 12.096 L1477.56 12.096 L1456.5 80.2727 L1449.61 80.2727 L1470.68 12.096 Z" fill="#000000" fill-rule="evenodd" fill-opacity="1" /><path clip-path="url(#clip890)" d="M1510.26 17.6457 Q1501.34 17.6457 1496.08 24.2892 Q1490.85 30.9327 1490.85 42.3968 Q1490.85 53.8203 1496.08 60.4638 Q1501.34 67.1073 1510.26 67.1073 Q1519.17 67.1073 1524.35 60.4638 Q1529.58 53.8203 1529.58 42.3968 Q1529.58 30.9327 1524.35 24.2892 Q1519.17 17.6457 1510.26 17.6457 M1510.26 11.0023 Q1522.98 11.0023 1530.59 19.5497 Q1538.21 28.0566 1538.21 42.3968 Q1538.21 56.6965 1530.59 65.2439 Q1522.98 73.7508 1510.26 73.7508 Q1497.5 73.7508 1489.84 65.2439 Q1482.22 56.737 1482.22 42.3968 Q1482.22 28.0566 1489.84 19.5497 Q1497.5 11.0023 1510.26 11.0023 Z" fill="#000000" fill-rule="evenodd" fill-opacity="1" /><path clip-path="url(#clip890)" d="M1551.01 12.096 L1585.76 12.096 L1585.76 18.9825 L1559.19 18.9825 L1559.19 36.8065 L1583.17 36.8065 L1583.17 43.6931 L1559.19 43.6931 L1559.19 72.576 L1551.01 72.576 L1551.01 12.096 Z" fill="#000000" fill-rule="evenodd" fill-opacity="1" /><path clip-path="url(#clip890)" d="M1598.73 12.096 L1633.48 12.096 L1633.48 18.9825 L1606.91 18.9825 L1606.91 36.8065 L1630.89 36.8065 L1630.89 43.6931 L1606.91 43.6931 L1606.91 72.576 L1598.73 72.576 L1598.73 12.096 Z" fill="#000000" fill-rule="evenodd" fill-opacity="1" /><path clip-path="url(#clip890)" d="M1644.95 9.62495 L1651.43 9.62495 Q1657.51 19.1851 1660.5 28.3401 Q1663.54 37.4952 1663.54 46.5287 Q1663.54 55.6027 1660.5 64.7983 Q1657.51 73.9938 1651.43 83.5134 L1644.95 83.5134 Q1650.34 74.2369 1652.97 65.0818 Q1655.64 55.8863 1655.64 46.5287 Q1655.64 37.1711 1652.97 28.0566 Q1650.34 18.942 1644.95 9.62495 Z" fill="#000000" fill-rule="evenodd" fill-opacity="1" /><path clip-path="url(#clip890)" d="M1725.4 20.1573 L1714.3 50.2555 L1736.54 50.2555 L1725.4 20.1573 M1720.78 12.096 L1730.06 12.096 L1753.11 72.576 L1744.6 72.576 L1739.09 57.061 L1711.83 57.061 L1706.32 72.576 L1697.69 72.576 L1720.78 12.096 Z" fill="#000000" fill-rule="evenodd" fill-opacity="1" /><path clip-path="url(#clip890)" d="M1792.81 28.9478 L1792.81 35.9153 Q1789.65 34.1734 1786.45 33.3227 Q1783.29 32.4315 1780.05 32.4315 Q1772.79 32.4315 1768.78 37.0496 Q1764.77 41.6271 1764.77 49.9314 Q1764.77 58.2358 1768.78 62.8538 Q1772.79 67.4314 1780.05 67.4314 Q1783.29 67.4314 1786.45 66.5807 Q1789.65 65.6895 1792.81 63.9476 L1792.81 70.8341 Q1789.69 72.2924 1786.32 73.0216 Q1783 73.7508 1779.24 73.7508 Q1768.99 73.7508 1762.95 67.3098 Q1756.91 60.8689 1756.91 49.9314 Q1756.91 38.832 1762.99 32.472 Q1769.11 26.1121 1779.72 26.1121 Q1783.16 26.1121 1786.45 26.8413 Q1789.73 27.5299 1792.81 28.9478 Z" fill="#000000" fill-rule="evenodd" fill-opacity="1" /><path clip-path="url(#clip890)" d="M1813.14 14.324 L1813.14 27.2059 L1828.49 27.2059 L1828.49 32.9987 L1813.14 32.9987 L1813.14 57.6282 Q1813.14 63.1779 1814.64 64.7578 Q1816.18 66.3376 1820.84 66.3376 L1828.49 66.3376 L1828.49 72.576 L1820.84 72.576 Q1812.21 72.576 1808.93 69.3758 Q1805.65 66.1351 1805.65 57.6282 L1805.65 32.9987 L1800.18 32.9987 L1800.18 27.2059 L1805.65 27.2059 L1805.65 14.324 L1813.14 14.324 Z" fill="#000000" fill-rule="evenodd" fill-opacity="1" /><path clip-path="url(#clip890)" d="M1838.3 27.2059 L1845.75 27.2059 L1845.75 72.576 L1838.3 72.576 L1838.3 27.2059 M1838.3 9.54393 L1845.75 9.54393 L1845.75 18.9825 L1838.3 18.9825 L1838.3 9.54393 Z" fill="#000000" fill-rule="evenodd" fill-opacity="1" /><path clip-path="url(#clip890)" d="M1856 27.2059 L1863.9 27.2059 L1878.08 65.2844 L1892.26 27.2059 L1900.15 27.2059 L1883.14 72.576 L1873.01 72.576 L1856 27.2059 Z" fill="#000000" fill-rule="evenodd" fill-opacity="1" /><path clip-path="url(#clip890)" d="M1931.06 49.7694 Q1922.03 49.7694 1918.55 51.8354 Q1915.06 53.9013 1915.06 58.8839 Q1915.06 62.8538 1917.65 65.2034 Q1920.29 67.5124 1924.78 67.5124 Q1930.98 67.5124 1934.71 63.1374 Q1938.48 58.7219 1938.48 51.4303 L1938.48 49.7694 L1931.06 49.7694 M1945.93 46.6907 L1945.93 72.576 L1938.48 72.576 L1938.48 65.6895 Q1935.92 69.8214 1932.12 71.8063 Q1928.31 73.7508 1922.8 73.7508 Q1915.83 73.7508 1911.7 69.8619 Q1907.61 65.9325 1907.61 59.3701 Q1907.61 51.7138 1912.71 47.825 Q1917.86 43.9361 1928.03 43.9361 L1938.48 43.9361 L1938.48 43.2069 Q1938.48 38.0623 1935.07 35.2672 Q1931.71 32.4315 1925.59 32.4315 Q1921.71 32.4315 1918.02 33.3632 Q1914.33 34.295 1910.93 36.1584 L1910.93 29.2718 Q1915.02 27.692 1918.87 26.9223 Q1922.72 26.1121 1926.36 26.1121 Q1936.21 26.1121 1941.07 31.2163 Q1945.93 36.3204 1945.93 46.6907 Z" fill="#000000" fill-rule="evenodd" fill-opacity="1" /><path clip-path="url(#clip890)" d="M1968.66 14.324 L1968.66 27.2059 L1984.01 27.2059 L1984.01 32.9987 L1968.66 32.9987 L1968.66 57.6282 Q1968.66 63.1779 1970.15 64.7578 Q1971.69 66.3376 1976.35 66.3376 L1984.01 66.3376 L1984.01 72.576 L1976.35 72.576 Q1967.72 72.576 1964.44 69.3758 Q1961.16 66.1351 1961.16 57.6282 L1961.16 32.9987 L1955.69 32.9987 L1955.69 27.2059 L1961.16 27.2059 L1961.16 14.324 L1968.66 14.324 Z" fill="#000000" fill-rule="evenodd" fill-opacity="1" /><path clip-path="url(#clip890)" d="M1993.81 27.2059 L2001.27 27.2059 L2001.27 72.576 L1993.81 72.576 L1993.81 27.2059 M1993.81 9.54393 L2001.27 9.54393 L2001.27 18.9825 L1993.81 18.9825 L1993.81 9.54393 Z" fill="#000000" fill-rule="evenodd" fill-opacity="1" /><path clip-path="url(#clip890)" d="M2034.44 32.4315 Q2028.45 32.4315 2024.96 37.1306 Q2021.48 41.7891 2021.48 49.9314 Q2021.48 58.0738 2024.92 62.7728 Q2028.41 67.4314 2034.44 67.4314 Q2040.4 67.4314 2043.88 62.7323 Q2047.36 58.0333 2047.36 49.9314 Q2047.36 41.8701 2043.88 37.1711 Q2040.4 32.4315 2034.44 32.4315 M2034.44 26.1121 Q2044.16 26.1121 2049.71 32.4315 Q2055.26 38.7509 2055.26 49.9314 Q2055.26 61.0714 2049.71 67.4314 Q2044.16 73.7508 2034.44 73.7508 Q2024.68 73.7508 2019.13 67.4314 Q2013.62 61.0714 2013.62 49.9314 Q2013.62 38.7509 2019.13 32.4315 Q2024.68 26.1121 2034.44 26.1121 Z" fill="#000000" fill-rule="evenodd" fill-opacity="1" /><path clip-path="url(#clip890)" d="M2105.33 45.1919 L2105.33 72.576 L2097.88 72.576 L2097.88 45.4349 Q2097.88 38.994 2095.37 35.7938 Q2092.86 32.5936 2087.83 32.5936 Q2081.8 32.5936 2078.31 36.4419 Q2074.83 40.2903 2074.83 46.9338 L2074.83 72.576 L2067.34 72.576 L2067.34 27.2059 L2074.83 27.2059 L2074.83 34.2544 Q2077.5 30.163 2081.11 28.1376 Q2084.75 26.1121 2089.49 26.1121 Q2097.31 26.1121 2101.32 30.9732 Q2105.33 35.7938 2105.33 45.1919 Z" fill="#000000" fill-rule="evenodd" fill-opacity="1" /><polyline clip-path="url(#clip892)" style="stroke:#009af9; stroke-linecap:round; stroke-linejoin:round; stroke-width:4; stroke-opacity:1; fill:none" points="
  395.251,1806.09 396.341,1806.09 397.431,1806.09 398.521,1806.09 399.611,1806.09 400.701,1806.09 401.791,1806.09 402.881,1806.09 403.971,1806.09 405.061,1806.09 
  406.151,1806.09 407.241,1806.09 408.331,1806.09 409.421,1806.09 410.511,1806.09 411.602,1806.09 412.692,1806.09 413.782,1806.09 414.872,1806.09 415.962,1806.09 
  417.052,1806.09 418.142,1806.09 419.232,1806.09 420.322,1806.09 421.412,1806.09 422.502,1806.09 423.592,1806.09 424.682,1806.09 425.772,1806.09 426.862,1806.09 
  427.952,1806.09 429.042,1806.09 430.132,1806.09 431.222,1806.09 432.312,1806.09 433.403,1806.09 434.493,1806.09 435.583,1806.09 436.673,1806.09 437.763,1806.09 
  438.853,1806.09 439.943,1806.09 441.033,1806.09 442.123,1806.09 443.213,1806.09 444.303,1806.09 445.393,1806.09 446.483,1806.09 447.573,1806.09 448.663,1806.09 
  449.753,1806.09 450.843,1806.09 451.933,1806.09 453.023,1806.09 454.114,1806.09 455.204,1806.09 456.294,1806.09 457.384,1806.09 458.474,1806.09 459.564,1806.09 
  460.654,1806.09 461.744,1806.09 462.834,1806.09 463.924,1806.09 465.014,1806.09 466.104,1806.09 467.194,1806.09 468.284,1806.09 469.374,1806.09 470.464,1806.09 
  471.554,1806.09 472.644,1806.09 473.734,1806.09 474.824,1806.09 475.915,1806.09 477.005,1806.09 478.095,1806.09 479.185,1806.09 480.275,1806.09 481.365,1806.09 
  482.455,1806.09 483.545,1806.09 484.635,1806.09 485.725,1806.09 486.815,1806.09 487.905,1806.09 488.995,1806.09 490.085,1806.09 491.175,1806.09 492.265,1806.09 
  493.355,1806.09 494.445,1806.09 495.535,1806.09 496.626,1806.09 497.716,1806.09 498.806,1806.09 499.896,1806.09 500.986,1806.09 502.076,1806.09 503.166,1806.09 
  504.256,1806.09 505.346,1806.09 506.436,1806.09 507.526,1806.09 508.616,1806.09 509.706,1806.09 510.796,1806.09 511.886,1806.09 512.976,1806.09 514.066,1806.09 
  515.156,1806.09 516.246,1806.09 517.336,1806.09 518.427,1806.09 519.517,1806.09 520.607,1806.09 521.697,1806.09 522.787,1806.09 523.877,1806.09 524.967,1806.09 
  526.057,1806.09 527.147,1806.09 528.237,1806.09 529.327,1806.09 530.417,1806.09 531.507,1806.09 532.597,1806.09 533.687,1806.09 534.777,1806.09 535.867,1806.09 
  536.957,1806.09 538.047,1806.09 539.137,1806.09 540.228,1806.09 541.318,1806.09 542.408,1806.09 543.498,1806.09 544.588,1806.09 545.678,1806.09 546.768,1806.09 
  547.858,1806.09 548.948,1806.09 550.038,1806.09 551.128,1806.09 552.218,1806.09 553.308,1806.09 554.398,1806.09 555.488,1806.09 556.578,1806.09 557.668,1806.09 
  558.758,1806.09 559.848,1806.09 560.939,1806.09 562.029,1806.09 563.119,1806.09 564.209,1806.09 565.299,1806.09 566.389,1806.09 567.479,1806.09 568.569,1806.09 
  569.659,1806.09 570.749,1806.09 571.839,1806.09 572.929,1806.09 574.019,1806.09 575.109,1806.09 576.199,1806.09 577.289,1806.09 578.379,1806.09 579.469,1806.09 
  580.559,1806.09 581.649,1806.09 582.74,1806.09 583.83,1806.09 584.92,1806.09 586.01,1806.09 587.1,1806.09 588.19,1806.09 589.28,1806.09 590.37,1806.09 
  591.46,1806.09 592.55,1806.09 593.64,1806.09 594.73,1806.09 595.82,1806.09 596.91,1806.09 598,1806.09 599.09,1806.09 600.18,1806.09 601.27,1806.09 
  602.36,1806.09 603.451,1806.09 604.541,1806.09 605.631,1806.09 606.721,1806.09 607.811,1806.09 608.901,1806.09 609.991,1806.09 611.081,1806.09 612.171,1806.09 
  613.261,1806.09 614.351,1806.09 615.441,1806.09 616.531,1806.09 617.621,1806.09 618.711,1806.09 619.801,1806.09 620.891,1806.09 621.981,1806.09 623.071,1806.09 
  624.161,1806.09 625.252,1806.09 626.342,1806.09 627.432,1806.09 628.522,1806.09 629.612,1806.09 630.702,1806.09 631.792,1806.09 632.882,1806.09 633.972,1806.09 
  635.062,1806.09 636.152,1806.09 637.242,1806.09 638.332,1806.09 639.422,1806.09 640.512,1806.09 641.602,1806.09 642.692,1806.09 643.782,1806.09 644.872,1806.09 
  645.962,1806.09 647.053,1806.09 648.143,1806.09 649.233,1806.09 650.323,1806.09 651.413,1806.09 652.503,1806.09 653.593,1806.09 654.683,1806.09 655.773,1806.09 
  656.863,1806.09 657.953,1806.09 659.043,1806.09 660.133,1806.09 661.223,1806.09 662.313,1806.09 663.403,1806.09 664.493,1806.09 665.583,1806.09 666.673,1806.09 
  667.764,1806.09 668.854,1806.09 669.944,1806.09 671.034,1806.09 672.124,1806.09 673.214,1806.09 674.304,1806.09 675.394,1806.09 676.484,1806.09 677.574,1806.09 
  678.664,1806.09 679.754,1806.09 680.844,1806.09 681.934,1806.09 683.024,1806.09 684.114,1806.09 685.204,1806.09 686.294,1806.09 687.384,1806.09 688.474,1806.09 
  689.565,1806.09 690.655,1806.09 691.745,1806.09 692.835,1806.09 693.925,1806.09 695.015,1806.09 696.105,1806.09 697.195,1806.09 698.285,1806.09 699.375,1806.09 
  700.465,1806.09 701.555,1806.09 702.645,1806.09 703.735,1806.09 704.825,1806.09 705.915,1806.09 707.005,1806.09 708.095,1806.09 709.185,1806.09 710.276,1806.09 
  711.366,1806.09 712.456,1806.09 713.546,1806.09 714.636,1806.09 715.726,1806.09 716.816,1806.09 717.906,1806.09 718.996,1806.09 720.086,1806.09 721.176,1806.09 
  722.266,1806.09 723.356,1806.09 724.446,1806.09 725.536,1806.09 726.626,1806.09 727.716,1806.09 728.806,1806.09 729.896,1806.09 730.986,1806.09 732.077,1806.09 
  733.167,1806.09 734.257,1806.09 735.347,1806.09 736.437,1806.09 737.527,1806.09 738.617,1806.09 739.707,1806.09 740.797,1806.09 741.887,1806.09 742.977,1806.09 
  744.067,1806.09 745.157,1806.09 746.247,1806.09 747.337,1806.09 748.427,1806.09 749.517,1806.09 750.607,1806.09 751.697,1806.09 752.787,1806.09 753.878,1806.09 
  754.968,1806.09 756.058,1806.09 757.148,1806.09 758.238,1806.09 759.328,1806.09 760.418,1806.09 761.508,1806.09 762.598,1806.09 763.688,1806.09 764.778,1806.09 
  765.868,1806.09 766.958,1806.09 768.048,1806.09 769.138,1806.09 770.228,1806.09 771.318,1806.09 772.408,1806.09 773.498,1806.09 774.589,1806.09 775.679,1806.09 
  776.769,1806.09 777.859,1806.09 778.949,1806.09 780.039,1806.09 781.129,1806.09 782.219,1806.09 783.309,1806.09 784.399,1806.09 785.489,1806.09 786.579,1806.09 
  787.669,1806.09 788.759,1806.09 789.849,1806.09 790.939,1806.09 792.029,1806.09 793.119,1806.09 794.209,1806.09 795.299,1806.09 796.39,1806.09 797.48,1806.09 
  798.57,1806.09 799.66,1806.09 800.75,1806.09 801.84,1806.09 802.93,1806.09 804.02,1806.09 805.11,1806.09 806.2,1806.09 807.29,1806.09 808.38,1806.09 
  809.47,1806.09 810.56,1806.09 811.65,1806.09 812.74,1806.09 813.83,1806.09 814.92,1806.09 816.01,1806.09 817.101,1806.09 818.191,1806.09 819.281,1806.09 
  820.371,1806.09 821.461,1806.09 822.551,1806.09 823.641,1806.09 824.731,1806.09 825.821,1806.09 826.911,1806.09 828.001,1806.09 829.091,1806.09 830.181,1806.09 
  831.271,1806.09 832.361,1806.09 833.451,1806.09 834.541,1806.09 835.631,1806.09 836.721,1806.09 837.811,1806.09 838.902,1806.09 839.992,1806.09 841.082,1806.09 
  842.172,1806.09 843.262,1806.09 844.352,1806.09 845.442,1806.09 846.532,1806.09 847.622,1806.09 848.712,1806.09 849.802,1806.09 850.892,1806.09 851.982,1806.09 
  853.072,1806.09 854.162,1806.09 855.252,1806.09 856.342,1806.09 857.432,1806.09 858.522,1806.09 859.612,1806.09 860.703,1806.09 861.793,1806.09 862.883,1806.09 
  863.973,1806.09 865.063,1806.09 866.153,1806.09 867.243,1806.09 868.333,1806.09 869.423,1806.09 870.513,1806.09 871.603,1806.09 872.693,1806.09 873.783,1806.09 
  874.873,1806.09 875.963,1806.09 877.053,1806.09 878.143,1806.09 879.233,1806.09 880.323,1806.09 881.414,1806.09 882.504,1806.09 883.594,1806.09 884.684,1806.09 
  885.774,1806.09 886.864,1806.09 887.954,1806.09 889.044,1806.09 890.134,1806.09 891.224,1806.09 892.314,1806.09 893.404,1806.09 894.494,1806.09 895.584,1806.09 
  896.674,1806.09 897.764,1806.09 898.854,1806.09 899.944,1806.09 901.034,1806.09 902.124,1806.09 903.215,1806.09 904.305,1806.09 905.395,1806.09 906.485,1806.09 
  907.575,1806.09 908.665,1806.09 909.755,1806.09 910.845,1806.09 911.935,1806.09 913.025,1806.09 914.115,1806.09 915.205,1806.09 916.295,1806.09 917.385,1806.09 
  918.475,1806.09 919.565,1806.09 920.655,1806.09 921.745,1806.09 922.835,1806.09 923.926,1806.09 925.016,1806.09 926.106,1806.09 927.196,1806.09 928.286,1806.09 
  929.376,1806.09 930.466,1806.09 931.556,1806.09 932.646,1806.09 933.736,1806.09 934.826,1806.09 935.916,1806.09 937.006,1806.09 938.096,1806.09 939.186,1806.09 
  940.276,1806.09 941.366,1806.09 942.456,1806.09 943.546,1806.09 944.636,1806.09 945.727,1806.09 946.817,1806.09 947.907,1806.09 948.997,1806.09 950.087,1806.09 
  951.177,1806.09 952.267,1806.09 953.357,1806.09 954.447,1806.09 955.537,1806.09 956.627,1806.09 957.717,1806.09 958.807,1806.09 959.897,1806.09 960.987,1806.09 
  962.077,1806.09 963.167,1806.09 964.257,1806.09 965.347,1806.09 966.438,1806.09 967.528,1806.09 968.618,1806.09 969.708,1806.09 970.798,1806.09 971.888,1806.09 
  972.978,1806.09 974.068,1806.09 975.158,1806.09 976.248,1806.09 977.338,1806.09 978.428,1806.09 979.518,1806.09 980.608,1806.09 981.698,1806.09 982.788,1806.09 
  983.878,1806.09 984.968,1806.09 986.058,1806.09 987.148,1806.09 988.239,1806.09 989.329,1806.09 990.419,1806.09 991.509,1806.09 992.599,1806.09 993.689,1806.09 
  994.779,1806.09 995.869,1806.09 996.959,1806.09 998.049,1806.09 999.139,1806.09 1000.23,1806.09 1001.32,1806.09 1002.41,1806.09 1003.5,1806.09 1004.59,1806.09 
  1005.68,1806.09 1006.77,1806.09 1007.86,1806.09 1008.95,1806.09 1010.04,1806.09 1011.13,1806.09 1012.22,1806.09 1013.31,1806.09 1014.4,1806.09 1015.49,1806.09 
  1016.58,1806.09 1017.67,1806.09 1018.76,1806.09 1019.85,1806.09 1020.94,1806.09 1022.03,1806.09 1023.12,1806.09 1024.21,1806.09 1025.3,1806.09 1026.39,1806.09 
  1027.48,1806.09 1028.57,1806.09 1029.66,1806.09 1030.75,1806.09 1031.84,1806.09 1032.93,1806.09 1034.02,1806.09 1035.11,1806.09 1036.2,1806.09 1037.29,1806.09 
  1038.38,1806.09 1039.47,1806.09 1040.56,1806.09 1041.65,1806.09 1042.74,1806.09 1043.83,1806.09 1044.92,1806.09 1046.01,1806.09 1047.1,1806.09 1048.19,1806.09 
  1049.28,1806.09 1050.37,1806.09 1051.46,1806.09 1052.55,1806.09 1053.64,1806.09 1054.73,1806.09 1055.82,1806.09 1056.91,1806.09 1058,1806.09 1059.09,1806.09 
  1060.18,1806.09 1061.27,1806.09 1062.36,1806.09 1063.45,1806.09 1064.54,1806.09 1065.63,1806.09 1066.72,1806.09 1067.81,1806.09 1068.9,1806.09 1069.99,1806.09 
  1071.08,1806.09 1072.17,1806.09 1073.26,1806.09 1074.35,1806.09 1075.44,1806.09 1076.53,1806.09 1077.62,1806.09 1078.71,1806.09 1079.8,1806.09 1080.89,1806.09 
  1081.98,1806.09 1083.07,1806.09 1084.16,1806.09 1085.25,1806.09 1086.34,1806.09 1087.43,1806.09 1088.52,1806.09 1089.61,1806.09 1090.7,1806.09 1091.79,1806.09 
  1092.88,1806.09 1093.97,1806.09 1095.06,1806.09 1096.15,1806.09 1097.24,1806.09 1098.33,1806.09 1099.42,1806.09 1100.51,1806.09 1101.6,1806.09 1102.69,1806.09 
  1103.78,1806.09 1104.87,1806.09 1105.96,1806.09 1107.05,1806.09 1108.14,1806.09 1109.23,1806.09 1110.32,1806.09 1111.41,1806.09 1112.5,1806.09 1113.59,1806.09 
  1114.68,1806.09 1115.77,1806.09 1116.86,1806.09 1117.95,1806.09 1119.04,1806.09 1120.13,1806.09 1121.22,1806.09 1122.31,1806.09 1123.4,1806.09 1124.49,1806.09 
  1125.58,1806.09 1126.68,1806.09 1127.77,1806.09 1128.86,1806.09 1129.95,1806.09 1131.04,1806.09 1132.13,1806.09 1133.22,1806.09 1134.31,1806.09 1135.4,1806.09 
  1136.49,1806.09 1137.58,1806.09 1138.67,1806.09 1139.76,1806.09 1140.85,1806.09 1141.94,1806.09 1143.03,1806.09 1144.12,1806.09 1145.21,1806.09 1146.3,1806.09 
  1147.39,1806.09 1148.48,1806.09 1149.57,1806.09 1150.66,1806.09 1151.75,1806.09 1152.84,1806.09 1153.93,1806.09 1155.02,1806.09 1156.11,1806.09 1157.2,1806.09 
  1158.29,1806.09 1159.38,1806.09 1160.47,1806.09 1161.56,1806.09 1162.65,1806.09 1163.74,1806.09 1164.83,1806.09 1165.92,1806.09 1167.01,1806.09 1168.1,1806.09 
  1169.19,1806.09 1170.28,1806.09 1171.37,1806.09 1172.46,1806.09 1173.55,1806.09 1174.64,1806.09 1175.73,1806.09 1176.82,1806.09 1177.91,1806.09 1179,1806.09 
  1180.09,1806.09 1181.18,1806.09 1182.27,1806.09 1183.36,1806.09 1184.45,1806.09 1185.54,1806.09 1186.63,1806.09 1187.72,1806.09 1188.81,1806.09 1189.9,1806.09 
  1190.99,1806.09 1192.08,1806.09 1193.17,1806.09 1194.26,1806.09 1195.35,1806.09 1196.44,1806.09 1197.53,1806.09 1198.62,1806.09 1199.71,1806.09 1200.8,1806.09 
  1201.89,1806.09 1202.98,1806.09 1204.07,1806.09 1205.16,1806.09 1206.25,1806.09 1207.34,1806.09 1208.43,1806.09 1209.52,1806.09 1210.61,1806.09 1211.7,1806.09 
  1212.79,1806.09 1213.88,1806.09 1214.97,1806.09 1216.06,1806.09 1217.15,1806.09 1218.24,1806.09 1219.33,1806.09 1220.42,1806.09 1221.51,1806.09 1222.6,1806.09 
  1223.69,1806.09 1224.78,1806.09 1225.87,1806.09 1226.96,1806.09 1228.05,1806.09 1229.14,1806.09 1230.23,1806.09 1231.32,1806.09 1232.41,1806.09 1233.5,1806.09 
  1234.59,1806.09 1235.68,1806.09 1236.77,1806.09 1237.86,1806.09 1238.95,1806.09 1240.04,1806.09 1241.13,1806.09 1242.22,1806.09 1243.31,1806.09 1244.4,1806.09 
  1245.49,1806.09 1246.58,1806.09 1247.67,1806.09 1248.76,1806.09 1249.85,1806.09 1250.94,1806.09 1252.03,1806.09 1253.12,1806.09 1254.21,1806.09 1255.3,1806.09 
  1256.39,1806.09 1257.48,1806.09 1258.57,1806.09 1259.66,1806.09 1260.75,1806.09 1261.84,1806.09 1262.93,1806.09 1264.02,1806.09 1265.11,1806.09 1266.2,1806.09 
  1267.29,1806.09 1268.38,1806.09 1269.47,1806.09 1270.56,1806.09 1271.65,1806.09 1272.74,1806.09 1273.83,1806.09 1274.92,1806.09 1276.01,1806.09 1277.1,1806.09 
  1278.19,1806.09 1279.28,1806.09 1280.37,1806.09 1281.46,1806.09 1282.55,1806.09 1283.64,1806.09 1284.73,1806.09 1285.82,1806.09 1286.91,1806.09 1288,1806.09 
  1289.09,1806.09 1290.18,1806.09 1291.27,1806.09 1292.36,1806.09 1293.45,1806.09 1294.54,1806.09 1295.63,1806.09 1296.72,1806.09 1297.81,1806.09 1298.9,1806.09 
  1299.99,1806.09 1301.08,1806.09 1302.17,1806.09 1303.26,1806.09 1304.35,1806.09 1305.44,1806.09 1306.53,1806.09 1307.62,1806.09 1308.71,1806.09 1309.8,1806.09 
  1310.89,1806.09 1311.98,1806.09 1313.07,1806.09 1314.16,1806.09 1315.25,1806.09 1316.34,1806.09 1317.43,1806.09 1318.52,1806.09 1319.61,1806.09 1320.7,1806.09 
  1321.79,1806.09 1322.88,1806.09 1323.97,1806.09 1325.06,1806.09 1326.15,1806.09 1327.24,1806.09 1328.33,1806.09 1329.42,1806.09 1330.51,1806.09 1331.6,1806.09 
  1332.69,1806.09 1333.78,1806.09 1334.87,1806.09 1335.96,1806.09 1337.05,1806.09 1338.14,1806.09 1339.23,1806.09 1340.33,1806.09 1341.42,1806.09 1342.51,1806.09 
  1343.6,1806.09 1344.69,1806.09 1345.78,1806.09 1346.87,1806.09 1347.96,1806.09 1349.05,1806.09 1350.14,1806.09 1351.23,1806.09 1352.32,1806.09 1353.41,1806.09 
  1354.5,1806.09 1355.59,1806.09 1356.68,1806.09 1357.77,1806.09 1358.86,1806.09 1359.95,1806.09 1361.04,1806.09 1362.13,1806.09 1363.22,1806.09 1364.31,1806.09 
  1365.4,1806.09 1366.49,1806.09 1367.58,1806.09 1368.67,1806.09 1369.76,1806.09 1370.85,1806.09 1371.94,1806.09 1373.03,1806.09 1374.12,1806.09 1375.21,1806.09 
  1376.3,1806.09 1377.39,1806.09 1378.48,1806.09 1379.57,1806.09 1380.66,1806.09 1381.75,1806.09 1382.84,1806.09 1383.93,1806.09 1385.02,1806.09 1386.11,1806.09 
  1387.2,1806.09 1388.29,1806.09 1389.38,1806.09 1390.47,1806.09 1391.56,1806.09 1392.65,1806.09 1393.74,1806.09 1394.83,1806.09 1395.92,1806.09 1397.01,1806.09 
  1398.1,1806.09 1399.19,1806.09 1400.28,1806.09 1401.37,1806.09 1402.46,1806.09 1403.55,1806.09 1404.64,1806.09 1405.73,1806.09 1406.82,1806.09 1407.91,1806.09 
  1409,1806.09 1410.09,1806.09 1411.18,1806.09 1412.27,1806.09 1413.36,1806.09 1414.45,1806.09 1415.54,1806.09 1416.63,1806.09 1417.72,1806.09 1418.81,1806.09 
  1419.9,1806.09 1420.99,1806.09 1422.08,1806.09 1423.17,1806.09 1424.26,1806.09 1425.35,1806.09 1426.44,1806.09 1427.53,1806.09 1428.62,1806.09 1429.71,1806.09 
  1430.8,1806.09 1431.89,1806.09 1432.98,1806.09 1434.07,1806.09 1435.16,1806.09 1436.25,1806.09 1437.34,1806.09 1438.43,1806.09 1439.52,1806.09 1440.61,1806.09 
  1441.7,1806.09 1442.79,1806.09 1443.88,1806.09 1444.97,1806.09 1446.06,1806.09 1447.15,1806.09 1448.24,1806.09 1449.33,1806.09 1450.42,1806.09 1451.51,1806.09 
  1452.6,1806.09 1453.69,1806.09 1454.78,1806.09 1455.87,1806.09 1456.96,1806.09 1458.05,1806.09 1459.14,1806.09 1460.23,1806.09 1461.32,1806.09 1462.41,1806.09 
  1463.5,1806.09 1464.59,1806.09 1465.68,1806.09 1466.77,1806.09 1467.86,1806.09 1468.95,1806.09 1470.04,1806.09 1471.13,1806.09 1472.22,1806.09 1473.31,1806.09 
  1474.4,1806.09 1475.49,1806.09 1476.58,1806.09 1477.67,1806.09 1478.76,1806.09 1479.85,1806.09 1480.94,1806.09 1482.03,1806.09 1483.12,1806.09 1484.21,1806.09 
  1485.3,1806.09 1486.39,127.792 1487.48,127.792 1488.57,127.792 1489.66,127.792 1490.75,127.792 1491.84,127.792 1492.93,127.792 1494.02,127.792 1495.11,127.792 
  1496.2,127.792 1497.29,127.792 1498.38,127.792 1499.47,127.792 1500.56,127.792 1501.65,127.792 1502.74,127.792 1503.83,127.792 1504.92,127.792 1506.01,127.792 
  1507.1,127.792 1508.19,127.792 1509.28,127.792 1510.37,127.792 1511.46,127.792 1512.55,127.792 1513.64,127.792 1514.73,127.792 1515.82,127.792 1516.91,127.792 
  1518,127.792 1519.09,127.792 1520.18,127.792 1521.27,127.792 1522.36,127.792 1523.45,127.792 1524.54,127.792 1525.63,127.792 1526.72,127.792 1527.81,127.792 
  1528.9,127.792 1529.99,127.792 1531.08,127.792 1532.17,127.792 1533.26,127.792 1534.35,127.792 1535.44,127.792 1536.53,127.792 1537.62,127.792 1538.71,127.792 
  1539.8,127.792 1540.89,127.792 1541.98,127.792 1543.07,127.792 1544.16,127.792 1545.25,127.792 1546.34,127.792 1547.43,127.792 1548.52,127.792 1549.61,127.792 
  1550.7,127.792 1551.79,127.792 1552.88,127.792 1553.98,127.792 1555.07,127.792 1556.16,127.792 1557.25,127.792 1558.34,127.792 1559.43,127.792 1560.52,127.792 
  1561.61,127.792 1562.7,127.792 1563.79,127.792 1564.88,127.792 1565.97,127.792 1567.06,127.792 1568.15,127.792 1569.24,127.792 1570.33,127.792 1571.42,127.792 
  1572.51,127.792 1573.6,127.792 1574.69,127.792 1575.78,127.792 1576.87,127.792 1577.96,127.792 1579.05,127.792 1580.14,127.792 1581.23,127.792 1582.32,127.792 
  1583.41,127.792 1584.5,127.792 1585.59,127.792 1586.68,127.792 1587.77,127.792 1588.86,127.792 1589.95,127.792 1591.04,127.792 1592.13,127.792 1593.22,127.792 
  1594.31,127.792 1595.4,127.792 1596.49,127.792 1597.58,127.792 1598.67,127.792 1599.76,127.792 1600.85,127.792 1601.94,127.792 1603.03,127.792 1604.12,127.792 
  1605.21,127.792 1606.3,127.792 1607.39,127.792 1608.48,127.792 1609.57,127.792 1610.66,127.792 1611.75,127.792 1612.84,127.792 1613.93,127.792 1615.02,127.792 
  1616.11,127.792 1617.2,127.792 1618.29,127.792 1619.38,127.792 1620.47,127.792 1621.56,127.792 1622.65,127.792 1623.74,127.792 1624.83,127.792 1625.92,127.792 
  1627.01,127.792 1628.1,127.792 1629.19,127.792 1630.28,127.792 1631.37,127.792 1632.46,127.792 1633.55,127.792 1634.64,127.792 1635.73,127.792 1636.82,127.792 
  1637.91,127.792 1639,127.792 1640.09,127.792 1641.18,127.792 1642.27,127.792 1643.36,127.792 1644.45,127.792 1645.54,127.792 1646.63,127.792 1647.72,127.792 
  1648.81,127.792 1649.9,127.792 1650.99,127.792 1652.08,127.792 1653.17,127.792 1654.26,127.792 1655.35,127.792 1656.44,127.792 1657.53,127.792 1658.62,127.792 
  1659.71,127.792 1660.8,127.792 1661.89,127.792 1662.98,127.792 1664.07,127.792 1665.16,127.792 1666.25,127.792 1667.34,127.792 1668.43,127.792 1669.52,127.792 
  1670.61,127.792 1671.7,127.792 1672.79,127.792 1673.88,127.792 1674.97,127.792 1676.06,127.792 1677.15,127.792 1678.24,127.792 1679.33,127.792 1680.42,127.792 
  1681.51,127.792 1682.6,127.792 1683.69,127.792 1684.78,127.792 1685.87,127.792 1686.96,127.792 1688.05,127.792 1689.14,127.792 1690.23,127.792 1691.32,127.792 
  1692.41,127.792 1693.5,127.792 1694.59,127.792 1695.68,127.792 1696.77,127.792 1697.86,127.792 1698.95,127.792 1700.04,127.792 1701.13,127.792 1702.22,127.792 
  1703.31,127.792 1704.4,127.792 1705.49,127.792 1706.58,127.792 1707.67,127.792 1708.76,127.792 1709.85,127.792 1710.94,127.792 1712.03,127.792 1713.12,127.792 
  1714.21,127.792 1715.3,127.792 1716.39,127.792 1717.48,127.792 1718.57,127.792 1719.66,127.792 1720.75,127.792 1721.84,127.792 1722.93,127.792 1724.02,127.792 
  1725.11,127.792 1726.2,127.792 1727.29,127.792 1728.38,127.792 1729.47,127.792 1730.56,127.792 1731.65,127.792 1732.74,127.792 1733.83,127.792 1734.92,127.792 
  1736.01,127.792 1737.1,127.792 1738.19,127.792 1739.28,127.792 1740.37,127.792 1741.46,127.792 1742.55,127.792 1743.64,127.792 1744.73,127.792 1745.82,127.792 
  1746.91,127.792 1748,127.792 1749.09,127.792 1750.18,127.792 1751.27,127.792 1752.36,127.792 1753.45,127.792 1754.54,127.792 1755.63,127.792 1756.72,127.792 
  1757.81,127.792 1758.9,127.792 1759.99,127.792 1761.08,127.792 1762.17,127.792 1763.26,127.792 1764.35,127.792 1765.44,127.792 1766.53,127.792 1767.63,127.792 
  1768.72,127.792 1769.81,127.792 1770.9,127.792 1771.99,127.792 1773.08,127.792 1774.17,127.792 1775.26,127.792 1776.35,127.792 1777.44,127.792 1778.53,127.792 
  1779.62,127.792 1780.71,127.792 1781.8,127.792 1782.89,127.792 1783.98,127.792 1785.07,127.792 1786.16,127.792 1787.25,127.792 1788.34,127.792 1789.43,127.792 
  1790.52,127.792 1791.61,127.792 1792.7,127.792 1793.79,127.792 1794.88,127.792 1795.97,127.792 1797.06,127.792 1798.15,127.792 1799.24,127.792 1800.33,127.792 
  1801.42,127.792 1802.51,127.792 1803.6,127.792 1804.69,127.792 1805.78,127.792 1806.87,127.792 1807.96,127.792 1809.05,127.792 1810.14,127.792 1811.23,127.792 
  1812.32,127.792 1813.41,127.792 1814.5,127.792 1815.59,127.792 1816.68,127.792 1817.77,127.792 1818.86,127.792 1819.95,127.792 1821.04,127.792 1822.13,127.792 
  1823.22,127.792 1824.31,127.792 1825.4,127.792 1826.49,127.792 1827.58,127.792 1828.67,127.792 1829.76,127.792 1830.85,127.792 1831.94,127.792 1833.03,127.792 
  1834.12,127.792 1835.21,127.792 1836.3,127.792 1837.39,127.792 1838.48,127.792 1839.57,127.792 1840.66,127.792 1841.75,127.792 1842.84,127.792 1843.93,127.792 
  1845.02,127.792 1846.11,127.792 1847.2,127.792 1848.29,127.792 1849.38,127.792 1850.47,127.792 1851.56,127.792 1852.65,127.792 1853.74,127.792 1854.83,127.792 
  1855.92,127.792 1857.01,127.792 1858.1,127.792 1859.19,127.792 1860.28,127.792 1861.37,127.792 1862.46,127.792 1863.55,127.792 1864.64,127.792 1865.73,127.792 
  1866.82,127.792 1867.91,127.792 1869,127.792 1870.09,127.792 1871.18,127.792 1872.27,127.792 1873.36,127.792 1874.45,127.792 1875.54,127.792 1876.63,127.792 
  1877.72,127.792 1878.81,127.792 1879.9,127.792 1880.99,127.792 1882.08,127.792 1883.17,127.792 1884.26,127.792 1885.35,127.792 1886.44,127.792 1887.53,127.792 
  1888.62,127.792 1889.71,127.792 1890.8,127.792 1891.89,127.792 1892.98,127.792 1894.07,127.792 1895.16,127.792 1896.25,127.792 1897.34,127.792 1898.43,127.792 
  1899.52,127.792 1900.61,127.792 1901.7,127.792 1902.79,127.792 1903.88,127.792 1904.97,127.792 1906.06,127.792 1907.15,127.792 1908.24,127.792 1909.33,127.792 
  1910.42,127.792 1911.51,127.792 1912.6,127.792 1913.69,127.792 1914.78,127.792 1915.87,127.792 1916.96,127.792 1918.05,127.792 1919.14,127.792 1920.23,127.792 
  1921.32,127.792 1922.41,127.792 1923.5,127.792 1924.59,127.792 1925.68,127.792 1926.77,127.792 1927.86,127.792 1928.95,127.792 1930.04,127.792 1931.13,127.792 
  1932.22,127.792 1933.31,127.792 1934.4,127.792 1935.49,127.792 1936.58,127.792 1937.67,127.792 1938.76,127.792 1939.85,127.792 1940.94,127.792 1942.03,127.792 
  1943.12,127.792 1944.21,127.792 1945.3,127.792 1946.39,127.792 1947.48,127.792 1948.57,127.792 1949.66,127.792 1950.75,127.792 1951.84,127.792 1952.93,127.792 
  1954.02,127.792 1955.11,127.792 1956.2,127.792 1957.29,127.792 1958.38,127.792 1959.47,127.792 1960.56,127.792 1961.65,127.792 1962.74,127.792 1963.83,127.792 
  1964.92,127.792 1966.01,127.792 1967.1,127.792 1968.19,127.792 1969.28,127.792 1970.37,127.792 1971.46,127.792 1972.55,127.792 1973.64,127.792 1974.73,127.792 
  1975.82,127.792 1976.91,127.792 1978,127.792 1979.09,127.792 1980.18,127.792 1981.28,127.792 1982.37,127.792 1983.46,127.792 1984.55,127.792 1985.64,127.792 
  1986.73,127.792 1987.82,127.792 1988.91,127.792 1990,127.792 1991.09,127.792 1992.18,127.792 1993.27,127.792 1994.36,127.792 1995.45,127.792 1996.54,127.792 
  1997.63,127.792 1998.72,127.792 1999.81,127.792 2000.9,127.792 2001.99,127.792 2003.08,127.792 2004.17,127.792 2005.26,127.792 2006.35,127.792 2007.44,127.792 
  2008.53,127.792 2009.62,127.792 2010.71,127.792 2011.8,127.792 2012.89,127.792 2013.98,127.792 2015.07,127.792 2016.16,127.792 2017.25,127.792 2018.34,127.792 
  2019.43,127.792 2020.52,127.792 2021.61,127.792 2022.7,127.792 2023.79,127.792 2024.88,127.792 2025.97,127.792 2027.06,127.792 2028.15,127.792 2029.24,127.792 
  2030.33,127.792 2031.42,127.792 2032.51,127.792 2033.6,127.792 2034.69,127.792 2035.78,127.792 2036.87,127.792 2037.96,127.792 2039.05,127.792 2040.14,127.792 
  2041.23,127.792 2042.32,127.792 2043.41,127.792 2044.5,127.792 2045.59,127.792 2046.68,127.792 2047.77,127.792 2048.86,127.792 2049.95,127.792 2051.04,127.792 
  2052.13,127.792 2053.22,127.792 2054.31,127.792 2055.4,127.792 2056.49,127.792 2057.58,127.792 2058.67,127.792 2059.76,127.792 2060.85,127.792 2061.94,127.792 
  2063.03,127.792 2064.12,127.792 2065.21,127.792 2066.3,127.792 2067.39,127.792 2068.48,127.792 2069.57,127.792 2070.66,127.792 2071.75,127.792 2072.84,127.792 
  2073.93,127.792 2075.02,127.792 2076.11,127.792 2077.2,127.792 2078.29,127.792 2079.38,127.792 2080.47,127.792 2081.56,127.792 2082.65,127.792 2083.74,127.792 
  2084.83,127.792 2085.92,127.792 2087.01,127.792 2088.1,127.792 2089.19,127.792 2090.28,127.792 2091.37,127.792 2092.46,127.792 2093.55,127.792 2094.64,127.792 
  2095.73,127.792 2096.82,127.792 2097.91,127.792 2099,127.792 2100.09,127.792 2101.18,127.792 2102.27,127.792 2103.36,127.792 2104.45,127.792 2105.54,127.792 
  2106.63,127.792 2107.72,127.792 2108.81,127.792 2109.9,127.792 2110.99,127.792 2112.08,127.792 2113.17,127.792 2114.26,127.792 2115.35,127.792 2116.44,127.792 
  2117.53,127.792 2118.62,127.792 2119.71,127.792 2120.8,127.792 2121.89,127.792 2122.98,127.792 2124.07,127.792 2125.16,127.792 2126.25,127.792 2127.34,127.792 
  2128.43,127.792 2129.52,127.792 2130.61,127.792 2131.7,127.792 2132.79,127.792 2133.88,127.792 2134.97,127.792 2136.06,127.792 2137.15,127.792 2138.24,127.792 
  2139.33,127.792 2140.42,127.792 2141.51,127.792 2142.6,127.792 2143.69,127.792 2144.78,127.792 2145.87,127.792 2146.96,127.792 2148.05,127.792 2149.14,127.792 
  2150.23,127.792 2151.32,127.792 2152.41,127.792 2153.5,127.792 2154.59,127.792 2155.68,127.792 2156.77,127.792 2157.86,127.792 2158.95,127.792 2160.04,127.792 
  2161.13,127.792 2162.22,127.792 2163.31,127.792 2164.4,127.792 2165.49,127.792 2166.58,127.792 2167.67,127.792 2168.76,127.792 2169.85,127.792 2170.94,127.792 
  2172.03,127.792 2173.12,127.792 2174.21,127.792 2175.3,127.792 2176.39,127.792 2177.48,127.792 2178.57,127.792 2179.66,127.792 2180.75,127.792 2181.84,127.792 
  2182.93,127.792 2184.02,127.792 2185.11,127.792 2186.2,127.792 2187.29,127.792 2188.38,127.792 2189.47,127.792 2190.56,127.792 2191.65,127.792 2192.74,127.792 
  2193.83,127.792 2194.93,127.792 2196.02,127.792 2197.11,127.792 2198.2,127.792 2199.29,127.792 2200.38,127.792 2201.47,127.792 2202.56,127.792 2203.65,127.792 
  2204.74,127.792 2205.83,127.792 2206.92,127.792 2208.01,127.792 2209.1,127.792 2210.19,127.792 2211.28,127.792 2212.37,127.792 2213.46,127.792 2214.55,127.792 
  2215.64,127.792 2216.73,127.792 2217.82,127.792 2218.91,127.792 2220,127.792 2221.09,127.792 2222.18,127.792 2223.27,127.792 2224.36,127.792 2225.45,127.792 
  2226.54,127.792 2227.63,127.792 2228.72,127.792 2229.81,127.792 2230.9,127.792 2231.99,127.792 2233.08,127.792 2234.17,127.792 2235.26,127.792 2236.35,127.792 
  2237.44,127.792 2238.53,127.792 2239.62,127.792 2240.71,127.792 2241.8,127.792 2242.89,127.792 2243.98,127.792 2245.07,127.792 2246.16,127.792 2247.25,127.792 
  2248.34,127.792 2249.43,127.792 2250.52,127.792 2251.61,127.792 2252.7,127.792 2253.79,127.792 2254.88,127.792 2255.97,127.792 2257.06,127.792 2258.15,127.792 
  2259.24,127.792 2260.33,127.792 2261.42,127.792 2262.51,127.792 2263.6,127.792 2264.69,127.792 2265.78,127.792 2266.87,127.792 2267.96,127.792 2269.05,127.792 
  2270.14,127.792 2271.23,127.792 2272.32,127.792 2273.41,127.792 2274.5,127.792 2275.59,127.792 2276.68,127.792 2277.77,127.792 2278.86,127.792 2279.95,127.792 
  2281.04,127.792 2282.13,127.792 2283.22,127.792 2284.31,127.792 2285.4,127.792 2286.49,127.792 2287.58,127.792 2288.67,127.792 2289.76,127.792 2290.85,127.792 
  2291.94,127.792 2293.03,127.792 2294.12,127.792 2295.21,127.792 2296.3,127.792 2297.39,127.792 2298.48,127.792 2299.57,127.792 2300.66,127.792 2301.75,127.792 
  2302.84,127.792 2303.93,127.792 2305.02,127.792 2306.11,127.792 2307.2,127.792 2308.29,127.792 2309.38,127.792 2310.47,127.792 2311.56,127.792 2312.65,127.792 
  2313.74,127.792 2314.83,127.792 2315.92,127.792 2317.01,127.792 2318.1,127.792 2319.19,127.792 2320.28,127.792 2321.37,127.792 2322.46,127.792 2323.55,127.792 
  2324.64,127.792 2325.73,127.792 2326.82,127.792 2327.91,127.792 2329,127.792 2330.09,127.792 2331.18,127.792 2332.27,127.792 2333.36,127.792 2334.45,127.792 
  2335.54,127.792 2336.63,127.792 2337.72,127.792 2338.81,127.792 2339.9,127.792 2340.99,127.792 2342.08,127.792 2343.17,127.792 2344.26,127.792 2345.35,127.792 
  2346.44,127.792 2347.53,127.792 2348.62,127.792 2349.71,127.792 2350.8,127.792 2351.89,127.792 2352.98,127.792 2354.07,127.792 2355.16,127.792 2356.25,127.792 
  2357.34,127.792 2358.43,127.792 2359.52,127.792 2360.61,127.792 2361.7,127.792 2362.79,127.792 2363.88,127.792 2364.97,127.792 2366.06,127.792 2367.15,127.792 
  2368.24,127.792 2369.33,127.792 2370.42,127.792 2371.51,127.792 2372.6,127.792 2373.69,127.792 2374.78,127.792 2375.87,127.792 2376.96,127.792 2378.05,127.792 
  2379.14,127.792 2380.23,127.792 2381.32,127.792 2382.41,127.792 2383.5,127.792 2384.59,127.792 2385.68,127.792 2386.77,127.792 2387.86,127.792 2388.95,127.792 
  2390.04,127.792 2391.13,127.792 2392.22,127.792 2393.31,127.792 2394.4,127.792 2395.49,127.792 2396.58,127.792 2397.67,127.792 2398.76,127.792 2399.85,127.792 
  2400.94,127.792 2402.03,127.792 2403.12,127.792 2404.21,127.792 2405.3,127.792 2406.39,127.792 2407.48,127.792 2408.58,127.792 2409.67,127.792 2410.76,127.792 
  2411.85,127.792 2412.94,127.792 2414.03,127.792 2415.12,127.792 2416.21,127.792 2417.3,127.792 2418.39,127.792 2419.48,127.792 2420.57,127.792 2421.66,127.792 
  2422.75,127.792 2423.84,127.792 2424.93,127.792 2426.02,127.792 2427.11,127.792 2428.2,127.792 2429.29,127.792 2430.38,127.792 2431.47,127.792 2432.56,127.792 
  2433.65,127.792 2434.74,127.792 2435.83,127.792 2436.92,127.792 2438.01,127.792 2439.1,127.792 2440.19,127.792 2441.28,127.792 2442.37,127.792 2443.46,127.792 
  2444.55,127.792 2445.64,127.792 2446.73,127.792 2447.82,127.792 2448.91,127.792 2450,127.792 2451.09,127.792 2452.18,127.792 2453.27,127.792 2454.36,127.792 
  2455.45,127.792 2456.54,127.792 2457.63,127.792 2458.72,127.792 2459.81,127.792 2460.9,127.792 2461.99,127.792 2463.08,127.792 2464.17,127.792 2465.26,127.792 
  2466.35,127.792 2467.44,127.792 2468.53,127.792 2469.62,127.792 2470.71,127.792 2471.8,127.792 2472.89,127.792 2473.98,127.792 2475.07,127.792 2476.16,127.792 
  2477.25,127.792 2478.34,127.792 2479.43,127.792 2480.52,127.792 2481.61,127.792 2482.7,127.792 2483.79,127.792 2484.88,127.792 2485.97,127.792 2487.06,127.792 
  2488.15,127.792 2489.24,127.792 2490.33,127.792 2491.42,127.792 2492.51,127.792 2493.6,127.792 2494.69,127.792 2495.78,127.792 2496.87,127.792 2497.96,127.792 
  2499.05,127.792 2500.14,127.792 2501.23,127.792 2502.32,127.792 2503.41,127.792 2504.5,127.792 2505.59,127.792 2506.68,127.792 2507.77,127.792 2508.86,127.792 
  2509.95,127.792 2511.04,127.792 2512.13,127.792 2513.22,127.792 2514.31,127.792 2515.4,127.792 2516.49,127.792 2517.58,127.792 2518.67,127.792 2519.76,127.792 
  2520.85,127.792 2521.94,127.792 2523.03,127.792 2524.12,127.792 2525.21,127.792 2526.3,127.792 2527.39,127.792 2528.48,127.792 2529.57,127.792 2530.66,127.792 
  2531.75,127.792 2532.84,127.792 2533.93,127.792 2535.02,127.792 2536.11,127.792 2537.2,127.792 2538.29,127.792 2539.38,127.792 2540.47,127.792 2541.56,127.792 
  2542.65,127.792 2543.74,127.792 2544.83,127.792 2545.92,127.792 2547.01,127.792 2548.1,127.792 2549.19,127.792 2550.28,127.792 2551.37,127.792 2552.46,127.792 
  2553.55,127.792 2554.64,127.792 2555.73,127.792 2556.82,127.792 2557.91,127.792 2559,127.792 2560.09,127.792 2561.18,127.792 2562.27,127.792 2563.36,127.792 
  2564.45,127.792 2565.54,127.792 2566.63,127.792 2567.72,127.792 2568.81,127.792 2569.9,127.792 2570.99,127.792 2572.08,127.792 2573.17,127.792 2574.26,127.792 
  2575.35,127.792 
  "/>
</svg>
