<?xml version="1.0" encoding="utf-8"?>
<svg xmlns="http://www.w3.org/2000/svg" xmlns:xlink="http://www.w3.org/1999/xlink" width="672" height="480" viewBox="0 0 2688 1920">
<defs>
  <clipPath id="clip850">
    <rect x="0" y="0" width="2688" height="1920"/>
  </clipPath>
</defs>
<path clip-path="url(#clip850)" d="
M0 1920 L2688 1920 L2688 0 L0 0  Z
  " fill="#ffffff" fill-rule="evenodd" fill-opacity="1"/>
<defs>
  <clipPath id="clip851">
    <rect x="537" y="0" width="1883" height="1883"/>
  </clipPath>
</defs>
<path clip-path="url(#clip850)" d="
M329.848 1806.09 L2640.76 1806.09 L2640.76 127.792 L329.848 127.792  Z
  " fill="#ffffff" fill-rule="evenodd" fill-opacity="1"/>
<defs>
  <clipPath id="clip852">
    <rect x="329" y="127" width="2312" height="1679"/>
  </clipPath>
</defs>
<polyline clip-path="url(#clip850)" style="stroke:#000000; stroke-linecap:round; stroke-linejoin:round; stroke-width:4; stroke-opacity:1; fill:none" points="
  329.848,1806.09 2640.76,1806.09 
  "/>
<path clip-path="url(#clip850)" d="M1182.93 1855.92 L1192.51 1855.92 L1204.64 1888.26 L1216.83 1855.92 L1226.41 1855.92 L1226.41 1903.44 L1220.14 1903.44 L1220.14 1861.71 L1207.88 1894.3 L1201.42 1894.3 L1189.17 1861.71 L1189.17 1903.44 L1182.93 1903.44 L1182.93 1855.92 Z" fill="#000000" fill-rule="evenodd" fill-opacity="1" /><path clip-path="url(#clip850)" d="M1269.41 1884.15 L1269.41 1887.01 L1242.48 1887.01 Q1242.86 1893.06 1246.11 1896.24 Q1249.39 1899.4 1255.21 1899.4 Q1258.59 1899.4 1261.74 1898.57 Q1264.92 1897.74 1268.04 1896.09 L1268.04 1901.62 Q1264.89 1902.96 1261.58 1903.66 Q1258.27 1904.36 1254.86 1904.36 Q1246.33 1904.36 1241.34 1899.4 Q1236.37 1894.43 1236.37 1885.96 Q1236.37 1877.21 1241.08 1872.09 Q1245.82 1866.93 1253.84 1866.93 Q1261.04 1866.93 1265.21 1871.58 Q1269.41 1876.19 1269.41 1884.15 M1263.55 1882.43 Q1263.49 1877.62 1260.85 1874.76 Q1258.24 1871.9 1253.91 1871.9 Q1249.01 1871.9 1246.05 1874.66 Q1243.12 1877.43 1242.67 1882.46 L1263.55 1882.43 Z" fill="#000000" fill-rule="evenodd" fill-opacity="1" /><path clip-path="url(#clip850)" d="M1306.78 1874.63 Q1308.97 1870.69 1312.03 1868.81 Q1315.08 1866.93 1319.22 1866.93 Q1324.79 1866.93 1327.81 1870.85 Q1330.84 1874.73 1330.84 1881.92 L1330.84 1903.44 L1324.95 1903.44 L1324.95 1882.11 Q1324.95 1876.99 1323.14 1874.51 Q1321.32 1872.02 1317.6 1872.02 Q1313.05 1872.02 1310.4 1875.05 Q1307.76 1878.07 1307.76 1883.29 L1307.76 1903.44 L1301.87 1903.44 L1301.87 1882.11 Q1301.87 1876.96 1300.06 1874.51 Q1298.25 1872.02 1294.46 1872.02 Q1289.97 1872.02 1287.33 1875.08 Q1284.69 1878.1 1284.69 1883.29 L1284.69 1903.44 L1278.8 1903.44 L1278.8 1867.79 L1284.69 1867.79 L1284.69 1873.33 Q1286.69 1870.05 1289.49 1868.49 Q1292.29 1866.93 1296.14 1866.93 Q1300.03 1866.93 1302.73 1868.9 Q1305.47 1870.88 1306.78 1874.63 Z" fill="#000000" fill-rule="evenodd" fill-opacity="1" /><path clip-path="url(#clip850)" d="M1368.11 1885.65 Q1368.11 1879.18 1365.44 1875.52 Q1362.79 1871.83 1358.15 1871.83 Q1353.5 1871.83 1350.83 1875.52 Q1348.18 1879.18 1348.18 1885.65 Q1348.18 1892.11 1350.83 1895.8 Q1353.5 1899.46 1358.15 1899.46 Q1362.79 1899.46 1365.44 1895.8 Q1368.11 1892.11 1368.11 1885.65 M1348.18 1873.2 Q1350.03 1870.02 1352.83 1868.49 Q1355.66 1866.93 1359.58 1866.93 Q1366.07 1866.93 1370.11 1872.09 Q1374.19 1877.24 1374.19 1885.65 Q1374.19 1894.05 1370.11 1899.2 Q1366.07 1904.36 1359.58 1904.36 Q1355.66 1904.36 1352.83 1902.83 Q1350.03 1901.27 1348.18 1898.09 L1348.18 1903.44 L1342.3 1903.44 L1342.3 1853.91 L1348.18 1853.91 L1348.18 1873.2 Z" fill="#000000" fill-rule="evenodd" fill-opacity="1" /><path clip-path="url(#clip850)" d="M1404.55 1873.26 Q1403.57 1872.69 1402.39 1872.44 Q1401.24 1872.15 1399.84 1872.15 Q1394.88 1872.15 1392.2 1875.4 Q1389.56 1878.61 1389.56 1884.66 L1389.56 1903.44 L1383.67 1903.44 L1383.67 1867.79 L1389.56 1867.79 L1389.56 1873.33 Q1391.41 1870.08 1394.37 1868.52 Q1397.33 1866.93 1401.56 1866.93 Q1402.17 1866.93 1402.9 1867.03 Q1403.63 1867.09 1404.52 1867.25 L1404.55 1873.26 Z" fill="#000000" fill-rule="evenodd" fill-opacity="1" /><path clip-path="url(#clip850)" d="M1426.9 1885.52 Q1419.8 1885.52 1417.06 1887.14 Q1414.32 1888.76 1414.32 1892.68 Q1414.32 1895.8 1416.36 1897.64 Q1418.43 1899.46 1421.96 1899.46 Q1426.83 1899.46 1429.76 1896.02 Q1432.72 1892.55 1432.72 1886.82 L1432.72 1885.52 L1426.9 1885.52 M1438.58 1883.1 L1438.58 1903.44 L1432.72 1903.44 L1432.72 1898.03 Q1430.72 1901.27 1427.72 1902.83 Q1424.73 1904.36 1420.4 1904.36 Q1414.93 1904.36 1411.68 1901.31 Q1408.47 1898.22 1408.47 1893.06 Q1408.47 1887.05 1412.48 1883.99 Q1416.52 1880.93 1424.51 1880.93 L1432.72 1880.93 L1432.72 1880.36 Q1432.72 1876.32 1430.05 1874.12 Q1427.41 1871.9 1422.6 1871.9 Q1419.54 1871.9 1416.65 1872.63 Q1413.75 1873.36 1411.08 1874.82 L1411.08 1869.41 Q1414.29 1868.17 1417.32 1867.57 Q1420.34 1866.93 1423.2 1866.93 Q1430.94 1866.93 1434.76 1870.94 Q1438.58 1874.95 1438.58 1883.1 Z" fill="#000000" fill-rule="evenodd" fill-opacity="1" /><path clip-path="url(#clip850)" d="M1480.27 1881.92 L1480.27 1903.44 L1474.42 1903.44 L1474.42 1882.11 Q1474.42 1877.05 1472.44 1874.54 Q1470.47 1872.02 1466.52 1872.02 Q1461.78 1872.02 1459.04 1875.05 Q1456.31 1878.07 1456.31 1883.29 L1456.31 1903.44 L1450.42 1903.44 L1450.42 1867.79 L1456.31 1867.79 L1456.31 1873.33 Q1458.41 1870.11 1461.24 1868.52 Q1464.1 1866.93 1467.83 1866.93 Q1473.97 1866.93 1477.12 1870.75 Q1480.27 1874.54 1480.27 1881.92 Z" fill="#000000" fill-rule="evenodd" fill-opacity="1" /><path clip-path="url(#clip850)" d="M1522.45 1884.15 L1522.45 1887.01 L1495.52 1887.01 Q1495.9 1893.06 1499.15 1896.24 Q1502.43 1899.4 1508.25 1899.4 Q1511.62 1899.4 1514.78 1898.57 Q1517.96 1897.74 1521.08 1896.09 L1521.08 1901.62 Q1517.93 1902.96 1514.62 1903.66 Q1511.31 1904.36 1507.9 1904.36 Q1499.37 1904.36 1494.37 1899.4 Q1489.41 1894.43 1489.41 1885.96 Q1489.41 1877.21 1494.12 1872.09 Q1498.86 1866.93 1506.88 1866.93 Q1514.07 1866.93 1518.24 1871.58 Q1522.45 1876.19 1522.45 1884.15 M1516.59 1882.43 Q1516.53 1877.62 1513.88 1874.76 Q1511.27 1871.9 1506.95 1871.9 Q1502.04 1871.9 1499.08 1874.66 Q1496.16 1877.43 1495.71 1882.46 L1516.59 1882.43 Z" fill="#000000" fill-rule="evenodd" fill-opacity="1" /><path clip-path="url(#clip850)" d="M1565.29 1903.44 L1547.14 1855.92 L1553.86 1855.92 L1568.92 1895.93 L1584 1855.92 L1590.69 1855.92 L1572.58 1903.44 L1565.29 1903.44 Z" fill="#000000" fill-rule="evenodd" fill-opacity="1" /><path clip-path="url(#clip850)" d="M1606.12 1871.9 Q1601.41 1871.9 1598.68 1875.59 Q1595.94 1879.25 1595.94 1885.65 Q1595.94 1892.04 1598.64 1895.74 Q1601.38 1899.4 1606.12 1899.4 Q1610.8 1899.4 1613.54 1895.7 Q1616.28 1892.01 1616.28 1885.65 Q1616.28 1879.31 1613.54 1875.62 Q1610.8 1871.9 1606.12 1871.9 M1606.12 1866.93 Q1613.76 1866.93 1618.12 1871.9 Q1622.48 1876.86 1622.48 1885.65 Q1622.48 1894.4 1618.12 1899.4 Q1613.76 1904.36 1606.12 1904.36 Q1598.45 1904.36 1594.09 1899.4 Q1589.76 1894.4 1589.76 1885.65 Q1589.76 1876.86 1594.09 1871.9 Q1598.45 1866.93 1606.12 1866.93 Z" fill="#000000" fill-rule="evenodd" fill-opacity="1" /><path clip-path="url(#clip850)" d="M1632.19 1853.91 L1638.05 1853.91 L1638.05 1903.44 L1632.19 1903.44 L1632.19 1853.91 Z" fill="#000000" fill-rule="evenodd" fill-opacity="1" /><path clip-path="url(#clip850)" d="M1656.09 1857.67 L1656.09 1867.79 L1668.16 1867.79 L1668.16 1872.34 L1656.09 1872.34 L1656.09 1891.69 Q1656.09 1896.05 1657.27 1897.29 Q1658.48 1898.54 1662.14 1898.54 L1668.16 1898.54 L1668.16 1903.44 L1662.14 1903.44 Q1655.36 1903.44 1652.78 1900.92 Q1650.21 1898.38 1650.21 1891.69 L1650.21 1872.34 L1645.91 1872.34 L1645.91 1867.79 L1650.21 1867.79 L1650.21 1857.67 L1656.09 1857.67 Z" fill="#000000" fill-rule="evenodd" fill-opacity="1" /><path clip-path="url(#clip850)" d="M1692.06 1885.52 Q1684.96 1885.52 1682.22 1887.14 Q1679.49 1888.76 1679.49 1892.68 Q1679.49 1895.8 1681.52 1897.64 Q1683.59 1899.46 1687.13 1899.46 Q1692 1899.46 1694.92 1896.02 Q1697.88 1892.55 1697.88 1886.82 L1697.88 1885.52 L1692.06 1885.52 M1703.74 1883.1 L1703.74 1903.44 L1697.88 1903.44 L1697.88 1898.03 Q1695.88 1901.27 1692.89 1902.83 Q1689.9 1904.36 1685.57 1904.36 Q1680.09 1904.36 1676.85 1901.31 Q1673.63 1898.22 1673.63 1893.06 Q1673.63 1887.05 1677.64 1883.99 Q1681.68 1880.93 1689.67 1880.93 L1697.88 1880.93 L1697.88 1880.36 Q1697.88 1876.32 1695.21 1874.12 Q1692.57 1871.9 1687.76 1871.9 Q1684.71 1871.9 1681.81 1872.63 Q1678.91 1873.36 1676.24 1874.82 L1676.24 1869.41 Q1679.46 1868.17 1682.48 1867.57 Q1685.5 1866.93 1688.37 1866.93 Q1696.1 1866.93 1699.92 1870.94 Q1703.74 1874.95 1703.74 1883.1 Z" fill="#000000" fill-rule="evenodd" fill-opacity="1" /><path clip-path="url(#clip850)" d="M1739.26 1885.2 Q1739.26 1878.83 1736.62 1875.33 Q1734.01 1871.83 1729.27 1871.83 Q1724.56 1871.83 1721.92 1875.33 Q1719.31 1878.83 1719.31 1885.2 Q1719.31 1891.53 1721.92 1895.03 Q1724.56 1898.54 1729.27 1898.54 Q1734.01 1898.54 1736.62 1895.03 Q1739.26 1891.53 1739.26 1885.2 M1745.12 1899.01 Q1745.12 1908.12 1741.08 1912.54 Q1737.03 1917 1728.69 1917 Q1725.61 1917 1722.87 1916.52 Q1720.13 1916.07 1717.55 1915.12 L1717.55 1909.42 Q1720.13 1910.82 1722.65 1911.49 Q1725.16 1912.16 1727.77 1912.16 Q1733.53 1912.16 1736.4 1909.13 Q1739.26 1906.14 1739.26 1900.06 L1739.26 1897.17 Q1737.45 1900.32 1734.61 1901.88 Q1731.78 1903.44 1727.84 1903.44 Q1721.28 1903.44 1717.27 1898.44 Q1713.26 1893.44 1713.26 1885.2 Q1713.26 1876.92 1717.27 1871.93 Q1721.28 1866.93 1727.84 1866.93 Q1731.78 1866.93 1734.61 1868.49 Q1737.45 1870.05 1739.26 1873.2 L1739.26 1867.79 L1745.12 1867.79 L1745.12 1899.01 Z" fill="#000000" fill-rule="evenodd" fill-opacity="1" /><path clip-path="url(#clip850)" d="M1787.67 1884.15 L1787.67 1887.01 L1760.75 1887.01 Q1761.13 1893.06 1764.37 1896.24 Q1767.65 1899.4 1773.48 1899.4 Q1776.85 1899.4 1780 1898.57 Q1783.19 1897.74 1786.3 1896.09 L1786.3 1901.62 Q1783.15 1902.96 1779.84 1903.66 Q1776.53 1904.36 1773.13 1904.36 Q1764.6 1904.36 1759.6 1899.4 Q1754.63 1894.43 1754.63 1885.96 Q1754.63 1877.21 1759.35 1872.09 Q1764.09 1866.93 1772.11 1866.93 Q1779.3 1866.93 1783.47 1871.58 Q1787.67 1876.19 1787.67 1884.15 M1781.82 1882.43 Q1781.75 1877.62 1779.11 1874.76 Q1776.5 1871.9 1772.17 1871.9 Q1767.27 1871.9 1764.31 1874.66 Q1761.38 1877.43 1760.94 1882.46 L1781.82 1882.43 Z" fill="#000000" fill-rule="evenodd" fill-opacity="1" /><polyline clip-path="url(#clip852)" style="stroke:#000000; stroke-linecap:round; stroke-linejoin:round; stroke-width:2; stroke-opacity:0.1; fill:none" points="
  329.848,1806.09 2640.76,1806.09 
  "/>
<polyline clip-path="url(#clip852)" style="stroke:#000000; stroke-linecap:round; stroke-linejoin:round; stroke-width:2; stroke-opacity:0.1; fill:none" points="
  329.848,127.792 2640.76,127.792 
  "/>
<polyline clip-path="url(#clip850)" style="stroke:#000000; stroke-linecap:round; stroke-linejoin:round; stroke-width:4; stroke-opacity:1; fill:none" points="
  329.848,1806.09 329.848,127.792 
  "/>
<polyline clip-path="url(#clip850)" style="stroke:#000000; stroke-linecap:round; stroke-linejoin:round; stroke-width:4; stroke-opacity:1; fill:none" points="
  329.848,1806.09 348.745,1806.09 
  "/>
<polyline clip-path="url(#clip850)" style="stroke:#000000; stroke-linecap:round; stroke-linejoin:round; stroke-width:4; stroke-opacity:1; fill:none" points="
  329.848,127.792 348.745,127.792 
  "/>
<path clip-path="url(#clip850)" d="M71.7974 111.646 L71.7974 116.207 Q69.1354 114.933 66.7743 114.308 Q64.4132 113.683 62.2141 113.683 Q58.3947 113.683 56.3113 115.165 Q54.2512 116.646 54.2512 119.378 Q54.2512 121.669 55.6169 122.85 Q57.0058 124.007 60.8484 124.725 L63.6724 125.304 Q68.9039 126.299 71.3807 128.822 Q73.8807 131.322 73.8807 135.535 Q73.8807 140.558 70.5011 143.151 Q67.1446 145.743 60.64 145.743 Q58.1863 145.743 55.4086 145.188 Q52.654 144.632 49.691 143.544 L49.691 138.73 Q52.5382 140.327 55.2697 141.137 Q58.0012 141.947 60.64 141.947 Q64.6446 141.947 66.8206 140.373 Q68.9965 138.799 68.9965 135.882 Q68.9965 133.336 67.4224 131.901 Q65.8715 130.466 62.3067 129.748 L59.4595 129.193 Q54.228 128.151 51.8901 125.929 Q49.5521 123.706 49.5521 119.748 Q49.5521 115.165 52.7697 112.526 Q56.0104 109.887 61.6817 109.887 Q64.1122 109.887 66.6354 110.327 Q69.1585 110.767 71.7974 111.646 Z" fill="#000000" fill-rule="evenodd" fill-opacity="1" /><path clip-path="url(#clip850)" d="M92.7695 132.04 Q87.6075 132.04 85.6167 133.22 Q83.626 134.401 83.626 137.248 Q83.626 139.517 85.1075 140.859 Q86.6121 142.179 89.1815 142.179 Q92.7232 142.179 94.8528 139.679 Q97.0056 137.156 97.0056 132.989 L97.0056 132.04 L92.7695 132.04 M101.265 130.281 L101.265 145.072 L97.0056 145.072 L97.0056 141.137 Q95.5472 143.498 93.3713 144.632 Q91.1954 145.743 88.0473 145.743 Q84.0658 145.743 81.7047 143.521 Q79.3668 141.276 79.3668 137.526 Q79.3668 133.151 82.2834 130.929 Q85.2232 128.706 91.0334 128.706 L97.0056 128.706 L97.0056 128.29 Q97.0056 125.35 95.0611 123.753 Q93.1399 122.132 89.6445 122.132 Q87.4223 122.132 85.3158 122.665 Q83.2094 123.197 81.2649 124.262 L81.2649 120.327 Q83.6029 119.424 85.8019 118.984 Q88.001 118.521 90.0843 118.521 Q95.7093 118.521 98.487 121.438 Q101.265 124.355 101.265 130.281 Z" fill="#000000" fill-rule="evenodd" fill-opacity="1" /><path clip-path="url(#clip850)" d="M114.251 111.785 L114.251 119.146 L123.024 119.146 L123.024 122.457 L114.251 122.457 L114.251 136.531 Q114.251 139.702 115.107 140.605 Q115.987 141.507 118.649 141.507 L123.024 141.507 L123.024 145.072 L118.649 145.072 Q113.718 145.072 111.843 143.243 Q109.968 141.392 109.968 136.531 L109.968 122.457 L106.843 122.457 L106.843 119.146 L109.968 119.146 L109.968 111.785 L114.251 111.785 Z" fill="#000000" fill-rule="evenodd" fill-opacity="1" /><path clip-path="url(#clip850)" d="M128.186 134.841 L128.186 119.146 L132.445 119.146 L132.445 134.679 Q132.445 138.359 133.88 140.211 Q135.316 142.04 138.186 142.04 Q141.635 142.04 143.626 139.841 Q145.64 137.642 145.64 133.845 L145.64 119.146 L149.899 119.146 L149.899 145.072 L145.64 145.072 L145.64 141.091 Q144.089 143.452 142.028 144.609 Q139.991 145.743 137.283 145.743 Q132.816 145.743 130.501 142.966 Q128.186 140.188 128.186 134.841 M138.903 118.521 L138.903 118.521 Z" fill="#000000" fill-rule="evenodd" fill-opacity="1" /><path clip-path="url(#clip850)" d="M173.695 123.128 Q172.977 122.711 172.121 122.526 Q171.288 122.318 170.269 122.318 Q166.658 122.318 164.714 124.679 Q162.792 127.017 162.792 131.415 L162.792 145.072 L158.51 145.072 L158.51 119.146 L162.792 119.146 L162.792 123.174 Q164.135 120.813 166.288 119.679 Q168.44 118.521 171.519 118.521 Q171.959 118.521 172.491 118.591 Q173.024 118.637 173.672 118.753 L173.695 123.128 Z" fill="#000000" fill-rule="evenodd" fill-opacity="1" /><path clip-path="url(#clip850)" d="M189.945 132.04 Q184.783 132.04 182.792 133.22 Q180.801 134.401 180.801 137.248 Q180.801 139.517 182.283 140.859 Q183.788 142.179 186.357 142.179 Q189.899 142.179 192.028 139.679 Q194.181 137.156 194.181 132.989 L194.181 132.04 L189.945 132.04 M198.44 130.281 L198.44 145.072 L194.181 145.072 L194.181 141.137 Q192.723 143.498 190.547 144.632 Q188.371 145.743 185.223 145.743 Q181.241 145.743 178.88 143.521 Q176.542 141.276 176.542 137.526 Q176.542 133.151 179.459 130.929 Q182.399 128.706 188.209 128.706 L194.181 128.706 L194.181 128.29 Q194.181 125.35 192.237 123.753 Q190.315 122.132 186.82 122.132 Q184.598 122.132 182.491 122.665 Q180.385 123.197 178.44 124.262 L178.44 120.327 Q180.778 119.424 182.977 118.984 Q185.176 118.521 187.26 118.521 Q192.885 118.521 195.662 121.438 Q198.44 124.355 198.44 130.281 Z" fill="#000000" fill-rule="evenodd" fill-opacity="1" /><path clip-path="url(#clip850)" d="M211.426 111.785 L211.426 119.146 L220.199 119.146 L220.199 122.457 L211.426 122.457 L211.426 136.531 Q211.426 139.702 212.283 140.605 Q213.162 141.507 215.824 141.507 L220.199 141.507 L220.199 145.072 L215.824 145.072 Q210.894 145.072 209.019 143.243 Q207.144 141.392 207.144 136.531 L207.144 122.457 L204.019 122.457 L204.019 119.146 L207.144 119.146 L207.144 111.785 L211.426 111.785 Z" fill="#000000" fill-rule="evenodd" fill-opacity="1" /><path clip-path="url(#clip850)" d="M225.801 119.146 L230.06 119.146 L230.06 145.072 L225.801 145.072 L225.801 119.146 M225.801 109.054 L230.06 109.054 L230.06 114.447 L225.801 114.447 L225.801 109.054 Z" fill="#000000" fill-rule="evenodd" fill-opacity="1" /><path clip-path="url(#clip850)" d="M249.019 122.132 Q245.593 122.132 243.602 124.818 Q241.611 127.48 241.611 132.132 Q241.611 136.785 243.579 139.47 Q245.57 142.132 249.019 142.132 Q252.421 142.132 254.412 139.447 Q256.403 136.762 256.403 132.132 Q256.403 127.526 254.412 124.841 Q252.421 122.132 249.019 122.132 M249.019 118.521 Q254.574 118.521 257.745 122.132 Q260.917 125.744 260.917 132.132 Q260.917 138.498 257.745 142.132 Q254.574 145.743 249.019 145.743 Q243.44 145.743 240.269 142.132 Q237.121 138.498 237.121 132.132 Q237.121 125.744 240.269 122.132 Q243.44 118.521 249.019 118.521 Z" fill="#000000" fill-rule="evenodd" fill-opacity="1" /><path clip-path="url(#clip850)" d="M289.528 129.424 L289.528 145.072 L285.268 145.072 L285.268 129.563 Q285.268 125.882 283.833 124.054 Q282.398 122.225 279.528 122.225 Q276.079 122.225 274.088 124.424 Q272.097 126.623 272.097 130.419 L272.097 145.072 L267.815 145.072 L267.815 119.146 L272.097 119.146 L272.097 123.174 Q273.625 120.836 275.685 119.679 Q277.768 118.521 280.477 118.521 Q284.944 118.521 287.236 121.299 Q289.528 124.054 289.528 129.424 Z" fill="#000000" fill-rule="evenodd" fill-opacity="1" /><path clip-path="url(#clip850)" d="M1199.57 44.2197 Q1202.2 45.1109 1204.68 48.0275 Q1207.19 50.9442 1209.7 56.0483 L1218 72.576 L1209.21 72.576 L1201.48 57.061 Q1198.48 50.9847 1195.64 48.9997 Q1192.85 47.0148 1187.99 47.0148 L1179.07 47.0148 L1179.07 72.576 L1170.89 72.576 L1170.89 12.096 L1189.36 12.096 Q1199.73 12.096 1204.84 16.4305 Q1209.94 20.7649 1209.94 29.5149 Q1209.94 35.2267 1207.27 38.994 Q1204.63 42.7613 1199.57 44.2197 M1179.07 18.8205 L1179.07 40.2903 L1189.36 40.2903 Q1195.28 40.2903 1198.27 37.5762 Q1201.31 34.8216 1201.31 29.5149 Q1201.31 24.2082 1198.27 21.5346 Q1195.28 18.8205 1189.36 18.8205 L1179.07 18.8205 Z" fill="#000000" fill-rule="evenodd" fill-opacity="1" /><path clip-path="url(#clip850)" d="M1263.29 48.0275 L1263.29 51.6733 L1229.02 51.6733 Q1229.51 59.3701 1233.64 63.421 Q1237.81 67.4314 1245.22 67.4314 Q1249.52 67.4314 1253.53 66.3781 Q1257.58 65.3249 1261.55 63.2184 L1261.55 70.267 Q1257.54 71.9684 1253.33 72.8596 Q1249.11 73.7508 1244.78 73.7508 Q1233.92 73.7508 1227.56 67.4314 Q1221.24 61.1119 1221.24 50.3365 Q1221.24 39.1965 1227.24 32.6746 Q1233.27 26.1121 1243.48 26.1121 Q1252.64 26.1121 1257.94 32.0264 Q1263.29 37.9003 1263.29 48.0275 M1255.84 45.84 Q1255.76 39.7232 1252.4 36.0774 Q1249.07 32.4315 1243.56 32.4315 Q1237.33 32.4315 1233.56 35.9558 Q1229.83 39.4801 1229.26 45.8805 L1255.84 45.84 Z" fill="#000000" fill-rule="evenodd" fill-opacity="1" /><path clip-path="url(#clip850)" d="M1275.85 12.096 L1284.03 12.096 L1284.03 65.6895 L1313.48 65.6895 L1313.48 72.576 L1275.85 72.576 L1275.85 12.096 Z" fill="#000000" fill-rule="evenodd" fill-opacity="1" /><path clip-path="url(#clip850)" d="M1319.52 54.671 L1319.52 27.2059 L1326.97 27.2059 L1326.97 54.3874 Q1326.97 60.8284 1329.48 64.0691 Q1332 67.2693 1337.02 67.2693 Q1343.05 67.2693 1346.54 63.421 Q1350.06 59.5726 1350.06 52.9291 L1350.06 27.2059 L1357.52 27.2059 L1357.52 72.576 L1350.06 72.576 L1350.06 65.6084 Q1347.35 69.7404 1343.74 71.7658 Q1340.18 73.7508 1335.44 73.7508 Q1327.62 73.7508 1323.57 68.8897 Q1319.52 64.0286 1319.52 54.671 M1338.27 26.1121 L1338.27 26.1121 Z" fill="#000000" fill-rule="evenodd" fill-opacity="1" /><path clip-path="url(#clip850)" d="M1419.78 20.1573 L1408.68 50.2555 L1430.92 50.2555 L1419.78 20.1573 M1415.16 12.096 L1424.44 12.096 L1447.49 72.576 L1438.98 72.576 L1433.47 57.061 L1406.21 57.061 L1400.7 72.576 L1392.07 72.576 L1415.16 12.096 Z" fill="#000000" fill-rule="evenodd" fill-opacity="1" /><path clip-path="url(#clip850)" d="M1487.19 28.9478 L1487.19 35.9153 Q1484.03 34.1734 1480.83 33.3227 Q1477.67 32.4315 1474.43 32.4315 Q1467.17 32.4315 1463.16 37.0496 Q1459.15 41.6271 1459.15 49.9314 Q1459.15 58.2358 1463.16 62.8538 Q1467.17 67.4314 1474.43 67.4314 Q1477.67 67.4314 1480.83 66.5807 Q1484.03 65.6895 1487.19 63.9476 L1487.19 70.8341 Q1484.07 72.2924 1480.7 73.0216 Q1477.38 73.7508 1473.61 73.7508 Q1463.37 73.7508 1457.33 67.3098 Q1451.29 60.8689 1451.29 49.9314 Q1451.29 38.832 1457.37 32.472 Q1463.49 26.1121 1474.1 26.1121 Q1477.54 26.1121 1480.83 26.8413 Q1484.11 27.5299 1487.19 28.9478 Z" fill="#000000" fill-rule="evenodd" fill-opacity="1" /><path clip-path="url(#clip850)" d="M1507.52 14.324 L1507.52 27.2059 L1522.87 27.2059 L1522.87 32.9987 L1507.52 32.9987 L1507.52 57.6282 Q1507.52 63.1779 1509.02 64.7578 Q1510.56 66.3376 1515.22 66.3376 L1522.87 66.3376 L1522.87 72.576 L1515.22 72.576 Q1506.59 72.576 1503.31 69.3758 Q1500.03 66.1351 1500.03 57.6282 L1500.03 32.9987 L1494.56 32.9987 L1494.56 27.2059 L1500.03 27.2059 L1500.03 14.324 L1507.52 14.324 Z" fill="#000000" fill-rule="evenodd" fill-opacity="1" /><path clip-path="url(#clip850)" d="M1532.68 27.2059 L1540.13 27.2059 L1540.13 72.576 L1532.68 72.576 L1532.68 27.2059 M1532.68 9.54393 L1540.13 9.54393 L1540.13 18.9825 L1532.68 18.9825 L1532.68 9.54393 Z" fill="#000000" fill-rule="evenodd" fill-opacity="1" /><path clip-path="url(#clip850)" d="M1550.38 27.2059 L1558.28 27.2059 L1572.46 65.2844 L1586.64 27.2059 L1594.53 27.2059 L1577.52 72.576 L1567.39 72.576 L1550.38 27.2059 Z" fill="#000000" fill-rule="evenodd" fill-opacity="1" /><path clip-path="url(#clip850)" d="M1625.44 49.7694 Q1616.41 49.7694 1612.93 51.8354 Q1609.44 53.9013 1609.44 58.8839 Q1609.44 62.8538 1612.03 65.2034 Q1614.67 67.5124 1619.16 67.5124 Q1625.36 67.5124 1629.09 63.1374 Q1632.86 58.7219 1632.86 51.4303 L1632.86 49.7694 L1625.44 49.7694 M1640.31 46.6907 L1640.31 72.576 L1632.86 72.576 L1632.86 65.6895 Q1630.3 69.8214 1626.5 71.8063 Q1622.69 73.7508 1617.18 73.7508 Q1610.21 73.7508 1606.08 69.8619 Q1601.99 65.9325 1601.99 59.3701 Q1601.99 51.7138 1607.09 47.825 Q1612.24 43.9361 1622.4 43.9361 L1632.86 43.9361 L1632.86 43.2069 Q1632.86 38.0623 1629.45 35.2672 Q1626.09 32.4315 1619.97 32.4315 Q1616.09 32.4315 1612.4 33.3632 Q1608.71 34.295 1605.31 36.1584 L1605.31 29.2718 Q1609.4 27.692 1613.25 26.9223 Q1617.1 26.1121 1620.74 26.1121 Q1630.59 26.1121 1635.45 31.2163 Q1640.31 36.3204 1640.31 46.6907 Z" fill="#000000" fill-rule="evenodd" fill-opacity="1" /><path clip-path="url(#clip850)" d="M1663.04 14.324 L1663.04 27.2059 L1678.39 27.2059 L1678.39 32.9987 L1663.04 32.9987 L1663.04 57.6282 Q1663.04 63.1779 1664.53 64.7578 Q1666.07 66.3376 1670.73 66.3376 L1678.39 66.3376 L1678.39 72.576 L1670.73 72.576 Q1662.1 72.576 1658.82 69.3758 Q1655.54 66.1351 1655.54 57.6282 L1655.54 32.9987 L1650.07 32.9987 L1650.07 27.2059 L1655.54 27.2059 L1655.54 14.324 L1663.04 14.324 Z" fill="#000000" fill-rule="evenodd" fill-opacity="1" /><path clip-path="url(#clip850)" d="M1688.19 27.2059 L1695.65 27.2059 L1695.65 72.576 L1688.19 72.576 L1688.19 27.2059 M1688.19 9.54393 L1695.65 9.54393 L1695.65 18.9825 L1688.19 18.9825 L1688.19 9.54393 Z" fill="#000000" fill-rule="evenodd" fill-opacity="1" /><path clip-path="url(#clip850)" d="M1728.82 32.4315 Q1722.83 32.4315 1719.34 37.1306 Q1715.86 41.7891 1715.86 49.9314 Q1715.86 58.0738 1719.3 62.7728 Q1722.79 67.4314 1728.82 67.4314 Q1734.78 67.4314 1738.26 62.7323 Q1741.74 58.0333 1741.74 49.9314 Q1741.74 41.8701 1738.26 37.1711 Q1734.78 32.4315 1728.82 32.4315 M1728.82 26.1121 Q1738.54 26.1121 1744.09 32.4315 Q1749.64 38.7509 1749.64 49.9314 Q1749.64 61.0714 1744.09 67.4314 Q1738.54 73.7508 1728.82 73.7508 Q1719.06 73.7508 1713.51 67.4314 Q1708 61.0714 1708 49.9314 Q1708 38.7509 1713.51 32.4315 Q1719.06 26.1121 1728.82 26.1121 Z" fill="#000000" fill-rule="evenodd" fill-opacity="1" /><path clip-path="url(#clip850)" d="M1799.71 45.1919 L1799.71 72.576 L1792.26 72.576 L1792.26 45.4349 Q1792.26 38.994 1789.75 35.7938 Q1787.24 32.5936 1782.21 32.5936 Q1776.18 32.5936 1772.69 36.4419 Q1769.21 40.2903 1769.21 46.9338 L1769.21 72.576 L1761.72 72.576 L1761.72 27.2059 L1769.21 27.2059 L1769.21 34.2544 Q1771.88 30.163 1775.49 28.1376 Q1779.13 26.1121 1783.87 26.1121 Q1791.69 26.1121 1795.7 30.9732 Q1799.71 35.7938 1799.71 45.1919 Z" fill="#000000" fill-rule="evenodd" fill-opacity="1" /><polyline clip-path="url(#clip852)" style="stroke:#009af9; stroke-linecap:round; stroke-linejoin:round; stroke-width:4; stroke-opacity:1; fill:none" points="
  395.251,1806.09 396.341,1806.09 397.431,1806.09 398.521,1806.09 399.611,1806.09 400.701,1806.09 401.791,1806.09 402.881,1806.09 403.971,1806.09 405.061,1806.09 
  406.151,1806.09 407.241,1806.09 408.331,1806.09 409.421,1806.09 410.511,1806.09 411.602,1806.09 412.692,1806.09 413.782,1806.09 414.872,1806.09 415.962,1806.09 
  417.052,1806.09 418.142,1806.09 419.232,1806.09 420.322,1806.09 421.412,1806.09 422.502,1806.09 423.592,1806.09 424.682,1806.09 425.772,1806.09 426.862,1806.09 
  427.952,1806.09 429.042,1806.09 430.132,1806.09 431.222,1806.09 432.312,1806.09 433.403,1806.09 434.493,1806.09 435.583,1806.09 436.673,1806.09 437.763,1806.09 
  438.853,1806.09 439.943,1806.09 441.033,1806.09 442.123,1806.09 443.213,1806.09 444.303,1806.09 445.393,1806.09 446.483,1806.09 447.573,1806.09 448.663,1806.09 
  449.753,1806.09 450.843,1806.09 451.933,1806.09 453.023,1806.09 454.114,1806.09 455.204,1806.09 456.294,1806.09 457.384,1806.09 458.474,1806.09 459.564,1806.09 
  460.654,1806.09 461.744,1806.09 462.834,1806.09 463.924,1806.09 465.014,1806.09 466.104,1806.09 467.194,1806.09 468.284,1806.09 469.374,1806.09 470.464,1806.09 
  471.554,1806.09 472.644,1806.09 473.734,1806.09 474.824,1806.09 475.915,1806.09 477.005,1806.09 478.095,1806.09 479.185,1806.09 480.275,1806.09 481.365,1806.09 
  482.455,1806.09 483.545,1806.09 484.635,1806.09 485.725,1806.09 486.815,1806.09 487.905,1806.09 488.995,1806.09 490.085,1806.09 491.175,1806.09 492.265,1806.09 
  493.355,1806.09 494.445,1806.09 495.535,1806.09 496.626,1806.09 497.716,1806.09 498.806,1806.09 499.896,1806.09 500.986,1806.09 502.076,1806.09 503.166,1806.09 
  504.256,1806.09 505.346,1806.09 506.436,1806.09 507.526,1806.09 508.616,1806.09 509.706,1806.09 510.796,1806.09 511.886,1806.09 512.976,1806.09 514.066,1806.09 
  515.156,1806.09 516.246,1806.09 517.336,1806.09 518.427,1806.09 519.517,1806.09 520.607,1806.09 521.697,1806.09 522.787,1806.09 523.877,1806.09 524.967,1806.09 
  526.057,1806.09 527.147,1806.09 528.237,1806.09 529.327,1806.09 530.417,1806.09 531.507,1806.09 532.597,1806.09 533.687,1806.09 534.777,1806.09 535.867,1806.09 
  536.957,1806.09 538.047,1806.09 539.137,1806.09 540.228,1806.09 541.318,1806.09 542.408,1806.09 543.498,1806.09 544.588,1806.09 545.678,1806.09 546.768,1806.09 
  547.858,1806.09 548.948,1806.09 550.038,1806.09 551.128,1806.09 552.218,1806.09 553.308,1806.09 554.398,1806.09 555.488,1806.09 556.578,1806.09 557.668,1806.09 
  558.758,1806.09 559.848,1806.09 560.939,1806.09 562.029,1806.09 563.119,1806.09 564.209,1806.09 565.299,1806.09 566.389,1806.09 567.479,1806.09 568.569,1806.09 
  569.659,1806.09 570.749,1806.09 571.839,1806.09 572.929,1806.09 574.019,1806.09 575.109,1806.09 576.199,1806.09 577.289,1806.09 578.379,1806.09 579.469,1806.09 
  580.559,1806.09 581.649,1806.09 582.74,1806.09 583.83,1806.09 584.92,1806.09 586.01,1806.09 587.1,1806.09 588.19,1806.09 589.28,1806.09 590.37,1806.09 
  591.46,1806.09 592.55,1806.09 593.64,1806.09 594.73,1806.09 595.82,1806.09 596.91,1806.09 598,1806.09 599.09,1806.09 600.18,1806.09 601.27,1806.09 
  602.36,1806.09 603.451,1806.09 604.541,1806.09 605.631,1806.09 606.721,1806.09 607.811,1806.09 608.901,1806.09 609.991,1806.09 611.081,1806.09 612.171,1806.09 
  613.261,1806.09 614.351,1806.09 615.441,1806.09 616.531,1806.09 617.621,1806.09 618.711,1806.09 619.801,1806.09 620.891,1806.09 621.981,1806.09 623.071,1806.09 
  624.161,1806.09 625.252,1806.09 626.342,1806.09 627.432,1806.09 628.522,1806.09 629.612,1806.09 630.702,1806.09 631.792,1806.09 632.882,1806.09 633.972,1806.09 
  635.062,1806.09 636.152,1806.09 637.242,1806.09 638.332,1806.09 639.422,1806.09 640.512,1806.09 641.602,1806.09 642.692,1806.09 643.782,1806.09 644.872,1806.09 
  645.962,1806.09 647.053,1806.09 648.143,1806.09 649.233,1806.09 650.323,1806.09 651.413,1806.09 652.503,1806.09 653.593,1806.09 654.683,1806.09 655.773,1806.09 
  656.863,1806.09 657.953,1806.09 659.043,1806.09 660.133,1806.09 661.223,1806.09 662.313,1806.09 663.403,1806.09 664.493,1806.09 665.583,1806.09 666.673,1806.09 
  667.764,1806.09 668.854,1806.09 669.944,1806.09 671.034,1806.09 672.124,1806.09 673.214,1806.09 674.304,1806.09 675.394,1806.09 676.484,1806.09 677.574,1806.09 
  678.664,1806.09 679.754,1806.09 680.844,1806.09 681.934,1806.09 683.024,1806.09 684.114,1806.09 685.204,1806.09 686.294,1806.09 687.384,1806.09 688.474,1806.09 
  689.565,1806.09 690.655,1806.09 691.745,1806.09 692.835,1806.09 693.925,1806.09 695.015,1806.09 696.105,1806.09 697.195,1806.09 698.285,1806.09 699.375,1806.09 
  700.465,1806.09 701.555,1806.09 702.645,1806.09 703.735,1806.09 704.825,1806.09 705.915,1806.09 707.005,1806.09 708.095,1806.09 709.185,1806.09 710.276,1806.09 
  711.366,1806.09 712.456,1806.09 713.546,1806.09 714.636,1806.09 715.726,1806.09 716.816,1806.09 717.906,1806.09 718.996,1806.09 720.086,1806.09 721.176,1806.09 
  722.266,1806.09 723.356,1806.09 724.446,1806.09 725.536,1806.09 726.626,1806.09 727.716,1806.09 728.806,1806.09 729.896,1806.09 730.986,1806.09 732.077,1806.09 
  733.167,1806.09 734.257,1806.09 735.347,1806.09 736.437,1806.09 737.527,1806.09 738.617,1806.09 739.707,1806.09 740.797,1806.09 741.887,1806.09 742.977,1806.09 
  744.067,1806.09 745.157,1806.09 746.247,1806.09 747.337,1806.09 748.427,1806.09 749.517,1806.09 750.607,1806.09 751.697,1806.09 752.787,1806.09 753.878,1806.09 
  754.968,1806.09 756.058,1806.09 757.148,1806.09 758.238,1806.09 759.328,1806.09 760.418,1806.09 761.508,1806.09 762.598,1806.09 763.688,1806.09 764.778,1806.09 
  765.868,1806.09 766.958,1806.09 768.048,1806.09 769.138,1806.09 770.228,1806.09 771.318,1806.09 772.408,1806.09 773.498,1806.09 774.589,1806.09 775.679,1806.09 
  776.769,1806.09 777.859,1806.09 778.949,1806.09 780.039,1806.09 781.129,1806.09 782.219,1806.09 783.309,1806.09 784.399,1806.09 785.489,1806.09 786.579,1806.09 
  787.669,1806.09 788.759,1806.09 789.849,1806.09 790.939,1806.09 792.029,1806.09 793.119,1806.09 794.209,1806.09 795.299,1806.09 796.39,1806.09 797.48,1806.09 
  798.57,1806.09 799.66,1806.09 800.75,1806.09 801.84,1806.09 802.93,1806.09 804.02,1806.09 805.11,1806.09 806.2,1806.09 807.29,1806.09 808.38,1806.09 
  809.47,1806.09 810.56,1806.09 811.65,1806.09 812.74,1806.09 813.83,1806.09 814.92,1806.09 816.01,1806.09 817.101,1806.09 818.191,1806.09 819.281,1806.09 
  820.371,1806.09 821.461,1806.09 822.551,1806.09 823.641,1806.09 824.731,1806.09 825.821,1806.09 826.911,1806.09 828.001,1806.09 829.091,1806.09 830.181,1806.09 
  831.271,1806.09 832.361,1806.09 833.451,1806.09 834.541,1806.09 835.631,1806.09 836.721,1806.09 837.811,1806.09 838.902,1806.09 839.992,1806.09 841.082,1806.09 
  842.172,1806.09 843.262,1806.09 844.352,1806.09 845.442,1806.09 846.532,1806.09 847.622,1806.09 848.712,1806.09 849.802,1806.09 850.892,1806.09 851.982,1806.09 
  853.072,1806.09 854.162,1806.09 855.252,1806.09 856.342,1806.09 857.432,1806.09 858.522,1806.09 859.612,1806.09 860.703,1806.09 861.793,1806.09 862.883,1806.09 
  863.973,1806.09 865.063,1806.09 866.153,1806.09 867.243,1806.09 868.333,1806.09 869.423,1806.09 870.513,1806.09 871.603,1806.09 872.693,1806.09 873.783,1806.09 
  874.873,1806.09 875.963,1806.09 877.053,1806.09 878.143,1806.09 879.233,1806.09 880.323,1806.09 881.414,1806.09 882.504,1806.09 883.594,1806.09 884.684,1806.09 
  885.774,1806.09 886.864,1806.09 887.954,1806.09 889.044,1806.09 890.134,1806.09 891.224,1806.09 892.314,1806.09 893.404,1806.09 894.494,1806.09 895.584,1806.09 
  896.674,1806.09 897.764,1806.09 898.854,1806.09 899.944,1806.09 901.034,1806.09 902.124,1806.09 903.215,1806.09 904.305,1806.09 905.395,1806.09 906.485,1806.09 
  907.575,1806.09 908.665,1806.09 909.755,1806.09 910.845,1806.09 911.935,1806.09 913.025,1806.09 914.115,1806.09 915.205,1806.09 916.295,1806.09 917.385,1806.09 
  918.475,1806.09 919.565,1806.09 920.655,1806.09 921.745,1806.09 922.835,1806.09 923.926,1806.09 925.016,1806.09 926.106,1806.09 927.196,1806.09 928.286,1806.09 
  929.376,1806.09 930.466,1806.09 931.556,1806.09 932.646,1806.09 933.736,1806.09 934.826,1806.09 935.916,1806.09 937.006,1806.09 938.096,1806.09 939.186,1806.09 
  940.276,1806.09 941.366,1806.09 942.456,1806.09 943.546,1806.09 944.636,1806.09 945.727,1806.09 946.817,1806.09 947.907,1806.09 948.997,1806.09 950.087,1806.09 
  951.177,1806.09 952.267,1806.09 953.357,1806.09 954.447,1806.09 955.537,1806.09 956.627,1806.09 957.717,1806.09 958.807,1806.09 959.897,1806.09 960.987,1806.09 
  962.077,1806.09 963.167,1806.09 964.257,1806.09 965.347,1806.09 966.438,1806.09 967.528,1806.09 968.618,1806.09 969.708,1806.09 970.798,1806.09 971.888,1806.09 
  972.978,1806.09 974.068,1806.09 975.158,1806.09 976.248,1806.09 977.338,1806.09 978.428,1806.09 979.518,1806.09 980.608,1806.09 981.698,1806.09 982.788,1806.09 
  983.878,1806.09 984.968,1806.09 986.058,1806.09 987.148,1806.09 988.239,1806.09 989.329,1806.09 990.419,1806.09 991.509,1806.09 992.599,1806.09 993.689,1806.09 
  994.779,1806.09 995.869,1806.09 996.959,1806.09 998.049,1806.09 999.139,1806.09 1000.23,1806.09 1001.32,1806.09 1002.41,1806.09 1003.5,1806.09 1004.59,1806.09 
  1005.68,1806.09 1006.77,1806.09 1007.86,1806.09 1008.95,1806.09 1010.04,1806.09 1011.13,1806.09 1012.22,1806.09 1013.31,1806.09 1014.4,1806.09 1015.49,1806.09 
  1016.58,1806.09 1017.67,1806.09 1018.76,1806.09 1019.85,1806.09 1020.94,1806.09 1022.03,1806.09 1023.12,1806.09 1024.21,1806.09 1025.3,1806.09 1026.39,1806.09 
  1027.48,1806.09 1028.57,1806.09 1029.66,1806.09 1030.75,1806.09 1031.84,1806.09 1032.93,1806.09 1034.02,1806.09 1035.11,1806.09 1036.2,1806.09 1037.29,1806.09 
  1038.38,1806.09 1039.47,1806.09 1040.56,1806.09 1041.65,1806.09 1042.74,1806.09 1043.83,1806.09 1044.92,1806.09 1046.01,1806.09 1047.1,1806.09 1048.19,1806.09 
  1049.28,1806.09 1050.37,1806.09 1051.46,1806.09 1052.55,1806.09 1053.64,1806.09 1054.73,1806.09 1055.82,1806.09 1056.91,1806.09 1058,1806.09 1059.09,1806.09 
  1060.18,1806.09 1061.27,1806.09 1062.36,1806.09 1063.45,1806.09 1064.54,1806.09 1065.63,1806.09 1066.72,1806.09 1067.81,1806.09 1068.9,1806.09 1069.99,1806.09 
  1071.08,1806.09 1072.17,1806.09 1073.26,1806.09 1074.35,1806.09 1075.44,1806.09 1076.53,1806.09 1077.62,1806.09 1078.71,1806.09 1079.8,1806.09 1080.89,1806.09 
  1081.98,1806.09 1083.07,1806.09 1084.16,1806.09 1085.25,1806.09 1086.34,1806.09 1087.43,1806.09 1088.52,1806.09 1089.61,1806.09 1090.7,1806.09 1091.79,1806.09 
  1092.88,1806.09 1093.97,1806.09 1095.06,1806.09 1096.15,1806.09 1097.24,1806.09 1098.33,1806.09 1099.42,1806.09 1100.51,1806.09 1101.6,1806.09 1102.69,1806.09 
  1103.78,1806.09 1104.87,1806.09 1105.96,1806.09 1107.05,1806.09 1108.14,1806.09 1109.23,1806.09 1110.32,1806.09 1111.41,1806.09 1112.5,1806.09 1113.59,1806.09 
  1114.68,1806.09 1115.77,1806.09 1116.86,1806.09 1117.95,1806.09 1119.04,1806.09 1120.13,1806.09 1121.22,1806.09 1122.31,1806.09 1123.4,1806.09 1124.49,1806.09 
  1125.58,1806.09 1126.68,1806.09 1127.77,1806.09 1128.86,1806.09 1129.95,1806.09 1131.04,1806.09 1132.13,1806.09 1133.22,1806.09 1134.31,1806.09 1135.4,1806.09 
  1136.49,1806.09 1137.58,1806.09 1138.67,1806.09 1139.76,1806.09 1140.85,1806.09 1141.94,1806.09 1143.03,1806.09 1144.12,1806.09 1145.21,1806.09 1146.3,1806.09 
  1147.39,1806.09 1148.48,1806.09 1149.57,1806.09 1150.66,1806.09 1151.75,1806.09 1152.84,1806.09 1153.93,1806.09 1155.02,1806.09 1156.11,1806.09 1157.2,1806.09 
  1158.29,1806.09 1159.38,1806.09 1160.47,1806.09 1161.56,1806.09 1162.65,1806.09 1163.74,1806.09 1164.83,1806.09 1165.92,1806.09 1167.01,1806.09 1168.1,1806.09 
  1169.19,1806.09 1170.28,1806.09 1171.37,1806.09 1172.46,1806.09 1173.55,1806.09 1174.64,1806.09 1175.73,1806.09 1176.82,1806.09 1177.91,1806.09 1179,1806.09 
  1180.09,1806.09 1181.18,1806.09 1182.27,1806.09 1183.36,1806.09 1184.45,1806.09 1185.54,1806.09 1186.63,1806.09 1187.72,1806.09 1188.81,1806.09 1189.9,1806.09 
  1190.99,1806.09 1192.08,1806.09 1193.17,1806.09 1194.26,1806.09 1195.35,1806.09 1196.44,1806.09 1197.53,1806.09 1198.62,1806.09 1199.71,1806.09 1200.8,1806.09 
  1201.89,1806.09 1202.98,1806.09 1204.07,1806.09 1205.16,1806.09 1206.25,1806.09 1207.34,1806.09 1208.43,1806.09 1209.52,1806.09 1210.61,1806.09 1211.7,1806.09 
  1212.79,1806.09 1213.88,1806.09 1214.97,1806.09 1216.06,1806.09 1217.15,1806.09 1218.24,1806.09 1219.33,1806.09 1220.42,1806.09 1221.51,1806.09 1222.6,1806.09 
  1223.69,1806.09 1224.78,1806.09 1225.87,1806.09 1226.96,1806.09 1228.05,1806.09 1229.14,1806.09 1230.23,1806.09 1231.32,1806.09 1232.41,1806.09 1233.5,1806.09 
  1234.59,1806.09 1235.68,1806.09 1236.77,1806.09 1237.86,1806.09 1238.95,1806.09 1240.04,1806.09 1241.13,1806.09 1242.22,1806.09 1243.31,1806.09 1244.4,1806.09 
  1245.49,1806.09 1246.58,1806.09 1247.67,1806.09 1248.76,1806.09 1249.85,1806.09 1250.94,1806.09 1252.03,1806.09 1253.12,1806.09 1254.21,1806.09 1255.3,1806.09 
  1256.39,1806.09 1257.48,1806.09 1258.57,1806.09 1259.66,1806.09 1260.75,1806.09 1261.84,1806.09 1262.93,1806.09 1264.02,1806.09 1265.11,1806.09 1266.2,1806.09 
  1267.29,1806.09 1268.38,1806.09 1269.47,1806.09 1270.56,1806.09 1271.65,1806.09 1272.74,1806.09 1273.83,1806.09 1274.92,1806.09 1276.01,1806.09 1277.1,1806.09 
  1278.19,1806.09 1279.28,1806.09 1280.37,1806.09 1281.46,1806.09 1282.55,1806.09 1283.64,1806.09 1284.73,1806.09 1285.82,1806.09 1286.91,1806.09 1288,1806.09 
  1289.09,1806.09 1290.18,1806.09 1291.27,1806.09 1292.36,1806.09 1293.45,1806.09 1294.54,1806.09 1295.63,1806.09 1296.72,1806.09 1297.81,1806.09 1298.9,1806.09 
  1299.99,1806.09 1301.08,1806.09 1302.17,1806.09 1303.26,1806.09 1304.35,1806.09 1305.44,1806.09 1306.53,1806.09 1307.62,1806.09 1308.71,1806.09 1309.8,1806.09 
  1310.89,1806.09 1311.98,1806.09 1313.07,1806.09 1314.16,1806.09 1315.25,1806.09 1316.34,1806.09 1317.43,1806.09 1318.52,1806.09 1319.61,1806.09 1320.7,1806.09 
  1321.79,1806.09 1322.88,1806.09 1323.97,1806.09 1325.06,1806.09 1326.15,1806.09 1327.24,1806.09 1328.33,1806.09 1329.42,1806.09 1330.51,1806.09 1331.6,1806.09 
  1332.69,1806.09 1333.78,1806.09 1334.87,1806.09 1335.96,1806.09 1337.05,1806.09 1338.14,1806.09 1339.23,1806.09 1340.33,1806.09 1341.42,1806.09 1342.51,1806.09 
  1343.6,1806.09 1344.69,1806.09 1345.78,1806.09 1346.87,1806.09 1347.96,1806.09 1349.05,1806.09 1350.14,1806.09 1351.23,1806.09 1352.32,1806.09 1353.41,1806.09 
  1354.5,1806.09 1355.59,1806.09 1356.68,1806.09 1357.77,1806.09 1358.86,1806.09 1359.95,1806.09 1361.04,1806.09 1362.13,1806.09 1363.22,1806.09 1364.31,1806.09 
  1365.4,1806.09 1366.49,1806.09 1367.58,1806.09 1368.67,1806.09 1369.76,1806.09 1370.85,1806.09 1371.94,1806.09 1373.03,1806.09 1374.12,1806.09 1375.21,1806.09 
  1376.3,1806.09 1377.39,1806.09 1378.48,1806.09 1379.57,1806.09 1380.66,1806.09 1381.75,1806.09 1382.84,1806.09 1383.93,1806.09 1385.02,1806.09 1386.11,1806.09 
  1387.2,1806.09 1388.29,1806.09 1389.38,1806.09 1390.47,1806.09 1391.56,1806.09 1392.65,1806.09 1393.74,1806.09 1394.83,1806.09 1395.92,1806.09 1397.01,1806.09 
  1398.1,1806.09 1399.19,1806.09 1400.28,1806.09 1401.37,1806.09 1402.46,1806.09 1403.55,1806.09 1404.64,1806.09 1405.73,1806.09 1406.82,1806.09 1407.91,1806.09 
  1409,1806.09 1410.09,1806.09 1411.18,1806.09 1412.27,1806.09 1413.36,1806.09 1414.45,1806.09 1415.54,1806.09 1416.63,1806.09 1417.72,1806.09 1418.81,1806.09 
  1419.9,1806.09 1420.99,1806.09 1422.08,1806.09 1423.17,1806.09 1424.26,1806.09 1425.35,1806.09 1426.44,1806.09 1427.53,1806.09 1428.62,1806.09 1429.71,1806.09 
  1430.8,1806.09 1431.89,1806.09 1432.98,1806.09 1434.07,1806.09 1435.16,1806.09 1436.25,1806.09 1437.34,1806.09 1438.43,1806.09 1439.52,1806.09 1440.61,1806.09 
  1441.7,1806.09 1442.79,1806.09 1443.88,1806.09 1444.97,1806.09 1446.06,1806.09 1447.15,1806.09 1448.24,1806.09 1449.33,1806.09 1450.42,1806.09 1451.51,1806.09 
  1452.6,1806.09 1453.69,1806.09 1454.78,1806.09 1455.87,1806.09 1456.96,1806.09 1458.05,1806.09 1459.14,1806.09 1460.23,1806.09 1461.32,1806.09 1462.41,1806.09 
  1463.5,1806.09 1464.59,1806.09 1465.68,1806.09 1466.77,1806.09 1467.86,1806.09 1468.95,1806.09 1470.04,1806.09 1471.13,1806.09 1472.22,1806.09 1473.31,1806.09 
  1474.4,1806.09 1475.49,1806.09 1476.58,1806.09 1477.67,1806.09 1478.76,1806.09 1479.85,1806.09 1480.94,1806.09 1482.03,1806.09 1483.12,1806.09 1484.21,1806.09 
  1485.3,1806.09 1486.39,1789.31 1487.48,1772.53 1488.57,1755.74 1489.66,1738.96 1490.75,1722.18 1491.84,1705.4 1492.93,1688.61 1494.02,1671.83 1495.11,1655.05 
  1496.2,1638.26 1497.29,1621.48 1498.38,1604.7 1499.47,1587.91 1500.56,1571.13 1501.65,1554.35 1502.74,1537.57 1503.83,1520.78 1504.92,1504 1506.01,1487.22 
  1507.1,1470.43 1508.19,1453.65 1509.28,1436.87 1510.37,1420.08 1511.46,1403.3 1512.55,1386.52 1513.64,1369.74 1514.73,1352.95 1515.82,1336.17 1516.91,1319.39 
  1518,1302.6 1519.09,1285.82 1520.18,1269.04 1521.27,1252.25 1522.36,1235.47 1523.45,1218.69 1524.54,1201.91 1525.63,1185.12 1526.72,1168.34 1527.81,1151.56 
  1528.9,1134.77 1529.99,1117.99 1531.08,1101.21 1532.17,1084.42 1533.26,1067.64 1534.35,1050.86 1535.44,1034.07 1536.53,1017.29 1537.62,1000.51 1538.71,983.726 
  1539.8,966.943 1540.89,950.16 1541.98,933.377 1543.07,916.594 1544.16,899.811 1545.25,883.028 1546.34,866.245 1547.43,849.462 1548.52,832.679 1549.61,815.896 
  1550.7,799.113 1551.79,782.33 1552.88,765.547 1553.98,748.764 1555.07,731.981 1556.16,715.198 1557.25,698.415 1558.34,681.632 1559.43,664.849 1560.52,648.066 
  1561.61,631.283 1562.7,614.5 1563.79,597.717 1564.88,580.934 1565.97,564.151 1567.06,547.367 1568.15,530.584 1569.24,513.801 1570.33,497.018 1571.42,480.235 
  1572.51,463.452 1573.6,446.669 1574.69,429.886 1575.78,413.103 1576.87,396.32 1577.96,379.537 1579.05,362.754 1580.14,345.971 1581.23,329.188 1582.32,312.405 
  1583.41,295.622 1584.5,278.839 1585.59,262.056 1586.68,245.273 1587.77,228.49 1588.86,211.707 1589.95,194.924 1591.04,178.141 1592.13,161.358 1593.22,144.575 
  1594.31,127.792 1595.4,111.009 1596.49,94.2261 1597.58,77.4431 1598.67,60.6601 1599.76,43.8771 1600.85,27.094 1601.94,10.311 1603.03,-6.47199 1604.12,-23.255 
  1605.21,-40.038 1606.3,-56.821 1607.39,-73.604 1608.48,-90.3871 1609.57,-107.17 1610.66,-123.953 1611.75,-140.736 1612.84,-157.519 1613.93,-174.302 1615.02,-191.085 
  1616.11,-207.868 1617.2,-224.651 1618.29,-241.434 1619.38,-258.217 1620.47,-275 1621.56,-291.783 1622.65,-308.566 1623.74,-325.349 1624.83,-342.132 1625.92,-358.915 
  1627.01,-375.698 1628.1,-392.481 1629.19,-409.264 1630.28,-426.047 1631.37,-442.83 1632.46,-459.613 1633.55,-476.396 1634.64,-493.179 1635.73,-509.962 1636.82,-526.745 
  1637.91,-543.528 1639,-560.311 1640.09,-577.094 1641.18,-593.878 1642.27,-610.661 1643.36,-627.444 1644.45,-644.227 1645.54,-661.01 1646.63,-677.793 1647.72,-694.576 
  1648.81,-711.359 1649.9,-728.142 1650.99,-744.925 1652.08,-761.708 1653.17,-778.491 1654.26,-795.274 1655.35,-812.057 1656.44,-828.84 1657.53,-845.623 1658.62,-862.406 
  1659.71,-879.189 1660.8,-895.972 1661.89,-912.755 1662.98,-929.538 1664.07,-946.321 1665.16,-963.104 1666.25,-979.887 1667.34,-996.67 1668.43,-1013.45 1669.52,-1030.24 
  1670.61,-1047.02 1671.7,-1063.8 1672.79,-1080.58 1673.88,-1097.37 1674.97,-1114.15 1676.06,-1130.93 1677.15,-1147.72 1678.24,-1164.5 1679.33,-1181.28 1680.42,-1198.07 
  1681.51,-1214.85 1682.6,-1231.63 1683.69,-1248.42 1684.78,-1265.2 1685.87,-1281.98 1686.96,-1298.76 1688.05,-1315.55 1689.14,-1332.33 1690.23,-1349.11 1691.32,-1365.9 
  1692.41,-1382.68 1693.5,-1399.46 1694.59,-1416.25 1695.68,-1433.03 1696.77,-1449.81 1697.86,-1466.59 1698.95,-1483.38 1700.04,-1500.16 1701.13,-1516.94 1702.22,-1533.73 
  1703.31,-1550.51 1704.4,-1567.29 1705.49,-1584.08 1706.58,-1600.86 1707.67,-1617.64 1708.76,-1634.42 1709.85,-1651.21 1710.94,-1667.99 1712.03,-1684.77 1713.12,-1701.56 
  1714.21,-1718.34 1715.3,-1735.12 1716.39,-1751.91 1717.48,-1768.69 1718.57,-1785.47 1719.66,-1802.25 1720.75,-1819.04 1721.84,-1835.82 1722.93,-1852.6 1724.02,-1869.39 
  1725.11,-1886.17 1726.2,-1902.95 1727.29,-1919.74 1728.38,-1936.52 1729.47,-1953.3 1730.56,-1970.08 1731.65,-1986.87 1732.74,-2003.65 1733.83,-2020.43 1734.92,-2037.22 
  1736.01,-2054 1737.1,-2070.78 1738.19,-2087.57 1739.28,-2104.35 1740.37,-2121.13 1741.46,-2137.91 1742.55,-2154.7 1743.64,-2171.48 1744.73,-2188.26 1745.82,-2205.05 
  1746.91,-2221.83 1748,-2238.61 1749.09,-2255.4 1750.18,-2272.18 1751.27,-2288.96 1752.36,-2305.74 1753.45,-2322.53 1754.54,-2339.31 1755.63,-2356.09 1756.72,-2372.88 
  1757.81,-2389.66 1758.9,-2406.44 1759.99,-2423.23 1761.08,-2440.01 1762.17,-2456.79 1763.26,-2473.58 1764.35,-2490.36 1765.44,-2507.14 1766.53,-2523.92 1767.63,-2540.71 
  1768.72,-2557.49 1769.81,-2574.27 1770.9,-2591.06 1771.99,-2607.84 1773.08,-2624.62 1774.17,-2641.41 1775.26,-2658.19 1776.35,-2674.97 1777.44,-2691.75 1778.53,-2708.54 
  1779.62,-2725.32 1780.71,-2742.1 1781.8,-2758.89 1782.89,-2775.67 1783.98,-2792.45 1785.07,-2809.24 1786.16,-2826.02 1787.25,-2842.8 1788.34,-2859.58 1789.43,-2876.37 
  1790.52,-2893.15 1791.61,-2909.93 1792.7,-2926.72 1793.79,-2943.5 1794.88,-2960.28 1795.97,-2977.07 1797.06,-2993.85 1798.15,-3010.63 1799.24,-3027.41 1800.33,-3044.2 
  1801.42,-3060.98 1802.51,-3077.76 1803.6,-3094.55 1804.69,-3111.33 1805.78,-3128.11 1806.87,-3144.9 1807.96,-3161.68 1809.05,-3178.46 1810.14,-3195.24 1811.23,-3212.03 
  1812.32,-3228.81 1813.41,-3245.59 1814.5,-3262.38 1815.59,-3279.16 1816.68,-3295.94 1817.77,-3312.73 1818.86,-3329.51 1819.95,-3346.29 1821.04,-3363.07 1822.13,-3379.86 
  1823.22,-3396.64 1824.31,-3413.42 1825.4,-3430.21 1826.49,-3446.99 1827.58,-3463.77 1828.67,-3480.56 1829.76,-3497.34 1830.85,-3514.12 1831.94,-3530.91 1833.03,-3547.69 
  1834.12,-3564.47 1835.21,-3581.25 1836.3,-3598.04 1837.39,-3614.82 1838.48,-3631.6 1839.57,-3648.39 1840.66,-3665.17 1841.75,-3681.95 1842.84,-3698.74 1843.93,-3715.52 
  1845.02,-3732.3 1846.11,-3749.08 1847.2,-3765.87 1848.29,-3782.65 1849.38,-3799.43 1850.47,-3816.22 1851.56,-3833 1852.65,-3849.78 1853.74,-3866.57 1854.83,-3883.35 
  1855.92,-3900.13 1857.01,-3916.91 1858.1,-3933.7 1859.19,-3950.48 1860.28,-3967.26 1861.37,-3984.05 1862.46,-4000.83 1863.55,-4017.61 1864.64,-4034.4 1865.73,-4051.18 
  1866.82,-4067.96 1867.91,-4084.74 1869,-4101.53 1870.09,-4118.31 1871.18,-4135.09 1872.27,-4151.88 1873.36,-4168.66 1874.45,-4185.44 1875.54,-4202.23 1876.63,-4219.01 
  1877.72,-4235.79 1878.81,-4252.57 1879.9,-4269.36 1880.99,-4286.14 1882.08,-4302.92 1883.17,-4319.71 1884.26,-4336.49 1885.35,-4353.27 1886.44,-4370.06 1887.53,-4386.84 
  1888.62,-4403.62 1889.71,-4420.4 1890.8,-4437.19 1891.89,-4453.97 1892.98,-4470.75 1894.07,-4487.54 1895.16,-4504.32 1896.25,-4521.1 1897.34,-4537.89 1898.43,-4554.67 
  1899.52,-4571.45 1900.61,-4588.23 1901.7,-4605.02 1902.79,-4621.8 1903.88,-4638.58 1904.97,-4655.37 1906.06,-4672.15 1907.15,-4688.93 1908.24,-4705.72 1909.33,-4722.5 
  1910.42,-4739.28 1911.51,-4756.07 1912.6,-4772.85 1913.69,-4789.63 1914.78,-4806.41 1915.87,-4823.2 1916.96,-4839.98 1918.05,-4856.76 1919.14,-4873.55 1920.23,-4890.33 
  1921.32,-4907.11 1922.41,-4923.9 1923.5,-4940.68 1924.59,-4957.46 1925.68,-4974.24 1926.77,-4991.03 1927.86,-5007.81 1928.95,-5024.59 1930.04,-5041.38 1931.13,-5058.16 
  1932.22,-5074.94 1933.31,-5091.73 1934.4,-5108.51 1935.49,-5125.29 1936.58,-5142.07 1937.67,-5158.86 1938.76,-5175.64 1939.85,-5192.42 1940.94,-5209.21 1942.03,-5225.99 
  1943.12,-5242.77 1944.21,-5259.56 1945.3,-5276.34 1946.39,-5293.12 1947.48,-5309.9 1948.57,-5326.69 1949.66,-5343.47 1950.75,-5360.25 1951.84,-5377.04 1952.93,-5393.82 
  1954.02,-5410.6 1955.11,-5427.39 1956.2,-5444.17 1957.29,-5460.95 1958.38,-5477.73 1959.47,-5494.52 1960.56,-5511.3 1961.65,-5528.08 1962.74,-5544.87 1963.83,-5561.65 
  1964.92,-5578.43 1966.01,-5595.22 1967.1,-5612 1968.19,-5628.78 1969.28,-5645.56 1970.37,-5662.35 1971.46,-5679.13 1972.55,-5695.91 1973.64,-5712.7 1974.73,-5729.48 
  1975.82,-5746.26 1976.91,-5763.05 1978,-5779.83 1979.09,-5796.61 1980.18,-5813.4 1981.28,-5830.18 1982.37,-5846.96 1983.46,-5863.74 1984.55,-5880.53 1985.64,-5897.31 
  1986.73,-5914.09 1987.82,-5930.88 1988.91,-5947.66 1990,-5964.44 1991.09,-5981.23 1992.18,-5998.01 1993.27,-6014.79 1994.36,-6031.57 1995.45,-6048.36 1996.54,-6065.14 
  1997.63,-6081.92 1998.72,-6098.71 1999.81,-6115.49 2000.9,-6132.27 2001.99,-6149.06 2003.08,-6165.84 2004.17,-6182.62 2005.26,-6199.4 2006.35,-6216.19 2007.44,-6232.97 
  2008.53,-6249.75 2009.62,-6266.54 2010.71,-6283.32 2011.8,-6300.1 2012.89,-6316.89 2013.98,-6333.67 2015.07,-6350.45 2016.16,-6367.23 2017.25,-6384.02 2018.34,-6400.8 
  2019.43,-6417.58 2020.52,-6434.37 2021.61,-6451.15 2022.7,-6467.93 2023.79,-6484.72 2024.88,-6501.5 2025.97,-6518.28 2027.06,-6535.06 2028.15,-6551.85 2029.24,-6568.63 
  2030.33,-6585.41 2031.42,-6602.2 2032.51,-6618.98 2033.6,-6635.76 2034.69,-6652.55 2035.78,-6669.33 2036.87,-6686.11 2037.96,-6702.89 2039.05,-6719.68 2040.14,-6736.46 
  2041.23,-6753.24 2042.32,-6770.03 2043.41,-6786.81 2044.5,-6803.59 2045.59,-6820.38 2046.68,-6837.16 2047.77,-6853.94 2048.86,-6870.72 2049.95,-6887.51 2051.04,-6904.29 
  2052.13,-6921.07 2053.22,-6937.86 2054.31,-6954.64 2055.4,-6971.42 2056.49,-6988.21 2057.58,-7004.99 2058.67,-7021.77 2059.76,-7038.56 2060.85,-7055.34 2061.94,-7072.12 
  2063.03,-7088.9 2064.12,-7105.69 2065.21,-7122.47 2066.3,-7139.25 2067.39,-7156.04 2068.48,-7172.82 2069.57,-7189.6 2070.66,-7206.39 2071.75,-7223.17 2072.84,-7239.95 
  2073.93,-7256.73 2075.02,-7273.52 2076.11,-7290.3 2077.2,-7307.08 2078.29,-7323.87 2079.38,-7340.65 2080.47,-7357.43 2081.56,-7374.22 2082.65,-7391 2083.74,-7407.78 
  2084.83,-7424.56 2085.92,-7441.35 2087.01,-7458.13 2088.1,-7474.91 2089.19,-7491.7 2090.28,-7508.48 2091.37,-7525.26 2092.46,-7542.05 2093.55,-7558.83 2094.64,-7575.61 
  2095.73,-7592.39 2096.82,-7609.18 2097.91,-7625.96 2099,-7642.74 2100.09,-7659.53 2101.18,-7676.31 2102.27,-7693.09 2103.36,-7709.88 2104.45,-7726.66 2105.54,-7743.44 
  2106.63,-7760.22 2107.72,-7777.01 2108.81,-7793.79 2109.9,-7810.57 2110.99,-7827.36 2112.08,-7844.14 2113.17,-7860.92 2114.26,-7877.71 2115.35,-7894.49 2116.44,-7911.27 
  2117.53,-7928.05 2118.62,-7944.84 2119.71,-7961.62 2120.8,-7978.4 2121.89,-7995.19 2122.98,-8011.97 2124.07,-8028.75 2125.16,-8045.54 2126.25,-8062.32 2127.34,-8079.1 
  2128.43,-8095.89 2129.52,-8112.67 2130.61,-8129.45 2131.7,-8146.23 2132.79,-8163.02 2133.88,-8179.8 2134.97,-8196.58 2136.06,-8213.37 2137.15,-8230.15 2138.24,-8246.93 
  2139.33,-8263.72 2140.42,-8280.5 2141.51,-8297.28 2142.6,-8314.06 2143.69,-8330.85 2144.78,-8347.63 2145.87,-8364.41 2146.96,-8381.2 2148.05,-8397.98 2149.14,-8414.76 
  2150.23,-8431.55 2151.32,-8448.33 2152.41,-8465.11 2153.5,-8481.89 2154.59,-8498.68 2155.68,-8515.46 2156.77,-8532.24 2157.86,-8549.03 2158.95,-8565.81 2160.04,-8582.59 
  2161.13,-8599.38 2162.22,-8616.16 2163.31,-8632.94 2164.4,-8649.72 2165.49,-8666.51 2166.58,-8683.29 2167.67,-8700.07 2168.76,-8716.86 2169.85,-8733.64 2170.94,-8750.42 
  2172.03,-8767.21 2173.12,-8783.99 2174.21,-8800.77 2175.3,-8817.55 2176.39,-8834.34 2177.48,-8851.12 2178.57,-8867.9 2179.66,-8884.69 2180.75,-8901.47 2181.84,-8918.25 
  2182.93,-8935.04 2184.02,-8951.82 2185.11,-8968.6 2186.2,-8985.38 2187.29,-9002.17 2188.38,-9018.95 2189.47,-9035.73 2190.56,-9052.52 2191.65,-9069.3 2192.74,-9086.08 
  2193.83,-9102.87 2194.93,-9119.65 2196.02,-9136.43 2197.11,-9153.21 2198.2,-9170 2199.29,-9186.78 2200.38,-9203.56 2201.47,-9220.35 2202.56,-9237.13 2203.65,-9253.91 
  2204.74,-9270.7 2205.83,-9287.48 2206.92,-9304.26 2208.01,-9321.05 2209.1,-9337.83 2210.19,-9354.61 2211.28,-9371.39 2212.37,-9388.18 2213.46,-9404.96 2214.55,-9421.74 
  2215.64,-9438.53 2216.73,-9455.31 2217.82,-9472.09 2218.91,-9488.88 2220,-9505.66 2221.09,-9522.44 2222.18,-9539.22 2223.27,-9556.01 2224.36,-9572.79 2225.45,-9589.57 
  2226.54,-9606.36 2227.63,-9623.14 2228.72,-9639.92 2229.81,-9656.71 2230.9,-9673.49 2231.99,-9690.27 2233.08,-9707.05 2234.17,-9723.84 2235.26,-9740.62 2236.35,-9757.4 
  2237.44,-9774.19 2238.53,-9790.97 2239.62,-9807.75 2240.71,-9824.54 2241.8,-9841.32 2242.89,-9858.1 2243.98,-9874.88 2245.07,-9891.67 2246.16,-9908.45 2247.25,-9925.23 
  2248.34,-9942.02 2249.43,-9958.8 2250.52,-9975.58 2251.61,-9992.37 2252.7,-10009.1 2253.79,-10025.9 2254.88,-10042.7 2255.97,-10059.5 2257.06,-10076.3 2258.15,-10093.1 
  2259.24,-10109.8 2260.33,-10126.6 2261.42,-10143.4 2262.51,-10160.2 2263.6,-10177 2264.69,-10193.8 2265.78,-10210.5 2266.87,-10227.3 2267.96,-10244.1 2269.05,-10260.9 
  2270.14,-10277.7 2271.23,-10294.5 2272.32,-10311.2 2273.41,-10328 2274.5,-10344.8 2275.59,-10361.6 2276.68,-10378.4 2277.77,-10395.2 2278.86,-10411.9 2279.95,-10428.7 
  2281.04,-10445.5 2282.13,-10462.3 2283.22,-10479.1 2284.31,-10495.9 2285.4,-10512.6 2286.49,-10529.4 2287.58,-10546.2 2288.67,-10563 2289.76,-10579.8 2290.85,-10596.6 
  2291.94,-10613.3 2293.03,-10630.1 2294.12,-10646.9 2295.21,-10663.7 2296.3,-10680.5 2297.39,-10697.3 2298.48,-10714 2299.57,-10730.8 2300.66,-10747.6 2301.75,-10764.4 
  2302.84,-10781.2 2303.93,-10798 2305.02,-10814.7 2306.11,-10831.5 2307.2,-10848.3 2308.29,-10865.1 2309.38,-10881.9 2310.47,-10898.6 2311.56,-10915.4 2312.65,-10932.2 
  2313.74,-10949 2314.83,-10965.8 2315.92,-10982.6 2317.01,-10999.3 2318.1,-11016.1 2319.19,-11032.9 2320.28,-11049.7 2321.37,-11066.5 2322.46,-11083.3 2323.55,-11100 
  2324.64,-11116.8 2325.73,-11133.6 2326.82,-11150.4 2327.91,-11167.2 2329,-11184 2330.09,-11200.7 2331.18,-11217.5 2332.27,-11234.3 2333.36,-11251.1 2334.45,-11267.9 
  2335.54,-11284.7 2336.63,-11301.4 2337.72,-11318.2 2338.81,-11335 2339.9,-11351.8 2340.99,-11368.6 2342.08,-11385.4 2343.17,-11402.1 2344.26,-11418.9 2345.35,-11435.7 
  2346.44,-11452.5 2347.53,-11469.3 2348.62,-11486.1 2349.71,-11502.8 2350.8,-11519.6 2351.89,-11536.4 2352.98,-11553.2 2354.07,-11570 2355.16,-11586.8 2356.25,-11603.5 
  2357.34,-11620.3 2358.43,-11637.1 2359.52,-11653.9 2360.61,-11670.7 2361.7,-11687.5 2362.79,-11704.2 2363.88,-11721 2364.97,-11737.8 2366.06,-11754.6 2367.15,-11771.4 
  2368.24,-11788.1 2369.33,-11804.9 2370.42,-11821.7 2371.51,-11838.5 2372.6,-11855.3 2373.69,-11872.1 2374.78,-11888.8 2375.87,-11905.6 2376.96,-11922.4 2378.05,-11939.2 
  2379.14,-11956 2380.23,-11972.8 2381.32,-11989.5 2382.41,-12006.3 2383.5,-12023.1 2384.59,-12039.9 2385.68,-12056.7 2386.77,-12073.5 2387.86,-12090.2 2388.95,-12107 
  2390.04,-12123.8 2391.13,-12140.6 2392.22,-12157.4 2393.31,-12174.2 2394.4,-12190.9 2395.49,-12207.7 2396.58,-12224.5 2397.67,-12241.3 2398.76,-12258.1 2399.85,-12274.9 
  2400.94,-12291.6 2402.03,-12308.4 2403.12,-12325.2 2404.21,-12342 2405.3,-12358.8 2406.39,-12375.6 2407.48,-12392.3 2408.58,-12409.1 2409.67,-12425.9 2410.76,-12442.7 
  2411.85,-12459.5 2412.94,-12476.3 2414.03,-12493 2415.12,-12509.8 2416.21,-12526.6 2417.3,-12543.4 2418.39,-12560.2 2419.48,-12576.9 2420.57,-12593.7 2421.66,-12610.5 
  2422.75,-12627.3 2423.84,-12644.1 2424.93,-12660.9 2426.02,-12677.6 2427.11,-12694.4 2428.2,-12711.2 2429.29,-12728 2430.38,-12744.8 2431.47,-12761.6 2432.56,-12778.3 
  2433.65,-12795.1 2434.74,-12811.9 2435.83,-12828.7 2436.92,-12845.5 2438.01,-12862.3 2439.1,-12879 2440.19,-12895.8 2441.28,-12912.6 2442.37,-12929.4 2443.46,-12946.2 
  2444.55,-12963 2445.64,-12979.7 2446.73,-12996.5 2447.82,-13013.3 2448.91,-13030.1 2450,-13046.9 2451.09,-13063.7 2452.18,-13080.4 2453.27,-13097.2 2454.36,-13114 
  2455.45,-13130.8 2456.54,-13147.6 2457.63,-13164.4 2458.72,-13181.1 2459.81,-13197.9 2460.9,-13214.7 2461.99,-13231.5 2463.08,-13248.3 2464.17,-13265.1 2465.26,-13281.8 
  2466.35,-13298.6 2467.44,-13315.4 2468.53,-13332.2 2469.62,-13349 2470.71,-13365.8 2471.8,-13382.5 2472.89,-13399.3 2473.98,-13416.1 2475.07,-13432.9 2476.16,-13449.7 
  2477.25,-13466.4 2478.34,-13483.2 2479.43,-13500 2480.52,-13516.8 2481.61,-13533.6 2482.7,-13550.4 2483.79,-13567.1 2484.88,-13583.9 2485.97,-13600.7 2487.06,-13617.5 
  2488.15,-13634.3 2489.24,-13651.1 2490.33,-13667.8 2491.42,-13684.6 2492.51,-13701.4 2493.6,-13718.2 2494.69,-13735 2495.78,-13751.8 2496.87,-13768.5 2497.96,-13785.3 
  2499.05,-13802.1 2500.14,-13818.9 2501.23,-13835.7 2502.32,-13852.5 2503.41,-13869.2 2504.5,-13886 2505.59,-13902.8 2506.68,-13919.6 2507.77,-13936.4 2508.86,-13953.2 
  2509.95,-13969.9 2511.04,-13986.7 2512.13,-14003.5 2513.22,-14020.3 2514.31,-14037.1 2515.4,-14053.9 2516.49,-14070.6 2517.58,-14087.4 2518.67,-14104.2 2519.76,-14121 
  2520.85,-14137.8 2521.94,-14154.6 2523.03,-14171.3 2524.12,-14188.1 2525.21,-14204.9 2526.3,-14221.7 2527.39,-14238.5 2528.48,-14255.3 2529.57,-14272 2530.66,-14288.8 
  2531.75,-14305.6 2532.84,-14322.4 2533.93,-14339.2 2535.02,-14355.9 2536.11,-14372.7 2537.2,-14389.5 2538.29,-14406.3 2539.38,-14423.1 2540.47,-14439.9 2541.56,-14456.6 
  2542.65,-14473.4 2543.74,-14490.2 2544.83,-14507 2545.92,-14523.8 2547.01,-14540.6 2548.1,-14557.3 2549.19,-14574.1 2550.28,-14590.9 2551.37,-14607.7 2552.46,-14624.5 
  2553.55,-14641.3 2554.64,-14658 2555.73,-14674.8 2556.82,-14691.6 2557.91,-14708.4 2559,-14725.2 2560.09,-14742 2561.18,-14758.7 2562.27,-14775.5 2563.36,-14792.3 
  2564.45,-14809.1 2565.54,-14825.9 2566.63,-14842.7 2567.72,-14859.4 2568.81,-14876.2 2569.9,-14893 2570.99,-14909.8 2572.08,-14926.6 2573.17,-14943.4 2574.26,-14960.1 
  2575.35,-14976.9 
  "/>
</svg>
