<?xml version="1.0" encoding="utf-8"?>
<svg xmlns="http://www.w3.org/2000/svg" xmlns:xlink="http://www.w3.org/1999/xlink" width="672" height="480" viewBox="0 0 2688 1920">
<defs>
  <clipPath id="clip770">
    <rect x="0" y="0" width="2688" height="1920"/>
  </clipPath>
</defs>
<path clip-path="url(#clip770)" d="
M0 1920 L2688 1920 L2688 0 L0 0  Z
  " fill="#ffffff" fill-rule="evenodd" fill-opacity="1"/>
<defs>
  <clipPath id="clip771">
    <rect x="537" y="0" width="1883" height="1883"/>
  </clipPath>
</defs>
<path clip-path="url(#clip770)" d="
M329.848 1806.09 L2640.76 1806.09 L2640.76 127.792 L329.848 127.792  Z
  " fill="#ffffff" fill-rule="evenodd" fill-opacity="1"/>
<defs>
  <clipPath id="clip772">
    <rect x="329" y="127" width="2312" height="1679"/>
  </clipPath>
</defs>
<polyline clip-path="url(#clip770)" style="stroke:#000000; stroke-linecap:round; stroke-linejoin:round; stroke-width:4; stroke-opacity:1; fill:none" points="
  329.848,1806.09 2640.76,1806.09 
  "/>
<path clip-path="url(#clip770)" d="M1182.93 1855.92 L1192.51 1855.92 L1204.64 1888.26 L1216.83 1855.92 L1226.41 1855.92 L1226.41 1903.44 L1220.14 1903.44 L1220.14 1861.71 L1207.88 1894.3 L1201.42 1894.3 L1189.17 1861.71 L1189.17 1903.44 L1182.93 1903.44 L1182.93 1855.92 Z" fill="#000000" fill-rule="evenodd" fill-opacity="1" /><path clip-path="url(#clip770)" d="M1269.41 1884.15 L1269.41 1887.01 L1242.48 1887.01 Q1242.86 1893.06 1246.11 1896.24 Q1249.39 1899.4 1255.21 1899.4 Q1258.59 1899.4 1261.74 1898.57 Q1264.92 1897.74 1268.04 1896.09 L1268.04 1901.62 Q1264.89 1902.96 1261.58 1903.66 Q1258.27 1904.36 1254.86 1904.36 Q1246.33 1904.36 1241.34 1899.4 Q1236.37 1894.43 1236.37 1885.96 Q1236.37 1877.21 1241.08 1872.09 Q1245.82 1866.93 1253.84 1866.93 Q1261.04 1866.93 1265.21 1871.58 Q1269.41 1876.19 1269.41 1884.15 M1263.55 1882.43 Q1263.49 1877.62 1260.85 1874.76 Q1258.24 1871.9 1253.91 1871.9 Q1249.01 1871.9 1246.05 1874.66 Q1243.12 1877.43 1242.67 1882.46 L1263.55 1882.43 Z" fill="#000000" fill-rule="evenodd" fill-opacity="1" /><path clip-path="url(#clip770)" d="M1306.78 1874.63 Q1308.97 1870.69 1312.03 1868.81 Q1315.08 1866.93 1319.22 1866.93 Q1324.79 1866.93 1327.81 1870.85 Q1330.84 1874.73 1330.84 1881.92 L1330.84 1903.44 L1324.95 1903.44 L1324.95 1882.11 Q1324.95 1876.99 1323.14 1874.51 Q1321.32 1872.02 1317.6 1872.02 Q1313.05 1872.02 1310.4 1875.05 Q1307.76 1878.07 1307.76 1883.29 L1307.76 1903.44 L1301.87 1903.44 L1301.87 1882.11 Q1301.87 1876.96 1300.06 1874.51 Q1298.25 1872.02 1294.46 1872.02 Q1289.97 1872.02 1287.33 1875.08 Q1284.69 1878.1 1284.69 1883.29 L1284.69 1903.44 L1278.8 1903.44 L1278.8 1867.79 L1284.69 1867.79 L1284.69 1873.33 Q1286.69 1870.05 1289.49 1868.49 Q1292.29 1866.93 1296.14 1866.93 Q1300.03 1866.93 1302.73 1868.9 Q1305.47 1870.88 1306.78 1874.63 Z" fill="#000000" fill-rule="evenodd" fill-opacity="1" /><path clip-path="url(#clip770)" d="M1368.11 1885.65 Q1368.11 1879.18 1365.44 1875.52 Q1362.79 1871.83 1358.15 1871.83 Q1353.5 1871.83 1350.83 1875.52 Q1348.18 1879.18 1348.18 1885.65 Q1348.18 1892.11 1350.83 1895.8 Q1353.5 1899.46 1358.15 1899.46 Q1362.79 1899.46 1365.44 1895.8 Q1368.11 1892.11 1368.11 1885.65 M1348.18 1873.2 Q1350.03 1870.02 1352.83 1868.49 Q1355.66 1866.93 1359.58 1866.93 Q1366.07 1866.93 1370.11 1872.09 Q1374.19 1877.24 1374.19 1885.65 Q1374.19 1894.05 1370.11 1899.2 Q1366.07 1904.36 1359.58 1904.36 Q1355.66 1904.36 1352.83 1902.83 Q1350.03 1901.27 1348.18 1898.09 L1348.18 1903.44 L1342.3 1903.44 L1342.3 1853.91 L1348.18 1853.91 L1348.18 1873.2 Z" fill="#000000" fill-rule="evenodd" fill-opacity="1" /><path clip-path="url(#clip770)" d="M1404.55 1873.26 Q1403.57 1872.69 1402.39 1872.44 Q1401.24 1872.15 1399.84 1872.15 Q1394.88 1872.15 1392.2 1875.4 Q1389.56 1878.61 1389.56 1884.66 L1389.56 1903.44 L1383.67 1903.44 L1383.67 1867.79 L1389.56 1867.79 L1389.56 1873.33 Q1391.41 1870.08 1394.37 1868.52 Q1397.33 1866.93 1401.56 1866.93 Q1402.17 1866.93 1402.9 1867.03 Q1403.63 1867.09 1404.52 1867.25 L1404.55 1873.26 Z" fill="#000000" fill-rule="evenodd" fill-opacity="1" /><path clip-path="url(#clip770)" d="M1426.9 1885.52 Q1419.8 1885.52 1417.06 1887.14 Q1414.32 1888.76 1414.32 1892.68 Q1414.32 1895.8 1416.36 1897.64 Q1418.43 1899.46 1421.96 1899.46 Q1426.83 1899.46 1429.76 1896.02 Q1432.72 1892.55 1432.72 1886.82 L1432.72 1885.52 L1426.9 1885.52 M1438.58 1883.1 L1438.58 1903.44 L1432.72 1903.44 L1432.72 1898.03 Q1430.72 1901.27 1427.72 1902.83 Q1424.73 1904.36 1420.4 1904.36 Q1414.93 1904.36 1411.68 1901.31 Q1408.47 1898.22 1408.47 1893.06 Q1408.47 1887.05 1412.48 1883.99 Q1416.52 1880.93 1424.51 1880.93 L1432.72 1880.93 L1432.72 1880.36 Q1432.72 1876.32 1430.05 1874.12 Q1427.41 1871.9 1422.6 1871.9 Q1419.54 1871.9 1416.65 1872.63 Q1413.75 1873.36 1411.08 1874.82 L1411.08 1869.41 Q1414.29 1868.17 1417.32 1867.57 Q1420.34 1866.93 1423.2 1866.93 Q1430.94 1866.93 1434.76 1870.94 Q1438.58 1874.95 1438.58 1883.1 Z" fill="#000000" fill-rule="evenodd" fill-opacity="1" /><path clip-path="url(#clip770)" d="M1480.27 1881.92 L1480.27 1903.44 L1474.42 1903.44 L1474.42 1882.11 Q1474.42 1877.05 1472.44 1874.54 Q1470.47 1872.02 1466.52 1872.02 Q1461.78 1872.02 1459.04 1875.05 Q1456.31 1878.07 1456.31 1883.29 L1456.31 1903.44 L1450.42 1903.44 L1450.42 1867.79 L1456.31 1867.79 L1456.31 1873.33 Q1458.41 1870.11 1461.24 1868.52 Q1464.1 1866.93 1467.83 1866.93 Q1473.97 1866.93 1477.12 1870.75 Q1480.27 1874.54 1480.27 1881.92 Z" fill="#000000" fill-rule="evenodd" fill-opacity="1" /><path clip-path="url(#clip770)" d="M1522.45 1884.15 L1522.45 1887.01 L1495.52 1887.01 Q1495.9 1893.06 1499.15 1896.24 Q1502.43 1899.4 1508.25 1899.4 Q1511.62 1899.4 1514.78 1898.57 Q1517.96 1897.74 1521.08 1896.09 L1521.08 1901.62 Q1517.93 1902.96 1514.62 1903.66 Q1511.31 1904.36 1507.9 1904.36 Q1499.37 1904.36 1494.37 1899.4 Q1489.41 1894.43 1489.41 1885.96 Q1489.41 1877.21 1494.12 1872.09 Q1498.86 1866.93 1506.88 1866.93 Q1514.07 1866.93 1518.24 1871.58 Q1522.45 1876.19 1522.45 1884.15 M1516.59 1882.43 Q1516.53 1877.62 1513.88 1874.76 Q1511.27 1871.9 1506.95 1871.9 Q1502.04 1871.9 1499.08 1874.66 Q1496.16 1877.43 1495.71 1882.46 L1516.59 1882.43 Z" fill="#000000" fill-rule="evenodd" fill-opacity="1" /><path clip-path="url(#clip770)" d="M1565.29 1903.44 L1547.14 1855.92 L1553.86 1855.92 L1568.92 1895.93 L1584 1855.92 L1590.69 1855.92 L1572.58 1903.44 L1565.29 1903.44 Z" fill="#000000" fill-rule="evenodd" fill-opacity="1" /><path clip-path="url(#clip770)" d="M1606.12 1871.9 Q1601.41 1871.9 1598.68 1875.59 Q1595.94 1879.25 1595.94 1885.65 Q1595.94 1892.04 1598.64 1895.74 Q1601.38 1899.4 1606.12 1899.4 Q1610.8 1899.4 1613.54 1895.7 Q1616.28 1892.01 1616.28 1885.65 Q1616.28 1879.31 1613.54 1875.62 Q1610.8 1871.9 1606.12 1871.9 M1606.12 1866.93 Q1613.76 1866.93 1618.12 1871.9 Q1622.48 1876.86 1622.48 1885.65 Q1622.48 1894.4 1618.12 1899.4 Q1613.76 1904.36 1606.12 1904.36 Q1598.45 1904.36 1594.09 1899.4 Q1589.76 1894.4 1589.76 1885.65 Q1589.76 1876.86 1594.09 1871.9 Q1598.45 1866.93 1606.12 1866.93 Z" fill="#000000" fill-rule="evenodd" fill-opacity="1" /><path clip-path="url(#clip770)" d="M1632.19 1853.91 L1638.05 1853.91 L1638.05 1903.44 L1632.19 1903.44 L1632.19 1853.91 Z" fill="#000000" fill-rule="evenodd" fill-opacity="1" /><path clip-path="url(#clip770)" d="M1656.09 1857.67 L1656.09 1867.79 L1668.16 1867.79 L1668.16 1872.34 L1656.09 1872.34 L1656.09 1891.69 Q1656.09 1896.05 1657.27 1897.29 Q1658.48 1898.54 1662.14 1898.54 L1668.16 1898.54 L1668.16 1903.44 L1662.14 1903.44 Q1655.36 1903.44 1652.78 1900.92 Q1650.21 1898.38 1650.21 1891.69 L1650.21 1872.34 L1645.91 1872.34 L1645.91 1867.79 L1650.21 1867.79 L1650.21 1857.67 L1656.09 1857.67 Z" fill="#000000" fill-rule="evenodd" fill-opacity="1" /><path clip-path="url(#clip770)" d="M1692.06 1885.52 Q1684.96 1885.52 1682.22 1887.14 Q1679.49 1888.76 1679.49 1892.68 Q1679.49 1895.8 1681.52 1897.64 Q1683.59 1899.46 1687.13 1899.46 Q1692 1899.46 1694.92 1896.02 Q1697.88 1892.55 1697.88 1886.82 L1697.88 1885.52 L1692.06 1885.52 M1703.74 1883.1 L1703.74 1903.44 L1697.88 1903.44 L1697.88 1898.03 Q1695.88 1901.27 1692.89 1902.83 Q1689.9 1904.36 1685.57 1904.36 Q1680.09 1904.36 1676.85 1901.31 Q1673.63 1898.22 1673.63 1893.06 Q1673.63 1887.05 1677.64 1883.99 Q1681.68 1880.93 1689.67 1880.93 L1697.88 1880.93 L1697.88 1880.36 Q1697.88 1876.32 1695.21 1874.12 Q1692.57 1871.9 1687.76 1871.9 Q1684.71 1871.9 1681.81 1872.63 Q1678.91 1873.36 1676.24 1874.82 L1676.24 1869.41 Q1679.46 1868.17 1682.48 1867.57 Q1685.5 1866.93 1688.37 1866.93 Q1696.1 1866.93 1699.92 1870.94 Q1703.74 1874.95 1703.74 1883.1 Z" fill="#000000" fill-rule="evenodd" fill-opacity="1" /><path clip-path="url(#clip770)" d="M1739.26 1885.2 Q1739.26 1878.83 1736.62 1875.33 Q1734.01 1871.83 1729.27 1871.83 Q1724.56 1871.83 1721.92 1875.33 Q1719.31 1878.83 1719.31 1885.2 Q1719.31 1891.53 1721.92 1895.03 Q1724.56 1898.54 1729.27 1898.54 Q1734.01 1898.54 1736.62 1895.03 Q1739.26 1891.53 1739.26 1885.2 M1745.12 1899.01 Q1745.12 1908.12 1741.08 1912.54 Q1737.03 1917 1728.69 1917 Q1725.61 1917 1722.87 1916.52 Q1720.13 1916.07 1717.55 1915.12 L1717.55 1909.42 Q1720.13 1910.82 1722.65 1911.49 Q1725.16 1912.16 1727.77 1912.16 Q1733.53 1912.16 1736.4 1909.13 Q1739.26 1906.14 1739.26 1900.06 L1739.26 1897.17 Q1737.45 1900.32 1734.61 1901.88 Q1731.78 1903.44 1727.84 1903.44 Q1721.28 1903.44 1717.27 1898.44 Q1713.26 1893.44 1713.26 1885.2 Q1713.26 1876.92 1717.27 1871.93 Q1721.28 1866.93 1727.84 1866.93 Q1731.78 1866.93 1734.61 1868.49 Q1737.45 1870.05 1739.26 1873.2 L1739.26 1867.79 L1745.12 1867.79 L1745.12 1899.01 Z" fill="#000000" fill-rule="evenodd" fill-opacity="1" /><path clip-path="url(#clip770)" d="M1787.67 1884.15 L1787.67 1887.01 L1760.75 1887.01 Q1761.13 1893.06 1764.37 1896.24 Q1767.65 1899.4 1773.48 1899.4 Q1776.85 1899.4 1780 1898.57 Q1783.19 1897.74 1786.3 1896.09 L1786.3 1901.62 Q1783.15 1902.96 1779.84 1903.66 Q1776.53 1904.36 1773.13 1904.36 Q1764.6 1904.36 1759.6 1899.4 Q1754.63 1894.43 1754.63 1885.96 Q1754.63 1877.21 1759.35 1872.09 Q1764.09 1866.93 1772.11 1866.93 Q1779.3 1866.93 1783.47 1871.58 Q1787.67 1876.19 1787.67 1884.15 M1781.82 1882.43 Q1781.75 1877.62 1779.11 1874.76 Q1776.5 1871.9 1772.17 1871.9 Q1767.27 1871.9 1764.31 1874.66 Q1761.38 1877.43 1760.94 1882.46 L1781.82 1882.43 Z" fill="#000000" fill-rule="evenodd" fill-opacity="1" /><polyline clip-path="url(#clip772)" style="stroke:#000000; stroke-linecap:round; stroke-linejoin:round; stroke-width:2; stroke-opacity:0.1; fill:none" points="
  329.848,1806.09 2640.76,1806.09 
  "/>
<polyline clip-path="url(#clip772)" style="stroke:#000000; stroke-linecap:round; stroke-linejoin:round; stroke-width:2; stroke-opacity:0.1; fill:none" points="
  329.848,127.792 2640.76,127.792 
  "/>
<polyline clip-path="url(#clip770)" style="stroke:#000000; stroke-linecap:round; stroke-linejoin:round; stroke-width:4; stroke-opacity:1; fill:none" points="
  329.848,1806.09 329.848,127.792 
  "/>
<polyline clip-path="url(#clip770)" style="stroke:#000000; stroke-linecap:round; stroke-linejoin:round; stroke-width:4; stroke-opacity:1; fill:none" points="
  329.848,1806.09 348.745,1806.09 
  "/>
<polyline clip-path="url(#clip770)" style="stroke:#000000; stroke-linecap:round; stroke-linejoin:round; stroke-width:4; stroke-opacity:1; fill:none" points="
  329.848,127.792 348.745,127.792 
  "/>
<path clip-path="url(#clip770)" d="M71.7974 111.646 L71.7974 116.207 Q69.1354 114.933 66.7743 114.308 Q64.4132 113.683 62.2141 113.683 Q58.3947 113.683 56.3113 115.165 Q54.2512 116.646 54.2512 119.378 Q54.2512 121.669 55.6169 122.85 Q57.0058 124.007 60.8484 124.725 L63.6724 125.304 Q68.9039 126.299 71.3807 128.822 Q73.8807 131.322 73.8807 135.535 Q73.8807 140.558 70.5011 143.151 Q67.1446 145.743 60.64 145.743 Q58.1863 145.743 55.4086 145.188 Q52.654 144.632 49.691 143.544 L49.691 138.73 Q52.5382 140.327 55.2697 141.137 Q58.0012 141.947 60.64 141.947 Q64.6446 141.947 66.8206 140.373 Q68.9965 138.799 68.9965 135.882 Q68.9965 133.336 67.4224 131.901 Q65.8715 130.466 62.3067 129.748 L59.4595 129.193 Q54.228 128.151 51.8901 125.929 Q49.5521 123.706 49.5521 119.748 Q49.5521 115.165 52.7697 112.526 Q56.0104 109.887 61.6817 109.887 Q64.1122 109.887 66.6354 110.327 Q69.1585 110.767 71.7974 111.646 Z" fill="#000000" fill-rule="evenodd" fill-opacity="1" /><path clip-path="url(#clip770)" d="M92.7695 132.04 Q87.6075 132.04 85.6167 133.22 Q83.626 134.401 83.626 137.248 Q83.626 139.517 85.1075 140.859 Q86.6121 142.179 89.1815 142.179 Q92.7232 142.179 94.8528 139.679 Q97.0056 137.156 97.0056 132.989 L97.0056 132.04 L92.7695 132.04 M101.265 130.281 L101.265 145.072 L97.0056 145.072 L97.0056 141.137 Q95.5472 143.498 93.3713 144.632 Q91.1954 145.743 88.0473 145.743 Q84.0658 145.743 81.7047 143.521 Q79.3668 141.276 79.3668 137.526 Q79.3668 133.151 82.2834 130.929 Q85.2232 128.706 91.0334 128.706 L97.0056 128.706 L97.0056 128.29 Q97.0056 125.35 95.0611 123.753 Q93.1399 122.132 89.6445 122.132 Q87.4223 122.132 85.3158 122.665 Q83.2094 123.197 81.2649 124.262 L81.2649 120.327 Q83.6029 119.424 85.8019 118.984 Q88.001 118.521 90.0843 118.521 Q95.7093 118.521 98.487 121.438 Q101.265 124.355 101.265 130.281 Z" fill="#000000" fill-rule="evenodd" fill-opacity="1" /><path clip-path="url(#clip770)" d="M114.251 111.785 L114.251 119.146 L123.024 119.146 L123.024 122.457 L114.251 122.457 L114.251 136.531 Q114.251 139.702 115.107 140.605 Q115.987 141.507 118.649 141.507 L123.024 141.507 L123.024 145.072 L118.649 145.072 Q113.718 145.072 111.843 143.243 Q109.968 141.392 109.968 136.531 L109.968 122.457 L106.843 122.457 L106.843 119.146 L109.968 119.146 L109.968 111.785 L114.251 111.785 Z" fill="#000000" fill-rule="evenodd" fill-opacity="1" /><path clip-path="url(#clip770)" d="M128.186 134.841 L128.186 119.146 L132.445 119.146 L132.445 134.679 Q132.445 138.359 133.88 140.211 Q135.316 142.04 138.186 142.04 Q141.635 142.04 143.626 139.841 Q145.64 137.642 145.64 133.845 L145.64 119.146 L149.899 119.146 L149.899 145.072 L145.64 145.072 L145.64 141.091 Q144.089 143.452 142.028 144.609 Q139.991 145.743 137.283 145.743 Q132.816 145.743 130.501 142.966 Q128.186 140.188 128.186 134.841 M138.903 118.521 L138.903 118.521 Z" fill="#000000" fill-rule="evenodd" fill-opacity="1" /><path clip-path="url(#clip770)" d="M173.695 123.128 Q172.977 122.711 172.121 122.526 Q171.288 122.318 170.269 122.318 Q166.658 122.318 164.714 124.679 Q162.792 127.017 162.792 131.415 L162.792 145.072 L158.51 145.072 L158.51 119.146 L162.792 119.146 L162.792 123.174 Q164.135 120.813 166.288 119.679 Q168.44 118.521 171.519 118.521 Q171.959 118.521 172.491 118.591 Q173.024 118.637 173.672 118.753 L173.695 123.128 Z" fill="#000000" fill-rule="evenodd" fill-opacity="1" /><path clip-path="url(#clip770)" d="M189.945 132.04 Q184.783 132.04 182.792 133.22 Q180.801 134.401 180.801 137.248 Q180.801 139.517 182.283 140.859 Q183.788 142.179 186.357 142.179 Q189.899 142.179 192.028 139.679 Q194.181 137.156 194.181 132.989 L194.181 132.04 L189.945 132.04 M198.44 130.281 L198.44 145.072 L194.181 145.072 L194.181 141.137 Q192.723 143.498 190.547 144.632 Q188.371 145.743 185.223 145.743 Q181.241 145.743 178.88 143.521 Q176.542 141.276 176.542 137.526 Q176.542 133.151 179.459 130.929 Q182.399 128.706 188.209 128.706 L194.181 128.706 L194.181 128.29 Q194.181 125.35 192.237 123.753 Q190.315 122.132 186.82 122.132 Q184.598 122.132 182.491 122.665 Q180.385 123.197 178.44 124.262 L178.44 120.327 Q180.778 119.424 182.977 118.984 Q185.176 118.521 187.26 118.521 Q192.885 118.521 195.662 121.438 Q198.44 124.355 198.44 130.281 Z" fill="#000000" fill-rule="evenodd" fill-opacity="1" /><path clip-path="url(#clip770)" d="M211.426 111.785 L211.426 119.146 L220.199 119.146 L220.199 122.457 L211.426 122.457 L211.426 136.531 Q211.426 139.702 212.283 140.605 Q213.162 141.507 215.824 141.507 L220.199 141.507 L220.199 145.072 L215.824 145.072 Q210.894 145.072 209.019 143.243 Q207.144 141.392 207.144 136.531 L207.144 122.457 L204.019 122.457 L204.019 119.146 L207.144 119.146 L207.144 111.785 L211.426 111.785 Z" fill="#000000" fill-rule="evenodd" fill-opacity="1" /><path clip-path="url(#clip770)" d="M225.801 119.146 L230.06 119.146 L230.06 145.072 L225.801 145.072 L225.801 119.146 M225.801 109.054 L230.06 109.054 L230.06 114.447 L225.801 114.447 L225.801 109.054 Z" fill="#000000" fill-rule="evenodd" fill-opacity="1" /><path clip-path="url(#clip770)" d="M249.019 122.132 Q245.593 122.132 243.602 124.818 Q241.611 127.48 241.611 132.132 Q241.611 136.785 243.579 139.47 Q245.57 142.132 249.019 142.132 Q252.421 142.132 254.412 139.447 Q256.403 136.762 256.403 132.132 Q256.403 127.526 254.412 124.841 Q252.421 122.132 249.019 122.132 M249.019 118.521 Q254.574 118.521 257.745 122.132 Q260.917 125.744 260.917 132.132 Q260.917 138.498 257.745 142.132 Q254.574 145.743 249.019 145.743 Q243.44 145.743 240.269 142.132 Q237.121 138.498 237.121 132.132 Q237.121 125.744 240.269 122.132 Q243.44 118.521 249.019 118.521 Z" fill="#000000" fill-rule="evenodd" fill-opacity="1" /><path clip-path="url(#clip770)" d="M289.528 129.424 L289.528 145.072 L285.268 145.072 L285.268 129.563 Q285.268 125.882 283.833 124.054 Q282.398 122.225 279.528 122.225 Q276.079 122.225 274.088 124.424 Q272.097 126.623 272.097 130.419 L272.097 145.072 L267.815 145.072 L267.815 119.146 L272.097 119.146 L272.097 123.174 Q273.625 120.836 275.685 119.679 Q277.768 118.521 280.477 118.521 Q284.944 118.521 287.236 121.299 Q289.528 124.054 289.528 129.424 Z" fill="#000000" fill-rule="evenodd" fill-opacity="1" /><path clip-path="url(#clip770)" d="M1141.81 14.0809 L1141.81 22.0612 Q1137.15 19.8332 1133.01 18.7395 Q1128.88 17.6457 1125.03 17.6457 Q1118.35 17.6457 1114.7 20.2383 Q1111.1 22.8309 1111.1 27.611 Q1111.1 31.6214 1113.49 33.6873 Q1115.92 35.7128 1122.64 36.9686 L1127.59 37.9813 Q1136.74 39.7232 1141.08 44.1387 Q1145.45 48.5136 1145.45 55.8863 Q1145.45 64.6767 1139.54 69.2137 Q1133.66 73.7508 1122.28 73.7508 Q1117.99 73.7508 1113.12 72.7785 Q1108.3 71.8063 1103.12 69.9024 L1103.12 61.4765 Q1108.1 64.2716 1112.88 65.6895 Q1117.66 67.1073 1122.28 67.1073 Q1129.29 67.1073 1133.1 64.3527 Q1136.9 61.598 1136.9 56.4939 Q1136.9 52.0379 1134.15 49.5264 Q1131.44 47.0148 1125.2 45.759 L1120.21 44.7868 Q1111.06 42.9639 1106.97 39.075 Q1102.88 35.1862 1102.88 28.2591 Q1102.88 20.2383 1108.51 15.6203 Q1114.18 11.0023 1124.1 11.0023 Q1128.36 11.0023 1132.77 11.7719 Q1137.19 12.5416 1141.81 14.0809 Z" fill="#000000" fill-rule="evenodd" fill-opacity="1" /><path clip-path="url(#clip770)" d="M1157.89 27.2059 L1165.34 27.2059 L1165.34 72.576 L1157.89 72.576 L1157.89 27.2059 M1157.89 9.54393 L1165.34 9.54393 L1165.34 18.9825 L1157.89 18.9825 L1157.89 9.54393 Z" fill="#000000" fill-rule="evenodd" fill-opacity="1" /><path clip-path="url(#clip770)" d="M1210.79 49.3643 Q1210.79 41.2625 1207.43 36.8065 Q1204.11 32.3505 1198.07 32.3505 Q1192.08 32.3505 1188.71 36.8065 Q1185.39 41.2625 1185.39 49.3643 Q1185.39 57.4256 1188.71 61.8816 Q1192.08 66.3376 1198.07 66.3376 Q1204.11 66.3376 1207.43 61.8816 Q1210.79 57.4256 1210.79 49.3643 M1218.25 66.9452 Q1218.25 78.5308 1213.1 84.1616 Q1207.96 89.8329 1197.34 89.8329 Q1193.41 89.8329 1189.93 89.2252 Q1186.45 88.6581 1183.17 87.4428 L1183.17 80.1917 Q1186.45 81.9741 1189.65 82.8248 Q1192.85 83.6755 1196.17 83.6755 Q1203.5 83.6755 1207.15 79.8271 Q1210.79 76.0193 1210.79 68.282 L1210.79 64.5957 Q1208.48 68.6061 1204.88 70.5911 Q1201.27 72.576 1196.25 72.576 Q1187.9 72.576 1182.8 66.2161 Q1177.7 59.8562 1177.7 49.3643 Q1177.7 38.832 1182.8 32.472 Q1187.9 26.1121 1196.25 26.1121 Q1201.27 26.1121 1204.88 28.0971 Q1208.48 30.082 1210.79 34.0924 L1210.79 27.2059 L1218.25 27.2059 L1218.25 66.9452 Z" fill="#000000" fill-rule="evenodd" fill-opacity="1" /><path clip-path="url(#clip770)" d="M1268.92 35.9153 Q1271.72 30.8922 1275.61 28.5022 Q1279.5 26.1121 1284.76 26.1121 Q1291.85 26.1121 1295.7 31.0947 Q1299.55 36.0368 1299.55 45.1919 L1299.55 72.576 L1292.05 72.576 L1292.05 45.4349 Q1292.05 38.913 1289.74 35.7533 Q1287.44 32.5936 1282.7 32.5936 Q1276.9 32.5936 1273.54 36.4419 Q1270.18 40.2903 1270.18 46.9338 L1270.18 72.576 L1262.68 72.576 L1262.68 45.4349 Q1262.68 38.8725 1260.38 35.7533 Q1258.07 32.5936 1253.25 32.5936 Q1247.53 32.5936 1244.17 36.4824 Q1240.81 40.3308 1240.81 46.9338 L1240.81 72.576 L1233.32 72.576 L1233.32 27.2059 L1240.81 27.2059 L1240.81 34.2544 Q1243.36 30.082 1246.93 28.0971 Q1250.49 26.1121 1255.39 26.1121 Q1260.33 26.1121 1263.78 28.6237 Q1267.26 31.1352 1268.92 35.9153 Z" fill="#000000" fill-rule="evenodd" fill-opacity="1" /><path clip-path="url(#clip770)" d="M1332 32.4315 Q1326 32.4315 1322.52 37.1306 Q1319.03 41.7891 1319.03 49.9314 Q1319.03 58.0738 1322.48 62.7728 Q1325.96 67.4314 1332 67.4314 Q1337.95 67.4314 1341.43 62.7323 Q1344.92 58.0333 1344.92 49.9314 Q1344.92 41.8701 1341.43 37.1711 Q1337.95 32.4315 1332 32.4315 M1332 26.1121 Q1341.72 26.1121 1347.27 32.4315 Q1352.82 38.7509 1352.82 49.9314 Q1352.82 61.0714 1347.27 67.4314 Q1341.72 73.7508 1332 73.7508 Q1322.23 73.7508 1316.68 67.4314 Q1311.17 61.0714 1311.17 49.9314 Q1311.17 38.7509 1316.68 32.4315 Q1322.23 26.1121 1332 26.1121 Z" fill="#000000" fill-rule="evenodd" fill-opacity="1" /><path clip-path="url(#clip770)" d="M1365.17 27.2059 L1372.63 27.2059 L1372.63 72.576 L1365.17 72.576 L1365.17 27.2059 M1365.17 9.54393 L1372.63 9.54393 L1372.63 18.9825 L1365.17 18.9825 L1365.17 9.54393 Z" fill="#000000" fill-rule="evenodd" fill-opacity="1" /><path clip-path="url(#clip770)" d="M1418.08 34.0924 L1418.08 9.54393 L1425.53 9.54393 L1425.53 72.576 L1418.08 72.576 L1418.08 65.7705 Q1415.73 69.8214 1412.12 71.8063 Q1408.56 73.7508 1403.53 73.7508 Q1395.31 73.7508 1390.13 67.1883 Q1384.98 60.6258 1384.98 49.9314 Q1384.98 39.2371 1390.13 32.6746 Q1395.31 26.1121 1403.53 26.1121 Q1408.56 26.1121 1412.12 28.0971 Q1415.73 30.0415 1418.08 34.0924 M1392.68 49.9314 Q1392.68 58.1548 1396.04 62.8538 Q1399.44 67.5124 1405.36 67.5124 Q1411.27 67.5124 1414.67 62.8538 Q1418.08 58.1548 1418.08 49.9314 Q1418.08 41.7081 1414.67 37.0496 Q1411.27 32.3505 1405.36 32.3505 Q1399.44 32.3505 1396.04 37.0496 Q1392.68 41.7081 1392.68 49.9314 Z" fill="#000000" fill-rule="evenodd" fill-opacity="1" /><path clip-path="url(#clip770)" d="M1487.79 20.1573 L1476.69 50.2555 L1498.93 50.2555 L1487.79 20.1573 M1483.18 12.096 L1492.45 12.096 L1515.5 72.576 L1506.99 72.576 L1501.49 57.061 L1474.22 57.061 L1468.71 72.576 L1460.08 72.576 L1483.18 12.096 Z" fill="#000000" fill-rule="evenodd" fill-opacity="1" /><path clip-path="url(#clip770)" d="M1555.2 28.9478 L1555.2 35.9153 Q1552.04 34.1734 1548.84 33.3227 Q1545.68 32.4315 1542.44 32.4315 Q1535.19 32.4315 1531.18 37.0496 Q1527.17 41.6271 1527.17 49.9314 Q1527.17 58.2358 1531.18 62.8538 Q1535.19 67.4314 1542.44 67.4314 Q1545.68 67.4314 1548.84 66.5807 Q1552.04 65.6895 1555.2 63.9476 L1555.2 70.8341 Q1552.08 72.2924 1548.72 73.0216 Q1545.4 73.7508 1541.63 73.7508 Q1531.38 73.7508 1525.34 67.3098 Q1519.31 60.8689 1519.31 49.9314 Q1519.31 38.832 1525.39 32.472 Q1531.5 26.1121 1542.12 26.1121 Q1545.56 26.1121 1548.84 26.8413 Q1552.12 27.5299 1555.2 28.9478 Z" fill="#000000" fill-rule="evenodd" fill-opacity="1" /><path clip-path="url(#clip770)" d="M1575.54 14.324 L1575.54 27.2059 L1590.89 27.2059 L1590.89 32.9987 L1575.54 32.9987 L1575.54 57.6282 Q1575.54 63.1779 1577.03 64.7578 Q1578.57 66.3376 1583.23 66.3376 L1590.89 66.3376 L1590.89 72.576 L1583.23 72.576 Q1574.6 72.576 1571.32 69.3758 Q1568.04 66.1351 1568.04 57.6282 L1568.04 32.9987 L1562.57 32.9987 L1562.57 27.2059 L1568.04 27.2059 L1568.04 14.324 L1575.54 14.324 Z" fill="#000000" fill-rule="evenodd" fill-opacity="1" /><path clip-path="url(#clip770)" d="M1600.69 27.2059 L1608.15 27.2059 L1608.15 72.576 L1600.69 72.576 L1600.69 27.2059 M1600.69 9.54393 L1608.15 9.54393 L1608.15 18.9825 L1600.69 18.9825 L1600.69 9.54393 Z" fill="#000000" fill-rule="evenodd" fill-opacity="1" /><path clip-path="url(#clip770)" d="M1618.39 27.2059 L1626.29 27.2059 L1640.47 65.2844 L1654.65 27.2059 L1662.55 27.2059 L1645.54 72.576 L1635.41 72.576 L1618.39 27.2059 Z" fill="#000000" fill-rule="evenodd" fill-opacity="1" /><path clip-path="url(#clip770)" d="M1693.46 49.7694 Q1684.42 49.7694 1680.94 51.8354 Q1677.46 53.9013 1677.46 58.8839 Q1677.46 62.8538 1680.05 65.2034 Q1682.68 67.5124 1687.18 67.5124 Q1693.38 67.5124 1697.1 63.1374 Q1700.87 58.7219 1700.87 51.4303 L1700.87 49.7694 L1693.46 49.7694 M1708.32 46.6907 L1708.32 72.576 L1700.87 72.576 L1700.87 65.6895 Q1698.32 69.8214 1694.51 71.8063 Q1690.7 73.7508 1685.19 73.7508 Q1678.23 73.7508 1674.09 69.8619 Q1670 65.9325 1670 59.3701 Q1670 51.7138 1675.11 47.825 Q1680.25 43.9361 1690.42 43.9361 L1700.87 43.9361 L1700.87 43.2069 Q1700.87 38.0623 1697.47 35.2672 Q1694.11 32.4315 1687.99 32.4315 Q1684.1 32.4315 1680.41 33.3632 Q1676.73 34.295 1673.32 36.1584 L1673.32 29.2718 Q1677.42 27.692 1681.26 26.9223 Q1685.11 26.1121 1688.76 26.1121 Q1698.6 26.1121 1703.46 31.2163 Q1708.32 36.3204 1708.32 46.6907 Z" fill="#000000" fill-rule="evenodd" fill-opacity="1" /><path clip-path="url(#clip770)" d="M1731.05 14.324 L1731.05 27.2059 L1746.4 27.2059 L1746.4 32.9987 L1731.05 32.9987 L1731.05 57.6282 Q1731.05 63.1779 1732.55 64.7578 Q1734.09 66.3376 1738.75 66.3376 L1746.4 66.3376 L1746.4 72.576 L1738.75 72.576 Q1730.12 72.576 1726.84 69.3758 Q1723.56 66.1351 1723.56 57.6282 L1723.56 32.9987 L1718.09 32.9987 L1718.09 27.2059 L1723.56 27.2059 L1723.56 14.324 L1731.05 14.324 Z" fill="#000000" fill-rule="evenodd" fill-opacity="1" /><path clip-path="url(#clip770)" d="M1756.21 27.2059 L1763.66 27.2059 L1763.66 72.576 L1756.21 72.576 L1756.21 27.2059 M1756.21 9.54393 L1763.66 9.54393 L1763.66 18.9825 L1756.21 18.9825 L1756.21 9.54393 Z" fill="#000000" fill-rule="evenodd" fill-opacity="1" /><path clip-path="url(#clip770)" d="M1796.84 32.4315 Q1790.84 32.4315 1787.36 37.1306 Q1783.87 41.7891 1783.87 49.9314 Q1783.87 58.0738 1787.32 62.7728 Q1790.8 67.4314 1796.84 67.4314 Q1802.79 67.4314 1806.28 62.7323 Q1809.76 58.0333 1809.76 49.9314 Q1809.76 41.8701 1806.28 37.1711 Q1802.79 32.4315 1796.84 32.4315 M1796.84 26.1121 Q1806.56 26.1121 1812.11 32.4315 Q1817.66 38.7509 1817.66 49.9314 Q1817.66 61.0714 1812.11 67.4314 Q1806.56 73.7508 1796.84 73.7508 Q1787.07 73.7508 1781.52 67.4314 Q1776.01 61.0714 1776.01 49.9314 Q1776.01 38.7509 1781.52 32.4315 Q1787.07 26.1121 1796.84 26.1121 Z" fill="#000000" fill-rule="evenodd" fill-opacity="1" /><path clip-path="url(#clip770)" d="M1867.73 45.1919 L1867.73 72.576 L1860.27 72.576 L1860.27 45.4349 Q1860.27 38.994 1857.76 35.7938 Q1855.25 32.5936 1850.23 32.5936 Q1844.19 32.5936 1840.71 36.4419 Q1837.22 40.2903 1837.22 46.9338 L1837.22 72.576 L1829.73 72.576 L1829.73 27.2059 L1837.22 27.2059 L1837.22 34.2544 Q1839.9 30.163 1843.5 28.1376 Q1847.15 26.1121 1851.89 26.1121 Q1859.71 26.1121 1863.72 30.9732 Q1867.73 35.7938 1867.73 45.1919 Z" fill="#000000" fill-rule="evenodd" fill-opacity="1" /><polyline clip-path="url(#clip772)" style="stroke:#009af9; stroke-linecap:round; stroke-linejoin:round; stroke-width:4; stroke-opacity:1; fill:none" points="
  395.251,1806.02 396.341,1806.02 397.431,1806.02 398.521,1806.02 399.611,1806.01 400.701,1806.01 401.791,1806.01 402.881,1806.01 403.971,1806.01 405.061,1806.01 
  406.151,1806.01 407.241,1806.01 408.331,1806.01 409.421,1806.01 410.511,1806.01 411.602,1806.01 412.692,1806 413.782,1806 414.872,1806 415.962,1806 
  417.052,1806 418.142,1806 419.232,1806 420.322,1806 421.412,1806 422.502,1806 423.592,1805.99 424.682,1805.99 425.772,1805.99 426.862,1805.99 
  427.952,1805.99 429.042,1805.99 430.132,1805.99 431.222,1805.99 432.312,1805.99 433.403,1805.99 434.493,1805.98 435.583,1805.98 436.673,1805.98 437.763,1805.98 
  438.853,1805.98 439.943,1805.98 441.033,1805.98 442.123,1805.98 443.213,1805.98 444.303,1805.97 445.393,1805.97 446.483,1805.97 447.573,1805.97 448.663,1805.97 
  449.753,1805.97 450.843,1805.97 451.933,1805.97 453.023,1805.96 454.114,1805.96 455.204,1805.96 456.294,1805.96 457.384,1805.96 458.474,1805.96 459.564,1805.96 
  460.654,1805.95 461.744,1805.95 462.834,1805.95 463.924,1805.95 465.014,1805.95 466.104,1805.95 467.194,1805.95 468.284,1805.94 469.374,1805.94 470.464,1805.94 
  471.554,1805.94 472.644,1805.94 473.734,1805.94 474.824,1805.94 475.915,1805.93 477.005,1805.93 478.095,1805.93 479.185,1805.93 480.275,1805.93 481.365,1805.93 
  482.455,1805.92 483.545,1805.92 484.635,1805.92 485.725,1805.92 486.815,1805.92 487.905,1805.92 488.995,1805.91 490.085,1805.91 491.175,1805.91 492.265,1805.91 
  493.355,1805.91 494.445,1805.9 495.535,1805.9 496.626,1805.9 497.716,1805.9 498.806,1805.9 499.896,1805.89 500.986,1805.89 502.076,1805.89 503.166,1805.89 
  504.256,1805.89 505.346,1805.88 506.436,1805.88 507.526,1805.88 508.616,1805.88 509.706,1805.88 510.796,1805.87 511.886,1805.87 512.976,1805.87 514.066,1805.87 
  515.156,1805.86 516.246,1805.86 517.336,1805.86 518.427,1805.86 519.517,1805.86 520.607,1805.85 521.697,1805.85 522.787,1805.85 523.877,1805.85 524.967,1805.84 
  526.057,1805.84 527.147,1805.84 528.237,1805.84 529.327,1805.83 530.417,1805.83 531.507,1805.83 532.597,1805.83 533.687,1805.82 534.777,1805.82 535.867,1805.82 
  536.957,1805.81 538.047,1805.81 539.137,1805.81 540.228,1805.81 541.318,1805.8 542.408,1805.8 543.498,1805.8 544.588,1805.79 545.678,1805.79 546.768,1805.79 
  547.858,1805.78 548.948,1805.78 550.038,1805.78 551.128,1805.78 552.218,1805.77 553.308,1805.77 554.398,1805.77 555.488,1805.76 556.578,1805.76 557.668,1805.76 
  558.758,1805.75 559.848,1805.75 560.939,1805.75 562.029,1805.74 563.119,1805.74 564.209,1805.73 565.299,1805.73 566.389,1805.73 567.479,1805.72 568.569,1805.72 
  569.659,1805.72 570.749,1805.71 571.839,1805.71 572.929,1805.7 574.019,1805.7 575.109,1805.7 576.199,1805.69 577.289,1805.69 578.379,1805.68 579.469,1805.68 
  580.559,1805.68 581.649,1805.67 582.74,1805.67 583.83,1805.66 584.92,1805.66 586.01,1805.66 587.1,1805.65 588.19,1805.65 589.28,1805.64 590.37,1805.64 
  591.46,1805.63 592.55,1805.63 593.64,1805.62 594.73,1805.62 595.82,1805.61 596.91,1805.61 598,1805.6 599.09,1805.6 600.18,1805.59 601.27,1805.59 
  602.36,1805.58 603.451,1805.58 604.541,1805.57 605.631,1805.57 606.721,1805.56 607.811,1805.56 608.901,1805.55 609.991,1805.55 611.081,1805.54 612.171,1805.54 
  613.261,1805.53 614.351,1805.53 615.441,1805.52 616.531,1805.51 617.621,1805.51 618.711,1805.5 619.801,1805.5 620.891,1805.49 621.981,1805.48 623.071,1805.48 
  624.161,1805.47 625.252,1805.47 626.342,1805.46 627.432,1805.45 628.522,1805.45 629.612,1805.44 630.702,1805.43 631.792,1805.43 632.882,1805.42 633.972,1805.41 
  635.062,1805.41 636.152,1805.4 637.242,1805.39 638.332,1805.39 639.422,1805.38 640.512,1805.37 641.602,1805.36 642.692,1805.36 643.782,1805.35 644.872,1805.34 
  645.962,1805.33 647.053,1805.33 648.143,1805.32 649.233,1805.31 650.323,1805.3 651.413,1805.3 652.503,1805.29 653.593,1805.28 654.683,1805.27 655.773,1805.26 
  656.863,1805.25 657.953,1805.25 659.043,1805.24 660.133,1805.23 661.223,1805.22 662.313,1805.21 663.403,1805.2 664.493,1805.19 665.583,1805.18 666.673,1805.18 
  667.764,1805.17 668.854,1805.16 669.944,1805.15 671.034,1805.14 672.124,1805.13 673.214,1805.12 674.304,1805.11 675.394,1805.1 676.484,1805.09 677.574,1805.08 
  678.664,1805.07 679.754,1805.06 680.844,1805.05 681.934,1805.04 683.024,1805.03 684.114,1805.02 685.204,1805 686.294,1804.99 687.384,1804.98 688.474,1804.97 
  689.565,1804.96 690.655,1804.95 691.745,1804.94 692.835,1804.93 693.925,1804.91 695.015,1804.9 696.105,1804.89 697.195,1804.88 698.285,1804.87 699.375,1804.85 
  700.465,1804.84 701.555,1804.83 702.645,1804.82 703.735,1804.8 704.825,1804.79 705.915,1804.78 707.005,1804.76 708.095,1804.75 709.185,1804.74 710.276,1804.72 
  711.366,1804.71 712.456,1804.7 713.546,1804.68 714.636,1804.67 715.726,1804.65 716.816,1804.64 717.906,1804.62 718.996,1804.61 720.086,1804.59 721.176,1804.58 
  722.266,1804.56 723.356,1804.55 724.446,1804.53 725.536,1804.52 726.626,1804.5 727.716,1804.49 728.806,1804.47 729.896,1804.45 730.986,1804.44 732.077,1804.42 
  733.167,1804.4 734.257,1804.39 735.347,1804.37 736.437,1804.35 737.527,1804.34 738.617,1804.32 739.707,1804.3 740.797,1804.28 741.887,1804.26 742.977,1804.24 
  744.067,1804.23 745.157,1804.21 746.247,1804.19 747.337,1804.17 748.427,1804.15 749.517,1804.13 750.607,1804.11 751.697,1804.09 752.787,1804.07 753.878,1804.05 
  754.968,1804.03 756.058,1804.01 757.148,1803.99 758.238,1803.97 759.328,1803.95 760.418,1803.92 761.508,1803.9 762.598,1803.88 763.688,1803.86 764.778,1803.84 
  765.868,1803.81 766.958,1803.79 768.048,1803.77 769.138,1803.74 770.228,1803.72 771.318,1803.7 772.408,1803.67 773.498,1803.65 774.589,1803.62 775.679,1803.6 
  776.769,1803.57 777.859,1803.55 778.949,1803.52 780.039,1803.5 781.129,1803.47 782.219,1803.45 783.309,1803.42 784.399,1803.39 785.489,1803.36 786.579,1803.34 
  787.669,1803.31 788.759,1803.28 789.849,1803.25 790.939,1803.22 792.029,1803.2 793.119,1803.17 794.209,1803.14 795.299,1803.11 796.39,1803.08 797.48,1803.05 
  798.57,1803.02 799.66,1802.99 800.75,1802.96 801.84,1802.92 802.93,1802.89 804.02,1802.86 805.11,1802.83 806.2,1802.79 807.29,1802.76 808.38,1802.73 
  809.47,1802.69 810.56,1802.66 811.65,1802.63 812.74,1802.59 813.83,1802.56 814.92,1802.52 816.01,1802.48 817.101,1802.45 818.191,1802.41 819.281,1802.38 
  820.371,1802.34 821.461,1802.3 822.551,1802.26 823.641,1802.22 824.731,1802.18 825.821,1802.15 826.911,1802.11 828.001,1802.07 829.091,1802.03 830.181,1801.98 
  831.271,1801.94 832.361,1801.9 833.451,1801.86 834.541,1801.82 835.631,1801.77 836.721,1801.73 837.811,1801.69 838.902,1801.64 839.992,1801.6 841.082,1801.55 
  842.172,1801.51 843.262,1801.46 844.352,1801.42 845.442,1801.37 846.532,1801.32 847.622,1801.27 848.712,1801.23 849.802,1801.18 850.892,1801.13 851.982,1801.08 
  853.072,1801.03 854.162,1800.98 855.252,1800.93 856.342,1800.87 857.432,1800.82 858.522,1800.77 859.612,1800.72 860.703,1800.66 861.793,1800.61 862.883,1800.55 
  863.973,1800.5 865.063,1800.44 866.153,1800.38 867.243,1800.33 868.333,1800.27 869.423,1800.21 870.513,1800.15 871.603,1800.09 872.693,1800.03 873.783,1799.97 
  874.873,1799.91 875.963,1799.85 877.053,1799.79 878.143,1799.72 879.233,1799.66 880.323,1799.59 881.414,1799.53 882.504,1799.46 883.594,1799.4 884.684,1799.33 
  885.774,1799.26 886.864,1799.19 887.954,1799.13 889.044,1799.06 890.134,1798.99 891.224,1798.91 892.314,1798.84 893.404,1798.77 894.494,1798.7 895.584,1798.62 
  896.674,1798.55 897.764,1798.47 898.854,1798.4 899.944,1798.32 901.034,1798.24 902.124,1798.16 903.215,1798.08 904.305,1798 905.395,1797.92 906.485,1797.84 
  907.575,1797.76 908.665,1797.67 909.755,1797.59 910.845,1797.51 911.935,1797.42 913.025,1797.33 914.115,1797.25 915.205,1797.16 916.295,1797.07 917.385,1796.98 
  918.475,1796.89 919.565,1796.79 920.655,1796.7 921.745,1796.61 922.835,1796.51 923.926,1796.42 925.016,1796.32 926.106,1796.22 927.196,1796.12 928.286,1796.02 
  929.376,1795.92 930.466,1795.82 931.556,1795.72 932.646,1795.62 933.736,1795.51 934.826,1795.41 935.916,1795.3 937.006,1795.19 938.096,1795.08 939.186,1794.97 
  940.276,1794.86 941.366,1794.75 942.456,1794.64 943.546,1794.52 944.636,1794.41 945.727,1794.29 946.817,1794.17 947.907,1794.05 948.997,1793.93 950.087,1793.81 
  951.177,1793.69 952.267,1793.56 953.357,1793.44 954.447,1793.31 955.537,1793.19 956.627,1793.06 957.717,1792.93 958.807,1792.8 959.897,1792.66 960.987,1792.53 
  962.077,1792.39 963.167,1792.26 964.257,1792.12 965.347,1791.98 966.438,1791.84 967.528,1791.7 968.618,1791.55 969.708,1791.41 970.798,1791.26 971.888,1791.12 
  972.978,1790.97 974.068,1790.82 975.158,1790.66 976.248,1790.51 977.338,1790.35 978.428,1790.2 979.518,1790.04 980.608,1789.88 981.698,1789.72 982.788,1789.56 
  983.878,1789.39 984.968,1789.23 986.058,1789.06 987.148,1788.89 988.239,1788.72 989.329,1788.54 990.419,1788.37 991.509,1788.19 992.599,1788.02 993.689,1787.84 
  994.779,1787.65 995.869,1787.47 996.959,1787.29 998.049,1787.1 999.139,1786.91 1000.23,1786.72 1001.32,1786.53 1002.41,1786.33 1003.5,1786.14 1004.59,1785.94 
  1005.68,1785.74 1006.77,1785.54 1007.86,1785.33 1008.95,1785.13 1010.04,1784.92 1011.13,1784.71 1012.22,1784.5 1013.31,1784.28 1014.4,1784.07 1015.49,1783.85 
  1016.58,1783.63 1017.67,1783.4 1018.76,1783.18 1019.85,1782.95 1020.94,1782.72 1022.03,1782.49 1023.12,1782.26 1024.21,1782.02 1025.3,1781.78 1026.39,1781.54 
  1027.48,1781.3 1028.57,1781.05 1029.66,1780.8 1030.75,1780.55 1031.84,1780.3 1032.93,1780.05 1034.02,1779.79 1035.11,1779.53 1036.2,1779.27 1037.29,1779 
  1038.38,1778.73 1039.47,1778.46 1040.56,1778.19 1041.65,1777.91 1042.74,1777.64 1043.83,1777.35 1044.92,1777.07 1046.01,1776.78 1047.1,1776.49 1048.19,1776.2 
  1049.28,1775.91 1050.37,1775.61 1051.46,1775.31 1052.55,1775.01 1053.64,1774.7 1054.73,1774.39 1055.82,1774.08 1056.91,1773.76 1058,1773.44 1059.09,1773.12 
  1060.18,1772.8 1061.27,1772.47 1062.36,1772.14 1063.45,1771.8 1064.54,1771.46 1065.63,1771.12 1066.72,1770.78 1067.81,1770.43 1068.9,1770.08 1069.99,1769.73 
  1071.08,1769.37 1072.17,1769.01 1073.26,1768.64 1074.35,1768.28 1075.44,1767.91 1076.53,1767.53 1077.62,1767.15 1078.71,1766.77 1079.8,1766.38 1080.89,1765.99 
  1081.98,1765.6 1083.07,1765.2 1084.16,1764.8 1085.25,1764.4 1086.34,1763.99 1087.43,1763.58 1088.52,1763.16 1089.61,1762.74 1090.7,1762.32 1091.79,1761.89 
  1092.88,1761.46 1093.97,1761.02 1095.06,1760.58 1096.15,1760.13 1097.24,1759.68 1098.33,1759.23 1099.42,1758.77 1100.51,1758.31 1101.6,1757.84 1102.69,1757.37 
  1103.78,1756.9 1104.87,1756.42 1105.96,1755.93 1107.05,1755.45 1108.14,1754.95 1109.23,1754.45 1110.32,1753.95 1111.41,1753.44 1112.5,1752.93 1113.59,1752.41 
  1114.68,1751.89 1115.77,1751.37 1116.86,1750.83 1117.95,1750.3 1119.04,1749.75 1120.13,1749.21 1121.22,1748.66 1122.31,1748.1 1123.4,1747.54 1124.49,1746.97 
  1125.58,1746.39 1126.68,1745.82 1127.77,1745.23 1128.86,1744.64 1129.95,1744.05 1131.04,1743.45 1132.13,1742.84 1133.22,1742.23 1134.31,1741.61 1135.4,1740.99 
  1136.49,1740.36 1137.58,1739.73 1138.67,1739.09 1139.76,1738.44 1140.85,1737.79 1141.94,1737.13 1143.03,1736.47 1144.12,1735.8 1145.21,1735.12 1146.3,1734.44 
  1147.39,1733.75 1148.48,1733.05 1149.57,1732.35 1150.66,1731.64 1151.75,1730.93 1152.84,1730.21 1153.93,1729.48 1155.02,1728.74 1156.11,1728 1157.2,1727.25 
  1158.29,1726.5 1159.38,1725.74 1160.47,1724.97 1161.56,1724.19 1162.65,1723.41 1163.74,1722.62 1164.83,1721.82 1165.92,1721.02 1167.01,1720.21 1168.1,1719.39 
  1169.19,1718.56 1170.28,1717.73 1171.37,1716.89 1172.46,1716.04 1173.55,1715.19 1174.64,1714.32 1175.73,1713.45 1176.82,1712.57 1177.91,1711.68 1179,1710.79 
  1180.09,1709.89 1181.18,1708.98 1182.27,1708.06 1183.36,1707.13 1184.45,1706.19 1185.54,1705.25 1186.63,1704.3 1187.72,1703.34 1188.81,1702.37 1189.9,1701.39 
  1190.99,1700.41 1192.08,1699.41 1193.17,1698.41 1194.26,1697.4 1195.35,1696.37 1196.44,1695.34 1197.53,1694.31 1198.62,1693.26 1199.71,1692.2 1200.8,1691.13 
  1201.89,1690.06 1202.98,1688.97 1204.07,1687.88 1205.16,1686.78 1206.25,1685.66 1207.34,1684.54 1208.43,1683.41 1209.52,1682.27 1210.61,1681.11 1211.7,1679.95 
  1212.79,1678.78 1213.88,1677.6 1214.97,1676.41 1216.06,1675.21 1217.15,1673.99 1218.24,1672.77 1219.33,1671.54 1220.42,1670.3 1221.51,1669.04 1222.6,1667.78 
  1223.69,1666.5 1224.78,1665.22 1225.87,1663.92 1226.96,1662.62 1228.05,1661.3 1229.14,1659.97 1230.23,1658.63 1231.32,1657.28 1232.41,1655.92 1233.5,1654.55 
  1234.59,1653.16 1235.68,1651.77 1236.77,1650.36 1237.86,1648.94 1238.95,1647.51 1240.04,1646.07 1241.13,1644.61 1242.22,1643.15 1243.31,1641.67 1244.4,1640.18 
  1245.49,1638.68 1246.58,1637.17 1247.67,1635.64 1248.76,1634.11 1249.85,1632.56 1250.94,1630.99 1252.03,1629.42 1253.12,1627.83 1254.21,1626.23 1255.3,1624.62 
  1256.39,1623 1257.48,1621.36 1258.57,1619.71 1259.66,1618.04 1260.75,1616.37 1261.84,1614.68 1262.93,1612.98 1264.02,1611.26 1265.11,1609.53 1266.2,1607.79 
  1267.29,1606.04 1268.38,1604.27 1269.47,1602.48 1270.56,1600.69 1271.65,1598.88 1272.74,1597.06 1273.83,1595.22 1274.92,1593.37 1276.01,1591.5 1277.1,1589.62 
  1278.19,1587.73 1279.28,1585.83 1280.37,1583.91 1281.46,1581.97 1282.55,1580.02 1283.64,1578.06 1284.73,1576.08 1285.82,1574.09 1286.91,1572.08 1288,1570.06 
  1289.09,1568.02 1290.18,1565.97 1291.27,1563.91 1292.36,1561.83 1293.45,1559.74 1294.54,1557.63 1295.63,1555.5 1296.72,1553.36 1297.81,1551.21 1298.9,1549.04 
  1299.99,1546.85 1301.08,1544.65 1302.17,1542.44 1303.26,1540.21 1304.35,1537.96 1305.44,1535.7 1306.53,1533.43 1307.62,1531.14 1308.71,1528.83 1309.8,1526.51 
  1310.89,1524.17 1311.98,1521.82 1313.07,1519.45 1314.16,1517.06 1315.25,1514.66 1316.34,1512.25 1317.43,1509.81 1318.52,1507.37 1319.61,1504.9 1320.7,1502.42 
  1321.79,1499.93 1322.88,1497.42 1323.97,1494.89 1325.06,1492.35 1326.15,1489.79 1327.24,1487.21 1328.33,1484.62 1329.42,1482.02 1330.51,1479.39 1331.6,1476.75 
  1332.69,1474.1 1333.78,1471.43 1334.87,1468.74 1335.96,1466.04 1337.05,1463.32 1338.14,1460.58 1339.23,1457.83 1340.33,1455.06 1341.42,1452.28 1342.51,1449.48 
  1343.6,1446.66 1344.69,1443.83 1345.78,1440.98 1346.87,1438.11 1347.96,1435.23 1349.05,1432.34 1350.14,1429.42 1351.23,1426.49 1352.32,1423.55 1353.41,1420.59 
  1354.5,1417.61 1355.59,1414.61 1356.68,1411.61 1357.77,1408.58 1358.86,1405.54 1359.95,1402.48 1361.04,1399.41 1362.13,1396.32 1363.22,1393.21 1364.31,1390.09 
  1365.4,1386.95 1366.49,1383.8 1367.58,1380.63 1368.67,1377.45 1369.76,1374.25 1370.85,1371.04 1371.94,1367.81 1373.03,1364.56 1374.12,1361.3 1375.21,1358.02 
  1376.3,1354.73 1377.39,1351.42 1378.48,1348.1 1379.57,1344.76 1380.66,1341.41 1381.75,1338.04 1382.84,1334.66 1383.93,1331.26 1385.02,1327.85 1386.11,1324.42 
  1387.2,1320.98 1388.29,1317.52 1389.38,1314.05 1390.47,1310.57 1391.56,1307.07 1392.65,1303.55 1393.74,1300.03 1394.83,1296.49 1395.92,1292.93 1397.01,1289.36 
  1398.1,1285.78 1399.19,1282.18 1400.28,1278.57 1401.37,1274.95 1402.46,1271.31 1403.55,1267.66 1404.64,1264 1405.73,1260.32 1406.82,1256.63 1407.91,1252.93 
  1409,1249.21 1410.09,1245.49 1411.18,1241.75 1412.27,1237.99 1413.36,1234.23 1414.45,1230.45 1415.54,1226.67 1416.63,1222.87 1417.72,1219.05 1418.81,1215.23 
  1419.9,1211.4 1420.99,1207.55 1422.08,1203.7 1423.17,1199.83 1424.26,1195.95 1425.35,1192.06 1426.44,1188.16 1427.53,1184.25 1428.62,1180.34 1429.71,1176.41 
  1430.8,1172.47 1431.89,1168.52 1432.98,1164.56 1434.07,1160.59 1435.16,1156.61 1436.25,1152.63 1437.34,1148.63 1438.43,1144.63 1439.52,1140.62 1440.61,1136.6 
  1441.7,1132.57 1442.79,1128.53 1443.88,1124.49 1444.97,1120.44 1446.06,1116.38 1447.15,1112.31 1448.24,1108.24 1449.33,1104.16 1450.42,1100.07 1451.51,1095.98 
  1452.6,1091.88 1453.69,1087.77 1454.78,1083.66 1455.87,1079.54 1456.96,1075.42 1458.05,1071.29 1459.14,1067.16 1460.23,1063.02 1461.32,1058.88 1462.41,1054.73 
  1463.5,1050.58 1464.59,1046.42 1465.68,1042.26 1466.77,1038.1 1467.86,1033.93 1468.95,1029.76 1470.04,1025.59 1471.13,1021.41 1472.22,1017.23 1473.31,1013.05 
  1474.4,1008.87 1475.49,1004.68 1476.58,1000.49 1477.67,996.301 1478.76,992.11 1479.85,987.917 1480.94,983.724 1482.03,979.529 1483.12,975.334 1484.21,971.139 
  1485.3,966.943 1486.39,962.747 1487.48,958.552 1488.57,954.357 1489.66,950.162 1490.75,945.968 1491.84,941.776 1492.93,937.585 1494.02,933.395 1495.11,929.207 
  1496.2,925.02 1497.29,920.836 1498.38,916.654 1499.47,912.475 1500.56,908.298 1501.65,904.124 1502.74,899.954 1503.83,895.786 1504.92,891.623 1506.01,887.462 
  1507.1,883.306 1508.19,879.154 1509.28,875.007 1510.37,870.864 1511.46,866.725 1512.55,862.592 1513.64,858.464 1514.73,854.341 1515.82,850.223 1516.91,846.112 
  1518,842.006 1519.09,837.906 1520.18,833.813 1521.27,829.726 1522.36,825.646 1523.45,821.572 1524.54,817.506 1525.63,813.447 1526.72,809.395 1527.81,805.351 
  1528.9,801.315 1529.99,797.287 1531.08,793.267 1532.17,789.255 1533.26,785.252 1534.35,781.257 1535.44,777.271 1536.53,773.294 1537.62,769.326 1538.71,765.368 
  1539.8,761.419 1540.89,757.48 1541.98,753.551 1543.07,749.631 1544.16,745.722 1545.25,741.823 1546.34,737.934 1547.43,734.056 1548.52,730.189 1549.61,726.333 
  1550.7,722.488 1551.79,718.654 1552.88,714.831 1553.98,711.02 1555.07,707.22 1556.16,703.432 1557.25,699.656 1558.34,695.892 1559.43,692.14 1560.52,688.4 
  1561.61,684.673 1562.7,680.958 1563.79,677.256 1564.88,673.567 1565.97,669.89 1567.06,666.227 1568.15,662.577 1569.24,658.939 1570.33,655.316 1571.42,651.705 
  1572.51,648.108 1573.6,644.525 1574.69,640.956 1575.78,637.4 1576.87,633.858 1577.96,630.331 1579.05,626.817 1580.14,623.318 1581.23,619.833 1582.32,616.362 
  1583.41,612.906 1584.5,609.464 1585.59,606.037 1586.68,602.625 1587.77,599.228 1588.86,595.845 1589.95,592.477 1591.04,589.124 1592.13,585.787 1593.22,582.464 
  1594.31,579.157 1595.4,575.865 1596.49,572.588 1597.58,569.327 1598.67,566.081 1599.76,562.85 1600.85,559.635 1601.94,556.435 1603.03,553.252 1604.12,550.083 
  1605.21,546.931 1606.3,543.794 1607.39,540.673 1608.48,537.568 1609.57,534.479 1610.66,531.405 1611.75,528.348 1612.84,525.306 1613.93,522.281 1615.02,519.271 
  1616.11,516.277 1617.2,513.3 1618.29,510.338 1619.38,507.393 1620.47,504.463 1621.56,501.55 1622.65,498.653 1623.74,495.772 1624.83,492.907 1625.92,490.058 
  1627.01,487.226 1628.1,484.409 1629.19,481.609 1630.28,478.825 1631.37,476.057 1632.46,473.305 1633.55,470.569 1634.64,467.849 1635.73,465.146 1636.82,462.458 
  1637.91,459.787 1639,457.132 1640.09,454.493 1641.18,451.87 1642.27,449.263 1643.36,446.672 1644.45,444.097 1645.54,441.538 1646.63,438.995 1647.72,436.468 
  1648.81,433.957 1649.9,431.462 1650.99,428.983 1652.08,426.519 1653.17,424.072 1654.26,421.64 1655.35,419.224 1656.44,416.823 1657.53,414.438 1658.62,412.069 
  1659.71,409.716 1660.8,407.378 1661.89,405.056 1662.98,402.749 1664.07,400.457 1665.16,398.182 1666.25,395.921 1667.34,393.676 1668.43,391.446 1669.52,389.231 
  1670.61,387.031 1671.7,384.847 1672.79,382.678 1673.88,380.523 1674.97,378.384 1676.06,376.26 1677.15,374.151 1678.24,372.056 1679.33,369.976 1680.42,367.911 
  1681.51,365.861 1682.6,363.825 1683.69,361.804 1684.78,359.798 1685.87,357.806 1686.96,355.828 1688.05,353.864 1689.14,351.915 1690.23,349.981 1691.32,348.06 
  1692.41,346.153 1693.5,344.261 1694.59,342.382 1695.68,340.518 1696.77,338.667 1697.86,336.83 1698.95,335.007 1700.04,333.198 1701.13,331.402 1702.22,329.619 
  1703.31,327.851 1704.4,326.095 1705.49,324.353 1706.58,322.624 1707.67,320.909 1708.76,319.206 1709.85,317.517 1710.94,315.841 1712.03,314.178 1713.12,312.527 
  1714.21,310.889 1715.3,309.265 1716.39,307.652 1717.48,306.053 1718.57,304.466 1719.66,302.891 1720.75,301.329 1721.84,299.779 1722.93,298.242 1724.02,296.717 
  1725.11,295.204 1726.2,293.702 1727.29,292.213 1728.38,290.736 1729.47,289.271 1730.56,287.817 1731.65,286.375 1732.74,284.945 1733.83,283.527 1734.92,282.12 
  1736.01,280.724 1737.1,279.34 1738.19,277.967 1739.28,276.605 1740.37,275.254 1741.46,273.915 1742.55,272.586 1743.64,271.269 1744.73,269.962 1745.82,268.666 
  1746.91,267.381 1748,266.107 1749.09,264.843 1750.18,263.589 1751.27,262.346 1752.36,261.114 1753.45,259.892 1754.54,258.68 1755.63,257.478 1756.72,256.287 
  1757.81,255.105 1758.9,253.933 1759.99,252.772 1761.08,251.62 1762.17,250.478 1763.26,249.346 1764.35,248.223 1765.44,247.11 1766.53,246.006 1767.63,244.912 
  1768.72,243.827 1769.81,242.752 1770.9,241.686 1771.99,240.628 1773.08,239.58 1774.17,238.542 1775.26,237.512 1776.35,236.491 1777.44,235.478 1778.53,234.475 
  1779.62,233.48 1780.71,232.494 1781.8,231.517 1782.89,230.548 1783.98,229.588 1785.07,228.636 1786.16,227.692 1787.25,226.757 1788.34,225.829 1789.43,224.91 
  1790.52,223.999 1791.61,223.096 1792.7,222.202 1793.79,221.314 1794.88,220.435 1795.97,219.564 1797.06,218.7 1798.15,217.844 1799.24,216.996 1800.33,216.155 
  1801.42,215.322 1802.51,214.496 1803.6,213.677 1804.69,212.866 1805.78,212.062 1806.87,211.265 1807.96,210.475 1809.05,209.693 1810.14,208.917 1811.23,208.149 
  1812.32,207.387 1813.41,206.632 1814.5,205.884 1815.59,205.143 1816.68,204.409 1817.77,203.681 1818.86,202.959 1819.95,202.245 1821.04,201.536 1822.13,200.835 
  1823.22,200.139 1824.31,199.45 1825.4,198.767 1826.49,198.09 1827.58,197.42 1828.67,196.756 1829.76,196.097 1830.85,195.445 1831.94,194.799 1833.03,194.159 
  1834.12,193.524 1835.21,192.895 1836.3,192.272 1837.39,191.655 1838.48,191.044 1839.57,190.438 1840.66,189.838 1841.75,189.243 1842.84,188.654 1843.93,188.07 
  1845.02,187.491 1846.11,186.918 1847.2,186.35 1848.29,185.788 1849.38,185.231 1850.47,184.678 1851.56,184.131 1852.65,183.589 1853.74,183.053 1854.83,182.521 
  1855.92,181.994 1857.01,181.472 1858.1,180.954 1859.19,180.442 1860.28,179.934 1861.37,179.432 1862.46,178.933 1863.55,178.44 1864.64,177.951 1865.73,177.467 
  1866.82,176.987 1867.91,176.512 1869,176.041 1870.09,175.574 1871.18,175.112 1872.27,174.655 1873.36,174.201 1874.45,173.752 1875.54,173.307 1876.63,172.866 
  1877.72,172.43 1878.81,171.997 1879.9,171.569 1880.99,171.145 1882.08,170.724 1883.17,170.308 1884.26,169.896 1885.35,169.487 1886.44,169.082 1887.53,168.682 
  1888.62,168.285 1889.71,167.891 1890.8,167.502 1891.89,167.116 1892.98,166.734 1894.07,166.355 1895.16,165.98 1896.25,165.609 1897.34,165.241 1898.43,164.876 
  1899.52,164.515 1900.61,164.158 1901.7,163.804 1902.79,163.453 1903.88,163.106 1904.97,162.762 1906.06,162.421 1907.15,162.083 1908.24,161.749 1909.33,161.418 
  1910.42,161.09 1911.51,160.765 1912.6,160.444 1913.69,160.125 1914.78,159.809 1915.87,159.497 1916.96,159.187 1918.05,158.881 1919.14,158.577 1920.23,158.276 
  1921.32,157.978 1922.41,157.683 1923.5,157.391 1924.59,157.102 1925.68,156.815 1926.77,156.531 1927.86,156.25 1928.95,155.972 1930.04,155.696 1931.13,155.423 
  1932.22,155.153 1933.31,154.885 1934.4,154.62 1935.49,154.357 1936.58,154.097 1937.67,153.839 1938.76,153.584 1939.85,153.331 1940.94,153.081 1942.03,152.833 
  1943.12,152.587 1944.21,152.344 1945.3,152.104 1946.39,151.865 1947.48,151.629 1948.57,151.395 1949.66,151.164 1950.75,150.934 1951.84,150.707 1952.93,150.482 
  1954.02,150.259 1955.11,150.039 1956.2,149.82 1957.29,149.604 1958.38,149.39 1959.47,149.178 1960.56,148.968 1961.65,148.759 1962.74,148.553 1963.83,148.349 
  1964.92,148.147 1966.01,147.947 1967.1,147.749 1968.19,147.553 1969.28,147.358 1970.37,147.166 1971.46,146.975 1972.55,146.787 1973.64,146.6 1974.73,146.415 
  1975.82,146.232 1976.91,146.05 1978,145.87 1979.09,145.692 1980.18,145.516 1981.28,145.342 1982.37,145.169 1983.46,144.998 1984.55,144.828 1985.64,144.66 
  1986.73,144.494 1987.82,144.33 1988.91,144.167 1990,144.005 1991.09,143.846 1992.18,143.687 1993.27,143.531 1994.36,143.376 1995.45,143.222 1996.54,143.07 
  1997.63,142.919 1998.72,142.77 1999.81,142.622 2000.9,142.476 2001.99,142.331 2003.08,142.188 2004.17,142.046 2005.26,141.905 2006.35,141.766 2007.44,141.628 
  2008.53,141.491 2009.62,141.356 2010.71,141.222 2011.8,141.09 2012.89,140.958 2013.98,140.828 2015.07,140.7 2016.16,140.572 2017.25,140.446 2018.34,140.321 
  2019.43,140.197 2020.52,140.075 2021.61,139.954 2022.7,139.833 2023.79,139.714 2024.88,139.597 2025.97,139.48 2027.06,139.364 2028.15,139.25 2029.24,139.137 
  2030.33,139.025 2031.42,138.914 2032.51,138.804 2033.6,138.695 2034.69,138.587 2035.78,138.48 2036.87,138.375 2037.96,138.27 2039.05,138.166 2040.14,138.064 
  2041.23,137.962 2042.32,137.862 2043.41,137.762 2044.5,137.663 2045.59,137.566 2046.68,137.469 2047.77,137.373 2048.86,137.279 2049.95,137.185 2051.04,137.092 
  2052.13,137 2053.22,136.909 2054.31,136.818 2055.4,136.729 2056.49,136.641 2057.58,136.553 2058.67,136.466 2059.76,136.38 2060.85,136.295 2061.94,136.211 
  2063.03,136.128 2064.12,136.045 2065.21,135.964 2066.3,135.883 2067.39,135.803 2068.48,135.723 2069.57,135.645 2070.66,135.567 2071.75,135.49 2072.84,135.414 
  2073.93,135.338 2075.02,135.263 2076.11,135.189 2077.2,135.116 2078.29,135.044 2079.38,134.972 2080.47,134.901 2081.56,134.83 2082.65,134.76 2083.74,134.691 
  2084.83,134.623 2085.92,134.555 2087.01,134.488 2088.1,134.422 2089.19,134.356 2090.28,134.291 2091.37,134.227 2092.46,134.163 2093.55,134.1 2094.64,134.037 
  2095.73,133.975 2096.82,133.914 2097.91,133.853 2099,133.793 2100.09,133.734 2101.18,133.675 2102.27,133.617 2103.36,133.559 2104.45,133.502 2105.54,133.445 
  2106.63,133.389 2107.72,133.333 2108.81,133.278 2109.9,133.224 2110.99,133.17 2112.08,133.117 2113.17,133.064 2114.26,133.012 2115.35,132.96 2116.44,132.909 
  2117.53,132.858 2118.62,132.808 2119.71,132.758 2120.8,132.709 2121.89,132.66 2122.98,132.612 2124.07,132.564 2125.16,132.516 2126.25,132.47 2127.34,132.423 
  2128.43,132.377 2129.52,132.332 2130.61,132.287 2131.7,132.242 2132.79,132.198 2133.88,132.154 2134.97,132.111 2136.06,132.068 2137.15,132.026 2138.24,131.984 
  2139.33,131.942 2140.42,131.901 2141.51,131.86 2142.6,131.82 2143.69,131.78 2144.78,131.74 2145.87,131.701 2146.96,131.662 2148.05,131.624 2149.14,131.586 
  2150.23,131.548 2151.32,131.511 2152.41,131.474 2153.5,131.437 2154.59,131.401 2155.68,131.365 2156.77,131.33 2157.86,131.295 2158.95,131.26 2160.04,131.225 
  2161.13,131.191 2162.22,131.157 2163.31,131.124 2164.4,131.091 2165.49,131.058 2166.58,131.026 2167.67,130.994 2168.76,130.962 2169.85,130.93 2170.94,130.899 
  2172.03,130.868 2173.12,130.838 2174.21,130.808 2175.3,130.778 2176.39,130.748 2177.48,130.719 2178.57,130.69 2179.66,130.661 2180.75,130.632 2181.84,130.604 
  2182.93,130.576 2184.02,130.548 2185.11,130.521 2186.2,130.494 2187.29,130.467 2188.38,130.441 2189.47,130.414 2190.56,130.388 2191.65,130.362 2192.74,130.337 
  2193.83,130.312 2194.93,130.287 2196.02,130.262 2197.11,130.237 2198.2,130.213 2199.29,130.189 2200.38,130.165 2201.47,130.141 2202.56,130.118 2203.65,130.095 
  2204.74,130.072 2205.83,130.049 2206.92,130.027 2208.01,130.005 2209.1,129.983 2210.19,129.961 2211.28,129.94 2212.37,129.918 2213.46,129.897 2214.55,129.876 
  2215.64,129.855 2216.73,129.835 2217.82,129.815 2218.91,129.795 2220,129.775 2221.09,129.755 2222.18,129.735 2223.27,129.716 2224.36,129.697 2225.45,129.678 
  2226.54,129.659 2227.63,129.641 2228.72,129.622 2229.81,129.604 2230.9,129.586 2231.99,129.568 2233.08,129.551 2234.17,129.533 2235.26,129.516 2236.35,129.499 
  2237.44,129.482 2238.53,129.465 2239.62,129.448 2240.71,129.432 2241.8,129.416 2242.89,129.399 2243.98,129.383 2245.07,129.368 2246.16,129.352 2247.25,129.336 
  2248.34,129.321 2249.43,129.306 2250.52,129.291 2251.61,129.276 2252.7,129.261 2253.79,129.247 2254.88,129.232 2255.97,129.218 2257.06,129.204 2258.15,129.19 
  2259.24,129.176 2260.33,129.162 2261.42,129.148 2262.51,129.135 2263.6,129.122 2264.69,129.108 2265.78,129.095 2266.87,129.082 2267.96,129.069 2269.05,129.057 
  2270.14,129.044 2271.23,129.032 2272.32,129.019 2273.41,129.007 2274.5,128.995 2275.59,128.983 2276.68,128.971 2277.77,128.96 2278.86,128.948 2279.95,128.936 
  2281.04,128.925 2282.13,128.914 2283.22,128.903 2284.31,128.892 2285.4,128.881 2286.49,128.87 2287.58,128.859 2288.67,128.849 2289.76,128.838 2290.85,128.828 
  2291.94,128.817 2293.03,128.807 2294.12,128.797 2295.21,128.787 2296.3,128.777 2297.39,128.767 2298.48,128.758 2299.57,128.748 2300.66,128.739 2301.75,128.729 
  2302.84,128.72 2303.93,128.711 2305.02,128.701 2306.11,128.692 2307.2,128.683 2308.29,128.675 2309.38,128.666 2310.47,128.657 2311.56,128.649 2312.65,128.64 
  2313.74,128.632 2314.83,128.623 2315.92,128.615 2317.01,128.607 2318.1,128.599 2319.19,128.591 2320.28,128.583 2321.37,128.575 2322.46,128.567 2323.55,128.559 
  2324.64,128.552 2325.73,128.544 2326.82,128.537 2327.91,128.529 2329,128.522 2330.09,128.515 2331.18,128.508 2332.27,128.5 2333.36,128.493 2334.45,128.486 
  2335.54,128.48 2336.63,128.473 2337.72,128.466 2338.81,128.459 2339.9,128.453 2340.99,128.446 2342.08,128.439 2343.17,128.433 2344.26,128.427 2345.35,128.42 
  2346.44,128.414 2347.53,128.408 2348.62,128.402 2349.71,128.396 2350.8,128.39 2351.89,128.384 2352.98,128.378 2354.07,128.372 2355.16,128.366 2356.25,128.361 
  2357.34,128.355 2358.43,128.349 2359.52,128.344 2360.61,128.338 2361.7,128.333 2362.79,128.328 2363.88,128.322 2364.97,128.317 2366.06,128.312 2367.15,128.307 
  2368.24,128.301 2369.33,128.296 2370.42,128.291 2371.51,128.286 2372.6,128.281 2373.69,128.277 2374.78,128.272 2375.87,128.267 2376.96,128.262 2378.05,128.258 
  2379.14,128.253 2380.23,128.248 2381.32,128.244 2382.41,128.239 2383.5,128.235 2384.59,128.23 2385.68,128.226 2386.77,128.222 2387.86,128.218 2388.95,128.213 
  2390.04,128.209 2391.13,128.205 2392.22,128.201 2393.31,128.197 2394.4,128.193 2395.49,128.189 2396.58,128.185 2397.67,128.181 2398.76,128.177 2399.85,128.173 
  2400.94,128.169 2402.03,128.166 2403.12,128.162 2404.21,128.158 2405.3,128.155 2406.39,128.151 2407.48,128.147 2408.58,128.144 2409.67,128.14 2410.76,128.137 
  2411.85,128.134 2412.94,128.13 2414.03,128.127 2415.12,128.123 2416.21,128.12 2417.3,128.117 2418.39,128.114 2419.48,128.11 2420.57,128.107 2421.66,128.104 
  2422.75,128.101 2423.84,128.098 2424.93,128.095 2426.02,128.092 2427.11,128.089 2428.2,128.086 2429.29,128.083 2430.38,128.08 2431.47,128.077 2432.56,128.074 
  2433.65,128.072 2434.74,128.069 2435.83,128.066 2436.92,128.063 2438.01,128.061 2439.1,128.058 2440.19,128.055 2441.28,128.053 2442.37,128.05 2443.46,128.048 
  2444.55,128.045 2445.64,128.043 2446.73,128.04 2447.82,128.038 2448.91,128.035 2450,128.033 2451.09,128.03 2452.18,128.028 2453.27,128.026 2454.36,128.023 
  2455.45,128.021 2456.54,128.019 2457.63,128.016 2458.72,128.014 2459.81,128.012 2460.9,128.01 2461.99,128.008 2463.08,128.006 2464.17,128.003 2465.26,128.001 
  2466.35,127.999 2467.44,127.997 2468.53,127.995 2469.62,127.993 2470.71,127.991 2471.8,127.989 2472.89,127.987 2473.98,127.985 2475.07,127.983 2476.16,127.981 
  2477.25,127.98 2478.34,127.978 2479.43,127.976 2480.52,127.974 2481.61,127.972 2482.7,127.97 2483.79,127.969 2484.88,127.967 2485.97,127.965 2487.06,127.963 
  2488.15,127.962 2489.24,127.96 2490.33,127.958 2491.42,127.957 2492.51,127.955 2493.6,127.953 2494.69,127.952 2495.78,127.95 2496.87,127.949 2497.96,127.947 
  2499.05,127.946 2500.14,127.944 2501.23,127.943 2502.32,127.941 2503.41,127.94 2504.5,127.938 2505.59,127.937 2506.68,127.935 2507.77,127.934 2508.86,127.932 
  2509.95,127.931 2511.04,127.93 2512.13,127.928 2513.22,127.927 2514.31,127.926 2515.4,127.924 2516.49,127.923 2517.58,127.922 2518.67,127.92 2519.76,127.919 
  2520.85,127.918 2521.94,127.916 2523.03,127.915 2524.12,127.914 2525.21,127.913 2526.3,127.912 2527.39,127.91 2528.48,127.909 2529.57,127.908 2530.66,127.907 
  2531.75,127.906 2532.84,127.905 2533.93,127.904 2535.02,127.902 2536.11,127.901 2537.2,127.9 2538.29,127.899 2539.38,127.898 2540.47,127.897 2541.56,127.896 
  2542.65,127.895 2543.74,127.894 2544.83,127.893 2545.92,127.892 2547.01,127.891 2548.1,127.89 2549.19,127.889 2550.28,127.888 2551.37,127.887 2552.46,127.886 
  2553.55,127.885 2554.64,127.884 2555.73,127.883 2556.82,127.882 2557.91,127.882 2559,127.881 2560.09,127.88 2561.18,127.879 2562.27,127.878 2563.36,127.877 
  2564.45,127.876 2565.54,127.875 2566.63,127.875 2567.72,127.874 2568.81,127.873 2569.9,127.872 2570.99,127.871 2572.08,127.871 2573.17,127.87 2574.26,127.869 
  2575.35,127.868 
  "/>
</svg>
