<?xml version="1.0" encoding="utf-8"?>
<svg xmlns="http://www.w3.org/2000/svg" xmlns:xlink="http://www.w3.org/1999/xlink" width="960" height="480" viewBox="0 0 3840 1920">
<defs>
  <clipPath id="clip080">
    <rect x="0" y="0" width="3840" height="1920"/>
  </clipPath>
</defs>
<path clip-path="url(#clip080)" d="
M0 1920 L3840 1920 L3840 0 L0 0  Z
  " fill="#ffffff" fill-rule="evenodd" fill-opacity="1"/>
<defs>
  <clipPath id="clip081">
    <rect x="768" y="0" width="2689" height="1920"/>
  </clipPath>
</defs>
<path clip-path="url(#clip080)" d="
M47.2441 1872.76 L3792.76 1872.76 L3792.76 108.352 L47.2441 108.352  Z
  " fill="#ffffff" fill-rule="evenodd" fill-opacity="1"/>
<defs>
  <clipPath id="clip082">
    <rect x="47" y="108" width="3747" height="1765"/>
  </clipPath>
</defs>
<polyline clip-path="url(#clip080)" style="stroke:#000000; stroke-linecap:round; stroke-linejoin:round; stroke-width:4; stroke-opacity:1; fill:none" points="
  47.2441,1872.76 3792.76,1872.76 
  "/>
<polyline clip-path="url(#clip080)" style="stroke:#000000; stroke-linecap:round; stroke-linejoin:round; stroke-width:4; stroke-opacity:1; fill:none" points="
  47.2441,1872.76 47.2441,108.352 
  "/>
<path clip-path="url(#clip080)" d="M1354.21 16.7545 L1354.21 25.383 Q1350.08 21.5346 1345.38 19.6307 Q1340.72 17.7268 1335.45 17.7268 Q1325.08 17.7268 1319.57 24.0867 Q1314.07 30.4061 1314.07 42.3968 Q1314.07 54.3469 1319.57 60.7069 Q1325.08 67.0263 1335.45 67.0263 Q1340.72 67.0263 1345.38 65.1223 Q1350.08 63.2184 1354.21 59.3701 L1354.21 67.9175 Q1349.92 70.8341 1345.1 72.2924 Q1340.32 73.7508 1334.97 73.7508 Q1321.24 73.7508 1313.34 65.3654 Q1305.44 56.9395 1305.44 42.3968 Q1305.44 27.8135 1313.34 19.4281 Q1321.24 11.0023 1334.97 11.0023 Q1340.4 11.0023 1345.18 12.4606 Q1350 13.8784 1354.21 16.7545 Z" fill="#000000" fill-rule="evenodd" fill-opacity="1" /><path clip-path="url(#clip080)" d="M1384.11 32.4315 Q1378.11 32.4315 1374.63 37.1306 Q1371.14 41.7891 1371.14 49.9314 Q1371.14 58.0738 1374.59 62.7728 Q1378.07 67.4314 1384.11 67.4314 Q1390.06 67.4314 1393.54 62.7323 Q1397.03 58.0333 1397.03 49.9314 Q1397.03 41.8701 1393.54 37.1711 Q1390.06 32.4315 1384.11 32.4315 M1384.11 26.1121 Q1393.83 26.1121 1399.38 32.4315 Q1404.93 38.7509 1404.93 49.9314 Q1404.93 61.0714 1399.38 67.4314 Q1393.83 73.7508 1384.11 73.7508 Q1374.34 73.7508 1368.79 67.4314 Q1363.28 61.0714 1363.28 49.9314 Q1363.28 38.7509 1368.79 32.4315 Q1374.34 26.1121 1384.11 26.1121 Z" fill="#000000" fill-rule="evenodd" fill-opacity="1" /><path clip-path="url(#clip080)" d="M1452.61 35.9153 Q1455.4 30.8922 1459.29 28.5022 Q1463.18 26.1121 1468.45 26.1121 Q1475.53 26.1121 1479.38 31.0947 Q1483.23 36.0368 1483.23 45.1919 L1483.23 72.576 L1475.74 72.576 L1475.74 45.4349 Q1475.74 38.913 1473.43 35.7533 Q1471.12 32.5936 1466.38 32.5936 Q1460.59 32.5936 1457.22 36.4419 Q1453.86 40.2903 1453.86 46.9338 L1453.86 72.576 L1446.37 72.576 L1446.37 45.4349 Q1446.37 38.8725 1444.06 35.7533 Q1441.75 32.5936 1436.93 32.5936 Q1431.22 32.5936 1427.86 36.4824 Q1424.49 40.3308 1424.49 46.9338 L1424.49 72.576 L1417 72.576 L1417 27.2059 L1424.49 27.2059 L1424.49 34.2544 Q1427.05 30.082 1430.61 28.0971 Q1434.18 26.1121 1439.08 26.1121 Q1444.02 26.1121 1447.46 28.6237 Q1450.95 31.1352 1452.61 35.9153 Z" fill="#000000" fill-rule="evenodd" fill-opacity="1" /><path clip-path="url(#clip080)" d="M1533.42 35.9153 Q1536.22 30.8922 1540.11 28.5022 Q1544 26.1121 1549.26 26.1121 Q1556.35 26.1121 1560.2 31.0947 Q1564.05 36.0368 1564.05 45.1919 L1564.05 72.576 L1556.55 72.576 L1556.55 45.4349 Q1556.55 38.913 1554.24 35.7533 Q1551.93 32.5936 1547.2 32.5936 Q1541.4 32.5936 1538.04 36.4419 Q1534.68 40.2903 1534.68 46.9338 L1534.68 72.576 L1527.18 72.576 L1527.18 45.4349 Q1527.18 38.8725 1524.87 35.7533 Q1522.57 32.5936 1517.75 32.5936 Q1512.03 32.5936 1508.67 36.4824 Q1505.31 40.3308 1505.31 46.9338 L1505.31 72.576 L1497.81 72.576 L1497.81 27.2059 L1505.31 27.2059 L1505.31 34.2544 Q1507.86 30.082 1511.43 28.0971 Q1514.99 26.1121 1519.89 26.1121 Q1524.83 26.1121 1528.28 28.6237 Q1531.76 31.1352 1533.42 35.9153 Z" fill="#000000" fill-rule="evenodd" fill-opacity="1" /><path clip-path="url(#clip080)" d="M1596.49 32.4315 Q1590.5 32.4315 1587.02 37.1306 Q1583.53 41.7891 1583.53 49.9314 Q1583.53 58.0738 1586.98 62.7728 Q1590.46 67.4314 1596.49 67.4314 Q1602.45 67.4314 1605.93 62.7323 Q1609.42 58.0333 1609.42 49.9314 Q1609.42 41.8701 1605.93 37.1711 Q1602.45 32.4315 1596.49 32.4315 M1596.49 26.1121 Q1606.22 26.1121 1611.77 32.4315 Q1617.32 38.7509 1617.32 49.9314 Q1617.32 61.0714 1611.77 67.4314 Q1606.22 73.7508 1596.49 73.7508 Q1586.73 73.7508 1581.18 67.4314 Q1575.67 61.0714 1575.67 49.9314 Q1575.67 38.7509 1581.18 32.4315 Q1586.73 26.1121 1596.49 26.1121 Z" fill="#000000" fill-rule="evenodd" fill-opacity="1" /><path clip-path="url(#clip080)" d="M1667.39 45.1919 L1667.39 72.576 L1659.93 72.576 L1659.93 45.4349 Q1659.93 38.994 1657.42 35.7938 Q1654.91 32.5936 1649.89 32.5936 Q1643.85 32.5936 1640.37 36.4419 Q1636.88 40.2903 1636.88 46.9338 L1636.88 72.576 L1629.39 72.576 L1629.39 27.2059 L1636.88 27.2059 L1636.88 34.2544 Q1639.56 30.163 1643.16 28.1376 Q1646.81 26.1121 1651.55 26.1121 Q1659.36 26.1121 1663.38 30.9732 Q1667.39 35.7938 1667.39 45.1919 Z" fill="#000000" fill-rule="evenodd" fill-opacity="1" /><path clip-path="url(#clip080)" d="M1729.16 20.1573 L1718.06 50.2555 L1740.3 50.2555 L1729.16 20.1573 M1724.54 12.096 L1733.82 12.096 L1756.87 72.576 L1748.36 72.576 L1742.85 57.061 L1715.59 57.061 L1710.08 72.576 L1701.45 72.576 L1724.54 12.096 Z" fill="#000000" fill-rule="evenodd" fill-opacity="1" /><path clip-path="url(#clip080)" d="M1796.57 28.9478 L1796.57 35.9153 Q1793.41 34.1734 1790.21 33.3227 Q1787.05 32.4315 1783.81 32.4315 Q1776.56 32.4315 1772.55 37.0496 Q1768.54 41.6271 1768.54 49.9314 Q1768.54 58.2358 1772.55 62.8538 Q1776.56 67.4314 1783.81 67.4314 Q1787.05 67.4314 1790.21 66.5807 Q1793.41 65.6895 1796.57 63.9476 L1796.57 70.8341 Q1793.45 72.2924 1790.09 73.0216 Q1786.77 73.7508 1783 73.7508 Q1772.75 73.7508 1766.71 67.3098 Q1760.68 60.8689 1760.68 49.9314 Q1760.68 38.832 1766.75 32.472 Q1772.87 26.1121 1783.48 26.1121 Q1786.93 26.1121 1790.21 26.8413 Q1793.49 27.5299 1796.57 28.9478 Z" fill="#000000" fill-rule="evenodd" fill-opacity="1" /><path clip-path="url(#clip080)" d="M1816.9 14.324 L1816.9 27.2059 L1832.26 27.2059 L1832.26 32.9987 L1816.9 32.9987 L1816.9 57.6282 Q1816.9 63.1779 1818.4 64.7578 Q1819.94 66.3376 1824.6 66.3376 L1832.26 66.3376 L1832.26 72.576 L1824.6 72.576 Q1815.97 72.576 1812.69 69.3758 Q1809.41 66.1351 1809.41 57.6282 L1809.41 32.9987 L1803.94 32.9987 L1803.94 27.2059 L1809.41 27.2059 L1809.41 14.324 L1816.9 14.324 Z" fill="#000000" fill-rule="evenodd" fill-opacity="1" /><path clip-path="url(#clip080)" d="M1842.06 27.2059 L1849.51 27.2059 L1849.51 72.576 L1842.06 72.576 L1842.06 27.2059 M1842.06 9.54393 L1849.51 9.54393 L1849.51 18.9825 L1842.06 18.9825 L1842.06 9.54393 Z" fill="#000000" fill-rule="evenodd" fill-opacity="1" /><path clip-path="url(#clip080)" d="M1859.76 27.2059 L1867.66 27.2059 L1881.84 65.2844 L1896.02 27.2059 L1903.92 27.2059 L1886.9 72.576 L1876.78 72.576 L1859.76 27.2059 Z" fill="#000000" fill-rule="evenodd" fill-opacity="1" /><path clip-path="url(#clip080)" d="M1934.83 49.7694 Q1925.79 49.7694 1922.31 51.8354 Q1918.83 53.9013 1918.83 58.8839 Q1918.83 62.8538 1921.42 65.2034 Q1924.05 67.5124 1928.55 67.5124 Q1934.75 67.5124 1938.47 63.1374 Q1942.24 58.7219 1942.24 51.4303 L1942.24 49.7694 L1934.83 49.7694 M1949.69 46.6907 L1949.69 72.576 L1942.24 72.576 L1942.24 65.6895 Q1939.69 69.8214 1935.88 71.8063 Q1932.07 73.7508 1926.56 73.7508 Q1919.59 73.7508 1915.46 69.8619 Q1911.37 65.9325 1911.37 59.3701 Q1911.37 51.7138 1916.48 47.825 Q1921.62 43.9361 1931.79 43.9361 L1942.24 43.9361 L1942.24 43.2069 Q1942.24 38.0623 1938.84 35.2672 Q1935.47 32.4315 1929.36 32.4315 Q1925.47 32.4315 1921.78 33.3632 Q1918.1 34.295 1914.69 36.1584 L1914.69 29.2718 Q1918.78 27.692 1922.63 26.9223 Q1926.48 26.1121 1930.13 26.1121 Q1939.97 26.1121 1944.83 31.2163 Q1949.69 36.3204 1949.69 46.6907 Z" fill="#000000" fill-rule="evenodd" fill-opacity="1" /><path clip-path="url(#clip080)" d="M1972.42 14.324 L1972.42 27.2059 L1987.77 27.2059 L1987.77 32.9987 L1972.42 32.9987 L1972.42 57.6282 Q1972.42 63.1779 1973.92 64.7578 Q1975.46 66.3376 1980.12 66.3376 L1987.77 66.3376 L1987.77 72.576 L1980.12 72.576 Q1971.49 72.576 1968.21 69.3758 Q1964.92 66.1351 1964.92 57.6282 L1964.92 32.9987 L1959.46 32.9987 L1959.46 27.2059 L1964.92 27.2059 L1964.92 14.324 L1972.42 14.324 Z" fill="#000000" fill-rule="evenodd" fill-opacity="1" /><path clip-path="url(#clip080)" d="M1997.57 27.2059 L2005.03 27.2059 L2005.03 72.576 L1997.57 72.576 L1997.57 27.2059 M1997.57 9.54393 L2005.03 9.54393 L2005.03 18.9825 L1997.57 18.9825 L1997.57 9.54393 Z" fill="#000000" fill-rule="evenodd" fill-opacity="1" /><path clip-path="url(#clip080)" d="M2038.21 32.4315 Q2032.21 32.4315 2028.73 37.1306 Q2025.24 41.7891 2025.24 49.9314 Q2025.24 58.0738 2028.69 62.7728 Q2032.17 67.4314 2038.21 67.4314 Q2044.16 67.4314 2047.64 62.7323 Q2051.13 58.0333 2051.13 49.9314 Q2051.13 41.8701 2047.64 37.1711 Q2044.16 32.4315 2038.21 32.4315 M2038.21 26.1121 Q2047.93 26.1121 2053.48 32.4315 Q2059.03 38.7509 2059.03 49.9314 Q2059.03 61.0714 2053.48 67.4314 Q2047.93 73.7508 2038.21 73.7508 Q2028.44 73.7508 2022.89 67.4314 Q2017.38 61.0714 2017.38 49.9314 Q2017.38 38.7509 2022.89 32.4315 Q2028.44 26.1121 2038.21 26.1121 Z" fill="#000000" fill-rule="evenodd" fill-opacity="1" /><path clip-path="url(#clip080)" d="M2109.1 45.1919 L2109.1 72.576 L2101.64 72.576 L2101.64 45.4349 Q2101.64 38.994 2099.13 35.7938 Q2096.62 32.5936 2091.6 32.5936 Q2085.56 32.5936 2082.08 36.4419 Q2078.59 40.2903 2078.59 46.9338 L2078.59 72.576 L2071.1 72.576 L2071.1 27.2059 L2078.59 27.2059 L2078.59 34.2544 Q2081.27 30.163 2084.87 28.1376 Q2088.52 26.1121 2093.26 26.1121 Q2101.08 26.1121 2105.09 30.9732 Q2109.1 35.7938 2109.1 45.1919 Z" fill="#000000" fill-rule="evenodd" fill-opacity="1" /><path clip-path="url(#clip080)" d="M2150.66 12.096 L2185.42 12.096 L2185.42 18.9825 L2158.84 18.9825 L2158.84 36.8065 L2182.82 36.8065 L2182.82 43.6931 L2158.84 43.6931 L2158.84 72.576 L2150.66 72.576 L2150.66 12.096 Z" fill="#000000" fill-rule="evenodd" fill-opacity="1" /><path clip-path="url(#clip080)" d="M2192.75 54.671 L2192.75 27.2059 L2200.2 27.2059 L2200.2 54.3874 Q2200.2 60.8284 2202.71 64.0691 Q2205.22 67.2693 2210.25 67.2693 Q2216.28 67.2693 2219.77 63.421 Q2223.29 59.5726 2223.29 52.9291 L2223.29 27.2059 L2230.74 27.2059 L2230.74 72.576 L2223.29 72.576 L2223.29 65.6084 Q2220.58 69.7404 2216.97 71.7658 Q2213.41 73.7508 2208.67 73.7508 Q2200.85 73.7508 2196.8 68.8897 Q2192.75 64.0286 2192.75 54.671 M2211.5 26.1121 L2211.5 26.1121 Z" fill="#000000" fill-rule="evenodd" fill-opacity="1" /><path clip-path="url(#clip080)" d="M2283.81 45.1919 L2283.81 72.576 L2276.36 72.576 L2276.36 45.4349 Q2276.36 38.994 2273.85 35.7938 Q2271.33 32.5936 2266.31 32.5936 Q2260.28 32.5936 2256.79 36.4419 Q2253.31 40.2903 2253.31 46.9338 L2253.31 72.576 L2245.81 72.576 L2245.81 27.2059 L2253.31 27.2059 L2253.31 34.2544 Q2255.98 30.163 2259.59 28.1376 Q2263.23 26.1121 2267.97 26.1121 Q2275.79 26.1121 2279.8 30.9732 Q2283.81 35.7938 2283.81 45.1919 Z" fill="#000000" fill-rule="evenodd" fill-opacity="1" /><path clip-path="url(#clip080)" d="M2331.33 28.9478 L2331.33 35.9153 Q2328.17 34.1734 2324.97 33.3227 Q2321.81 32.4315 2318.57 32.4315 Q2311.32 32.4315 2307.31 37.0496 Q2303.3 41.6271 2303.3 49.9314 Q2303.3 58.2358 2307.31 62.8538 Q2311.32 67.4314 2318.57 67.4314 Q2321.81 67.4314 2324.97 66.5807 Q2328.17 65.6895 2331.33 63.9476 L2331.33 70.8341 Q2328.21 72.2924 2324.85 73.0216 Q2321.53 73.7508 2317.76 73.7508 Q2307.51 73.7508 2301.47 67.3098 Q2295.44 60.8689 2295.44 49.9314 Q2295.44 38.832 2301.51 32.472 Q2307.63 26.1121 2318.24 26.1121 Q2321.69 26.1121 2324.97 26.8413 Q2328.25 27.5299 2331.33 28.9478 Z" fill="#000000" fill-rule="evenodd" fill-opacity="1" /><path clip-path="url(#clip080)" d="M2351.66 14.324 L2351.66 27.2059 L2367.02 27.2059 L2367.02 32.9987 L2351.66 32.9987 L2351.66 57.6282 Q2351.66 63.1779 2353.16 64.7578 Q2354.7 66.3376 2359.36 66.3376 L2367.02 66.3376 L2367.02 72.576 L2359.36 72.576 Q2350.73 72.576 2347.45 69.3758 Q2344.17 66.1351 2344.17 57.6282 L2344.17 32.9987 L2338.7 32.9987 L2338.7 27.2059 L2344.17 27.2059 L2344.17 14.324 L2351.66 14.324 Z" fill="#000000" fill-rule="evenodd" fill-opacity="1" /><path clip-path="url(#clip080)" d="M2376.82 27.2059 L2384.27 27.2059 L2384.27 72.576 L2376.82 72.576 L2376.82 27.2059 M2376.82 9.54393 L2384.27 9.54393 L2384.27 18.9825 L2376.82 18.9825 L2376.82 9.54393 Z" fill="#000000" fill-rule="evenodd" fill-opacity="1" /><path clip-path="url(#clip080)" d="M2417.45 32.4315 Q2411.46 32.4315 2407.97 37.1306 Q2404.49 41.7891 2404.49 49.9314 Q2404.49 58.0738 2407.93 62.7728 Q2411.42 67.4314 2417.45 67.4314 Q2423.41 67.4314 2426.89 62.7323 Q2430.37 58.0333 2430.37 49.9314 Q2430.37 41.8701 2426.89 37.1711 Q2423.41 32.4315 2417.45 32.4315 M2417.45 26.1121 Q2427.17 26.1121 2432.72 32.4315 Q2438.27 38.7509 2438.27 49.9314 Q2438.27 61.0714 2432.72 67.4314 Q2427.17 73.7508 2417.45 73.7508 Q2407.69 73.7508 2402.14 67.4314 Q2396.63 61.0714 2396.63 49.9314 Q2396.63 38.7509 2402.14 32.4315 Q2407.69 26.1121 2417.45 26.1121 Z" fill="#000000" fill-rule="evenodd" fill-opacity="1" /><path clip-path="url(#clip080)" d="M2488.34 45.1919 L2488.34 72.576 L2480.89 72.576 L2480.89 45.4349 Q2480.89 38.994 2478.38 35.7938 Q2475.87 32.5936 2470.84 32.5936 Q2464.81 32.5936 2461.32 36.4419 Q2457.84 40.2903 2457.84 46.9338 L2457.84 72.576 L2450.34 72.576 L2450.34 27.2059 L2457.84 27.2059 L2457.84 34.2544 Q2460.51 30.163 2464.12 28.1376 Q2467.76 26.1121 2472.5 26.1121 Q2480.32 26.1121 2484.33 30.9732 Q2488.34 35.7938 2488.34 45.1919 Z" fill="#000000" fill-rule="evenodd" fill-opacity="1" /><path clip-path="url(#clip080)" d="M2532.13 28.5427 L2532.13 35.5912 Q2528.97 33.9709 2525.57 33.1607 Q2522.17 32.3505 2518.52 32.3505 Q2512.97 32.3505 2510.18 34.0519 Q2507.42 35.7533 2507.42 39.156 Q2507.42 41.7486 2509.41 43.2475 Q2511.39 44.7058 2517.39 46.0426 L2519.94 46.6097 Q2527.88 48.3111 2531.2 51.4303 Q2534.56 54.509 2534.56 60.0587 Q2534.56 66.3781 2529.54 70.0644 Q2524.56 73.7508 2515.81 73.7508 Q2512.16 73.7508 2508.19 73.0216 Q2504.26 72.3329 2499.89 70.9151 L2499.89 63.2184 Q2504.02 65.3654 2508.03 66.4591 Q2512.04 67.5124 2515.97 67.5124 Q2521.24 67.5124 2524.07 65.73 Q2526.91 63.9071 2526.91 60.6258 Q2526.91 57.5877 2524.84 55.9673 Q2522.82 54.3469 2515.89 52.8481 L2513.3 52.2405 Q2506.37 50.7821 2503.29 47.7845 Q2500.21 44.7463 2500.21 39.4801 Q2500.21 33.0797 2504.75 29.5959 Q2509.29 26.1121 2517.63 26.1121 Q2521.76 26.1121 2525.41 26.7198 Q2529.05 27.3274 2532.13 28.5427 Z" fill="#000000" fill-rule="evenodd" fill-opacity="1" /><polyline clip-path="url(#clip082)" style="stroke:#009af9; stroke-linecap:round; stroke-linejoin:round; stroke-width:4; stroke-opacity:1; fill:none" points="
  153.249,1214.5 162.083,1213.91 170.917,1213.31 179.75,1212.71 188.584,1212.11 197.418,1211.5 206.252,1210.88 215.085,1210.26 223.919,1209.64 232.753,1209.01 
  241.587,1208.38 250.42,1207.74 259.254,1207.1 268.088,1206.45 276.922,1205.8 285.755,1205.14 294.589,1204.48 303.423,1203.81 312.257,1203.14 321.09,1202.46 
  329.924,1201.78 338.758,1201.1 347.592,1200.41 356.425,1199.71 365.259,1199.01 374.093,1198.3 382.927,1197.59 391.761,1196.88 400.594,1196.16 409.428,1195.43 
  418.262,1194.7 427.096,1193.96 435.929,1193.22 444.763,1192.48 453.597,1191.72 462.431,1190.97 471.264,1190.21 480.098,1189.44 488.932,1188.67 497.766,1187.89 
  506.599,1187.11 515.433,1186.32 524.267,1185.53 533.101,1184.73 541.934,1183.93 550.768,1183.12 559.602,1182.31 568.436,1181.49 577.269,1180.66 586.103,1179.83 
  594.937,1179 603.771,1178.16 612.604,1177.31 621.438,1176.46 630.272,1175.6 639.106,1174.74 647.939,1173.88 656.773,1173 665.607,1172.13 674.441,1171.24 
  683.274,1170.35 692.108,1169.46 700.942,1168.56 709.776,1167.66 718.609,1166.75 727.443,1165.83 736.277,1164.91 745.111,1163.98 753.944,1163.05 762.778,1162.12 
  771.612,1161.17 780.446,1160.23 789.279,1159.27 798.113,1158.31 806.947,1157.35 815.781,1156.38 824.614,1155.41 833.448,1154.43 842.282,1153.44 851.116,1152.45 
  859.949,1151.45 868.783,1150.45 877.617,1149.44 886.451,1148.43 895.285,1147.41 904.118,1146.39 912.952,1145.36 921.786,1144.33 930.62,1143.29 939.453,1142.24 
  948.287,1141.2 957.121,1140.14 965.955,1139.08 974.788,1138.01 983.622,1136.94 992.456,1135.87 1001.29,1134.79 1010.12,1133.7 1018.96,1132.61 1027.79,1131.51 
  1036.62,1130.41 1045.46,1129.31 1054.29,1128.19 1063.13,1127.08 1071.96,1125.95 1080.79,1124.83 1089.63,1123.7 1098.46,1122.56 1107.29,1121.42 1116.13,1120.27 
  1124.96,1119.12 1133.8,1117.96 1142.63,1116.8 1151.46,1115.64 1160.3,1114.46 1169.13,1113.29 1177.96,1112.11 1186.8,1110.92 1195.63,1109.73 1204.47,1108.54 
  1213.3,1107.34 1222.13,1106.14 1230.97,1104.93 1239.8,1103.72 1248.63,1102.5 1257.47,1101.28 1266.3,1100.05 1275.14,1098.82 1283.97,1097.59 1292.8,1096.35 
  1301.64,1095.11 1310.47,1093.86 1319.3,1092.61 1328.14,1091.35 1336.97,1090.09 1345.81,1088.83 1354.64,1087.56 1363.47,1086.29 1372.31,1085.01 1381.14,1083.73 
  1389.97,1082.45 1398.81,1081.17 1407.64,1079.87 1416.48,1078.58 1425.31,1077.28 1434.14,1075.98 1442.98,1074.68 1451.81,1073.37 1460.64,1072.06 1469.48,1070.74 
  1478.31,1069.43 1487.15,1068.1 1495.98,1066.78 1504.81,1065.45 1513.65,1064.12 1522.48,1062.79 1531.31,1061.45 1540.15,1060.11 1548.98,1058.77 1557.82,1057.42 
  1566.65,1056.08 1575.48,1054.72 1584.32,1053.37 1593.15,1052.02 1601.98,1050.66 1610.82,1049.3 1619.65,1047.93 1628.49,1046.57 1637.32,1045.2 1646.15,1043.83 
  1654.99,1042.46 1663.82,1041.09 1672.65,1039.71 1681.49,1038.33 1690.32,1036.95 1699.16,1035.57 1707.99,1034.19 1716.82,1032.8 1725.66,1031.42 1734.49,1030.03 
  1743.32,1028.64 1752.16,1027.25 1760.99,1025.86 1769.83,1024.46 1778.66,1023.07 1787.49,1021.67 1796.33,1020.28 1805.16,1018.88 1813.99,1017.48 1822.83,1016.08 
  1831.66,1014.68 1840.5,1013.28 1849.33,1011.88 1858.16,1010.48 1867,1009.08 1875.83,1007.67 1884.66,1006.27 1893.5,1004.87 1902.33,1003.46 1911.17,1002.06 
  1920,1000.65 1928.83,999.251 1937.67,997.847 1946.5,996.443 1955.34,995.04 1964.17,993.636 1973,992.234 1981.84,990.831 1990.67,989.429 1999.5,988.028 
  2008.34,986.627 2017.17,985.227 2026.01,983.828 2034.84,982.429 2043.67,981.031 2052.51,979.635 2061.34,978.239 2070.17,976.845 2079.01,975.452 2087.84,974.06 
  2096.68,972.669 2105.51,971.28 2114.34,969.892 2123.18,968.506 2132.01,967.121 2140.84,965.738 2149.68,964.356 2158.51,962.977 2167.35,961.599 2176.18,960.223 
  2185.01,958.849 2193.85,957.478 2202.68,956.108 2211.51,954.74 2220.35,953.375 2229.18,952.012 2238.02,950.652 2246.85,949.293 2255.68,947.938 2264.52,946.584 
  2273.35,945.234 2282.18,943.886 2291.02,942.541 2299.85,941.198 2308.69,939.859 2317.52,938.522 2326.35,937.188 2335.19,935.858 2344.02,934.53 2352.85,933.206 
  2361.69,931.884 2370.52,930.566 2379.36,929.251 2388.19,927.94 2397.02,926.632 2405.86,925.327 2414.69,924.026 2423.52,922.728 2432.36,921.434 2441.19,920.144 
  2450.03,918.857 2458.86,917.574 2467.69,916.295 2476.53,915.02 2485.36,913.749 2494.19,912.481 2503.03,911.218 2511.86,909.958 2520.7,908.703 2529.53,907.451 
  2538.36,906.204 2547.2,904.961 2556.03,903.722 2564.86,902.488 2573.7,901.258 2582.53,900.032 2591.37,898.81 2600.2,897.593 2609.03,896.381 2617.87,895.173 
  2626.7,893.969 2635.53,892.77 2644.37,891.576 2653.2,890.386 2662.04,889.201 2670.87,888.021 2679.7,886.845 2688.54,885.674 2697.37,884.508 2706.2,883.347 
  2715.04,882.19 2723.87,881.039 2732.71,879.892 2741.54,878.75 2750.37,877.613 2759.21,876.481 2768.04,875.354 2776.87,874.233 2785.71,873.116 2794.54,872.004 
  2803.38,870.897 2812.21,869.796 2821.04,868.699 2829.88,867.608 2838.71,866.522 2847.54,865.441 2856.38,864.365 2865.21,863.294 2874.05,862.229 2882.88,861.169 
  2891.71,860.114 2900.55,859.065 2909.38,858.02 2918.21,856.981 2927.05,855.948 2935.88,854.919 2944.72,853.896 2953.55,852.878 2962.38,851.866 2971.22,850.859 
  2980.05,849.857 2988.88,848.861 2997.72,847.87 3006.55,846.884 3015.39,845.904 3024.22,844.929 3033.05,843.96 3041.89,842.996 3050.72,842.037 3059.55,841.084 
  3068.39,840.136 3077.22,839.194 3086.06,838.257 3094.89,837.325 3103.72,836.399 3112.56,835.478 3121.39,834.563 3130.22,833.653 3139.06,832.748 3147.89,831.849 
  3156.73,830.955 3165.56,830.066 3174.39,829.183 3183.23,828.306 3192.06,827.433 3200.89,826.566 3209.73,825.705 3218.56,824.849 3227.4,823.998 3236.23,823.152 
  3245.06,822.312 3253.9,821.477 3262.73,820.647 3271.56,819.823 3280.4,819.004 3289.23,818.19 3298.07,817.382 3306.9,816.579 3315.73,815.781 3324.57,814.988 
  3333.4,814.201 3342.23,813.418 3351.07,812.641 3359.9,811.869 3368.74,811.103 3377.57,810.341 3386.4,809.585 3395.24,808.833 3404.07,808.087 3412.9,807.346 
  3421.74,806.61 3430.57,805.879 3439.41,805.153 3448.24,804.432 3457.07,803.717 3465.91,803.006 3474.74,802.3 3483.57,801.599 3492.41,800.903 3501.24,800.212 
  3510.08,799.526 3518.91,798.845 3527.74,798.169 3536.58,797.497 3545.41,796.831 3554.24,796.169 3563.08,795.512 3571.91,794.86 3580.75,794.212 3589.58,793.57 
  3598.41,792.932 3607.25,792.299 3616.08,791.67 3624.91,791.046 3633.75,790.427 3642.58,789.812 3651.42,789.202 3660.25,788.597 3669.08,787.996 3677.92,787.399 
  3686.75,786.808 
  "/>
<polyline clip-path="url(#clip082)" style="stroke:#e26f46; stroke-linecap:round; stroke-linejoin:round; stroke-width:4; stroke-opacity:1; fill:none" points="
  153.249,1822.82 162.083,1822.42 170.917,1822.01 179.75,1821.59 188.584,1821.17 197.418,1820.74 206.252,1820.3 215.085,1819.85 223.919,1819.39 232.753,1818.92 
  241.587,1818.45 250.42,1817.96 259.254,1817.47 268.088,1816.96 276.922,1816.45 285.755,1815.92 294.589,1815.39 303.423,1814.84 312.257,1814.29 321.09,1813.72 
  329.924,1813.15 338.758,1812.56 347.592,1811.96 356.425,1811.35 365.259,1810.73 374.093,1810.1 382.927,1809.45 391.761,1808.8 400.594,1808.13 409.428,1807.44 
  418.262,1806.75 427.096,1806.04 435.929,1805.32 444.763,1804.58 453.597,1803.83 462.431,1803.07 471.264,1802.29 480.098,1801.5 488.932,1800.69 497.766,1799.87 
  506.599,1799.03 515.433,1798.18 524.267,1797.31 533.101,1796.42 541.934,1795.52 550.768,1794.61 559.602,1793.67 568.436,1792.72 577.269,1791.75 586.103,1790.76 
  594.937,1789.75 603.771,1788.73 612.604,1787.69 621.438,1786.63 630.272,1785.55 639.106,1784.44 647.939,1783.32 656.773,1782.18 665.607,1781.02 674.441,1779.84 
  683.274,1778.64 692.108,1777.41 700.942,1776.17 709.776,1774.9 718.609,1773.61 727.443,1772.29 736.277,1770.96 745.111,1769.59 753.944,1768.21 762.778,1766.8 
  771.612,1765.37 780.446,1763.91 789.279,1762.43 798.113,1760.92 806.947,1759.38 815.781,1757.82 824.614,1756.23 833.448,1754.62 842.282,1752.97 851.116,1751.3 
  859.949,1749.61 868.783,1747.88 877.617,1746.12 886.451,1744.34 895.285,1742.52 904.118,1740.68 912.952,1738.8 921.786,1736.89 930.62,1734.96 939.453,1732.99 
  948.287,1730.99 957.121,1728.95 965.955,1726.89 974.788,1724.79 983.622,1722.65 992.456,1720.49 1001.29,1718.29 1010.12,1716.05 1018.96,1713.78 1027.79,1711.48 
  1036.62,1709.14 1045.46,1706.76 1054.29,1704.35 1063.13,1701.9 1071.96,1699.41 1080.79,1696.89 1089.63,1694.33 1098.46,1691.73 1107.29,1689.09 1116.13,1686.42 
  1124.96,1683.7 1133.8,1680.95 1142.63,1678.15 1151.46,1675.32 1160.3,1672.45 1169.13,1669.53 1177.96,1666.58 1186.8,1663.58 1195.63,1660.55 1204.47,1657.47 
  1213.3,1654.35 1222.13,1651.19 1230.97,1647.99 1239.8,1644.74 1248.63,1641.46 1257.47,1638.13 1266.3,1634.76 1275.14,1631.34 1283.97,1627.89 1292.8,1624.39 
  1301.64,1620.84 1310.47,1617.26 1319.3,1613.63 1328.14,1609.96 1336.97,1606.24 1345.81,1602.48 1354.64,1598.68 1363.47,1594.83 1372.31,1590.94 1381.14,1587.01 
  1389.97,1583.04 1398.81,1579.02 1407.64,1574.96 1416.48,1570.86 1425.31,1566.71 1434.14,1562.52 1442.98,1558.29 1451.81,1554.02 1460.64,1549.71 1469.48,1545.35 
  1478.31,1540.96 1487.15,1536.52 1495.98,1532.04 1504.81,1527.53 1513.65,1522.97 1522.48,1518.37 1531.31,1513.74 1540.15,1509.06 1548.98,1504.35 1557.82,1499.6 
  1566.65,1494.81 1575.48,1489.99 1584.32,1485.13 1593.15,1480.24 1601.98,1475.31 1610.82,1470.34 1619.65,1465.35 1628.49,1460.32 1637.32,1455.26 1646.15,1450.16 
  1654.99,1445.04 1663.82,1439.88 1672.65,1434.7 1681.49,1429.49 1690.32,1424.25 1699.16,1418.98 1707.99,1413.69 1716.82,1408.38 1725.66,1403.04 1734.49,1397.67 
  1743.32,1392.29 1752.16,1386.88 1760.99,1381.45 1769.83,1376 1778.66,1370.54 1787.49,1365.05 1796.33,1359.55 1805.16,1354.04 1813.99,1348.51 1822.83,1342.97 
  1831.66,1337.41 1840.5,1331.85 1849.33,1326.27 1858.16,1320.69 1867,1315.1 1875.83,1309.5 1884.66,1303.89 1893.5,1298.29 1902.33,1292.67 1911.17,1287.06 
  1920,1281.44 1928.83,1275.83 1937.67,1270.21 1946.5,1264.6 1955.34,1258.99 1964.17,1253.39 1973,1247.79 1981.84,1242.2 1990.67,1236.61 1999.5,1231.04 
  2008.34,1225.47 2017.17,1219.92 2026.01,1214.38 2034.84,1208.85 2043.67,1203.33 2052.51,1197.83 2061.34,1192.35 2070.17,1186.88 2079.01,1181.44 2087.84,1176.01 
  2096.68,1170.6 2105.51,1165.22 2114.34,1159.85 2123.18,1154.51 2132.01,1149.19 2140.84,1143.9 2149.68,1138.64 2158.51,1133.4 2167.35,1128.19 2176.18,1123 
  2185.01,1117.85 2193.85,1112.72 2202.68,1107.63 2211.51,1102.57 2220.35,1097.54 2229.18,1092.54 2238.02,1087.58 2246.85,1082.65 2255.68,1077.76 2264.52,1072.9 
  2273.35,1068.07 2282.18,1063.29 2291.02,1058.54 2299.85,1053.82 2308.69,1049.15 2317.52,1044.51 2326.35,1039.92 2335.19,1035.36 2344.02,1030.84 2352.85,1026.37 
  2361.69,1021.93 2370.52,1017.53 2379.36,1013.18 2388.19,1008.86 2397.02,1004.59 2405.86,1000.36 2414.69,996.175 2423.52,992.029 2432.36,987.926 2441.19,983.866 
  2450.03,979.848 2458.86,975.874 2467.69,971.942 2476.53,968.054 2485.36,964.209 2494.19,960.406 2503.03,956.648 2511.86,952.932 2520.7,949.259 2529.53,945.63 
  2538.36,942.044 2547.2,938.501 2556.03,935.001 2564.86,931.544 2573.7,928.13 2582.53,924.758 2591.37,921.429 2600.2,918.142 2609.03,914.898 2617.87,911.696 
  2626.7,908.535 2635.53,905.417 2644.37,902.339 2653.2,899.303 2662.04,896.308 2670.87,893.354 2679.7,890.441 2688.54,887.567 2697.37,884.734 2706.2,881.941 
  2715.04,879.187 2723.87,876.472 2732.71,873.796 2741.54,871.158 2750.37,868.559 2759.21,865.998 2768.04,863.474 2776.87,860.988 2785.71,858.538 2794.54,856.126 
  2803.38,853.749 2812.21,851.409 2821.04,849.104 2829.88,846.834 2838.71,844.599 2847.54,842.398 2856.38,840.232 2865.21,838.1 2874.05,836.001 2882.88,833.935 
  2891.71,831.901 2900.55,829.9 2909.38,827.931 2918.21,825.993 2927.05,824.087 2935.88,822.211 2944.72,820.366 2953.55,818.551 2962.38,816.765 2971.22,815.009 
  2980.05,813.282 2988.88,811.583 2997.72,809.912 3006.55,808.27 3015.39,806.655 3024.22,805.066 3033.05,803.505 3041.89,801.97 3050.72,800.461 3059.55,798.977 
  3068.39,797.519 3077.22,796.086 3086.06,794.677 3094.89,793.292 3103.72,791.932 3112.56,790.595 3121.39,789.281 3130.22,787.99 3139.06,786.721 3147.89,785.474 
  3156.73,784.25 3165.56,783.047 3174.39,781.865 3183.23,780.703 3192.06,779.563 3200.89,778.442 3209.73,777.342 3218.56,776.261 3227.4,775.199 3236.23,774.156 
  3245.06,773.132 3253.9,772.127 3262.73,771.139 3271.56,770.169 3280.4,769.217 3289.23,768.282 3298.07,767.364 3306.9,766.462 3315.73,765.577 3324.57,764.708 
  3333.4,763.855 3342.23,763.017 3351.07,762.195 3359.9,761.388 3368.74,760.596 3377.57,759.818 3386.4,759.054 3395.24,758.305 3404.07,757.569 3412.9,756.847 
  3421.74,756.139 3430.57,755.443 3439.41,754.761 3448.24,754.091 3457.07,753.433 3465.91,752.788 3474.74,752.155 3483.57,751.533 3492.41,750.924 3501.24,750.325 
  3510.08,749.738 3518.91,749.162 3527.74,748.597 3536.58,748.042 3545.41,747.498 3554.24,746.964 3563.08,746.44 3571.91,745.926 3580.75,745.422 3589.58,744.927 
  3598.41,744.442 3607.25,743.966 3616.08,743.499 3624.91,743.04 3633.75,742.591 3642.58,742.15 3651.42,741.717 3660.25,741.292 3669.08,740.876 3677.92,740.468 
  3686.75,740.067 
  "/>
<polyline clip-path="url(#clip082)" style="stroke:#3da44d; stroke-linecap:round; stroke-linejoin:round; stroke-width:4; stroke-opacity:1; fill:none" points="
  153.249,1281.44 162.083,1281.44 170.917,1281.44 179.75,1281.44 188.584,1281.44 197.418,1281.44 206.252,1281.44 215.085,1281.44 223.919,1281.44 232.753,1281.44 
  241.587,1281.44 250.42,1281.44 259.254,1281.44 268.088,1281.44 276.922,1281.44 285.755,1281.44 294.589,1281.44 303.423,1281.44 312.257,1281.44 321.09,1281.44 
  329.924,1281.44 338.758,1281.44 347.592,1281.44 356.425,1281.44 365.259,1281.44 374.093,1281.44 382.927,1281.44 391.761,1281.44 400.594,1281.44 409.428,1281.44 
  418.262,1281.44 427.096,1281.44 435.929,1281.44 444.763,1281.44 453.597,1281.44 462.431,1281.44 471.264,1281.44 480.098,1281.44 488.932,1281.44 497.766,1281.44 
  506.599,1281.44 515.433,1281.44 524.267,1281.44 533.101,1281.44 541.934,1281.44 550.768,1281.44 559.602,1281.44 568.436,1281.44 577.269,1281.44 586.103,1281.44 
  594.937,1281.44 603.771,1281.44 612.604,1281.44 621.438,1281.44 630.272,1281.44 639.106,1281.44 647.939,1281.44 656.773,1281.44 665.607,1281.44 674.441,1281.44 
  683.274,1281.44 692.108,1281.44 700.942,1281.44 709.776,1281.44 718.609,1281.44 727.443,1281.44 736.277,1281.44 745.111,1281.44 753.944,1281.44 762.778,1281.44 
  771.612,1281.44 780.446,1281.44 789.279,1281.44 798.113,1281.44 806.947,1281.44 815.781,1281.44 824.614,1281.44 833.448,1281.44 842.282,1281.44 851.116,1281.44 
  859.949,1281.44 868.783,1281.44 877.617,1281.44 886.451,1281.44 895.285,1281.44 904.118,1281.44 912.952,1281.44 921.786,1281.44 930.62,1281.44 939.453,1281.44 
  948.287,1281.44 957.121,1281.44 965.955,1281.44 974.788,1281.44 983.622,1281.44 992.456,1281.44 1001.29,1281.44 1010.12,1281.44 1018.96,1281.44 1027.79,1281.44 
  1036.62,1281.44 1045.46,1281.44 1054.29,1281.44 1063.13,1281.44 1071.96,1281.44 1080.79,1281.44 1089.63,1281.44 1098.46,1281.44 1107.29,1281.44 1116.13,1281.44 
  1124.96,1281.44 1133.8,1281.44 1142.63,1281.44 1151.46,1281.44 1160.3,1281.44 1169.13,1281.44 1177.96,1281.44 1186.8,1281.44 1195.63,1281.44 1204.47,1281.44 
  1213.3,1281.44 1222.13,1281.44 1230.97,1281.44 1239.8,1281.44 1248.63,1281.44 1257.47,1281.44 1266.3,1281.44 1275.14,1281.44 1283.97,1281.44 1292.8,1281.44 
  1301.64,1281.44 1310.47,1281.44 1319.3,1281.44 1328.14,1281.44 1336.97,1281.44 1345.81,1281.44 1354.64,1281.44 1363.47,1281.44 1372.31,1281.44 1381.14,1281.44 
  1389.97,1281.44 1398.81,1281.44 1407.64,1281.44 1416.48,1281.44 1425.31,1281.44 1434.14,1281.44 1442.98,1281.44 1451.81,1281.44 1460.64,1281.44 1469.48,1281.44 
  1478.31,1281.44 1487.15,1281.44 1495.98,1281.44 1504.81,1281.44 1513.65,1281.44 1522.48,1281.44 1531.31,1281.44 1540.15,1281.44 1548.98,1281.44 1557.82,1281.44 
  1566.65,1281.44 1575.48,1281.44 1584.32,1281.44 1593.15,1281.44 1601.98,1281.44 1610.82,1281.44 1619.65,1281.44 1628.49,1281.44 1637.32,1281.44 1646.15,1281.44 
  1654.99,1281.44 1663.82,1281.44 1672.65,1281.44 1681.49,1281.44 1690.32,1281.44 1699.16,1281.44 1707.99,1281.44 1716.82,1281.44 1725.66,1281.44 1734.49,1281.44 
  1743.32,1281.44 1752.16,1281.44 1760.99,1281.44 1769.83,1281.44 1778.66,1281.44 1787.49,1281.44 1796.33,1281.44 1805.16,1281.44 1813.99,1281.44 1822.83,1281.44 
  1831.66,1281.44 1840.5,1281.44 1849.33,1281.44 1858.16,1281.44 1867,1281.44 1875.83,1281.44 1884.66,1281.44 1893.5,1281.44 1902.33,1281.44 1911.17,1281.44 
  1920,1281.44 1928.83,1275.83 1937.67,1270.21 1946.5,1264.6 1955.34,1258.98 1964.17,1253.36 1973,1247.75 1981.84,1242.13 1990.67,1236.52 1999.5,1230.9 
  2008.34,1225.29 2017.17,1219.67 2026.01,1214.05 2034.84,1208.44 2043.67,1202.82 2052.51,1197.21 2061.34,1191.59 2070.17,1185.98 2079.01,1180.36 2087.84,1174.74 
  2096.68,1169.13 2105.51,1163.51 2114.34,1157.9 2123.18,1152.28 2132.01,1146.66 2140.84,1141.05 2149.68,1135.43 2158.51,1129.82 2167.35,1124.2 2176.18,1118.59 
  2185.01,1112.97 2193.85,1107.35 2202.68,1101.74 2211.51,1096.12 2220.35,1090.51 2229.18,1084.89 2238.02,1079.28 2246.85,1073.66 2255.68,1068.04 2264.52,1062.43 
  2273.35,1056.81 2282.18,1051.2 2291.02,1045.58 2299.85,1039.97 2308.69,1034.35 2317.52,1028.73 2326.35,1023.12 2335.19,1017.5 2344.02,1011.89 2352.85,1006.27 
  2361.69,1000.65 2370.52,995.039 2379.36,989.423 2388.19,983.807 2397.02,978.192 2405.86,972.576 2414.69,966.96 2423.52,961.344 2432.36,955.728 2441.19,950.113 
  2450.03,944.497 2458.86,938.881 2467.69,933.265 2476.53,927.65 2485.36,922.034 2494.19,916.418 2503.03,910.802 2511.86,905.186 2520.7,899.571 2529.53,893.955 
  2538.36,888.339 2547.2,882.723 2556.03,877.108 2564.86,871.492 2573.7,865.876 2582.53,860.26 2591.37,854.644 2600.2,849.029 2609.03,843.413 2617.87,837.797 
  2626.7,832.181 2635.53,826.566 2644.37,820.95 2653.2,815.334 2662.04,809.718 2670.87,804.102 2679.7,798.487 2688.54,792.871 2697.37,787.255 2706.2,781.639 
  2715.04,776.024 2723.87,770.408 2732.71,764.792 2741.54,759.176 2750.37,753.56 2759.21,747.945 2768.04,742.329 2776.87,736.713 2785.71,731.097 2794.54,725.482 
  2803.38,719.866 2812.21,714.25 2821.04,708.634 2829.88,703.018 2838.71,697.403 2847.54,691.787 2856.38,686.171 2865.21,680.555 2874.05,674.94 2882.88,669.324 
  2891.71,663.708 2900.55,658.092 2909.38,652.476 2918.21,646.861 2927.05,641.245 2935.88,635.629 2944.72,630.013 2953.55,624.398 2962.38,618.782 2971.22,613.166 
  2980.05,607.55 2988.88,601.934 2997.72,596.319 3006.55,590.703 3015.39,585.087 3024.22,579.471 3033.05,573.856 3041.89,568.24 3050.72,562.624 3059.55,557.008 
  3068.39,551.392 3077.22,545.777 3086.06,540.161 3094.89,534.545 3103.72,528.929 3112.56,523.314 3121.39,517.698 3130.22,512.082 3139.06,506.466 3147.89,500.85 
  3156.73,495.235 3165.56,489.619 3174.39,484.003 3183.23,478.387 3192.06,472.772 3200.89,467.156 3209.73,461.54 3218.56,455.924 3227.4,450.308 3236.23,444.693 
  3245.06,439.077 3253.9,433.461 3262.73,427.845 3271.56,422.23 3280.4,416.614 3289.23,410.998 3298.07,405.382 3306.9,399.767 3315.73,394.151 3324.57,388.535 
  3333.4,382.919 3342.23,377.303 3351.07,371.688 3359.9,366.072 3368.74,360.456 3377.57,354.84 3386.4,349.225 3395.24,343.609 3404.07,337.993 3412.9,332.377 
  3421.74,326.761 3430.57,321.146 3439.41,315.53 3448.24,309.914 3457.07,304.298 3465.91,298.683 3474.74,293.067 3483.57,287.451 3492.41,281.835 3501.24,276.219 
  3510.08,270.604 3518.91,264.988 3527.74,259.372 3536.58,253.756 3545.41,248.141 3554.24,242.525 3563.08,236.909 3571.91,231.293 3580.75,225.677 3589.58,220.062 
  3598.41,214.446 3607.25,208.83 3616.08,203.214 3624.91,197.599 3633.75,191.983 3642.58,186.367 3651.42,180.751 3660.25,175.135 3669.08,169.52 3677.92,163.904 
  3686.75,158.288 
  "/>
<path clip-path="url(#clip080)" d="
M3186.71 374.526 L3667.91 374.526 L3667.91 167.166 L3186.71 167.166  Z
  " fill="#ffffff" fill-rule="evenodd" fill-opacity="1"/>
<polyline clip-path="url(#clip080)" style="stroke:#000000; stroke-linecap:round; stroke-linejoin:round; stroke-width:4; stroke-opacity:1; fill:none" points="
  3186.71,374.526 3667.91,374.526 3667.91,167.166 3186.71,167.166 3186.71,374.526 
  "/>
<polyline clip-path="url(#clip080)" style="stroke:#009af9; stroke-linecap:round; stroke-linejoin:round; stroke-width:4; stroke-opacity:1; fill:none" points="
  3228.33,219.006 3478.03,219.006 
  "/>
<path clip-path="url(#clip080)" d="M3531.54 213.739 Q3528.03 213.739 3526.13 216.286 Q3524.14 218.948 3524.14 223.346 Q3524.14 227.999 3526.1 230.684 Q3528.09 233.346 3531.54 233.346 Q3534.95 233.346 3536.94 230.661 Q3538.93 227.975 3538.93 223.346 Q3538.93 219.11 3536.94 216.286 Q3535.11 213.739 3531.54 213.739 M3531.54 210.36 L3545.69 210.36 L3545.69 214.619 L3540.92 214.619 Q3543.44 218.23 3543.44 223.346 Q3543.44 229.712 3540.27 233.323 Q3537.1 236.957 3531.54 236.957 Q3525.97 236.957 3522.82 233.323 Q3519.65 229.712 3519.65 223.346 Q3519.65 216.934 3522.82 213.346 Q3525.43 210.36 3531.54 210.36 Z" fill="#000000" fill-rule="evenodd" fill-opacity="1" /><polyline clip-path="url(#clip080)" style="stroke:#e26f46; stroke-linecap:round; stroke-linejoin:round; stroke-width:4; stroke-opacity:1; fill:none" points="
  3228.33,270.846 3478.03,270.846 
  "/>
<path clip-path="url(#clip080)" d="M3527.05 254.839 L3527.05 262.2 L3535.83 262.2 L3535.83 265.51 L3527.05 265.51 L3527.05 279.584 Q3527.05 282.755 3527.91 283.658 Q3528.79 284.561 3531.45 284.561 L3535.83 284.561 L3535.83 288.126 L3531.45 288.126 Q3526.52 288.126 3524.65 286.297 Q3522.77 284.445 3522.77 279.584 L3522.77 265.51 L3519.65 265.51 L3519.65 262.2 L3522.77 262.2 L3522.77 254.839 L3527.05 254.839 Z" fill="#000000" fill-rule="evenodd" fill-opacity="1" /><path clip-path="url(#clip080)" d="M3553.21 275.093 Q3548.05 275.093 3546.06 276.274 Q3544.07 277.454 3544.07 280.302 Q3544.07 282.57 3545.55 283.913 Q3547.05 285.232 3549.62 285.232 Q3553.16 285.232 3555.29 282.732 Q3557.45 280.209 3557.45 276.042 L3557.45 275.093 L3553.21 275.093 M3561.71 273.334 L3561.71 288.126 L3557.45 288.126 L3557.45 284.19 Q3555.99 286.552 3553.81 287.686 Q3551.64 288.797 3548.49 288.797 Q3544.51 288.797 3542.15 286.575 Q3539.81 284.329 3539.81 280.579 Q3539.81 276.204 3542.72 273.982 Q3545.66 271.76 3551.47 271.76 L3557.45 271.76 L3557.45 271.343 Q3557.45 268.403 3555.5 266.806 Q3553.58 265.186 3550.09 265.186 Q3547.86 265.186 3545.76 265.718 Q3543.65 266.251 3541.71 267.316 L3541.71 263.38 Q3544.04 262.478 3546.24 262.038 Q3548.44 261.575 3550.53 261.575 Q3556.15 261.575 3558.93 264.491 Q3561.71 267.408 3561.71 273.334 Z" fill="#000000" fill-rule="evenodd" fill-opacity="1" /><path clip-path="url(#clip080)" d="M3592.03 272.478 L3592.03 288.126 L3587.77 288.126 L3587.77 272.616 Q3587.77 268.936 3586.34 267.107 Q3584.9 265.278 3582.03 265.278 Q3578.58 265.278 3576.59 267.478 Q3574.6 269.677 3574.6 273.473 L3574.6 288.126 L3570.32 288.126 L3570.32 262.2 L3574.6 262.2 L3574.6 266.228 Q3576.13 263.89 3578.19 262.732 Q3580.27 261.575 3582.98 261.575 Q3587.45 261.575 3589.74 264.353 Q3592.03 267.107 3592.03 272.478 Z" fill="#000000" fill-rule="evenodd" fill-opacity="1" /><path clip-path="url(#clip080)" d="M3622.08 272.478 L3622.08 288.126 L3617.82 288.126 L3617.82 272.616 Q3617.82 268.936 3616.38 267.107 Q3614.95 265.278 3612.08 265.278 Q3608.63 265.278 3606.64 267.478 Q3604.65 269.677 3604.65 273.473 L3604.65 288.126 L3600.36 288.126 L3600.36 252.107 L3604.65 252.107 L3604.65 266.228 Q3606.17 263.89 3608.23 262.732 Q3610.32 261.575 3613.02 261.575 Q3617.49 261.575 3619.78 264.353 Q3622.08 267.107 3622.08 272.478 Z" fill="#000000" fill-rule="evenodd" fill-opacity="1" /><polyline clip-path="url(#clip080)" style="stroke:#3da44d; stroke-linecap:round; stroke-linejoin:round; stroke-width:4; stroke-opacity:1; fill:none" points="
  3228.33,322.686 3478.03,322.686 
  "/>
<path clip-path="url(#clip080)" d="M3536.03 323.762 Q3537.54 324.271 3538.95 325.938 Q3540.39 327.605 3541.82 330.521 L3546.57 339.966 L3541.54 339.966 L3537.12 331.1 Q3535.41 327.628 3533.79 326.493 Q3532.19 325.359 3529.41 325.359 L3524.32 325.359 L3524.32 339.966 L3519.65 339.966 L3519.65 305.406 L3530.2 305.406 Q3536.13 305.406 3539.04 307.882 Q3541.96 310.359 3541.96 315.359 Q3541.96 318.623 3540.43 320.776 Q3538.93 322.929 3536.03 323.762 M3524.32 309.248 L3524.32 321.517 L3530.2 321.517 Q3533.58 321.517 3535.29 319.966 Q3537.03 318.392 3537.03 315.359 Q3537.03 312.327 3535.29 310.799 Q3533.58 309.248 3530.2 309.248 L3524.32 309.248 Z" fill="#000000" fill-rule="evenodd" fill-opacity="1" /><path clip-path="url(#clip080)" d="M3572.45 325.938 L3572.45 328.021 L3552.86 328.021 Q3553.14 332.419 3555.5 334.734 Q3557.89 337.026 3562.12 337.026 Q3564.58 337.026 3566.87 336.424 Q3569.18 335.822 3571.45 334.618 L3571.45 338.646 Q3569.16 339.618 3566.75 340.128 Q3564.34 340.637 3561.87 340.637 Q3555.66 340.637 3552.03 337.026 Q3548.42 333.415 3548.42 327.257 Q3548.42 320.892 3551.84 317.165 Q3555.29 313.415 3561.13 313.415 Q3566.36 313.415 3569.39 316.794 Q3572.45 320.151 3572.45 325.938 M3568.19 324.688 Q3568.14 321.193 3566.22 319.109 Q3564.32 317.026 3561.17 317.026 Q3557.61 317.026 3555.46 319.04 Q3553.33 321.054 3553 324.711 L3568.19 324.688 Z" fill="#000000" fill-rule="evenodd" fill-opacity="1" /><path clip-path="url(#clip080)" d="M3579.62 305.406 L3584.3 305.406 L3584.3 336.03 L3601.13 336.03 L3601.13 339.966 L3579.62 339.966 L3579.62 305.406 Z" fill="#000000" fill-rule="evenodd" fill-opacity="1" /><path clip-path="url(#clip080)" d="M3604.58 329.734 L3604.58 314.04 L3608.84 314.04 L3608.84 329.572 Q3608.84 333.253 3610.27 335.105 Q3611.71 336.933 3614.58 336.933 Q3618.02 336.933 3620.02 334.734 Q3622.03 332.535 3622.03 328.739 L3622.03 314.04 L3626.29 314.04 L3626.29 339.966 L3622.03 339.966 L3622.03 335.984 Q3620.48 338.345 3618.42 339.503 Q3616.38 340.637 3613.67 340.637 Q3609.21 340.637 3606.89 337.859 Q3604.58 335.081 3604.58 329.734 M3615.29 313.415 L3615.29 313.415 Z" fill="#000000" fill-rule="evenodd" fill-opacity="1" /></svg>
